<svg xmlns="http://www.w3.org/2000/svg" width="23.221" height="27.276" viewBox="0 0 23.221 27.276">
  <g id="chupete" transform="translate(0 0)">
    <path id="Trazado_11156" data-name="Trazado 11156" d="M283.063,258.132a6.948,6.948,0,0,1-.824-.05v12.692a.824.824,0,1,0,1.649,0V258.082A6.949,6.949,0,0,1,283.063,258.132Zm0,0" transform="translate(-267.229 -244.333)" fill="#e1e7ec"/>
    <path id="Trazado_11157" data-name="Trazado 11157" d="M283.336,270.774V258.126c-.091,0-.182.006-.274.006a6.947,6.947,0,0,1-.824-.05v12.692a.83.83,0,0,0,.824.835.814.814,0,0,0,.549-.214A.837.837,0,0,1,283.336,270.774Zm0,0" transform="translate(-267.229 -244.333)" fill="#e1e7ec"/>
    <path id="Trazado_11158" data-name="Trazado 11158" d="M178.454,2.046a6.987,6.987,0,1,0,0,9.881,6.987,6.987,0,0,0,0-9.881Zm0,0" transform="translate(-157.682 0)" fill="#58afe1"/>
    <path id="Trazado_11159" data-name="Trazado 11159" d="M168.817,3.882a.412.412,0,0,1-.138-.57,6.98,6.98,0,0,1,5.395-3.29A6.984,6.984,0,0,0,167.6,3.285a7.09,7.09,0,0,0-1.058,3.572,6.979,6.979,0,0,0,5.587,6.975l.053.011h0a7.031,7.031,0,0,0,1.894.109,6.992,6.992,0,0,1-1.483-.279.312.312,0,0,1-.207-.395,8.082,8.082,0,0,0-3.566-9.4Zm0,0" transform="translate(-157.692 0)" fill="#1088cf"/>
    <path id="Trazado_11160" data-name="Trazado 11160" d="M173.272,106.227H159.6a.549.549,0,0,0-.549.549v1.553a.549.549,0,0,0,.549.549h13.676a.549.549,0,0,0,.549-.549v-1.553A.549.549,0,0,0,173.272,106.227Zm0,0" transform="translate(-150.601 -100.568)" fill="#1088cf"/>
    <path id="Trazado_11161" data-name="Trazado 11161" d="M172.439,108.88a8.08,8.08,0,0,0-1.47-2.652c-4.542,0-4.184,0-4.228,0a7.249,7.249,0,0,0,0,2.65c.043,0-.4,0,5.7,0Zm0,0" transform="translate(-157.768 -100.569)" fill="#1088cf"/>
    <path id="Trazado_11162" data-name="Trazado 11162" d="M211.1,282.6a6.923,6.923,0,0,1-.618.547l8.975,8.975a.824.824,0,1,0,1.166-1.166l-8.975-8.975A6.935,6.935,0,0,1,211.1,282.6Zm0,0" transform="translate(-199.298 -266.962)" fill="#e1e7ec"/>
    <path id="Trazado_11163" data-name="Trazado 11163" d="M211.985,283.369a.28.28,0,0,1,.014-.41q.167-.143.327-.3l-.675-.676a6.765,6.765,0,0,1-1.166,1.166l8.975,8.975a.83.83,0,0,0,1.173.007.79.79,0,0,0,.055-.061Zm0,0" transform="translate(-199.297 -266.962)" fill="#e1e7ec"/>
    <path id="Trazado_11164" data-name="Trazado 11164" d="M14.475,79.027A6.987,6.987,0,1,1,7.488,72.04,6.987,6.987,0,0,1,14.475,79.027Zm0,0" transform="translate(-0.501 -68.202)" fill="#f98c96"/>
    <path id="Trazado_11165" data-name="Trazado 11165" d="M1.605,79.027a6.987,6.987,0,0,1,6.434-6.965q-.273-.022-.553-.022a6.987,6.987,0,0,0,0,13.974q.279,0,.553-.022a6.987,6.987,0,0,1-6.434-6.965Zm0,0" transform="translate(-0.5 -68.202)" fill="#ea5471"/>
    <path id="Trazado_11166" data-name="Trazado 11166" d="M30.1,91.929l-9.67,9.67a.549.549,0,0,0,0,.777l1.1,1.1a.549.549,0,0,0,.777,0l9.67-9.67a.549.549,0,0,0,0-.777l-1.1-1.1A.549.549,0,0,0,30.1,91.929Zm0,0" transform="translate(-19.215 -86.88)" fill="#ea5471"/>
    <path id="Trazado_11167" data-name="Trazado 11167" d="M21.106,263.621l-.676.676a.549.549,0,0,0,0,.777l1.1,1.1a.549.549,0,0,0,.777,0l.461-.461a7.012,7.012,0,0,1-1.66-2.09Zm0,0" transform="translate(-19.215 -249.577)" fill="#da1c4b"/>
  </g>
</svg>
