<svg xmlns="http://www.w3.org/2000/svg" width="14.666" height="14.055" viewBox="0 0 14.666 14.055">
  <path id="github" d="M7.333.5A7.269,7.269,0,0,0,0,7.706a7.218,7.218,0,0,0,5.014,6.837c.367.068.5-.155.5-.346,0-.171-.006-.625-.009-1.225-2.04.434-2.47-.967-2.47-.967A1.921,1.921,0,0,0,2.22,10.95c-.664-.447.051-.438.051-.438a1.534,1.534,0,0,1,1.123.742,1.579,1.579,0,0,0,2.136.6,1.526,1.526,0,0,1,.464-.964c-1.628-.18-3.34-.8-3.34-3.561A2.753,2.753,0,0,1,3.409,5.4a2.521,2.521,0,0,1,.064-1.907s.614-.193,2.017.739a7.031,7.031,0,0,1,3.666,0c1.393-.932,2.007-.739,2.007-.739A2.591,2.591,0,0,1,11.237,5.4a2.764,2.764,0,0,1,.752,1.933c0,2.768-1.714,3.377-3.346,3.555a1.71,1.71,0,0,1,.495,1.333c0,.964-.009,1.739-.009,1.973,0,.189.128.414.5.342a7.2,7.2,0,0,0,5.033-6.827A7.27,7.27,0,0,0,7.333.5Z" transform="translate(0 -0.5)" fill="#79858f"/>
</svg>
