<svg xmlns="http://www.w3.org/2000/svg" width="23.089" height="23.091" viewBox="0 0 23.089 23.091">
  <g id="global" transform="translate(0 0)">
    <g id="Grupo_44" data-name="Grupo 44" transform="translate(0 0)">
      <path id="Trazado_144" data-name="Trazado 144" d="M20.971,4.879a.193.193,0,0,0,0-.022c-.029-.041-.064-.077-.094-.117q-.323-.441-.685-.848c-.066-.074-.132-.148-.2-.22q-.372-.4-.78-.76c-.05-.045-.1-.091-.148-.134A11.561,11.561,0,0,0,16.873,1.3c-.031-.016-.064-.03-.1-.047A11.472,11.472,0,0,0,15.7.775c-.083-.03-.158-.058-.236-.083q-.487-.176-.99-.308c-.1-.026-.2-.054-.3-.077-.33-.077-.66-.135-1-.183-.1-.015-.2-.035-.306-.047a10.844,10.844,0,0,0-2.617,0c-.1.012-.2.032-.306.047-.337.048-.671.106-1,.183-.1.023-.2.05-.3.077q-.506.132-.99.308c-.083.028-.158.056-.236.083a11.465,11.465,0,0,0-1.072.478c-.032.016-.065.03-.1.047a11.564,11.564,0,0,0-2.2,1.478c-.05.044-.1.09-.148.134a10.729,10.729,0,0,0-.78.76c-.068.073-.134.146-.2.22q-.362.407-.685.848c-.03.04-.065.076-.094.117a.187.187,0,0,0-.01.022,11.474,11.474,0,0,0,0,13.329.18.18,0,0,0,.01.022c.029.041.064.077.094.117q.323.441.685.848c.066.074.132.148.2.22q.373.4.78.76c.05.045.1.091.148.134a11.561,11.561,0,0,0,2.189,1.478c.031.016.064.031.1.047a11.471,11.471,0,0,0,1.072.478c.083.03.158.058.236.083q.487.176.99.308c.1.026.2.054.3.077.33.077.66.135,1,.183.1.015.2.035.306.047a10.845,10.845,0,0,0,2.617,0c.1-.012.2-.032.306-.047.337-.048.671-.106,1-.183.1-.023.2-.05.3-.077q.506-.132.99-.308c.083-.028.158-.056.236-.083a11.465,11.465,0,0,0,1.072-.478c.032-.016.065-.03.1-.047a11.564,11.564,0,0,0,2.189-1.478c.05-.044.1-.09.148-.134a10.5,10.5,0,0,0,.78-.76c.068-.073.134-.146.2-.22q.362-.408.685-.848c.03-.04.065-.076.094-.117a.187.187,0,0,0,.01-.022A11.473,11.473,0,0,0,20.971,4.879ZM20.03,6.44a9.815,9.815,0,0,1,1.392,4.279H16.481a15.393,15.393,0,0,0-.462-2.911A14.823,14.823,0,0,0,20.03,6.44ZM13.664,1.872c.046.011.091.026.137.036a8.877,8.877,0,0,1,.874.247c.044.015.087.032.13.048q.426.148.837.33l.143.069q.393.187.769.405l.165.1q.356.218.693.466c.058.042.115.083.172.129a7.526,7.526,0,0,1,.632.53c.053.048.107.095.159.144.211.2.412.412.607.632.025.029.051.055.076.083a13.837,13.837,0,0,1-3.518,1.13,20.975,20.975,0,0,0-2.221-4.407C13.433,1.836,13.551,1.848,13.664,1.872ZM8.3,10.719a13.764,13.764,0,0,1,.454-2.64,23.638,23.638,0,0,0,2.816.165,23.691,23.691,0,0,0,2.819-.169,13.738,13.738,0,0,1,.451,2.644Zm6.54,1.65a13.764,13.764,0,0,1-.454,2.64,24.143,24.143,0,0,0-5.635,0,13.742,13.742,0,0,1-.451-2.64ZM11.565,2.183a19.923,19.923,0,0,1,2.3,4.289,21.833,21.833,0,0,1-2.3.122,22,22,0,0,1-2.3-.123A20.08,20.08,0,0,1,11.565,2.183ZM4.149,5.009c.194-.219.4-.431.607-.632.052-.049.106-.1.159-.144q.305-.278.632-.53c.057-.044.115-.083.172-.129q.337-.247.693-.466l.165-.1q.375-.219.769-.405l.143-.069q.411-.186.837-.33c.043-.016.083-.033.129-.048.286-.1.577-.175.874-.247.046-.011.091-.026.138-.035.113-.025.23-.036.345-.057A20.976,20.976,0,0,0,7.592,6.223a13.836,13.836,0,0,1-3.518-1.13C4.1,5.064,4.124,5.038,4.149,5.009ZM3.1,6.44A14.821,14.821,0,0,0,7.111,7.808a15.393,15.393,0,0,0-.461,2.911H1.708A9.817,9.817,0,0,1,3.1,6.44Zm0,10.207a9.815,9.815,0,0,1-1.392-4.279H6.649a15.393,15.393,0,0,0,.462,2.911A14.82,14.82,0,0,0,3.1,16.647Zm6.367,4.567c-.046-.011-.091-.026-.137-.036a8.877,8.877,0,0,1-.874-.247c-.044-.015-.087-.032-.13-.048q-.426-.148-.837-.33l-.143-.069q-.393-.187-.769-.405l-.165-.1q-.356-.218-.693-.466c-.058-.042-.115-.083-.172-.129a7.526,7.526,0,0,1-.632-.53c-.053-.048-.107-.095-.159-.144-.211-.2-.412-.412-.607-.632-.025-.029-.051-.055-.076-.083a13.837,13.837,0,0,1,3.518-1.13,20.975,20.975,0,0,0,2.221,4.407C9.7,21.251,9.58,21.239,9.467,21.215Zm2.1-.31a19.923,19.923,0,0,1-2.3-4.289,21.475,21.475,0,0,1,4.6,0h0A20.076,20.076,0,0,1,11.565,20.9Zm7.416-2.826c-.194.219-.4.431-.607.632-.052.049-.106.1-.159.144q-.305.279-.632.53c-.057.044-.115.087-.172.129q-.337.247-.693.466l-.165.1q-.375.219-.769.405l-.143.069q-.411.186-.837.33c-.043.016-.083.033-.129.048-.286.1-.577.175-.874.247-.046.011-.091.026-.138.035-.113.025-.23.036-.345.057a20.973,20.973,0,0,0,2.221-4.407A13.836,13.836,0,0,1,19.056,18C19.032,18.023,19.006,18.05,18.981,18.078Zm1.049-1.431A14.82,14.82,0,0,0,16.02,15.28a15.393,15.393,0,0,0,.461-2.911h4.941A9.817,9.817,0,0,1,20.03,16.647Z" transform="translate(-0.016 0.002)" fill="#79858f"/>
    </g>
  </g>
</svg>
