<svg id="golosinas" xmlns="http://www.w3.org/2000/svg" width="35.737" height="35.737" viewBox="0 0 35.737 35.737">
  <path id="Trazado_11168" data-name="Trazado 11168" d="M0,0H2.465V18.485H0Z" transform="translate(16.636 17.252)" fill="#9aa3a8"/>
  <ellipse id="Elipse_41" data-name="Elipse 41" cx="9.354" cy="8.686" rx="9.354" ry="8.686" transform="translate(8.515 0.501)" fill="#e1e7ec"/>
  <path id="Trazado_11169" data-name="Trazado 11169" d="M4.989,6.162a5.364,5.364,0,0,0,.889,3.081,5.366,5.366,0,0,1-2.807-1.55C.9,5.524,2.137,4.268,0,2.109A9.207,9.207,0,0,1,5.877,0q.449,0,.888.042C6.75,3.081,4.989,3.1,4.989,6.162Z" transform="translate(11.991 0)" fill="#fc556a"/>
  <path id="Trazado_11170" data-name="Trazado 11170" d="M9.242.888a5.363,5.363,0,0,1-1.55,2.807c-2.169,2.169-3.424.933-5.584,3.071A9.207,9.207,0,0,1,0,.888Q0,.439.042,0C3.081.015,3.1,1.777,6.162,1.777A5.364,5.364,0,0,0,9.242.888Z" transform="translate(8.626 8.354)" fill="#ff2308"/>
  <path id="Trazado_11171" data-name="Trazado 11171" d="M6.765,7.134A9.207,9.207,0,0,1,.888,9.242Q.439,9.242,0,9.2C.015,6.162,1.777,6.147,1.777,3.081A5.364,5.364,0,0,0,.888,0,5.361,5.361,0,0,1,3.7,1.55C5.864,3.719,4.628,4.974,6.765,7.134Z" transform="translate(16.981 9.242)" fill="#fc556a"/>
  <path id="Trazado_11172" data-name="Trazado 11172" d="M9.242,5.877q0,.449-.042.888C6.162,6.75,6.147,4.989,3.081,4.989A5.365,5.365,0,0,0,0,5.877,5.376,5.376,0,0,1,1.55,3.07C3.719.9,4.974,2.137,7.134,0A9.207,9.207,0,0,1,9.242,5.877Z" transform="translate(17.869 3.365)" fill="#ff2308"/>
  <g id="Grupo_677" data-name="Grupo 677" transform="translate(8.626 0)">
    <path id="Trazado_11173" data-name="Trazado 11173" d="M.03,0,0,.029" transform="translate(16.376 3.336)" fill="none"/>
    <path id="Trazado_11174" data-name="Trazado 11174" d="M.029.03,0,0" transform="translate(3.336 2.079)" fill="none"/>
    <path id="Trazado_11175" data-name="Trazado 11175" d="M0,0C0,.014,0,.028,0,.042" transform="translate(8.354 18.442)" fill="none"/>
    <path id="Trazado_11176" data-name="Trazado 11176" d="M0,0C0,.015,0,.029,0,.042" transform="translate(10.13 0)" fill="none"/>
    <path id="Trazado_11177" data-name="Trazado 11177" d="M.042,0H0" transform="translate(0 8.354)" fill="none"/>
    <path id="Trazado_11178" data-name="Trazado 11178" d="M.042,0H0" transform="translate(18.442 10.13)" fill="none"/>
    <path id="Trazado_11179" data-name="Trazado 11179" d="M.03,0,0,.029" transform="translate(2.079 15.12)" fill="none"/>
    <path id="Trazado_11180" data-name="Trazado 11180" d="M.029.03,0,0" transform="translate(15.12 16.376)" fill="none"/>
  </g>
  <ellipse id="Elipse_42" data-name="Elipse 42" cx="2.004" cy="2.004" rx="2.004" ry="2.004" transform="translate(4.506 16.537)" fill="#58afe1"/>
  <ellipse id="Elipse_43" data-name="Elipse 43" cx="2.004" cy="2.004" rx="2.004" ry="2.004" transform="translate(29.895 7.183)" fill="#58afe1"/>
  <ellipse id="Elipse_44" data-name="Elipse 44" cx="2.004" cy="2.004" rx="2.004" ry="2.004" transform="translate(27.223 29.9)" fill="#ff2308"/>
  <ellipse id="Elipse_45" data-name="Elipse 45" cx="2.004" cy="2.004" rx="2.004" ry="2.004" transform="translate(1.833 1.837)" fill="#ff2308"/>
  <path id="Trazado_11181" data-name="Trazado 11181" d="M5.589,4.718l-.436.435-.436.436a1.231,1.231,0,0,1-1.742,0L.361,2.975a1.232,1.232,0,0,1,0-1.743L1.232.361a1.232,1.232,0,0,1,1.743,0L5.589,2.975A1.232,1.232,0,0,1,5.589,4.718Z" transform="translate(3.125 25.368)" fill="#58afe1"/>
  <path id="Trazado_11182" data-name="Trazado 11182" d="M3.921,1.307l-1.743.872L1.307,3.922,0,0Z" transform="translate(8.278 30.521)" fill="#e9eef2"/>
  <path id="Trazado_11183" data-name="Trazado 11183" d="M3.921,3.922,0,2.615l1.743-.872L2.614,0Z" transform="translate(0 22.243)" fill="#e9eef2"/>
  <rect id="Rectángulo_19749" data-name="Rectángulo 19749" width="6.162" height="3.697" rx="1.848" transform="translate(33.128 18.907) rotate(135)" fill="#ff2308"/>
  <path id="Trazado_11184" data-name="Trazado 11184" d="M0,1.307,3.921,0,2.614,3.921,1.743,2.179Z" transform="translate(23.538 21.957)" fill="#e9eef2"/>
  <path id="Trazado_11185" data-name="Trazado 11185" d="M1.307,0,0,3.921,3.921,2.614,2.178,1.743Z" transform="translate(31.816 13.679)" fill="#e9eef2"/>
</svg>
