<svg xmlns="http://www.w3.org/2000/svg" width="10.559" height="15.101" viewBox="0 0 10.559 15.101">
  <g id="google-browser" transform="translate(0)">
    <path id="Trazado_13585" data-name="Trazado 13585" d="M12.79.729H11.456l.447.363a3.062,3.062,0,0,1,.506.549,3.362,3.362,0,0,1,.407.76,2.733,2.733,0,0,1,.168.987,2.609,2.609,0,0,1-.159.946,3.02,3.02,0,0,1-.405.746,3.286,3.286,0,0,1-.575.594l-.668.511c-.137.136-.272.277-.407.425a.8.8,0,0,0-.2.557.657.657,0,0,0,.235.53,4.019,4.019,0,0,0,.43.318L12,8.573c.212.183.412.367.6.554a4.291,4.291,0,0,1,.514.6,2.789,2.789,0,0,1,.354.716,2.9,2.9,0,0,1,.125.9,2.948,2.948,0,0,1-.347,1.379,3.664,3.664,0,0,1-1.033,1.2,5.364,5.364,0,0,1-1.7.853,7.777,7.777,0,0,1-2.337.32,7.568,7.568,0,0,1-2.022-.238,4.722,4.722,0,0,1-1.432-.634,2.693,2.693,0,0,1-.853-.9A2.18,2.18,0,0,1,3.6,12.26a2.726,2.726,0,0,1,.347-1.219,3.007,3.007,0,0,1,1.275-1.2A5.523,5.523,0,0,1,6.279,9.4a9.133,9.133,0,0,1,1.108-.269q.55-.1,1.043-.137c.328-.026.612-.047.847-.061a6.145,6.145,0,0,1-.409-.573,1.46,1.46,0,0,1-.185-.776,1.227,1.227,0,0,1,.062-.422c.041-.114.086-.228.139-.342-.107.013-.217.023-.332.03s-.232.011-.342.011A3.916,3.916,0,0,1,6.7,6.587a3.574,3.574,0,0,1-1.116-.7,2.844,2.844,0,0,1-.686-1,2.974,2.974,0,0,1-.23-1.142A3.3,3.3,0,0,1,5,2.347,3.667,3.667,0,0,1,6,1.083a4.507,4.507,0,0,1,1.924-.9A10.184,10.184,0,0,1,9.789,0h4.372ZM12.273,12.1a1.771,1.771,0,0,0-.124-.674,2.086,2.086,0,0,0-.373-.589,3.972,3.972,0,0,0-.707-.6l-1.038-.724a.71.71,0,0,0-.223-.042H9.547c-.054,0-.156,0-.308.01s-.334.022-.547.045-.439.056-.683.1a5.5,5.5,0,0,0-.7.161c-.124.04-.285.1-.486.187a2.5,2.5,0,0,0-.6.361,2.146,2.146,0,0,0-.515.6,1.652,1.652,0,0,0-.218.876,1.862,1.862,0,0,0,.255.965,2.456,2.456,0,0,0,.747.765,3.578,3.578,0,0,0,1.176.5,6.352,6.352,0,0,0,1.534.171,3.73,3.73,0,0,0,2.3-.593A1.833,1.833,0,0,0,12.273,12.1ZM10.579,5.724a1.446,1.446,0,0,0,.439-.757,3.627,3.627,0,0,0,.078-.673,4.766,4.766,0,0,0-.161-1.164,4.409,4.409,0,0,0-.488-1.172,3.275,3.275,0,0,0-.813-.916A1.81,1.81,0,0,0,8.5.67a1.953,1.953,0,0,0-.818.185,2.084,2.084,0,0,0-.665.468,1.683,1.683,0,0,0-.369.685,3.117,3.117,0,0,0-.1.766,4.591,4.591,0,0,0,.154,1.1,4.066,4.066,0,0,0,.484,1.143,3.213,3.213,0,0,0,.82.9,1.905,1.905,0,0,0,1.169.363,2.041,2.041,0,0,0,.777-.151A1.8,1.8,0,0,0,10.579,5.724Z" transform="translate(-3.603 0)" fill="#79858f"/>
  </g>
</svg>
