<svg xmlns="http://www.w3.org/2000/svg" width="27.122" height="28.956" viewBox="0 0 27.122 28.956">
  <g id="lanzamiento" transform="translate(0)">
    <path id="Trazado_12722" data-name="Trazado 12722" d="M412.166,11a17.834,17.834,0,0,1-.462,4.041l-.02,0a7.6,7.6,0,0,1-3.565-3.549l-.009-.018A17.7,17.7,0,0,1,412.166,11Z" transform="translate(-385.043 -11)" fill="#ed6337"/>
    <path id="Trazado_12723" data-name="Trazado 12723" d="M184.367,33.2,182.9,31.734q.13-.481.287-.951a17.757,17.757,0,0,1,2.74-5.176h0a17.911,17.911,0,0,1,10.12-6.577l.009.018a7.6,7.6,0,0,0,3.565,3.549l.02,0a17.795,17.795,0,0,1-11.72,12.826q-.5.167-1.023.3l-1.347-1.347Z" transform="translate(-172.98 -18.561)" fill="#e5f5fd"/>
    <path id="Trazado_12724" data-name="Trazado 12724" d="M398.081,333.9a2.288,2.288,0,0,0,.9.558,2.3,2.3,0,0,0-1.455,1.459,2.3,2.3,0,0,0-1.455-1.459,2.3,2.3,0,0,0,1.455-1.46A2.3,2.3,0,0,0,398.081,333.9Z" transform="translate(-373.706 -314.202)" fill="#3090fc"/>
    <path id="Trazado_12725" data-name="Trazado 12725" d="M260.03,256.347a2.088,2.088,0,0,1,0,2.953l-3.419,3.469-1.983-2.007a3.089,3.089,0,0,1-.005-4.335,17.7,17.7,0,0,0,5.13-2.7l0,0A2.089,2.089,0,0,0,260.03,256.347Z" transform="translate(-239.683 -239.56)" fill="#475673"/>
    <path id="Trazado_12726" data-name="Trazado 12726" d="M159.167,262.964l-.745,3.015-3.541-3.542,3.1-.657Z" transform="translate(-146.596 -247.14)" fill="#ed6337"/>
    <path id="Trazado_12727" data-name="Trazado 12727" d="M86.363,117.132a2.087,2.087,0,0,0,2.614.274,17.756,17.756,0,0,0-2.74,5.176,3.088,3.088,0,0,1-4.29-.049l-2.008-1.983,3.469-3.419A2.088,2.088,0,0,1,86.363,117.132Z" transform="translate(-76.031 -110.36)" fill="#475673"/>
    <path id="Trazado_12728" data-name="Trazado 12728" d="M139.54,306.548a1.272,1.272,0,0,1-1.118,1.264l-1.622.2.2-1.623a1.275,1.275,0,0,1,2.539.157Z" transform="translate(-129.572 -288.094)" fill="#fadf4a"/>
    <path id="Trazado_12729" data-name="Trazado 12729" d="M26.081,92.9a2.288,2.288,0,0,0,.9.558,2.3,2.3,0,0,0-1.455,1.459,2.3,2.3,0,0,0-1.455-1.459A2.3,2.3,0,0,0,25.525,92,2.306,2.306,0,0,0,26.081,92.9Z" transform="translate(-23.423 -87.271)" fill="#3090fc"/>
    <ellipse id="Elipse_68" data-name="Elipse 68" cx="2.211" cy="2.211" rx="2.211" ry="2.211" transform="translate(16.69 6.011)" fill="#50a6ea"/>
    <path id="Trazado_12730" data-name="Trazado 12730" d="M196.056,19.048l-.009-.018a17.911,17.911,0,0,0-10.12,6.577h0a17.754,17.754,0,0,0-2.74,5.176q-.157.47-.287.951l1.168,1.168q.13-.481.287-.951a17.754,17.754,0,0,1,2.74-5.176h0a17.921,17.921,0,0,1,9.723-6.479,7.594,7.594,0,0,1-.761-1.248Z" transform="translate(-172.98 -18.561)" fill="#a6b7d0"/>
    <g id="Grupo_986" data-name="Grupo 986" transform="translate(0 11.972)">
      <path id="Trazado_12737" data-name="Trazado 12737" d="M24.131,238.81a.35.35,0,0,0,.5,0l1.409-1.409a.35.35,0,1,0-.5-.5l-1.409,1.409A.35.35,0,0,0,24.131,238.81Z" transform="translate(-23.384 -235.593)" fill="#284268"/>
      <path id="Trazado_12738" data-name="Trazado 12738" d="M60.312,217.3a.349.349,0,0,0,.248-.1l.521-.521a.35.35,0,0,0-.5-.5l-.521.521a.35.35,0,0,0,.248.6Z" transform="translate(-57.22 -216.079)" fill="#284268"/>
      <path id="Trazado_12739" data-name="Trazado 12739" d="M14.641,276.892l-1.556,1.556a.35.35,0,1,0,.5.5l1.556-1.556a.35.35,0,1,0-.5-.5Z" transform="translate(-12.983 -273.245)" fill="#284268"/>
      <path id="Trazado_12740" data-name="Trazado 12740" d="M55.8,231.919a.35.35,0,0,0-.5,0l-1.823,1.823a.35.35,0,1,0,.5.5l1.823-1.823A.35.35,0,0,0,55.8,231.919Z" transform="translate(-51.024 -230.898)" fill="#284268"/>
      <path id="Trazado_12743" data-name="Trazado 12743" d="M215.684,430.364a.35.35,0,0,0,.5,0l1.409-1.409a.35.35,0,1,0-.5-.5l-1.409,1.409A.35.35,0,0,0,215.684,430.364Z" transform="translate(-203.754 -415.965)" fill="#284268"/>
      <path id="Trazado_12744" data-name="Trazado 12744" d="M251.616,408.754a.35.35,0,0,0,.5,0l.521-.521a.35.35,0,0,0-.5-.5l-.521.521A.35.35,0,0,0,251.616,408.754Z" transform="translate(-237.588 -396.452)" fill="#284268"/>
      <path id="Trazado_12745" data-name="Trazado 12745" d="M206.194,468.445,204.638,470a.35.35,0,1,0,.5.5l1.556-1.556a.35.35,0,1,0-.5-.5Z" transform="translate(-193.352 -453.616)" fill="#284268"/>
      <path id="Trazado_12746" data-name="Trazado 12746" d="M246.861,423.471l-1.823,1.823a.35.35,0,1,0,.5.5l1.823-1.823a.35.35,0,1,0-.5-.5Z" transform="translate(-231.394 -411.267)" fill="#284268"/>
    </g>
  </g>
</svg>
