<svg xmlns="http://www.w3.org/2000/svg" width="16.256" height="15.579" viewBox="0 0 16.256 15.579">
  <path id="reddit" d="M14.444,6.466a1.814,1.814,0,0,0-1.3.553,8.713,8.713,0,0,0-4.7-1.47L9.4,1.209l3.022.688a1.356,1.356,0,0,0,1.342,1.363,1.381,1.381,0,1,0-1.209-2L9.215.514a.32.32,0,0,0-.377.247L7.8,5.545a8.821,8.821,0,0,0-4.67,1.488,1.81,1.81,0,0,0-1.315-.567,1.834,1.834,0,0,0-.784,3.48,3.949,3.949,0,0,0-.089.859c0,2.913,3.234,5.274,7.205,5.274,3.988,0,7.222-2.361,7.222-5.274a3.377,3.377,0,0,0-.106-.873,1.834,1.834,0,0,0-.815-3.466ZM3.794,10.13a1.352,1.352,0,1,1,1.36,1.363,1.365,1.365,0,0,1-1.36-1.363Zm7.342,3.25c-1.247,1.265-4.766,1.265-6.013,0a.328.328,0,0,1,.452-.476c.952.991,4.111,1.008,5.105,0a.33.33,0,0,1,.456.476ZM11.108,11.5a1.371,1.371,0,1,1,1.36-1.362A1.355,1.355,0,0,1,11.108,11.5Z" transform="translate(0 -0.5)" fill="#79858f"/>
</svg>
