<svg xmlns="http://www.w3.org/2000/svg" width="29.347" height="31.311" viewBox="0 0 29.347 31.311">
  <g id="shopping-bag" transform="translate(0)">
    <path id="Trazado_12747" data-name="Trazado 12747" d="M40.385,136.936a2.314,2.314,0,0,1-2.311,2.256H18.388a2.314,2.314,0,0,1-2.311-2.256A60.547,60.547,0,0,1,19.03,116.3a2.062,2.062,0,0,1,1.952-1.394h14.5a2.062,2.062,0,0,1,1.952,1.394,55.1,55.1,0,0,1,2.19,9.041A63.386,63.386,0,0,1,40.385,136.936Z" transform="translate(-16.055 -107.881)" fill="#db5c6e"/>
    <path id="Trazado_12748" data-name="Trazado 12748" d="M148.609,297.131a2.314,2.314,0,0,1-2.311,2.256H135.391a1.89,1.89,0,0,1-1.7-1.069,24.742,24.742,0,0,1-2.357-10.912,1.893,1.893,0,0,1,1.891-1.868h14.623A63.376,63.376,0,0,1,148.609,297.131Z" transform="translate(-124.279 -268.076)" fill="#d64553"/>
    <path id="Trazado_12749" data-name="Trazado 12749" d="M22.983,114.908A1.619,1.619,0,0,0,21.57,116.3a81.9,81.9,0,0,0-2.138,20.634c.023,1.254.764,2.256,1.673,2.256H18.387a2.314,2.314,0,0,1-2.311-2.256A60.552,60.552,0,0,1,19.03,116.3a2.063,2.063,0,0,1,1.952-1.394Z" transform="translate(-16.055 -107.881)" fill="#d64553"/>
    <path id="Trazado_12750" data-name="Trazado 12750" d="M128.307,12.93a1.022,1.022,0,0,1-1.022-1.022V5.98a3.937,3.937,0,1,0-7.873,0v5.929a1.022,1.022,0,1,1-2.043,0V5.98a5.98,5.98,0,1,1,11.959,0v5.929A1.022,1.022,0,0,1,128.307,12.93Z" transform="translate(-111.173 0)" fill="#407093"/>
    <g id="Grupo_987" data-name="Grupo 987" transform="translate(6.196 0)">
      <path id="Trazado_12751" data-name="Trazado 12751" d="M228.133,43.276V37.347a3.93,3.93,0,0,0-4.458-3.9,3.942,3.942,0,0,1,3.415,3.9v5.929a1.02,1.02,0,0,0,1.543.877A1.02,1.02,0,0,1,228.133,43.276Z" transform="translate(-217.174 -31.367)" fill="#365e7d"/>
      <path id="Trazado_12752" data-name="Trazado 12752" d="M118.412,11.909V5.98A5.988,5.988,0,0,1,123.87.023C123.7.008,123.524,0,123.349,0a5.987,5.987,0,0,0-5.98,5.98v5.929a1.02,1.02,0,0,0,1.543.877A1.02,1.02,0,0,1,118.412,11.909Z" transform="translate(-117.369 0)" fill="#365e7d"/>
    </g>
    <path id="Trazado_12753" data-name="Trazado 12753" d="M164.448,298.322a24.754,24.754,0,0,1-2.357-10.912,1.893,1.893,0,0,1,1.891-1.868h16.629a1.893,1.893,0,0,1,1.891,1.868,24.755,24.755,0,0,1-2.357,10.912,1.891,1.891,0,0,1-1.7,1.069H166.152A1.89,1.89,0,0,1,164.448,298.322Z" transform="translate(-153.158 -268.08)" fill="#ffd064"/>
    <path id="Trazado_12754" data-name="Trazado 12754" d="M168.065,299.385H166.15a1.891,1.891,0,0,1-1.7-1.069A24.763,24.763,0,0,1,162.09,287.4a1.894,1.894,0,0,1,1.891-1.868h2.591c-.712,0-1.291.833-1.3,1.868a34.277,34.277,0,0,0,1.622,10.912A1.36,1.36,0,0,0,168.065,299.385Z" transform="translate(-153.157 -268.074)" fill="#ffc250"/>
    <path id="Trazado_12755" data-name="Trazado 12755" d="M269.913,324.933a4.191,4.191,0,0,1-4.187-4.187V318.63a.821.821,0,1,1,1.641,0v2.117a2.546,2.546,0,0,0,5.091,0V318.63a.821.821,0,0,1,1.641,0v2.117A4.191,4.191,0,0,1,269.913,324.933Z" transform="translate(-250.457 -298.374)" fill="#407093"/>
    <g id="Grupo_988" data-name="Grupo 988" transform="translate(15.269 19.435)">
      <path id="Trazado_12756" data-name="Trazado 12756" d="M340.846,323.293a2.548,2.548,0,0,0,2.545-2.545v-2.117a.82.82,0,0,1,.437-.725.82.82,0,0,0-1.2.725v2.117a2.55,2.55,0,0,1-2.162,2.517A2.563,2.563,0,0,0,340.846,323.293Z" transform="translate(-335.892 -317.81)" fill="#365e7d"/>
      <path id="Trazado_12757" data-name="Trazado 12757" d="M266.493,320.747v-2.117a.82.82,0,0,1,.437-.725.82.82,0,0,0-1.2.725v2.117a4.191,4.191,0,0,0,4.187,4.187c.129,0,.257-.007.384-.018A4.192,4.192,0,0,1,266.493,320.747Z" transform="translate(-265.726 -317.81)" fill="#365e7d"/>
    </g>
  </g>
</svg>
