<svg xmlns="http://www.w3.org/2000/svg" width="545.306" height="783.963" viewBox="0 0 545.306 783.963">
  <g id="Grupo_998" data-name="Grupo 998" transform="translate(-358.809 21.768)" opacity="0.35">
    <path id="Trazado_11020" data-name="Trazado 11020" d="M570.458,271.271c10.38-4.163,17.356-14.037,20.689-24.558a29.993,29.993,0,0,0,1.508-5.32c23.541,8.739,47.1-12.378,46.967-36.073a26.1,26.1,0,0,0-1.781-13.911c-5.65-13.4-19.687-20.064-33.372-21.781-17.916-2.245-37.492-.291-55.4,1.616-9.023-18.419-22.025-35.56-33.7-52.355-11.537-16.6-23.57-32.862-35.929-48.857a1.057,1.057,0,0,0-.363-.309,5.346,5.346,0,0,0-5.772-2.414c-1.936.524-5,3.2-3.807,5.435a.809.809,0,0,0,.273.3.89.89,0,0,0-.216,1.3q18.491,26.222,37.093,52.366c11.71,16.519,22.884,33.656,35.542,49.471-3.761,4.716-5.826,10.654-7.978,16.329-3.495,9.217-6.6,18.649-7.92,28.451-1.828,13.6.147,28.724,9.109,39.633C543.659,270.635,557.944,276.292,570.458,271.271Zm53.192-37.179c-8.962,6.932-20.129,8.4-30.668,4.964a26.29,26.29,0,0,0-.118-6.372c15.3,7.931,34.209-1.422,42.625-15.793A34.911,34.911,0,0,1,623.65,234.091ZM507.855,124.453Q489.693,98.85,471.5,73.262a1.131,1.131,0,0,0-.51-.388,7.886,7.886,0,0,0,.859-1.681,3.517,3.517,0,0,1,1.835-1.588,3.866,3.866,0,0,1,3.991.891,1.115,1.115,0,0,0,.169,1.081q19.579,25.371,37.733,51.788c11.005,15.984,20.614,33.275,32.391,48.684a.5.5,0,0,1-.014.072,4.731,4.731,0,0,0-.571.111.949.949,0,0,0-1.2-.007,22.2,22.2,0,0,0-2.942,2.73C532.355,157.581,519.715,141.166,507.855,124.453ZM548.82,174.4a1.092,1.092,0,0,0,1.063-1.437c13.365.183,26.68-.955,40.035-1.113,13.322-.154,27.726,1.218,37.941,10.715,10.969,10.2,10.937,24.037,2.579,35.965-8.778,12.536-24.583,18.372-38.372,10.334a1.437,1.437,0,0,0-1.649,2.331c.751,12.115-4.325,24.2-15.686,29.841-11.013,5.47-24.694,1.659-32.632-7.363-9.17-10.413-6.85-24.525-4.641-37.014q1.821-10.291,3.976-20.52C542.147,192.785,544.2,174.409,548.82,174.4Zm-15.036,79.66c-6.882-12.112-6.774-26.82-3.836-40.053,2.378-10.715,5.758-24.162,12.234-34.019-.341,1.455-.6,2.859-.866,3.955-2.471,10.143-4.59,20.391-6.458,30.667-2.644,14.572-5.212,30.98,6.415,42.488,9.026,8.937,23.282,12.334,34.87,6.465a29.75,29.75,0,0,0,5.876-3.93,28.453,28.453,0,0,1-14,10.1C554.531,273.954,540.412,265.721,533.785,254.059Z" transform="translate(252.269 354.81)" fill="#ededed"/>
    <g id="Grupo_646" data-name="Grupo 646" transform="translate(736.74 193.174)">
      <path id="Trazado_11021" data-name="Trazado 11021" d="M490.331,87.352c-.74,3.193,1.368,6.979,4.77,7.55a.9.9,0,0,0,.887-.348c10.6-.6,20.858-3.164,31.127-5.74,12.457-3.129,25.021-6.016,37.359-9.6a6.612,6.612,0,0,0-1.02,2.611,6.4,6.4,0,0,0,4.152,6.663c7.263,3.017,12.248-5.043,13.875-11.052,5.959,7.916,17.374,11.192,27.244,9,13.341-2.956,23.344-15.37,21.224-29.288C627.921,43.812,614.071,36.8,601.5,38.266c-13.085,1.527-22.532,11.975-24.263,24.407-3.922-3.825-11.817-6.681-16.041-3.226a4.8,4.8,0,0,0-1.25,6.433,5.632,5.632,0,0,0,2.938,2.062,6.55,6.55,0,0,0-1.178,1.261c-11.756,2.209-23.39,5.043-35.024,7.816C515.5,79.684,504.048,81.9,493,85.132a.945.945,0,0,0-1.476-.1,5.191,5.191,0,0,0-.517.682c-.09.029-.18.054-.269.079A.925.925,0,0,0,490.331,87.352ZM602.06,84.238c.215-3.082,1.925-6.347,5.388-6.483a4.009,4.009,0,0,1,4.177,4.734A29.338,29.338,0,0,1,602.06,84.238Zm16.609-39.694a19.457,19.457,0,0,1,6.62,6.918c-2.022,2.636-6.814,3.513-8.57.075a5.265,5.265,0,0,1-.2-4.1A9.533,9.533,0,0,1,618.668,44.544ZM599.132,41.3a26.568,26.568,0,0,1,17.859,2.266c-3.308,1.512-3.348,7.471-1.311,9.924,2.769,3.33,8.013,2.68,10.363-.578a18.44,18.44,0,0,1,1.329,4.526c1.889,11.832-4.957,20.441-14.087,24.389a5.62,5.62,0,0,0-4.569-6.279c-5.23-.995-8.865,3.843-8.84,8.624-8.865-.589-17.2-5.467-20.359-15.718a28.815,28.815,0,0,1,.844-8.071,5.966,5.966,0,0,0,4.752.851,5.748,5.748,0,0,0,4.443-4.052,5.807,5.807,0,0,0-4.436-6.8A24.3,24.3,0,0,1,599.132,41.3ZM584.359,51.412c2.137.686,3.941,2.956,3.337,5.244a3.918,3.918,0,0,1-3.046,2.676c-1.523.338-2.5-.309-3.746-.848A27.344,27.344,0,0,1,584.359,51.412ZM562.668,65.424c-4-3.725,2.521-5.14,4.7-4.745,3.9.7,6.4,2.97,9.6,4.906-.029.715-.029,1.437-.007,2.162-.057.036-.115.043-.162.108a3.128,3.128,0,0,1-2.166,1.038,4.1,4.1,0,0,1-2.148-.639c-.589-.291-1.458.3-1.027.973a3.28,3.28,0,0,0,3.348,1.225,3.458,3.458,0,0,0,2.327-1.347,1.28,1.28,0,0,0,.758.647c.14.629.316,1.236.51,1.828a5.418,5.418,0,0,0-2.658,2.241c-.657,1.1-1.218,2.78-.348,3.872.384.478,1.023.154,1.218-.3.37-.858.118-1.814.553-2.7a3.985,3.985,0,0,1,1.731-1.778,20.451,20.451,0,0,0,1.634,3.172c-2.03,3.991-3.876,9.382-8.793,10.467-2.116.467-5.726-.611-5.923-3.279-.244-3.358,2.913-5.061,5.23-6.7a1.1,1.1,0,0,0-.643-2.037.76.76,0,0,0-1.038.014c-1.868,1.911-6.25,1.275-6.494-1.789a3.721,3.721,0,0,1,1.631-3.143c1.139-.826,2.27-.578,3.552-.815a.892.892,0,0,0,.438-1.465,3.218,3.218,0,0,0-3.24-.6A6.126,6.126,0,0,1,562.668,65.424Zm-35.434,13.85c11.246-2.665,22.521-5.294,33.638-8.462a4.971,4.971,0,0,0-.194,2.672,5.345,5.345,0,0,0,4.712,4.048c-23.3,4.8-46.256,13.4-70.074,15.136a.98.98,0,0,0-.571.244,4.606,4.606,0,0,1-2.065-5.575C504.278,85.251,515.779,81.99,527.234,79.274Z" transform="translate(-490.052 -38.073)" fill="#ededed"/>
      <path id="Trazado_11022" data-name="Trazado 11022" d="M517.506,48.668a6.5,6.5,0,0,0,3.707,8.879.863.863,0,0,0,.09.011.753.753,0,0,0,.374.284c3.035.981,6.444-1.264,7.665-4.009A5.994,5.994,0,0,0,526,45.891C522.872,44.512,519.008,45.41,517.506,48.668Zm7.985-.453a3.934,3.934,0,0,1,1.807,5.327,4.955,4.955,0,0,1-5.381,2.694.746.746,0,0,0-.241.018,5.307,5.307,0,0,1-1.889-6.936C520.976,47.361,523.623,47.224,525.491,48.215Z" transform="translate(-420.449 -19.428)" fill="#ededed"/>
      <path id="Trazado_11023" data-name="Trazado 11023" d="M523.471,49.492a7.629,7.629,0,0,0,.6,5.19,4.835,4.835,0,0,0,1.785,2.083,2.6,2.6,0,0,0,1.921-.216,6.457,6.457,0,0,0,8.164-3.085c1.753-3.513-.557-7.367-4.026-8.6A6.347,6.347,0,0,0,523.471,49.492Zm8.38-2.274c1.993,1.085,3.182,3.358,2.008,5.485a5.3,5.3,0,0,1-4.975,2.629.651.651,0,0,0-.593-.427,8.7,8.7,0,0,0-.876.054.645.645,0,0,0-.431.047l-.327.054C523.227,51.32,526.621,44.377,531.851,47.218Z" transform="translate(-403.968 -21.513)" fill="#ededed"/>
      <path id="Trazado_11024" data-name="Trazado 11024" d="M519.188,47.132c-.209,3.157,2.374,7.065,5.7,7.331a6.928,6.928,0,0,0,8.189-4.343,7.416,7.416,0,0,0-5.751-9.429A7.325,7.325,0,0,0,519.188,47.132Zm7.367-4.3c2.812.1,4.985,3.035,4.684,5.751-.294,2.662-2.744,4.346-5.251,4.594-2.439-1-4.813-2.367-4.806-5.413A5.288,5.288,0,0,1,526.554,42.829Z" transform="translate(-414.569 -31.437)" fill="#ededed"/>
    </g>
    <path id="Trazado_11025" data-name="Trazado 11025" d="M483.807,75.75a.859.859,0,0,0-.485-.007c-6.785-4.188-14.87-6.58-22.762-5.923-10.779.9-18.8,8.049-24.389,16.864-5.488,8.656-9.662,19.084-7.719,29.475,1.785,9.536,7.924,18.042,15.783,23.581,19.084,13.448,46.662,9.407,59.032-11.049C515.2,108.957,506,82.815,483.807,75.75Zm22.37,36.4c-1.318,15.628-13.75,29.134-29,32.259a40.779,40.779,0,0,1-39.909-14.953c-10.33-13.681-6.936-29.863,2.252-43.185,10.729-15.556,29.231-17.708,44.51-6.983,14.019,9.838,17.916,28.146,8.154,42.531-9.044,13.322-26.964,19.306-41.152,10.366-14.888-9.378-16.846-32.736-2.662-44,16.778-13.322,39.855,4.669,33.128,24.209-3.664,10.632-17.916,17.683-26.382,7.564a13.781,13.781,0,0,1-.4-16.677,11.59,11.59,0,0,1,8.646-4.759c6.236-.456,11.968,5.355,9.328,11.365-.578.722-.923,1.559-1.458,2.3-.043.054-.075.1-.118.158a4.3,4.3,0,0,1-.657.675,4.238,4.238,0,0,1-4.034.8c-2.68-.905-3.146-4.874-.237-5.866a.806.806,0,0,0-.331-1.577,4.575,4.575,0,0,0-3.886,3.707,5.067,5.067,0,0,0,2.468,5.417,6.448,6.448,0,0,0,6.408.133c1.631-.905,3.391-2.787,3.6-4.756a10.373,10.373,0,0,0-5.079-14.023c-6.731-3.021-14.583.862-17.83,7.058a16.006,16.006,0,0,0,6.717,21.558c8,4.159,17.18.657,22.334-6.279,11.185-15.046.582-37.032-18.01-37.7-20.592-.747-32.237,23.782-23.577,41.127,9.166,18.362,33.214,20.686,48.214,8.365C503,118,504.665,94.381,489.59,80.47,500.347,86.985,507.265,99.277,506.177,112.15Z" transform="translate(159.561 313.319)" fill="#ededed"/>
    <path id="Trazado_11026" data-name="Trazado 11026" d="M533.031,10.669a1.353,1.353,0,0,0-1.365-.654c-13.681,1.71-27.97,4.5-39.766,12.029-4.838,3.089-13.886,10.072-16.285,17.155a71.455,71.455,0,0,0-13.865-8.523c-2.992-1.4-6.681-2.169-9.659-.273-4,2.543-3.272,8.559.449,10.513-4.565,1.293-9.044,4.72-8.559,9.813.564,5.945,6.76,6.832,11.569,5.614-2.525,4.059-3.333,10.589,3.031,10.808,8.355.291,15.208-11.8,18.383-18.757,2.45,3.85,6.666,7.45,9.565,9.971a33.334,33.334,0,0,0,15.183,7.845c12.769,2.669,27.841.079,39.985-4.066a.838.838,0,0,0,.578-.9.775.775,0,0,0,.553-.424c3.757-7.123,3.387-14.813,1.667-22.5-2.044-9.166-5.075-19.238-9.547-27.524A1.184,1.184,0,0,0,533.031,10.669Zm-66.816,49.1c-1.286,1.293-3.29,3.667-5.161,4.105q-6.681-1.8-3.739-5.826a16.864,16.864,0,0,0,1.185-2.184c.471-.952-.654-2.241-1.552-1.34h0c-4.1.661-12.1.664-10.3-5.729,1.2-4.264,5.941-4.989,9.378-6.6.83-.388.611-1.9-.384-1.835-.255.018-.514.05-.776.083a5.233,5.233,0,0,1-3.111-6.045q3.459-4.009,7.687-2.058a33.724,33.724,0,0,1,5.833,3.2,81.917,81.917,0,0,0,9.842,5.585,9.563,9.563,0,0,0-.1,1.462c-1.958-.251-4,.7-6.081.37a11.138,11.138,0,0,1-6.677-3.786c-.575-.661-1.494.2-1,.884a12.041,12.041,0,0,0,7.338,4.792,13.3,13.3,0,0,0,3.685.277,20.248,20.248,0,0,0-7.306,7.374.661.661,0,0,0,1.106.722c2.637-3.642,5.826-5.359,9.659-7.212.086.212.165.424.262.636A62.6,62.6,0,0,1,466.216,59.774ZM541.11,60a.823.823,0,0,0,.029.636c-21.558,3.883-47.129,8.893-60.879-13.311-6.918-11.167,11.929-22.916,20.477-26.77,10-4.5,20.775-6.067,31.483-7.909a1.208,1.208,0,0,0,.873-.56C537.953,27.317,547.008,43.829,541.11,60Z" transform="translate(127.185 82.348)" fill="#ededed"/>
    <path id="Trazado_11027" data-name="Trazado 11027" d="M496.8,50.411a1.347,1.347,0,0,0-1.365-.654c-13.682,1.71-27.974,4.493-39.766,12.026-4.838,3.089-13.886,10.075-16.289,17.158a70.972,70.972,0,0,0-13.861-8.523c-2.992-1.4-6.681-2.169-9.658-.277-4,2.543-3.272,8.559.449,10.513-4.565,1.293-9.044,4.723-8.559,9.817.564,5.945,6.76,6.832,11.569,5.614-2.525,4.055-3.333,10.585,3.031,10.808,8.355.287,15.208-11.806,18.383-18.757,2.446,3.85,6.666,7.446,9.565,9.967a33.334,33.334,0,0,0,15.183,7.845c12.769,2.669,27.841.083,39.981-4.066a.828.828,0,0,0,.578-.9.78.78,0,0,0,.557-.424c3.757-7.126,3.384-14.813,1.667-22.507-2.047-9.163-5.075-19.238-9.547-27.524A1.181,1.181,0,0,0,496.8,50.411Zm-66.816,49.1c-1.286,1.293-3.29,3.667-5.162,4.105q-6.681-1.8-3.739-5.826a18,18,0,0,0,1.185-2.18c.471-.955-.654-2.245-1.552-1.343v0c-4.1.661-12.1.665-10.3-5.729,1.2-4.264,5.941-4.993,9.378-6.6.83-.388.611-1.9-.384-1.832-.255.014-.517.047-.776.079a5.227,5.227,0,0,1-3.111-6.045q3.459-4.009,7.687-2.055a33.84,33.84,0,0,1,5.833,3.2,81.932,81.932,0,0,0,9.842,5.589,9.532,9.532,0,0,0-.1,1.462c-1.961-.251-4,.693-6.081.37a11.122,11.122,0,0,1-6.677-3.789c-.575-.661-1.494.2-1,.884a12.019,12.019,0,0,0,7.335,4.792,13.053,13.053,0,0,0,3.689.277,20.276,20.276,0,0,0-7.306,7.374.661.661,0,0,0,1.106.722c2.636-3.642,5.826-5.359,9.655-7.209.09.212.165.424.266.632A62.51,62.51,0,0,1,429.988,99.512Zm74.894.23a.812.812,0,0,0,.029.632c-21.562,3.883-47.129,8.893-60.879-13.308C437.114,75.9,455.96,64.146,464.509,60.3c10-4.5,20.775-6.067,31.483-7.913a1.208,1.208,0,0,0,.873-.56C501.725,67.055,510.78,83.567,504.882,99.741Z" transform="translate(209.461 513.066)" fill="#ededed"/>
    <path id="Trazado_11028" data-name="Trazado 11028" d="M512.872,80.622a7.679,7.679,0,0,0-.471-1.674,6.433,6.433,0,0,0-4.45-3.854,6.192,6.192,0,0,0-6.58,3.452c-2.119-3.5-8.078-4.181-10.592.018-3.757,6.261,3.391,13.473,8.25,16.871-4.289,2.134-7.748,6.882-9.019,12.169a1.076,1.076,0,0,0-.995.761A1071.58,1071.58,0,0,0,456.2,219.192c-2.748,11.692-8.8,29.177,2.026,38.71-3.545,2.687-7.406,4.059-11.167,6.376-2.669,1.645-4.986,4.012-5.33,7.27-.542,5.111,3.771,7.464,7.977,6.307a5.434,5.434,0,0,0,2.805,5.876c3.434,1.555,6.979-1.372,7.514-4.73,1.376,4.059,7.539,5.747,11.156,2.748,2.755-2.284,2.96-5.549,2.087-8.8a56.934,56.934,0,0,0-4.878-12.133c3.261-.381,6.275-1.839,7.787-4.325a9.621,9.621,0,0,0,1.121-2.356.977.977,0,0,0,1.088-.722q6.611-27.128,13.987-54.058a.61.61,0,0,0,.137-.5q8.055-29.358,17.176-58.411a.729.729,0,0,0,.248-.79c.4-1.268.787-2.543,1.193-3.811,3.6-11.3,11.228-27.323,1.218-37.56-.18-.187-.366-.33-.546-.5a.964.964,0,0,0,.42-.122,24.148,24.148,0,0,0,9-9.016c1.469-2.557,3.438-6.282,1.591-9.131C519.876,74.972,515.113,77.041,512.872,80.622ZM470.887,273.86c.661,3.139-.294,6.8-4.174,6.9-3.261.09-4.321-2.644-5.133-5.2a.87.87,0,0,0-1.6.043,6.166,6.166,0,0,0-.219,1.609.626.626,0,0,0-.866.463c-.33,2.281-2.7,5.129-5.3,4.159-2.04-.758-2.443-3.858-.97-5.291.6-.585.05-1.72-.808-1.329a3.705,3.705,0,0,0-1.476,1.2,12.472,12.472,0,0,1-2.665.162q-5.91-3.313-2.421-7.866c1.7-2.31,4.608-3.34,7.1-4.5,2.816-1.318,5.621-2.532,7.284-5.194a11.23,11.23,0,0,0,2.126,1.042c-1.947,3.2-4.041,5.564-8.2,6.164a.6.6,0,0,0,.18,1.189c3.9-.305,8.437-2.909,9.709-6.85.237.054.485.075.726.119a7.431,7.431,0,0,0-.061,6.534.478.478,0,0,0,.837-.248,23.137,23.137,0,0,1-.111-3.351,13.348,13.348,0,0,1,.794-2.748,13.855,13.855,0,0,0,1.394.05C468.34,265.208,469.967,269.486,470.887,273.86Zm-14.572-23.573c-1.9-4.353-1.789-9.109-1.088-13.771,4.249,7.511,11.9,13.541,20.294,15.326C472.234,261.519,460.111,258.979,456.314,250.287Zm20.477-.241a.424.424,0,0,0-.808.119c-.036.169-.079.323-.119.485-8.775-3.75-15.05-8.563-20.215-16.623.276-1.469.585-2.92.887-4.335.657-3.1,1.354-6.192,2.065-9.285a36.832,36.832,0,0,0,20.657,19.572C478.437,243.333,477.593,246.684,476.792,250.046Zm2.723-11.113c-9.037-4.537-15.973-11.257-20.039-20.621a.772.772,0,0,0-.305-.348c.93-3.955,1.925-7.891,2.924-11.828,3.441,9.2,12.09,15.431,20.671,19.87C481.673,230.313,480.578,234.619,479.514,238.933Zm3.506-13.944c-8.491-6.135-16.731-11.659-20.064-22.234l-.014-.025c1.139-4.4,2.32-8.775,3.516-13.15a29.894,29.894,0,0,0,19.777,22.992Q484.608,218.774,483.02,224.99Zm3.542-13.678a32.006,32.006,0,0,1-18.3-22.187.976.976,0,0,0-1.537-.542c.047-.169.09-.338.136-.506,1.16-4.217,2.371-8.416,3.6-12.607,1.239,9.393,11.774,18.541,19.558,23.035C488.86,202.77,487.686,207.034,486.561,211.312Zm3.815-14.127c-8.225-5.905-18.433-15.3-18.056-25.818a.856.856,0,0,0-.413-.8c1.153-3.861,2.349-7.708,3.542-11.555a36.582,36.582,0,0,0,18.714,24.439Q492.244,190.308,490.376,197.185Zm4.167-15.1a38.984,38.984,0,0,1-17.78-26.178.893.893,0,0,0-.23-.445c.916-2.927,1.864-5.84,2.791-8.764,1.879,9.741,10.341,18.128,18.983,22.223Q496.389,175.49,494.543,182.081Zm4.167-14.543c-9.59-5.51-13.865-12.967-18.16-22.869a.7.7,0,0,0-.449-.413q2.069-6.482,4.152-12.956a27.24,27.24,0,0,0,18.458,22.916C501.371,158.655,500.013,163.087,498.709,167.538Zm4.335-14.429a27.632,27.632,0,0,1-16.979-26.368.947.947,0,0,0-.176-.56q1.331-4.138,2.647-8.279a35.407,35.407,0,0,0,18.653,21.734C505.807,144.126,504.406,148.612,503.045,153.109Zm4.6-14.942c-9.368-5.413-14.982-13.416-17.945-23.9q.792-2.478,1.584-4.957a.9.9,0,0,0,.506-.539,29.918,29.918,0,0,1,3.61-7.457,30.069,30.069,0,0,0,16.594,22.719c-.086.284-.172.568-.262.848C510.35,129.3,509.007,133.738,507.642,138.167Zm4.745-35.085c3.473,6.006,1.965,13.067.065,19.439-8.243-5.614-13.186-12.643-15-22.589a1.108,1.108,0,0,0-.237-.506,6.757,6.757,0,0,1,.582-.445C503.53,95.409,509.2,97.572,512.387,103.082ZM519.359,87.3a26.9,26.9,0,0,1-8.265,8.488.946.946,0,0,0-.37,1.034,12.729,12.729,0,0,0-2.841-1.7,7.309,7.309,0,0,1,.4-4.077c.593-1.473,1.76-2.27,2.615-3.524a.645.645,0,0,0-.776-.959c-1.677.492-2.827,2.59-3.33,4.159a8.473,8.473,0,0,0-.287,3.922,10.033,10.033,0,0,0-1.649-.32,10.5,10.5,0,0,0-3.085-7.608c-.413-.374-1.038.2-.826.665.582,1.261,1.311,2.435,1.821,3.732a17.7,17.7,0,0,1,.869,3.161,10.352,10.352,0,0,0-3.032.506l-.014-.018c-2.942-2.7-6.214-5.693-7.7-9.518a6.769,6.769,0,0,1-.327-4.968,3.593,3.593,0,0,1,4.447-2.033c2.116.571,2.852,1.929,3.3,4.084a.892.892,0,0,0,1.282.629.636.636,0,0,0,.657-.711c-.118-2.737,2.69-5.79,5.553-4.838a4.294,4.294,0,0,1,2.539,2.647c.488,1.376-.151,2.507-.011,3.847a.932.932,0,0,0,1.491.578c.036-.022.057-.057.09-.079a.748.748,0,0,0,1.16-.453c.607-2.719,3.035-5.862,6.106-4.508C522.606,80.959,520.713,84.946,519.359,87.3Z" transform="translate(60.18 424.173)" fill="#ededed"/>
    <path id="Trazado_11029" data-name="Trazado 11029" d="M657.455-17.573C617.23-34.477,578.52,3.672,550.1,26.5c-22.4,17.988-45.563,35.355-67.182,54.273a1.056,1.056,0,0,0-.295,1.325c-3.965,4.267-2.96,12.162.862,16.181a11.793,11.793,0,0,0,14.917,1.843,1.505,1.505,0,0,0,1.505-.269c12-9.655,23.854-19.522,35.718-29.389a1,1,0,0,0,1.289-.887,1.205,1.205,0,0,0,.011-.194C556.38,53.2,575.855,37.048,596,21.829,610.2,11.1,630.286-2.707,648.436,7.437c9.213,5.147,12.651,14.888,9.436,24.737-2.471,7.568-7.891,13.448-12.8,19.515a1.306,1.306,0,0,0-1.085.524c-3.527,4.533-6.318,11.253-2.3,16.411a9.029,9.029,0,0,0,12.147,2.249,1.224,1.224,0,0,0,1.322-.334C667.48,58.107,679.919,43.7,682.652,26a1.253,1.253,0,0,0,.176-1.178c.194-1.494.338-3,.384-4.544C683.733,3.162,672.954-11.061,657.455-17.573ZM497.836,97.5a1.445,1.445,0,0,0-.528.848c-4.228,1.383-9.306.769-12.155-2.848-3.369-4.274-1.821-8.7.18-13.06a.9.9,0,0,0,.072-.542c5.783-4.282,11.487-8.689,17.148-13.157-4.009,7.586-3.754,17.952-.736,25.481C500.491,95.312,499.158,96.4,497.836,97.5Zm19.181-15.758Q510.147,87.358,503.3,93a33.465,33.465,0,0,1-1-14.734c.841-5.065,3.319-9.059,5.416-13.62l.007-.018q6.4-5.124,12.751-10.33A36.741,36.741,0,0,0,517.017,81.738ZM533.6,68.211q-7.537,6.142-15.072,12.295c-1.12-11.965,1.943-21.077,8.373-31.31a1.015,1.015,0,0,0,.09-.23q5.291-4.337,10.585-8.664a41.969,41.969,0,0,0-4.5,14.831C532.785,57.82,532.045,64.522,533.6,68.211Zm18.961-15.474q-8.432,6.886-16.867,13.768c-.083-2.457-.252-5.729-.248-6.2a42.341,42.341,0,0,1,.84-7.852,45.283,45.283,0,0,1,6.8-16.138,1.273,1.273,0,0,0,.2-.65c1.455-1.178,2.906-2.367,4.364-3.538,4.421-3.552,8.84-7.263,13.3-10.988a75.264,75.264,0,0,0-7.906,20.5C552.271,45.015,550.78,49.594,552.558,52.737Zm6.731-5.5q-2.565,2.1-5.14,4.2c-1.146-4.508,2.54-13.168,3.667-16.4,2.116-6.042,5.072-11.548,7.978-17.223a1.241,1.241,0,0,0,.115-.8c5.6-4.634,11.286-9.213,17.151-13.487-6.885,9.145-10.309,20.937-10.244,32.291C568.273,39.7,563.779,43.567,559.289,47.242Zm32.851-27.151c-5.891,4.422-11.605,9.163-17.216,13.936,1.419-12.514,6.024-22.668,13.19-33.275A.927.927,0,0,0,588.2-.1a137.2,137.2,0,0,1,17.729-10.363A51.647,51.647,0,0,0,592.141,20.091Zm2.144-1.616c2.748-12.137,8.473-22.115,17.464-31.113a1.247,1.247,0,0,0,.312-.535,69.928,69.928,0,0,1,28.322-4.95c-12.4,3.089-23.415,13.254-27.675,25.118A136.474,136.474,0,0,0,594.285,18.475ZM652.8,68.951c-4.116,1.545-9.105.381-10.226-4.651-.862-3.876,1.376-7.679,3.653-10.621a1.208,1.208,0,0,0,.1-.194,50.728,50.728,0,0,0,10.086-11.433,32.708,32.708,0,0,1,2.633,9.307c.438,4.052-.887,7.64-.937,11.569a1.048,1.048,0,0,0,.029.19c-1.663,1.81-3.326,3.545-4.957,5.183A1.5,1.5,0,0,0,652.8,68.951Zm19.655-24.766a.893.893,0,0,0,.032.1,107.581,107.581,0,0,1-10.876,14.9,28.227,28.227,0,0,0,.068-7.848,23.638,23.638,0,0,0-4.152-11.128,33.578,33.578,0,0,0,4.536-13.294,36.575,36.575,0,0,1,7.41,7.256C671.7,37.379,671.97,40.453,672.458,44.185Zm7.518-19.1a51.593,51.593,0,0,1-4.989,14.673c-.794-6.361-7.572-11.961-12.8-15.122a21.425,21.425,0,0,0-2.874-10.952,25.682,25.682,0,0,0-1.67-2.529A40.672,40.672,0,0,1,679.976,25.084ZM674.854.3a33.826,33.826,0,0,1,5.531,21.382A37.246,37.246,0,0,0,655.778,8.952,25.911,25.911,0,0,0,640.092,1.41c10.384-6.728,20.977-6.914,32.686-3.146a.942.942,0,0,0,.646-.025C673.913-1.094,674.394-.412,674.854.3Zm-4.2-5.427c-10.639-4.691-24.813-1.6-32.959,6.207-.029.029-.036.054-.061.083a47.189,47.189,0,0,0-22.076,4.4C622.542-6.46,632.585-13.357,646.5-17.168a.879.879,0,0,0,.413-.266C655.893-15.925,664.233-12.064,670.652-5.124Z" transform="translate(220.885 0)" fill="#ededed"/>
    <g id="Grupo_647" data-name="Grupo 647" transform="translate(768.224 292.151)">
      <path id="Trazado_11030" data-name="Trazado 11030" d="M513.215,58.223c-8.524-1.57-16.332,3.129-22.69,8.52-14.335,8.394-13.735,29.726-7.493,43.128,4.472,9.6,11.5,17.755,18.5,25.592,5.837,6.534,12.237,13.484,20.449,17.022,16.153,6.965,37.283-6.753,41.766-22.905,2.313-8.333-.654-16.882-4.54-24.234a135.322,135.322,0,0,0-20.366-28.351C532.086,69.692,523.505,60.12,513.215,58.223ZM543.86,87.659c6.692,8.509,14.184,18.663,16.839,29.385,3.139,12.669-4.343,22.686-14.5,29.353-10.093,6.623-20.154,6.519-29.931-.682-7.881-5.8-14.526-13.962-20.592-21.58-12.4-15.564-19.87-36.5-6.875-52.549a1.414,1.414,0,0,0,.7-.277c9.447-7.227,18.728-14.008,30.57-6.943C529.324,69.883,537.273,79.279,543.86,87.659Z" transform="translate(-478.84 -57.917)" fill="#ededed"/>
      <path id="Trazado_11031" data-name="Trazado 11031" d="M489.749,66.555c-13.391,4.9,1.763,27.736,6.228,34.486,3.872,5.855,19.45,26.106,28.595,18.552a5.114,5.114,0,0,0,1.25-.33,5.683,5.683,0,0,0,2.64-2.507,11.913,11.913,0,0,0,3.822-5.7c2.22-8.251-5.4-16.386-9.536-22.582C516.964,79.824,502.381,55.191,489.749,66.555Zm27.517,19.08c2.561,3.833,5.158,7.647,7.679,11.5a46.516,46.516,0,0,1,3.01,4.917,24.191,24.191,0,0,1,1.7,6.559c-.223.463-.428.934-.632,1.408-1.139,1.354-2.324,2.838-3.6,4.181a1.246,1.246,0,0,0-1.329.517l-.295.481a1.551,1.551,0,0,0-.2.718,11.018,11.018,0,0,1-3.287,1.968c-8.11.384-16.925-11.128-20.725-16.5-3.761-5.323-17.115-25.912-10.266-32.169a16.08,16.08,0,0,1,1.749-1.1c.054-.022.1-.05.154-.072.032-.014.05-.04.083-.054C502.748,62.177,511.914,77.626,517.266,85.635Z" transform="translate(-464.576 -43.149)" fill="#ededed"/>
      <path id="Trazado_11032" data-name="Trazado 11032" d="M494.052,82.815A1.618,1.618,0,0,1,492.518,84a1.48,1.48,0,0,1-1.257-1.821.472.472,0,0,0-.9-.287,2.594,2.594,0,1,0,4.993,1.157A.671.671,0,0,0,494.052,82.815Z" transform="translate(-449.39 3.413)" fill="#ededed"/>
      <path id="Trazado_11033" data-name="Trazado 11033" d="M493.188,80.542a2.556,2.556,0,0,0-2.428,2.112c-.079.5.776.664.88.162a1.7,1.7,0,0,1,1.688-1.293,1.9,1.9,0,0,1,1.836,1.027c.273.392.812.007.758-.381C495.749,80.933,494.265,80.445,493.188,80.542Z" transform="translate(-447.958 0.694)" fill="#ededed"/>
      <path id="Trazado_11034" data-name="Trazado 11034" d="M495.584,83.553a1.141,1.141,0,0,1-1.358.5,1.1,1.1,0,0,1-.158-1.663.353.353,0,0,0-.467-.528,2.044,2.044,0,0,0-.029,3.193,2.093,2.093,0,0,0,3.222-1.117A.636.636,0,0,0,495.584,83.553Z" transform="translate(-442.607 3.943)" fill="#ededed"/>
      <path id="Trazado_11035" data-name="Trazado 11035" d="M489.98,61.213a.556.556,0,0,0-.054,1.11c.743.054,1.455,1.358.743,1.893a1.185,1.185,0,0,1-1.742-.83c-.029-.708-1.1-.79-1.124-.054a2.4,2.4,0,0,0,3.768,1.9A2.341,2.341,0,0,0,489.98,61.213Z" transform="translate(-455.609 -49.383)" fill="#ededed"/>
      <path id="Trazado_11036" data-name="Trazado 11036" d="M488.252,60.639a2.138,2.138,0,0,0-2.177,1.843c-.036.291.427.456.564.183a1.737,1.737,0,0,1,1.631-.88c.744.036,1,.449,1.494.909a.512.512,0,0,0,.884-.309C490.759,61.16,489.254,60.578,488.252,60.639Z" transform="translate(-460.091 -50.871)" fill="#ededed"/>
      <path id="Trazado_11037" data-name="Trazado 11037" d="M490.784,60.408a1.068,1.068,0,0,1-.535,1.318.865.865,0,0,1-1.06-.844.61.61,0,0,0-1.218-.057,2.2,2.2,0,0,0,2.5,2.3,2.079,2.079,0,0,0,1.336-3.075C491.5,59.578,490.586,59.754,490.784,60.408Z" transform="translate(-455.184 -53.079)" fill="#ededed"/>
      <path id="Trazado_11038" data-name="Trazado 11038" d="M487.239,62.337a34.939,34.939,0,0,1,.291,3.815,1.262,1.262,0,0,1-1.07-.359.458.458,0,0,0-.686.607,2.172,2.172,0,0,0,2.586.708.567.567,0,0,0,.316-.488,8.219,8.219,0,0,0-.517-4.6C487.9,61.478,487.192,61.812,487.239,62.337Z" transform="translate(-461.146 -48)" fill="#ededed"/>
      <path id="Trazado_11039" data-name="Trazado 11039" d="M484.36,61.61a2.481,2.481,0,0,0-.277,3.825c.438.4,1.135-.18.708-.625a1.441,1.441,0,0,1,.226-2.238,1.578,1.578,0,0,1,1.961.7c.327.427,1.128.043.959-.485A2.459,2.459,0,0,0,484.36,61.61Z" transform="translate(-467.247 -49.274)" fill="#ededed"/>
      <path id="Trazado_11040" data-name="Trazado 11040" d="M493.5,63.336a15.911,15.911,0,0,0,.18,2.306,1.184,1.184,0,0,1-1.106-.981c-.09-.546-1.024-.492-.984.079a2.29,2.29,0,0,0,2.942,2.044.679.679,0,0,0,.5-.769,15.75,15.75,0,0,0-.514-2.762C494.37,62.722,493.5,62.715,493.5,63.336Z" transform="translate(-445.796 -45.099)" fill="#ededed"/>
      <path id="Trazado_11041" data-name="Trazado 11041" d="M494.058,64.573a2.113,2.113,0,0,0-.4,3.193.471.471,0,0,0,.708-.621,1.094,1.094,0,0,1,.352-1.616c.589-.241,1.142.23,1.494.643a.475.475,0,0,0,.815-.406C496.853,64.433,495.111,63.951,494.058,64.573Z" transform="translate(-441.85 -41.361)" fill="#ededed"/>
      <path id="Trazado_11042" data-name="Trazado 11042" d="M487.013,74.279a3.339,3.339,0,0,1,.682,2.363c-.18.621-1.408,1-1.559.176-.083-.449-.851-.409-.815.065.108,1.383,1.825,1.749,2.838,1.006,1.44-1.056.654-3.114-.37-4.131C487.433,73.4,486.722,73.794,487.013,74.279Z" transform="translate(-462.045 -17.214)" fill="#ededed"/>
      <path id="Trazado_11043" data-name="Trazado 11043" d="M483.733,75.575a2.759,2.759,0,0,0,2.827,3.2c.539-.04.614-.862.043-.862a1.76,1.76,0,0,1-1.746-2.051,1.842,1.842,0,0,1,2.55-.977c.553.241.876-.593.435-.916A2.71,2.71,0,0,0,483.733,75.575Z" transform="translate(-466.294 -17.508)" fill="#ededed"/>
      <path id="Trazado_11044" data-name="Trazado 11044" d="M502.764,76.887c-.5-.2-.894.485-.56.858.56.621.841,1.807.043,2.374a1.431,1.431,0,0,1-2.076-.9.563.563,0,0,0-1.1.23,2.691,2.691,0,0,0,3.948,1.818A2.544,2.544,0,0,0,502.764,76.887Z" transform="translate(-426.433 -8.841)" fill="#ededed"/>
      <path id="Trazado_11045" data-name="Trazado 11045" d="M498.368,78.947c.216.647,1.243.467,1.063-.223a1.2,1.2,0,0,1,.88-1.379,1.756,1.756,0,0,1,1.663.212.449.449,0,0,0,.679-.463C501.942,74.515,497.567,76.533,498.368,78.947Z" transform="translate(-428.477 -11.328)" fill="#ededed"/>
      <path id="Trazado_11046" data-name="Trazado 11046" d="M502.662,76.814a1.56,1.56,0,0,1-.406.916,2.832,2.832,0,0,1-1.3-2.769c.068-.568-.869-.747-.995-.18a4.061,4.061,0,0,0,1.289,3.98c.632.55,1.178.751,1.85.136a2.422,2.422,0,0,0,.715-2.173C503.733,76.045,502.72,76.182,502.662,76.814Z" transform="translate(-424.359 -15.104)" fill="#ededed"/>
    </g>
    <g id="Grupo_648" data-name="Grupo 648" transform="translate(660.19 708.333)">
      <path id="Trazado_11047" data-name="Trazado 11047" d="M490.127,86.187c-12.762,2.719-26.436,7.356-25.039,23.239,1.394,15.829,17.582,24.27,30.994,28.466a1.065,1.065,0,0,0,.948-.115,1.568,1.568,0,0,0,1.5.23c5.883-2.065,8.369-7.809,10.657-13.207,3.409-8.035,4.066-15.65,3.369-24.306-.406-5.007-.629-11.311-5.194-14.515C502.458,82.538,495.332,85.081,490.127,86.187ZM509.2,97.355a87.054,87.054,0,0,1,.607,8.919c.151,8.89-3.057,25.452-12.622,29.055a1.444,1.444,0,0,0-.528.33c-9.863-4.353-21.073-8.818-26.271-19.033-2.949-5.8-3.362-13.434.682-18.875,4.066-5.47,11.4-6.8,17.625-8.143,5.424-1.171,10.668-3.279,15.729-.5C508.4,91.281,508.686,93.091,509.2,97.355Z" transform="translate(-464.989 -84.241)" fill="#ededed"/>
      <path id="Trazado_11048" data-name="Trazado 11048" d="M475.254,95.219c.262.485.517.966.808,1.433a.882.882,0,0,1-.133,1.131,1.881,1.881,0,0,1-2.4.514.386.386,0,0,0-.42.647,2.751,2.751,0,0,0,3.43-.377,2.473,2.473,0,0,0,.8-1.552c.054-.815-.851-1.7-1.3-2.317C475.71,94.264,475,94.756,475.254,95.219Z" transform="translate(-444.394 -57.573)" fill="#ededed"/>
      <path id="Trazado_11049" data-name="Trazado 11049" d="M471.055,96.093a2.573,2.573,0,0,0,2.41,3.186.446.446,0,0,0,.043-.891,1.615,1.615,0,0,1-1.379-1.857c.244-1.1,1.688-1.171,2.464-.664a.506.506,0,0,0,.654-.754A2.53,2.53,0,0,0,471.055,96.093Z" transform="translate(-449.506 -58.027)" fill="#ededed"/>
      <path id="Trazado_11050" data-name="Trazado 11050" d="M475.531,96.424a1.57,1.57,0,0,0-1.846.291,1.948,1.948,0,0,0,.56,3.071c.471.215.837-.564.392-.819a.931.931,0,0,1-.2-1.4c.546-.55,1.024.438,1.372.726a.444.444,0,0,0,.657-.233C476.741,97.376,476.109,96.7,475.531,96.424Z" transform="translate(-443.809 -53.118)" fill="#ededed"/>
      <path id="Trazado_11051" data-name="Trazado 11051" d="M472.461,89.475A5.265,5.265,0,0,1,470.3,90.7a5.4,5.4,0,0,1-1.5-2.144c-.2-.517-1.085-.216-.919.32a6.451,6.451,0,0,0,.848,1.818c.313.456.794,1.207,1.383,1.3a3.511,3.511,0,0,0,3.1-1.868C473.456,89.643,472.91,89.087,472.461,89.475Z" transform="translate(-457.556 -73.753)" fill="#ededed"/>
      <path id="Trazado_11052" data-name="Trazado 11052" d="M472.28,87.539a2.981,2.981,0,0,0-3.585,1c-.3.392.334.794.632.417a2.144,2.144,0,0,1,2.777-.56,2.455,2.455,0,0,1,.93,2.414.394.394,0,0,0,.765.14A2.816,2.816,0,0,0,472.28,87.539Z" transform="translate(-455.59 -76.34)" fill="#ededed"/>
      <path id="Trazado_11053" data-name="Trazado 11053" d="M470.626,88.93a2.014,2.014,0,0,0,2.123,2.119c.406-.029.467-.643.032-.654a1.3,1.3,0,0,1-1.3-1.372,1.362,1.362,0,0,1,1.638-1.006c.449.065.51-.589.133-.74A1.992,1.992,0,0,0,470.626,88.93Z" transform="translate(-450.398 -76.69)" fill="#ededed"/>
      <path id="Trazado_11054" data-name="Trazado 11054" d="M475.123,86.138a.52.52,0,0,0-.438.927c1.024.736.711,3-.715,3.017a.516.516,0,0,0-.05,1.031C476.481,91.27,477.7,87.025,475.123,86.138Z" transform="translate(-443.075 -79.407)" fill="#ededed"/>
    </g>
    <g id="Grupo_649" data-name="Grupo 649" transform="translate(490.369 337.661)">
      <path id="Trazado_11055" data-name="Trazado 11055" d="M485.506,63.156c-9.608-8.829-21.314-17.284-33.447-6.943-12.094,10.309-9.59,28.394-5.237,41.755a1.061,1.061,0,0,0,.639.708,1.571,1.571,0,0,0,.679,1.351c5.1,3.6,11.217,2.3,16.943,1.038,8.524-1.879,15.111-5.758,21.76-11.343,3.85-3.229,8.858-7.065,8.822-12.64C495.628,71.091,489.425,66.755,485.506,63.156Zm1.954,22.015a87.036,87.036,0,0,1-6.914,5.664c-7.159,5.276-22.518,12.255-30.994,6.548a1.431,1.431,0,0,0-.575-.237c-2.169-10.56-5.029-22.284.291-32.438,3.017-5.769,9-10.524,15.775-10.381,6.814.144,12.144,5.348,16.85,9.644,4.095,3.743,8.854,6.792,9.526,12.525C491.942,81,490.635,82.279,487.46,85.171Z" transform="translate(-443.229 -51.454)" fill="#ededed"/>
      <path id="Trazado_11056" data-name="Trazado 11056" d="M450.909,61.942c-.244.5-.485.981-.7,1.491a.888.888,0,0,1-1,.546,1.881,1.881,0,0,1-1.81-1.659.387.387,0,0,0-.772.029,2.753,2.753,0,0,0,2.292,2.579,2.475,2.475,0,0,0,1.731-.248c.693-.431.887-1.677,1.132-2.407C451.954,61.762,451.142,61.467,450.909,61.942Z" transform="translate(-434.411 -24.892)" fill="#ededed"/>
      <path id="Trazado_11057" data-name="Trazado 11057" d="M447.4,59.812a2.575,2.575,0,0,0-1.2,3.811.445.445,0,0,0,.751-.478,1.62,1.62,0,0,1,.715-2.205c1.042-.438,1.932.7,1.968,1.627a.507.507,0,0,0,.995.1A2.533,2.533,0,0,0,447.4,59.812Z" transform="translate(-436.637 -30.108)" fill="#ededed"/>
      <path id="Trazado_11058" data-name="Trazado 11058" d="M449.214,63.859a1.574,1.574,0,0,0-1.3-1.336,1.945,1.945,0,0,0-2.18,2.238c.093.506.945.352.894-.158a.931.931,0,0,1,1.031-.973c.765.126.233,1.088.2,1.537-.022.305.327.46.571.4C449.138,65.4,449.322,64.491,449.214,63.859Z" transform="translate(-436.828 -22.825)" fill="#ededed"/>
      <path id="Trazado_11059" data-name="Trazado 11059" d="M452.757,57.678a5.293,5.293,0,0,1-2.256-1.056,5.414,5.414,0,0,1,.884-2.464c.3-.463-.456-1.009-.794-.564a6.611,6.611,0,0,0-.991,1.746c-.19.517-.521,1.343-.255,1.879a3.5,3.5,0,0,0,3.319,1.44A.5.5,0,0,0,452.757,57.678Z" transform="translate(-427.635 -46.335)" fill="#ededed"/>
      <path id="Trazado_11060" data-name="Trazado 11060" d="M453.879,55.978a2.982,2.982,0,0,0-2.9-2.342c-.492-.018-.452.729.029.758a2.139,2.139,0,0,1,2.065,1.936,2.46,2.46,0,0,1-1.43,2.155.4.4,0,0,0,.331.708A2.818,2.818,0,0,0,453.879,55.978Z" transform="translate(-424.037 -45.799)" fill="#ededed"/>
      <path id="Trazado_11061" data-name="Trazado 11061" d="M452.549,55.437a2.014,2.014,0,0,0-.5,2.96c.259.312.794.007.553-.352a1.307,1.307,0,0,1,.366-1.853,1.36,1.36,0,0,1,1.767.751c.208.4.779.075.682-.32A2,2,0,0,0,452.549,55.437Z" transform="translate(-421.504 -41.774)" fill="#ededed"/>
      <path id="Trazado_11062" data-name="Trazado 11062" d="M458.52,57.305a.52.52,0,0,0-1.009.176c-.011,1.264-2.036,2.32-2.873,1.167a.516.516,0,0,0-.869.557C455.122,61.385,459.289,59.913,458.52,57.305Z" transform="translate(-416.135 -37.198)" fill="#ededed"/>
    </g>
    <g id="Grupo_650" data-name="Grupo 650" transform="translate(604.587 232.53)">
      <path id="Trazado_11063" data-name="Trazado 11063" d="M493.14,31.567C470.216,30.289,458.09,58.4,473.758,74.623a.807.807,0,0,0,1.315-.2c.047.043.083.09.129.133-21.975,9.626-16.041,44.194,7.568,46.213,25.33,10.079,49.208-16.634,59.305-37.427a.974.974,0,0,0,1.113-.8c3.017-12.974-7.564-21.684-16.124-29.629C517.525,44.067,507.062,32.343,493.14,31.567Zm-15.869,86.32c-6.433-3.06-11.688-8.394-13.505-15.574-2.838-11.2,3.664-20.937,12.9-26.454.022-.014.029-.032.05-.047a28.494,28.494,0,0,0,4.1,2.583,19.051,19.051,0,0,0-14.777,16.117C464.7,104.033,469.631,112.744,477.271,117.887Zm20.52,1.95c-10.876,1.279-23.207-3.991-27.46-14.615-4.6-11.5,2.486-24.191,14.96-24.8a.9.9,0,0,0,.765-.043c.1,0,.187-.018.284-.018a1.159,1.159,0,0,0,.115-2.313c-.417-.036-.826-.036-1.236-.047-4.066-2.062-8.218-4.285-10.718-8.286-2.59-4.138-1.6-10.064.036-14.332,4.124-10.743,14.939-14.619,25.474-11.2,16.533,5.363,30.215,23.25,39.582,37.108a1.212,1.212,0,0,0,.417.388C529.906,96.961,517.884,117.478,497.791,119.838Zm26.54-66.227c7.212,6.649,17.27,14.281,17,24.8a136.087,136.087,0,0,0-25.021-28.031c-8.272-6.889-18.918-12.819-30.028-9.978-8.947,2.288-14.73,10.628-16.038,19.479a18.415,18.415,0,0,0,.029,5.873,22.9,22.9,0,0,1,1.264-20.373c5.7-9.533,17.539-13.473,27.916-10.036C509.3,38.6,516.907,46.765,524.332,53.611Z" transform="translate(-461.521 -31.525)" fill="#ededed"/>
      <path id="Trazado_11064" data-name="Trazado 11064" d="M469.334,39.448a1.161,1.161,0,1,1-2.187.754c-.233-.564-1.06-.223-.966.334a2.254,2.254,0,1,0,4.2-1.451C470.081,38.554,469.169,38.813,469.334,39.448Z" transform="translate(-449.464 -12.672)" fill="#ededed"/>
      <path id="Trazado_11065" data-name="Trazado 11065" d="M469.018,37.363a2.923,2.923,0,0,0-2.633,3.071c.043.625.991.718,1.006.047a1.909,1.909,0,0,1,1.645-1.889,1.969,1.969,0,0,1,1.911,1.545c.158.6,1.2.6,1.153-.09A2.9,2.9,0,0,0,469.018,37.363Z" transform="translate(-448.933 -16.416)" fill="#ededed"/>
      <path id="Trazado_11066" data-name="Trazado 11066" d="M469.855,39.934a2.583,2.583,0,0,0-1.685,3.639.394.394,0,0,0,.7-.352A1.674,1.674,0,0,1,470.089,41c.98-.1,1.58.787,1.81,1.609.122.431.851.578.959.05A2.5,2.5,0,0,0,469.855,39.934Z" transform="translate(-444.986 -9.86)" fill="#ededed"/>
      <path id="Trazado_11067" data-name="Trazado 11067" d="M481.281,47.084a2.573,2.573,0,0,1-.46,3.671l-1.393-.675c-.464-.223-.923.417-.453.69.65.377,1.534,1.243,2.3.884a2.973,2.973,0,0,0,1.329-1.415,3.253,3.253,0,0,0-.575-3.811A.5.5,0,0,0,481.281,47.084Z" transform="translate(-416.793 6.714)" fill="#ededed"/>
      <path id="Trazado_11068" data-name="Trazado 11068" d="M481.128,45.095a3.16,3.16,0,0,0-2.094,4.231.421.421,0,0,0,.787-.273,2.262,2.262,0,0,1,1.562-2.759,2.314,2.314,0,0,1,2.482,1.832c.129.589,1.106.557,1.089-.086A3.146,3.146,0,0,0,481.128,45.095Z" transform="translate(-416.769 3.427)" fill="#ededed"/>
      <path id="Trazado_11069" data-name="Trazado 11069" d="M478.913,47.927c-1.44.115-1.792,2.134-1.541,3.24a2.885,2.885,0,0,0,2.644,2.421.511.511,0,0,0,.05-1.02,1.8,1.8,0,0,1-1.516-1.728,2.111,2.111,0,0,1,.165-1.142,4.537,4.537,0,0,1,.787-.912C479.854,48.362,479.333,47.895,478.913,47.927Z" transform="translate(-420.632 10.982)" fill="#ededed"/>
      <path id="Trazado_11070" data-name="Trazado 11070" d="M470.592,53.853c1.02,1.246.334,3.667-1.462,3.678a.4.4,0,0,0-.04.8c2.59.226,4.379-3.617,2.166-5.241C470.775,52.74,470.24,53.422,470.592,53.853Z" transform="translate(-442.848 24.115)" fill="#ededed"/>
      <path id="Trazado_11071" data-name="Trazado 11071" d="M470.176,55.605c-.039,1.462,1.627,2.981,3.035,2.116a.512.512,0,0,0-.456-.916c-.647.241-1.236-.69-1.121-1.246.208-1.034,1.792-1.067,2.586-1.006a.56.56,0,0,0,.334-1.02C472.91,52.631,470.234,53.45,470.176,55.605Z" transform="translate(-439.089 24.579)" fill="#ededed"/>
    </g>
    <g id="Grupo_651" data-name="Grupo 651" transform="translate(358.809 407.722)">
      <path id="Trazado_11072" data-name="Trazado 11072" d="M451.657,93.764C428.733,92.486,416.6,120.6,432.271,136.82a.808.808,0,0,0,1.315-.2c.047.043.086.09.133.133-21.975,9.623-16.045,44.191,7.568,46.209,25.33,10.079,49.205-16.634,59.305-37.427a.971.971,0,0,0,1.113-.8c3.017-12.97-7.564-21.681-16.127-29.626C476.042,106.264,465.579,94.54,451.657,93.764Zm-15.869,86.32c-6.433-3.06-11.688-8.394-13.509-15.574-2.838-11.192,3.667-20.937,12.9-26.454a.65.65,0,0,0,.05-.043,28.864,28.864,0,0,0,4.106,2.583,19.055,19.055,0,0,0-14.78,16.113C423.216,166.23,428.144,174.941,435.788,180.084Zm20.52,1.954c-10.88,1.279-23.207-3.994-27.46-14.619-4.6-11.5,2.486-24.191,14.96-24.8a.9.9,0,0,0,.765-.043c.1,0,.187-.018.284-.014a1.161,1.161,0,0,0,.115-2.317c-.417-.036-.826-.036-1.239-.047-4.062-2.062-8.215-4.285-10.715-8.283-2.59-4.141-1.6-10.068.036-14.335,4.12-10.74,14.939-14.619,25.473-11.2,16.53,5.363,30.211,23.25,39.582,37.108a1.26,1.26,0,0,0,.417.392C488.419,159.158,476.4,179.675,456.308,182.038Zm26.54-66.23c7.209,6.649,17.266,14.281,17,24.8a136.012,136.012,0,0,0-25.025-28.035c-8.272-6.889-18.918-12.819-30.024-9.978-8.947,2.288-14.73,10.628-16.041,19.479a18.412,18.412,0,0,0,.032,5.873,22.891,22.891,0,0,1,1.264-20.373c5.7-9.533,17.535-13.47,27.912-10.036C467.813,100.8,475.42,108.962,482.848,115.808Z" transform="translate(-420.037 -93.722)" fill="#ededed"/>
      <path id="Trazado_11073" data-name="Trazado 11073" d="M427.853,101.646a1.16,1.16,0,1,1-2.187.751c-.233-.56-1.063-.223-.97.338a2.255,2.255,0,1,0,4.2-1.451C428.6,100.752,427.684,101.011,427.853,101.646Z" transform="translate(-407.982 -74.866)" fill="#ededed"/>
      <path id="Trazado_11074" data-name="Trazado 11074" d="M427.536,99.561a2.922,2.922,0,0,0-2.636,3.067c.047.625.991.718,1.009.05a1.91,1.91,0,0,1,1.645-1.893,1.972,1.972,0,0,1,1.911,1.548c.158.6,1.2.6,1.149-.093A2.885,2.885,0,0,0,427.536,99.561Z" transform="translate(-407.45 -78.611)" fill="#ededed"/>
      <path id="Trazado_11075" data-name="Trazado 11075" d="M428.369,102.131a2.582,2.582,0,0,0-1.681,3.639.392.392,0,0,0,.7-.352,1.68,1.68,0,0,1,1.218-2.223c.981-.1,1.58.787,1.81,1.609.119.431.848.578.959.05A2.5,2.5,0,0,0,428.369,102.131Z" transform="translate(-403.502 -72.057)" fill="#ededed"/>
      <path id="Trazado_11076" data-name="Trazado 11076" d="M439.794,109.281a2.569,2.569,0,0,1-.46,3.671l-1.394-.675c-.46-.223-.92.42-.449.69.647.377,1.53,1.246,2.3.884a2.982,2.982,0,0,0,1.329-1.412,3.262,3.262,0,0,0-.575-3.815A.5.5,0,0,0,439.794,109.281Z" transform="translate(-375.308 -55.483)" fill="#ededed"/>
      <path id="Trazado_11077" data-name="Trazado 11077" d="M439.644,107.291a3.163,3.163,0,0,0-2.094,4.235.42.42,0,0,0,.783-.273,2.27,2.27,0,0,1,1.562-2.762,2.319,2.319,0,0,1,2.486,1.832c.126.589,1.106.557,1.085-.086A3.145,3.145,0,0,0,439.644,107.291Z" transform="translate(-375.284 -58.769)" fill="#ededed"/>
      <path id="Trazado_11078" data-name="Trazado 11078" d="M437.429,110.124c-1.44.119-1.792,2.134-1.541,3.24a2.881,2.881,0,0,0,2.644,2.421.511.511,0,0,0,.05-1.02,1.8,1.8,0,0,1-1.516-1.724,2.09,2.09,0,0,1,.165-1.146,4.521,4.521,0,0,1,.783-.912C438.37,110.559,437.845,110.092,437.429,110.124Z" transform="translate(-379.146 -51.215)" fill="#ededed"/>
      <path id="Trazado_11079" data-name="Trazado 11079" d="M429.109,116.052c1.02,1.243.334,3.667-1.462,3.674a.4.4,0,0,0-.04.8c2.59.226,4.375-3.613,2.162-5.237C429.293,114.935,428.758,115.618,429.109,116.052Z" transform="translate(-401.365 -38.081)" fill="#ededed"/>
      <path id="Trazado_11080" data-name="Trazado 11080" d="M428.692,117.8c-.04,1.462,1.627,2.981,3.032,2.116a.51.51,0,0,0-.456-.912c-.643.237-1.232-.693-1.121-1.25.212-1.031,1.8-1.063,2.59-1.006a.56.56,0,0,0,.334-1.02C431.422,114.828,428.75,115.65,428.692,117.8Z" transform="translate(-397.604 -37.618)" fill="#ededed"/>
    </g>
    <g id="Grupo_652" data-name="Grupo 652" transform="translate(645.684 47.023)">
      <path id="Trazado_11081" data-name="Trazado 11081" d="M482.338-1.04c-5.118-2.583-11.86-2.238-15.237,2.884-4.167,6.318-2.381,15.075,1.361,21.275a.527.527,0,0,0,.165.632c.2.169.4.359.589.542.1.154.2.312.305.46a.734.734,0,0,0,.474.3c.144.151.291.3.438.445a.388.388,0,0,0,.108.068,1.2,1.2,0,0,0,1.57,1.128A46.269,46.269,0,0,0,484.346,21.3c2.827-1.789,7.151-4.328,8.768-7.281C496.184,8.4,486.666,1.148,482.338-1.04Zm3.99,17.672a46.458,46.458,0,0,1-14.863,7.5,1.269,1.269,0,0,0-.621.442l-.021-.029a.724.724,0,0,0-.061-.471c-2.493-5.154-4.264-11.526-2.874-17.263,2.224-9.184,11.569-7.518,17.076-2.712,1.466,1.279,4.084,3.409,4.892,5.2C491.637,13.249,488.911,14.621,486.328,16.632Z" transform="translate(-464.702 2.616)" fill="#ededed"/>
      <path id="Trazado_11082" data-name="Trazado 11082" d="M469.247,3.235a.272.272,0,0,0-.463.183.788.788,0,0,1-.549.869c-.392.165-.948.169-1.06-.327-.086-.392-.657-.237-.6.151C466.9,6.061,470.4,4.689,469.247,3.235Z" transform="translate(-459.851 17.565)" fill="#ededed"/>
      <path id="Trazado_11083" data-name="Trazado 11083" d="M467.973,1.442c-1.207.061-2.493,1.9-1.142,2.69a.4.4,0,0,0,.424-.69c-.485-.352.643-1.178,1.149-.761.7.575.6,1.821.614,2.622a.46.46,0,0,0,.9.133C470.275,4.035,469.973,1.338,467.973,1.442Z" transform="translate(-460.681 13.126)" fill="#ededed"/>
      <path id="Trazado_11084" data-name="Trazado 11084" d="M471.8,3.009c-.837.51-1.649,1.063-2.45,1.631a1.34,1.34,0,0,1-.226-1.879c.313-.4-.352-.941-.693-.564a2.364,2.364,0,0,0,.593,3.642.581.581,0,0,0,.582.014c.955-.643,1.889-1.315,2.794-2.029C472.848,3.469,472.287,2.711,471.8,3.009Z" transform="translate(-456.62 14.759)" fill="#ededed"/>
    </g>
    <g id="Grupo_653" data-name="Grupo 653" transform="translate(600.319 42.77)">
      <path id="Trazado_11085" data-name="Trazado 11085" d="M455.994,3.621c-3.962,4.145-5.6,10.693-1.681,15.416,4.827,5.83,13.728,6.67,20.747,4.9a.53.53,0,0,0,.654.025c.219-.147.456-.273.69-.4.176-.054.359-.1.528-.162a.728.728,0,0,0,.427-.363c.187-.1.374-.194.553-.291a.437.437,0,0,0,.1-.083,1.207,1.207,0,0,0,1.537-1.175,46.272,46.272,0,0,0-1.595-13.276c-.887-3.225-2.055-8.1-4.411-10.506C469.061-6.871,459.349.119,455.994,3.621Zm18.067,1.333a46.438,46.438,0,0,1,2.845,16.4,1.26,1.26,0,0,0,.241.726l-.036.011a.719.719,0,0,0-.467-.079c-5.657.884-12.266.718-17.349-2.281-8.139-4.806-3.822-13.258,2.381-17.126,1.652-1.031,4.454-2.913,6.4-3.164C472.373-1.109,472.89,1.9,474.061,4.954Z" transform="translate(-452.072 3.8)" fill="#ededed"/>
      <path id="Trazado_11086" data-name="Trazado 11086" d="M457.774,2.08a.271.271,0,0,0,.039.5.783.783,0,0,1,.672.776c.047.427-.111.959-.621.92-.4-.032-.417.56-.029.614C459.792,5.151,459.5,1.4,457.774,2.08Z" transform="translate(-437.865 18.828)" fill="#ededed"/>
      <path id="Trazado_11087" data-name="Trazado 11087" d="M455.812,3.056c-.291,1.175,1.092,2.938,2.245,1.879a.406.406,0,0,0-.539-.607c-.478.359-.938-.959-.4-1.322.754-.5,1.918-.04,2.69.176a.459.459,0,0,0,.388-.819C458.966,1.609,456.3,1.113,455.812,3.056Z" transform="translate(-442.48 18.047)" fill="#ededed"/>
      <path id="Trazado_11088" data-name="Trazado 11088" d="M458.587.677c.241.952.535,1.886.844,2.82a1.335,1.335,0,0,1-1.861-.33c-.294-.417-1,.061-.744.5a2.367,2.367,0,0,0,3.657.5.586.586,0,0,0,.183-.553q-.5-1.654-1.124-3.265C459.331-.2,458.444.12,458.587.677Z" transform="translate(-439.892 13.817)" fill="#ededed"/>
    </g>
    <g id="Grupo_654" data-name="Grupo 654" transform="translate(719.148 48.296)">
      <path id="Trazado_11089" data-name="Trazado 11089" d="M568.044,5.089a1.237,1.237,0,0,0-.646.51c-12.327,19.425-25.154,38.487-38.864,56.967q-9.86,13.3-20.226,26.206c-6.124,7.629-14.816,15.348-19.464,24.105-2.227,1.189-3.682,3.473-3.689,7.371a1.227,1.227,0,0,0,.392.941c.381,5.19,4.583,10.75,7.561,14.637a57.307,57.307,0,0,0,16.975,14.852c5.183,2.963,18.387,8.2,23.444,2.935.022-.022.047-.029.065-.054l.072-.086c.072-.079.144-.165.212-.251,15.183-17.726,28.785-37,42.635-55.778,13.94-18.89,28.307-37.722,41.148-57.38a1.145,1.145,0,0,0-.014-1.376c8.365-11-8.082-25.689-16.225-31.828C591.891-.32,575.778-8.578,568.044,5.089Zm-42.919,148.3c-7.46.65-17.148-6.774-22.46-11.39a55.745,55.745,0,0,1-8.214-8.85c-.158-.212-5.84-10.043-6.922-12.374a1.415,1.415,0,0,0,.122-.406c1.641-14.382,23.71-.115,28.559,3.743a57.9,57.9,0,0,1,9.752,9.917C528.6,137.435,539.741,152.122,525.125,153.394Zm73.9-144.971c7.669,5.776,22.736,18.9,17.1,29.82a1.269,1.269,0,0,0-.592.431C601.409,57.48,588.238,77.045,574.316,96.01c-12.762,17.388-26.307,34.3-38.785,51.892,0-.126.018-.241.018-.37-.007-5.542-4.285-11.135-7.525-15.319a60.431,60.431,0,0,0-18.229-15.7c-3.991-2.227-11.954-5.341-17.751-4.6,6.311-5.5,11.519-13.523,16.54-19.683q10.9-13.367,21.26-27.165c13.936-18.57,27.165-37.718,39.442-57.43a1.172,1.172,0,0,0,.438-.442C576.866-5.295,590.483,1.986,599.028,8.423Z" transform="translate(-485.155 2.262)" fill="#ededed"/>
      <path id="Trazado_11090" data-name="Trazado 11090" d="M489.836,30.883a1,1,0,0,0-.851,1.516c-8.369,4.134,8.114,19.41,11.081,22.011,5.6,4.91,19.737,16.476,27.018,8.409a.7.7,0,0,0-.115-1.092c2.234-4.5-7.554-12.651-9.705-14.8C509.724,39.385,501.089,31.178,489.836,30.883Zm21.53,12.74c2.68,2.4,16.91,14.2,13.908,18.706-12.309,6.778-42.582-22.895-35.383-29.489C498.478,33.02,505.22,38.117,511.366,43.624Z" transform="translate(-481.309 88.168)" fill="#ededed"/>
    </g>
    <g id="Grupo_655" data-name="Grupo 655" transform="translate(521.797 153.647)">
      <path id="Trazado_11091" data-name="Trazado 11091" d="M481.208,29.666A32.989,32.989,0,0,0,442.294,39.82a22.892,22.892,0,0,0-5.169-4.8,1.124,1.124,0,0,0-1.34.1c-3.488,2.791-7.665,7.45-4.386,12.018,1.257,1.756,2.478,1.369,4.181,2.051q1.374-.377,1.566,1.218c-.262.575-.5,1.16-.74,1.742a.172.172,0,0,0-.244.04c-6.419,8.685-1.261,24.859,7.1,30.635,2.191,1.516,3.843,1.882,5.086,1.462,10.233,7.881,22.27,14.206,35.035,16.623,11.156,2.112,26.192,1.706,34.155-7.733,8.358-9.914,1.21-22.32-4.67-31.519a89.281,89.281,0,0,0-31.4-29.529c.072-.079.144-.144.216-.223A1.336,1.336,0,0,0,481.208,29.666Zm24.87,26.652c7.485,9.508,19.665,26.928,7.593,37.363-9.131,7.895-24.277,6.778-35.1,3.789-10.477-2.888-19.809-8.333-28.986-13.99,3.5-3.657,1.875-16.706,1.038-22.557a41,41,0,0,0,22.015,1.792,1.252,1.252,0,0,0,.955-1.462,33.52,33.52,0,0,0-10.416-18.412A34.194,34.194,0,0,0,479.646,34,87.752,87.752,0,0,1,506.079,56.318ZM460.11,40.847a1.288,1.288,0,0,0-.435,2.313c2.636,2.076,14.385,13.976,10.33,17.535-1.537,1.351-8.391.374-10.46.09A39.782,39.782,0,0,1,449.5,57.9c-.909-.377-1.677.582-1.562,1.412a117.592,117.592,0,0,1,1.193,14.561c.05,3.606,1.308,4.942-3.186,5.057-4.023.1-4.346-.729-6.462-4.389-3.5-6.052-3.33-11.713-3.107-17.938,1.62-2.148,4.292-6.433,2.723-8.545-.769-1.038-1.807-.844-2.949-1.092-6.756-1.455-2.554-6.778.413-9.565,2.015,1.627,3.578,3.549,5.47,5.32a.855.855,0,0,0,1.447-.8,1.241,1.241,0,0,0,.614-.406,31,31,0,0,1,34.392-10.057A32.414,32.414,0,0,1,460.11,40.847Z" transform="translate(-430.211 -27.069)" fill="#ededed"/>
      <path id="Trazado_11092" data-name="Trazado 11092" d="M444.211,40.069a.782.782,0,0,0-.618,1.282c.708.8,1.81,1.067,2.482,1.889a1.23,1.23,0,0,1-.934,2.137,4.566,4.566,0,0,1-1.552-.417,8.448,8.448,0,0,1-4.673-4.953c-.284-.744-1.552-.305-1.322.463a9.771,9.771,0,0,0,3.423,5.1c1.43,1.1,3.84,2.349,5.711,1.76C451.047,45.984,447.5,40.158,444.211,40.069Z" transform="translate(-411.144 5.473)" fill="#ededed"/>
      <path id="Trazado_11093" data-name="Trazado 11093" d="M446.958,32.335c-1.063-.151-1.412,1.667-.338,1.879a18.274,18.274,0,0,1,4.734,1.5c.438.223,1.99.833,2.112,1.422.3,1.426-1.153,1.06-2.019.995a11.332,11.332,0,0,1-8.294-4.989c-.366-.528-1.254.075-.934.632a12.2,12.2,0,0,0,5.284,5.043c1.807.884,5.183,2.022,7.1.855,1.634-.991,1.246-2.848.1-4.062C452.831,33.611,449.58,32.705,446.958,32.335Z" transform="translate(-399.261 -13.442)" fill="#ededed"/>
      <path id="Trazado_11094" data-name="Trazado 11094" d="M450.592,38.386c-.754-.014-1.211,1.067-.481,1.476,1.192.672,2.511,1.045,3.646,1.828.963.664,1.753,1.153,1.642,2.4.305.783.14,1.1-.485.959a3.113,3.113,0,0,1-1.455-.2c-3.042-.866-5.862-3.2-8.3-5.133-.5-.4-1.175.4-.736.855,2.184,2.284,9.159,8.84,12.744,5.722C460.85,43.1,453.26,38.436,450.592,38.386Z" transform="translate(-393.739 2.263)" fill="#ededed"/>
      <path id="Trazado_11095" data-name="Trazado 11095" d="M451.371,34.322c-.679.3-.438,1.142.108,1.4.772.366,2.328.057,2.755.991.237.517-.212,1.081-.611,1.372-1.781,1.311-3.721-.912-4.906-2.033a.517.517,0,0,0-.776.682c1.627,2.36,4.982,4.881,7.485,2.087C457.761,36.219,454.075,33.122,451.371,34.322Z" transform="translate(-384.547 -8.96)" fill="#ededed"/>
      <path id="Trazado_11096" data-name="Trazado 11096" d="M447.318,43.461a.766.766,0,0,0-.456,1.394c1.972,1.347,3.656,2.317,4.6,4.375a14.858,14.858,0,0,1-8.3-3.789c-.524-.438-1.121.381-.747.866a13.471,13.471,0,0,0,10.359,4.867.945.945,0,0,0,.963-1.124C452.971,47.1,450.611,43.727,447.318,43.461Z" transform="translate(-398.892 15.41)" fill="#ededed"/>
      <path id="Trazado_11097" data-name="Trazado 11097" d="M453.9,42.645a.773.773,0,0,0-.456,1.408c2.187,1.685,4.17,2.809,4.641,5.628a9.421,9.421,0,0,1-9.224-3.563c-.388-.478-1.232.072-.905.611a10.564,10.564,0,0,0,11.4,4.673.981.981,0,0,0,.769-.9C459.936,47.246,457.652,42.749,453.9,42.645Z" transform="translate(-384.406 13.302)" fill="#ededed"/>
      <path id="Trazado_11098" data-name="Trazado 11098" d="M455.947,40.085a4.221,4.221,0,0,0,1.674,2.3,17.763,17.763,0,0,1,1.609,1.275c.9.927,1.541,2.913-.456,2.618-1.3-.19-3.085-1.871-4.167-2.6-1.462-.991-2.906-2-4.314-3.067-.524-.4-1.257.435-.765.884a64.088,64.088,0,0,0,7.054,5.628c1.322.9,3.1,2.1,4.659.955,3.911-2.866-2-7.338-4.037-8.85A.831.831,0,0,0,455.947,40.085Z" transform="translate(-380.564 4.088)" fill="#ededed"/>
    </g>
  </g>
</svg>
