<svg width="53" height="111" viewBox="0 0 53 111" fill="none" xmlns="http://www.w3.org/2000/svg">
<path d="M48.1588 71.9827C53.1394 74.3632 50.061 56.0482 44.5504 51.8262L45.435 64.7036L48.1588 71.9827Z" fill="#FBC100"/>
<g opacity="0.3">
<path opacity="0.3" d="M48.1588 71.9827C53.1394 74.3632 50.061 56.0482 44.5504 51.8262L45.435 64.7036L48.1588 71.9827Z" fill="#760153"/>
</g>
<path d="M44.4829 101.437C44.4251 102.603 44.1029 103.701 43.5771 104.524C43.0514 105.348 42.3583 105.84 41.6287 105.908L14.6644 108.5C13.4558 108.615 12.2503 108.309 11.1309 107.604C11.1309 107.604 11.1269 107.604 11.1245 107.604C11.0311 107.544 10.9382 107.484 10.8478 107.419L7.38786 104.999C6.93411 104.681 6.55383 104.149 6.29754 103.472C6.04125 102.795 5.92112 102.007 5.95316 101.211C7.11395 72.2503 6.05558 43.227 2.80167 14.7887C2.72284 14.107 2.75908 13.4012 2.9067 12.7435C3.05432 12.0859 3.30803 11.5001 3.6418 11.0461L6.73603 6.84702L6.74004 6.84713L7.0623 6.40752C7.9256 5.23627 9.00062 4.54335 10.123 4.43473L10.5543 4.39253L22.1724 3.27614L25.9163 2.91597L36.5769 1.89222L37.4873 1.80528C38.193 1.7384 38.8868 2.07181 39.4465 2.7467C40.0061 3.42158 40.3956 4.39456 40.5462 5.49404C44.5876 34.9275 45.9891 70.1174 44.4838 101.437L44.4829 101.437Z" fill="#955447"/>
<path d="M32.5158 50.7849C32.7601 56.0232 32.9439 61.072 33.1056 66.5991L30.3279 68.5896C30.3088 65.3194 30.315 67.1634 30.2364 63.8806C29.9315 50.3966 29.1372 36.9645 27.8577 23.6521L30.6667 23.3775L30.6895 23.5891L39.2216 22.5201L39.5252 22.4897L39.5815 22.4836L39.5978 22.6975L40.9089 22.7349L41.7812 23.9855L39.9257 26.7798L31.5461 27.4812C31.4823 27.4865 31.4197 27.5131 31.3622 27.5592C31.3048 27.6053 31.2539 27.6698 31.2126 27.7488C31.1714 27.8278 31.1408 27.9194 31.1228 28.0178C31.1048 28.1162 31.0997 28.2191 31.108 28.3202C31.4338 32.2265 31.7213 36.2474 31.9707 40.3828L29.566 45.2432L32.2368 45.0788C32.2412 45.1373 32.242 45.1943 32.2464 45.2515L40.0069 44.3696L41.194 44.2989L41.2899 44.2933L42.0989 44.2464L43.6699 45.7862L41.4281 48.7863L33.0953 49.7198C33.0139 49.7289 32.9341 49.7639 32.8607 49.8226C32.7874 49.8813 32.7218 49.9625 32.6678 50.0617C32.6139 50.1608 32.5727 50.2758 32.5466 50.4C32.5205 50.5241 32.51 50.655 32.5158 50.7849Z" fill="#B68662"/>
<g opacity="0.2">
<path opacity="0.2" d="M6.73894 6.84221C6.83913 6.70359 6.95215 6.59082 7.07382 6.5081L6.73894 6.84221Z" fill="white"/>
</g>
<path d="M27.5664 24.5113L25.1384 28.3382L15.966 29.3082C15.7834 29.3271 15.6047 29.4064 15.4411 29.5411C15.2776 29.6757 15.1327 29.8628 15.0158 30.0904C14.8989 30.318 14.8125 30.5813 14.762 30.8634C14.7114 31.1456 14.698 31.4405 14.7224 31.7295C15.0008 35.1139 15.2468 38.5246 15.4603 41.9614L12.5722 46.9747C11.858 33.8403 10.6223 20.8047 8.87251 7.94662C8.83021 7.64666 8.74713 7.3662 8.62913 7.12504C8.51112 6.88389 8.36108 6.6879 8.18954 6.55086C8.018 6.41383 7.82916 6.33909 7.63632 6.33192C7.44348 6.32474 7.25132 6.38529 7.07341 6.50932L8.62904 4.95724C8.86793 4.63258 10.0917 4.49558 10.563 4.47822L10.5533 4.38885L19.2933 3.54766L19.8653 3.50817C19.8653 3.50817 19.8693 3.50829 19.8701 3.50831C19.8718 3.50858 19.8736 3.50862 19.8753 3.50846L22.1837 3.34782L23.6412 3.24826L24.4931 4.32327L22.842 7.71581L13.1106 8.50316C13.0082 8.5111 12.9077 8.55473 12.8163 8.63104C12.7249 8.70735 12.6447 8.81446 12.5814 8.94487C12.5181 9.07527 12.4732 9.22582 12.4498 9.38592C12.4265 9.54601 12.4252 9.71179 12.4462 9.87161C12.9056 13.4411 13.328 17.0831 13.7134 20.7975L10.9552 25.2561L14.5372 24.933L14.4648 24.5617L24.6888 23.5249L24.7283 23.9356L27.4797 23.5786C27.5081 23.8891 27.5372 24.2002 27.5664 24.5113Z" fill="#B68662"/>
<g opacity="0.2">
<path opacity="0.2" d="M27.8032 24.1347L27.5664 24.5126C27.5368 24.2015 27.5069 23.8897 27.4785 23.5818L27.8032 24.1347Z" fill="white"/>
</g>
<g opacity="0.2">
<path opacity="0.2" d="M19.8323 3.51036L19.8648 3.51129L19.2932 3.55016L22.1716 3.27176L22.1836 3.35094L19.8323 3.51036Z" fill="white"/>
</g>
<path d="M16.0122 52.286C16.7757 69.4606 16.7348 86.7227 15.8899 103.928C15.8199 105.35 13.7132 106.213 12.9015 105.645L12.8286 105.719C13.7687 86.2226 13.6888 66.6604 12.5899 47.2367L15.7397 46.7493C15.7435 46.8136 15.7462 46.8778 15.7505 46.942L25.8348 45.7948L26.3973 45.73L29.0856 45.8065C29.0901 45.8977 29.0949 45.9902 29.099 46.0826L26.6236 50.0364L16.7559 50.9422C16.6521 50.9514 16.5502 50.9937 16.4563 51.0667C16.3623 51.1397 16.2781 51.2419 16.2088 51.3672C16.1394 51.4925 16.0863 51.6384 16.0525 51.7962C16.0188 51.9541 16.005 52.1206 16.0122 52.286Z" fill="#B68662"/>
<g opacity="0.2">
<path opacity="0.2" d="M29.2692 45.8073L29.0979 46.0781C29.0939 45.985 29.0899 45.8932 29.0842 45.802L29.2692 45.8073Z" fill="white"/>
</g>
<g opacity="0.3">
<path opacity="0.3" d="M34.9154 2.0745C34.879 2.0677 34.8454 2.06418 34.8085 2.06313L36.6211 1.92238L37.2133 1.8751C37.419 1.85619 37.6249 1.87107 37.828 1.91951L35.2283 2.13533C35.1937 2.12281 35.1597 2.11478 35.1262 2.10805C35.0549 2.09277 34.9847 2.08161 34.9154 2.0745Z" fill="#760153"/>
</g>
<g opacity="0.3">
<path opacity="0.3" d="M38.7926 2.42716L37.8276 1.92017C38.1661 1.99782 38.4927 2.16938 38.7926 2.42716Z" fill="#760153"/>
</g>
<g opacity="0.3">
<path opacity="0.3" d="M44.2083 101.516C44.0924 103.925 42.8641 105.843 40.71 106.003L24.0725 107.603L38.6519 106.175C39.3812 106.106 40.0739 105.614 40.5992 104.79C41.1246 103.967 41.4465 102.869 41.5041 101.704C42.3156 84.0668 42.2896 66.3775 41.4264 48.7888L43.6693 45.7881L42.0984 44.249L41.2894 44.2965L41.1927 44.3021C41.1858 44.1737 41.1787 44.051 41.1701 43.9258L32.6567 44.565L32.63 45.0566L32.2347 45.0819L29.5646 45.2464L31.9686 40.3853L32.0103 40.3038L40.1113 39.5483C40.213 39.5393 40.3127 39.4971 40.4044 39.4242C40.4961 39.3513 40.5777 39.2494 40.6442 39.1246C40.7107 38.9998 40.7607 38.8549 40.791 38.6989C40.8214 38.5429 40.8314 38.3791 40.8206 38.2177C40.5626 34.3692 40.2648 30.5569 39.9273 26.7805L41.7832 23.9862L40.9108 22.7356L39.5997 22.6982L39.5826 22.4849L39.5267 22.491C39.5264 22.4885 39.5264 22.4858 39.5269 22.4833L39.2239 22.5209L30.6915 23.5904L30.6699 23.3783L27.8584 23.6534L27.8159 23.6573L27.8538 23.5905L30.2591 19.2724L30.2547 19.2332L38.2753 18.4318C38.3788 18.4211 38.4801 18.3753 38.5724 18.2976C38.6648 18.2199 38.746 18.1119 38.8109 17.9809C38.8757 17.8499 38.9226 17.6988 38.9485 17.5376C38.9743 17.3765 38.9785 17.2089 38.9609 17.046C38.5529 13.3391 38.1084 9.69393 37.6216 6.13604L39.3778 3.09075C39.8298 3.74555 40.1424 4.61053 40.2728 5.56779C44.3117 35.0063 45.7132 70.1987 44.2083 101.516Z" fill="#760153"/>
</g>
<g opacity="0.3">
<path opacity="0.3" d="M27.8522 23.5905C27.8517 23.611 27.8561 23.6323 27.8576 23.6548L27.8151 23.66L27.8522 23.5905Z" fill="#760153"/>
</g>
<g opacity="0.3">
<path opacity="0.3" d="M32.008 40.3017L31.9662 40.384L31.9619 40.3056L32.008 40.3017Z" fill="#760153"/>
</g>
<g opacity="0.3">
<path opacity="0.3" d="M13.9257 108.599C13.9874 108.595 14.0265 108.596 14.0457 108.596C14.0176 108.602 13.9576 108.6 13.8973 108.598L13.9257 108.599Z" fill="#760153"/>
</g>
<g opacity="0.3">
<path opacity="0.3" d="M24.0734 107.603L13.9261 108.596C13.8808 108.595 13.8224 108.593 13.7474 108.591L24.0734 107.603Z" fill="#760153"/>
</g>
<g opacity="0.3">
<path opacity="0.3" d="M13.9257 108.599C13.9874 108.595 14.0265 108.596 14.0457 108.596C14.0176 108.602 13.9576 108.6 13.8973 108.598L13.9257 108.599Z" fill="#760153"/>
</g>
<g opacity="0.3">
<path opacity="0.3" d="M24.0734 107.603L13.9261 108.596C13.8808 108.595 13.8224 108.593 13.7474 108.591L24.0734 107.603Z" fill="#760153"/>
</g>
<path d="M28.8661 8.00256C28.8661 8.00256 28.866 8.01026 28.8659 8.01218C29.3806 11.5974 29.8425 15.3377 30.2516 19.2331L30.256 19.2724L27.8499 23.5904C27.2805 17.7587 26.6177 12.0628 25.8645 6.56825C25.7246 5.54493 25.3772 4.62901 24.8759 3.96192C24.3746 3.29484 23.7472 2.91367 23.0907 2.87731L26.8061 2.80608C26.8061 2.80608 26.8136 2.81144 26.8269 2.82272L36.5738 1.88712L36.6187 1.9249L34.8061 2.06569C34.8415 2.06662 34.8769 2.07041 34.9121 2.07704C34.9821 2.08416 35.0519 2.09639 35.1221 2.11377C35.1561 2.11989 35.19 2.12877 35.2234 2.14037L35.2274 2.14048L37.8264 1.92468L38.7905 2.43165C39.0027 2.61131 39.2 2.83223 39.3779 3.08947L37.6217 6.13539L29.4123 6.86345C29.3276 6.87117 29.2446 6.90838 29.1693 6.97248C29.0939 7.03657 29.028 7.126 28.976 7.23451C28.9241 7.34302 28.8875 7.46798 28.8687 7.60065C28.85 7.73332 28.8495 7.87051 28.8673 8.00259L28.8661 8.00256Z" fill="#B68662"/>
<g opacity="0.2">
<path opacity="0.2" d="M39.5318 2.82203L39.3767 3.09074C39.1995 2.83383 39.003 2.61295 38.7916 2.43298L39.5318 2.82203Z" fill="white"/>
</g>
<g opacity="0.2">
<path opacity="0.2" d="M41.2902 44.2958L40.006 44.3715L41.1889 44.2352L41.2882 44.2246L41.2902 44.2958Z" fill="white"/>
</g>
<path d="M12.8245 105.78C12.8086 106.092 12.7486 106.395 12.649 106.666C12.5494 106.937 12.4127 107.17 12.2496 107.345C12.0864 107.521 11.9009 107.636 11.7071 107.681C11.5133 107.726 11.3164 107.7 11.1313 107.605C11.1313 107.605 11.1273 107.605 11.1249 107.604C11.0315 107.544 10.9386 107.484 10.8482 107.419L7.3883 105C6.93454 104.683 6.55421 104.15 6.29793 103.473C6.04164 102.797 5.92151 102.008 5.95354 101.212C7.1143 72.2513 6.05594 43.2278 2.80207 14.7893C2.72325 14.1078 2.75951 13.4022 2.90713 12.7448C3.05475 12.0874 3.30843 11.5018 3.64217 11.048L6.7364 6.84895L6.74041 6.84906C6.91411 6.61294 7.12217 6.45116 7.34458 6.37932C7.567 6.30748 7.79631 6.32799 8.01055 6.43881C8.22479 6.54963 8.41675 6.74707 8.56802 7.0122C8.71929 7.27733 8.82476 7.60121 8.87437 7.95284C13.0326 37.9128 14.4448 73.9293 12.8253 105.78L12.8245 105.78Z" fill="#B68662"/>
<g opacity="0.2">
<path opacity="0.2" d="M23.0926 2.87742L22.8067 2.88286C22.9039 2.87205 22.9981 2.87279 23.0926 2.87742Z" fill="white"/>
</g>
<path d="M44.483 101.436C44.425 102.602 44.1028 103.7 43.5769 104.523C43.0511 105.347 42.358 105.839 41.6283 105.907L14.6648 108.498C14.1194 108.552 13.5728 108.518 13.0333 108.398C12.278 108.233 11.5422 107.903 10.8466 107.415L7.38718 104.995C6.93335 104.678 6.55292 104.145 6.29656 103.468C6.0402 102.792 5.92003 102.003 5.95204 101.207C6.27193 93.4353 6.41613 85.7859 6.41309 78.3137C6.41199 76.1899 6.39936 74.0806 6.3752 71.9856C7.30643 72.1234 8.20935 72.5481 9.03434 73.2364C11.312 82.637 14.2959 85.5608 19.1233 71.5668C19.3772 70.9813 19.6976 70.4765 20.0676 70.0794C20.9297 69.1076 22.4272 68.188 24.713 69.1429C26.4803 69.8785 28.7218 71.7418 31.512 75.5704C36.0309 81.7824 38.3702 81.0913 39.5774 78.8202C40.0033 77.9754 40.3173 77.0024 40.5 75.9615C40.7089 74.8586 40.8325 73.7209 40.8681 72.5741C40.8681 72.5741 42.615 69.5465 45.0709 77.0071C45.0717 77.1571 45.071 77.3077 45.0695 77.4558C45.0661 79.5021 45.0499 81.5416 45.0211 83.5743C44.9429 89.628 44.7635 95.5987 44.483 101.436Z" fill="#57BAEB"/>
<g opacity="0.55">
<path opacity="0.55" d="M6.37476 71.9859C6.38313 72.7581 6.39039 73.5329 6.39651 74.3106C6.34537 67.5702 6.18181 60.997 5.90588 54.5909C6.11032 56.7805 6.64206 58.8509 7.45616 60.6274C7.58882 64.4902 7.68315 68.4159 7.73916 72.4043C7.29419 72.1969 6.8374 72.0568 6.37476 71.9859Z" fill="white"/>
</g>
<g opacity="0.55">
<path opacity="0.55" d="M7.78889 105.276L7.38712 104.998C6.93341 104.68 6.55311 104.147 6.29673 103.47C6.04035 102.793 5.91999 102.005 5.95162 101.209C6.29514 92.827 6.438 84.5908 6.409 76.5608C6.41089 77.1451 6.41195 77.7305 6.4122 78.3169L6.42662 78.3173C6.80654 78.396 7.15375 78.6919 7.40425 79.1507C7.65474 79.6095 7.79171 80.2003 7.7899 80.8141C7.78211 87.9808 7.63589 95.3077 7.3294 102.747C7.29262 103.654 7.45513 104.549 7.78889 105.276Z" fill="white"/>
</g>
<g opacity="0.55">
<path opacity="0.55" d="M39.9735 3.56671C39.617 3.38065 39.2408 3.30363 38.8644 3.33961L37.9543 3.4259L27.2937 4.44965L23.5494 4.81047L11.9314 5.92687L11.5004 5.96974C10.3781 6.07813 9.30319 6.7711 8.44012 7.94254L8.11786 8.38216L8.11385 8.38204L5.01961 12.5817C4.68591 13.0355 4.43229 13.6211 4.28467 14.2785C4.13705 14.9359 4.10074 15.6415 4.17951 16.323C5.50381 27.839 6.46278 39.4637 7.05271 51.1528C6.53579 50.8736 6.06753 50.4081 5.68369 49.7918L5.68302 49.8239C5.0946 38.0645 4.13226 26.37 2.79976 14.7855C2.72118 14.1038 2.75757 13.3981 2.90518 12.7406C3.05278 12.083 3.30632 11.4972 3.63989 11.0429L6.73411 6.84449L6.73811 6.8446L7.06038 6.40499C7.92393 5.23358 8.99922 4.5407 10.1219 4.43226L10.5528 4.38939L22.1713 3.27301L25.9152 2.9128L36.5761 1.88906L37.4858 1.80214C37.9615 1.75645 38.4354 1.89269 38.8681 2.19959C39.3009 2.50649 39.6799 2.97516 39.9739 3.56672L39.9735 3.56671Z" fill="white"/>
</g>
<path d="M14.0051 109.302C12.8441 109.268 11.7021 108.871 10.6436 108.132L7.18535 105.712C6.64207 105.328 6.18677 104.689 5.87959 103.878C5.5724 103.067 5.42776 102.122 5.46469 101.168C6.62076 72.2713 5.56455 43.3129 2.31959 14.9373C2.22545 14.1196 2.26932 13.2732 2.44673 12.4847C2.62414 11.6963 2.9287 10.9941 3.32923 10.4501L6.74778 5.80892C7.69412 4.5285 8.87096 3.7699 10.0998 3.64822L37.463 1.01873C38.2844 0.937053 39.0927 1.32312 39.7444 2.10835C40.3961 2.89358 40.849 4.02713 41.0227 5.30772C45.0551 34.6916 46.4951 69.746 44.9694 101.482C44.9022 102.838 44.5278 104.115 43.9167 105.073C43.3056 106.032 42.4999 106.606 41.6513 106.686L14.6862 109.278C14.4588 109.302 14.2322 109.308 14.0051 109.302ZM37.7052 2.57389C37.6399 2.57203 37.5734 2.57527 37.5075 2.58109L10.1432 5.20992C9.12826 5.31086 8.15629 5.93746 7.37459 6.99482L3.95608 11.636C3.68875 11.9989 3.4854 12.4674 3.36688 12.9934C3.24837 13.5195 3.21895 14.0843 3.28159 14.63C6.54143 43.132 7.60243 72.2196 6.44102 101.245C6.41634 101.881 6.51291 102.512 6.71795 103.053C6.92298 103.594 7.22686 104.021 7.58944 104.276L11.0481 106.698C12.1754 107.485 13.4069 107.834 14.6431 107.717L41.6083 105.125C42.2183 105.068 42.7978 104.657 43.2374 103.968C43.677 103.279 43.9465 102.361 43.995 101.387C45.5136 69.7968 44.0818 34.9069 40.0676 5.66653C39.9495 4.79881 39.653 4.02352 39.225 3.46363C38.797 2.90375 38.2622 2.59131 37.7052 2.57584L37.7052 2.57389Z" fill="#541C27"/>
<path d="M10.9301 26.421C10.8164 26.4174 10.7075 26.3504 10.6225 26.2316C10.5374 26.1129 10.4813 25.9496 10.4639 25.7702C10.4466 25.5907 10.469 25.4062 10.5273 25.2484C10.5857 25.0906 10.6763 24.9694 10.7836 24.9057C11.3082 24.5951 11.8575 24.4098 12.4136 24.3559L39.7791 21.7259C40.6001 21.6461 41.4077 22.0331 42.0588 22.8184C42.7099 23.6036 43.1624 24.7363 43.3364 26.016C43.3506 26.1163 43.3523 26.2205 43.3413 26.3224C43.3303 26.4243 43.3067 26.5221 43.2721 26.61C43.2375 26.6979 43.1923 26.7743 43.1394 26.8347C43.0865 26.8951 43.0268 26.9383 42.9638 26.9619C42.9007 26.9855 42.8356 26.989 42.7721 26.9722C42.7086 26.9553 42.648 26.9184 42.5938 26.8637C42.5396 26.809 42.4929 26.7376 42.4564 26.6535C42.4199 26.5693 42.3942 26.4742 42.381 26.3736C42.2554 25.4532 41.9296 24.6385 41.4612 24.0738C40.9928 23.509 40.4119 23.2305 39.8213 23.2875L12.457 25.9163C11.9972 25.9615 11.543 26.115 11.1091 26.3717C11.0517 26.4054 10.991 26.4221 10.9301 26.421Z" fill="#541C27"/>
<path d="M12.5721 48.0519C12.457 48.0484 12.3469 47.9801 12.2613 47.859C12.1758 47.7379 12.1201 47.5718 12.1042 47.3898C12.0883 47.2079 12.1132 47.0217 12.1744 46.8642C12.2356 46.7067 12.3292 46.5879 12.4389 46.5286C12.9129 46.2757 13.4045 46.1224 13.9014 46.0728L41.2645 43.4446C42.0857 43.3646 42.8935 43.7513 43.545 44.5362C44.1965 45.3212 44.6496 46.4538 44.8242 47.7336C44.8477 47.9328 44.8215 48.1401 44.7513 48.3114C44.681 48.4827 44.5722 48.6046 44.448 48.6511C44.3237 48.6976 44.1937 48.6651 44.0856 48.5606C43.9776 48.456 43.8999 48.2876 43.8692 48.091C43.7433 47.1703 43.4171 46.3556 42.9483 45.7908C42.4795 45.2261 41.8983 44.9477 41.3075 45.005L13.9456 47.6338C13.535 47.6743 13.1287 47.8014 12.7372 48.0117C12.6838 48.0398 12.628 48.0533 12.5721 48.0519Z" fill="#541C27"/>
<path d="M30.3566 74.8592C30.2307 74.8553 30.1113 74.7739 30.0232 74.6319C29.9352 74.49 29.8854 74.2984 29.884 74.097C29.8653 70.846 29.816 67.5448 29.7381 64.2839C29.2734 44.2681 27.7679 24.4927 25.3806 7.10716C25.2562 6.18607 24.9308 5.37049 24.4623 4.80546C23.9937 4.24043 23.4124 3.96254 22.8217 4.02114C22.7575 4.02733 22.6935 4.01328 22.6331 3.97977C22.5727 3.94626 22.5172 3.89392 22.4698 3.8258C22.4224 3.75769 22.3841 3.67511 22.3569 3.58276C22.3297 3.49042 22.3142 3.39011 22.3113 3.2876C22.3085 3.18509 22.3183 3.08239 22.3403 2.98532C22.3622 2.88825 22.3958 2.79874 22.4391 2.72189C22.4825 2.64505 22.5348 2.58235 22.593 2.53743C22.6512 2.49251 22.7142 2.46625 22.7784 2.4601C23.5993 2.37861 24.4072 2.76454 25.0584 3.54941C25.7097 4.33427 26.1622 5.46725 26.3357 6.74711C28.7344 24.222 30.2476 44.0881 30.7159 64.1982C30.7926 67.4739 30.842 70.7905 30.8613 74.0555C30.862 74.1582 30.85 74.2604 30.8261 74.3563C30.8021 74.4522 30.7667 74.5398 30.7217 74.6142C30.6767 74.6887 30.6231 74.7484 30.564 74.79C30.5048 74.8316 30.4413 74.8542 30.3771 74.8566L30.3566 74.8592Z" fill="#541C27"/>
<g opacity="0.3">
<path opacity="0.3" d="M22.1805 3.35024L19.8725 3.51151C19.8725 3.51151 19.8685 3.50819 19.8673 3.50816L22.1805 3.35024Z" fill="#760153"/>
</g>
<g opacity="0.3">
<path opacity="0.3" d="M24.4911 4.32892L23.6399 3.25391C23.9663 3.5174 24.2556 3.88283 24.4911 4.32892Z" fill="#760153"/>
</g>
<g opacity="0.3">
<path opacity="0.3" d="M14.5364 24.9355L10.9544 25.2586L13.7122 20.7993L23.5076 19.9388C23.6079 19.9298 23.7061 19.8868 23.7957 19.8126C23.8854 19.7383 23.9644 19.6345 24.0274 19.5082C24.0905 19.3819 24.1362 19.2359 24.1614 19.08C24.1866 18.9241 24.1908 18.762 24.1737 18.6044C23.7705 14.9031 23.3256 11.2742 22.8391 7.71761L24.4899 4.32568C25.1179 5.50101 25.5357 6.92799 25.7002 8.45934C26.3833 13.223 26.9722 18.2795 27.4773 23.5798L24.7259 23.9374C24.712 23.7986 24.6984 23.6622 24.6856 23.5266L14.4613 24.5628L14.5364 24.9355Z" fill="#760153"/>
</g>
<g opacity="0.3">
<path opacity="0.3" d="M26.3974 45.7281L26.3617 45.1558C26.3741 45.3485 26.3845 45.5367 26.3954 45.728L16.7707 46.3036L16.8512 46.5752L15.7376 46.7499L12.5875 47.2372C12.5829 47.1486 12.5779 47.0626 12.5721 46.9766L15.4598 41.9631L24.7033 40.9857C24.8835 40.9663 25.0599 40.8882 25.2217 40.7562C25.3834 40.6243 25.5271 40.4412 25.6439 40.2183C25.7606 39.9954 25.8479 39.7374 25.9005 39.4602C25.9531 39.1829 25.9699 38.8923 25.9497 38.6061C25.7125 35.1519 25.442 31.7297 25.138 28.3394L27.5667 24.5131C28.1928 31.2504 28.6889 38.3757 29.0836 45.8039L26.3974 45.7281Z" fill="#760153"/>
</g>
<g opacity="0.3">
<path opacity="0.3" d="M29.9343 67.0457L27.2294 69.2292C27.2099 65.959 27.217 67.7999 27.1396 64.5184C27.0258 59.6799 26.8527 54.8515 26.6204 50.0332L29.0963 46.0788C29.451 52.841 29.7254 59.8503 29.9343 67.0457Z" fill="#760153"/>
</g>
<g opacity="0.3">
<path opacity="0.3" d="M12.5879 47.2365L12.4046 47.2653L12.571 46.9758C12.578 47.0625 12.583 47.1479 12.5879 47.2365Z" fill="#760153"/>
</g>
<g opacity="0.3">
<path opacity="0.3" d="M26.397 45.7274C26.387 45.538 26.3758 45.3454 26.3633 45.1559L26.397 45.7274Z" fill="#760153"/>
</g>
<path d="M11.4816 108.484C11.2491 108.478 11.0203 108.399 10.8084 108.251C10.7489 108.211 10.6951 108.152 10.6502 108.078C10.6053 108.004 10.5702 107.917 10.5469 107.821C10.5236 107.724 10.5125 107.621 10.5145 107.517C10.5164 107.414 10.5312 107.311 10.558 107.216C10.5848 107.121 10.6231 107.035 10.6707 106.963C10.7183 106.891 10.7742 106.835 10.8352 106.798C10.8961 106.761 10.9609 106.743 11.0257 106.746C11.0906 106.749 11.1542 106.773 11.2128 106.816C11.3292 106.897 11.4566 106.932 11.5841 106.918C11.7117 106.904 11.8357 106.841 11.9458 106.735C12.0559 106.629 12.1489 106.482 12.2168 106.307C12.2848 106.133 12.3257 105.935 12.3363 105.731C13.9741 73.5406 12.5358 37.9664 8.39426 8.12876C8.36488 7.90707 8.29939 7.70259 8.2044 7.53582C8.10941 7.36904 7.98824 7.24586 7.85307 7.17866C7.71794 7.10732 7.57301 7.09353 7.4324 7.13863C7.2918 7.18373 7.16032 7.28616 7.05084 7.43596C7.00151 7.50297 6.94457 7.55399 6.88325 7.58611C6.82193 7.61823 6.75743 7.63086 6.69346 7.6232C6.6295 7.61555 6.56731 7.5878 6.51043 7.54154C6.45355 7.49527 6.4031 7.43139 6.36197 7.35356C6.32084 7.27573 6.28984 7.18547 6.27072 7.08793C6.2516 6.99038 6.24472 6.88745 6.25051 6.78503C6.25631 6.68262 6.27465 6.58275 6.30449 6.49106C6.33433 6.39937 6.37508 6.31769 6.42442 6.25069C6.66253 5.92666 6.94783 5.70475 7.25287 5.60632C7.55791 5.50788 7.87244 5.53623 8.16617 5.68865C8.4599 5.84107 8.72294 6.11242 8.93001 6.47659C9.13709 6.84077 9.28121 7.28553 9.34852 7.76805C13.5107 37.7512 14.955 73.4943 13.3113 105.834C13.274 106.561 13.0631 107.243 12.7223 107.736C12.3816 108.23 11.9372 108.498 11.4813 108.484L11.4816 108.484Z" fill="#541C27"/>
<path d="M45.8123 77.8698L45.8121 77.8762C45.6037 78.1613 45.4725 78.305 45.4725 78.305C42.8063 69.2203 40.8671 72.5829 40.8671 72.5829C40.8671 72.5829 40.7721 78.5976 38.5005 80.1127C37.1246 81.0287 34.9487 80.2962 31.5123 75.5747C22.4002 63.0601 19.1248 71.5724 19.1248 71.5724C14.2967 85.5657 11.3127 82.6407 9.0351 73.2394C5.64165 70.4047 2.1485 73.0435 2.1485 73.0435L4.60107 64.5096L1.47573 61.9435C2.7233 56.8918 5.91587 54.8253 5.91587 54.8253C5.91587 54.8253 6.66431 64.9934 13.4623 65.192C20.2602 65.3918 22.1719 60.4737 30.3977 64.3275C35.806 66.8593 40.9043 64.7387 43.7632 62.9877C44.5775 62.503 45.3699 61.9256 46.1341 61.2602L48.4516 68.4988C48.463 70.2637 48.2327 72.0174 47.7768 73.6367C47.3208 75.256 46.6503 76.7016 45.8122 77.8723L45.8123 77.8698Z" fill="#FBC100"/>
<g opacity="0.55">
<path opacity="0.55" d="M15.045 80.119C12.4712 83.0519 10.5898 79.6525 9.03473 73.237C5.64128 70.4022 2.14814 73.041 2.14814 73.041L4.6007 64.5071L1.47537 61.9409C2.72293 56.8893 5.91546 54.8228 5.91546 54.8228C5.91546 54.8228 5.93091 55.0239 5.97371 55.3713C4.89769 56.6193 4.02594 58.2664 3.43528 60.1676C3.37969 60.3569 3.37166 60.5721 3.41288 60.7681C3.45411 60.9641 3.54142 61.1258 3.6565 61.2195L5.54771 62.7742C5.76905 62.9556 5.93706 63.2671 6.017 63.6444C6.09694 64.0216 6.0827 64.4357 5.97729 64.8014L3.91509 71.9828C5.40766 70.9794 7.03783 70.6486 8.6266 71.0269C9.22462 71.1854 9.78757 71.573 10.2676 72.1568C10.7477 72.7406 11.1306 73.5033 11.3839 74.3802C12.4233 77.9448 13.6129 80.1417 15.045 80.119Z" fill="white"/>
</g>
<g opacity="0.55">
<path opacity="0.55" d="M39.2276 79.3887C37.9362 81.1624 35.6305 81.2301 31.5123 75.5731C27.0218 69.4035 23.9478 68.3435 21.9859 68.8564C23.5908 67.2082 27.0883 66.0051 33.2798 74.5099C35.9542 78.1826 37.8645 79.441 39.2276 79.3887Z" fill="white"/>
</g>
<path d="M13.1999 81.9636C13.167 81.9627 13.135 81.9618 13.1021 81.9608C11.4014 81.8137 9.98327 79.2192 8.64596 73.8081C5.56574 71.4028 2.38339 73.7292 2.35043 73.7527C2.25953 73.8202 2.15836 73.8421 2.0604 73.8155C1.96243 73.7889 1.87234 73.715 1.80215 73.6037C1.73197 73.4924 1.68501 73.3489 1.66758 73.1925C1.65015 73.0361 1.66305 72.8742 1.70458 72.7283L3.96178 64.8698L1.24625 62.6397C1.13971 62.5525 1.05775 62.4048 1.01609 62.2252C0.974432 62.0455 0.976013 61.8465 1.02058 61.6664C2.33081 56.3601 5.59932 54.1888 5.73789 54.0985C5.8075 54.0535 5.88234 54.0344 5.95674 54.0427C6.03114 54.051 6.1031 54.0864 6.1671 54.1463C6.23111 54.2062 6.28549 54.2888 6.32603 54.388C6.36658 54.4872 6.39223 54.6004 6.40104 54.7187C6.43062 55.1042 7.19347 64.2232 13.4775 64.4084L13.4923 64.4088C15.5694 64.4296 17.6436 64.017 19.6625 63.1817C22.5879 62.1333 25.3519 61.1427 30.541 63.5727C38.4752 67.2854 45.8227 60.6506 45.8962 60.5828C46.0093 60.4788 46.1429 60.4502 46.2676 60.5032C46.3923 60.5563 46.4979 60.6868 46.5612 60.866C46.6245 61.0451 46.6404 61.2582 46.6052 61.4585C46.57 61.6587 46.4868 61.8297 46.3737 61.9338C46.0594 62.2236 38.5829 68.9726 30.253 65.0729C25.3043 62.7581 22.7819 63.6609 19.8613 64.7061C17.7667 65.5721 15.6144 65.9976 13.4595 65.9716L13.4443 65.9712C7.64816 65.7998 5.98536 58.6907 5.5611 55.9706C4.08054 57.2344 2.8733 59.193 2.10465 61.5781L4.82843 63.8161C4.93914 63.907 5.02316 64.0629 5.06319 64.2516C5.10322 64.4403 5.0962 64.6476 5.04359 64.8307L3.06874 71.7062C5.13964 70.7226 7.35442 71.0247 9.26675 72.5518C9.36927 72.6375 9.4487 72.7793 9.4908 72.9518C10.6623 77.7858 11.9019 80.2919 13.1705 80.4024C14.695 80.5284 16.5462 77.4404 18.6972 71.2059L18.7087 71.1741C19.0827 70.3387 19.5597 69.6335 20.1097 69.1032C20.6597 68.5728 21.2707 68.2288 21.9041 68.0929C24.6411 67.3713 27.9809 69.691 31.8341 74.9839C34.6753 78.8851 36.939 80.3979 38.3786 79.3528C40.265 77.9858 40.3775 72.6312 40.3786 72.5774C40.3816 72.3863 40.4282 72.2025 40.5097 72.0606C40.7203 71.7309 40.9757 71.4839 41.2552 71.3395C41.5347 71.1951 41.8306 71.1574 42.1187 71.2293C43.3186 71.5064 44.5029 73.4724 45.6452 77.0823C46.3877 75.9908 46.9785 74.6622 47.3781 73.1853C47.7777 71.7083 47.9769 70.117 47.9626 68.5176C47.9621 68.415 47.9742 68.3129 47.9984 68.2171C48.0225 68.1214 48.0581 68.0339 48.1032 67.9597C48.1483 67.8854 48.2019 67.8258 48.261 67.7843C48.3202 67.7428 48.3837 67.7202 48.4479 67.7179C48.5121 67.7155 48.5758 67.7334 48.6353 67.7705C48.6948 67.8075 48.749 67.8631 48.7947 67.934C48.8405 68.0049 48.8769 68.0898 48.9019 68.1837C48.9269 68.2776 48.94 68.3787 48.9405 68.4814C48.9596 70.4937 48.6797 72.492 48.1237 74.3122C47.5678 76.1324 46.7518 77.7226 45.7426 78.952C45.6839 79.016 45.6175 79.0593 45.5478 79.0787C45.4781 79.0981 45.4069 79.0933 45.339 79.0646C45.2711 79.0359 45.2081 78.9839 45.1543 78.9122C45.1006 78.8406 45.0573 78.751 45.0275 78.6495C43.6254 73.8654 42.5189 72.9204 41.9844 72.7808C41.7643 72.7181 41.5363 72.7852 41.3423 72.9696C41.2782 74.3782 40.9068 79.2215 38.7712 80.7731C36.9331 82.1094 34.382 80.5616 31.1882 76.1741C26.6898 69.9953 23.7502 69.2026 22.0763 69.6268C21.579 69.7226 21.0977 69.9797 20.6619 70.3824C20.226 70.7851 19.845 71.3249 19.5421 71.9685C17.203 78.7444 15.1258 82.0178 13.1999 81.9636Z" fill="#541C27"/>
<path d="M48.9168 72.9735C48.6089 72.9595 48.3044 72.8782 48.0116 72.7318C47.9488 72.7048 47.8901 72.6579 47.8391 72.5938C47.7881 72.5296 47.7458 72.4497 47.7148 72.3585C47.6837 72.2673 47.6645 72.1667 47.6583 72.0629C47.6521 71.959 47.659 71.8539 47.6786 71.7537C47.6982 71.6535 47.7301 71.5603 47.7724 71.4796C47.8148 71.3989 47.8667 71.3324 47.9251 71.2839C47.9835 71.2354 48.0471 71.2059 48.1124 71.1972C48.1776 71.1886 48.243 71.2009 48.3048 71.2335C49.4603 71.785 49.8172 70.956 49.9862 70.2786C50.4495 68.4256 50.0598 64.7518 49.0158 61.1345C47.8332 57.0407 46.1274 53.9065 44.3346 52.5336C44.277 52.4895 44.2256 52.4276 44.1833 52.3514C44.141 52.2752 44.1087 52.1861 44.0881 52.0894C44.0675 51.9926 44.0592 51.89 44.0634 51.7875C44.0677 51.6849 44.0845 51.5843 44.113 51.4916C44.1415 51.3988 44.181 51.3156 44.2294 51.2468C44.2777 51.1779 44.3339 51.1248 44.3947 51.0904C44.4556 51.0559 44.5199 51.0408 44.584 51.046C44.6481 51.0513 44.7107 51.0766 44.7683 51.1207C46.7584 52.6448 48.6328 56.0486 49.903 60.4603C51.0885 64.565 51.4679 68.5423 50.8934 70.8398C50.7542 71.4909 50.4848 72.0534 50.1272 72.4394C49.7696 72.8254 49.344 73.0132 48.9168 72.9735Z" fill="#541C27"/>
<g opacity="0.3">
<path opacity="0.3" d="M26.397 45.7274C26.387 45.538 26.3758 45.3454 26.3633 45.1559L26.397 45.7274Z" fill="#760153"/>
</g>
<g opacity="0.2">
<path opacity="0.2" d="M26.396 45.7256L25.8335 45.7904L25.8408 45.7098L26.396 45.7256Z" fill="white"/>
</g>
<g opacity="0.3">
<path opacity="0.3" d="M5.68367 49.7924C8.83991 54.552 11.509 47.2386 12.1237 39.8193L13.462 65.1862C9.43371 64.5837 5.59 61.5271 5.68367 49.7924Z" fill="#760153"/>
</g>
<g opacity="0.3">
<path opacity="0.3" d="M5.90598 54.5893C5.73946 53.0177 5.66558 51.4224 5.68536 49.8241C5.76397 51.4 5.83752 52.9884 5.90598 54.5893Z" fill="#760153"/>
</g>
<g opacity="0.3">
<path opacity="0.3" d="M45.8132 77.8687C46.0613 76.8936 45.4723 78.3021 45.4723 78.3021C42.8073 69.2155 40.8677 72.5773 40.8677 72.5773C40.8677 72.5773 40.773 78.5934 38.5011 80.1078L38.0083 79.8546C38.6644 77.8743 39.0245 75.3069 39.0886 72.1523C39.1535 69.0647 40.9584 67.5896 42.6832 68.9414C43.2588 69.3963 43.7815 70.3099 44.6831 70.7228C47.8318 72.1587 45.3135 63.9072 43.7659 62.9765C44.5802 62.4922 45.3728 61.9162 46.1376 61.2528L48.4551 68.4896C48.4668 70.2558 48.2364 72.0106 47.78 73.631C47.3235 75.2514 46.6522 76.6978 45.8132 77.8687Z" fill="#541C27"/>
</g>
<g opacity="0.3">
<path opacity="0.3" d="M44.483 101.438C44.4249 102.603 44.1027 103.701 43.5768 104.524C43.051 105.348 42.358 105.84 41.6283 105.908L14.6648 108.502C14.1193 108.553 13.5729 108.519 13.0333 108.399L12.8073 108.281C24.2464 107.172 33.5423 103.701 36.9881 93.7715C37.2213 93.0861 37.3628 92.3323 37.4035 91.5589C37.4442 90.7854 37.3831 90.0094 37.2243 89.2811C37.0654 88.5528 36.8123 87.8882 36.4812 87.3302C36.1502 86.7723 35.7486 86.3333 35.3022 86.0417C33.8651 84.9813 32.5407 83.5748 31.3745 81.8704C22.2636 69.3564 18.987 77.8676 18.987 77.8676C14.1592 91.8621 11.1753 88.9364 8.89805 79.5378C8.12509 78.8925 7.28316 78.4787 6.41306 78.3163C6.412 76.1908 6.39937 74.0809 6.3752 71.9868C7.30615 72.1267 8.20882 72.5514 9.03434 73.2376C11.312 82.6376 14.2959 85.5626 19.1233 71.5687C19.3773 70.9829 19.6977 70.4778 20.0676 70.08C21.5895 69.4682 23.1495 69.1539 24.713 69.1441C26.4803 69.8797 28.7218 71.7425 31.512 75.573C36.031 81.7799 38.3702 81.0931 39.5773 78.8246C40.0031 77.9797 40.3172 77.0067 40.4999 75.9658C40.7077 74.8626 40.8306 73.7251 40.866 72.5785C40.866 72.5785 42.613 69.5508 45.0688 77.0101C45.0697 77.1608 45.0689 77.3115 45.0674 77.4621C45.0665 77.9724 45.065 78.4836 45.0628 78.9955C45.0547 80.5271 45.0405 82.0558 45.0202 83.5815C44.943 89.6262 44.7635 95.5987 44.483 101.438Z" fill="#541C27"/>
</g>
<path d="M36.475 34.1372C36.5166 34.7112 36.4506 35.2947 36.2854 35.814C36.1202 36.3333 35.8632 36.7651 35.5468 37.0547C35.2305 37.3444 34.869 37.4789 34.5081 37.4412C34.1471 37.4036 33.803 37.1956 33.5191 36.8434C33.2352 36.4912 33.0243 36.0107 32.9131 35.4625C32.8019 34.9144 32.7954 34.3233 32.8943 33.764C32.9933 33.2046 33.1933 32.7021 33.469 32.32C33.7448 31.9378 34.0839 31.6932 34.4436 31.617C34.6826 31.5664 34.9248 31.5914 35.1563 31.6907C35.3877 31.79 35.604 31.9616 35.7927 32.1956C35.9813 32.4297 36.1387 32.7216 36.2558 33.0548C36.3728 33.3879 36.4473 33.7557 36.475 34.1372Z" fill="#291B22"/>
<path d="M34.6721 33.045C34.6895 33.2838 34.6544 33.5262 34.5729 33.7309C34.4914 33.9355 34.3684 34.0898 34.225 34.1673C34.0816 34.2448 33.9266 34.2409 33.7864 34.1561C33.6462 34.0713 33.5295 33.911 33.4562 33.7024C33.3829 33.4938 33.3575 33.2498 33.3843 33.0121C33.4111 32.7744 33.4885 32.5576 33.6033 32.3987C33.7182 32.2398 33.8633 32.1486 34.0139 32.1406C34.1646 32.1326 34.3115 32.2084 34.4296 32.355C34.565 32.523 34.6522 32.7712 34.6721 33.045Z" fill="#F6F6F6"/>
<path d="M25.3396 34.5899C25.382 35.1649 25.3164 35.7498 25.1511 36.2703C24.9858 36.7908 24.7282 37.2235 24.4112 37.5135C24.0941 37.8035 23.7318 37.9377 23.3702 37.8991C23.0086 37.8604 22.664 37.6507 22.3802 37.2965C22.0963 36.9424 21.886 36.4597 21.776 35.9097C21.6659 35.3598 21.661 34.7674 21.762 34.2077C21.8629 33.648 22.0651 33.1462 22.3429 32.766C22.6206 32.3859 22.9615 32.1444 23.3222 32.0724C23.8024 31.9765 24.2838 32.1872 24.6617 32.6587C25.0396 33.1303 25.2832 33.8244 25.3396 34.5899Z" fill="#291B22"/>
<path d="M23.5344 33.4931C23.5491 33.6973 23.5255 33.9048 23.4666 34.0894C23.4077 34.274 23.3162 34.4274 23.2036 34.5302C23.091 34.6331 22.9624 34.6807 22.8341 34.6671C22.7057 34.6535 22.5834 34.5793 22.4825 34.4538C22.3816 34.3284 22.3067 34.1573 22.2673 33.9623C22.2279 33.7673 22.2257 33.557 22.2611 33.3581C22.2964 33.1593 22.3677 32.9807 22.4658 32.8449C22.564 32.7092 22.6847 32.6224 22.8126 32.5956C22.8977 32.5777 22.9838 32.5868 23.066 32.6223C23.1483 32.6577 23.2252 32.7189 23.2922 32.8022C23.3592 32.8856 23.4151 32.9895 23.4567 33.108C23.4982 33.2266 23.5247 33.3574 23.5344 33.4931Z" fill="#F6F6F6"/>
<path d="M30.3951 40.161C30.416 40.4483 30.4012 40.7402 30.3516 41.02C30.302 41.2999 30.2185 41.5623 30.106 41.7922C29.9935 42.0221 29.8541 42.2151 29.6958 42.36C29.5375 42.5049 29.3634 42.599 29.1834 42.6369C29.0033 42.6748 28.821 42.6557 28.6467 42.5808C28.4724 42.5058 28.3097 42.3765 28.1676 42.2002C28.0256 42.0238 27.9072 41.8039 27.819 41.553C27.7309 41.3021 27.6748 41.0252 27.654 40.7379C27.6482 40.6579 27.6326 40.5808 27.6081 40.511C27.5835 40.4412 27.5505 40.38 27.511 40.3309C27.4714 40.2819 27.4261 40.246 27.3775 40.2252C27.329 40.2044 27.2782 40.1993 27.2281 40.21C27.178 40.2207 27.1296 40.247 27.0856 40.2875C27.0415 40.3281 27.0028 40.3819 26.9716 40.4461C26.9404 40.5102 26.9173 40.5834 26.9037 40.6614C26.8901 40.7394 26.8861 40.8206 26.8921 40.9006C26.9247 41.3474 27.0121 41.7783 27.1493 42.1685C27.2866 42.5588 27.471 42.9008 27.6921 43.1749C27.9131 43.4491 28.1665 43.6501 28.4377 43.7665C28.7088 43.8829 28.9926 43.9123 29.2726 43.8531C29.5526 43.794 29.8235 43.6474 30.0698 43.4217C30.316 43.196 30.5328 42.8957 30.7078 42.5378C30.8827 42.18 31.0124 41.7717 31.0895 41.3362C31.1665 40.9007 31.1894 40.4465 31.1568 39.9996C31.145 39.8384 31.0936 39.6922 31.0139 39.5933C30.9341 39.4943 30.8326 39.4507 30.7315 39.472C30.6305 39.4933 30.5382 39.5778 30.4751 39.7069C30.4119 39.8359 30.383 39.999 30.3948 40.1603L30.3951 40.161Z" fill="#291B22"/>
</svg>
