<svg width="92" height="463" viewBox="0 0 92 463" fill="none" xmlns="http://www.w3.org/2000/svg">
<g clip-path="url(#clip0)">
<path d="M42.8276 80.5674H49.1725V463.007H42.8276V80.5674Z" fill="#E1E7EC"/>
<path d="M46.001 83.4648C59.3007 83.4648 70.0823 65.3044 70.0823 42.9025C70.0823 20.5005 59.3007 2.34017 46.001 2.34017C32.7013 2.34017 21.9198 20.5005 21.9198 42.9025C21.9198 65.3044 32.7013 83.4648 46.001 83.4648Z" fill="#E1E7EC"/>
<path d="M43.712 28.7741C43.6483 33.8807 44.4466 38.9007 46 43.1611C43.2401 42.1419 40.718 39.6166 38.7717 35.9239C33.1918 25.7965 36.3723 19.9324 30.8698 9.84875C35.1267 3.46893 40.4781 -0.0144393 46 1.42809e-05C46.771 1.42809e-05 47.533 0.0661825 48.2859 0.198519C48.2467 14.387 43.712 14.4562 43.712 28.7741Z" fill="#FC556A"/>
<path d="M46 43.1611C45.4386 48.1677 44.0465 52.7431 42.0104 56.2733C36.4266 66.4025 33.1949 60.6331 27.6352 70.613C24.1179 62.889 22.198 53.1795 22.2069 43.1611C22.2069 41.7624 22.2434 40.3802 22.3164 39.0143C30.138 39.0854 30.1761 47.3115 38.069 47.3115C40.8841 47.4271 43.6514 45.9789 46 43.1611Z" fill="#FF2308"/>
<path d="M61.1303 76.4734C56.8733 82.8532 51.5219 86.3366 46.0001 86.3222C45.229 86.3222 44.4671 86.256 43.7141 86.1237C43.7543 71.9351 48.288 71.8659 48.288 57.5481C48.3518 52.4415 47.5534 47.4215 46.0001 43.1611C48.7604 44.1801 51.2827 46.7068 53.2283 50.4019C58.8092 60.5257 55.6287 66.3898 61.1303 76.4734Z" fill="#FC556A"/>
<path d="M69.7931 43.1611C69.7931 44.5597 69.7566 45.942 69.6837 47.3078C61.8621 47.235 61.8239 39.0107 53.931 39.0107C51.1159 38.8951 48.3486 40.3432 46 43.1611C46.5639 38.1553 47.9565 33.5809 49.9916 30.0489C55.5725 19.9269 58.8041 25.6963 64.3639 15.7146C67.8807 23.437 69.801 33.1444 69.7931 43.1611Z" fill="#FF2308"/>
<path d="M16.7596 95.9451C19.6095 95.9451 21.9197 91.7542 21.9197 86.5844C21.9197 81.4146 19.6095 77.2237 16.7596 77.2237C13.9097 77.2237 11.5994 81.4146 11.5994 86.5844C11.5994 91.7542 13.9097 95.9451 16.7596 95.9451Z" fill="#58AFE1"/>
<path d="M82.1214 52.2631C84.9713 52.2631 87.2816 48.0722 87.2816 42.9025C87.2816 37.7327 84.9713 33.5418 82.1214 33.5418C79.2715 33.5418 76.9612 37.7327 76.9612 42.9025C76.9612 48.0722 79.2715 52.2631 82.1214 52.2631Z" fill="#58AFE1"/>
<path d="M75.2404 158.35C78.0903 158.35 80.4006 154.159 80.4006 148.99C80.4006 143.82 78.0903 139.629 75.2404 139.629C72.3905 139.629 70.0802 143.82 70.0802 148.99C70.0802 154.159 72.3905 158.35 75.2404 158.35Z" fill="#FF2308"/>
<path d="M9.8787 27.3026C12.7286 27.3026 15.0389 23.1117 15.0389 17.9419C15.0389 12.7721 12.7286 8.58122 9.8787 8.58122C7.0288 8.58122 4.71851 12.7721 4.71851 17.9419C4.71851 23.1117 7.0288 27.3026 9.8787 27.3026Z" fill="#FF2308"/>
<path d="M22.4327 140.503L21.3103 142.535L20.192 144.568C19.8976 145.102 19.548 145.526 19.1633 145.815C18.7785 146.104 18.3661 146.253 17.9497 146.253C17.5332 146.253 17.1209 146.104 16.7361 145.815C16.3514 145.526 16.0018 145.102 15.7074 144.568L8.9811 132.366C8.6865 131.832 8.45281 131.197 8.29338 130.499C8.13394 129.801 8.05188 129.053 8.05188 128.297C8.05188 127.541 8.13394 126.793 8.29338 126.094C8.45281 125.396 8.6865 124.762 8.9811 124.227L11.2168 120.154C11.5114 119.619 11.8612 119.195 12.2461 118.906C12.631 118.617 13.0435 118.468 13.4601 118.468C13.8767 118.468 14.2893 118.617 14.6742 118.906C15.0591 119.195 15.4088 119.619 15.7034 120.154L22.4297 132.355C22.7253 132.889 22.9598 133.524 23.12 134.223C23.2801 134.922 23.3627 135.671 23.363 136.428C23.3632 137.185 23.2812 137.934 23.1216 138.634C22.962 139.333 22.7279 139.968 22.4327 140.503Z" fill="#58AFE1"/>
<path d="M31.4049 148.634L26.9174 152.706L24.6756 160.845L21.3104 142.532L31.4049 148.634Z" fill="#E9EEF2"/>
<path d="M10.0945 122.19L0 116.076L4.48656 112.013L6.72632 103.874L10.0945 122.19Z" fill="#E9EEF2"/>
<path d="M77.4324 102.535L81.9188 94.3965C83.7772 91.0255 83.7772 85.5598 81.9188 82.1887C80.0605 78.8176 77.0475 78.8176 75.1891 82.1887L70.7027 90.3273C68.8443 93.6984 68.8443 99.164 70.7027 102.535C72.561 105.906 75.574 105.906 77.4324 102.535Z" fill="#FF2308"/>
<path d="M60.5951 108.644L70.6896 102.539L67.3214 120.851L65.0816 112.712L60.5951 108.644Z" fill="#E9EEF2"/>
<path d="M85.2707 63.882L81.9055 82.1936L92 76.0837L87.5135 72.0207L85.2707 63.882Z" fill="#E9EEF2"/>
</g>
<defs>
<clipPath id="clip0">
<rect width="92" height="463" fill="white"/>
</clipPath>
</defs>
</svg>
