<svg width="68" height="64" viewBox="0 0 68 64" fill="none" xmlns="http://www.w3.org/2000/svg">
<path d="M38.4739 21.5868C38.1985 18.536 37.9757 15.4051 38.8024 12.4335C39.2061 10.9845 39.9548 9.49442 41.3087 8.82594C41.867 8.55582 42.4902 8.44689 43.1078 8.51147C43.7254 8.57605 44.3127 8.81156 44.8033 9.19137C45.278 9.58962 45.631 10.1126 45.8222 10.7008C46.0134 11.289 46.0351 11.9188 45.8847 12.5183C46.8532 11.5867 48.1451 11.0635 49.4917 11.0577C50.8383 11.0519 52.1359 11.5638 53.1144 12.487C53.9976 13.5036 54.4566 14.8185 54.3969 16.1612C54.3372 17.5039 53.7634 18.7721 52.7935 19.7048C53.6321 19.7765 54.4373 20.067 55.1279 20.5472C55.8186 21.0273 56.3704 21.6803 56.7278 22.4402C57.0565 23.2235 57.126 24.0908 56.9262 24.9157C56.7264 25.7406 56.2677 26.4802 55.6168 27.0268C54.1491 28.1594 52.1084 27.974 50.2928 27.7363L46.5731 27.2479C46.2595 27.2236 45.9515 27.1513 45.6599 27.0335C45.1289 26.7839 39.4291 25.8347 39.4291 25.8347L38.4712 21.5888" fill="#E295FF"/>
<path d="M45.1516 17.3412C44.7205 19.7897 43.3611 21.9929 46.1489 22.7301C46.8719 22.7101 47.5834 22.5452 48.2409 22.2453C48.8984 21.9453 49.4884 21.5165 49.9758 20.9842C48.8111 23.3862 49.3953 25.7721 50.7885 27.7985C52.4721 27.9983 54.2793 28.0575 55.6138 27.0282C56.2646 26.4815 56.7233 25.742 56.9231 24.9171C57.1229 24.0922 57.0534 23.2251 56.7246 22.4417C56.3679 21.6818 55.8168 21.0288 55.1268 20.5482C54.4367 20.0677 53.6321 19.7765 52.7938 19.7041C53.7637 18.7714 54.3375 17.5033 54.3972 16.1606C54.4569 14.818 53.998 13.5031 53.1148 12.4866C52.1365 11.5647 50.8397 11.0537 49.4942 11.0597C48.1486 11.0657 46.8576 11.5884 45.8896 12.519C46.04 11.9196 46.0183 11.2899 45.8272 10.7017C45.636 10.1135 45.283 9.59052 44.8083 9.19229C44.3174 8.81151 43.7294 8.57533 43.111 8.51054C42.4926 8.44575 41.8686 8.55494 41.3096 8.82573C39.9558 9.49418 39.2072 10.9842 38.8039 12.4337C38.2858 14.5129 38.106 16.6619 38.2715 18.7987C40.5351 20.1763 43.5362 20.1534 45.1516 17.3412Z" fill="#E295FF"/>
<path d="M53.1161 12.4854C52.1379 11.5636 50.8414 11.0527 49.4961 11.0587C48.1507 11.0647 46.86 11.5873 45.8921 12.5178C46.0424 11.9184 46.0208 11.2888 45.8297 10.7007C45.6385 10.1126 45.2856 9.5897 44.811 9.19153C44.4049 8.87712 43.9312 8.66103 43.4272 8.56032C42.9232 8.45961 42.4027 8.47704 41.9068 8.61122C44.5001 9.41079 43.89 13.1477 44.912 15.3486C46.6845 14.1655 48.2157 12.6272 49.8761 12.036C51.7779 11.8 52.9867 13.5771 53.0029 15.116C53.1316 16.0635 52.6644 16.8925 52.7931 17.84C52.6975 18.2952 52.5003 18.7229 52.2161 19.0915C51.9319 19.4601 51.568 19.76 51.1515 19.9691C55.7342 21.38 55.7409 24.4839 54.3192 27.6739C54.788 27.5402 55.2279 27.3211 55.6166 27.0277C56.2674 26.4812 56.726 25.7417 56.9258 24.917C57.1255 24.0922 57.056 23.2251 56.7273 22.4419C56.3708 21.6814 55.8197 21.0276 55.1294 20.5466C54.4391 20.0656 53.634 19.7743 52.7952 19.7019C53.7649 18.7694 54.3386 17.5014 54.3983 16.1589C54.458 14.8165 53.9991 13.5018 53.1161 12.4854Z" fill="#EFC6FF"/>
<path d="M45.6623 27.0339C45.9539 27.1517 46.2619 27.224 46.5755 27.2482L50.2952 27.7366C50.4593 27.7587 50.6256 27.7792 50.7908 27.7971C47.5664 26.4165 47.1234 24.9273 49.9732 20.9862C48.8492 22.2649 47.3384 23.3188 46.1279 23.3919C43.6027 23.1808 43.7612 21.443 45.1476 17.3414C41.8865 22.7923 40.7211 22.6206 38.2684 18.8006C38.3144 19.7327 38.3886 20.6645 38.4724 21.5886L39.4303 25.8344C39.4303 25.8344 45.13 26.7836 45.6623 27.0339Z" fill="#D368FF"/>
<path d="M29.427 45.2703C29.8204 48.1786 30.1668 51.1595 29.4932 53.9456C29.1642 55.3044 28.5039 56.6885 27.2248 57.2658C26.6681 57.4954 26.0593 57.5708 25.4628 57.4841C24.8662 57.3975 24.304 57.152 23.8355 56.7736C23.3669 56.3952 23.0094 55.8978 22.8005 55.334C22.5917 54.7702 22.5394 54.1609 22.649 53.5702C20.8936 55.3263 17.5293 55.197 15.673 53.2978C13.8168 51.3986 13.8183 48.1038 15.6804 46.4583C14.8533 46.3467 14.0653 46.0373 13.3838 45.5565C12.7023 45.0757 12.1475 44.4377 11.7668 43.6971C11.4086 42.9836 11.3008 42.1712 11.4607 41.3899C11.6206 40.6086 12.0389 39.9037 12.6487 39.388C14.0182 38.3744 15.9955 38.6333 17.7588 38.9365L21.3685 39.5566C21.6752 39.5944 21.9749 39.6763 22.2581 39.7998C22.7824 40.0575 28.3216 41.1959 28.3216 41.1959L29.427 45.2703Z" fill="#E295FF"/>
<path d="M23.1569 49.0203C23.471 46.7145 24.693 44.6804 21.9687 43.863C21.2929 43.8438 20.6208 43.9674 19.9966 44.2256C19.3724 44.4838 18.8103 44.8708 18.3471 45.3611C19.3704 43.1296 18.7067 40.8399 17.2768 38.8577C15.643 38.5983 13.8956 38.4665 12.6493 39.3884C12.0394 39.9041 11.6209 40.609 11.4609 41.3903C11.3009 42.1716 11.4087 42.9842 11.7669 43.6978C12.1476 44.4383 12.7024 45.0762 13.3838 45.557C14.0653 46.0378 14.8532 46.3472 15.6802 46.4588C13.8177 48.1046 13.814 51.4009 15.6729 53.298C17.5318 55.1952 20.8938 55.326 22.6485 53.5704C22.5389 54.161 22.5913 54.7704 22.8001 55.3342C23.0089 55.8979 23.3664 56.3952 23.8349 56.7737C24.3035 57.1521 24.8656 57.3975 25.4622 57.4842C26.0587 57.5708 26.6674 57.4954 27.2242 57.2659C28.5027 56.688 29.163 55.3039 29.4924 53.9457C29.9062 51.966 29.9894 49.9314 29.7386 47.9239C27.4946 46.5213 24.5977 46.4193 23.1569 49.0203Z" fill="#E295FF"/>
<path d="M15.671 53.2989C17.5296 55.1957 20.891 55.3266 22.6455 53.5712C22.5355 54.1616 22.5876 54.7707 22.7963 55.3344C23.005 55.898 23.3625 56.3951 23.831 56.7732C24.2235 57.0853 24.6803 57.3072 25.1686 57.4233C25.6569 57.5393 26.1647 57.5465 26.6559 57.4444C24.119 56.578 24.5506 53.0551 23.4751 50.9224C21.8133 51.9716 20.3995 53.3688 18.8215 53.8609C16.996 54.0089 15.7541 52.2684 15.6737 50.8062C15.5096 49.9011 15.9261 49.134 15.7607 48.2273C15.8303 47.804 16.0033 47.4043 16.2644 47.0635C16.5256 46.7227 16.8669 46.4512 17.2583 46.2731C12.7749 44.7425 12.6387 41.7953 13.8775 38.8259C13.4341 38.9321 13.0162 39.1245 12.6477 39.392C12.0381 39.9076 11.6198 40.6124 11.46 41.3935C11.3001 42.1747 11.4079 42.987 11.766 43.7004C12.1469 44.4408 12.7019 45.0786 13.3836 45.5591C14.0652 46.0396 14.8533 46.3487 15.6804 46.4598C13.8161 48.1061 13.8128 51.4025 15.671 53.2989Z" fill="#EFC6FF"/>
<path d="M22.2601 39.7988C21.9774 39.6754 21.6783 39.5934 21.3721 39.5554L17.762 38.9348C17.6026 38.9076 17.4416 38.8817 17.2824 38.8536C20.5949 40.385 20.3707 42.224 18.3527 45.3571C18.8159 44.8668 19.3781 44.4798 20.0023 44.2216C20.6265 43.9634 21.2986 43.8398 21.9744 43.8589C24.6989 44.6764 23.478 46.7122 23.1627 49.0165C24.6027 46.4143 27.5011 46.517 29.7447 47.9201C29.6609 47.0329 29.55 46.1454 29.4306 45.2647L28.3248 41.1966C28.3248 41.1966 22.7845 40.0565 22.2601 39.7988Z" fill="#D368FF"/>
<path d="M26.1743 45.9852C33.0433 49.3582 41.3504 46.548 44.7289 39.7085C48.1073 32.869 45.2777 24.5902 38.4088 21.2172C31.5399 17.8443 23.2327 20.6545 19.8543 27.494C16.4758 34.3335 19.3054 42.6123 26.1743 45.9852Z" fill="#D97BFF"/>
<path d="M22.067 41.0615C26.2104 46.6943 34.147 47.9174 39.7938 43.7934C45.4406 39.6693 46.6593 31.7599 42.5159 26.1271C38.3725 20.4943 30.4359 19.2712 24.7891 23.3952C19.1423 27.5192 17.9236 35.4287 22.067 41.0615Z" fill="#E7AAFF"/>
<g style="mix-blend-mode:multiply" opacity="0.64">
<g style="mix-blend-mode:multiply" opacity="0.64">
<g style="mix-blend-mode:multiply" opacity="0.64">
<g style="mix-blend-mode:multiply" opacity="0.64">
<path d="M19.7493 28.5443C22.6216 32.3668 26.9097 35.6262 31.6764 36.5895C36.391 37.4694 41.2624 36.5016 45.2749 33.8879C46.175 33.3132 45.216 31.9627 44.3219 32.5331C40.6648 34.9043 36.2279 35.7732 31.9394 34.958C27.6174 34.0845 23.7066 31.0551 21.104 27.5968C20.4636 26.7453 19.1045 27.6927 19.7457 28.5452L19.7493 28.5443Z" fill="#C080FF"/>
</g>
</g>
<g style="mix-blend-mode:multiply" opacity="0.64">
<g style="mix-blend-mode:multiply" opacity="0.64">
<path d="M20.5872 24.3466C23.4596 28.1691 27.7472 31.4279 32.5143 32.3918C37.2289 33.2717 42.1004 32.3039 46.1128 29.6902C47.0135 29.1151 46.0539 27.765 45.1598 28.3353C41.5025 30.7062 37.0658 31.5751 32.7773 30.7603C28.4553 29.8867 24.5441 26.8569 21.9419 23.399C21.301 22.548 19.9424 23.4949 20.5837 24.3475L20.5872 24.3466Z" fill="#C080FF"/>
</g>
</g>
<g style="mix-blend-mode:multiply" opacity="0.64">
<g style="mix-blend-mode:multiply" opacity="0.64">
<path d="M20.9297 20.7988C23.802 24.6213 28.0902 27.8797 32.8568 28.844C37.5714 29.7238 42.4428 28.756 46.4553 26.1424C47.356 25.5673 46.3964 24.2172 45.5023 24.7876C41.845 27.1584 37.4083 28.0273 33.1198 27.2125C28.7974 26.3384 24.8893 23.3071 22.284 19.8507C21.6503 18.9969 20.2885 19.9463 20.9297 20.7988Z" fill="#C080FF"/>
</g>
</g>
<g style="mix-blend-mode:multiply" opacity="0.64">
<g style="mix-blend-mode:multiply" opacity="0.64">
<path d="M22.0752 16.8815C24.9475 20.704 29.2356 23.9634 34.0023 24.9267C38.7169 25.8065 43.5883 24.8387 47.6008 22.2251C48.5015 21.65 47.5419 20.2999 46.6478 20.8702C42.9906 23.2415 38.5538 24.1104 34.2653 23.2952C29.9433 22.4216 26.0325 19.3923 23.4299 15.9339C22.7889 15.0829 21.4304 16.0298 22.0716 16.8824L22.0752 16.8815Z" fill="#C080FF"/>
</g>
</g>
<g style="mix-blend-mode:multiply" opacity="0.64">
<g style="mix-blend-mode:multiply" opacity="0.64">
<path d="M18.6376 32.0885C21.5628 35.9834 25.8961 39.2888 30.7295 40.3515C35.6656 41.3399 40.7915 40.3534 45 37.6053C45.932 37.0142 44.9417 35.6151 44.0156 36.2061C40.1761 38.7067 35.4987 39.5915 31.0037 38.6674C26.6299 37.6837 22.6896 34.6347 20.0397 31.1091C19.3789 30.2297 17.975 31.2078 18.637 32.0889L18.6376 32.0885Z" fill="#C080FF"/>
</g>
</g>
<g style="mix-blend-mode:multiply" opacity="0.64">
<g style="mix-blend-mode:multiply" opacity="0.64">
<path d="M17.7612 36.0686C20.6864 39.9636 25.0192 43.2694 29.8531 44.3317C34.7892 45.3201 39.9152 44.3337 44.1237 41.5854C45.0556 40.9944 44.0653 39.5952 43.1398 40.1858C39.3003 42.6865 34.6229 43.5713 30.1279 42.6472C25.7541 41.6635 21.8132 38.6148 19.1633 35.0893C18.5025 34.2098 17.0986 35.1879 17.7607 36.069L17.7612 36.0686Z" fill="#C080FF"/>
</g>
</g>
</g>
</g>
<g style="mix-blend-mode:hard-light" opacity="0.94">
<g style="mix-blend-mode:hard-light" opacity="0.94">
<path d="M24.6662 26.0171C25.7588 25.4912 26.8921 25.0537 28.0551 24.7088C29.2511 24.4332 30.4887 24.6528 31.665 24.3814C32.2772 24.2418 32.2201 23.3586 31.7329 23.1149C30.5347 22.517 28.887 22.8537 27.6499 23.1766C26.287 23.4722 25.0444 24.1676 24.0819 25.1734C24.0097 25.2628 23.9684 25.3731 23.9642 25.4878C23.96 25.6026 23.993 25.7156 24.0584 25.8102C24.1239 25.9048 24.2181 25.9759 24.3272 26.0128C24.4364 26.0498 24.5545 26.0506 24.6641 26.0153L24.6662 26.0171Z" fill="#F4D8FF"/>
</g>
</g>
<g style="mix-blend-mode:hard-light" opacity="0.94">
<g style="mix-blend-mode:hard-light" opacity="0.94">
<path d="M33.4213 24.1376C33.6389 24.283 33.891 24.3686 34.1523 24.3858C34.4005 24.4273 34.6534 24.4331 34.9032 24.4031C35.0511 24.3922 35.19 24.3282 35.2941 24.2229C35.3981 24.1176 35.4602 23.9782 35.4689 23.8306C35.4775 23.683 35.4321 23.5372 35.3411 23.4203C35.25 23.3035 35.1196 23.2235 34.9739 23.1952C34.7285 23.144 34.477 23.1284 34.2271 23.1489C33.9588 23.1419 33.6933 23.2054 33.4575 23.3331C33.3941 23.378 33.3418 23.4368 33.3046 23.505C33.2674 23.5731 33.2463 23.6488 33.2428 23.7263C33.2393 23.8039 33.2536 23.8812 33.2845 23.9525C33.3154 24.0237 33.3622 24.087 33.4213 24.1376Z" fill="#F4D8FF"/>
</g>
</g>
<g style="mix-blend-mode:hard-light" opacity="0.94">
<g style="mix-blend-mode:hard-light" opacity="0.94">
<path d="M36.8356 24.5806C36.9668 24.5827 37.0957 24.6151 37.2123 24.6751C37.2687 24.721 37.3217 24.7709 37.3708 24.8245C37.4435 24.8797 37.5217 24.9274 37.6041 24.9667C37.6919 25.0083 37.7919 25.0166 37.8853 24.9898C37.9787 24.9631 38.059 24.9033 38.1112 24.8217C38.1627 24.7401 38.1834 24.643 38.1697 24.5475C38.156 24.4521 38.1087 24.3646 38.0363 24.3006C37.9529 24.2224 37.8548 24.1613 37.7477 24.1209C37.6406 24.0805 37.5265 24.0614 37.4121 24.0649C37.23 24.0422 37.0456 24.0465 36.8649 24.0779C36.804 24.0836 36.747 24.1107 36.7042 24.1543C36.6613 24.1979 36.6354 24.2552 36.6309 24.3161C36.6267 24.3774 36.6452 24.4381 36.6828 24.4867C36.7205 24.5353 36.7747 24.5685 36.8352 24.58L36.8356 24.5806Z" fill="#F4D8FF"/>
</g>
</g>
<g style="mix-blend-mode:hard-light" opacity="0.91">
<path d="M39.1272 22.9468C36.5709 21.3176 33.5146 20.6547 30.5122 21.0783C27.5098 21.5018 24.7602 22.9838 22.7619 25.2555L22.7738 25.2822C23.0863 25.9511 23.6353 26.4819 24.3157 26.7728C24.996 27.0637 25.7599 27.0944 26.4609 26.8589C31.8568 25.0255 38.4014 26.0108 43.9921 28.7078C42.998 26.3381 41.3003 24.3277 39.1272 22.9468Z" fill="#F4D8FF"/>
</g>
<g style="mix-blend-mode:hard-light" opacity="0.91">
<g style="mix-blend-mode:hard-light" opacity="0.91">
<path d="M21.1508 28.4087L20.8448 29.5764C20.7175 30.0577 20.595 30.518 20.9667 30.9365C21.0778 31.0876 21.2429 31.1903 21.4278 31.2234C21.6126 31.2564 21.8031 31.2173 21.9597 31.114C22.1711 30.9766 22.3327 30.7752 22.4208 30.5393C22.4802 30.2762 22.4921 30.0045 22.4561 29.7371L22.4105 28.4827C22.3849 27.7329 21.3294 27.7417 21.1508 28.4087Z" fill="#F4D8FF"/>
</g>
</g>
</svg>
