
<svg width="175" height="165" viewBox="0 0 175 165" fill="none" xmlns="http://www.w3.org/2000/svg">
<path d="M66.8403 72.7753C67.0479 75.8542 67.5057 78.9105 68.2087 81.9105C69.8918 89.1147 72.9766 95.8804 77.266 101.775C81.1365 107.1 85.9051 111.627 91.3291 115.124C97.3329 118.995 104.024 121.512 110.978 122.515C117.262 123.415 123.641 123.077 129.791 121.519C136.601 119.794 142.985 116.587 148.536 112.102C153.55 108.054 157.802 103.052 161.074 97.3505C167.181 86.682 169.551 74.0686 167.774 61.6895C165.998 49.3105 160.187 37.9434 151.345 29.5523C142.503 21.1613 131.186 16.2732 119.349 15.7328C107.513 15.1924 95.8993 19.0336 86.5163 26.5926C81.5024 30.6407 77.2512 35.6426 73.9789 41.3437C68.5734 50.7674 66.0792 61.7501 66.8394 72.7805L66.8403 72.7753Z" fill="#0090FF"/>
<path d="M112.032 65.1137C113.687 66.6441 115.473 68.0087 117.366 69.1896C114.431 65.2489 112.273 60.7309 111.019 55.9045C109.765 51.0781 109.442 46.042 110.069 41.0957C110.695 36.1495 112.258 31.3942 114.665 27.1128C117.072 22.8314 120.274 19.1115 124.08 16.1743C117.796 15.2733 111.417 15.6105 105.267 17.169C100.795 24.6554 99.0193 33.6039 100.26 42.397C101.501 51.1902 105.676 59.2479 112.032 65.1137Z" fill="#0090FF"/>
<path d="M116.441 62.2736C116.595 64.5851 116.953 66.8779 117.511 69.122C118.058 64.1646 119.545 59.3815 121.883 55.0574C124.221 50.7334 127.363 46.9568 131.121 43.9525C134.88 40.9482 139.178 38.7777 143.759 37.5702C148.341 36.3627 153.113 36.1429 157.791 36.9238C153.92 31.599 149.152 27.0727 143.728 23.5756C135.53 25.4912 128.273 30.4452 123.269 37.5424C118.264 44.6395 115.843 53.4117 116.441 62.2736Z" fill="#0090FF"/>
<path d="M117.67 69.1716C121.38 66.1021 125.643 63.8567 130.205 62.5689C134.767 61.2811 139.534 60.9772 144.223 61.6753C148.912 62.3734 153.427 64.0592 157.499 66.6325C161.572 69.2058 165.119 72.614 167.929 76.6543C168.735 70.0253 168.368 63.287 166.847 56.7812C162.844 54.1007 158.378 52.2928 153.715 51.4649C149.051 50.6371 144.284 50.8061 139.697 51.9619C135.11 53.1178 130.796 55.2369 127.013 58.1935C123.229 61.15 120.052 64.8837 117.671 69.1728L117.67 69.1716Z" fill="#0090FF"/>
<path d="M148.837 103.869C149.024 106.615 148.922 109.373 148.535 112.092C153.549 108.044 157.801 103.042 161.073 97.3405C160.016 92.4709 158.044 87.8681 155.275 83.8053C152.506 79.7426 148.996 76.3027 144.954 73.6899C140.912 71.0771 136.42 69.3446 131.745 68.5954C127.069 67.8462 122.306 68.0955 117.737 69.3285C125.894 70.387 133.465 74.4175 139.143 80.724C144.821 87.0304 148.25 95.2167 148.837 103.869Z" fill="#0090FF"/>
<path d="M110.975 122.511C117.259 123.411 123.638 123.073 129.788 121.515C132.296 117.308 133.975 112.606 134.724 107.687C135.473 102.768 135.278 97.7335 134.149 92.8814C133.02 88.0292 130.982 83.4587 128.154 79.4413C125.326 75.4239 121.767 72.0413 117.688 69.4946C120.622 73.4358 122.779 77.9539 124.032 82.7802C125.286 87.6066 125.609 92.6426 124.982 97.5887C124.356 102.535 122.793 107.29 120.386 111.572C117.98 115.853 114.779 119.573 110.974 122.511L110.975 122.511Z" fill="#0090FF"/>
<path d="M77.2608 101.772C81.1313 107.097 85.9 111.623 91.3239 115.12C95.9276 114.04 100.272 111.992 104.099 109.099C107.927 106.206 111.159 102.526 113.604 98.2779C116.05 94.0296 117.658 89.2996 118.334 84.3686C119.01 79.4375 118.74 74.406 117.54 69.5725C116.994 74.5304 115.508 79.3143 113.17 83.6391C110.833 87.9639 107.691 91.7413 103.933 94.7463C100.174 97.7514 95.8761 99.9226 91.294 101.131C86.7119 102.339 81.9396 102.559 77.2612 101.778L77.2608 101.772Z" fill="#0090FF"/>
<path d="M66.8403 72.7769C67.048 75.8558 67.5058 78.9121 68.2087 81.9121C72.211 84.5931 76.6767 86.4014 81.3407 87.2296C86.0048 88.0578 90.7719 87.8889 95.359 86.733C99.946 85.5771 104.259 83.4578 108.043 80.5009C111.827 77.5441 115.003 73.81 117.384 69.5205C113.674 72.5902 109.411 74.8358 104.849 76.1239C100.288 77.4119 95.5206 77.7159 90.8316 77.0179C86.1425 76.3199 81.6273 74.6341 77.5547 72.0609C73.482 69.4876 69.9351 66.0794 67.1249 62.0391C66.6915 65.5968 66.5962 69.1939 66.8403 72.7769Z" fill="#0090FF"/>
<path d="M73.9798 41.34C75.0364 46.2097 77.0073 50.8129 79.7755 54.8761C82.5438 58.9394 86.0529 62.3799 90.0945 64.9933C94.1362 67.6068 98.628 69.3399 103.303 70.0898C107.978 70.8397 112.742 70.5911 117.31 69.3587C112.611 68.7447 108.07 67.1394 103.957 64.6385C99.844 62.1376 96.2436 58.7922 93.37 54.8014C90.4963 50.8107 88.4082 46.2562 87.2298 41.409C86.0515 36.5618 85.807 31.521 86.511 26.5867C81.4991 30.6361 77.2501 35.6386 73.9798 41.34Z" fill="#0090FF"/>
<path d="M108.13 69.9791C108.263 71.9423 108.944 73.8241 110.087 75.3865C111.231 76.9488 112.784 78.1216 114.552 78.7565C116.32 79.3915 118.222 79.46 120.019 78.9535C121.816 78.447 123.426 77.3881 124.646 75.9109C125.866 74.4337 126.641 72.6044 126.873 70.6543C127.105 68.7042 126.784 66.7209 125.95 64.9552C125.116 63.1895 123.807 61.7206 122.188 60.7344C120.569 59.7481 118.713 59.2887 116.855 59.4143C114.363 59.5831 112.043 60.791 110.407 62.7723C108.771 64.7536 107.952 67.3459 108.13 69.9791Z" fill="#0090FF"/>
<path d="M112.406 69.6896C112.478 70.7605 112.85 71.7869 113.473 72.6392C114.097 73.4915 114.944 74.1312 115.908 74.4776C116.873 74.824 117.91 74.8615 118.891 74.5852C119.871 74.309 120.749 73.7314 121.414 72.9257C122.08 72.1199 122.503 71.1221 122.629 70.0583C122.756 68.9946 122.581 67.9129 122.126 66.9498C121.671 65.9867 120.957 65.1855 120.073 64.6476C119.19 64.1097 118.178 63.8593 117.164 63.928C115.805 64.02 114.54 64.6787 113.648 65.7593C112.755 66.8398 112.309 68.2536 112.406 69.6896Z" fill="#0090FF"/>
<g style="mix-blend-mode:multiply" opacity="0.5">
<path d="M132.25 18.0946C139.372 20.4056 145.938 24.3341 151.487 29.6032C157.035 34.8724 161.43 41.3539 164.363 48.591C167.295 55.8281 168.694 63.6445 168.459 71.4893C168.224 79.3341 166.363 87.0164 163.005 93.9946C159.648 100.973 154.876 107.077 149.027 111.877C143.177 116.677 136.392 120.057 129.15 121.776C121.908 123.496 114.385 123.515 107.112 121.832C99.8383 120.148 92.9912 116.803 87.0531 112.032C157.313 124.705 178.399 58.4301 132.25 18.0946Z" fill="#0090FF"/>
</g>
<g style="mix-blend-mode:multiply" opacity="0.9">
<path d="M106.565 120.695C112.849 121.595 119.228 121.257 125.378 119.7C132.189 117.976 138.574 114.768 144.125 110.282C149.139 106.234 153.391 101.232 156.662 95.5307C161.933 86.3228 164.439 75.6297 163.853 64.8485C163.267 54.0672 159.616 43.6992 153.378 35.099C148.151 27.8905 141.291 22.1824 133.438 18.5062C139.966 20.8287 145.99 24.5219 151.145 29.3624C156.301 34.2029 160.48 40.0902 163.432 46.668C166.383 53.2459 168.044 60.3776 168.315 67.6318C168.585 74.886 167.46 82.1119 165.007 88.8725C162.554 95.6331 158.824 101.788 154.042 106.964C149.261 112.141 143.528 116.231 137.189 118.989C130.851 121.747 124.039 123.114 117.165 123.007C110.292 122.901 103.5 121.324 97.2008 118.371C100.247 119.458 103.383 120.236 106.565 120.695Z" fill="#0090FF"/>
</g>
<g style="mix-blend-mode:multiply" opacity="0.5">
<path d="M91.8998 71.0834C92.2625 76.4384 94.12 81.5713 97.2376 85.833C100.355 90.0948 104.593 93.294 109.414 95.0261C114.236 96.7582 119.425 96.9454 124.326 95.5641C129.227 94.1827 133.618 91.2948 136.946 87.2655C140.274 83.2363 142.388 78.2467 143.021 72.9277C143.654 67.6087 142.778 62.1991 140.503 57.3832C138.228 52.5672 134.657 48.5611 130.241 45.8715C125.825 43.1819 120.763 41.9295 115.694 42.2728C108.897 42.7331 102.572 46.0271 98.1095 51.4301C93.6472 56.8332 91.4135 63.9027 91.8998 71.0834Z" fill="#0090FF"/>
</g>
<g style="mix-blend-mode:multiply" opacity="0.8">
<path d="M100.925 70.4683C101.16 73.9374 102.363 77.2627 104.383 80.0237C106.402 82.7847 109.147 84.8574 112.271 85.9797C115.394 87.102 118.756 87.2235 121.931 86.3287C125.106 85.434 127.951 83.5633 130.107 80.9531C132.263 78.3429 133.632 75.1105 134.042 71.6647C134.453 68.2189 133.885 64.7145 132.412 61.5945C130.938 58.4746 128.625 55.8793 125.764 54.1369C122.903 52.3944 119.623 51.5831 116.34 51.8055C111.937 52.104 107.839 54.2378 104.949 57.7376C102.058 61.2375 100.611 65.8167 100.925 70.4683Z" fill="#0090FF"/>
</g>
<g style="mix-blend-mode:screen" opacity="0.2">
<path d="M85.3398 98.5025C92.8465 98.4811 87.0681 65.0163 101.568 50.4219C116.068 35.8275 143.489 41.126 142.854 34.2852C141.876 23.7483 125.318 19.324 110.844 19.6928C90.3775 20.2138 69.1699 40.0366 70.1444 62.2714C70.8325 77.9852 74.3897 98.5353 85.3398 98.5025Z" fill="#0090FF"/>
</g>
<g style="mix-blend-mode:screen" opacity="0.22">
<path d="M110.376 20.0681C122.017 19.1515 135.09 24.2285 134.698 28.6228C134.469 31.1888 112.266 24.1773 94.8775 43.9003C76.9396 64.2464 87.7049 89.6797 84.9473 90.2343C81.7722 90.8748 70.101 75.0473 70.8109 59.7335C71.8028 38.2845 91.9513 21.5248 110.376 20.0681Z" fill="#0090FF"/>
</g>
<g style="mix-blend-mode:screen" opacity="0.37">
<path d="M125.735 24.8851C125.789 23.4985 116.333 20.0555 106.286 21.5293C91.9915 23.6252 77.6743 35.5081 73.6831 51.3261C70.4637 64.0851 74.6693 76.6361 76.1222 76.5941C77.5159 76.5548 75.2696 65.0067 81.1339 52.2877C88.5448 36.2163 103.633 29.7193 105.331 29.0185C116.355 24.4617 125.682 26.2549 125.735 24.8851Z" fill="#0090FF"/>
</g>
<g style="mix-blend-mode:screen">
<path d="M103.818 23.2409C106.528 22.7139 112 23.2533 110.055 24.236C103.531 26.8052 97.3624 30.2726 91.7074 34.5489C88.3896 37.0408 85.5368 34.5413 87.0151 32.5994C88.4935 30.6575 96.0064 24.762 103.818 23.2409Z" fill="#0090FF"/>
</g>
<g style="mix-blend-mode:screen">
<path d="M83.119 36.5095C84.0274 35.5931 88.0747 36.5814 87.4584 37.2076C82.2534 42.2265 78.3059 48.5284 75.9631 55.5588C73.2596 63.2524 74.0783 45.6242 83.119 36.5095Z" fill="#0090FF"/>
</g>
<path d="M4.04541 70.823C4.07928 71.3231 4.1192 71.8229 4.16592 72.3157C5.44247 86.1566 11.2366 99.133 20.5547 109.019C29.8728 118.906 42.1342 125.086 55.2361 126.501C68.338 127.915 81.464 124.476 92.3631 116.772C103.262 109.068 111.255 97.5805 114.971 84.2786C116.664 78.2151 117.42 71.8966 117.212 65.5647C117.215 65.5314 117.215 65.498 117.212 65.4647C117.198 64.6966 117.159 63.9304 117.107 63.1649C116.583 55.3192 114.6 47.6481 111.271 40.5908C107.942 33.5335 103.332 27.2285 97.7052 22.0367C92.0786 16.8449 85.5458 12.8683 78.4807 10.3345C71.4155 7.80073 63.9568 6.75954 56.5315 7.2705C45.7141 8.00953 35.3469 12.0085 26.6578 18.7938C17.9688 25.5791 11.3219 34.8663 7.50468 45.5555C6.91192 47.2105 6.38601 48.9033 5.93826 50.6216C4.98905 54.226 4.3675 57.9202 4.08201 61.6542C3.84743 64.7032 3.83519 67.7685 4.04541 70.823Z" fill="#0090FF"/>
<path d="M79.7728 27.1519C79.8443 28.2076 80.2105 29.2196 80.8251 30.0598C81.4396 30.9 82.275 31.5307 83.2256 31.8722C84.1761 32.2138 85.1991 32.2507 86.1653 31.9785C87.1314 31.7063 87.9973 31.137 88.6534 30.3428C89.3095 29.5485 89.7265 28.5649 89.8514 27.5163C89.9764 26.4677 89.8038 25.4013 89.3555 24.4517C88.9072 23.5022 88.2033 22.7123 87.3329 22.1819C86.4624 21.6514 85.4644 21.4043 84.4651 21.4717C83.8015 21.5165 83.1537 21.6989 82.5587 22.0086C81.9637 22.3183 81.4332 22.7493 80.9974 23.2767C80.5617 23.8042 80.2293 24.4179 80.0191 25.0828C79.809 25.7478 79.7253 26.4508 79.7728 27.1519Z" fill="#0090FF"/>
<path d="M72.8644 37.6743C72.8999 38.2023 73.0828 38.7084 73.39 39.1287C73.6972 39.5489 74.1148 39.8645 74.5901 40.0355C75.0654 40.2064 75.577 40.2251 76.0602 40.089C76.5434 39.953 76.9764 39.6684 77.3046 39.2713C77.6327 38.8741 77.8412 38.3822 77.9038 37.8579C77.9663 37.3335 77.88 36.8002 77.6558 36.3254C77.4316 35.8505 77.0795 35.4555 76.6442 35.1904C76.2088 34.9252 75.7097 34.8017 75.21 34.8355C74.5402 34.8809 73.9168 35.2054 73.477 35.7377C73.0371 36.2701 72.8167 36.9667 72.8644 37.6743Z" fill="#0090FF"/>
<path d="M103.401 64.7292C102.571 65.3157 101.927 66.1501 101.549 67.1269C101.171 68.1036 101.077 69.1789 101.278 70.2167C101.48 71.2546 101.967 72.2084 102.68 72.9575C103.393 73.7066 104.298 74.2174 105.282 74.4254C106.265 74.6333 107.283 74.529 108.206 74.1257C109.13 73.7223 109.917 73.0381 110.469 72.1594C111.02 71.2808 111.312 70.2471 111.306 69.1893C111.3 68.1314 110.997 67.0968 110.436 66.2163C109.683 65.0356 108.519 64.2156 107.199 63.9368C105.88 63.6579 104.514 63.9429 103.401 64.7292Z" fill="#0090FF"/>
<path d="M91.2794 63.6154C90.8646 63.9087 90.5424 64.3259 90.3535 64.8143C90.1646 65.3027 90.1175 65.8403 90.2181 66.3592C90.3188 66.8781 90.5627 67.355 90.919 67.7296C91.2753 68.1041 91.728 68.3596 92.2198 68.4635C92.7117 68.5675 93.2206 68.5153 93.6822 68.3137C94.1439 68.112 94.5375 67.7699 94.8134 67.3306C95.0892 66.8912 95.2349 66.3744 95.232 65.8455C95.2291 65.3166 95.0777 64.7992 94.797 64.359C94.4203 63.7687 93.8382 63.3589 93.1786 63.2195C92.519 63.0801 91.8359 63.2225 91.2794 63.6154Z" fill="#0090FF"/>
<path d="M84.5472 104.888C83.646 104.419 82.6353 104.241 81.6428 104.378C80.6504 104.515 79.7208 104.96 78.9717 105.656C78.2225 106.352 77.6874 107.269 77.434 108.291C77.1805 109.312 77.2202 110.392 77.548 111.395C77.8757 112.397 78.4768 113.276 79.2753 113.921C80.0737 114.566 81.0337 114.948 82.0338 115.019C83.0338 115.09 84.0291 114.846 84.8937 114.318C85.7583 113.791 86.4534 113.003 86.8912 112.055C87.1821 111.425 87.3521 110.741 87.3918 110.04C87.4314 109.339 87.3397 108.635 87.1221 107.97C86.9044 107.304 86.565 106.689 86.1232 106.16C85.6814 105.632 85.1458 105.199 84.5472 104.888Z" fill="#0090FF"/>
<path d="M79.3221 93.2498C78.8715 93.0152 78.366 92.9264 77.8697 92.9946C77.3734 93.0629 76.9086 93.2853 76.5339 93.6335C76.1593 93.9818 75.8916 94.4403 75.7649 94.9511C75.6382 95.4619 75.658 96.002 75.822 96.5031C75.9859 97.0043 76.2866 97.4439 76.6859 97.7665C77.0852 98.089 77.5653 98.28 78.0654 98.3152C78.5655 98.3504 79.0632 98.2283 79.4955 97.9643C79.9278 97.7003 80.2752 97.3063 80.494 96.8321C80.7871 96.1965 80.8284 95.462 80.6086 94.7903C80.3889 94.1185 79.9261 93.5644 79.3221 93.2498Z" fill="#0090FF"/>
<path d="M42.0636 107.467C41.9921 106.411 41.6258 105.399 41.011 104.559C40.3962 103.718 39.5606 103.088 38.6097 102.746C37.6589 102.404 36.6356 102.367 35.6691 102.64C34.7027 102.912 33.8367 103.482 33.1804 104.276C32.5242 105.071 32.1073 106.055 31.9825 107.104C31.8576 108.153 32.0304 109.219 32.479 110.169C32.9275 111.119 33.6318 111.909 34.5026 112.439C35.3735 112.97 36.3718 113.217 37.3713 113.149C38.0351 113.104 38.683 112.922 39.2781 112.612C39.8731 112.302 40.4037 111.871 40.8394 111.343C41.2752 110.816 41.6076 110.202 41.8176 109.537C42.0277 108.872 42.1113 108.169 42.0636 107.467Z" fill="#0090FF"/>
<path d="M48.9648 96.9456C48.9293 96.4176 48.7464 95.9115 48.4392 95.4912C48.132 95.0709 47.7144 94.7554 47.2391 94.5844C46.7638 94.4135 46.2522 94.3948 45.769 94.5309C45.2858 94.6669 44.8528 94.9515 44.5246 95.3486C44.1964 95.7458 43.9879 96.2377 43.9254 96.762C43.8629 97.2864 43.9492 97.8197 44.1734 98.2945C44.3976 98.7694 44.7497 99.1644 45.185 99.4295C45.6204 99.6947 46.1194 99.8182 46.6191 99.7844C47.289 99.739 47.9123 99.4145 48.3522 98.8821C48.7921 98.3498 49.0124 97.6532 48.9648 96.9456Z" fill="#0090FF"/>
<path d="M18.433 69.8877C19.2625 69.3011 19.9069 68.4666 20.2846 67.4898C20.6623 66.513 20.7564 65.4377 20.555 64.3998C20.3535 63.362 19.8656 62.4083 19.1529 61.6593C18.4402 60.9102 17.5347 60.3996 16.5509 60.1918C15.5672 59.984 14.5493 60.0885 13.6261 60.492C12.7028 60.8955 11.9156 61.5799 11.3641 62.4587C10.8125 63.3375 10.5214 64.3712 10.5274 65.4291C10.5334 66.487 10.8364 67.5215 11.398 68.402C11.7709 68.9866 12.2487 69.4888 12.8041 69.8799C13.3595 70.271 13.9815 70.5433 14.6348 70.6812C15.2881 70.8192 15.9597 70.8202 16.6114 70.684C17.2631 70.5479 17.8821 70.2773 18.433 69.8877Z" fill="#0090FF"/>
<path d="M63.7438 71.8713C64.5734 71.2848 65.2179 70.4504 65.5957 69.4737C65.9735 68.4969 66.0677 67.4216 65.8664 66.3838C65.6651 65.346 65.1773 64.3922 64.4647 63.6431C63.7521 62.894 62.8467 62.3831 61.863 62.1752C60.8793 61.9673 59.8614 62.0715 58.9382 62.4749C58.0149 62.8782 57.2276 63.5625 56.6759 64.4412C56.1242 65.3198 55.8328 66.3534 55.8387 67.4113C55.8445 68.4691 56.1473 69.5037 56.7087 70.3843C57.0814 70.9691 57.5591 71.4716 58.1144 71.8629C58.6698 72.2542 59.2919 72.5267 59.9452 72.6648C60.5985 72.8029 61.2703 72.8039 61.9221 72.6678C62.5738 72.5316 63.1929 72.261 63.7438 71.8713Z" fill="#0090FF"/>
<path d="M63.7438 71.8713C64.5734 71.2848 65.2179 70.4504 65.5957 69.4737C65.9735 68.4969 66.0677 67.4216 65.8664 66.3838C65.6651 65.346 65.1773 64.3922 64.4647 63.6431C63.7521 62.894 62.8467 62.3831 61.863 62.1752C60.8793 61.9673 59.8614 62.0715 58.9382 62.4749C58.0149 62.8782 57.2276 63.5625 56.6759 64.4412C56.1242 65.3198 55.8328 66.3534 55.8387 67.4113C55.8445 68.4691 56.1473 69.5037 56.7087 70.3843C57.0814 70.9691 57.5591 71.4716 58.1144 71.8629C58.6698 72.2542 59.2919 72.5267 59.9452 72.6648C60.5985 72.8029 61.2703 72.8039 61.9221 72.6678C62.5738 72.5316 63.1929 72.261 63.7438 71.8713Z" fill="#0090FF"/>
<path d="M30.5588 71.0056C30.9738 70.7125 31.2962 70.2954 31.4853 69.807C31.6744 69.3186 31.7217 68.7809 31.6211 68.2619C31.5206 67.7428 31.2768 67.2658 30.9205 66.8912C30.5642 66.5165 30.1115 66.261 29.6195 66.157C29.1276 66.0529 28.6186 66.105 28.1569 66.3067C27.6952 66.5084 27.3015 66.8506 27.0256 67.2901C26.7498 67.7295 26.6041 68.2464 26.6071 68.7754C26.6101 69.3044 26.7616 69.8217 27.0425 70.262C27.4191 70.8518 28.001 71.2615 28.6603 71.4009C29.3196 71.5403 30.0024 71.3981 30.5588 71.0056Z" fill="#0090FF"/>
<path d="M37.2876 29.7296C38.1888 30.1987 39.1995 30.3761 40.192 30.2394C41.1844 30.1026 42.114 29.6579 42.8632 28.9615C43.6123 28.265 44.1474 27.3481 44.4009 26.3266C44.6543 25.3052 44.6146 24.2251 44.2869 23.2229C43.9591 22.2207 43.358 21.3415 42.5595 20.6963C41.7611 20.0511 40.8011 19.6691 39.8011 19.5984C38.801 19.5277 37.8058 19.7716 36.9412 20.2991C36.0766 20.8267 35.3814 21.6144 34.9437 22.5624C34.6529 23.1921 34.483 23.8769 34.4434 24.5779C34.4039 25.2789 34.4956 25.9822 34.7132 26.6478C34.9309 27.3133 35.2703 27.928 35.712 28.4568C36.1537 28.9856 36.6891 29.4181 37.2876 29.7296Z" fill="#0090FF"/>
<path d="M42.5101 41.3705C42.9607 41.6053 43.466 41.6942 43.9623 41.626C44.4585 41.5578 44.9234 41.3357 45.2982 40.9876C45.6729 40.6395 45.9406 40.1811 46.0675 39.6704C46.1944 39.1597 46.1747 38.6196 46.011 38.1185C45.8473 37.6173 45.5468 37.1776 45.1477 36.8548C44.7485 36.5321 44.2686 36.3409 43.7685 36.3054C43.2685 36.2699 42.7708 36.3917 42.3384 36.6554C41.9061 36.9191 41.5584 37.3129 41.3394 37.7869C41.194 38.1016 41.1089 38.444 41.089 38.7944C41.0692 39.1448 41.1149 39.4965 41.2236 39.8292C41.3323 40.162 41.5019 40.4694 41.7226 40.7339C41.9434 40.9983 42.211 41.2147 42.5101 41.3705Z" fill="#0090FF"/>
<g style="mix-blend-mode:multiply" opacity="0.3">
<path d="M41.4155 113.357C55.0103 115.702 68.9125 112.759 80.5347 105.073C92.1569 97.3877 100.707 85.4843 104.595 71.5783C105.309 69.0214 105.857 66.415 106.237 63.7772C106.758 60.1698 106.957 56.5163 106.832 52.8646C106.835 52.8309 106.835 52.797 106.832 52.7634C106.817 51.9954 106.779 51.229 106.727 50.4635C106.057 40.3961 102.976 30.6547 97.7734 22.1545C99.104 23.3883 100.39 24.679 101.609 26.0396C110.696 36.1664 116.176 49.2968 117.104 63.1681C117.156 63.9336 117.196 64.6999 117.209 65.468C117.213 65.5012 117.213 65.5346 117.21 65.5679C117.418 71.8998 116.661 78.2183 114.969 84.2818C111.905 95.248 105.919 105.032 97.7216 112.474C89.5245 119.915 79.4601 124.702 68.7229 126.265C57.9857 127.828 47.0264 126.102 37.1455 121.292C27.2645 116.482 18.8769 108.79 12.9777 99.1288C21.0162 106.599 30.875 111.531 41.4155 113.357Z" fill="#0090FF"/>
</g>
<path d="M60.9098 67.3032C45.6091 47.3766 63.2135 45.0181 70.7625 25.2885C73.4943 18.1377 72.3273 12.4057 69.7249 7.9962C62.0938 6.63624 54.2923 6.92043 46.791 8.83163C53.4838 15.3493 59.6007 25.3664 52.5206 37.0078C40.1087 57.4269 60.4313 67.0805 60.9098 67.3032Z" fill="#0090FF"/>
<path d="M60.9175 67.3104C69.5131 43.4739 80.3598 58.4127 100.366 55.5762C107.323 54.5924 111.391 50.9551 113.738 46.6398C111.069 38.9806 106.942 31.9702 101.614 26.0431C99.5782 35.2449 94.4158 45.3953 81.5164 44.6796C58.2232 43.3798 60.9175 67.3104 60.9175 67.3104Z" fill="#0090FF"/>
<path d="M60.9173 67.3078C84.8225 63.4037 78.0618 80.6935 90.5198 97.5879C94.7534 103.334 99.6658 105.308 104.303 105.411C109.184 99.2133 112.815 92.0251 114.977 84.2814C106.464 86.8419 95.772 86.9354 89.9163 74.9717C79.1762 53.0279 60.9173 67.3078 60.9173 67.3078Z" fill="#0090FF"/>
<path d="M51.7943 126.06C59.3241 127.351 67.0112 127.042 74.4041 125.152C67.9791 118.629 62.4595 108.888 69.3168 97.6102C81.7277 77.195 61.4037 67.5376 60.9252 67.315C76.2259 87.2415 58.6214 89.5987 51.0737 109.33C48.4537 116.178 49.4132 121.731 51.7943 126.06Z" fill="#0090FF"/>
<path d="M7.82716 88.4951C10.6204 96.0281 14.8306 102.894 20.202 108.676C22.223 99.4485 27.3766 89.2218 40.3165 89.945C63.6169 91.2431 60.9164 67.3116 60.9164 67.3116C52.3209 91.1493 41.4742 76.2106 21.4685 79.047C14.2432 80.0708 10.128 83.9561 7.82716 88.4951Z" fill="#0090FF"/>
<path d="M5.94195 50.6257C14.5941 47.7943 25.8514 47.246 31.9199 59.6464C42.6586 81.589 60.9175 67.3091 60.9175 67.3091C37.0136 71.2144 43.773 53.9234 31.3163 37.0302C26.7263 30.8047 21.3368 29.0036 16.3643 29.2212C12.6087 34.132 9.61997 39.6473 7.50967 45.5608C6.91562 47.2147 6.3897 48.9075 5.94195 50.6257Z" fill="#0090FF"/>
<g style="mix-blend-mode:multiply" opacity="0.5">
<path d="M48.4092 122.938C62.0041 125.284 75.9066 122.34 87.5291 114.655C99.1516 106.969 107.702 95.0655 111.59 81.1592C112.303 78.6022 112.852 75.9959 113.232 73.3581C113.753 69.7504 113.953 66.0964 113.827 62.4442C113.83 62.411 113.83 62.3775 113.826 62.3443C113.812 61.5763 113.773 60.8099 113.722 60.0445C112.792 46.1762 107.312 33.0489 98.2271 22.9249C98.075 22.6673 97.9251 22.407 97.7696 22.1535C99.1003 23.3874 100.386 24.6781 101.605 26.0386C110.692 36.1654 116.172 49.2959 117.101 63.1671C117.152 63.9326 117.192 64.6989 117.205 65.467C117.209 65.5003 117.209 65.5337 117.206 65.567C117.414 71.8989 116.657 78.2174 114.965 84.2809C112.24 94.069 107.18 102.938 100.268 110.042C93.3564 117.146 84.8229 122.248 75.4818 124.862C66.1407 127.476 56.3034 127.514 46.9083 124.972C37.5131 122.431 28.8735 117.395 21.8133 110.345C29.5039 116.912 38.6726 121.253 48.4092 122.938Z" fill="#0090FF"/>
</g>
<g style="mix-blend-mode:screen" opacity="0.2">
<path d="M32.3839 103.941C41.585 103.912 43.4083 94.2381 66.1226 69.1136C85.9952 47.1331 93.9995 44.1393 93.2214 35.7497C92.0228 22.8336 71.3307 11.5402 53.59 11.9932C28.5052 12.632 2.50671 36.9306 3.70098 64.1848C4.54468 83.4499 18.9618 103.98 32.3839 103.941Z" fill="#0090FF"/>
</g>
<g style="mix-blend-mode:screen" opacity="0.22">
<path d="M52.0311 11.0953C66.3014 9.96734 82.3243 16.1953 81.8437 21.5839C81.5642 24.7301 62.5474 24.1288 41.2328 48.3011C19.245 73.2445 24.2405 96.4219 20.8607 97.102C16.9686 97.8859 2.66179 78.4842 3.52815 59.7134C4.74672 33.4249 29.4455 12.8812 52.0311 11.0953Z" fill="#0090FF"/>
</g>
<g style="mix-blend-mode:screen" opacity="0.37">
<path d="M73.2145 17.8042C73.2801 16.1042 61.689 11.8843 49.374 13.6898C31.8507 16.2607 14.3013 30.8259 9.41028 50.214C5.46449 65.861 10.6111 81.2371 12.396 81.188C14.1045 81.1402 11.3504 66.985 18.5391 51.3939C27.6247 31.6935 46.1196 23.729 48.2002 22.869C61.7139 17.2861 73.1453 19.4879 73.2145 17.8042Z" fill="#0090FF"/>
</g>
<g style="mix-blend-mode:screen">
<path d="M46.3485 15.7864C49.67 15.1398 56.3787 15.8031 53.9951 17.0065C45.997 20.155 38.4342 24.405 31.5016 29.6469C27.4335 32.7036 23.9371 29.6388 25.7496 27.2578C27.5622 24.8768 36.772 17.6513 46.3485 15.7864Z" fill="#0090FF"/>
</g>
<g style="mix-blend-mode:screen">
<path d="M20.9756 32.054C22.0907 30.9289 27.0473 32.1427 26.2962 32.91C19.9138 39.0612 15.0727 46.7858 12.199 55.4042C8.89126 64.8343 9.89299 43.2257 20.9756 32.054Z" fill="#0090FF"/>
</g>
<path d="M111.11 157.39C135.519 155.737 153.891 133.491 152.145 107.704C150.398 81.9156 129.195 62.3506 104.785 64.0036C80.3758 65.6567 62.0037 87.902 63.7501 113.69C65.4966 139.478 86.7002 159.043 111.11 157.39Z" fill="#0090FF"/>
<path d="M63.7408 113.692C63.81 114.713 63.9093 115.731 64.0412 116.73C64.7596 122.299 66.4248 127.692 68.9565 132.649C70.0861 134.866 71.383 136.984 72.8344 138.982C75.7804 143.034 79.3254 146.559 83.3315 149.422C84.3377 149.948 85.3716 150.437 86.4156 150.894C88.6446 151.843 90.9337 152.624 93.2655 153.23C95.6083 153.807 97.9869 154.203 100.382 154.414C105.227 154.837 110.099 154.435 114.812 153.225C119.621 151.94 124.14 149.679 128.119 146.568C133.135 142.681 137.183 137.572 139.923 131.671C142.664 125.77 144.017 119.249 143.867 112.658C143.834 111.348 143.759 110.034 143.602 108.732C143.539 108.066 143.442 107.404 143.313 106.748L142.958 104.747C141.756 99.4316 139.379 94.4834 136.022 90.309C135.814 90.0488 135.622 89.7709 135.401 89.5283L134.723 88.7988L133.367 87.3526C132.887 86.9006 132.389 86.4704 131.895 86.0283C131.413 85.5793 130.906 85.1595 130.379 84.7712C129.341 83.9662 128.256 83.2315 127.13 82.5715C126.565 82.2458 126.011 81.8937 125.431 81.5946L123.664 80.7761L122.779 80.3772C122.478 80.2604 122.17 80.162 121.864 80.0546L120.025 79.4307C119.413 79.2158 118.778 79.114 118.152 78.9565C117.518 78.8238 116.898 78.6389 116.264 78.5614L114.352 78.3218L113.392 78.2074L112.433 78.1877L110.514 78.16C110.194 78.1538 109.873 78.1683 109.554 78.2032L108.601 78.2844C107.963 78.3482 107.331 78.3858 106.689 78.4818L104.739 78.8702C104.09 79.0043 103.448 79.18 102.819 79.3963C102.179 79.5783 101.549 79.8003 100.933 80.061L99.096 80.8609L97.3356 81.8439C96.7549 82.1776 96.1933 82.5469 95.6538 82.9498C95.0967 83.3237 94.5629 83.7349 94.0557 84.1808C91.9743 85.8934 90.155 87.9334 88.6605 90.2303C88.3069 90.813 87.9053 91.367 87.5913 91.9791L86.6525 93.8088C86.3545 94.4249 86.1185 95.0779 85.8582 95.7133C85.7355 96.033 85.5967 96.3475 85.4892 96.6764L85.1926 97.6719L84.8961 98.6673L84.7549 99.1613L84.6493 99.6811L84.2533 101.715C84.1591 102.402 84.1042 103.096 84.0293 103.781C83.9607 104.471 83.9343 105.165 83.9504 105.859L83.9515 106.897L83.9566 107.419L84.0008 107.929L84.1952 109.993C84.3908 111.416 84.7046 112.819 85.133 114.185C86.417 118.292 88.7643 121.945 91.9079 124.727C95.0515 127.51 98.8652 129.31 102.915 129.924C103.584 129.994 104.253 130.09 104.924 130.125L106.931 130.137L108.919 129.934C109.592 129.836 110.289 129.667 110.961 129.521C113.665 128.787 116.166 127.398 118.266 125.464C120.343 123.548 121.963 121.142 122.995 118.438C124.04 115.765 124.467 112.863 124.241 109.971C124.137 108.496 123.847 107.041 123.379 105.644C122.4 102.817 120.667 100.345 118.39 98.5265C117.267 97.6421 116.035 96.9255 114.728 96.3971C113.42 95.883 112.051 95.5691 110.661 95.4652C110.317 95.4367 109.971 95.4267 109.626 95.4353C109.281 95.4286 108.937 95.4429 108.595 95.4782L107.569 95.5951C107.224 95.6557 106.866 95.7427 106.518 95.8201C103.711 96.54 101.257 98.318 99.6155 100.821C97.9939 103.272 97.2974 106.278 97.6611 109.257C97.8316 110.782 98.3197 112.25 99.0902 113.556C99.8714 114.843 100.913 115.933 102.14 116.745C103.35 117.552 104.718 118.052 106.137 118.208C106.487 118.254 106.84 118.273 107.193 118.265C107.542 118.27 107.891 118.246 108.236 118.194C109.323 118.066 110.37 117.695 111.308 117.107C112.246 116.519 113.054 115.727 113.679 114.783C114.083 114.162 114.404 113.486 114.635 112.773C114.851 112.059 114.979 111.318 115.014 110.568C115.025 110.196 115.012 109.824 114.974 109.453L114.906 108.899L114.788 108.332C114.506 107.213 113.948 106.192 113.17 105.373C112.393 104.554 111.425 103.966 110.365 103.671C109.678 103.488 108.967 103.433 108.264 103.507C107.537 103.575 106.834 103.81 106.205 104.195C105.582 104.573 105.048 105.092 104.641 105.716C104.233 106.34 103.963 107.052 103.849 107.802C103.796 108.169 103.781 108.542 103.803 108.913C103.815 109.096 103.844 109.279 103.864 109.461C103.899 109.65 103.943 109.838 103.997 110.022C104.214 110.751 104.619 111.402 105.166 111.904C105.713 112.405 106.38 112.736 107.093 112.859C107.437 112.917 107.787 112.925 108.132 112.884C108.492 112.846 108.842 112.74 109.165 112.571C109.81 112.242 110.324 111.685 110.62 110.996C110.906 110.324 110.958 109.564 110.768 108.851C110.669 108.495 110.498 108.165 110.267 107.884C110.036 107.603 109.751 107.378 109.43 107.223C109.12 107.073 108.782 106.998 108.441 107.004C108.1 107.011 107.766 107.099 107.463 107.262C107.167 107.431 106.921 107.683 106.752 107.99C106.583 108.297 106.496 108.648 106.502 109.004C106.503 109.355 106.611 109.697 106.811 109.979C107.007 110.259 107.289 110.458 107.609 110.542C107.918 110.631 108.246 110.595 108.53 110.442C108.665 110.365 108.784 110.26 108.879 110.132C108.973 110.004 109.041 109.856 109.079 109.699C109.116 109.547 109.12 109.388 109.088 109.234C109.057 109.08 108.991 108.936 108.898 108.814C108.804 108.702 108.686 108.618 108.553 108.569C108.42 108.52 108.278 108.508 108.14 108.534C108.271 108.526 108.401 108.554 108.519 108.615C108.637 108.677 108.738 108.77 108.811 108.885C108.876 108.996 108.914 109.122 108.923 109.252C108.931 109.381 108.911 109.511 108.862 109.63C108.821 109.745 108.758 109.849 108.676 109.937C108.594 110.024 108.496 110.092 108.388 110.136C108.171 110.209 107.937 110.199 107.726 110.107C107.524 110.025 107.354 109.873 107.245 109.677C107.135 109.48 107.093 109.25 107.124 109.025C107.142 108.808 107.217 108.601 107.34 108.427C107.463 108.253 107.63 108.118 107.821 108.038C108.006 107.969 108.203 107.944 108.399 107.964C108.594 107.984 108.784 108.05 108.954 108.155C109.123 108.261 109.269 108.404 109.382 108.575C109.494 108.746 109.569 108.941 109.603 109.145C109.656 109.556 109.575 109.973 109.374 110.326C109.18 110.663 108.879 110.915 108.524 111.037C108.169 111.15 107.79 111.152 107.433 111.043C107.07 110.938 106.741 110.729 106.483 110.438C106.24 110.159 106.074 109.816 106.002 109.446C105.986 109.356 105.975 109.265 105.968 109.174L105.963 108.868C105.974 108.67 106.004 108.474 106.052 108.282C106.147 107.911 106.318 107.567 106.555 107.275C106.792 106.984 107.087 106.752 107.42 106.597C107.746 106.448 108.099 106.377 108.454 106.389C108.828 106.395 109.199 106.468 109.551 106.605C110.237 106.875 110.807 107.399 111.158 108.078C111.324 108.4 111.439 108.749 111.498 109.109L111.526 109.375L111.53 109.675C111.533 109.874 111.523 110.074 111.5 110.272C111.403 111.03 111.104 111.742 110.638 112.325C110.171 112.909 109.556 113.339 108.865 113.566C108.528 113.675 108.177 113.73 107.823 113.731L107.539 113.74C107.444 113.736 107.348 113.721 107.252 113.717C107.064 113.705 106.877 113.677 106.693 113.633C105.961 113.49 105.27 113.164 104.678 112.683C104.097 112.22 103.618 111.628 103.277 110.949C102.957 110.272 102.783 109.529 102.766 108.774C102.688 107.161 103.179 105.578 104.143 104.332C105.067 103.129 106.377 102.326 107.827 102.073C108.006 102.061 108.178 102.017 108.361 102.005L108.954 101.986C109.15 101.978 109.346 101.986 109.541 102.011C109.736 102.013 109.931 102.031 110.123 102.065C110.888 102.175 111.634 102.401 112.339 102.738C113.035 103.078 113.684 103.516 114.269 104.041C114.841 104.566 115.341 105.173 115.753 105.844C116.151 106.509 116.462 107.227 116.677 107.979C116.876 108.757 116.982 109.558 116.992 110.362C117.046 112.044 116.712 113.711 116.018 115.22C115.355 116.72 114.362 118.028 113.123 119.039C111.913 120.033 110.505 120.726 109.003 121.067C108.617 121.115 108.259 121.197 107.857 121.234C107.445 121.252 107.036 121.273 106.623 121.308C106.213 121.278 105.801 121.253 105.392 121.238C104.986 121.198 104.585 121.109 104.183 121.056C102.58 120.733 101.045 120.101 99.655 119.192C96.8849 117.397 94.8378 114.584 93.9112 111.299C93.6854 110.487 93.5288 109.656 93.4434 108.816L93.3831 107.478L93.3604 107.143L93.3775 106.804L93.4012 106.132C93.4001 105.687 93.4321 105.243 93.4968 104.803C93.5567 104.362 93.596 103.922 93.6667 103.479L93.9523 102.178L94.0199 101.852L94.1201 101.54L94.3265 100.915L94.5261 100.28C94.5972 100.075 94.6994 99.8836 94.7849 99.6766C94.9679 99.2797 95.1141 98.8584 95.3098 98.4709L95.9404 97.3208C96.1435 96.9341 96.4204 96.5975 96.649 96.2296C97.6301 94.7998 98.8127 93.5377 100.156 92.4867C100.481 92.2132 100.825 91.9658 101.185 91.7468C101.524 91.494 101.883 91.2705 102.257 91.0782C102.628 90.8851 102.994 90.6809 103.359 90.4768L104.519 90.0022C104.905 89.8402 105.301 89.7093 105.706 89.6104C106.1 89.4752 106.503 89.3703 106.912 89.2967L108.144 89.0659C108.57 89.0165 109.018 89.0067 109.454 88.9669L110.114 88.9119C110.333 88.8883 110.552 88.8803 110.771 88.8879L112.087 88.936L112.747 88.9541L113.403 89.0468L114.707 89.2264C115.139 89.283 115.559 89.4327 115.989 89.5241C116.411 89.6377 116.85 89.7041 117.263 89.8594L118.507 90.3083C118.717 90.3825 118.925 90.4479 119.128 90.529L119.726 90.8205C120.125 91.0148 120.526 91.2038 120.929 91.3875C121.321 91.5929 121.688 91.8488 122.081 92.0631C122.848 92.5163 123.586 93.0229 124.29 93.5797C124.652 93.8426 124.996 94.1328 125.319 94.4482L126.323 95.3452L127.24 96.3469L127.704 96.8436C127.851 97.014 127.99 97.1929 128.118 97.3794C130.379 100.225 131.978 103.588 132.786 107.195L133.028 108.56C133.129 109.02 133.201 109.486 133.244 109.955C133.365 110.917 133.419 111.884 133.45 112.852C133.503 114.783 133.38 116.714 133.081 118.617C131.845 126.335 127.895 133.256 122.019 137.998C119.087 140.345 115.761 142.089 112.212 143.139C108.551 144.161 104.755 144.563 100.965 144.327C99.0518 144.196 97.1473 143.934 95.2639 143.543C93.379 143.124 91.5237 142.564 89.7119 141.869C82.3728 138.977 76.0058 133.837 71.4312 127.112C70.2907 125.425 69.2667 123.655 68.3671 121.814C67.4738 119.961 66.7101 118.043 66.0822 116.074C65.4611 114.091 64.9772 112.064 64.6342 110.009C64.4726 108.966 64.3362 107.901 64.2003 106.844L64.0621 105.251C64.0329 104.963 64.0021 104.669 63.9825 104.381C63.971 104.497 63.9591 104.608 63.9465 104.727C63.606 107.699 63.5371 110.701 63.7408 113.692Z" fill="#0090FF"/>
<g style="mix-blend-mode:multiply" opacity="0.5">
<path d="M125.361 67.7831C131.331 70.5034 136.673 74.569 141.011 79.6933C145.348 84.8177 148.576 90.876 150.465 97.4413C152.355 104.006 152.861 110.919 151.947 117.691C151.034 124.463 148.723 130.93 145.178 136.637C141.633 142.343 136.94 147.149 131.43 150.717C125.92 154.285 119.727 156.527 113.288 157.286C106.848 158.045 100.319 157.302 94.1598 155.109C88.0011 152.916 82.3628 149.327 77.6424 144.594C92.9222 151.942 120.059 156.076 135.26 129.564C150.46 103.051 136.413 79.382 125.361 67.7831Z" fill="#0090FF"/>
</g>
<g style="mix-blend-mode:multiply">
<path d="M93.7884 154.072C99.159 155.486 104.724 155.837 110.201 155.107C116.266 154.301 122.096 152.167 127.319 148.842C132.035 145.841 136.177 141.938 139.532 137.33C144.939 129.885 148.081 120.875 148.548 111.476C149.016 102.077 146.786 92.7275 142.151 84.648C138.27 77.8745 132.835 72.2368 126.353 68.2605C131.807 70.9311 136.699 74.7381 140.735 79.4515C144.77 84.1648 147.864 89.6864 149.829 95.6822C151.794 101.678 152.59 108.024 152.169 114.335C151.747 120.646 150.117 126.792 147.377 132.401C144.637 138.01 140.843 142.965 136.226 146.967C131.609 150.969 126.264 153.934 120.515 155.683C114.765 157.432 108.731 157.929 102.777 157.144C96.8226 156.358 91.0723 154.306 85.8736 151.113C88.4186 152.362 91.0689 153.353 93.7884 154.072Z" fill="#0090FF"/>
</g>
<g style="mix-blend-mode:screen" opacity="0.2">
<path d="M86.8991 130.877C93.4488 130.857 94.7453 123.973 110.907 106.095C125.047 90.4536 130.742 88.3249 130.19 82.3603C129.337 73.1697 114.615 65.1349 101.992 65.4566C84.1421 65.9119 65.6429 83.2007 66.4928 102.593C67.0909 116.297 77.3487 130.906 86.8991 130.877Z" fill="#0090FF"/>
</g>
<g style="mix-blend-mode:screen" opacity="0.22">
<path d="M102.204 68.6889C112.357 67.8859 123.758 72.3186 123.417 76.152C123.217 78.3905 109.686 77.965 94.5195 95.1653C78.8754 112.911 82.4297 129.406 80.0253 129.89C77.2559 130.448 67.0768 116.643 67.6948 103.288C68.5604 84.5784 86.1314 69.9568 102.204 68.6889Z" fill="#0090FF"/>
</g>
<g style="mix-blend-mode:screen" opacity="0.25">
<path d="M69.1909 99.6924C71.4119 91.2694 76.065 83.8043 82.505 78.3321C88.945 72.86 96.8528 69.652 105.132 69.153C110.258 68.825 122.301 71.7583 112.437 72.3917C93.3887 73.6151 78.1789 86.8991 71.6821 104.502C69.9718 109.146 67.955 104.498 69.1909 99.6924Z" fill="#0090FF"/>
</g>
<g style="mix-blend-mode:screen">
<path d="M96.7274 71.3948C99.0922 70.9348 103.865 71.4074 102.168 72.2632C96.4774 74.5042 91.0967 77.5283 86.1639 81.2574C83.2698 83.431 80.782 81.2515 82.0709 79.5583C83.3599 77.8651 89.9193 72.7223 96.7274 71.3948Z" fill="#0090FF"/>
</g>
<g style="mix-blend-mode:screen">
<path d="M78.6781 82.9666C79.4731 82.1668 83 83.0302 82.4631 83.5753C77.9214 87.9518 74.4767 93.4483 72.4322 99.5807C70.0782 106.292 70.7912 90.9176 78.6781 82.9666Z" fill="#0090FF"/>
</g>
</svg>
