
<svg width="90" height="122" viewBox="0 0 90 122" fill="none" xmlns="http://www.w3.org/2000/svg">
<g clip-path="url(#clip0)">
<path d="M0.789525 49.619C0.605328 50.9316 0.451539 52.2396 0.336627 53.5476C-0.329915 60.8089 -0.0213214 68.1739 1.24748 75.2862C1.81167 78.4657 2.56443 81.5782 3.49841 84.5933C5.67466 91.6007 8.79182 97.9993 12.6914 103.464L12.7488 103.542C19.1885 112.527 27.5186 118.597 36.5999 120.921C39.1402 121.576 41.7171 121.933 44.3024 121.991C50.1585 122.125 55.9768 120.696 61.426 117.785C61.7539 117.611 62.0784 117.43 62.4011 117.247C67.5715 114.299 72.2927 110.075 76.3241 104.788C80.7843 98.9337 84.3001 91.8887 86.6493 84.0985C87.0211 82.8684 87.3624 81.6085 87.6767 80.3303C89.134 74.395 89.9142 68.1929 89.9902 61.9384C89.9902 61.5352 89.9902 61.1297 89.9902 60.7266C89.9832 56.4597 89.6393 52.2061 88.9644 48.0384C88.3812 44.3977 87.5519 40.8374 86.4871 37.4028C84.3117 30.3948 81.1945 23.9959 77.2941 18.532C76.8727 17.941 76.4424 17.363 76.003 16.798C71.9533 11.5606 67.2137 7.40114 62.031 4.5359C56.8354 1.66784 51.2922 0.132246 45.6831 0.00719216C40.0446 -0.125008 34.4389 1.19652 29.1644 3.9014C28.6338 4.16941 28.1031 4.45115 27.5843 4.74894C23.7151 6.95658 20.0924 9.88647 16.8215 13.4536C15.7242 14.6371 14.6714 15.8924 13.6631 17.2195C11.8275 19.6194 10.1508 22.2332 8.65259 25.0307C6.49684 29.0099 4.71174 33.3346 3.33787 37.9067C3.28886 38.0671 3.24153 38.2251 3.19759 38.3878C2.13124 42.0183 1.32486 45.7793 0.789525 49.619Z" fill="#FCAB29"/>
<path d="M16.8313 13.4464C37.5502 27.8696 60.8997 33.8811 84.077 30.7594C82.2049 26.3167 79.9301 22.2089 77.3056 18.5317C76.8848 17.9407 76.4607 17.3635 76.0145 16.7977C68.5185 16.6732 61.0457 15.6383 53.686 13.7052C45.2884 11.6045 37.0759 8.31856 29.1827 3.90106C28.652 4.16907 28.1214 4.45085 27.6026 4.74864C23.7307 6.95333 20.1052 9.88091 16.8313 13.4464Z" fill="#FFE5BB"/>
<path d="M3.20905 38.3692C10.6327 48.1917 26.1561 57.5308 44.8124 62.3344C63.4688 67.138 80.4369 66.1644 90 60.7172C89.9929 56.4503 89.6491 52.1967 88.9742 48.029C79.0749 51.3528 64.6145 51.3895 48.9695 47.3624C31.3406 42.8246 16.5068 34.2253 8.66405 25.0144C6.50827 28.9935 4.72316 33.3183 3.34932 37.8904C3.29862 38.0599 3.25129 38.218 3.20905 38.3692Z" fill="#FFE5BB"/>
<path d="M0.34301 53.5473C-0.323494 60.8087 -0.0149008 68.1736 1.25386 75.286C9.39574 83.8761 23.5114 91.7377 40.0942 96.0076C56.6771 100.277 71.9436 99.9796 81.8345 96.035C83.7633 92.3132 85.3771 88.3091 86.6455 84.0982C87.0173 82.8681 87.3587 81.6083 87.673 80.3301C77.8717 84.9573 61.8025 85.5551 44.2429 81.0356C23.3728 75.6616 6.40801 64.5884 0.34301 53.5473Z" fill="#FFE5BB"/>
<path d="M12.7535 103.542C18.9315 112.148 26.8464 118.091 35.5058 120.625C44.1653 123.159 53.1838 122.171 61.4308 117.785C54.0797 117.628 46.7529 116.596 39.5349 114.702C30.3156 112.42 21.3265 108.674 12.7535 103.542Z" fill="#FFE5BB"/>
<g style="mix-blend-mode:multiply" opacity="0.5">
<path d="M68.6381 9.08948C76.3918 15.5742 82.5099 25.0979 86.1823 36.4C89.8548 47.7021 90.9085 60.2495 89.204 72.3813C88.6428 76.3922 87.7881 80.3172 86.6524 84.0982C83.8228 93.4784 79.3135 101.755 73.532 108.18C67.7505 114.605 60.8791 118.977 53.5387 120.899C46.1982 122.821 38.6202 122.233 31.4893 119.189C24.3584 116.145 17.8995 110.74 12.6961 103.464C11.6349 101.975 10.6361 100.412 9.69318 98.793C44.8192 135.669 105.015 83.4041 68.6381 9.08948Z" fill="#EAB86A"/>
</g>
<g style="mix-blend-mode:multiply" opacity="0.5">
<path d="M24.5642 114.145C29.7592 117.013 35.3019 118.549 40.9105 118.674C47.1215 118.816 53.2861 117.201 59.0108 113.932C64.1803 110.983 68.9007 106.759 72.9321 101.473C79.4304 92.9311 83.8769 81.9309 85.6909 69.9096C87.5049 57.8884 86.602 45.4049 83.1002 34.0901C80.1667 24.6068 75.5115 16.2832 69.5676 9.89352C74.6688 14.3959 79.0431 20.2544 82.4259 27.1146C85.8087 33.9747 88.1295 41.6938 89.248 49.8049C90.3665 57.9159 90.2594 66.2502 88.9332 74.3035C87.607 82.3568 85.0892 89.9617 81.5323 96.6579C77.9753 103.354 73.453 109.003 68.2392 113.262C63.0254 117.52 57.2283 120.301 51.1988 121.435C45.1693 122.57 39.0327 122.034 33.1603 119.861C27.288 117.688 21.8019 113.922 17.0341 108.792C19.4127 110.897 21.9342 112.69 24.5642 114.145Z" fill="#EAB86A"/>
</g>
<g style="mix-blend-mode:screen" opacity="0.2">
<path d="M23.8257 93.0366C30.979 93.3596 32.7939 77.7118 51.2492 53.5061C67.3978 32.3286 71.4941 37.0452 73.2853 27.3212C75.6005 14.759 57.0438 2.35263 43.2392 2.12356C23.721 1.81432 2.73932 25.0671 2.79846 52.2897C2.83902 71.5453 13.3924 92.5693 23.8257 93.0366Z" fill="white"/>
</g>
<g style="mix-blend-mode:screen" opacity="0.3">
<path d="M48.0654 7.42191C58.394 8.14577 69.309 15.8494 68.4725 20.74C67.9859 23.5988 54.4127 20.6988 36.9325 40.2865C18.8997 60.4927 20.3614 82.4146 17.879 82.6231C15.0163 82.8522 6.53646 63.2644 8.87189 46.1209C12.1452 22.1099 31.7175 6.27656 48.0654 7.42191Z" fill="white"/>
</g>
<g style="mix-blend-mode:screen" opacity="0.4">
<path d="M58.394 12.6859C58.5968 11.1328 50.6763 5.81383 41.6861 5.96272C28.8937 6.16201 14.9859 17.3795 9.71343 34.5964C5.4583 48.4826 7.74302 63.2552 9.02733 63.4293C10.2542 63.5966 9.57318 50.2464 16.1468 36.8046C24.4543 19.8191 38.4364 14.7819 40.0063 14.2504C50.2014 10.7892 58.1895 14.223 58.394 12.6859Z" fill="white"/>
</g>
<g style="mix-blend-mode:screen" opacity="0.25">
<path d="M4.5542 36.2548C7.87063 25.7602 13.5139 16.9244 20.7015 10.9728C27.8891 5.02118 36.2648 2.24868 44.667 3.03978C49.8736 3.49792 61.6251 9.38274 51.6108 8.48937C42.446 7.78946 33.3247 10.6566 25.3225 16.7528C17.3203 22.8489 10.7709 31.9197 6.44687 42.8955C4.12496 48.6017 2.69194 42.2381 4.5542 36.2548Z" fill="white"/>
</g>
<g style="mix-blend-mode:screen">
<path d="M36.3917 5.20909C38.8319 5.02355 43.5788 6.46209 41.7605 7.2707C35.7416 9.17722 29.9342 12.1501 24.4881 16.1128C21.2925 18.4172 19.0669 15.169 20.5828 13.2059C25.2211 8.64916 30.6851 5.88523 36.3917 5.20909Z" fill="white"/>
</g>
<g style="mix-blend-mode:screen">
<path d="M17.6711 18.4791C18.5735 17.5834 22.0158 19.3106 21.4057 19.9222C16.2707 24.7885 12.0965 31.2908 9.2504 38.8571C6.01934 47.115 8.70964 27.3784 17.6711 18.4791Z" fill="white"/>
</g>
</g>
<defs>
<clipPath id="clip0">
<rect width="90" height="122" fill="white"/>
</clipPath>
</defs>
</svg>
