
<svg width="755" height="541" viewBox="0 0 755 541" fill="none" xmlns="http://www.w3.org/2000/svg">
<path d="M454.544 230.124C452.678 228.32 450.683 226.787 448.598 225.556C448.783 221.984 448.987 218.185 449.212 214.159C449.785 208.385 449.239 202.374 447.626 196.676C445.288 189.09 440.986 182.77 434.476 177.352C433.918 176.886 433.345 176.456 432.759 176.065C423.559 169.891 415.162 168.393 407.784 171.608C404.495 173.028 401.582 175.503 399.284 178.828C394.506 178.537 389.81 179.391 385.419 181.35C375.087 185.852 367.294 195.194 362.088 209.272C351.62 203.774 340.737 204.949 331.345 214.795C331.23 214.744 331.117 214.687 331 214.636C330.044 214.202 329.117 213.946 328.176 213.624C328.304 209.084 327.681 204.466 326.348 200.094C324.086 192.75 319.959 186.619 313.742 181.349C313.308 180.986 312.868 180.643 312.422 180.32C302.997 173.541 294.297 171.813 286.554 175.186C281.337 177.437 277.143 182.319 274.811 188.855C274.193 190.595 273.738 192.446 273.458 194.37C273.183 196.278 273.13 196.637 271.833 222.065C271.277 227.19 271.57 232.519 272.693 237.693C272.114 238.996 271.625 240.374 271.23 241.81C270.762 243.601 270.459 245.48 270.327 247.407C270.259 248.373 270.136 250.494 269.957 253.746C259.543 249.305 249.051 251.294 239.734 262.244C229.462 256.979 218.789 258.107 209.4 267.884L208.938 267.674C193.333 260.787 179.714 268.746 176.784 285.192C176.668 285.858 176.615 286.547 176.539 287.227C167.577 281.61 157.656 280.604 148.828 284.417C148.562 283.324 148.268 282.246 147.94 281.18L147.617 280.132C145.202 272.457 141.141 265.729 135.98 260.852C135.588 260.461 135.179 260.094 134.767 259.743C127.128 253.284 114.64 247.059 98.5526 254.067C95.6708 255.375 92.8912 256.988 90.2389 258.893C79.0282 266.978 68.9242 280.391 60.228 298.676C52.492 315.287 46.5974 333.441 42.7061 352.639C40.7209 362.28 39.2932 372.173 38.4348 382.236C37.1978 404.43 39.2307 424.321 44.4806 441.361C48.3245 454.225 54.7259 465.727 62.9504 474.547C63.1852 474.788 63.4109 475.03 63.6531 475.263C81.4506 492.698 96.414 491.47 106.354 487.14C120.88 480.811 133.785 462.716 146.666 430.471C154.589 435.032 163.223 435.699 170.924 432.344L171.965 431.89C178.669 428.969 184.561 423.134 189.913 414.473C198.488 419.632 206.297 420.839 213.094 417.878C216.039 416.648 218.686 414.552 220.852 411.735C223.018 408.919 224.652 405.449 225.64 401.566C226.012 400.099 226.276 398.576 226.429 397.016C226.639 397.165 226.855 397.312 227.078 397.457C227.727 397.887 228.391 398.271 229.065 398.608C238.715 403.424 246.618 404.174 253.274 400.679C255.701 399.441 257.89 397.587 259.727 395.211C262.201 392.068 263.995 388.086 264.951 383.616C270.649 386.018 276.601 386.044 281.971 383.691C286.512 381.599 290.49 378 293.554 373.21C301.981 375.819 310.739 373.223 318.168 364.564C331.683 369.684 343.923 362.878 347.604 348.442C348.085 346.552 348.385 344.568 348.496 342.535C348.515 342.119 348.544 341.706 348.564 341.295C353.086 344.488 358.021 346.244 362.946 346.411C362.275 353.097 362.986 360.073 365.004 366.612C367.747 375.183 372.523 382.528 378.547 387.437C389.192 396.107 401.037 397.982 412.803 392.856C424.569 387.731 433.542 376.353 438.992 359.128C440.451 354.182 441.496 348.992 442.109 343.647C442.271 342.003 442.731 337.263 444.057 310.368C448.02 303.117 451.618 295.503 454.83 287.57C457.586 280.94 460.038 274.07 462.175 266.991C463.491 263.531 464.213 259.669 464.295 255.657C464.376 251.646 463.816 247.575 462.649 243.713C461.481 240.012 459.773 236.599 457.632 233.686C456.688 232.372 455.653 231.178 454.544 230.124ZM93.7595 395.621C94.592 389.156 95.6766 382.784 97.0092 376.528C97.5129 373.991 98.1941 371.118 99.005 368.024C99.5104 368.528 100.026 368.998 100.565 369.436C104.792 373.082 109.588 375.185 114.419 375.511C114.229 376.13 114.037 376.743 113.849 377.344C105.483 403.151 98.8953 416.463 94.527 423.284C93.7026 418.265 93.2523 413.196 93.183 408.153C93.1918 403.942 93.3843 399.757 93.7595 395.621Z" fill="#0090FF"/>
<path d="M713.375 120.19C712.536 119.232 711.644 118.362 710.708 117.589C709.106 116.252 707.431 115.095 705.704 114.131C705.792 108.179 704.967 102.15 703.281 96.4068C700.65 88.2151 696.28 81.0462 690.747 75.8488C690.468 75.5741 690.183 75.3063 689.894 75.0515C677.383 63.9553 663.303 63.028 651.59 75.2825C651.474 75.2316 651.363 75.1737 651.246 75.1228C644.879 71.922 638.094 71.5118 631.939 73.9555C628.827 75.276 626.052 77.5595 623.828 80.6311C621.603 83.7028 619.988 87.4812 619.105 91.6767C618.976 92.3017 618.944 92.9623 618.852 93.6023C602.64 85.6679 585.66 92.5537 574.716 113.573C573.86 115.114 573.082 116.735 572.388 118.426C571.697 119.125 571.042 119.884 570.429 120.698C569.71 120.101 568.977 119.542 568.237 119.008C559.789 112.928 550.23 111.081 541.443 113.83C541.106 112.381 540.75 110.938 540.312 109.518C537.467 100.565 532.438 92.9268 526.099 87.9313C525.756 87.6533 525.412 87.3897 525.062 87.1349C519.801 83.3379 514.1 80.9935 508.332 80.2556C502.564 79.5177 496.859 80.4029 491.593 82.8532C483.583 86.3428 475.72 93.3344 467.333 104.552C464.437 108.618 461.719 112.906 459.19 117.396C456.875 121.457 454.732 125.678 453.118 129.292C449.918 136.241 447.112 143.529 444.722 151.101C437.023 176.484 435.986 197.584 441.544 215.625C445.403 228.15 452.253 238.552 462.164 246.783C461.053 247.122 459.976 247.591 458.944 248.186C456.388 249.68 454.114 251.833 452.242 254.532C451.918 254.99 451.614 255.469 451.323 255.959C441.937 271.906 444.474 287.075 446.821 294.694C449.43 303.162 455.666 314.653 470.856 321.474C478.83 324.88 487.36 324.648 496.221 320.788C502.308 317.97 508.106 314.308 513.525 309.86C513.738 309.692 513.948 309.517 514.155 309.336C520.296 304.247 525.96 298.272 531.059 291.506C537.765 282.374 541.971 273.25 543.739 264.068C549.351 265.503 555.011 265.063 560.197 262.786L561.239 262.332C569.455 258.753 576.503 251.034 582.769 238.74C584.686 234.95 586.316 230.899 587.64 226.637C591.954 229.855 596.644 231.893 601.406 232.621C606.169 233.348 610.899 232.749 615.29 230.861L616.282 230.429C621.149 228.176 625.546 224.631 629.225 219.994C629.297 220.051 629.355 220.121 629.428 220.178C630.028 220.647 630.643 221.077 631.271 221.467C640.216 227.035 648.307 228.307 655.309 225.257C658.254 224.026 660.901 221.93 663.068 219.114C665.234 216.298 666.867 212.828 667.855 208.944C668.337 207.054 668.637 205.071 668.747 203.037C668.767 202.621 668.795 202.208 668.816 201.796C673.402 205.207 678.479 206.989 683.513 206.955C688.546 206.922 693.351 205.074 697.419 201.606C702.263 197.627 706.622 190.588 711.663 178.825C714.757 171.739 717.428 164.305 719.655 156.586C721.143 151.655 723.644 143.402 720.379 132.807C718.856 127.963 716.441 123.614 713.375 120.19ZM493.5 199.344C493.517 199.223 493.529 199.11 493.547 198.976C493.799 199.187 494.056 199.392 494.305 199.589C494.039 199.505 493.782 199.425 493.501 199.343L493.5 199.344Z" fill="#0090FF"/>
<path d="M520.95 146.806C524.333 134.048 525.034 124.46 523.053 118.041L522.78 117.157C521.656 113.803 519.709 110.975 517.284 109.177C514.414 107.104 511.3 105.839 508.154 105.467C505.008 105.095 501.902 105.624 499.049 107.02C493.691 109.354 487.907 114.665 481.699 122.952C479.233 126.416 476.919 130.068 474.764 133.891C472.839 137.26 471.052 140.772 469.411 144.414C466.787 150.174 464.474 156.199 462.486 162.447C456.719 181.464 455.583 196.642 459.077 207.982C462.389 218.735 470.322 227.11 482.874 233.11C489.556 235.865 496.307 238.18 503.101 240.044C506.413 241.208 508.184 242.166 508.416 242.917C509.092 245.112 508.581 248.247 506.883 252.321C504.687 256.638 502.111 260.568 499.202 264.039C490.716 273.803 482.823 280.275 475.521 283.458C474.011 284.184 472.379 284.492 470.719 284.365L470.664 284.389C470.877 282.088 471.535 279.953 472.576 278.186C473.535 276.858 473.94 275.954 473.792 275.474L473.619 274.912C473.132 273.913 472.445 273.103 471.645 272.587C470.474 271.722 469.158 271.368 467.9 271.58C467.454 271.853 467.06 272.241 466.737 272.724C463.757 277.785 462.961 282.559 464.35 287.045C465.669 291.325 469.239 294.775 475.061 297.393C479.714 299.082 484.511 298.809 488.763 296.613C493.653 294.302 498.312 291.327 502.672 287.733C507.797 283.5 512.534 278.539 516.809 272.929C524.407 262.579 527.144 253.955 525.018 247.055L524.771 246.253C522.595 239.192 517.242 233.757 508.712 229.949C505.037 228.451 498.589 226.316 489.369 223.545C486.626 222.817 483.931 221.636 481.347 220.031C480.095 219.336 478.946 218.297 477.984 216.986C477.021 215.675 476.268 214.125 475.778 212.445C474.162 207.201 473.808 200.621 474.716 192.705C475.448 185.918 476.82 179.359 478.803 173.178C480.511 167.498 482.533 162.024 484.854 156.8C486.913 152.054 489.197 147.504 491.692 143.174C499.288 130.524 506.017 122.92 511.879 120.363C513.058 119.706 514.373 119.478 515.7 119.702C516.454 123.643 516.595 127.673 516.113 131.535C515.765 134.992 515.195 138.376 514.41 141.651C513.309 146.302 511.903 150.781 510.205 155.04C507.764 161.206 505.057 167.155 502.095 172.862C501.209 174.157 500.888 175.176 501.12 175.927C501.349 176.458 501.633 176.947 501.964 177.379C504.096 179.304 505.825 179.973 507.14 179.401C507.313 179.3 507.473 179.169 507.617 179.011C509.713 175.246 512.32 169.772 515.436 162.592C517.519 157.51 519.36 152.239 520.95 146.806Z" fill="white"/>
<path d="M626.741 135.758L626.37 134.554C625.669 132.345 624.792 130.225 623.753 128.232C621.852 124.201 619.217 120.823 616.124 118.449C613.944 116.905 611.591 115.949 609.21 115.639C606.829 115.329 604.473 115.673 602.288 116.649C597.904 118.559 593.982 122.907 590.523 129.693C589.174 132.274 588.064 135.078 587.215 138.051C586.824 138.127 586.44 138.233 586.063 138.371L585.597 138.574C585.09 138.815 584.648 139.226 584.311 139.77C583.379 142.641 582.647 145.64 582.122 148.732C581.327 154.243 580.852 159.865 580.699 165.551L580.013 169.766C579.388 173.055 578.589 176.261 577.623 179.362C576.838 181.877 575.932 184.308 574.908 186.643C575.342 176.321 574.456 167.576 572.25 160.409L571.854 159.125C571.08 156.678 570.129 154.318 569.015 152.08C566.933 147.605 564.039 143.839 560.633 141.171C558.312 139.423 555.785 138.318 553.217 137.931C550.65 137.543 548.102 137.88 545.742 138.921C541.083 140.951 536.933 145.702 533.292 153.173C531.874 156.01 530.714 159.08 529.833 162.325C529.403 162.415 528.979 162.539 528.564 162.697L528.036 162.927C527.529 163.168 527.087 163.58 526.75 164.124C525.744 167.319 524.984 170.667 524.483 174.121C522.488 190.098 523.397 204.264 527.209 216.618C529.112 223.424 532.498 229.481 536.903 233.964C542.49 239.234 547.771 240.785 552.746 238.619L553.789 238.165C558.338 236.184 562.675 231.109 566.8 222.941C568.541 219.295 569.995 215.4 571.144 211.309C571.631 209.459 572.056 207.696 572.421 206.02C577.476 201.067 581.495 194.521 584.167 186.887L584.241 187.127C585.959 193.263 589.044 198.704 593.057 202.673C598.257 207.383 603.185 208.725 607.842 206.697L608.834 206.265C613.061 204.424 617.137 199.796 621.063 192.382C622.718 189.045 624.12 185.479 625.249 181.731C626.553 177.165 627.566 172.43 628.278 167.573C629.786 154.601 629.273 143.996 626.741 135.758ZM548.439 230.026C546.399 227.669 544.852 224.651 543.977 221.322L543.532 219.878C542.183 215.185 541.309 210.329 540.936 205.445C542.51 207.93 544.464 209.946 546.643 211.333C551.171 213.768 556.016 214.414 560.558 213.189C556.867 222.5 552.828 228.112 548.439 230.026ZM563.868 158.323C566.193 165.869 566.938 175.646 566.105 187.654C565.825 191.136 565.357 194.564 564.704 197.911C564.542 198.951 564.3 200.181 563.988 201.59C563.424 201.959 562.839 202.275 562.235 202.535C560.222 203.413 558.067 203.766 555.88 203.575C554.425 203.421 552.987 202.797 551.691 201.758C550.841 200.961 550.077 200.004 549.426 198.922C549.038 198.241 548.678 197.579 548.355 196.932C547.701 195.567 547.147 194.131 546.7 192.646C546.189 190.949 545.767 189.216 545.438 187.462C544.541 180.995 545.512 173.932 548.351 166.271C551.802 158.454 555.315 153.769 558.888 152.215C559.665 151.955 560.493 151.936 561.31 152.161C561.66 152.009 562.439 153.823 563.648 157.604L563.868 158.323ZM618.861 169.586C618.077 173.556 617.026 177.394 615.72 181.057C612.214 190.11 608.386 195.541 604.234 197.349C602.425 195.407 601.053 192.83 600.302 189.963L599.906 188.678C598.664 184.291 597.909 179.741 597.668 175.183C599.755 176.325 601.991 176.649 604.095 176.116L604.616 175.889C604.911 175.757 605.189 175.575 605.444 175.347C605.797 174.98 606.038 174.456 606.129 173.856C606.22 173.256 606.155 172.613 605.945 172.029C605.853 171.703 605.733 171.389 605.587 171.094C604.466 169.294 603.54 167.304 602.843 165.19C600.799 158.555 601.41 151.038 604.678 142.641C607.794 135.88 610.943 131.809 614.126 130.425C614.814 130.191 615.545 130.151 616.273 130.309C616.548 130.189 617.212 131.719 618.285 134.893L618.483 135.535C620.477 142.007 621.039 150.408 620.171 160.738C619.888 163.742 619.451 166.698 618.861 169.586Z" fill="white"/>
<path d="M701.777 138.746C699.762 137.076 698.196 136.483 697.066 136.975L696.783 137.099C696.616 137.158 696.47 137.285 696.366 137.462C694.881 142.354 693.762 145.935 693.008 148.206C690.682 155.307 687.88 162.069 684.633 168.419C684.513 166.892 684.41 164.843 684.325 162.273C684.377 158.856 685.047 144.306 686.334 118.623C686.908 112.06 686.711 107.202 685.745 104.048C684.582 100.702 682.719 97.8044 680.399 95.7299C678.617 93.9721 676.58 92.781 674.464 92.2598C672.347 91.7387 670.216 91.9032 668.256 92.7392C664.137 94.5333 659.563 100.773 654.533 111.459L654.417 111.509C654.627 110.042 654.602 108.503 654.345 106.99L654.196 106.508C653.506 104.797 652.503 103.319 651.29 102.222C649.85 100.9 648.3 99.8294 646.681 99.0413C644.311 97.7209 641.757 97.3995 639.388 98.1233C638.934 98.2841 638.527 98.591 638.199 99.0187C637.871 99.4464 637.633 99.9824 637.504 100.582L636.512 117.944L633.118 183.044C632.741 186.043 632.671 189.133 632.912 192.234L632.961 192.394C634.083 195.122 635.839 197.343 637.938 198.689C642.187 201.33 645.494 202.134 647.859 201.102C648.294 200.949 648.688 200.666 649.013 200.272C649.338 199.879 649.586 199.385 649.738 198.827C651.615 164.759 652.664 145.22 652.887 140.211C652.754 139.78 653.511 136.872 655.157 131.485C656.539 126.942 658.109 122.522 659.859 118.243C662.322 112.134 665.477 106.62 669.224 101.875L669.333 101.828C669.456 102.641 669.532 103.46 669.559 104.277C669.511 106.242 668.968 117.552 667.928 138.207C666.892 153.711 667.197 164.135 668.844 169.48L668.992 169.962C669.144 170.538 669.358 171.089 669.627 171.596L669.573 171.619C670.571 173.867 671.92 175.832 673.519 177.364C677.715 181.121 681.268 182.363 684.179 181.092L684.234 181.068C684.978 180.727 685.681 180.268 686.33 179.699C688.538 177.886 691.505 172.649 695.23 163.99C697.759 157.98 699.979 151.724 701.877 145.259C702.416 143.879 702.776 142.37 702.941 140.791L702.842 140.471C702.594 139.799 702.227 139.206 701.777 138.746Z" fill="white"/>
<path d="M182.983 329.986L182.587 328.702C181.813 326.255 180.862 323.895 179.749 321.658C177.666 317.182 174.773 313.416 171.367 310.748C169.046 309 166.518 307.896 163.951 307.508C161.384 307.12 158.836 307.458 156.476 308.499C151.816 310.529 147.666 315.279 144.025 322.75C142.607 325.588 141.447 328.657 140.566 331.903C140.136 331.993 139.712 332.117 139.297 332.274L138.771 332.504C138.264 332.745 137.822 333.157 137.485 333.701C136.478 336.896 135.719 340.244 135.218 343.698C133.763 354.101 133.868 364.973 135.528 375.717C134.183 380.217 132.87 384.722 131.471 389.198C118.938 427.844 107.061 449.613 95.841 454.504L95.6696 454.578C95.0803 454.835 94.2278 455.113 93.0877 455.429C91.1803 455.146 89.3025 454.318 87.5846 453.003C83.9592 450.518 80.9267 445.316 78.4871 437.398C75.8507 428.841 74.3998 418.279 74.1344 405.712C74.1509 400.239 74.4176 394.804 74.9332 389.437C75.8631 382.12 77.0803 374.907 78.5801 367.827C80.0884 360.722 81.8944 353.768 83.9902 346.996C86.5869 339.129 88.6764 333.396 90.2587 329.795C93.0299 323.278 96.2091 317.115 99.7664 311.364C106.808 300.771 112.971 294.323 118.255 292.021L119.419 291.514C120.989 290.834 122.662 290.537 124.364 290.635C124.656 292.425 124.727 294.24 124.572 296.005C124.336 301.013 123.598 305.894 122.377 310.521C121.279 315.005 119.948 319.356 118.392 323.546C115.685 330.613 112.639 337.411 109.269 343.901C108.5 344.964 108.236 345.901 108.483 346.701C108.769 347.27 109.108 347.792 109.49 348.254C110.205 349.003 111.021 349.548 111.88 349.85C112.739 350.153 113.619 350.205 114.458 350.003C115.236 349.257 115.881 348.299 116.357 347.184C119.197 341.52 121.737 335.893 123.978 330.304C125.837 325.561 127.45 320.633 128.806 315.55C131.728 303.72 132.265 294.809 130.416 288.819L130.094 287.775C129.155 284.966 127.618 282.524 125.689 280.776C119.908 275.889 113.35 275.045 106.016 278.243C104.116 279.12 102.283 280.193 100.531 281.451C91.8136 287.739 83.8333 298.496 76.5898 313.725C69.8125 328.281 64.6455 344.186 61.2299 361.006C59.5093 369.314 58.2485 377.832 57.457 386.494C56.4372 404.777 57.965 420.523 62.0404 433.734C64.5098 442.115 68.6534 449.618 73.9924 455.376C82.6966 463.901 90.8325 466.515 98.4002 463.217L98.9215 462.99C109.953 458.184 121.312 439.948 132.997 408.283C134.83 403.312 136.915 397.01 139.19 389.648C141.102 395.078 144.02 399.871 147.646 403.535C153.233 408.805 158.514 410.357 163.489 408.191L164.53 407.737C169.079 405.755 173.417 400.68 177.543 392.512C179.284 388.867 180.738 384.971 181.886 380.88C183.272 375.84 184.312 370.606 184.994 365.238C186.487 350.933 185.816 339.182 182.983 329.986ZM175.444 367.49C174.655 372.117 173.507 376.58 172.019 380.814C168.159 391.29 163.879 397.553 159.18 399.602C157.14 397.245 155.593 394.227 154.718 390.898L154.273 389.454C152.81 384.339 151.889 379.039 151.539 373.718C154.852 375.187 157.284 375.583 158.836 374.906L159.481 374.626C159.814 374.464 160.122 374.238 160.399 373.954C160.788 373.509 161.043 372.892 161.127 372.198C161.211 371.504 161.117 370.771 160.861 370.111C160.754 369.731 160.619 369.363 160.46 369.011C159.158 366.907 158.086 364.582 157.278 362.116C154.889 354.36 155.493 345.602 159.092 335.843C162.544 328.026 166.056 323.341 169.628 321.788C170.405 321.527 171.234 321.508 172.052 321.733C172.401 321.58 173.18 323.395 174.389 327.176L174.611 327.898C176.936 335.444 177.682 345.221 176.849 357.229C176.567 360.713 176.097 364.142 175.443 367.491L175.444 367.49Z" fill="white"/>
<path d="M305.657 241.234C306.101 241.081 306.504 240.796 306.839 240.398C307.173 240.001 307.43 239.501 307.591 238.935C308.445 224.424 308.897 215.885 308.946 213.318C309.235 211.676 309.24 209.936 308.962 208.22L308.813 207.738C307.844 205.457 306.382 203.576 304.639 202.367C300.226 199.192 296.681 198.188 294.005 199.354C293.198 199.672 292.547 200.412 292.193 201.416C292.108 201.999 291.652 210.449 290.825 226.766C290.536 228.596 290.523 230.518 290.788 232.424L290.887 232.746C291.596 235.045 293.588 237.302 296.866 239.516C300.59 241.589 303.521 242.162 305.657 241.234Z" fill="white"/>
<path d="M439.247 248.198L439.192 248.222C438.985 248.317 438.806 248.489 438.676 248.718C437.444 252.714 436.355 256.041 435.409 258.697C432.961 265.797 430.019 272.53 426.617 278.817C426.715 275.557 427.925 252.4 430.244 209.345C430.462 207.709 430.408 205.996 430.088 204.322C429.029 201.831 427.426 199.785 425.515 198.486C421.185 195.581 417.757 194.678 415.232 195.777C414.449 196.073 413.813 196.775 413.457 197.734C413.286 199.023 412.999 203.944 412.596 212.497C412.514 212.533 412.413 212.356 412.299 211.989C410.271 208.735 407.566 206.342 404.587 205.166C400.631 203.691 396.544 203.82 392.873 205.537C381.541 210.474 375.142 227.004 373.678 255.127C373.426 263.462 373.909 271.9 375.117 280.272C374.154 283.404 373.323 286.057 372.768 287.739C370.442 294.84 367.64 301.602 364.394 307.952C364.273 306.425 364.17 304.377 364.086 301.806C364.137 298.39 364.807 283.839 366.095 258.155C366.669 251.593 366.472 246.735 365.506 243.581C364.343 240.235 362.48 237.337 360.161 235.263C358.378 233.505 356.341 232.314 354.225 231.793C352.109 231.272 349.978 231.436 348.017 232.272C343.898 234.066 339.324 240.306 334.294 250.992L334.178 251.042C334.388 249.575 334.363 248.036 334.106 246.523L333.957 246.041C333.267 244.33 332.265 242.852 331.053 241.754C329.613 240.432 328.062 239.362 326.443 238.574C324.073 237.253 321.52 236.932 319.151 237.656C318.697 237.816 318.289 238.123 317.961 238.551C317.633 238.979 317.394 239.515 317.265 240.115L316.273 257.477L313.734 306.021C311.646 312.802 310.056 317.585 309.02 320.132C307.281 324.812 305.315 329.316 303.134 333.618L302.993 333.589C302.908 331.018 302.885 328.51 302.924 326.064C303.193 319.636 304.189 300.21 305.914 267.789C306.271 264.839 306.354 261.808 306.163 258.762C305.405 256.303 303.563 254.041 300.637 251.976C296.629 249.536 293.48 248.814 291.189 249.812C290.755 249.966 290.361 250.25 290.036 250.643C289.711 251.037 289.463 251.53 289.309 252.088C289.076 255.466 288.137 273.136 286.494 305.098C286.148 309.88 285.972 314.076 285.887 317.965C284.772 321.682 283.679 325.27 282.649 328.433C280.392 334.893 277.772 341.083 274.81 346.956C274.58 344.682 274.497 342.404 274.562 340.149C274.595 336.675 275.168 323.956 276.28 301.991C276.845 297.697 276.588 293.182 275.534 288.846C274.376 285.671 272.589 282.917 270.384 280.907C268.595 279.105 266.541 277.876 264.402 277.332C262.263 276.787 260.106 276.942 258.122 277.784C255.169 279.071 251.853 282.821 248.175 289.035C246.466 291.979 244.937 295.109 243.6 298.399C243.472 297.466 243.294 296.54 243.067 295.628C242.115 293.231 240.784 291.103 239.176 289.405C234.651 284.883 230.254 283.552 225.985 285.412C221.909 287.188 217.328 293.4 212.245 304.048L212.183 304.075C212.421 302.615 212.397 301.068 212.111 299.555L211.987 299.153C211.285 297.453 210.285 295.979 209.081 294.868C207.662 293.538 206.129 292.46 204.527 291.663C202.135 290.358 199.567 290.045 197.182 290.768C196.735 290.919 196.334 291.221 196.016 291.646C195.698 292.07 195.472 292.604 195.36 293.199C195.16 296.259 193.637 324.62 190.792 378.282C190.512 380.429 190.484 382.65 190.708 384.871L190.757 385.031C191.398 387.113 193.078 389.202 195.797 391.298C200.005 393.957 203.291 394.771 205.657 393.739C206.091 393.586 206.485 393.302 206.81 392.909C207.135 392.515 207.383 392.022 207.536 391.464C207.719 388.348 208.77 368.748 210.69 332.663C210.98 330.484 211.492 328.395 212.211 326.449C213.618 321.586 215.222 316.848 217.014 312.253C220.942 303.26 224.294 297.34 227.07 294.493L227.314 296.571C227.152 301.191 226.606 312.139 225.675 329.413C224.409 346.893 224.715 358.682 226.593 364.78C227.326 367.023 228.383 369.086 229.698 370.845C231.013 372.603 232.559 374.02 234.242 375.008C238.981 377.371 242.476 378.062 244.728 377.081C245.088 376.934 245.418 376.698 245.702 376.384C246.645 375.309 246.927 374.153 246.546 372.917L246.373 372.355C245.565 370.242 244.322 368.438 242.804 367.174C242.208 363.948 241.926 360.672 241.967 357.429C241.87 353.409 242.378 341.478 243.491 321.636C244.111 319.364 245.011 316.423 246.189 312.815C247.787 307.971 249.636 303.304 251.724 298.845C253.761 294.422 256.232 290.411 259.079 286.904C259.081 286.914 259.085 286.925 259.091 286.934C259.096 286.943 259.103 286.95 259.11 286.956C259.118 286.961 259.126 286.964 259.134 286.965C259.142 286.966 259.15 286.964 259.158 286.96L259.416 288.84C259.246 293.587 258.781 303.161 258.022 317.56C257.066 332.596 257.354 342.602 258.886 347.58L259.207 348.622C260.192 351.641 261.832 354.265 263.899 356.134C267.986 359.691 271.468 360.844 274.344 359.592L274.523 359.515C277.976 358.01 282.195 350.833 287.178 337.984C287.215 337.89 287.266 337.746 287.298 337.653C287.366 337.898 287.399 338.273 287.468 338.495C287.888 339.757 288.414 340.964 289.035 342.089C292.85 347.891 296.718 349.938 300.64 348.228C304.437 346.573 308.439 340.821 312.626 331.418C312.64 331.496 312.644 331.649 312.662 331.706L312.711 331.866C313.833 334.593 315.589 336.814 317.688 338.16C321.937 340.801 325.245 341.605 327.611 340.573C328.045 340.42 328.439 340.137 328.764 339.743C329.09 339.35 329.337 338.856 329.49 338.298C331.366 304.23 332.416 284.691 332.638 279.681C332.506 279.251 333.262 276.342 334.908 270.956C336.291 266.412 337.86 261.992 339.61 257.714C342.074 251.605 345.228 246.091 348.976 241.346L349.085 241.299C349.208 242.112 349.284 242.931 349.311 243.748C349.264 245.712 348.72 257.022 347.679 277.678C346.643 293.181 346.948 303.606 348.595 308.95L348.744 309.433C348.895 310.009 349.109 310.56 349.379 311.066L349.323 311.09C350.322 313.339 351.671 315.303 353.27 316.835C357.465 320.592 361.019 321.834 363.93 320.563L363.986 320.539C364.73 320.198 365.433 319.738 366.081 319.17C368.289 317.356 371.256 312.12 374.982 303.461C376.337 300.369 377.558 297.165 378.639 293.863C380.233 297.974 382.6 301.534 385.488 304.161C387.213 305.52 389.102 306.397 391.029 306.735C392.956 307.072 394.876 306.862 396.66 306.119C398.907 305.006 400.851 303.126 402.312 300.653C404.613 297.259 406.658 293.565 408.423 289.617L407.429 309.972C405.316 313.253 402.373 317.569 398.601 322.917C393.022 330.386 388.844 336.332 386.067 340.756C381.994 347.263 380.788 353.218 382.448 358.622L382.547 358.944C383.534 361.923 385.226 364.46 387.343 366.138C392.874 370.646 398.88 371.488 405.36 368.665C412.506 365.552 417.743 358.75 421.073 348.259C422.051 344.993 422.767 341.57 423.21 338.045C423.611 333.924 424.339 320.926 425.394 299.051C425.468 298.837 426.431 297.202 428.31 294.139C431.938 287.472 435.233 280.474 438.175 273.186C440.595 267.247 442.761 261.109 444.664 254.798C445.195 253.239 445.385 252.216 445.234 251.73L445.111 251.33C444.925 250.904 444.692 250.514 444.42 250.174C442.375 248.259 440.645 247.589 439.247 248.198ZM406.556 325.417C406.376 329.349 405.833 333.192 404.941 336.861C404.18 339.691 403.19 342.379 401.988 344.881C399.031 350.414 395.9 353.9 392.594 355.34L392.3 355.468C391.507 355.852 390.621 355.889 389.762 355.573C389.945 351.729 391.418 347.507 394.182 342.907C396.593 339.004 400.71 333.146 406.532 325.333L406.556 325.417ZM409.798 264.759C408.247 269.438 406.605 274.036 404.87 278.554C400.688 288.567 397.394 294.735 394.986 297.057C394.466 296.095 394.035 295.06 393.703 293.977C392.145 287.976 391.218 281.792 390.95 275.608C390.405 266.331 390.815 257.12 392.168 248.23C392.819 243.353 393.891 238.642 395.363 234.187C398.259 225.703 401.59 220.642 405.357 219.002L405.7 218.853C406.187 218.632 406.692 218.473 407.21 218.377C408.503 218.395 409.782 218.234 411.025 217.897C411.488 217.719 411.91 217.412 412.262 216.995L412.325 216.967L409.798 264.759Z" fill="white"/>
</svg>
