
<svg width="99" height="135" viewBox="0 0 99 135" fill="none" xmlns="http://www.w3.org/2000/svg">
<path d="M0.674988 67.4911C0.674988 68.0553 0.675003 68.6217 0.690808 69.1794C0.993594 85.5386 5.61393 101.19 13.6924 113.222C21.7709 125.254 32.7575 132.848 44.6086 134.591C56.4597 136.333 68.3684 132.107 78.1196 122.697C87.8709 113.287 94.8007 99.334 97.6202 83.434C97.6802 83.102 97.7371 82.7678 97.7924 82.4293C98.4558 78.4105 98.8436 74.3152 98.9509 70.1971C98.9537 70.1589 98.9537 70.1203 98.9509 70.0821C98.9841 69.2141 98.9952 68.3461 98.9952 67.4889C98.9924 50.4834 94.315 34.1058 85.898 21.6303C77.481 9.15485 65.9446 1.50084 53.5951 0.198399C41.2457 -1.10404 28.9932 4.04106 19.2872 14.6052C9.58114 25.1693 3.13676 40.3739 1.24239 57.1794L1.22657 57.3161C1.22657 57.3313 1.22657 57.353 1.22657 57.3682C1.22657 57.4355 1.20923 57.5114 1.20448 57.5852C1.01799 59.3052 0.880458 61.0413 0.791952 62.7932C0.713981 64.3454 0.674988 65.9114 0.674988 67.4911Z" fill="#E17906"/>
<path d="M0.674988 67.4911C0.674988 68.0553 0.675003 68.6217 0.690808 69.1794C0.940129 82.852 4.20866 96.098 10.0635 107.163C15.9184 118.228 24.0834 126.59 33.477 131.142C42.8706 135.693 53.0496 136.22 62.6659 132.651C72.2823 129.082 80.8821 121.587 87.3265 111.158C84.145 110.034 78.8061 105.832 69.8859 94.2643C50.1109 68.6217 45.7172 59.5729 30.8859 67.1136C16.2475 74.5566 1.60275 57.7479 1.22976 57.3161L1.20762 57.5873L0.795135 62.7953C0.715057 64.3461 0.674988 65.9114 0.674988 67.4911Z" fill="#A85400"/>
<path d="M1.22504 57.3703C8.29295 65.8181 20.6745 72.2282 30.3375 61.081C44.0687 45.2402 53.9562 53.5382 75.3812 77.6727C85.8835 89.5056 92.953 88.286 97.6202 83.4361C97.6802 83.1041 97.7371 82.77 97.7924 82.4314C98.4559 78.4126 98.8437 74.3174 98.951 70.1993C98.9538 70.161 98.9538 70.1225 98.951 70.0843C98.9841 69.2163 98.9952 68.3483 98.9952 67.4911C98.9925 50.4856 94.315 34.108 85.898 21.6325C77.481 9.15705 65.9446 1.50304 53.5951 0.200596C41.2457 -1.10185 28.9932 4.04326 19.2872 14.6074C9.58114 25.1715 3.13676 40.3761 1.2424 57.1815C1.24082 57.2423 1.23136 57.3096 1.22504 57.3703Z" fill="#631B0D"/>
<g style="mix-blend-mode:multiply" opacity="0.6">
<path d="M68.1916 110.847C88.8959 89.716 94.9665 58.1168 88.0171 24.9682C95.1391 36.9836 99.0189 52.0083 98.9999 67.4998C98.9999 68.3678 98.9888 69.2358 98.9556 70.0929C98.9584 70.1312 98.9584 70.1697 98.9556 70.2079C98.8484 74.326 98.4605 78.4213 97.7971 82.4401C97.7418 82.7786 97.6865 83.1128 97.6249 83.4448C95.5544 95.1337 91.2466 105.851 85.1473 114.487C79.048 123.123 71.3786 129.365 62.9329 132.566C54.4871 135.767 45.5717 135.812 37.1093 132.695C28.6468 129.578 20.9447 123.413 14.7998 114.838C36.533 129.184 54.4208 124.907 68.1916 110.847Z" fill="#DBDBDB"/>
</g>
<g style="mix-blend-mode:multiply">
<path d="M90.9063 30.391C96.2001 41.3999 99.0151 54.3058 98.9999 67.4976C98.9999 68.3656 98.9889 69.2336 98.9557 70.0907C98.9585 70.129 98.9585 70.1675 98.9557 70.2058C98.8484 74.3239 98.4606 78.4191 97.7972 82.4379C97.7419 82.7764 97.6865 83.1106 97.6249 83.4426C95.7882 93.806 92.1895 103.425 87.1236 111.51C82.0576 119.596 75.6685 125.919 68.4797 129.961C61.2909 134.004 53.5068 135.65 45.7652 134.766C38.0237 133.881 30.5448 130.492 23.9413 124.874C63.2953 144.686 108.827 106.477 90.9063 30.391Z" fill="#DBDBDB"/>
</g>
<g style="mix-blend-mode:multiply">
<path d="M8.35934 44.4872C8.35934 45.5314 8.58487 46.5521 9.0074 47.4204C9.42992 48.2886 10.0305 48.9653 10.7331 49.3648C11.4357 49.7644 12.2089 49.869 12.9548 49.6653C13.7008 49.4616 14.3859 48.9587 14.9237 48.2204C15.4615 47.482 15.8277 46.5413 15.9761 45.5172C16.1244 44.4931 16.0483 43.4315 15.7572 42.4668C15.4662 41.5021 14.9733 40.6775 14.341 40.0974C13.7086 39.5173 12.9652 39.2076 12.2046 39.2076C11.1848 39.2076 10.2068 39.7638 9.48562 40.7539C8.76449 41.744 8.35934 43.0869 8.35934 44.4872Z" fill="#CECECE"/>
</g>
<g style="mix-blend-mode:multiply">
<path d="M9.06427 44.4872C9.06427 45.3412 9.2487 46.1761 9.5943 46.8863C9.93989 47.5964 10.4311 48.1499 11.0058 48.4767C11.5805 48.8036 12.2129 48.8891 12.823 48.7225C13.4331 48.5559 13.9935 48.1446 14.4334 47.5407C14.8732 46.9368 15.1728 46.1673 15.2941 45.3296C15.4155 44.492 15.3532 43.6237 15.1152 42.8346C14.8771 42.0456 14.474 41.3712 13.9568 40.8967C13.4396 40.4222 12.8315 40.1689 12.2094 40.1689C11.7964 40.1689 11.3874 40.2806 11.0058 40.4976C10.6242 40.7147 10.2775 41.0327 9.98546 41.4337C9.69341 41.8347 9.46171 42.3107 9.30365 42.8346C9.14559 43.3586 9.06427 43.9201 9.06427 44.4872Z" fill="#CECECE"/>
</g>
<g style="mix-blend-mode:multiply">
<path d="M25.3937 23.3712C25.3937 24.4154 25.6193 25.4361 26.0418 26.3043C26.4643 27.1725 27.0649 27.8493 27.7675 28.2489C28.4701 28.6485 29.2433 28.753 29.9892 28.5492C30.7351 28.3455 31.4203 27.8428 31.9581 27.1044C32.4959 26.366 32.8621 25.4253 33.0105 24.4011C33.1588 23.377 33.0827 22.3155 32.7916 21.3508C32.5006 20.3861 32.0077 19.5615 31.3754 18.9813C30.743 18.4012 29.9996 18.0916 29.239 18.0916C28.2192 18.0916 27.2411 18.6478 26.52 19.6379C25.7988 20.6281 25.3937 21.9709 25.3937 23.3712Z" fill="#CECECE"/>
</g>
<g style="mix-blend-mode:multiply">
<path d="M26.0939 23.3712C26.0939 24.2253 26.2784 25.0602 26.6239 25.7703C26.9695 26.4804 27.4607 27.0339 28.0354 27.3608C28.6101 27.6876 29.2425 27.7731 29.8526 27.6064C30.4627 27.4398 31.0232 27.0286 31.463 26.4246C31.9029 25.8207 32.2024 25.0513 32.3238 24.2137C32.4451 23.376 32.3828 22.5077 32.1448 21.7187C31.9067 20.9296 31.5036 20.2552 30.9864 19.7807C30.4692 19.3062 29.8611 19.0529 29.239 19.0529C28.4049 19.0529 27.6049 19.5079 27.0151 20.3177C26.4252 21.1276 26.0939 22.2259 26.0939 23.3712Z" fill="#CECECE"/>
</g>
<g style="mix-blend-mode:multiply">
<path d="M27.0422 44.4872C27.0422 45.5314 27.2677 46.5521 27.6902 47.4204C28.1128 48.2886 28.7133 48.9653 29.4159 49.3648C30.1186 49.7644 30.8918 49.869 31.6377 49.6653C32.3836 49.4616 33.0687 48.9587 33.6065 48.2204C34.1443 47.482 34.5105 46.5413 34.6589 45.5172C34.8073 44.4931 34.7311 43.4315 34.4401 42.4668C34.149 41.5021 33.6562 40.6775 33.0238 40.0974C32.3915 39.5173 31.648 39.2076 30.8875 39.2076C29.8677 39.2076 28.8896 39.7638 28.1685 40.7539C27.4473 41.744 27.0422 43.0869 27.0422 44.4872Z" fill="#CECECE"/>
</g>
<g style="mix-blend-mode:multiply">
<path d="M27.7423 44.4872C27.7423 45.3412 27.9268 46.1761 28.2724 46.8863C28.618 47.5964 29.1092 48.1499 29.6839 48.4767C30.2586 48.8036 30.891 48.8891 31.5011 48.7225C32.1112 48.5559 32.6716 48.1446 33.1115 47.5407C33.5513 46.9368 33.8509 46.1673 33.9722 45.3296C34.0936 44.492 34.0313 43.6237 33.7932 42.8346C33.5552 42.0456 33.1521 41.3712 32.6349 40.8967C32.1177 40.4222 31.5096 40.1689 30.8875 40.1689C30.4744 40.1686 30.0653 40.2801 29.6837 40.497C29.302 40.714 28.9552 41.0321 28.6631 41.4331C28.371 41.8341 28.1393 42.3103 27.9813 42.8343C27.8233 43.3584 27.7421 43.92 27.7423 44.4872Z" fill="#CECECE"/>
</g>
<g style="mix-blend-mode:multiply">
<path d="M52.3093 10.5531C52.3096 11.5972 52.5354 12.6177 52.9582 13.4856C53.3809 14.3535 53.9815 15.0299 54.6842 15.4292C55.3869 15.8284 56.16 15.9327 56.9058 15.7288C57.6516 15.5248 58.3366 15.0218 58.8742 14.2833C59.4119 13.5449 59.778 12.6041 59.9262 11.5801C60.0744 10.556 59.9982 9.49457 59.7071 8.52998C59.416 7.56539 58.9232 6.74096 58.2908 6.16093C57.6585 5.58091 56.9151 5.2713 56.1547 5.2713C55.6495 5.27102 55.1492 5.40745 54.6825 5.67281C54.2158 5.93817 53.7917 6.32726 53.4346 6.8178C53.0775 7.30833 52.7943 7.89071 52.6012 8.53163C52.4081 9.17256 52.3089 9.85949 52.3093 10.5531Z" fill="#CECECE"/>
</g>
<g style="mix-blend-mode:multiply">
<path d="M56.1562 14.8734C57.8941 14.8734 59.3029 12.9391 59.3029 10.553C59.3029 8.1669 57.8941 6.23257 56.1562 6.23257C54.4183 6.23257 53.0095 8.1669 53.0095 10.553C53.0095 12.9391 54.4183 14.8734 56.1562 14.8734Z" fill="#CECECE"/>
</g>
<g style="mix-blend-mode:multiply">
<path d="M40.7734 30.1589C40.7734 31.2031 40.9989 32.2238 41.4214 33.092C41.844 33.9602 42.4445 34.6369 43.1472 35.0365C43.8498 35.4361 44.623 35.5406 45.3689 35.3369C46.1148 35.1332 46.8 34.6304 47.3378 33.892C47.8755 33.1537 48.2417 32.213 48.3901 31.1888C48.5385 30.1647 48.4624 29.1031 48.1713 28.1384C47.8803 27.1737 47.3874 26.3492 46.755 25.769C46.1227 25.1889 45.3792 24.8793 44.6187 24.8793C43.5989 24.8793 42.6208 25.4355 41.8997 26.4256C41.1785 27.4157 40.7734 28.7586 40.7734 30.1589Z" fill="#CECECE"/>
</g>
<g style="mix-blend-mode:multiply">
<path d="M41.4783 30.1588C41.478 31.0135 41.6623 31.8491 42.0079 32.5599C42.3536 33.2708 42.845 33.8249 43.4201 34.1521C43.9951 34.4794 44.628 34.5652 45.2385 34.3985C45.8491 34.2319 46.4099 33.8204 46.8501 33.216C47.2902 32.6117 47.59 31.8417 47.7113 31.0034C47.8327 30.1651 47.7703 29.2962 47.5319 28.5067C47.2936 27.7171 46.89 27.0424 46.3723 26.5678C45.8546 26.0932 45.2459 25.8402 44.6234 25.8406C43.7894 25.8412 42.9897 26.2963 42.3999 27.106C41.8102 27.9157 41.4787 29.0137 41.4783 30.1588Z" fill="#CECECE"/>
</g>
<g style="mix-blend-mode:multiply">
<path d="M63.2952 28.6507C63.2952 29.6949 63.5208 30.7157 63.9433 31.5839C64.3658 32.4521 64.9663 33.1288 65.669 33.5284C66.3716 33.928 67.1448 34.0326 67.8907 33.8288C68.6366 33.6251 69.3218 33.1223 69.8596 32.3839C70.3973 31.6456 70.7636 30.7049 70.9119 29.6807C71.0603 28.6566 70.9842 27.595 70.6931 26.6303C70.4021 25.6656 69.9092 24.841 69.2769 24.2609C68.6445 23.6808 67.901 23.3711 67.1405 23.3711C66.1208 23.3717 65.143 23.9282 64.4219 24.9181C63.7009 25.9081 63.2956 27.2507 63.2952 28.6507Z" fill="#CECECE"/>
</g>
<g style="mix-blend-mode:multiply">
<path d="M63.9954 28.6485C63.995 29.5032 64.1794 30.3388 64.5251 31.0496C64.8707 31.7605 65.3621 32.3145 65.9372 32.6418C66.5122 32.9691 67.1451 33.0548 67.7556 32.8882C68.3662 32.7215 68.927 32.3101 69.3672 31.7057C69.8074 31.1013 70.1071 30.3313 70.2284 29.493C70.3498 28.6547 70.2874 27.7858 70.049 26.9963C69.8107 26.2067 69.4071 25.5321 68.8894 25.0575C68.3716 24.5829 67.763 24.3298 67.1405 24.3302C66.3065 24.3308 65.5068 24.786 64.917 25.5957C64.3273 26.4054 63.9958 27.5034 63.9954 28.6485Z" fill="#CECECE"/>
</g>
<g style="mix-blend-mode:multiply">
<path d="M66.0421 58.0626C66.0421 59.1069 66.2677 60.1278 66.6903 60.996C67.1129 61.8643 67.7135 62.541 68.4163 62.9405C69.119 63.3401 69.8922 63.4445 70.6382 63.2406C71.3841 63.0367 72.0693 62.5337 72.607 61.7951C73.1447 61.0565 73.5108 60.1156 73.659 59.0913C73.8072 58.067 73.7308 57.0054 73.4396 56.0407C73.1483 55.0761 72.6552 54.2517 72.0226 53.6718C71.39 53.092 70.6464 52.7826 69.8859 52.7831C69.381 52.7831 68.881 52.9197 68.4145 53.185C67.9481 53.4504 67.5243 53.8393 67.1674 54.3295C66.8104 54.8198 66.5273 55.4019 66.3343 56.0424C66.1412 56.6829 66.0419 57.3694 66.0421 58.0626Z" fill="#CECECE"/>
</g>
<g style="mix-blend-mode:multiply">
<path d="M66.7407 58.0626C66.7407 58.9167 66.9252 59.7516 67.2707 60.4617C67.6163 61.1718 68.1076 61.7253 68.6823 62.0522C69.257 62.379 69.8894 62.4645 70.4995 62.2979C71.1096 62.1313 71.67 61.72 72.1098 61.116C72.5497 60.5121 72.8493 59.7427 72.9706 58.9051C73.092 58.0674 73.0297 57.1991 72.7916 56.4101C72.5536 55.621 72.1504 54.9466 71.6332 54.4721C71.116 53.9976 70.5079 53.7444 69.8859 53.7444C69.0518 53.7449 68.2521 54.2001 67.6624 55.0098C67.0727 55.8195 66.7411 56.9175 66.7407 58.0626Z" fill="#CECECE"/>
</g>
<g style="mix-blend-mode:multiply">
<path d="M86.3655 62.5913C86.3655 63.6354 86.591 64.6561 87.0134 65.5242C87.4359 66.3924 88.0364 67.0691 88.7389 67.4688C89.4415 67.8685 90.2146 67.9731 90.9605 67.7696C91.7063 67.5661 92.3915 67.0635 92.9293 66.3253C93.4671 65.5872 93.8335 64.6467 93.9821 63.6227C94.1306 62.5987 94.0547 61.5372 93.7639 60.5725C93.4731 59.6077 92.9805 58.783 92.3483 58.2026C91.7162 57.6222 90.9729 57.3122 90.2124 57.3118C89.7073 57.3115 89.2071 57.4478 88.7404 57.713C88.2737 57.9782 87.8496 58.3671 87.4923 58.8574C87.1351 59.3476 86.8517 59.9297 86.6584 60.5704C86.465 61.2111 86.3655 61.8978 86.3655 62.5913Z" fill="#CECECE"/>
</g>
<g style="mix-blend-mode:multiply">
<path d="M90.2124 66.9096C91.9503 66.9096 93.3592 64.9752 93.3592 62.5891C93.3592 60.203 91.9503 58.2687 90.2124 58.2687C88.4745 58.2687 87.0657 60.203 87.0657 62.5891C87.0657 64.9752 88.4745 66.9096 90.2124 66.9096Z" fill="#CECECE"/>
</g>
<g style="mix-blend-mode:multiply">
<path d="M76.478 38.4547C76.478 39.4989 76.7036 40.5196 77.1261 41.3879C77.5486 42.2561 78.1491 42.9328 78.8518 43.3324C79.5544 43.732 80.3276 43.8365 81.0735 43.6328C81.8194 43.4291 82.5046 42.9263 83.0424 42.1879C83.5801 41.4495 83.9464 40.5088 84.0948 39.4846C84.2431 38.4605 84.167 37.399 83.8759 36.4343C83.5849 35.4696 83.092 34.645 82.4597 34.0648C81.8273 33.4847 81.0838 33.1751 80.3233 33.1751C79.3035 33.1751 78.3254 33.7313 77.6043 34.7214C76.8832 35.7116 76.478 37.0544 76.478 38.4547Z" fill="#CECECE"/>
</g>
<g style="mix-blend-mode:multiply">
<path d="M77.1782 38.4524C77.1779 39.3071 77.3623 40.1428 77.7079 40.8536C78.0536 41.5644 78.545 42.1185 79.1201 42.4458C79.6951 42.773 80.3279 42.8588 80.9385 42.6921C81.549 42.5255 82.1099 42.114 82.5501 41.5097C82.9902 40.9053 83.2899 40.1352 83.4113 39.297C83.5327 38.4587 83.4702 37.5898 83.2319 36.8002C82.9935 36.0107 82.5899 35.336 82.0722 34.8614C81.5545 34.3869 80.9459 34.1338 80.3234 34.1342C79.4893 34.1342 78.6892 34.5891 78.0994 35.399C77.5096 36.2088 77.1782 37.3071 77.1782 38.4524Z" fill="#CECECE"/>
</g>
<g style="mix-blend-mode:screen" opacity="0.1">
<path d="M25.928 111.227C34.4484 111.945 30.2601 91.7189 52.8594 63.3443C72.6343 38.5154 86.7149 44.3049 86.5237 34.1538C86.2249 18.5299 67.7792 3.24677 51.3263 2.34623C28.068 1.07245 2.47681 28.1841 1.87307 61.0701C1.44318 84.3084 13.5023 110.181 25.928 111.227Z" fill="white"/>
</g>
<g style="mix-blend-mode:screen" opacity="0.1">
<path d="M49.937 1.13541C63.2131 0.937938 77.6587 9.73934 76.8764 16.1798C76.4212 19.9426 58.8589 17.6706 37.6093 45.0189C15.6928 73.2286 18.8648 101.523 15.6928 102.068C12.0403 102.695 0.0128025 78.1978 1.99315 55.6756C4.76847 24.1458 28.9166 1.44354 49.937 1.13541Z" fill="white"/>
</g>
<g style="mix-blend-mode:screen" opacity="0.2">
<path d="M68.19 11.3321C68.3481 9.29446 57.8932 3.27278 46.3794 4.44023C29.9961 6.10677 12.84 22.1972 7.09495 45.123C2.46256 63.6177 6.26202 82.5399 7.91678 82.6267C9.49726 82.7092 8.3372 66.1349 15.9772 47.9635C25.6182 25.003 42.5594 17.905 44.5413 17.0435C57.3906 11.4254 68.0225 13.348 68.19 11.3321Z" fill="white"/>
</g>
<g style="mix-blend-mode:screen" opacity="0.6">
<path d="M44.0751 6.43229C47.1902 5.92235 53.3604 7.26775 51.0766 8.51982C43.4757 11.6562 36.2089 16.1535 29.4635 21.8956C25.5123 25.2395 22.4604 21.2685 24.2874 18.5517C26.1144 15.8349 35.0948 7.89269 44.0751 6.43229Z" fill="white"/>
</g>
<g style="mix-blend-mode:screen" opacity="0.6">
<path d="M19.5665 23.9288C20.6728 22.6659 25.1851 24.5299 24.4375 25.3914C18.1443 32.2722 13.1793 41.1712 9.97929 51.3053C6.32522 62.383 8.60903 36.467 19.5665 23.9288Z" fill="white"/>
</g>
<path d="M91.8593 109.348C91.8593 109.348 91.4958 109.945 90.9568 110.847C91.371 110.5 91.6886 109.972 91.8593 109.348Z" fill="white"/>
</svg>
