
<svg width="87" height="96" viewBox="0 0 87 96" fill="none" xmlns="http://www.w3.org/2000/svg">
<g clip-path="url(#clip0)">
<path d="M2.39612e-07 41.3998C-0.00542886 44.1442 0.504874 46.8583 1.49677 49.3605C2.40251 51.6279 3.6766 53.6807 5.25218 55.4111C5.41234 55.5812 5.56801 55.77 5.72068 55.9503C8.78687 59.6153 10.4967 64.4791 10.4969 69.5363C10.4976 70.6285 10.4165 71.7188 10.2544 72.7954C10.2542 72.8189 10.2517 72.8423 10.2469 72.8651C10.0739 74.0131 9.98623 75.1756 9.98499 76.3403C9.98284 78.2481 10.2305 80.1457 10.7199 81.9706C11.8066 85.924 13.9496 89.3948 16.8513 91.9008C19.753 94.4068 23.2693 95.8236 26.912 95.9547C29.6498 96.0278 32.363 95.3535 34.824 93.9883C35.0215 93.8811 35.2176 93.7689 35.4152 93.6481C37.9064 92.1624 40.6777 91.3861 43.491 91.3861C46.3044 91.3861 49.0757 92.1624 51.5669 93.6481C51.7665 93.7615 51.9635 93.8749 52.1581 93.9883C54.4893 95.2805 57.0482 95.9546 59.642 95.9598C59.7916 95.9598 59.9264 95.9598 60.0701 95.9598C63.7129 95.8288 67.2295 94.412 70.1315 91.906C73.0334 89.4 75.1767 85.9293 76.2637 81.9758C77.0481 79.0254 77.2097 75.9065 76.7351 72.8719C76.731 72.849 76.7285 72.8256 76.7277 72.8022C76.5656 71.7256 76.4845 70.6353 76.4852 69.5431C76.4853 64.4859 78.1952 59.6221 81.2614 55.9571C81.411 55.7768 81.5697 55.5931 81.7299 55.4179C83.3053 53.6873 84.5794 51.6346 85.4853 49.3673C86.4772 46.8651 86.9875 44.151 86.982 41.4066C87.025 36.6395 85.5385 32.0178 82.8005 28.4059C80.0625 24.794 76.2605 22.4393 72.1056 21.782C71.4289 21.6703 70.7587 21.513 70.0984 21.3109C66.0785 20.0931 62.5816 17.2645 60.2527 13.3467C59.8038 12.599 59.4035 11.8151 59.0552 11.001C58.3548 9.37918 57.4657 7.87164 56.4119 6.51889C54.7783 4.4699 52.7852 2.83236 50.561 1.71169C48.3368 0.591025 45.9308 0.0120544 43.4978 0.0120544C41.0648 0.0120544 38.6587 0.591025 36.4345 1.71169C34.2103 2.83236 32.2173 4.4699 30.5836 6.51889C29.5308 7.87212 28.6422 9.37958 27.9418 11.001C27.5937 11.8152 27.1935 12.5992 26.7444 13.3467C24.4135 17.2616 20.9181 20.0895 16.9001 21.3109C16.2403 21.5128 15.5706 21.6701 14.8944 21.782C13.0923 22.0737 11.3407 22.6808 9.70211 23.5817C6.78192 25.2254 4.32525 27.7659 2.61047 30.9151C0.895695 34.0643 -0.00863549 37.6964 2.39612e-07 41.3998Z" fill="#4DA600"/>
<path d="M2.39612e-07 41.3998C-0.00542886 44.1442 0.504874 46.8583 1.49677 49.3605C2.40251 51.6279 3.6766 53.6807 5.25218 55.4111C5.41234 55.5812 5.56801 55.77 5.72068 55.9503C8.78687 59.6153 10.4967 64.4791 10.4969 69.5363C10.4976 70.6285 10.4165 71.7188 10.2544 72.7954C10.2542 72.8189 10.2517 72.8423 10.2469 72.8651C10.0739 74.0131 9.98623 75.1756 9.98499 76.3403C9.98284 78.2481 10.2305 80.1457 10.7199 81.9706C11.8066 85.924 13.9496 89.3948 16.8513 91.9008C19.753 94.4068 23.2693 95.8236 26.912 95.9547C29.6498 96.0278 32.363 95.3535 34.824 93.9883C35.0215 93.8811 35.2176 93.7689 35.4152 93.6481C37.9064 92.1624 40.6777 91.3861 43.491 91.3861C46.3044 91.3861 49.0757 92.1624 51.5669 93.6481C51.7665 93.7615 51.9635 93.8749 52.1581 93.9883C54.4893 95.2805 57.0482 95.9546 59.642 95.9598C59.7916 95.9598 59.9264 95.9598 60.0701 95.9598C63.7129 95.8288 67.2295 94.412 70.1315 91.906C73.0334 89.4 75.1767 85.9293 76.2637 81.9758C77.0481 79.0254 77.2097 75.9065 76.7351 72.8719C76.731 72.849 76.7285 72.8256 76.7277 72.8022C76.5656 71.7256 76.4845 70.6353 76.4852 69.5431C76.4853 64.4859 78.1952 59.6221 81.2614 55.9571C81.411 55.7768 81.5697 55.5931 81.7299 55.4179C83.3053 53.6873 84.5794 51.6346 85.4853 49.3673C86.4772 46.8651 86.9875 44.151 86.982 41.4066C87.025 36.6395 85.5385 32.0178 82.8005 28.4059C80.0625 24.794 76.2605 22.4393 72.1056 21.782C71.4289 21.6703 70.7587 21.513 70.0984 21.3109C66.0785 20.0931 62.5816 17.2645 60.2527 13.3467C59.8038 12.599 59.4035 11.8151 59.0552 11.001C58.3548 9.37918 57.4657 7.87164 56.4119 6.51889C54.7783 4.4699 52.7852 2.83236 50.561 1.71169C48.3368 0.591025 45.9308 0.0120544 43.4978 0.0120544C41.0648 0.0120544 38.6587 0.591025 36.4345 1.71169C34.2103 2.83236 32.2173 4.4699 30.5836 6.51889C29.5308 7.87212 28.6422 9.37958 27.9418 11.001C27.5937 11.8152 27.1935 12.5992 26.7444 13.3467C24.4135 17.2616 20.9181 20.0895 16.9001 21.3109C16.2403 21.5128 15.5706 21.6701 14.8944 21.782C13.0923 22.0737 11.3407 22.6808 9.70211 23.5817C6.78192 25.2254 4.32525 27.7659 2.61047 30.9151C0.895695 34.0643 -0.00863549 37.6964 2.39612e-07 41.3998Z" fill="#4DA600"/>
<path d="M2.39612e-07 41.3998C-0.00542886 44.1442 0.504874 46.8583 1.49677 49.3605C2.40251 51.6279 3.6766 53.6807 5.25218 55.4111C5.41234 55.5812 5.56801 55.77 5.72068 55.9503C8.78687 59.6153 10.4967 64.4791 10.4969 69.5363C10.4976 70.6285 10.4165 71.7188 10.2544 72.7954C10.2542 72.8189 10.2517 72.8423 10.2469 72.8651C10.0739 74.0131 9.98623 75.1756 9.98499 76.3403C9.98284 78.2481 10.2305 80.1457 10.7199 81.9706C11.8066 85.924 13.9496 89.3948 16.8513 91.9008C19.753 94.4068 23.2693 95.8236 26.912 95.9547C29.6498 96.0278 32.363 95.3535 34.824 93.9883C35.0215 93.8811 35.2176 93.7689 35.4152 93.6481C37.9064 92.1624 40.6777 91.3861 43.491 91.3861C46.3044 91.3861 49.0757 92.1624 51.5669 93.6481C51.7665 93.7615 51.9635 93.8749 52.1581 93.9883C54.4893 95.2805 57.0482 95.9546 59.642 95.9598C59.7916 95.9598 59.9264 95.9598 60.0701 95.9598C63.7129 95.8288 67.2295 94.412 70.1315 91.906C73.0334 89.4 75.1767 85.9293 76.2637 81.9758C77.0481 79.0254 77.2097 75.9065 76.7351 72.8719C76.731 72.849 76.7285 72.8256 76.7277 72.8022C76.5656 71.7256 76.4845 70.6353 76.4852 69.5431C76.4853 64.4859 78.1952 59.6221 81.2614 55.9571C81.411 55.7768 81.5697 55.5931 81.7299 55.4179C83.3053 53.6873 84.5794 51.6346 85.4853 49.3673C86.4772 46.8651 86.9875 44.151 86.982 41.4066C87.025 36.6395 85.5385 32.0178 82.8005 28.4059C80.0625 24.794 76.2605 22.4393 72.1056 21.782C71.4289 21.6703 70.7587 21.513 70.0984 21.3109C66.0785 20.0931 62.5816 17.2645 60.2527 13.3467C59.8038 12.599 59.4035 11.8151 59.0552 11.001C58.3548 9.37918 57.4657 7.87164 56.4119 6.51889C54.7783 4.4699 52.7852 2.83236 50.561 1.71169C48.3368 0.591025 45.9308 0.0120544 43.4978 0.0120544C41.0648 0.0120544 38.6587 0.591025 36.4345 1.71169C34.2103 2.83236 32.2173 4.4699 30.5836 6.51889C29.5308 7.87212 28.6422 9.37958 27.9418 11.001C27.5937 11.8152 27.1935 12.5992 26.7444 13.3467C24.4135 17.2616 20.9181 20.0895 16.9001 21.3109C16.2403 21.5128 15.5706 21.6701 14.8944 21.782C13.0923 22.0737 11.3407 22.6808 9.70211 23.5817C6.78192 25.2254 4.32525 27.7659 2.61047 30.9151C0.895695 34.0643 -0.00863549 37.6964 2.39612e-07 41.3998Z" fill="#4DA600"/>
<path d="M2.39612e-07 41.3998C-0.00542886 44.1442 0.504874 46.8583 1.49677 49.3605C2.40251 51.6279 3.6766 53.6807 5.25218 55.4111C5.41234 55.5812 5.56801 55.77 5.72068 55.9503C8.78687 59.6153 10.4967 64.4791 10.4969 69.5363C10.4976 70.6285 10.4165 71.7188 10.2544 72.7954C10.2542 72.8189 10.2517 72.8423 10.2469 72.8651C10.0739 74.0131 9.98623 75.1756 9.98499 76.3403C9.98284 78.2481 10.2305 80.1457 10.7199 81.9706C11.8066 85.924 13.9496 89.3948 16.8513 91.9008C19.753 94.4068 23.2693 95.8236 26.912 95.9547C29.6498 96.0278 32.363 95.3535 34.824 93.9883C35.0215 93.8811 35.2176 93.7689 35.4152 93.6481C37.9064 92.1624 40.6777 91.3861 43.491 91.3861C46.3044 91.3861 49.0757 92.1624 51.5669 93.6481C51.7665 93.7615 51.9635 93.8749 52.1581 93.9883C54.4893 95.2805 57.0482 95.9546 59.642 95.9598C59.7916 95.9598 59.9264 95.9598 60.0701 95.9598C63.7129 95.8288 67.2295 94.412 70.1315 91.906C73.0334 89.4 75.1767 85.9293 76.2637 81.9758C77.0481 79.0254 77.2097 75.9065 76.7351 72.8719C76.731 72.849 76.7285 72.8256 76.7277 72.8022C76.5656 71.7256 76.4845 70.6353 76.4852 69.5431C76.4853 64.4859 78.1952 59.6221 81.2614 55.9571C81.411 55.7768 81.5697 55.5931 81.7299 55.4179C83.3053 53.6873 84.5794 51.6346 85.4853 49.3673C86.4772 46.8651 86.9875 44.151 86.982 41.4066C87.025 36.6395 85.5385 32.0178 82.8005 28.4059C80.0625 24.794 76.2605 22.4393 72.1056 21.782C71.4289 21.6703 70.7587 21.513 70.0984 21.3109C66.0785 20.0931 62.5816 17.2645 60.2527 13.3467C59.8038 12.599 59.4035 11.8151 59.0552 11.001C58.3548 9.37918 57.4657 7.87164 56.4119 6.51889C54.7783 4.4699 52.7852 2.83236 50.561 1.71169C48.3368 0.591025 45.9308 0.0120544 43.4978 0.0120544C41.0648 0.0120544 38.6587 0.591025 36.4345 1.71169C34.2103 2.83236 32.2173 4.4699 30.5836 6.51889C29.5308 7.87212 28.6422 9.37958 27.9418 11.001C27.5937 11.8152 27.1935 12.5992 26.7444 13.3467C24.4135 17.2616 20.9181 20.0895 16.9001 21.3109C16.2403 21.5128 15.5706 21.6701 14.8944 21.782C13.0923 22.0737 11.3407 22.6808 9.70211 23.5817C6.78192 25.2254 4.32525 27.7659 2.61047 30.9151C0.895695 34.0643 -0.00863549 37.6964 2.39612e-07 41.3998Z" fill="#E17906"/>
<g style="mix-blend-mode:screen" opacity="0.2">
<path d="M3.01753 40.6151C3.50548 28.6978 15.6398 27.9664 24.8794 20.5602C30.8665 15.7565 32.5354 6.88232 36.8626 4.20663C47.8609 -2.59742 56.8954 5.29529 55.1023 17.9406C53.1266 31.86 32.1882 69.3503 19.4791 64.63C15.2507 63.0633 2.45924 54.1092 3.01753 40.6151Z" fill="white"/>
</g>
<g style="mix-blend-mode:screen" opacity="0.22">
<path d="M4.23441 39.9431C4.69242 30.7577 18.798 27.2774 25.0575 21.4498C29.1183 17.6667 34.6264 7.43852 37.5496 5.31735C44.9766 -0.0731511 52.0309 2.56683 53.3226 12.3323C54.52 21.3613 37.8579 20.4036 29.3428 27.8558C18.2936 37.526 20.6166 45.9545 15.1818 48.7391C10.3652 51.2039 3.72401 50.3329 4.23441 39.9431Z" fill="white"/>
</g>
<path d="M17.0318 52.0118C17.0321 57.9612 18.5847 63.7768 21.4933 68.7233C24.402 73.6698 28.536 77.5251 33.3726 79.8016C38.2092 82.078 43.5311 82.6735 48.6655 81.5126C53.7999 80.3518 58.5161 77.4867 62.2177 73.2798C65.9193 69.0729 68.44 63.713 69.4612 57.878C70.4824 52.0429 69.9581 45.9948 67.9547 40.4983C65.9513 35.0019 62.5587 30.304 58.206 26.9988C53.8532 23.6936 48.7358 21.9294 43.5008 21.9294C40.0247 21.9294 36.5826 22.7076 33.3712 24.2194C30.1597 25.7312 27.2417 27.947 24.7838 30.7405C22.326 33.5339 20.3763 36.8502 19.0462 40.4999C17.7161 44.1497 17.0316 48.0614 17.0318 52.0118ZM19.6287 52.0118C19.6287 46.6465 21.0286 41.4017 23.6515 36.9406C26.2744 32.4795 30.0024 29.0025 34.3641 26.9492C38.7257 24.896 43.5252 24.3586 48.1556 25.4052C52.786 26.4518 57.0394 29.0353 60.3778 32.829C63.7162 36.6227 65.9897 41.4563 66.911 46.7184C67.8322 51.9806 67.3597 57.435 65.5532 62.392C63.7467 67.349 60.6874 71.5858 56.7621 74.5669C52.8368 77.5479 48.2218 79.1392 43.5008 79.1396C37.1698 79.1396 31.098 76.2815 26.6212 71.1941C22.1444 66.1067 19.6291 59.2067 19.6287 52.0118Z" fill="#F9BF6B"/>
<g style="mix-blend-mode:multiply" opacity="0.5">
<path d="M50.4532 86.6479C72.1819 84.1882 66.6184 67.2682 69.9712 58.7717C73.9301 48.7527 83.1517 43.4218 77.3158 23.5743C80.2338 25.2212 82.6878 27.7638 84.3996 30.9141C86.1114 34.0645 87.0127 37.6967 87.0015 41.3993C87.0069 44.1437 86.4966 46.8577 85.5047 49.36C84.5988 51.6272 83.3247 53.6799 81.7493 55.4105C81.5891 55.5806 81.4335 55.7694 81.2808 55.9497C78.2146 59.6147 76.5047 64.4785 76.5046 69.5357C76.5039 70.6279 76.585 71.7182 76.747 72.7948C76.748 72.8182 76.7505 72.8416 76.7545 72.8646C77.229 75.8991 77.0675 79.018 76.283 81.9684C75.1961 85.9219 73.0528 89.3927 70.1509 91.8987C67.2489 94.4046 63.7323 95.8215 60.0895 95.9524C59.9398 95.9524 59.8066 95.9524 59.6629 95.9524C57.0691 95.9472 54.5103 95.2731 52.179 93.9809C51.9794 93.8732 51.7824 93.7598 51.5878 93.6407C49.0966 92.155 46.3253 91.3788 43.5119 91.3788C40.6986 91.3788 37.9273 92.155 35.4361 93.6407C35.2385 93.7564 35.0425 93.8687 34.8449 93.9809C32.3978 95.391 29.6745 96.0678 26.9329 95.9473C33.7462 89.9342 38.9685 87.9474 50.4532 86.6479Z" fill="#D1AD8F"/>
</g>
<path d="M29.3428 52.0102C29.3428 55.1924 30.1731 58.3032 31.7288 60.9492C33.2845 63.5952 35.4957 65.6575 38.0827 66.8753C40.6698 68.0931 43.5165 68.4117 46.2628 67.7909C49.0092 67.17 51.5319 65.6376 53.512 63.3874C55.492 61.1372 56.8404 58.2703 57.3867 55.1491C57.933 52.028 57.6526 48.7929 56.581 45.8528C55.5095 42.9128 53.6948 40.3999 51.3665 38.6319C49.0383 36.8639 46.3009 35.9203 43.5008 35.9203C39.7458 35.9203 36.1447 37.6155 33.4896 40.6329C30.8344 43.6503 29.3428 47.7429 29.3428 52.0102ZM30.7318 52.0102C30.7321 49.1406 31.4811 46.3355 32.8841 43.9497C34.2871 41.5639 36.2812 39.7044 38.614 38.6064C40.9469 37.5084 43.5139 37.2212 45.9904 37.7811C48.4669 38.341 50.7418 39.7229 52.5272 41.752C54.3127 43.7811 55.5287 46.3663 56.0214 49.1808C56.514 51.9952 56.2613 54.9125 55.2952 57.5637C54.329 60.2149 52.6928 62.481 50.5934 64.0755C48.494 65.67 46.0258 66.5212 43.5008 66.5215C40.1143 66.521 36.8667 64.992 34.4722 62.2707C32.0776 59.5494 30.7322 55.8587 30.7318 52.0102Z" fill="#F9BF6B"/>
<path d="M37.5436 52.0102C37.5436 53.3474 37.8925 54.6546 38.5462 55.7665C39.1999 56.8784 40.129 57.745 41.2161 58.2568C42.3032 58.7686 43.4994 58.9026 44.6534 58.6419C45.8075 58.3811 46.8677 57.7373 47.6998 56.7919C48.5319 55.8464 49.0987 54.6418 49.3284 53.3303C49.5582 52.0188 49.4406 50.6593 48.9905 49.4238C48.5404 48.1883 47.778 47.1321 46.7998 46.389C45.8216 45.6458 44.6714 45.249 43.4948 45.2486C41.9167 45.2486 40.4032 45.9609 39.2872 47.2289C38.1712 48.4969 37.544 50.2167 37.5436 52.0102ZM38.1273 52.0102C38.1273 50.8041 38.442 49.6252 39.0316 48.6224C39.6211 47.6196 40.4591 46.838 41.4395 46.3764C42.4199 45.9148 43.4987 45.7939 44.5396 46.0291C45.5804 46.2642 46.5365 46.8448 47.287 47.6975C48.0375 48.5502 48.5487 49.6366 48.7559 50.8194C48.9631 52.0022 48.8571 53.2283 48.4512 54.3426C48.0453 55.4569 47.3577 56.4095 46.4755 57.0797C45.5933 57.75 44.556 58.1079 43.4948 58.1083C42.0725 58.1065 40.7091 57.4632 39.7038 56.3199C38.6986 55.1765 38.1337 53.6265 38.1333 52.0102H38.1273Z" fill="#F9BF6B"/>
<g style="mix-blend-mode:multiply" opacity="0.5">
<path d="M56.9613 92.4772C69.9697 96.0034 74.511 83.4873 73.9661 73.732C73.571 66.6609 73.9661 63.6825 75.3431 60.1937C79.3021 50.1747 82.4408 51.379 84.2849 44.8012C86.1289 38.2234 85.1261 35.1174 82.6265 28.1823C85.4415 31.844 86.9946 36.5403 86.9986 41.4026C87.004 44.147 86.4937 46.8611 85.5018 49.3633C84.5959 51.6306 83.3218 53.6833 81.7464 55.4138C81.5862 55.5839 81.4306 55.7728 81.2779 55.9531C78.2116 59.618 76.5016 64.4819 76.5017 69.539C76.501 70.6313 76.5821 71.7216 76.7441 72.7982C76.745 72.8216 76.7475 72.8449 76.7516 72.8679C77.2261 75.9025 77.0646 79.0214 76.2801 81.9717C75.1932 85.9253 73.0499 89.396 70.148 91.902C67.246 94.408 63.7294 95.8248 60.0865 95.9557C59.9368 95.9557 59.8036 95.9557 59.6599 95.9557C57.0662 95.9505 54.5073 95.2765 52.1761 93.9843C51.9765 93.8765 51.7794 93.7631 51.5849 93.6441C49.0937 92.1583 46.3224 91.3822 43.509 91.3822C40.6956 91.3822 37.9243 92.1583 35.4332 93.6441C39.3308 91.1283 39.9953 87.8725 56.9613 92.4772Z" fill="#D1AD8F"/>
</g>
<path d="M17.5242 27.8541C17.5242 27.8541 3.68954 31.7341 6.89712 47.1946C7.30153 43.2789 8.46427 39.5137 10.3018 36.1696C12.1392 32.8255 14.6058 29.9857 17.5242 27.8541Z" fill="white"/>
<path d="M51.742 7.16636C51.742 7.16636 42.691 -0.870924 35.2012 9.36577C37.6565 7.6677 40.4054 6.59214 43.2602 6.21255C46.1149 5.83296 49.0081 6.1583 51.742 7.16636Z" fill="white"/>
</g>
<defs>
<clipPath id="clip0">
<rect width="87" height="96" fill="white"/>
</clipPath>
</defs>
</svg>
