
<svg width="88" height="95" viewBox="0 0 88 95" fill="none" xmlns="http://www.w3.org/2000/svg">
<path d="M-0.562172 46.2475C-0.612895 48.9276 -0.447853 51.6077 -0.0688647 54.2582C0.835374 60.6251 2.97229 66.7225 6.20546 72.1612C9.12221 77.0741 12.8676 81.3665 17.2509 84.8198C22.1031 88.6424 27.6449 91.3471 33.5245 92.7621C38.8387 94.0311 44.3259 94.2364 49.7074 93.3675C55.6668 92.4102 61.3722 90.1362 66.4595 86.6905C71.0502 83.5833 75.0598 79.5918 78.2842 74.9189C84.3099 66.1655 87.2805 55.4345 86.6828 44.5801C86.085 33.7258 81.9565 23.4303 75.0107 15.4727C68.0648 7.51501 58.738 2.39524 48.6421 0.998132C38.5461 -0.398976 28.3153 2.01433 19.7176 7.82102C15.1232 10.9304 11.1106 14.925 7.88405 19.6016C2.55306 27.3324 -0.401473 36.6413 -0.572933 46.2473L-0.562172 46.2475Z" fill="#7021CC"/>
<path d="M38.7691 43.1074C40.0861 44.566 41.5281 45.8921 43.0761 47.0685C40.8287 43.4228 39.293 39.3422 38.5604 35.0698C37.8278 30.7974 37.9132 26.4204 38.8116 22.1992C39.7099 17.978 41.4029 13.9989 43.7897 10.4987C46.1765 6.99854 49.2084 4.0488 52.7049 1.825C47.3478 0.52948 41.819 0.295851 36.3995 1.13603C31.9986 7.23422 29.8184 14.8179 30.2531 22.5158C30.6877 30.2137 33.7084 37.5178 38.7691 43.1074Z" fill="#DDC7FF"/>
<path d="M42.6722 40.8775C42.638 42.8795 42.7803 44.8823 43.0973 46.8597C43.9242 42.6345 45.546 38.6366 47.8661 35.1041C50.1863 31.5715 53.1573 28.5764 56.6024 26.2971C60.0474 24.0179 63.8961 22.501 67.9193 21.8369C71.9425 21.1727 76.0579 21.3748 80.0207 22.4312C77.0789 17.5259 73.3079 13.2347 68.8996 9.77623C61.7181 10.7548 55.1269 14.4278 50.3169 20.1317C45.5069 25.8355 42.7953 33.194 42.6722 40.8775Z" fill="#DDC7FF"/>
<path d="M43.1881 46.9818C46.5904 44.6528 50.407 43.0755 54.411 42.3439C58.4149 41.6123 62.5244 41.7413 66.4948 42.7233C70.4652 43.7052 74.2155 45.5199 77.5226 48.0596C80.8296 50.5993 83.6258 53.8119 85.7449 57.5064C86.9089 51.8868 87.075 46.0781 86.2348 40.3752C82.9957 37.7497 79.2966 35.8345 75.3572 34.7435C71.4179 33.6524 67.3184 33.4077 63.3024 34.024C59.2864 34.6402 55.4357 36.1047 51.9789 38.3306C48.5221 40.5565 45.5298 43.4984 43.1795 46.9816L43.1881 46.9818Z" fill="#DDC7FF"/>
<path d="M67.3526 79.5826C67.3164 81.9699 67.0308 84.3431 66.5009 86.6588C71.1024 83.583 75.1169 79.6219 78.34 74.9774C77.7825 70.6938 76.4199 66.5648 74.3332 62.8357C72.2464 59.1065 69.478 55.8531 66.1924 53.2688C62.9067 50.6844 59.1708 48.8218 55.2064 47.7915C51.242 46.7612 47.13 46.5841 43.1146 47.2709C50.0462 48.8539 56.261 52.9484 60.6862 58.8476C65.1114 64.7468 67.4692 72.0805 67.3526 79.5826Z" fill="#DDC7FF"/>
<path d="M33.4799 92.6965C38.8379 93.9875 44.3667 94.2172 49.7856 93.374C52.2547 89.9468 54.0435 86.0231 55.046 81.8359C56.0485 77.6486 56.2442 73.2833 55.6215 68.9989C54.9987 64.7145 53.5702 60.5985 51.4208 56.8953C49.2714 53.1921 46.4448 49.9772 43.109 47.4414C45.3555 51.0875 46.8904 55.1679 47.6226 59.4402C48.3547 63.7124 48.269 68.0892 47.3707 72.3101C46.4724 76.531 44.7798 80.5099 42.3935 84.0102C40.0072 87.5104 36.976 90.4605 33.4801 92.685L33.4799 92.6965Z" fill="#DDC7FF"/>
<path d="M6.15568 72.0881C9.09749 76.9934 12.8685 81.2846 17.2767 84.7431C21.3099 84.1905 25.1899 82.7834 28.6864 80.6054C32.183 78.4274 35.2248 75.5227 37.6314 72.0639C40.038 68.6051 41.7603 64.6626 42.6961 60.4704C43.6319 56.2782 43.7622 51.9217 43.0791 47.6596C42.2522 51.8848 40.6303 55.8827 38.3102 59.4153C35.9901 62.9479 33.019 65.9429 29.574 68.2222C26.1289 70.5014 22.2802 72.0183 18.2571 72.6824C14.2339 73.3466 10.1184 73.1445 6.15568 72.0881Z" fill="#DDC7FF"/>
<path d="M-0.575599 46.2038C-0.617849 48.8602 -0.44409 51.5175 -0.0562382 54.1465C3.18262 56.7727 6.88165 58.6884 10.8211 59.7798C14.7606 60.8712 18.8602 61.116 22.8764 60.4997C26.8926 59.8835 30.7434 58.4188 34.2002 56.1925C37.657 53.9662 40.6492 51.0239 42.9991 47.5402C39.5969 49.8693 35.7804 51.4467 31.7765 52.1785C27.7726 52.9103 23.6632 52.7815 19.6928 51.7998C15.7224 50.8181 11.9721 49.0035 8.66493 46.4641C5.3578 43.9246 2.56145 40.7122 0.442232 37.0178C-0.185869 40.0335 -0.526839 43.1108 -0.575599 46.2038Z" fill="#DDC7FF"/>
<path d="M7.84475 19.5535C8.40223 23.8369 9.76472 27.9657 11.8513 31.6947C13.938 35.4237 16.7062 38.6769 19.9916 41.2612C23.277 43.8455 27.0127 45.7082 30.9768 46.7387C34.9409 47.7692 39.0527 47.9465 43.068 47.26C39.0742 46.3439 35.2878 44.5868 31.9339 42.0935C28.5801 39.6002 25.7275 36.4216 23.5458 32.7467C21.364 29.0719 19.8978 24.9759 19.2344 20.7026C18.5709 16.4293 18.7237 12.0659 19.6838 7.87216C15.0826 10.9485 11.0682 14.9094 7.84475 19.5535Z" fill="#DDC7FF"/>
<path d="M34.9912 47.0638C34.9606 48.7714 35.4057 50.4521 36.2702 51.8933C37.1347 53.3346 38.3797 54.4717 39.8479 55.1609C41.3161 55.8501 42.9415 56.0605 44.5187 55.7654C46.0959 55.4703 47.5539 54.683 48.7086 53.503C49.8632 52.3231 50.6626 50.8034 51.0056 49.1362C51.3487 47.469 51.2199 45.7291 50.6358 44.1365C50.0516 42.5439 49.0381 41.1701 47.7236 40.1888C46.4091 39.2075 44.8524 38.6627 43.2505 38.6233C41.1016 38.5711 39.0242 39.4311 37.4752 41.014C35.9263 42.5969 35.0328 44.773 34.9912 47.0638Z" fill="#DDC7FF"/>
<path d="M38.6849 47.1582C38.6671 48.0909 38.9087 49.0088 39.3791 49.7956C39.8495 50.5824 40.5276 51.2029 41.3276 51.5785C42.1276 51.9542 43.0136 52.0682 43.8735 51.9061C44.7335 51.744 45.5288 51.3131 46.1588 50.6679C46.7888 50.0226 47.2254 49.1921 47.4131 48.2812C47.6009 47.3703 47.5315 46.4201 47.2138 45.5506C46.896 44.6811 46.3441 43.9314 45.6278 43.3963C44.9116 42.8613 44.0632 42.5649 43.19 42.5446C42.6101 42.5311 42.0337 42.6398 41.4935 42.8644C40.9533 43.089 40.4599 43.425 40.0416 43.8534C39.6233 44.2819 39.2881 44.7942 39.0553 45.3612C38.8226 45.9283 38.6967 46.5389 38.6849 47.1582Z" fill="#7021CC"/>
<g style="mix-blend-mode:multiply" opacity="0.5">
<path d="M59.5126 4.05004C65.443 6.60768 70.7777 10.5233 75.1402 15.5205C79.5027 20.5178 82.7869 26.4751 84.7612 32.9721C86.7354 39.4692 87.3516 46.3479 86.5663 53.1229C85.7809 59.898 83.6132 66.4044 80.216 72.1833C76.8188 77.9622 72.2748 82.8728 66.9046 86.5687C61.5343 90.2646 55.4687 92.6558 49.1354 93.5737C42.8021 94.4916 36.3555 93.9137 30.2502 91.881C24.1449 89.8482 18.5297 86.41 13.8006 81.8089C73.0244 98.2985 96.0242 42.5926 59.5126 4.05004Z" fill="#D4C4F2"/>
</g>
<g style="mix-blend-mode:multiply" opacity="0.9">
<path d="M29.8557 90.8394C35.171 92.1121 40.6597 92.3213 46.0436 91.4564C52.0058 90.4996 57.7138 88.225 62.8033 84.7779C67.3995 81.6683 71.4135 77.6727 74.6406 72.9945C79.8417 65.4378 82.7857 56.3782 83.088 46.9992C83.3902 37.6201 81.0367 28.3579 76.3348 20.4225C72.3943 13.7701 66.9427 8.28886 60.488 4.48952C65.9045 7.01443 70.7868 10.6857 74.8397 15.2813C78.8926 19.8769 82.0319 25.3014 84.0678 31.2268C86.1037 37.1522 86.9939 43.4553 86.6845 49.7551C86.3751 56.0549 84.8726 62.2205 82.2678 67.879C79.6631 73.5376 76.0101 78.5715 71.5299 82.6764C67.0497 86.7813 61.8353 89.872 56.202 91.7615C50.5687 93.651 44.6336 94.3001 38.7554 93.6695C32.8773 93.039 27.1783 91.1418 22.003 88.0928C24.5332 89.2729 27.1627 90.1926 29.8557 90.8394Z" fill="#D4C4F2"/>
</g>
<g style="mix-blend-mode:multiply" opacity="0.5">
<path d="M21.0195 46.746C20.9307 51.4088 22.1385 55.997 24.49 59.9303C26.8415 63.8635 30.2312 66.9652 34.2304 68.8432C38.2296 70.7212 42.6587 71.2911 46.9576 70.4807C51.2565 69.6704 55.2322 67.5163 58.3818 64.2908C61.5314 61.0653 63.7135 56.9133 64.6522 52.3599C65.591 47.8064 65.2441 43.056 63.6555 38.7093C62.0669 34.3627 59.308 30.615 55.7275 27.9402C52.1471 25.2655 47.9059 23.7838 43.5405 23.6825C37.6866 23.5466 32.0251 25.9002 27.8016 30.2255C23.5781 34.5507 21.1385 40.4933 21.0195 46.746Z" fill="#D4C4F2"/>
</g>
<g style="mix-blend-mode:multiply" opacity="0.8">
<path d="M28.7936 46.9264C28.7361 49.9468 29.5184 52.9188 31.0416 55.4667C32.5648 58.0146 34.7604 60.0239 37.351 61.2404C39.9415 62.457 42.8105 62.8263 45.5952 62.3016C48.3799 61.7769 50.9552 60.3817 52.9956 58.2925C55.036 56.2033 56.4497 53.5139 57.058 50.5644C57.6664 47.6149 57.442 44.5377 56.4132 41.7219C55.3845 38.9062 53.5976 36.4783 51.2785 34.7454C48.9595 33.0125 46.2123 32.0523 43.3845 31.9862C39.5922 31.8982 35.9246 33.4227 33.1884 36.2245C30.4521 39.0263 28.8713 42.8758 28.7936 46.9264Z" fill="#D4C4F2"/>
</g>
<g style="mix-blend-mode:screen" opacity="0.2">
<path d="M13.3786 69.9638C19.8083 70.5361 17.3546 41.1202 30.8571 29.6292C44.3596 18.1383 67.4428 24.8795 67.4101 18.91C67.357 9.71178 53.5101 4.58278 41.0921 3.76581C23.5317 2.60879 3.8935 18.096 3.06938 37.4157C2.48659 51.0689 4.00044 69.1323 13.3786 69.9638Z" fill="white"/>
</g>
<g style="mix-blend-mode:screen" opacity="0.22">
<path d="M40.6691 4.05213C50.7045 4.17002 61.5193 9.59427 60.8555 13.368C60.4691 15.5709 41.9806 7.75674 25.621 23.4603C8.73758 39.6598 16.0669 62.5165 13.6639 62.7803C10.8984 63.0863 2.08405 48.4702 3.83351 35.2717C6.2842 16.7853 24.7843 3.86517 40.6691 4.05213Z" fill="white"/>
</g>
<g style="mix-blend-mode:screen" opacity="0.37">
<path d="M53.4678 9.42464C53.6175 8.23032 45.7782 4.50558 37.0666 4.99315C24.6727 5.68266 11.5278 14.8405 6.93383 28.2154C3.22645 39.0038 5.88697 50.1929 7.13602 50.2725C8.33133 50.3485 7.27005 40.1782 13.2393 29.6331C18.5003 20.9414 26.4424 14.4913 35.692 11.3986C45.4688 8.32171 53.3183 10.6075 53.4678 9.42464Z" fill="white"/>
</g>
<g style="mix-blend-mode:screen">
<path d="M34.8389 6.26747C37.1972 6.02362 41.84 6.92126 40.1013 7.6181C34.3263 9.32659 28.7882 11.8395 23.6298 15.0922C20.6054 16.9855 18.351 14.6024 19.7598 13.039C24.1172 9.36518 29.329 7.02472 34.8389 6.26747Z" fill="white"/>
</g>
<g style="mix-blend-mode:screen">
<path d="M16.1323 16.1486C16.9795 15.4254 20.3703 16.6012 19.7968 17.0938C14.9622 21.0282 11.109 26.1729 8.57615 32.0751C5.69687 38.5262 7.70903 23.3267 16.1323 16.1486Z" fill="white"/>
</g>
</svg>
