<svg width="47" height="75" viewBox="0 0 47 75" fill="none" xmlns="http://www.w3.org/2000/svg">
<g clip-path="url(#clip0)">
<path d="M27.3296 30.4809C18.9152 45.0537 11.2284 60.0255 2.41299 74.3725C2.24289 74.6655 1.96498 74.8795 1.63926 74.9684C1.31353 75.0572 0.966108 75.0138 0.671974 74.8475C0.377841 74.6811 0.160587 74.4051 0.0670981 74.0792C-0.0263907 73.7532 0.0113838 73.4034 0.172272 73.1051C8.19532 58.2844 17.3167 44.1562 25.7338 29.5778C25.8581 29.3753 26.0555 29.2291 26.2847 29.1696C26.5139 29.1102 26.7571 29.1421 26.9634 29.2588C27.1696 29.3756 27.3229 29.568 27.3912 29.7958C27.4595 30.0236 27.4374 30.2691 27.3296 30.4809Z" fill="#FFF7C7"/>
<path d="M37.016 1.62336C37.3292 1.17568 37.7332 0.799697 38.2013 0.520147C38.6695 0.240596 39.1912 0.0638195 39.7321 0.00140355C42.2126 0.662105 46.3468 2.70792 46.9104 5.21914C47.0816 6.57384 46.8384 7.94882 46.2131 9.1612C44.4166 13.3013 42.3724 17.3282 40.0918 21.22C37.1933 26.6658 33.9591 31.9243 30.4082 36.9647C28.9717 39.2048 26.9999 41.0477 24.6727 42.3251C23.7451 42.9214 22.6639 43.2313 21.5628 43.2162C20.4618 43.2012 19.3893 42.8619 18.4782 42.2403C17.5671 41.6188 16.8573 40.7423 16.4368 39.7194C16.0162 38.6965 15.9034 37.5721 16.1122 36.4854C16.3615 34.8111 16.8619 33.1845 17.5964 31.661C22.3562 20.6292 28.9201 10.4762 37.016 1.62336Z" fill="#FF893D"/>
<path d="M38.4519 10.8788C35.3147 10.5095 32.1374 10.6938 29.0632 11.4231C30.3999 9.5643 31.7941 7.75023 33.2456 5.98097C35.7128 5.89894 38.1794 6.16282 40.5741 6.76496C42.5996 7.23445 44.4745 8.20961 46.0257 9.6003C45.5333 10.7675 45.0083 11.9218 44.4506 13.0631C42.6884 11.7953 40.6131 11.0396 38.4519 10.8788Z" fill="#FFEC69"/>
<path d="M26.8184 14.6712C32.1322 14.0077 37.9517 14.5326 42.3174 17.1921C41.802 18.1441 41.2802 19.0925 40.7519 20.0371C35.5249 18.1381 29.2644 18.5993 23.8115 19.454C24.7706 17.8334 25.7729 16.2391 26.8184 14.6712Z" fill="#FFEC69"/>
<path d="M16.0875 36.865C16.0944 36.7389 16.0999 36.6129 16.1123 36.4869C16.3615 34.8126 16.8619 33.186 17.5964 31.6625C17.6598 31.5157 17.726 31.3702 17.7907 31.2234C18.9255 30.9435 20.0759 30.7326 21.2359 30.5918C25.4052 30.14 29.6189 30.8157 33.4413 32.5489C32.7192 33.6663 31.9742 34.7688 31.2061 35.8566C28.187 34.8989 24.9917 34.6394 21.8588 35.0976C19.8572 35.3904 17.9114 35.9863 16.0875 36.865Z" fill="#FFEC69"/>
<path d="M19.4982 27.5847L19.4527 27.5944C20.3144 25.8039 21.2267 24.0392 22.1895 22.3005C24.2145 22.0249 26.2592 21.9253 28.3012 22.0027C31.8041 22.0639 35.2706 22.7287 38.5498 23.9681C37.9453 25.043 37.3334 26.1141 36.7142 27.1816C33.8894 26.6054 31.0031 26.3927 28.1248 26.5486C25.2279 26.6809 22.3446 27.0272 19.4982 27.5847Z" fill="#FFEC69"/>
<path d="M38.1501 22.5026C36.8358 25.8771 34.9535 28.999 32.5855 31.7317C31.8207 32.5323 30.3489 31.4865 30.998 30.5252C32.9714 27.5985 35.2906 24.9543 37.1414 21.9375C37.2172 21.8041 37.3425 21.7063 37.4898 21.6655C37.6371 21.6246 37.7945 21.6439 37.9277 21.7193C38.0609 21.7946 38.159 21.9199 38.2007 22.0677C38.2424 22.2154 38.2242 22.3738 38.1501 22.5082L38.1501 22.5026Z" fill="white"/>
<path d="M30.3131 33.4852C30.0749 33.7927 29.8196 34.0863 29.5483 34.3647C29.4381 34.4852 29.3333 34.6113 29.2121 34.7221C28.966 34.9396 28.6509 35.0619 28.3232 35.067C28.1443 35.0662 27.9696 35.0127 27.8206 34.9132C27.6716 34.8138 27.5548 34.6726 27.4846 34.5073C27.4144 34.3419 27.3939 34.1595 27.4257 33.9826C27.4574 33.8056 27.5399 33.6418 27.6631 33.5115C27.8267 33.3506 28.0207 33.2244 28.2336 33.1403C28.3624 33.1178 28.4898 33.0882 28.6154 33.0516C28.7522 32.9657 28.8718 32.8548 28.9681 32.7248C29.0728 32.5503 29.2398 32.4227 29.435 32.3678C29.6301 32.313 29.8388 32.3351 30.0182 32.4297C30.1959 32.531 30.3266 32.6987 30.3819 32.8964C30.4371 33.0941 30.4124 33.3057 30.3131 33.4852Z" fill="white"/>
<path d="M35.5277 5.3493C35.6655 5.69419 35.3775 6.08755 35.2273 6.39228C34.9919 6.76064 34.793 7.15127 34.6333 7.55856C34.5936 7.71533 34.516 7.85985 34.4075 7.97928C34.2989 8.09871 34.1627 8.18935 34.0109 8.24322C33.8592 8.29708 33.6965 8.31249 33.5374 8.28806C33.3783 8.26364 33.2277 8.20012 33.0988 8.10317C32.97 8.00623 32.8669 7.87885 32.7988 7.73229C32.7306 7.58573 32.6995 7.42455 32.7081 7.26301C32.7168 7.10147 32.765 6.94458 32.8484 6.80623C32.9318 6.66788 33.0479 6.55231 33.1864 6.46984C33.5102 6.24407 35.1735 4.42819 35.5291 5.3493L35.5277 5.3493Z" fill="white"/>
<path d="M36.1326 4.67752C35.9211 4.54582 35.7683 4.33704 35.7063 4.09482C35.6443 3.85259 35.6778 3.59567 35.7999 3.3777C35.9219 3.15973 36.123 2.99758 36.3612 2.92515C36.5994 2.85273 36.8562 2.8756 37.078 2.98902C37.2895 3.12071 37.4423 3.3295 37.5043 3.57172C37.5663 3.81394 37.5328 4.07087 37.4107 4.28884C37.2887 4.50681 37.0876 4.66896 36.8494 4.74139C36.6112 4.81381 36.3544 4.79094 36.1326 4.67752Z" fill="white"/>
</g>
<defs>
<clipPath id="clip0">
<rect width="47" height="75" fill="white"/>
</clipPath>
</defs>
</svg>
