<svg width="61" height="71" viewBox="0 0 61 71" fill="none" xmlns="http://www.w3.org/2000/svg">
<path d="M11.1226 54.4043L11.3207 54.7195C14.1304 58.9056 17.7115 62.1874 21.72 64.2497C25.1532 66.0073 28.7994 66.8628 32.4201 66.7603C36.0408 66.6578 39.5542 65.5996 42.7305 63.6549C45.9069 61.7102 48.6744 58.9228 50.8521 55.4753C53.0298 52.0277 54.5685 47.9977 55.3675 43.6489C55.5881 42.4373 55.7449 41.2042 55.8371 39.9573C56.126 36.3122 55.8796 32.5895 55.1098 28.9689C54.9819 28.3687 54.8324 27.7372 54.6689 27.1222C54.978 26.4219 55.0817 25.5967 54.9633 24.7799C54.6909 22.9636 54.0937 21.2223 53.2169 19.688C52.8951 19.0709 52.5365 18.4833 52.1442 17.9307L52.0791 17.8371C51.0035 16.3356 49.7652 15.7124 49.6301 16.0088C49.5693 15.9075 49.4977 15.8081 49.4266 15.6946C48.6192 14.5426 47.7493 13.4601 46.8239 12.4556C44.6126 10.0623 42.113 8.13296 39.4331 6.75104C35.9997 4.99626 32.3537 4.14328 28.7337 4.24787C25.1137 4.35247 21.6011 5.41228 18.4258 7.35801C15.2505 9.30373 12.484 12.0915 10.3071 15.5391C8.13018 18.9867 6.592 23.0163 5.79314 27.3645C4.87993 32.4189 5.03601 37.7642 6.24652 42.8917C5.67814 42.9105 5.61892 44.0681 6.0033 45.9771C6.13662 46.5977 6.29712 47.2107 6.48405 47.8134C6.49754 47.9292 6.52717 48.0424 6.57157 48.1478C7.16009 50.0842 9.02888 54.3397 11.1226 54.4043Z" fill="#EA4C95"/>
<path d="M7.18625 49.7997L7.11387 49.627L7.06765 49.5301C6.83521 48.9608 6.64035 48.3713 6.48512 47.7676C5.59354 44.8174 5.4891 42.8385 6.24164 42.8435C14.4578 42.4291 22.4007 39.8503 29.5527 35.2751C38.9871 29.6648 46.2974 22.3653 49.6155 15.9343C49.7764 15.6264 51.0354 16.3089 52.1457 17.8534C52.7311 18.704 53.2512 19.6196 53.6984 20.5867C53.7669 20.7356 53.8354 20.8845 53.898 21.031L53.9096 21.1024L54.0789 21.5136C54.5153 22.3363 54.7931 23.2655 54.8889 24.2227C54.9847 25.1799 54.8957 26.1371 54.6293 27.0136C51.4614 33.6352 44.0399 41.1045 34.4083 46.8332C27.2711 51.4054 19.3461 53.9928 11.146 54.4281C9.70565 54.4068 8.35191 52.3872 7.47849 50.4902L7.46967 50.4357C7.4327 50.3617 7.40114 50.2868 7.36308 50.206C7.32501 50.1252 7.31674 50.0742 7.28524 50.0167C7.24831 49.9471 7.21523 49.8745 7.18625 49.7997Z" fill="#E8318A"/>
<path d="M54.2284 21.8197C53.7824 20.8518 53.2623 19.936 52.6757 19.0864C51.5773 17.5294 50.3442 16.8529 50.1628 17.1714C46.848 23.6052 39.5209 30.9041 30.0865 36.5145C22.9371 41.1001 14.9939 43.6862 6.77609 44.1038C6.01865 44.0856 6.11236 46.0839 7.01957 49.0279C7.17579 49.6208 7.36986 50.1998 7.59984 50.7593L7.59212 50.7117C7.56664 50.6301 7.5326 50.5525 7.49093 50.481C7.45936 50.4061 7.43871 50.3642 7.41315 50.3092C7.38759 50.2542 7.35112 50.1661 7.32281 50.0941C7.2948 50.0364 7.27023 49.9764 7.24932 49.9146L7.2031 49.8177C6.9702 49.2485 6.77445 48.6592 6.61787 48.0557C5.72629 45.1055 5.62614 43.1189 6.37439 43.1316C14.5906 42.7172 22.5335 40.1384 29.6854 35.5632C39.1166 29.9674 46.434 22.6772 49.7515 16.2429C49.9086 15.9286 51.1661 16.6184 52.2645 18.1579C52.8537 19.0078 53.3744 19.9261 53.8182 20.898C53.8867 21.047 53.9547 21.1925 54.0178 21.3423L54.0294 21.4138L54.1987 21.8249L54.2284 21.8197Z" fill="#EE77AB"/>
<path d="M7.11651 49.6265L7.0703 49.5296C7.95451 51.4248 9.29145 53.4263 10.7302 53.4549C18.9283 53.019 26.8514 50.4319 33.9872 45.8609C43.6247 40.1347 51.0553 32.6533 54.2548 26.1241C54.5169 25.2464 54.6037 24.2899 54.508 23.3337C54.4123 22.3774 54.1368 21.4487 53.7044 20.6241C53.7729 20.773 53.8414 20.9219 53.904 21.0684L53.9156 21.1398L54.0849 21.551C54.5213 22.3737 54.7992 23.3029 54.895 24.2601C54.9907 25.2173 54.9017 26.1745 54.6353 27.051C51.4575 33.6114 44.0371 41.0875 34.4044 46.8094C27.2671 51.3816 19.3421 53.969 11.1421 54.4043C9.70499 54.3859 8.36204 52.3645 7.47617 50.4591L7.46735 50.4046C7.43039 50.3307 7.39882 50.2557 7.36076 50.1749C7.3227 50.0941 7.31234 50.0645 7.28408 50.0099C7.24998 49.9394 7.21961 49.8665 7.19319 49.7915L7.11651 49.6265Z" fill="#DD0A80"/>
<path opacity="0.2" d="M28.9411 59.9246C32.388 57.5738 30.92 52.4194 33.8625 34.4664C36.4143 18.7572 38.767 15.3034 36.6084 11.3993C33.2843 5.42175 23.0277 5.15625 16.4514 9.88273C7.18253 16.5309 2.82066 34.9171 9.31031 47.8792C13.9261 56.9994 23.9021 63.3368 28.9411 59.9246Z" fill="url(#paint0_linear)"/>
<path opacity="0.15" d="M16.4499 11.6528C21.5577 7.50107 28.9557 6.45749 29.9746 9.21756C30.5701 10.8204 23.3016 15.3495 20.6737 32.471C17.9645 50.1524 24.9958 60.1589 23.8765 61.3477C22.5909 62.7089 12.9044 56.8911 9.05926 47.5454C3.66939 34.4717 8.37111 18.2331 16.4499 11.6528Z" fill="url(#paint1_linear)"/>
<path opacity="0.1" d="M24.2358 9.59712C23.8837 8.75972 18.5909 9.63153 14.3728 13.6244C11.2023 16.8271 8.87612 21.1368 7.65965 26.0617C6.44319 30.9867 6.38544 36.3285 7.493 41.4777C9.4921 50.079 14.8417 56.2484 15.5014 55.7835C16.1612 55.3185 11.9613 49.1406 11.1856 39.7696C10.6839 32.003 12.3806 24.4382 15.9789 18.398C19.8064 12.2523 24.5874 10.4311 24.2358 9.59712Z" fill="url(#paint2_linear)"/>
<path d="M13.7025 15.4099C14.8052 14.2555 17.4738 12.8871 16.844 14.0673C14.5327 17.6421 12.6379 21.6199 11.2107 25.8937C10.3614 28.4064 8.36952 27.7889 8.52007 26.1851C9.37983 21.9979 11.1742 18.267 13.7025 15.4099Z" fill="white"/>
<path d="M7.79862 29.7248C7.96479 28.9018 10.0981 28.2355 9.98393 28.7975C8.95428 33.4589 8.8531 38.4324 9.68887 43.3012C10.5511 48.7224 6.12022 37.954 7.79862 29.7248Z" fill="white"/>
<path opacity="0.3" d="M48.8987 39.7803C50.5887 19.7307 35.9946 8.51959 30.7606 4.27812C33.7111 4.47449 36.6445 5.3091 39.4294 6.74457C43.2426 8.70929 46.6709 11.7804 49.4149 15.6895L49.6238 16.0028C49.7835 15.6881 51.0383 16.3784 52.154 17.9219C53.9571 20.489 55.7498 24.9082 54.6787 27.1134C56.1158 32.5346 56.3611 38.2484 55.3881 43.6382C54.6011 48.0004 53.0666 52.044 50.8865 55.5002C48.7063 58.9564 45.9305 61.7462 42.7434 63.6841C38.826 66.0714 34.4165 67.1196 29.9387 66.7282C35.6406 63.7773 47.2065 59.8164 48.8987 39.7803Z" fill="#E2AFC6"/>
<path opacity="0.54" d="M34.6271 66.5949L34.4922 66.6185L34.9173 66.3834L34.6271 66.5949Z" fill="#CDCCCC"/>
<path opacity="0.8" d="M53.3793 44.8497C54.3548 39.4604 54.1094 33.7458 52.6699 28.325L52.6892 28.2901C53.7791 26.0816 51.9757 21.6643 50.1644 19.0986C49.066 17.5416 47.8323 16.8616 47.6342 17.1795C47.5626 17.0801 47.4991 16.9793 47.4307 16.8653C44.6814 12.9644 41.2499 9.90235 37.4357 7.9465C32.188 5.24222 26.485 4.69111 21.1896 6.37655C20.7745 6.40006 20.3665 6.43284 19.943 6.48932C26.0464 3.35775 33.051 3.44438 39.4327 6.73035C43.2458 8.69508 46.6742 11.7662 49.4181 15.6753L49.627 15.9886C49.7868 15.6739 51.0415 16.3642 52.1572 17.9076C53.9603 20.4748 55.753 24.894 54.682 27.0992C56.119 32.5204 56.3643 38.2342 55.3914 43.624C54.6044 47.9862 53.0698 52.0298 50.8897 55.486C48.7096 58.9422 45.9337 61.732 42.7466 63.6699C42.4116 63.8788 42.0689 64.0751 41.7321 64.2563C44.6772 62.2537 47.2288 59.5025 49.234 56.1677C51.2392 52.8328 52.6567 48.9831 53.4014 44.8494L53.3793 44.8497Z" fill="#E2AFC6"/>
<path d="M46.7251 24.0464C47.0281 24.7434 47.1639 25.5238 47.1153 26.2889C47.0668 27.054 46.8362 27.7694 46.4526 28.3446C46.069 28.9197 45.5496 29.3289 44.9602 29.5203C44.3709 29.7117 43.7379 29.6768 43.1415 29.4199C42.545 29.163 42.0118 28.6958 41.6092 28.0772C41.2067 27.4586 40.953 26.7165 40.8801 25.9447C40.8073 25.1729 40.9186 24.4061 41.1999 23.7413C41.4812 23.0765 41.92 22.5436 42.4607 22.2098C43.1857 21.7624 44.0422 21.7045 44.8419 22.0489C45.6416 22.3933 46.319 23.1118 46.7251 24.0464Z" fill="#6A2349"/>
<path d="M43.4063 23.8494C43.5293 24.1363 43.5713 24.4611 43.5255 24.7687C43.4796 25.0764 43.3486 25.3479 43.1547 25.5371C42.9608 25.7264 42.7159 25.8218 42.4617 25.8071C42.2074 25.7924 41.9594 25.6685 41.7598 25.4565C41.5602 25.2445 41.4213 24.9574 41.3666 24.6439C41.312 24.3305 41.3449 24.01 41.4599 23.7369C41.5749 23.4638 41.7648 23.2549 41.9975 23.1456C42.2301 23.0363 42.4911 23.0335 42.7361 23.1375C42.8774 23.1975 43.0095 23.2913 43.1246 23.4136C43.2397 23.5358 43.3355 23.684 43.4063 23.8494Z" fill="#F6F6F6"/>
<path d="M18.852 41.1346C19.1551 41.8332 19.2904 42.6153 19.2407 43.3816C19.1909 44.1479 18.9585 44.8639 18.5727 45.4387C18.187 46.0134 17.6654 46.4211 17.0741 46.6098C16.4829 46.7986 15.8487 46.76 15.2519 46.499C14.6552 46.2379 14.1229 45.7661 13.7225 45.1435C13.3222 44.5209 13.0718 43.7755 13.0033 43.002C12.9348 42.2285 13.0512 41.4618 13.3377 40.799C13.6241 40.1363 14.0678 39.6075 14.6124 39.2797C15.337 38.8436 16.189 38.7939 16.983 39.1413C17.777 39.4886 18.4488 40.205 18.852 41.1346Z" fill="#6A2349"/>
<path d="M15.5293 40.9313C15.6319 41.1769 15.6759 41.4502 15.6559 41.7171C15.6359 41.9839 15.5527 42.2324 15.4168 42.4315C15.2808 42.6305 15.0982 42.7713 14.8917 42.8362C14.6852 42.9011 14.464 42.8872 14.2558 42.7963C14.0476 42.7054 13.8616 42.5415 13.7211 42.3251C13.5806 42.1087 13.4918 41.8495 13.4659 41.5797C13.4399 41.31 13.478 41.0418 13.5753 40.8087C13.6726 40.5756 13.8248 40.388 14.0128 40.2692C14.1405 40.1886 14.2815 40.1418 14.4275 40.1315C14.5734 40.1213 14.7214 40.1478 14.8628 40.2095C15.0041 40.2712 15.1359 40.3669 15.2504 40.4908C15.3649 40.6148 15.4597 40.7645 15.5293 40.9313Z" fill="#F6F6F6"/>
<path d="M32.732 36.8226C32.9666 37.128 33.1531 37.4788 33.2803 37.854C33.4076 38.2291 33.4729 38.621 33.4725 39.0061C33.4721 39.3913 33.4059 39.7617 33.2779 40.0954C33.1499 40.429 32.9627 40.719 32.7276 40.9479C32.4924 41.1768 32.2141 41.34 31.9093 41.4277C31.6045 41.5154 31.2794 41.5258 30.9536 41.4583C30.6277 41.3908 30.3078 41.2468 30.0129 41.0349C29.7179 40.8229 29.4541 40.5474 29.2372 40.2248C29.1759 40.1397 29.1027 40.0677 29.0217 40.0128C28.9407 39.958 28.8535 39.9214 28.7651 39.9051C28.6768 39.8889 28.5889 39.8933 28.5066 39.9181C28.4243 39.9429 28.3492 39.9877 28.2855 40.0498C28.2218 40.1119 28.1709 40.1902 28.1355 40.2802C28.1001 40.3701 28.081 40.47 28.0793 40.5741C28.0776 40.6783 28.0934 40.7845 28.1256 40.887C28.1579 40.9894 28.206 41.0859 28.2673 41.171C28.6053 41.668 29.015 42.0919 29.4722 42.4177C29.9294 42.7435 30.4248 42.9644 30.929 43.0675C31.4332 43.1706 31.936 43.1537 32.4075 43.0177C32.879 42.8818 33.3098 42.6297 33.6742 42.2762C34.0386 41.9228 34.3292 41.4753 34.5289 40.9602C34.7285 40.4451 34.8332 39.8729 34.8366 39.2775C34.84 38.6821 34.7421 38.0756 34.5487 37.4939C34.3553 36.9123 34.0704 36.3673 33.7107 35.8913C33.5868 35.719 33.4167 35.6037 33.2378 35.5706C33.059 35.5376 32.8861 35.5896 32.7572 35.7152C32.6282 35.8408 32.5538 36.0298 32.5502 36.2404C32.5467 36.4511 32.6144 36.6662 32.7383 36.8385L32.732 36.8226Z" fill="#6A2349"/>
<defs>
<linearGradient id="paint0_linear" x1="-46.8859" y1="17.187" x2="-17.0779" y2="25.7498" gradientUnits="userSpaceOnUse">
<stop stop-color="white"/>
<stop offset="0.49" stop-color="#FEFAFC"/>
<stop offset="1" stop-color="#EA4C95"/>
</linearGradient>
<linearGradient id="paint1_linear" x1="-45.4396" y1="15.8753" x2="-29.8124" y2="19.0806" gradientUnits="userSpaceOnUse">
<stop stop-color="white"/>
<stop offset="0.49" stop-color="#FEFAFC"/>
<stop offset="1" stop-color="#EA4C95"/>
</linearGradient>
<linearGradient id="paint2_linear" x1="-43.6738" y1="12.2956" x2="-27.7098" y2="16.7987" gradientUnits="userSpaceOnUse">
<stop stop-color="white"/>
<stop offset="0.49" stop-color="#FEFAFC"/>
<stop offset="1" stop-color="#EA4C95"/>
</linearGradient>
</defs>
</svg>
