<svg xmlns="http://www.w3.org/2000/svg" width="76.253" height="42.631" viewBox="0 0 76.253 42.631">
  <g id="Grupo_14635" data-name="Grupo 14635" transform="translate(-723.034 -2850.707)">
    <g id="Grupo_14627" data-name="Grupo 14627" transform="translate(723.034 2850.707)">
      <path id="Trazado_14833" data-name="Trazado 14833" d="M101.11,55.214a4.608,4.608,0,0,0-1.47-3.234l-.074-.074-.074-.074a3.946,3.946,0,0,0-2.426-.882h-.294a4.524,4.524,0,0,0-1.985.662,3.351,3.351,0,0,0-1.617-.441h-.221a2.506,2.506,0,0,0-1.4.515,3.885,3.885,0,0,0-2.205-.809H89.2a2.052,2.052,0,0,0-1.323.441,5.6,5.6,0,0,0-1.544-.221h-.294a5.569,5.569,0,0,0-2.94,1.1,2.827,2.827,0,0,0-1.4-.368h-.22a2.45,2.45,0,0,0-1.544.662l-.294.294-.294.221a4.077,4.077,0,0,0-2.5-1.029h-.147a2.735,2.735,0,0,0-1.838.882l-.074.147-.662-.441a4.07,4.07,0,0,0,.147-1.323v-.074a3,3,0,0,0-.368-1.323,10.561,10.561,0,0,0,3.528-1.911h0c.074-.074.294-.221.515-.441v.588l.074.147c.662,2.352,2.132,3.014,3.014,3.161h.073a3.015,3.015,0,0,0,.809.074,10.291,10.291,0,0,0,4.851-1.691c.441-.221,1.1-.662,2.132-1.323a2.516,2.516,0,0,0,1.323-1.691h0a2.459,2.459,0,0,0-.074-1.323l-.074-.221-.074-.147a4.609,4.609,0,0,0-1.1-1.4,6.956,6.956,0,0,0,1.1-2.426,5.5,5.5,0,0,0-.809-4.043l-.074-.074h0a9.522,9.522,0,0,0,1.4-2.94,4.341,4.341,0,0,0-.588-3.308l-.074-.074-.074-.074A5.05,5.05,0,0,0,87,28.974a3.578,3.578,0,0,0-.882-.074,6,6,0,0,0-3.9,1.764l-.074.074-.074.074a6.958,6.958,0,0,0-2.058,3.455v.147c0,.147-.074.221-.074.368a4.317,4.317,0,0,0-2.867-1.544h-.221a2.717,2.717,0,0,0-1.544.441,5.891,5.891,0,0,0-2.573-.809h-.515a7.375,7.375,0,0,0-4.851,1.985,4.166,4.166,0,0,0-.735-.956l-.074-.074-.074-.441A4.764,4.764,0,0,0,63.4,32.061h-.221a2.744,2.744,0,0,0-1.691.735,5.625,5.625,0,0,0-2.205-.441h-.441a7.148,7.148,0,0,0-5.072,2.793,4.2,4.2,0,0,0-1.323-1.176l-.074-.073h-.073a5.212,5.212,0,0,0-2.352-.662,2.5,2.5,0,0,0-.735.074,2.821,2.821,0,0,0-1.838,1.323l-.147.221-.074.221c0,.074-.074.147-.294,1.1h0l-.074-.074-.073-.073a5.233,5.233,0,0,0-1.25-.809h-.147a4.851,4.851,0,0,0-1.985-.441,2.5,2.5,0,0,0-.735.074,2.821,2.821,0,0,0-1.838,1.323v.147l-.074.294c-1.4,5.219-1.691,6.395-1.764,6.689-.294,1.1-.515,1.985-.662,2.793a10.633,10.633,0,0,0-1.838-.735h0c-.662-.147-1.838-.368-3.455-.662h0a1.385,1.385,0,0,1-.588-.147,3.092,3.092,0,0,1,.073-1.1v-.147a5.158,5.158,0,0,1,.515-1.617,2.029,2.029,0,0,0,.441.588l.221.221.221.147a3.6,3.6,0,0,0,1.838.588,2.348,2.348,0,0,0,1.029-.221l.147-.074.147-.074a1.787,1.787,0,0,0,.662-.515l.073-.074.074-.073a24.122,24.122,0,0,0,1.544-2.426,25.779,25.779,0,0,0,1.1-2.352v-.147c.809-2.279.956-3.969.441-5.292l-.22-.074a3.781,3.781,0,0,0-1.911-2.058h-.147a6.266,6.266,0,0,0-2.573-.588,6.658,6.658,0,0,0-2.352.441A11.2,11.2,0,0,0,29.887,32.5h0c-.441.515-.882,1.029-1.4,1.691a12.086,12.086,0,0,0-1.029,1.617c-.368.662-.882,1.544-1.4,2.646h0c-1.323,3.087-1.544,5.586-.735,7.571s2.646,3.455,5.439,4.263h0a8.671,8.671,0,0,0,1.47.294c-.515.441-.956.809-1.47,1.176a1.185,1.185,0,0,0-.515-.294l-.147-.074-.147-.074a4.077,4.077,0,0,0-1.25-.221,3.724,3.724,0,0,0-.956.147l-.074.073-.074.074a3.455,3.455,0,0,0-.882.662l-.074.074-.074.074a4.067,4.067,0,0,0-.735,4.043,4.46,4.46,0,0,0,3.308,2.5,4.07,4.07,0,0,0,1.323.147,5.765,5.765,0,0,0,2.426-.515,12.1,12.1,0,0,0,2.793-1.544h.147a13.989,13.989,0,0,0,2.793-2.426,10.182,10.182,0,0,0,1.838-2.646,3.985,3.985,0,0,0,1.838.441,4.521,4.521,0,0,0,.956-.074h.147c.074,0,.221-.074.294-.074a4.677,4.677,0,0,0,2.279-1.764,3.829,3.829,0,0,0,2.5.956,2.035,2.035,0,0,0,.662-.074,4.322,4.322,0,0,0-1.176,3.087h0a4.272,4.272,0,0,0,1.1,2.5h0a5.818,5.818,0,0,0,4.337,1.764h.515a7.453,7.453,0,0,0,4.41-1.911,7.989,7.989,0,0,0-.074,1.323c.074,1.838,1.176,3.528,3.234,4.851h0c.074.073.147.073.221.147-.074,0-.074,0-.147.074l-.147-.147v-.074l-.147-.074a2.932,2.932,0,0,0-1.764-.662h-.294a2.166,2.166,0,0,0-.956.368l-.074.073h-.147a3.545,3.545,0,0,0-1.764,3.234,4.013,4.013,0,0,0,2.058,3.087,4.875,4.875,0,0,0,2.72.735h.441a23.675,23.675,0,0,0,2.573-.441h.147A18.4,18.4,0,0,0,67.005,68a8.036,8.036,0,0,0,2.352-1.911,4.963,4.963,0,0,0,1.029.147h.368a4.775,4.775,0,0,0,2.426-.809,4,4,0,0,0,1.985.515h.074l.588.074.221-.147a6.477,6.477,0,0,0,3.528-2.132c.147.221.294.368.441.588l.073.074.074.074a3.9,3.9,0,0,0,2.72,1.1H83.1a4.992,4.992,0,0,0,2.058-.735c.074.074.147.074.221.147l-.662,1.47a3.626,3.626,0,0,0-.441,1.691A3.376,3.376,0,0,0,85.6,70.5l.074.074h.074a3.779,3.779,0,0,0,2.426.956h.147a2.639,2.639,0,0,0,1.764-.809l.221-.221.147-.294c.074-.074.074-.221.882-2.058.515-1.176.956-2.132,1.25-2.867a5.674,5.674,0,0,0,1.1.147h.368c1.911-.147,3.6-1.25,5-3.381h0a11.57,11.57,0,0,0,1.323-2.72,9.6,9.6,0,0,0,.662-3.749ZM67.226,59.55c-.515-.294-1.25-.662-2.205-1.176h-.074c.074-.074.074-.221.147-.368l.074-.074V57.86a2.175,2.175,0,0,0,.221-.294v.073l.221.221a2.633,2.633,0,0,0,1.985,1.1A1.01,1.01,0,0,0,67.226,59.55Z" transform="translate(-24.858 -28.9)" fill="#e84a94"/>
      <g id="Grupo_14626" data-name="Grupo 14626" transform="translate(2.083 1.953)">
        <g id="Grupo_14625" data-name="Grupo 14625">
          <g id="Grupo_14618" data-name="Grupo 14618" transform="translate(13.34)">
            <path id="Trazado_14834" data-name="Trazado 14834" d="M93.661,32.618a3.166,3.166,0,0,0-1.544-1.029,3.392,3.392,0,0,0-2.793,1.176,5.04,5.04,0,0,0-1.47,2.352v.147a2.74,2.74,0,0,0,.809,2.646c.441.368.735.588.882.588h0c-.515.588-7.424,6.248-7.865,6.615a19.8,19.8,0,0,1-2.352,1.617h0c.221-.441.441-.882.735-1.4,2.573-4.19,3.969-6.542,4.19-6.909a2.138,2.138,0,0,0,.368-.735,2.212,2.212,0,0,0-.441-1.029c-.588-.662-1.1-1.029-1.544-1.029a.492.492,0,0,0-.515.294c-.441.809-.809,1.25-.882,1.47a2.428,2.428,0,0,0-.809-1.25,3.933,3.933,0,0,0-2.058-.809c-1.544-.147-3.087.662-4.557,2.205a23.89,23.89,0,0,0-1.838,2.5,19.924,19.924,0,0,0-1.323,3.014,10.475,10.475,0,0,1-.809.882,15.452,15.452,0,0,1-2.5,2.279c0-.368,1.323-3.308,3.6-8.82a1.692,1.692,0,0,0,.221-.662c0-.294-.221-.588-.588-.956a2.538,2.538,0,0,0-1.691-.809.561.561,0,0,0-.368.147c-.074.147-.368.809-.809,1.911v-.074a2.969,2.969,0,0,0-1.1-1.25,3.4,3.4,0,0,0-2.132-.441c-2.205.147-4.116,2.058-5.66,5.66a16,16,0,0,0-.882,3.161c-.368.515-.662,1.029-.882,1.4a18.541,18.541,0,0,1-1.838,2.279h0c.074-.294.074-.662.147-1.029.221-.809.882-3.6,2.205-8.453a1.342,1.342,0,0,0,.147-.662v-.074a1.679,1.679,0,0,0-.956-.956,2.319,2.319,0,0,0-1.544-.368.517.517,0,0,0-.368.294c0,.073-.294,1.176-.809,3.087a24.208,24.208,0,0,1-1.25,2.867c-.515,1.1-1.25,2.426-2.058,3.822a12.376,12.376,0,0,1-1.838,2.5c0-.074.074-.368.147-.956.221-.809.882-3.455,2.058-7.938.147-.441.221-.735.147-.882v-.073q0-.221-.441-.662a6.357,6.357,0,0,0-.735-.515,2.28,2.28,0,0,0-1.323-.221.734.734,0,0,0-.368.294c-1.1,4.263-1.691,6.468-1.764,6.689a11.881,11.881,0,0,0-.735,4.557,1.96,1.96,0,0,0,.515,1.029,2.157,2.157,0,0,0,1.911.588.569.569,0,0,1,.221-.073c.441-.074,1.176-.809,2.132-2.132.368-.515.956-1.323,1.691-2.573a8.372,8.372,0,0,0-.147,2.205h0a5.064,5.064,0,0,0,.221.588,1.675,1.675,0,0,0,1.911.956c.882-.221,1.911-1.1,3.161-2.72a4.077,4.077,0,0,0,.441-.588,3.093,3.093,0,0,0,.735,1.47,2.434,2.434,0,0,0,1.911.735,3.2,3.2,0,0,0,1.25-.441,9.1,9.1,0,0,0,1.617-1.176l-1.029,2.573c-.515.368-1.25.809-2.132,1.323-1.323.735-2.352,1.323-3.014,1.764a2.638,2.638,0,0,0-1.47,2.205v.074a2.08,2.08,0,0,0,.515,1.176,3.84,3.84,0,0,0,3.087,1.1,5.3,5.3,0,0,0,3.749-1.985,5.07,5.07,0,0,0,.809-1.25c.221-.515.956-2.205,2.132-5,0,0,.294-.221.735-.515.735-.515,1.617-1.323,2.72-2.279a6.009,6.009,0,0,1,.662-.588,3.336,3.336,0,0,0,.588,1.691,2.362,2.362,0,0,0,1.691.956,3.644,3.644,0,0,0,2.132-.662,10.64,10.64,0,0,0,1.691-1.1h0v.074a2.035,2.035,0,0,0,.074.662c.294.956.809,1.4,1.544,1.47.882.074,2.132-.515,3.749-1.691.294-.221,8.012-6.468,9.041-7.571a1.538,1.538,0,0,1,.441.294,4.717,4.717,0,0,1-.515,1.176c-.368.515-1.1,1.47-2.279,2.94a13.566,13.566,0,0,0-2.646,4.043,1.246,1.246,0,0,0,0,.735,1.938,1.938,0,0,0,1.323,1.617h.074c.809.147,2.205-.294,4.19-1.4.368-.221,1.029-.662,1.985-1.25.221-.147.368-.221.368-.294v-.073a.27.27,0,0,0-.074-.221c-.221-.368-.368-.588-.588-.662h-.147c-.588.368-1.1.735-1.617,1.029a15.945,15.945,0,0,1-2.72,1.4c.074-.147.221-.294.368-.515.368-.441,1.1-1.4,2.205-2.793a9.85,9.85,0,0,0,2.352-3.749,3.326,3.326,0,0,0-.588-2.5,5.1,5.1,0,0,0-1.029-1.1,10.27,10.27,0,0,0,2.058-3.528A2.623,2.623,0,0,0,93.661,32.618ZM60.732,52.9c-.368.441-.662.809-.882.882a4.467,4.467,0,0,1-2.132.956h-.073a.932.932,0,0,1-.441-.074,3.991,3.991,0,0,1,1.323-1.47c.588-.441,1.617-.956,3.014-1.764h0A4.986,4.986,0,0,1,60.732,52.9Zm4.925-11.025a10.554,10.554,0,0,1-2.279,3.381h0a11.3,11.3,0,0,1-2.573,1.985.932.932,0,0,1-.074-.441,7.218,7.218,0,0,1,.368-2.5,12.725,12.725,0,0,1,1.47-3.528,8.944,8.944,0,0,1,1.176-1.691,4.172,4.172,0,0,1,2.426-1.544h.368a3.375,3.375,0,0,0,.735.074.442.442,0,0,0,.294-.074h0ZM77.2,43.937c-.515.441-1.1.882-1.617,1.25A10.008,10.008,0,0,1,72.713,46.8v-.441a6.784,6.784,0,0,1,.515-1.911,17.75,17.75,0,0,1,.809-1.838,11.657,11.657,0,0,1,1.323-1.985c.294-.368.662-.735.956-1.1A4.5,4.5,0,0,1,79.4,37.983h.074a.442.442,0,0,1,.294.074,3.071,3.071,0,0,0,.662.221h.147c-.588.956-.882,1.47-.882,1.47C78.372,41.952,77.49,43.349,77.2,43.937ZM92.191,35.19A22.751,22.751,0,0,1,90.867,37.1h0l-.588-.368c0-.074.073-.221.294-.515a8.013,8.013,0,0,1,.809-.956,3.019,3.019,0,0,1,1.25-.809A6.465,6.465,0,0,0,92.191,35.19Z" transform="translate(-45.841 -31.557)" fill="#fff"/>
          </g>
          <g id="Grupo_14619" data-name="Grupo 14619" transform="translate(0 0.47)">
            <path id="Trazado_14835" data-name="Trazado 14835" d="M39.311,50.281a3.631,3.631,0,0,0-2.72-1.911c-.662-.147-1.764-.368-3.308-.588a7.753,7.753,0,0,1-1.4-.368,1.61,1.61,0,0,1-.956-.882,4.839,4.839,0,0,1-.147-2.573,12.043,12.043,0,0,1,.735-2.573q.772-1.654,1.1-2.205a11.493,11.493,0,0,1,1.25-1.838A9.689,9.689,0,0,1,37.4,34.11a1.342,1.342,0,0,1,.662-.147,2.7,2.7,0,0,1,0,1.544c-.074.368-.147.809-.294,1.323a8.248,8.248,0,0,1-.735,1.764c-.515.882-.956,1.691-1.47,2.426-.147.147-.221.294-.147.441l.147.147a1.119,1.119,0,0,0,.882.221.072.072,0,0,0,.074-.074c.368-.515.809-1.25,1.4-2.205a19.9,19.9,0,0,0,1.029-2.132c.588-1.691.809-2.94.441-3.749l-.074-.147a1.73,1.73,0,0,0-.956-.956,3.927,3.927,0,0,0-3.161-.074,8.537,8.537,0,0,0-3.014,2.279c-.368.441-.809.956-1.25,1.47a15.74,15.74,0,0,0-.956,1.4,17.461,17.461,0,0,0-1.25,2.426c-1.029,2.5-1.323,4.484-.735,5.954.515,1.323,1.838,2.352,4.043,2.94.882.221,2.058.441,3.455.662.588.147.882.221.882.294a1.862,1.862,0,0,1-.294,1.25,9.127,9.127,0,0,1-1.4,1.617,13.583,13.583,0,0,1-4.116,2.793,1.723,1.723,0,0,1-.809.147h0a1.549,1.549,0,0,1,.368-.809.672.672,0,0,0,.221-.368V54.47a.8.8,0,0,0-.368-.294c-.294-.074-.515-.147-.662-.074-.074,0-.147.074-.221.147a1.951,1.951,0,0,0-.441,1.911,2.383,2.383,0,0,0,1.838,1.176,3.937,3.937,0,0,0,2.352-.294,21.457,21.457,0,0,0,2.426-1.323,21.957,21.957,0,0,0,2.5-2.058c1.323-1.47,1.838-2.573,1.47-3.455Z" transform="translate(-27.692 -32.197)" fill="#fff"/>
          </g>
          <g id="Grupo_14624" data-name="Grupo 14624" transform="translate(31.538 18.69)">
            <g id="Grupo_14623" data-name="Grupo 14623">
              <g id="Grupo_14620" data-name="Grupo 14620">
                <path id="Trazado_14836" data-name="Trazado 14836" d="M82.14,60.745a11.607,11.607,0,0,1-1.029,1.176c-.588.588-1.176,1.029-1.691,1.47-.147.074-.221.147-.221.294a.228.228,0,0,0,.074.147,1.072,1.072,0,0,0,.588.368h.074a16.294,16.294,0,0,0,1.617-1.323c.294-.294.735-.735,1.25-1.323a4.179,4.179,0,0,0,1.25-2.72V58.76a1.423,1.423,0,0,0-.441-.956A2.9,2.9,0,0,0,81.258,57a7.4,7.4,0,0,0-2.793.956,11.972,11.972,0,0,0-1.25.809,12.566,12.566,0,0,0-1.029.809c-.368.294-.882.809-1.544,1.47-1.4,1.617-2.058,3.014-1.985,4.263.074,1.176.809,2.205,2.279,3.234q.882.551,2.426,1.323c.368.221.588.368.588.441a1.4,1.4,0,0,1-.515.882,10.073,10.073,0,0,1-5.145,1.985,1.631,1.631,0,0,1-.662-.074h0a1.377,1.377,0,0,1,.441-.515q.221-.11.221-.221v-.073c0-.074-.074-.147-.147-.294-.294-.22-.441-.294-.515-.294a.27.27,0,0,0-.221.074,1.485,1.485,0,0,0-.809,1.323c0,.441.368.882,1.029,1.323a2.859,2.859,0,0,0,1.838.368,8.639,8.639,0,0,0,2.132-.368,10.912,10.912,0,0,0,2.352-.956q1.985-1.1,1.985-2.205v-.074a3.143,3.143,0,0,0-1.544-2.132,26.409,26.409,0,0,0-2.352-1.25,4.167,4.167,0,0,1-.956-.588,1.048,1.048,0,0,1-.441-.882,4.15,4.15,0,0,1,.515-1.911,8.871,8.871,0,0,1,1.176-1.764c.662-.735,1.1-1.176,1.323-1.4a10.242,10.242,0,0,1,1.4-1.1,7.916,7.916,0,0,1,3.455-1.544c.221,0,.441,0,.515.074a3.427,3.427,0,0,1-.368,1.176A2.918,2.918,0,0,1,82.14,60.745Z" transform="translate(-70.6 -56.985)" fill="#fff"/>
              </g>
              <g id="Grupo_14621" data-name="Grupo 14621" transform="translate(10.217 4.623)">
                <path id="Trazado_14837" data-name="Trazado 14837" d="M98.024,63.955h0a.382.382,0,0,0-.147-.294.734.734,0,0,0-.735-.368h-.074c-.074,0-.074,0-.147.074-.441,1.029-.956,1.985-1.47,3.087a25.385,25.385,0,0,1-1.838,3.014,6.883,6.883,0,0,1-1.029,1.176,3.572,3.572,0,0,1-1.029.809V71.3A5.639,5.639,0,0,1,92,69.614c.441-1.029,1.029-2.5,1.911-4.41.147-.294.221-.441.147-.515a1.371,1.371,0,0,0-.368-.735,1.514,1.514,0,0,0-1.25-.588.382.382,0,0,0-.294.147c-.441,1.029-.809,1.838-1.029,2.352a11.6,11.6,0,0,0-.515,1.176c-1.4,2.646-2.72,4.337-3.969,5v-.074a5.986,5.986,0,0,1,.147-.662q.221-.662,2.646-5.954a1.989,1.989,0,0,0,.221-.588,1.371,1.371,0,0,0-.368-.735,1.767,1.767,0,0,0-1.25-.588.382.382,0,0,0-.294.147c-.074.147-.809,1.838-2.205,5A9.048,9.048,0,0,0,84.5,71.746a1.335,1.335,0,0,0,.441,1.029,2.157,2.157,0,0,0,1.25.441h.147a3.42,3.42,0,0,0,2.132-1.029,5.38,5.38,0,0,0,.662-.662,1.4,1.4,0,0,0,.588,1.1,2.709,2.709,0,0,0,1.25.368h.221c1.176-.074,2.426-1.029,3.675-2.867a29.679,29.679,0,0,0,1.911-3.308C97.363,65.425,97.8,64.543,98.024,63.955Z" transform="translate(-84.5 -63.275)" fill="#fff"/>
              </g>
              <g id="Grupo_14622" data-name="Grupo 14622" transform="translate(22.627 3.686)">
                <path id="Trazado_14838" data-name="Trazado 14838" d="M119.183,64.132a2.573,2.573,0,0,0-.735-1.691A1.955,1.955,0,0,0,117.272,62H117.2a4.03,4.03,0,0,0-2.205,1.323,2.41,2.41,0,0,0-.441-.588,1.818,1.818,0,0,0-1.1-.515h-.074a.557.557,0,0,0-.294.147c-.074.221-.662,1.544-1.764,4.043-.074.147-.294.662-.735,1.691a7.785,7.785,0,0,0-.735.882,12.649,12.649,0,0,1-1.617,1.47h0a6.469,6.469,0,0,1,.368-1.1c1.47-3.381,2.279-5.145,2.352-5.439a1.99,1.99,0,0,0,.221-.588,1.371,1.371,0,0,0-.368-.735,1.767,1.767,0,0,0-1.25-.588.34.34,0,0,0-.368.221c-.294.588-.441,1.029-.515,1.176a1.96,1.96,0,0,0-.735-.882,2.32,2.32,0,0,0-1.617-.368,3.937,3.937,0,0,0-3.087,2.132,13.386,13.386,0,0,0-1.1,1.985,8.818,8.818,0,0,0-.735,3.455v.22a2.479,2.479,0,0,0,.662,1.617,1.887,1.887,0,0,0,1.323.515,2.754,2.754,0,0,0,1.47-.662,9.619,9.619,0,0,0,1.176-.956h0v.074c0,.147.073.294.073.441a1.362,1.362,0,0,0,1.25.956,3.9,3.9,0,0,0,2.132-1.176c-.588,1.4-1.4,3.234-2.352,5.366a1.989,1.989,0,0,0-.221.588h0c0,.221.221.515.588.809.441.294.809.515,1.1.441h0a.382.382,0,0,0,.294-.147c.074-.074.294-.735.809-1.911,1.47-3.381,2.279-5.145,2.279-5.219a1.716,1.716,0,0,0,.882.882,2.983,2.983,0,0,0,1.4.294h.074a4.415,4.415,0,0,0,3.234-2.352,9.194,9.194,0,0,0,1.1-2.279,7.869,7.869,0,0,0,.515-2.867Zm-12.789,4.337a14.109,14.109,0,0,0-1.029,1.1,8.658,8.658,0,0,1-1.911,1.47c0-.074-.074-.221-.074-.294a7.146,7.146,0,0,1,.588-2.867,8.3,8.3,0,0,1,.809-1.617c.221-.294.368-.588.588-.882a3.493,3.493,0,0,1,2.132-1.47h.294a1.94,1.94,0,0,0,.515.073h.147a10.063,10.063,0,0,0-.515,1.176A23.112,23.112,0,0,0,106.394,68.468ZM116.9,65.087a9.073,9.073,0,0,1-.588,1.691,7.323,7.323,0,0,1-1.029,1.764,3.582,3.582,0,0,1-2.279,1.617h-.221a1.656,1.656,0,0,0-.515-.074H112.2c.735-1.691,1.4-3.161,1.985-4.557,0-.074.074-.221.294-.368a4.615,4.615,0,0,1,.882-.809,5.166,5.166,0,0,1,1.764-1.25c0,.147.074.221.074.368C117.2,63.691,117.052,64.279,116.9,65.087Z" transform="translate(-101.385 -62)" fill="#fff"/>
              </g>
            </g>
          </g>
        </g>
      </g>
    </g>
  </g>
</svg>
