
<svg width="527" height="534" viewBox="0 0 527 534" fill="none" xmlns="http://www.w3.org/2000/svg">
<path d="M411.573 257.759C434.739 264.181 414.777 200.471 388.613 187.732L396.901 233.047L411.573 257.759Z" fill="#FBC100"/>
<g opacity="0.3">
<path opacity="0.3" d="M411.573 257.759C434.739 264.181 414.777 200.471 388.613 187.732L396.901 233.047L411.573 257.759Z" fill="#760153"/>
</g>
<path d="M404.934 363.72C405.064 367.877 403.985 371.902 401.9 375.036C399.814 378.17 396.867 380.197 393.613 380.735L273.38 400.866C267.991 401.765 262.474 401.17 257.211 399.124C257.211 399.124 257.193 399.125 257.182 399.126C256.742 398.95 256.305 398.776 255.877 398.583L239.527 391.404C237.383 390.461 235.497 388.726 234.119 386.43C232.741 384.134 231.937 381.385 231.815 378.55C227.324 275.361 212.846 172.852 188.703 73.3073C188.12 70.9215 188.047 68.4035 188.489 66.0111C188.932 63.6187 189.875 61.438 191.222 59.6923L203.712 43.5438L203.73 43.5426L205.03 41.8526C208.515 37.3482 213.11 34.4544 218.115 33.6137L220.038 33.2891L271.842 24.6157L288.536 21.8193L336.071 13.863L340.131 13.1853C343.278 12.6618 346.506 13.5628 349.246 15.7294C351.985 17.896 354.06 21.1889 355.105 25.0274C383.118 127.782 401.203 252.024 404.937 363.72L404.934 363.72Z" fill="#955447"/>
<path d="M334.215 188.922C337.067 207.402 339.584 225.235 342.163 244.773L330.355 252.959C329.173 241.369 329.819 247.906 328.366 236.295C322.478 188.593 314.41 141.275 304.203 94.5781L316.727 92.4645L316.9 93.2056L354.861 85.9527L356.214 85.7213L356.465 85.677L356.61 86.4292L362.511 86.0296L366.848 90.1113L359.45 100.775L322.052 106.663C321.767 106.707 321.494 106.827 321.252 107.014C321.009 107.2 320.802 107.45 320.643 107.747C320.485 108.044 320.378 108.381 320.33 108.737C320.282 109.094 320.294 109.461 320.365 109.816C323.137 123.539 325.776 137.683 328.281 152.25L319.11 170.464L331.05 168.797C331.089 169.003 331.112 169.205 331.151 169.406L365.709 163.129L371.017 162.397L371.446 162.338L375.063 161.844L382.635 166.668L373.572 178.218L336.461 184.909C336.098 184.975 335.752 185.131 335.442 185.369C335.132 185.607 334.864 185.922 334.655 186.295C334.446 186.669 334.3 187.094 334.224 187.545C334.149 187.996 334.145 188.464 334.215 188.922Z" fill="#B68662"/>
<g opacity="0.2">
<path opacity="0.2" d="M203.723 43.5249C204.127 42.9926 204.597 42.5468 205.115 42.204L203.723 43.5249Z" fill="white"/>
</g>
<path d="M303.183 97.7434L293.561 112.302L252.691 119.463C251.877 119.605 251.101 119.958 250.412 120.502C249.722 121.046 249.135 121.768 248.686 122.623C248.237 123.478 247.937 124.447 247.805 125.468C247.672 126.489 247.711 127.541 247.917 128.556C250.302 140.447 252.549 152.444 254.66 164.547L243.369 183.5C235.76 137.204 225.842 91.4712 213.675 46.5764C213.385 45.5297 212.918 44.5687 212.307 43.7613C211.696 42.9538 210.957 42.3196 210.14 41.9031C209.324 41.4867 208.451 41.2982 207.582 41.351C206.714 41.4038 205.871 41.6965 205.114 42.2086L211.58 36.0725C212.544 34.8241 217.995 33.8417 220.106 33.5889L220.032 33.2759L259.003 26.7463L261.558 26.3742C261.558 26.3742 261.577 26.373 261.58 26.3727C261.588 26.373 261.596 26.3724 261.604 26.3712L271.917 24.8648L278.43 23.9204L282.616 27.3875L276.337 40.0901L232.896 46.8309C232.439 46.9006 232.002 47.0961 231.617 47.4038C231.232 47.7116 230.908 48.124 230.667 48.6122C230.426 49.1004 230.275 49.6526 230.224 50.2299C230.173 50.8072 230.223 51.3957 230.37 51.9541C233.63 64.4279 236.747 77.1737 239.723 90.1916L228.829 107.124L244.808 104.525L244.359 103.237L289.929 95.412L290.244 96.8529L302.481 94.4704C302.712 95.5601 302.948 96.6517 303.183 97.7434Z" fill="#B68662"/>
<g opacity="0.2">
<path opacity="0.2" d="M304.12 96.3114L303.183 97.7478C302.946 96.6563 302.707 95.5626 302.476 94.4821L304.12 96.3114Z" fill="white"/>
</g>
<g opacity="0.2">
<path opacity="0.2" d="M261.411 26.3956L261.557 26.3857L259.003 26.7554L271.837 24.6001L271.918 24.8761L261.411 26.3956Z" fill="white"/>
</g>
<path d="M260.598 200.942C269.782 261.547 275.382 322.788 277.352 384.155C277.515 389.227 268.342 393.141 264.506 391.458L264.204 391.749C261.893 322.218 254.98 252.867 243.536 184.422L257.519 181.415C257.558 181.641 257.591 181.868 257.632 182.094L302.538 173.934L305.042 173.476L317.141 172.656C317.192 172.978 317.245 173.304 317.294 173.63L307.501 188.658L263.488 195.874C263.025 195.949 262.581 196.14 262.184 196.437C261.786 196.734 261.443 197.131 261.173 197.603C260.904 198.076 260.714 198.615 260.615 199.189C260.516 199.762 260.51 200.358 260.598 200.942Z" fill="#B68662"/>
<g opacity="0.2">
<path opacity="0.2" d="M317.966 172.585L317.288 173.615C317.238 173.286 317.19 172.962 317.133 172.641L317.966 172.585Z" fill="white"/>
</g>
<g opacity="0.3">
<path opacity="0.3" d="M328.67 15.1837C328.505 15.1743 328.353 15.1755 328.187 15.1867L336.28 13.9521L338.924 13.5441C339.841 13.3936 340.771 13.3628 341.699 13.4522L330.096 15.2725C329.936 15.2421 329.781 15.2274 329.629 15.2171C329.303 15.1919 328.984 15.1808 328.67 15.1837Z" fill="#760153"/>
</g>
<g opacity="0.3">
<path opacity="0.3" d="M346.202 14.8612L341.698 13.4545C343.244 13.5926 344.768 14.0686 346.202 14.8612Z" fill="#760153"/>
</g>
<g opacity="0.3">
<path opacity="0.3" d="M403.727 364.111C404.014 372.701 399.14 380.004 389.519 381.445L315.334 393.869L380.333 382.888C383.586 382.349 386.531 380.321 388.615 377.187C390.699 374.053 391.776 370.029 391.645 365.875C389.38 302.99 383.336 240.26 373.565 178.227L382.633 166.674L375.062 161.853L371.445 162.349L371.012 162.408C370.938 161.956 370.865 161.524 370.785 161.083L332.764 166.804L332.809 168.559L331.042 168.809L319.105 170.475L328.273 152.259L328.433 151.953L364.563 145.987C365.016 145.914 365.45 145.723 365.838 145.428C366.225 145.132 366.557 144.737 366.814 144.268C367.071 143.798 367.247 143.264 367.331 142.698C367.415 142.133 367.405 141.548 367.303 140.979C364.854 127.434 362.239 114.034 359.458 100.777L366.857 90.1128L362.52 86.0311L356.619 86.4307L356.471 85.6811L356.222 85.7253C356.22 85.7165 356.219 85.7071 356.22 85.6981L354.872 85.954L316.91 93.2093L316.742 92.4656L304.207 94.5822L304.018 94.6133L304.165 94.3608L313.521 78.0698L313.488 77.9325L349.241 71.836C349.703 71.7558 350.142 71.5526 350.531 71.2394C350.92 70.9262 351.248 70.5103 351.496 70.0194C351.743 69.5284 351.903 68.9735 351.965 68.3914C352.027 67.8093 351.99 67.2134 351.856 66.6428C348.782 53.6606 345.564 40.9123 342.186 28.4908L349.052 16.9773C351.302 19.1163 352.996 22.0574 353.902 25.3996C381.906 128.173 399.992 252.424 403.727 364.111Z" fill="#760153"/>
</g>
<g opacity="0.3">
<path opacity="0.3" d="M304.158 94.3616C304.163 94.4339 304.189 94.507 304.204 94.5855L304.014 94.6211L304.158 94.3616Z" fill="#760153"/>
</g>
<g opacity="0.3">
<path opacity="0.3" d="M328.422 151.947L328.262 152.253L328.216 151.979L328.422 151.947Z" fill="#760153"/>
</g>
<g opacity="0.3">
<path opacity="0.3" d="M270.096 401.519C270.371 401.478 270.547 401.466 270.634 401.46C270.509 401.491 270.24 401.509 269.968 401.528L270.096 401.519Z" fill="#760153"/>
</g>
<g opacity="0.3">
<path opacity="0.3" d="M315.337 393.867L270.097 401.508C269.893 401.521 269.63 401.539 269.293 401.562L315.337 393.867Z" fill="#760153"/>
</g>
<g opacity="0.3">
<path opacity="0.3" d="M270.096 401.519C270.371 401.478 270.547 401.466 270.634 401.46C270.509 401.491 270.24 401.509 269.968 401.528L270.096 401.519Z" fill="#760153"/>
</g>
<g opacity="0.3">
<path opacity="0.3" d="M315.337 393.867L270.097 401.508C269.893 401.521 269.63 401.539 269.293 401.562L315.337 393.867Z" fill="#760153"/>
</g>
<path d="M303.488 38.6632C303.488 38.6632 303.49 38.6905 303.491 38.6974C307.004 51.2044 310.331 64.2831 313.474 77.9335L313.507 78.0708L304.147 94.362C299.636 73.9093 294.751 53.9763 289.527 34.7938C288.556 31.2211 286.689 28.1135 284.214 25.9509C281.739 23.7882 278.793 22.6909 275.833 22.8283L292.495 21.0682C292.495 21.0682 292.531 21.0842 292.595 21.1188L336.056 13.8458L336.27 13.9616L328.176 15.1964C328.336 15.1853 328.496 15.1844 328.656 15.1937C328.973 15.1905 329.291 15.2055 329.612 15.2387C329.767 15.2466 329.922 15.2644 330.076 15.292L330.094 15.2907L341.694 13.4709L346.194 14.8778C347.207 15.4289 348.167 16.1324 349.052 16.9726L342.185 28.4884L305.56 34.4014C305.182 34.4632 304.822 34.6288 304.505 34.8867C304.188 35.1446 303.922 35.4886 303.725 35.8945C303.528 36.3004 303.405 36.7584 303.366 37.2366C303.326 37.7148 303.369 38.2016 303.494 38.6628L303.488 38.6632Z" fill="#B68662"/>
<g opacity="0.2">
<path opacity="0.2" d="M349.654 15.9617L349.047 16.9777C348.165 16.1384 347.209 15.4347 346.199 14.8822L349.654 15.9617Z" fill="white"/>
</g>
<g opacity="0.2">
<path opacity="0.2" d="M371.448 162.347L365.706 163.136L370.973 162.173L371.415 162.095L371.448 162.347Z" fill="white"/>
</g>
<path d="M264.206 391.968C264.239 393.08 264.071 394.179 263.714 395.181C263.358 396.183 262.822 397.063 262.148 397.753C261.474 398.443 260.679 398.925 259.824 399.163C258.969 399.401 258.076 399.388 257.213 399.126C257.213 399.126 257.195 399.127 257.184 399.128C256.744 398.952 256.307 398.778 255.879 398.582L239.53 391.408C237.385 390.465 235.499 388.73 234.121 386.434C232.743 384.138 231.94 381.39 231.817 378.555C227.326 275.365 212.848 172.855 188.705 73.3094C188.123 70.9243 188.049 68.4072 188.492 66.0156C188.934 63.6239 189.878 61.444 191.224 59.6991L203.714 43.5506L203.732 43.5494C204.433 42.6415 205.313 41.9832 206.288 41.6382C207.263 41.2932 208.3 41.2729 209.299 41.579C210.298 41.8851 211.227 42.5075 211.995 43.3865C212.763 44.2655 213.345 45.3714 213.686 46.5984C242.4 151.173 260.81 278.342 264.209 391.968L264.206 391.968Z" fill="#B68662"/>
<g opacity="0.2">
<path opacity="0.2" d="M275.842 22.8279L274.559 22.9628C274.993 22.8854 275.416 22.8499 275.842 22.8279Z" fill="white"/>
</g>
<path d="M404.934 363.716C405.064 367.873 403.984 371.898 401.899 375.032C399.813 378.166 396.865 380.193 393.611 380.731L273.382 400.862C270.95 401.273 268.484 401.375 266.021 401.166C262.574 400.89 259.158 400.016 255.871 398.57L239.523 391.39C237.378 390.448 235.491 388.713 234.113 386.417C232.735 384.121 231.931 381.373 231.808 378.537C230.641 350.842 228.725 323.652 226.208 297.151C225.491 289.619 224.728 282.143 223.918 274.722C228.146 274.833 232.343 275.973 236.279 278.08C249.658 310.498 264.039 319.657 281.031 268.065C281.975 265.885 283.245 263.965 284.773 262.406C288.32 258.61 294.737 254.74 305.323 257.2C313.507 259.092 324.198 264.791 338.012 277.238C360.389 297.437 370.663 294.037 375.324 285.492C376.953 282.323 378.038 278.745 378.509 274.979C379.078 270.982 379.252 266.897 379.027 262.815C379.027 262.815 385.859 251.368 399.388 276.833C399.442 277.364 399.489 277.899 399.532 278.425C400.203 285.684 400.814 292.924 401.365 300.145C403.043 321.648 404.237 342.898 404.934 363.716Z" fill="#57BAEB"/>
<g opacity="0.55">
<path opacity="0.55" d="M223.916 274.724C224.212 277.459 224.504 280.205 224.792 282.96C222.304 259.074 219.367 235.827 215.981 213.218C217.633 220.901 220.715 228.028 224.966 233.999C226.857 247.646 228.596 261.531 230.184 275.654C228.116 275.099 226.017 274.788 223.916 274.724Z" fill="white"/>
</g>
<g opacity="0.55">
<path opacity="0.55" d="M241.421 392.223L239.524 391.399C237.379 390.455 235.493 388.719 234.115 386.422C232.736 384.126 231.932 381.378 231.807 378.542C230.541 348.674 228.423 319.405 225.602 290.936C225.807 293.007 226.007 295.083 226.205 297.163L226.27 297.158C228.003 297.283 229.661 298.192 230.94 299.718C232.219 301.243 233.032 303.283 233.229 305.461C235.596 330.883 237.394 356.929 238.51 383.438C238.649 386.672 239.679 389.779 241.421 392.223Z" fill="white"/>
</g>
<g opacity="0.55">
<path opacity="0.55" d="M351.887 18.4237C350.224 17.9085 348.508 17.7879 346.83 18.0683L342.772 18.7436L295.236 26.6998L278.541 29.4988L226.737 38.1721L224.815 38.499C219.811 39.3388 215.216 42.2327 211.732 46.7377L210.432 48.4277L210.414 48.4289L197.925 64.5796C196.578 66.3247 195.635 68.5045 195.192 70.8961C194.75 73.2876 194.823 75.805 195.405 78.1901C205.211 118.498 213.413 159.339 219.98 200.558C217.564 199.777 215.305 198.316 213.375 196.286L213.383 196.4C206.8 154.931 198.559 113.844 188.693 73.2967C188.112 70.9108 188.039 68.3931 188.482 66.001C188.924 63.6089 189.866 61.4282 191.212 59.6816L203.702 43.5354L203.72 43.5341L205.02 41.8442C208.506 37.3391 213.103 34.4453 218.109 33.6052L220.03 33.2783L271.836 24.6048L288.53 21.8083L336.067 13.8519L340.123 13.1745C342.244 12.8194 344.419 13.1104 346.465 14.0233C348.511 14.9363 350.37 16.4448 351.889 18.4236L351.887 18.4237Z" fill="white"/>
</g>
<path d="M270.688 403.978C265.463 404.33 260.2 403.384 255.199 401.194L238.857 394.012C236.288 392.874 234.029 390.791 232.378 388.038C230.726 385.286 229.76 381.993 229.606 378.595C225.116 275.636 210.669 173.355 186.588 74.0298C185.891 71.1679 185.804 68.1481 186.337 65.2796C186.87 62.411 188.002 59.797 189.619 57.7049L203.417 39.8568C207.238 34.9315 212.269 31.7634 217.747 30.8333L339.758 10.4051C343.42 9.78217 347.18 10.8235 350.37 13.3441C353.56 15.8648 355.974 19.7015 357.183 24.173C385.139 126.755 403.352 250.501 407.133 363.682C407.286 368.516 406.032 373.198 403.609 376.846C401.185 380.493 397.759 382.855 393.975 383.486L273.739 403.618C272.726 403.794 271.71 403.909 270.688 403.978ZM341.367 15.8226C341.074 15.8425 340.776 15.8811 340.482 15.9284L218.465 36.3547C213.941 37.1245 209.786 39.7413 206.629 43.8086L192.831 61.6567C191.752 63.0524 190.996 64.7965 190.64 66.7105C190.284 68.6244 190.341 70.6395 190.805 72.5495C214.996 172.317 229.507 275.054 234.017 378.472C234.119 380.74 234.764 382.937 235.867 384.773C236.969 386.609 238.476 387.998 240.19 388.757L256.535 395.943C261.862 398.277 267.51 399.016 273.023 398.099L393.259 377.967C395.98 377.517 398.444 375.822 400.188 373.201C401.931 370.58 402.834 367.215 402.725 363.74C398.961 251.08 380.84 127.914 353.013 25.8331C352.192 22.8034 350.601 20.1739 348.491 18.3618C346.381 16.5496 343.875 15.6585 341.368 15.8296L341.367 15.8226Z" fill="#541C27"/>
<path d="M229.107 111.267C228.595 111.3 228.083 111.107 227.662 110.72C227.24 110.333 226.933 109.777 226.795 109.148C226.657 108.518 226.696 107.855 226.905 107.271C227.114 106.688 227.48 106.221 227.941 105.952C230.193 104.637 232.598 103.757 235.077 103.341L357.099 82.9093C360.759 82.2933 364.516 83.3383 367.703 85.8593C370.89 88.3802 373.303 92.2142 374.513 96.6823C374.61 97.0322 374.653 97.401 374.637 97.767C374.622 98.133 374.549 98.4892 374.423 98.8151C374.297 99.141 374.12 99.4303 373.902 99.666C373.685 99.9017 373.431 100.079 373.156 100.188C372.881 100.298 372.589 100.337 372.299 100.303C372.008 100.269 371.723 100.162 371.462 99.9903C371.2 99.8182 370.966 99.5838 370.774 99.3002C370.582 99.0166 370.435 98.6897 370.341 98.3381C369.469 95.1246 367.733 92.3674 365.44 90.5544C363.147 88.7414 360.445 87.9893 357.811 88.4309L235.795 108.857C233.745 109.204 231.757 109.933 229.894 111.019C229.647 111.162 229.381 111.246 229.107 111.267Z" fill="#541C27"/>
<path d="M243.729 187.32C243.211 187.355 242.694 187.157 242.269 186.762C241.844 186.368 241.538 185.801 241.406 185.162C241.274 184.523 241.323 183.853 241.545 183.269C241.767 182.686 242.148 182.226 242.62 181.972C244.664 180.882 246.821 180.139 249.036 179.761L371.047 159.338C374.708 158.721 378.466 159.765 381.655 162.285C384.844 164.804 387.259 168.638 388.471 173.106C388.644 173.803 388.596 174.549 388.338 175.185C388.08 175.821 387.632 176.297 387.089 176.513C386.547 176.728 385.952 176.666 385.432 176.339C384.911 176.012 384.506 175.446 384.302 174.761C383.428 171.547 381.69 168.789 379.396 166.976C377.101 165.164 374.398 164.412 371.763 164.855L249.757 185.28C247.927 185.59 246.145 186.206 244.457 187.111C244.227 187.232 243.981 187.303 243.729 187.32Z" fill="#541C27"/>
<path d="M332.584 275.184C332.017 275.222 331.454 274.981 331.011 274.513C330.568 274.046 330.28 273.386 330.207 272.673C329.033 261.15 327.705 249.461 326.263 237.927C317.469 167.124 304.082 97.5955 287.535 36.9015C286.667 33.6851 284.932 30.9244 282.639 29.1105C280.345 27.2965 277.642 26.5467 275.008 26.9942C274.722 27.0423 274.43 27.0184 274.147 26.9241C273.865 26.8297 273.598 26.6666 273.362 26.4442C273.127 26.2219 272.927 25.9445 272.774 25.628C272.621 25.3115 272.517 24.9621 272.47 24.5996C272.423 24.2372 272.433 23.869 272.499 23.5158C272.565 23.1626 272.686 22.8315 272.855 22.5413C273.024 22.2512 273.238 22.0076 273.484 21.8247C273.73 21.6417 274.004 21.523 274.29 21.4752C277.95 20.8531 281.708 21.8941 284.896 24.4136C288.083 26.9331 290.496 30.768 291.703 35.237C308.332 96.2436 321.784 166.09 330.626 237.226C332.068 248.813 333.401 260.556 334.582 272.129C334.619 272.493 334.6 272.86 334.524 273.21C334.449 273.56 334.319 273.885 334.142 274.167C333.965 274.45 333.744 274.683 333.493 274.855C333.241 275.026 332.963 275.132 332.676 275.167L332.584 275.184Z" fill="#541C27"/>
<g opacity="0.3">
<path opacity="0.3" d="M271.904 24.8749L261.592 26.3834C261.592 26.3834 261.573 26.3732 261.568 26.3736L271.904 24.8749Z" fill="#760153"/>
</g>
<g opacity="0.3">
<path opacity="0.3" d="M282.608 27.4087L278.426 23.9412C279.98 24.7433 281.401 25.922 282.608 27.4087Z" fill="#760153"/>
</g>
<g opacity="0.3">
<path opacity="0.3" d="M244.805 104.535L228.826 107.134L239.718 90.1989L283.422 83.1725C283.869 83.1002 284.296 82.9077 284.674 82.608C285.052 82.3082 285.372 81.9081 285.612 81.4344C285.853 80.9608 286.009 80.4245 286.071 79.8614C286.132 79.2983 286.096 78.7215 285.967 78.1695C282.915 65.2055 279.701 52.515 276.325 40.0979L282.602 27.3977C285.816 31.3116 288.171 36.2032 289.423 41.5679C294.087 58.1862 298.426 75.8817 302.471 94.4758L290.233 96.8606C290.124 96.3737 290.018 95.8957 289.915 95.4198L244.343 103.243L244.805 104.535Z" fill="#760153"/>
</g>
<g opacity="0.3">
<path opacity="0.3" d="M305.042 173.469L304.69 171.454C304.81 172.132 304.92 172.795 305.033 173.469L262 179.416L262.452 180.346L257.51 181.418L243.525 184.424C243.475 184.112 243.424 183.809 243.369 183.506L254.658 164.553L295.845 157.336C296.647 157.194 297.414 156.845 298.096 156.312C298.778 155.778 299.362 155.071 299.812 154.233C300.261 153.395 300.567 152.444 300.71 151.439C300.854 150.435 300.831 149.397 300.645 148.39C298.422 136.235 296.061 124.207 293.559 112.306L303.185 97.7494C308.254 121.391 312.87 146.462 317.132 172.648L305.042 173.469Z" fill="#760153"/>
</g>
<g opacity="0.3">
<path opacity="0.3" d="M328.07 247.643L316.653 256.485C315.47 244.894 316.119 251.42 314.671 239.813C312.539 222.698 310.144 205.643 307.486 188.648L317.281 173.618C321.139 197.458 324.721 222.207 328.07 247.643Z" fill="#760153"/>
</g>
<g opacity="0.3">
<path opacity="0.3" d="M243.527 184.422L242.713 184.599L243.363 183.504C243.424 183.809 243.475 184.11 243.527 184.422Z" fill="#760153"/>
</g>
<g opacity="0.3">
<path opacity="0.3" d="M305.04 173.467C304.932 172.799 304.817 172.12 304.697 171.453L305.04 173.467Z" fill="#760153"/>
</g>
<path d="M259.081 402.104C258.034 402.176 256.98 401.987 255.979 401.548C255.698 401.43 255.437 401.244 255.211 401.001C254.984 400.757 254.797 400.461 254.66 400.129C254.523 399.797 254.439 399.436 254.413 399.067C254.387 398.698 254.419 398.329 254.508 397.98C254.596 397.632 254.74 397.311 254.929 397.037C255.119 396.763 255.351 396.542 255.612 396.385C255.874 396.228 256.159 396.139 256.451 396.123C256.743 396.108 257.037 396.166 257.315 396.295C257.864 396.536 258.448 396.609 259.016 396.507C259.584 396.405 260.12 396.132 260.579 395.711C261.038 395.289 261.407 394.731 261.653 394.084C261.9 393.437 262.018 392.72 261.997 391.993C258.566 277.155 240.187 151.564 211.589 47.417C211.382 46.6427 211.02 45.944 210.537 45.391C210.055 44.838 209.469 44.4503 208.84 44.2668C208.209 44.0686 207.553 44.0785 206.937 44.2955C206.321 44.5125 205.764 44.9292 205.323 45.5049C205.124 45.7626 204.885 45.9666 204.621 46.1054C204.356 46.2442 204.07 46.3152 203.781 46.314C203.491 46.3128 203.202 46.2396 202.931 46.0986C202.66 45.9576 202.412 45.7515 202.201 45.4921C201.991 45.2328 201.821 44.9252 201.703 44.587C201.584 44.2488 201.519 43.8865 201.51 43.5209C201.502 43.1553 201.551 42.7936 201.654 42.4563C201.758 42.119 201.913 41.8128 202.112 41.5551C203.073 40.3093 204.28 39.4064 205.617 38.9336C206.954 38.4607 208.376 38.4336 209.747 38.855C211.117 39.2765 212.389 40.1321 213.441 41.3398C214.493 42.5474 215.289 44.0664 215.753 45.7505C244.493 150.405 262.956 276.592 266.41 391.96C266.486 394.556 265.767 397.058 264.402 398.947C263.037 400.836 261.131 401.966 259.079 402.104L259.081 402.104Z" fill="#541C27"/>
<path d="M403.007 279.592L403.009 279.615C402.168 280.71 401.627 281.273 401.627 281.273C386.608 250.134 379.026 262.847 379.026 262.847C379.026 262.847 380.615 284.218 370.92 290.513C365.048 294.321 355.03 292.605 338.015 277.254C292.897 236.564 281.039 268.084 281.039 268.084C264.044 319.674 249.663 310.51 236.284 278.09C220.093 269.413 205.289 280.189 205.289 280.189L213.445 248.927L198.548 241.093C202.459 222.67 216.105 214.045 216.105 214.045C216.105 214.045 222.873 249.805 253.47 247.752C284.068 245.702 291.006 227.483 329.24 237.814C354.378 244.6 376.565 235.01 388.818 227.64C392.313 225.59 395.678 223.221 398.887 220.55L411.72 245.284C412.363 251.539 411.917 257.853 410.411 263.781C408.906 269.709 406.379 275.109 403.008 279.601L403.007 279.592Z" fill="#FBC100"/>
<g opacity="0.55">
<path opacity="0.55" d="M265.58 300.052C255.004 311.499 245.415 300.205 236.281 278.082C220.091 269.404 205.287 280.181 205.287 280.181L213.442 248.918L198.546 241.084C202.456 222.661 216.102 214.036 216.102 214.036C216.102 214.036 216.239 214.743 216.547 215.958C212.133 220.821 208.77 227.017 206.754 233.999C206.568 234.693 206.604 235.46 206.855 236.138C207.105 236.817 207.552 237.355 208.1 237.64L217.115 242.387C218.169 242.941 219.028 243.978 219.514 245.283C219.999 246.589 220.074 248.063 219.723 249.403L212.868 275.711C219.235 271.546 226.445 269.711 233.708 270.409C236.447 270.728 239.105 271.874 241.456 273.75C243.808 275.626 245.784 278.176 247.215 281.183C253.077 293.405 259.156 300.714 265.58 300.052Z" fill="white"/>
</g>
<g opacity="0.55">
<path opacity="0.55" d="M373.943 287.65C368.738 294.465 358.405 295.641 338.014 277.247C315.779 257.187 301.618 254.675 292.979 257.29C299.635 250.793 314.939 245.107 345.596 272.759C358.838 284.701 367.839 288.389 373.943 287.65Z" fill="white"/>
</g>
<path d="M257.912 307.343C257.764 307.353 257.62 307.363 257.472 307.373C249.784 307.541 242.546 298.915 234.727 280.265C220.087 272.984 206.574 282.526 206.434 282.623C206.048 282.899 205.601 283.018 205.152 282.963C204.703 282.908 204.274 282.683 203.922 282.317C203.569 281.95 203.31 281.461 203.179 280.913C203.049 280.365 203.052 279.786 203.19 279.252L210.694 250.463L197.751 243.655C197.243 243.389 196.826 242.899 196.579 242.278C196.331 241.658 196.272 240.952 196.412 240.295C200.518 220.943 214.47 211.916 215.062 211.539C215.359 211.351 215.689 211.253 216.026 211.253C216.363 211.252 216.698 211.348 217.006 211.535C217.313 211.721 217.585 211.992 217.8 212.327C218.016 212.663 218.169 213.054 218.248 213.47C218.51 214.825 224.992 246.859 253.276 244.966L253.343 244.961C262.678 244.192 271.856 241.888 280.643 238.106C293.43 233.201 305.512 228.565 329.631 235.079C366.509 245.028 397.284 218.515 397.592 218.244C398.065 217.83 398.655 217.674 399.233 217.812C399.811 217.949 400.329 218.369 400.673 218.979C401.018 219.589 401.16 220.338 401.069 221.062C400.978 221.787 400.662 222.427 400.189 222.842C398.875 223.998 367.558 250.968 328.84 240.517C305.839 234.314 294.813 238.54 282.047 243.432C272.929 247.353 263.406 249.736 253.719 250.518L253.651 250.522C227.562 252.266 217.712 227.726 214.895 218.251C208.669 223.334 203.904 230.77 201.251 239.542L214.233 246.375C214.761 246.652 215.191 247.171 215.434 247.824C215.677 248.477 215.715 249.215 215.54 249.886L208.974 275.073C217.945 270.744 227.993 270.917 237.094 275.557C237.583 275.82 237.987 276.29 238.234 276.885C245.115 293.555 251.522 301.941 257.257 301.818C264.145 301.646 271.425 289.942 278.996 266.957L279.037 266.84C280.437 263.725 282.343 261.031 284.636 258.926C286.928 256.822 289.557 255.354 292.356 254.615C304.407 250.945 320.183 257.818 339.262 275.027C353.33 287.711 364.003 292.158 370.118 287.867C378.133 282.254 376.843 263.217 376.83 263.025C376.78 262.346 376.928 261.675 377.246 261.139C378.081 259.884 379.146 258.905 380.353 258.279C381.56 257.653 382.875 257.4 384.194 257.538C389.675 258.034 395.653 264.526 401.993 276.866C404.962 272.694 407.17 267.742 408.47 262.341C409.77 256.941 410.131 251.216 409.531 245.549C409.494 245.185 409.515 244.818 409.591 244.469C409.667 244.119 409.798 243.795 409.975 243.513C410.153 243.231 410.374 242.998 410.626 242.827C410.877 242.656 411.155 242.55 411.442 242.516C411.73 242.481 412.022 242.519 412.302 242.626C412.581 242.733 412.843 242.909 413.073 243.142C413.302 243.374 413.494 243.661 413.637 243.984C413.781 244.306 413.874 244.66 413.911 245.024C414.671 252.153 414.083 259.354 412.196 266.036C410.309 272.717 407.177 278.688 403.057 283.458C402.815 283.709 402.531 283.889 402.225 283.987C401.918 284.084 401.597 284.096 401.282 284.021C400.967 283.947 400.667 283.788 400.401 283.556C400.136 283.324 399.912 283.023 399.744 282.675C391.844 266.276 386.558 263.373 384.11 263.095C383.101 262.962 382.099 263.292 381.29 264.025C381.474 269.047 381.429 286.376 372.357 292.746C364.55 298.231 352.574 293.777 336.76 279.511C314.487 259.421 301.019 257.802 293.643 259.986C291.442 260.527 289.366 261.634 287.544 263.24C285.722 264.845 284.191 266.914 283.046 269.319C274.812 294.301 266.58 306.754 257.912 307.343Z" fill="#541C27"/>
<path d="M415.309 260.966C413.922 261.041 412.527 260.877 411.163 260.476C410.871 260.406 410.592 260.263 410.342 260.056C410.091 259.85 409.874 259.583 409.704 259.272C409.535 258.961 409.415 258.613 409.352 258.247C409.289 257.881 409.285 257.505 409.34 257.142C409.394 256.779 409.506 256.435 409.669 256.132C409.832 255.828 410.043 255.571 410.289 255.375C410.535 255.18 410.811 255.049 411.101 254.992C411.391 254.935 411.689 254.952 411.977 255.043C417.352 256.53 418.677 253.445 419.209 250.974C420.669 244.214 417.687 231.342 411.787 218.935C405.104 204.895 396.393 194.471 387.881 190.329C387.607 190.196 387.356 189.997 387.14 189.744C386.925 189.491 386.75 189.188 386.625 188.854C386.5 188.519 386.428 188.158 386.413 187.793C386.398 187.427 386.44 187.064 386.536 186.723C386.633 186.383 386.783 186.072 386.977 185.808C387.171 185.544 387.406 185.333 387.667 185.186C387.929 185.039 388.213 184.959 388.503 184.952C388.792 184.944 389.082 185.009 389.355 185.142C398.804 189.74 408.363 201.052 415.545 216.184C422.245 230.262 425.282 244.215 423.471 252.596C423.064 254.962 422.043 257.066 420.566 258.581C419.09 260.095 417.241 260.934 415.309 260.966Z" fill="#541C27"/>
<g opacity="0.3">
<path opacity="0.3" d="M305.04 173.467C304.932 172.799 304.817 172.12 304.697 171.453L305.04 173.467Z" fill="#760153"/>
</g>
<g opacity="0.2">
<path opacity="0.2" d="M305.034 173.461L302.53 173.916L302.536 173.63L305.034 173.461Z" fill="white"/>
</g>
<g opacity="0.3">
<path opacity="0.3" d="M213.375 196.289C229.145 211.889 238.682 184.867 238.956 158.303L253.467 247.731C235.173 247.228 216.886 237.947 213.375 196.289Z" fill="#760153"/>
</g>
<g opacity="0.3">
<path opacity="0.3" d="M215.981 213.211C214.706 207.705 213.84 202.077 213.393 196.4C214.274 201.957 215.137 207.561 215.981 213.211Z" fill="#760153"/>
</g>
<g opacity="0.3">
<path opacity="0.3" d="M403.011 279.587C403.798 276.028 401.625 281.263 401.625 281.263C386.611 250.116 379.027 262.826 379.027 262.826C379.027 262.826 380.617 284.203 370.921 290.496L368.623 289.798C370.906 282.508 371.663 273.255 370.894 262.041C370.151 251.063 377.763 245.099 385.962 249.194C388.7 250.574 391.353 253.602 395.541 254.701C410.163 258.516 396.088 230.272 388.826 227.599C392.321 225.55 395.687 223.186 398.9 220.523L411.733 245.25C412.378 251.509 411.931 257.827 410.424 263.759C408.917 269.691 406.386 275.094 403.011 279.587Z" fill="#541C27"/>
</g>
<g opacity="0.3">
<path opacity="0.3" d="M404.934 363.721C405.064 367.877 403.984 371.901 401.898 375.036C399.813 378.17 396.865 380.197 393.611 380.735L273.383 400.873C270.95 401.277 268.484 401.378 266.021 401.173L264.966 400.844C315.97 392.27 356.556 376.187 368.704 339.572C369.522 337.046 369.905 334.315 369.829 331.555C369.752 328.796 369.218 326.068 368.261 323.549C367.303 321.03 365.943 318.776 364.27 316.931C362.596 315.087 360.645 313.693 358.543 312.84C351.733 309.662 345.314 305.21 339.505 299.639C294.393 258.951 282.53 290.467 282.53 290.467C265.537 342.062 251.155 332.896 237.778 300.484C234.091 298.51 230.171 297.383 226.209 297.16C225.492 289.622 224.728 282.144 223.918 274.726C228.146 274.845 232.342 275.985 236.279 278.084C249.658 310.5 264.04 319.663 281.031 268.071C281.976 265.891 283.246 263.969 284.773 262.408C291.404 259.621 298.304 257.873 305.323 257.204C313.507 259.096 324.198 264.793 338.012 277.247C360.388 297.428 370.663 294.043 375.325 285.508C376.954 282.338 378.038 278.76 378.51 274.994C379.074 270.997 379.245 266.913 379.019 262.831C379.019 262.831 385.851 251.384 399.38 276.844C399.434 277.378 399.481 277.913 399.525 278.448C399.692 280.258 399.856 282.072 400.018 283.888C400.495 289.324 400.943 294.751 401.364 300.171C403.042 321.642 404.237 342.898 404.934 363.721Z" fill="#541C27"/>
</g>
<path d="M346.418 128.27C346.797 130.289 346.697 132.385 346.129 134.294C345.561 136.203 344.551 137.838 343.227 138.994C341.904 140.15 340.325 140.773 338.692 140.787C337.058 140.8 335.443 140.201 334.05 139.067C332.657 137.933 331.549 136.314 330.866 134.416C330.182 132.517 329.955 130.423 330.212 128.399C330.469 126.375 331.199 124.511 332.309 123.044C333.42 121.577 334.861 120.572 336.451 120.155C337.507 119.879 338.603 119.869 339.676 120.128C340.749 120.386 341.778 120.907 342.703 121.66C343.629 122.414 344.433 123.385 345.071 124.52C345.708 125.654 346.166 126.928 346.418 128.27Z" fill="#291B22"/>
<path d="M337.955 125.128C338.113 125.968 338.037 126.842 337.74 127.601C337.442 128.36 336.942 128.956 336.323 129.29C335.705 129.623 335.008 129.672 334.35 129.428C333.692 129.184 333.114 128.663 332.715 127.953C332.315 127.243 332.12 126.388 332.16 125.534C332.201 124.68 332.476 123.879 332.939 123.269C333.401 122.659 334.022 122.276 334.696 122.187C335.37 122.098 336.055 122.307 336.635 122.779C337.299 123.32 337.774 124.165 337.955 125.128Z" fill="#F6F6F6"/>
<path d="M296.559 134.393C296.942 136.416 296.843 138.517 296.275 140.43C295.707 142.343 294.696 143.983 293.369 145.14C292.042 146.297 290.46 146.92 288.823 146.929C287.186 146.939 285.568 146.335 284.175 145.194C282.781 144.053 281.675 142.426 280.996 140.521C280.318 138.615 280.097 136.516 280.363 134.489C280.629 132.463 281.369 130.602 282.489 129.141C283.609 127.679 285.059 126.685 286.655 126.283C288.779 125.748 291.012 126.3 292.867 127.819C294.722 129.338 296.049 131.701 296.559 134.393Z" fill="#291B22"/>
<path d="M288.084 131.236C288.218 131.954 288.182 132.7 287.979 133.378C287.777 134.057 287.417 134.638 286.946 135.048C286.475 135.459 285.913 135.68 285.332 135.684C284.751 135.688 284.177 135.474 283.682 135.07C283.187 134.666 282.793 134.09 282.551 133.414C282.308 132.738 282.228 131.994 282.32 131.274C282.412 130.554 282.672 129.892 283.068 129.37C283.463 128.849 283.976 128.492 284.542 128.345C284.918 128.248 285.307 128.245 285.689 128.337C286.07 128.43 286.436 128.615 286.765 128.884C287.094 129.152 287.38 129.498 287.606 129.902C287.832 130.305 287.995 130.758 288.084 131.236Z" fill="#F6F6F6"/>
<path d="M321.131 152.102C321.321 153.112 321.352 154.154 321.223 155.166C321.094 156.179 320.807 157.144 320.379 158.005C319.951 158.866 319.389 159.607 318.727 160.185C318.064 160.763 317.314 161.168 316.518 161.375C315.722 161.582 314.897 161.589 314.089 161.394C313.282 161.199 312.507 160.806 311.81 160.238C311.113 159.67 310.508 158.938 310.028 158.084C309.548 157.23 309.203 156.271 309.013 155.26C308.961 154.979 308.865 154.712 308.731 154.474C308.597 154.236 308.429 154.033 308.235 153.875C308.04 153.717 307.825 153.608 307.6 153.554C307.375 153.5 307.145 153.502 306.924 153.56C306.702 153.619 306.494 153.732 306.309 153.893C306.125 154.055 305.97 154.262 305.851 154.502C305.732 154.742 305.653 155.011 305.618 155.293C305.583 155.575 305.592 155.865 305.646 156.146C305.942 157.718 306.479 159.211 307.226 160.539C307.973 161.867 308.916 163.006 310.001 163.888C311.085 164.771 312.291 165.381 313.548 165.684C314.805 165.987 316.089 165.976 317.327 165.653C318.564 165.329 319.732 164.699 320.762 163.799C321.793 162.898 322.666 161.745 323.331 160.405C323.997 159.065 324.443 157.564 324.643 155.988C324.843 154.412 324.794 152.792 324.497 151.221C324.391 150.653 324.111 150.156 323.72 149.837C323.328 149.519 322.858 149.405 322.411 149.522C321.964 149.638 321.578 149.975 321.338 150.459C321.097 150.942 321.022 151.532 321.129 152.1L321.131 152.102Z" fill="#291B22"/>
<path d="M509.498 262.556C508.147 256.56 505.555 251.081 501.992 246.691C499.454 243.64 496.455 241.27 493.188 239.733C489.921 238.196 486.457 237.526 483.017 237.765C476.305 238.482 470.008 241.848 465.015 247.387C464.832 247.557 464.651 247.737 464.466 247.918C463.59 246.84 462.662 245.833 461.686 244.903C461.515 244.734 461.334 244.574 461.148 244.415C456.771 240.503 451.525 238.516 446.251 238.772C438.97 239.265 432.064 244.341 425.146 254.282C425.031 254.445 424.922 254.61 424.826 254.761C424.299 255.598 423.81 256.402 423.337 257.194C422.374 255.403 421.265 253.741 420.029 252.237C417.49 249.187 414.491 246.818 411.224 245.281C407.957 243.745 404.493 243.074 401.053 243.313C394.34 244.031 388.043 247.398 383.05 252.938C381.864 254.073 380.757 255.331 379.739 256.7C378.631 257.114 377.575 257.711 376.6 258.478C376.143 258.836 375.711 259.24 375.307 259.687C372.217 255.544 368.18 252.729 363.797 251.658L369.201 235.184C370.351 232.291 370.889 229.052 370.764 225.773L370.733 225.318C370.211 220.074 368.17 215.2 365.006 211.637C364.833 211.419 364.657 211.202 364.482 211.018C359.589 205.628 354.591 203.069 349.604 203.407C347.729 203.494 345.908 204.116 344.276 205.227C342.645 206.338 341.246 207.908 340.185 209.821C339.775 210.556 339.43 211.346 339.156 212.179L335.797 222.432C331.637 217.164 324.493 211.556 313.256 212.317C311.023 212.503 308.809 212.906 306.637 213.525C297.055 216.266 287.255 222.902 277.524 233.244C268.74 242.74 261.052 253.729 254.667 265.914L254.505 266.204C251.272 272.346 248.411 278.795 245.945 285.498C241.086 300.229 239.057 314.071 239.908 326.641C240.432 335.68 242.96 344.432 247.203 351.894L247.494 352.38C256.83 367.222 267.09 369.774 274.062 369.302L274.516 369.271C285.072 368.557 297.005 360.258 310.938 343.921C314.65 347.841 319.336 349.941 324.098 349.817C325.787 349.716 327.433 349.194 328.941 348.281C330.449 347.367 331.789 346.08 332.884 344.494C333.576 343.494 334.135 342.357 334.539 341.126C335.784 337.342 336.946 333.807 338.025 330.523C338.38 331.336 338.772 332.147 339.199 332.945C339.412 333.342 339.642 333.724 339.887 334.09C344.853 341.514 350.395 345.075 356.36 344.671L356.568 344.657C357.805 344.587 359.027 344.327 360.205 343.882C364.754 341.904 368.882 338.702 372.31 334.494C374.605 337.265 377.32 339.419 380.279 340.819C383.238 342.218 386.376 342.832 389.494 342.621L390.406 342.56C396.51 342.146 402.624 338.796 409.044 332.373C411.166 330.22 413.116 327.812 414.867 325.182C421.402 337.515 429.075 339.751 434.42 339.389L435.029 339.348C439.147 339.069 443.768 336.891 449.596 332.48C451.116 331.294 452.576 329.994 453.967 328.584C456.277 331.467 459.031 333.715 462.047 335.179C465.064 336.643 468.272 337.289 471.46 337.075L472.361 337.014C478.467 336.6 484.579 333.25 490.998 326.827C493.606 324.132 495.984 321.104 498.095 317.788C498.216 317.613 498.334 317.431 498.439 317.252C500.869 313.346 503.01 309.163 504.837 304.754C509.58 292.634 511.561 281.975 510.897 272.173L510.828 271.15C510.616 268.245 510.17 265.366 509.498 262.556Z" fill="#541C27"/>
<path d="M418.702 277.375C418.556 275.416 418.254 273.473 417.799 271.578C416.999 267.827 415.43 264.379 413.25 261.588C411.75 259.739 409.965 258.301 408.014 257.368C406.063 256.435 403.99 256.029 401.932 256.176C397.231 256.799 392.851 259.281 389.416 263.269C387.763 264.953 386.27 266.868 384.962 268.98C384.605 268.934 384.247 268.915 383.889 268.922L383.431 268.954C382.988 269.001 382.565 269.187 382.2 269.495C380.802 271.539 379.569 273.757 378.519 276.117C374.605 284.828 372.551 294.725 372.552 304.872C371.508 306.455 369.998 308.648 368.024 311.452C365.063 315.574 361.827 319.367 358.348 322.791C358.642 321.09 359.006 319.411 359.436 317.761C360.148 315.272 363.425 304.985 369.269 286.902C370.666 283.749 371.406 280.18 371.42 276.52C371.094 273.877 370.162 271.388 368.74 269.363C367.675 267.648 366.301 266.273 364.74 265.357C363.178 264.442 361.475 264.013 359.778 264.109C356.192 264.352 351.373 267.683 345.323 274.102L345.271 274.105L359.841 229.662C360.264 228.677 360.52 227.586 360.591 226.457L360.56 226.002C360.176 223.887 359.239 221.977 357.901 220.582C355.15 217.55 352.691 216.107 350.524 216.253L350.476 216.257C350.111 216.251 349.753 216.353 349.431 216.554C349.108 216.754 348.829 217.048 348.616 217.412L328.471 278.916C326.1 286.171 324.036 292.512 322.256 297.974C319.305 302.535 316.304 307.062 313.255 311.554C296.077 336.195 282.6 348.847 272.824 349.509L272.671 349.519C271.941 349.551 271.209 349.535 270.478 349.473C269.027 348.783 267.703 347.709 266.595 346.326C264.202 343.613 262.792 339.094 262.367 332.77C262.035 324.616 262.901 316.503 264.922 308.841C265.967 304.906 267.204 301.064 268.628 297.336C270.74 292.299 273.062 287.414 275.585 282.699C278.115 277.966 280.852 273.419 283.784 269.077C287.308 264.074 290.037 260.477 291.969 258.287C295.386 254.298 299.059 250.67 302.952 247.435C310.504 241.596 316.58 238.52 321.18 238.207L322.192 238.138C323.559 238.049 324.935 238.26 326.26 238.762C326.149 240.127 325.86 241.453 325.405 242.685C324.272 246.233 322.766 249.561 320.926 252.582C319.217 255.529 317.349 258.322 315.335 260.942C311.866 265.341 308.181 269.46 304.3 273.276C303.487 273.848 303.112 274.45 303.155 275.093C303.273 275.578 303.442 276.043 303.658 276.475C304.079 277.194 304.617 277.794 305.234 278.23C305.851 278.667 306.533 278.93 307.23 279.002C307.988 278.662 308.68 278.133 309.266 277.445C312.571 274.086 315.635 270.681 318.457 267.23C320.824 264.289 323.032 261.151 325.065 257.835C329.6 250.052 331.705 243.772 331.381 238.994L331.325 238.168C331.115 235.905 330.366 233.754 329.176 232.002C325.542 227.012 320.53 224.733 314.139 225.164C312.475 225.312 310.826 225.618 309.206 226.079C301.144 228.384 292.819 234.098 284.231 243.22C276.137 251.977 269.057 262.115 263.184 273.358C260.257 278.902 257.653 284.716 255.394 290.753C251.14 303.661 249.37 315.391 250.085 325.942C250.45 332.608 252.3 339.067 255.422 344.575C260.676 352.932 266.601 356.887 273.195 356.44L273.65 356.409C283.253 355.759 295.653 345.521 310.851 325.695C312.157 323.988 313.593 322.03 315.136 319.844C314.722 321.128 314.439 321.991 314.299 322.433C313.638 323.828 313.223 325.392 313.082 327.024C313.469 329.09 314.364 330.968 315.638 332.387C318.502 335.583 321.034 337.106 323.234 336.957C323.59 336.947 323.94 336.845 324.259 336.658C324.579 336.47 324.863 336.2 325.094 335.865C333.567 310.098 338.138 296.095 338.808 293.857C340.841 290.428 343.039 287.163 345.39 284.077C350.639 277.328 355.112 272.948 358.808 270.937C358.808 270.946 358.809 270.955 358.812 270.963C358.815 270.972 358.819 270.979 358.825 270.985C358.83 270.991 358.836 270.996 358.843 270.998C358.85 271.001 358.858 271.001 358.865 270.999L358.706 272.427C357.815 275.322 355.18 283.57 350.801 297.171C347.107 307.85 345.407 315.347 345.699 319.662C345.89 321.922 346.549 324.097 347.608 325.97C350.328 330.034 352.956 331.981 355.492 331.809L355.696 331.795C356.158 331.776 356.614 331.68 357.053 331.509C359.942 330.541 364.205 326.54 369.843 319.505C370.975 318.085 372.278 316.308 373.715 314.254C374.394 317.186 375.514 319.942 377.013 322.369C380.425 327.588 384.295 330.051 388.621 329.76L389.534 329.698C393.488 329.43 397.868 326.88 402.673 322.046C404.73 319.86 406.611 317.427 408.291 314.777C410.338 311.501 412.146 307.996 413.696 304.301C417.577 294.384 419.268 285.751 418.77 278.401L418.702 277.375ZM412.564 274.773C412.972 280.797 411.711 288.029 408.781 296.469C407.905 298.904 406.89 301.253 405.745 303.496C404.247 306.627 402.498 309.55 400.524 312.221C395.502 318.782 390.944 322.203 386.852 322.481C385.689 320.264 385.039 317.697 384.976 315.077L384.897 313.922C384.711 309.865 384.986 305.814 385.713 301.892C387.32 303.462 389.248 304.408 391.249 304.608L391.804 304.571C392.097 304.54 392.383 304.455 392.654 304.319C393.045 304.098 393.363 303.719 393.559 303.241C393.756 302.762 393.82 302.211 393.743 301.671C393.727 301.371 393.69 301.072 393.632 300.779C393.003 298.931 392.596 296.983 392.423 295C392.004 288.807 394.136 282.655 398.82 276.543C403.012 271.795 406.664 269.316 409.777 269.105C410.44 269.114 411.098 269.312 411.701 269.684C412.007 269.664 412.278 271.171 412.517 274.206L412.564 274.773Z" fill="white"/>
<path d="M499.76 266.037C498.962 262.285 497.392 258.837 495.212 256.047C493.711 254.198 491.926 252.76 489.975 251.827C488.024 250.894 485.951 250.487 483.893 250.635C479.192 251.258 474.813 253.74 471.377 257.727C469.725 259.411 468.231 261.327 466.923 263.439C466.567 263.393 466.209 263.374 465.852 263.381L465.393 263.412C464.95 263.46 464.527 263.646 464.161 263.953C462.763 265.997 461.531 268.215 460.482 270.576C456.571 279.278 454.516 289.165 454.512 299.304C454.003 300.063 453.386 300.998 452.633 302.138C449.789 306.216 446.69 309.998 443.364 313.45C439.521 317.317 436.322 319.487 433.768 319.961C433.197 318.23 432.83 316.41 432.678 314.561L432.574 313.023C431.978 304.224 434.389 293.932 439.806 282.148C441.235 279.081 442.881 276.19 444.725 273.508C446.305 271.074 448.149 268.935 450.204 267.15C451.47 266.11 452.831 265.261 454.262 264.621C453.953 265.544 453.426 266.847 452.692 268.526C450.98 271.796 449.117 274.932 447.112 277.918L447.138 278.301C447.337 279.095 447.683 279.823 448.147 280.423C449.466 281.836 450.448 282.521 451.092 282.477L451.393 282.457L451.693 282.37C452.659 281.04 453.569 279.646 454.419 278.195C458.409 271.447 460.288 266.361 460.058 262.938C459.881 260.332 458.413 257.706 455.652 255.06C453.159 252.762 450.153 251.561 447.115 251.647C442.685 251.947 437.947 255.724 432.901 262.976C431.125 265.73 429.501 268.637 428.04 271.676C426.113 275.806 424.43 280.116 423.004 284.572C420.868 291.532 419.952 299.035 420.318 306.578C420.551 310.397 421.429 314.135 422.893 317.539C426.036 323.809 429.585 326.809 433.54 326.539L434.149 326.498C436.515 326.338 439.815 324.655 444.051 321.45C446.623 319.363 449.019 316.958 451.206 314.269C452.794 312.519 454.282 310.629 455.658 308.613C456.336 311.575 457.462 314.36 458.975 316.81C462.387 322.028 466.256 324.492 470.583 324.2L471.496 324.138C475.452 323.87 479.832 321.32 484.635 316.486C486.692 314.301 488.573 311.867 490.253 309.218C492.3 305.942 494.109 302.436 495.658 298.741C499.538 288.825 501.23 280.191 500.732 272.841L500.662 271.816C500.516 269.862 500.213 267.926 499.76 266.037ZM494.526 269.222C494.934 275.246 493.674 282.479 490.744 290.918C489.866 293.353 488.851 295.702 487.706 297.946C486.208 301.077 484.459 304 482.485 306.67C477.464 313.226 472.905 316.643 468.808 316.922C467.646 314.705 466.995 312.138 466.932 309.518L466.854 308.363C466.667 304.306 466.942 300.255 467.669 296.332C469.279 297.905 471.209 298.851 473.212 299.049L473.769 299.011C474.062 298.98 474.348 298.895 474.618 298.759C475.008 298.538 475.326 298.16 475.523 297.681C475.72 297.203 475.784 296.651 475.706 296.111C475.692 295.811 475.655 295.512 475.595 295.219C474.967 293.371 474.56 291.422 474.389 289.44C473.969 283.247 476.101 277.095 480.784 270.983C484.975 266.236 488.628 263.756 491.741 263.545C492.404 263.554 493.062 263.752 493.665 264.124C493.97 264.104 494.243 265.611 494.482 268.646L494.526 269.222Z" fill="white"/>
<path d="M41.5215 377.611L42.3413 379.18C54.1266 401.04 70.0784 418.889 88.6642 431.011C104.586 441.355 121.954 447.411 139.633 448.782C157.311 450.153 174.902 446.808 191.252 438.967C207.603 431.126 222.345 418.964 234.514 403.279C246.683 387.594 256.004 368.738 261.867 347.947C263.492 342.156 264.817 336.227 265.833 330.197C268.893 312.573 269.382 294.294 267.275 276.244C266.93 273.258 266.479 270.101 265.959 267.005C267.783 263.75 268.662 259.779 268.456 255.735C267.951 246.743 265.831 237.948 262.257 230.019C260.972 226.846 259.494 223.797 257.837 220.902L257.566 220.407C252.961 212.536 247.259 208.86 246.472 210.236C246.223 209.711 245.925 209.191 245.627 208.668C242.217 202.632 238.47 196.903 234.418 191.525C224.733 178.705 213.431 168 201.002 159.874C185.077 149.544 167.708 143.501 150.03 142.142C132.353 140.783 114.766 144.138 98.4192 151.987C82.0728 159.836 67.3354 172.003 55.1713 187.692C43.0072 203.38 33.6904 222.237 27.8304 243.028C21.0913 267.199 19.4269 293.34 22.9957 318.964C20.2236 318.761 19.4143 324.381 20.4145 333.881C20.7807 336.974 21.2824 340.044 21.9175 343.077C21.9333 343.645 22.0278 344.209 22.1969 344.742C24.1928 354.505 31.3542 376.224 41.5215 377.611Z" fill="#EA4C95"/>
<path d="M24.4559 353.134L24.1824 352.251L24.0062 351.761C23.1349 348.868 22.4556 345.895 21.9753 342.874C18.978 328.032 19.3598 318.32 23.0317 318.732C53.2676 322.523 95.735 314.266 139.97 293.785C188.452 271.306 227.371 239.486 246.437 209.853C247.364 208.436 253.182 212.406 257.827 220.524C260.305 224.973 262.436 229.706 264.188 234.654C264.453 235.419 264.721 236.184 264.961 236.918L264.985 237.278L265.626 239.369C268.713 249.781 269.648 260.43 265.817 266.435C247.39 297.078 207.858 329.692 158.36 352.631C114.264 373.069 71.8693 381.354 41.6414 377.655C34.6296 376.784 28.9644 366.248 25.5601 356.549L25.5419 356.28C25.3966 355.899 25.2764 355.515 25.1291 355.104C24.9817 354.693 24.9481 354.544 24.8341 354.252C24.6873 353.891 24.5609 353.517 24.4559 353.134Z" fill="#E8318A"/>
<path d="M266.216 240.998C264.47 236.045 262.339 231.311 259.854 226.867C255.206 218.697 249.511 214.78 248.49 216.234C229.425 245.895 190.433 277.687 141.951 300.168C97.7415 320.671 55.2494 328.935 25.0387 325.144C21.3626 324.669 20.9075 334.449 23.9571 349.286C24.4491 352.256 25.1316 355.178 25.9976 358.023L25.9814 357.784C25.8939 357.372 25.7629 356.976 25.592 356.606C25.47 356.223 25.3855 356.018 25.295 355.725C25.2045 355.431 25.0549 354.988 24.9586 354.635C24.8486 354.339 24.7564 354.033 24.6829 353.72L24.506 353.22C23.6303 350.326 22.9443 347.354 22.4552 344.333C19.4579 329.492 19.8612 319.748 23.5116 320.192C53.7476 323.982 96.2149 315.726 140.45 295.244C188.918 272.826 227.859 241.065 246.922 211.402C247.825 209.968 253.644 213.956 258.286 222.035C260.784 226.481 262.917 231.227 264.65 236.198C264.915 236.962 265.181 237.697 265.423 238.461L265.447 238.821L266.089 240.913L266.216 240.998Z" fill="#EE77AB"/>
<path d="M24.183 352.248L24.0062 351.75C27.4484 361.446 33.0624 371.897 40.0512 372.776C70.281 376.475 112.65 368.192 156.747 347.754C206.266 324.814 245.847 292.166 264.401 261.996C268.214 255.721 267.25 245.225 264.211 234.93C264.476 235.694 264.744 236.459 264.984 237.193L265.008 237.553L265.65 239.645C268.736 250.056 269.671 260.705 265.84 266.711C247.393 297.055 207.862 329.678 158.363 352.606C114.266 373.055 71.8705 381.334 41.6408 377.635C34.6304 376.784 28.9723 366.245 25.57 356.548L25.5518 356.279C25.4064 355.898 25.2863 355.515 25.1389 355.104C24.9915 354.693 24.9579 354.544 24.8439 354.252C24.7112 353.887 24.5981 353.513 24.5054 353.13L24.183 352.248Z" fill="#DD0A80"/>
<path opacity="0.2" d="M125.829 413.724C143.679 404.092 138.874 378.151 161.337 292.146C180.885 216.867 193.875 201.236 185.13 181.107C171.657 150.249 121.828 143.665 87.655 163.309C39.5215 190.938 9.93137 278.33 35.6571 344.823C54.0012 391.723 99.7055 427.759 125.829 413.724Z" fill="url(#paint0_linear)"/>
<path opacity="0.15" d="M86.8592 171.938C113.622 154.335 150.111 153.061 153.819 167.042C155.989 175.169 118.536 193.501 97.9774 275.617C76.7644 360.425 106.46 412.846 100.479 418.057C93.5974 424.029 49.0725 390.67 34.5884 343.111C14.2725 276.592 44.5305 199.837 86.8592 171.938Z" fill="url(#paint1_linear)"/>
<path opacity="0.1" d="M125.716 165.942C124.38 161.671 98.219 163.2 75.8631 180.481C44.0502 205.074 22.5191 259.486 29.7196 312.723C35.5574 355.682 58.8091 388.559 62.2232 386.582C65.6372 384.605 48.0004 352.375 48.4752 306.274C49.1349 247.875 78.1897 208.899 81.4961 204.584C102.937 176.595 127.052 170.179 125.716 165.942Z" fill="url(#paint2_linear)"/>
<path d="M71.7877 188.845C77.684 183.782 91.3025 178.498 87.6941 183.916C74.816 200.161 63.7855 218.587 54.8994 238.697C49.6272 250.517 40.2159 246.52 41.6618 238.722C43.1078 230.924 54.7955 203.415 71.7877 188.845Z" fill="white"/>
<path d="M36.543 255.586C37.7256 251.655 48.4186 249.519 47.5998 252.19C40.4835 274.386 37.7461 298.579 39.6167 322.742C41.3153 349.614 24.6296 294.873 36.543 255.586Z" fill="white"/>
<path opacity="0.3" d="M232.126 325.831C249.448 228.952 183.467 166.748 159.901 143.373C174.182 145.853 188.091 151.437 201.004 159.876C218.681 171.422 233.982 188.164 245.571 208.637L246.439 210.203C247.365 208.768 253.161 212.757 257.829 220.874C265.455 234.317 272.168 256.79 265.953 266.989C270.49 294.16 269.091 322.141 261.909 347.914C256.097 368.773 246.791 387.693 234.608 403.417C222.424 419.14 207.643 431.307 191.245 439.11C171.085 448.726 149.136 451.559 127.508 447.337C156.672 435.975 214.801 422.681 232.126 325.831Z" fill="#E2AFC6"/>
<path opacity="0.54" d="M150.397 449.128L149.78 449.17L151.956 448.24L150.397 449.128Z" fill="#CDCCCC"/>
<path opacity="0.8" d="M251.623 352.853C258.819 327.081 260.217 299.091 255.666 271.917L255.775 271.759C262.084 261.553 255.301 239.087 247.652 225.643C243.001 217.443 237.307 213.529 236.261 214.973C235.964 214.451 235.691 213.929 235.416 213.405C223.795 192.972 208.473 176.278 190.787 164.778C166.445 148.868 138.904 143.234 112.336 148.729C110.305 148.626 108.279 148.582 106.21 148.631C137.35 136.517 171.419 140.557 201.002 159.873C218.677 171.421 233.976 188.163 245.563 208.636L246.432 210.201C247.358 208.766 253.154 212.756 257.822 220.872C265.448 234.315 272.161 256.788 265.946 266.987C270.484 294.162 269.086 322.147 261.902 347.923C256.091 368.783 246.784 387.703 234.601 403.426C222.418 419.15 207.636 431.317 191.238 439.119C189.51 439.959 187.752 440.728 185.993 441.461C201.242 433.216 214.914 421.12 226.191 405.896C237.467 390.672 246.115 372.634 251.616 352.865L251.623 352.853Z" fill="#E2AFC6"/>
<path d="M228.663 247.992C229.811 251.551 230.107 255.425 229.514 259.126C228.92 262.826 227.464 266.187 225.329 268.783C223.194 271.38 220.476 273.095 217.518 273.712C214.56 274.329 211.496 273.821 208.712 272.252C205.928 270.682 203.55 268.122 201.878 264.894C200.205 261.666 199.314 257.916 199.316 254.117C199.318 250.319 200.214 246.642 201.89 243.552C203.567 240.461 205.948 238.096 208.734 236.755C210.586 235.864 212.571 235.447 214.576 235.53C216.58 235.612 218.565 236.191 220.416 237.235C222.267 238.279 223.948 239.766 225.364 241.612C226.779 243.458 227.9 245.626 228.663 247.992Z" fill="#6A2349"/>
<path d="M212.601 245.318C213.082 246.798 213.147 248.427 212.783 249.927C212.42 251.427 211.651 252.706 210.608 253.544C209.565 254.383 208.311 254.73 207.062 254.527C205.812 254.323 204.643 253.582 203.754 252.429C202.865 251.276 202.311 249.782 202.186 248.203C202.061 246.624 202.373 245.056 203.069 243.767C203.765 242.478 204.802 241.547 206.003 241.134C207.204 240.72 208.495 240.849 209.656 241.499C210.316 241.868 210.916 242.395 211.421 243.051C211.926 243.706 212.327 244.476 212.601 245.318Z" fill="#F6F6F6"/>
<path d="M85.1756 316.92C86.3339 320.482 86.6373 324.365 86.0473 328.075C85.4572 331.785 84.0003 335.155 81.8614 337.757C79.7225 340.36 76.998 342.078 74.0336 342.694C71.0693 343.309 67.9986 342.794 65.2113 341.214C62.424 339.633 60.0457 337.059 58.3781 333.818C56.7106 330.577 55.8289 326.814 55.8451 323.008C55.8612 319.202 56.7744 315.523 58.4688 312.439C60.1632 309.356 62.5624 307.005 65.362 305.687C69.0895 303.932 73.2632 304.128 76.9742 306.232C80.6851 308.335 83.6329 312.177 85.1756 316.92Z" fill="#6A2349"/>
<path d="M69.082 314.218C69.4914 315.485 69.5972 316.866 69.3858 318.184C69.1745 319.502 68.6556 320.699 67.8947 321.624C67.1339 322.549 66.1653 323.159 65.1116 323.378C64.0579 323.597 62.9663 323.415 61.9751 322.854C60.9838 322.294 60.1374 321.38 59.5429 320.23C58.9485 319.079 58.6326 317.742 58.6354 316.389C58.6382 315.036 58.9595 313.727 59.5586 312.628C60.1577 311.529 61.0077 310.689 62.0011 310.214C63.3316 309.579 64.8246 309.644 66.1523 310.395C67.4799 311.145 68.5336 312.52 69.082 314.218Z" fill="#F6F6F6"/>
<path d="M153.505 294.992C154.668 298.588 154.663 302.574 153.493 306.073C152.324 309.572 150.084 312.297 147.267 313.649C144.45 315 141.287 314.868 138.473 313.281C135.659 311.694 133.425 308.782 132.263 305.186C132.108 304.683 131.875 304.221 131.58 303.826C131.284 303.431 130.931 303.113 130.541 302.888C130.151 302.664 129.731 302.538 129.307 302.518C128.884 302.498 128.464 302.585 128.072 302.774C127.68 302.962 127.325 303.248 127.026 303.615C126.727 303.982 126.491 304.422 126.332 304.911C126.173 305.4 126.093 305.926 126.098 306.461C126.103 306.995 126.192 307.526 126.361 308.023C127.241 310.821 128.547 313.389 130.203 315.578C131.859 317.768 133.833 319.535 136.01 320.779C138.187 322.022 140.524 322.716 142.887 322.822C145.249 322.927 147.59 322.442 149.774 321.393C151.958 320.345 153.941 318.754 155.609 316.713C157.278 314.672 158.598 312.221 159.494 309.502C160.389 306.784 160.843 303.851 160.828 300.873C160.813 297.896 160.33 294.932 159.407 292.155C159.252 291.652 159.02 291.19 158.724 290.795C158.428 290.401 158.075 290.082 157.685 289.857C157.295 289.633 156.876 289.507 156.452 289.487C156.028 289.468 155.608 289.554 155.216 289.743C154.824 289.931 154.469 290.217 154.17 290.584C153.871 290.951 153.636 291.391 153.476 291.88C153.317 292.369 153.238 292.895 153.243 293.43C153.247 293.964 153.337 294.495 153.505 294.992Z" fill="#6A2349"/>
<path d="M218.293 464.901C217.116 464.079 215.826 463.566 214.502 463.394C209.798 463.654 205.116 464.224 200.474 465.101L198.245 465.504C185.859 467.999 173.784 472.271 162.251 478.239L161.341 478.811C161.53 475.9 161.917 470.763 162.5 463.4C165.026 430.143 166.372 412.213 166.536 409.608C168.394 390.209 168.272 377.111 166.171 370.313L166.004 369.773C164.868 366.163 162.836 363.085 160.218 361.011C157.38 358.85 154.208 357.523 150.945 357.13C147.681 356.738 144.414 357.29 141.392 358.746L141.126 358.869C133.244 362.87 126.168 368.938 120.356 376.681C117.289 380.559 114.484 384.753 111.969 389.222C109.28 393.744 106.957 398.599 105.032 403.72C103.563 407.867 102.345 412.157 101.388 416.553C98.9539 429.533 99.1291 440.526 101.913 449.53C102.914 453.01 104.53 456.177 106.635 458.788C112.186 464.371 117.75 465.888 123.327 463.339L124.381 462.856C127.104 461.417 129.576 459.346 131.673 456.749C133.365 454.777 134.869 452.565 136.158 450.154C137.754 447.326 139.08 444.265 140.108 441.03C144.222 427.381 144.847 415.92 141.983 406.646C140.335 401.297 137.313 396.754 133.411 393.759C129.432 391.313 126.242 390.638 123.844 391.734C123.669 391.825 123.499 391.927 123.334 392.041C122.809 392.37 122.411 392.946 122.223 393.648C122.034 394.351 122.07 395.126 122.322 395.815C122.769 396.984 123.436 398.004 124.265 398.781C125.589 399.967 126.591 401.643 127.124 403.565C129.114 410.004 128.923 418.441 126.551 428.877C125.547 432.967 124.215 436.906 122.575 440.634C119.202 447.52 115.998 451.66 112.964 453.054L112.332 453.344C111.745 453.58 111.131 453.705 110.51 453.715C110.304 453.704 109.961 452.91 109.474 451.332L109.284 450.725C108.568 448.326 108.064 445.842 107.781 443.32C106.804 433.727 107.598 424.049 110.103 415.048C111.117 411.36 112.326 407.768 113.721 404.297C115.295 400.799 116.696 397.899 117.922 395.598C120.638 390.669 123.671 386.037 126.991 381.745C133.989 372.996 140.4 367.292 146.225 364.632L147.073 364.247C147.865 363.857 148.691 363.583 149.537 363.43C149.785 363.316 150.32 364.458 151.142 366.857C152.55 371.403 152.943 379.06 152.321 389.828C152.043 394.522 151.281 404.89 150.037 420.932C146.989 460.603 145.273 483.069 144.889 488.331L143.363 489.258C137.501 493.22 132.227 497.068 127.543 500.801C127.095 501.002 126.721 501.393 126.483 501.91C126.246 502.426 126.159 503.036 126.239 503.636L126.263 503.707C126.665 505.379 127.462 506.871 128.545 507.981C131.457 510.758 133.919 511.946 135.931 511.542L136.639 511.295C140.516 508.189 144.332 505.29 148.088 502.598C150.369 503.739 152.775 504.386 155.203 504.512C156.096 504.501 156.979 504.331 157.826 504.007L158.038 503.908C159.135 503.412 159.675 502.11 159.67 500.005L160.114 494.79C174.721 485.683 190.382 479.386 206.593 476.104L208.178 475.767C211.984 475.052 216.343 474.499 221.255 474.108C221.588 474.02 221.915 473.896 222.231 473.74C222.545 473.5 222.792 473.144 222.94 472.719C223.088 472.294 223.131 471.819 223.062 471.354C222.77 469.228 221.18 467.077 218.293 464.901Z" fill="#DB1A40"/>
<path d="M136.435 526.893C130.996 526.98 125.657 524.554 121.422 520.072L120.275 518.836C117.78 515.991 115.894 512.401 114.801 508.417L114.576 507.773L114.29 505.868C113.775 502.243 114.153 498.541 115.372 495.265C116.592 491.989 118.593 489.298 121.106 487.557C124.84 484.592 128.962 481.533 133.403 478.433C133.496 477.173 133.601 475.784 133.716 474.268C132.18 475.465 130.549 476.465 128.848 477.254L127.804 477.732C118.274 482.083 108.143 479.554 99.2505 470.622L98.4677 469.76C94.9871 465.532 92.3001 460.38 90.6148 454.705C86.9186 442.729 86.5684 428.571 89.563 412.592C90.6558 407.38 92.0782 402.299 93.817 397.397L94.1483 396.487C96.3998 390.538 99.1112 384.898 102.244 379.645C105.115 374.575 108.319 369.824 111.823 365.44C118.79 356.281 127.253 349.132 136.663 344.455C141.359 342.199 146.433 341.326 151.505 341.901C156.578 342.476 161.518 344.484 165.958 347.775L166.642 348.308C171.469 352.19 175.206 357.917 177.282 364.615C180.406 374.741 180.755 389.157 178.571 411.919C178.47 413.736 177.35 428.643 175.264 456.202C182.065 453.686 189.002 451.736 196.031 450.363L198.381 449.94C203.398 448.998 208.459 448.382 213.543 448.097C216.851 448.075 220.138 449.091 223.107 451.053L224.262 451.824C230.452 456.492 234.066 462.341 235.006 469.209C235.455 472.468 235.177 475.791 234.203 478.804C233.229 481.817 231.598 484.4 229.494 486.263L228.195 487.438L226.688 488.13C225.644 488.631 224.559 488.999 223.45 489.226L222.4 489.37C217.818 489.74 213.752 490.253 210.324 490.897L208.971 491.184C195.958 493.784 183.324 498.523 171.387 505.281C170.9 508.254 169.827 511.004 168.267 513.28C166.707 515.557 164.708 517.288 162.452 518.317C160.41 519.187 158.272 519.682 156.1 519.788L154.669 519.761C153.141 519.623 151.617 519.384 150.104 519.043C147.873 520.72 145.628 522.463 143.371 524.273L141.894 525.453L138.21 526.661C137.623 526.776 137.03 526.854 136.435 526.893ZM151.313 378.629L151.266 378.632L151.313 378.629Z" fill="#E84A94"/>
<path d="M224.914 395.842C224.346 393.746 223.615 391.721 222.731 389.797C221.085 385.953 218.671 382.699 215.736 380.369C213.731 378.843 211.506 377.86 209.207 377.486C206.909 377.112 204.588 377.355 202.4 378.199C198.082 379.847 194.081 383.822 190.396 390.122C188.967 392.514 187.757 395.105 186.786 397.849C186.393 397.919 186.005 398.018 185.622 398.146L185.133 398.332C184.663 398.527 184.243 398.871 183.913 399.33C182.833 402.032 181.967 404.869 181.328 407.801C178.681 421.367 178.749 433.439 181.531 444.017C182.893 449.842 185.632 455.053 189.377 458.942C194.144 463.527 198.828 464.94 203.429 463.18L204.399 462.808C208.61 461.201 212.798 456.956 216.964 450.071C218.729 446.994 220.253 443.704 221.517 440.245C223.032 435.978 224.247 431.541 225.146 426.985C227.256 414.836 227.275 404.82 225.203 396.939L224.914 395.842ZM218.21 420.031C217.774 422.99 217.169 425.898 216.401 428.735C215.445 432.66 214.172 436.439 212.601 440.016C208.56 448.87 204.361 454.127 200.005 455.789C198.288 453.75 197.051 451.156 196.438 448.31L196.111 447.069C195.063 442.69 194.513 438.164 194.476 433.63C196.537 434.812 198.81 435.207 201.008 434.764L201.605 434.536C201.914 434.402 202.206 434.213 202.472 433.976C202.848 433.606 203.113 433.086 203.226 432.497C203.339 431.908 203.295 431.282 203.099 430.716C203.02 430.391 202.917 430.075 202.792 429.771C201.728 427.96 200.882 425.964 200.283 423.852C198.534 417.206 199.546 409.762 203.319 401.519C206.843 394.927 210.26 390.999 213.568 389.738C214.285 389.531 215.034 389.53 215.761 389.734C216.083 389.61 216.69 391.167 217.585 394.404L217.748 395.023C219.45 401.486 219.604 409.822 218.21 420.031Z" fill="#DB1A40"/>
<path d="M201.255 479.185C194.398 479.502 187.61 476.588 182.212 471.009C176.437 465.173 172.18 457.283 170.024 448.422C166.518 435.078 166.352 420.036 169.531 403.708C170.375 399.727 171.534 395.875 172.991 392.208L173.797 390.151L175.058 388.509C175.949 387.338 176.957 386.318 178.059 385.475C178.853 383.7 179.758 382.009 180.764 380.418C185.084 372.525 191.304 366.622 198.547 363.54C202.299 362.099 206.273 361.67 210.215 362.282C214.157 362.894 217.98 364.532 221.441 367.093C226.315 370.794 230.351 376.049 233.126 382.307C234.46 385.203 235.561 388.252 236.414 391.409L236.72 392.558C239.521 403.213 239.617 415.703 237.007 430.707C235.951 436.195 234.504 441.537 232.684 446.668L232.409 447.426C230.776 451.896 228.771 456.125 226.428 460.042C220.962 469.069 214.939 474.917 208.262 477.465L207.294 477.833C205.339 478.586 203.311 479.04 201.255 479.185Z" fill="#E84A94"/>
<path d="M303.147 340.869C305.435 342.814 308.169 343.696 310.866 343.36C311.284 343.287 311.682 343.097 312.029 342.803C312.376 342.51 312.665 342.12 312.874 341.663C315.292 329.588 316.669 322.477 317.006 320.33C317.453 318.985 317.656 317.521 317.599 316.045L317.517 315.627C316.905 313.598 315.806 311.845 314.376 310.62C310.76 307.431 307.678 306.167 305.132 306.827C304.369 306.996 303.7 307.541 303.27 308.342C303.123 308.819 301.75 315.854 299.15 329.446C298.682 330.949 298.452 332.56 298.469 334.192L298.523 334.473C298.901 336.49 300.442 338.622 303.147 340.869Z" fill="#DB1A40"/>
<path d="M311.03 358.782C306.303 358.907 301.605 357.309 297.498 354.179L296.696 353.57C291.131 348.953 287.869 343.712 286.711 337.552C286.042 333.345 286.284 329.024 287.411 325.049C291.411 304.15 291.551 303.68 291.884 302.548L292.374 300.913L293.148 299.471C295.282 295.509 298.562 292.773 302.317 291.82C308.259 290.262 314.589 292.408 321.111 298.154L321.898 298.9C325.531 302.289 328.157 307.126 329.331 312.585C330.023 316.613 329.829 320.769 328.771 324.598C328.404 326.774 327.473 331.736 324.643 345.846L324.289 347.63L323.601 349.237C322.588 351.594 321.175 353.629 319.458 355.203C317.742 356.777 315.763 357.852 313.658 358.355C312.794 358.579 311.916 358.722 311.03 358.782Z" fill="#E84A94"/>
<path d="M365.037 358.026C364.755 355.377 364.049 352.81 362.962 350.484C361.875 348.157 360.431 346.12 358.716 344.495C356.28 342.395 353.345 341.474 350.469 341.909L349.961 342.003C346.531 342.656 341.949 346.904 336.217 354.744C335.358 352.96 334.214 351.414 332.86 350.207C329.65 347.611 327.056 346.501 325.077 346.876L324.46 346.993C323.786 347.144 323.195 347.624 322.812 348.329C322.347 350.162 319.556 361.794 314.439 383.222C314.17 384.286 312.889 389.595 310.627 399.014C308.061 404.28 306.137 407.996 304.934 409.966C302.837 413.687 300.554 417.232 298.099 420.582L297.978 420.54C298.194 418.374 298.457 416.269 298.768 414.223C299.74 408.862 302.845 392.678 308.083 365.671C308.741 363.236 309.163 360.703 309.341 358.123C308.606 355.439 307.103 353.171 305.133 351.771C301.797 349.244 299.04 348.263 296.862 348.83C296.454 348.909 296.069 349.1 295.732 349.391C295.395 349.682 295.116 350.066 294.915 350.514C294.313 353.328 291.456 368.049 286.342 394.677C285.547 398.392 284.907 401.752 284.404 404.834C282.964 408.158 281.638 411.124 280.513 413.448C278.046 418.51 275.275 423.319 272.222 427.834L272.117 427.866L272.201 426.423C272.582 421.982 273.672 414.312 275.469 403.414C276.358 397.913 280.417 372.217 287.644 326.326C287.996 325.001 288.121 323.589 288.012 322.182L287.934 321.834C287.222 319.759 286.01 318.002 284.476 316.819C280.758 313.968 277.711 312.918 275.335 313.669L275.286 313.686C274.88 313.785 274.5 313.996 274.173 314.306C273.846 314.615 273.579 315.015 273.393 315.476C273.104 317.157 272.324 322.172 271.053 330.523C263.75 376.439 260.022 400.017 259.871 401.257C259.053 405.766 258.443 409.773 257.995 413.378C256.583 416.602 255.267 419.496 254.172 421.758C251.709 426.801 248.958 431.605 245.94 436.133L245.828 436.166L245.922 434.722C246.261 430.292 247.35 422.621 249.19 411.709C250.04 406.224 255.032 374.447 264.167 316.377C264.492 315.054 264.599 313.654 264.484 312.26L264.406 311.908C263.702 309.841 262.512 308.082 261 306.875C257.278 304.029 254.212 302.986 251.802 303.747L251.745 303.765C251.351 303.867 250.982 304.079 250.666 304.385C250.349 304.69 250.093 305.083 249.914 305.534C249.622 307.22 247.907 318.321 244.77 338.836C237.43 384.764 233.682 408.348 233.527 409.588C230.952 424.012 230.236 433.802 231.38 438.957C231.652 440.26 232.088 441.506 232.669 442.648C235.568 447.594 238.803 449.503 242.377 448.373C246.579 447.043 251.436 441.287 256.948 431.104C257.127 430.803 257.356 430.362 257.562 429.991C257.6 430.201 257.62 430.445 257.667 430.652C257.936 431.957 258.371 433.204 258.957 434.343C261.848 439.29 265.102 441.193 268.721 440.053C272.916 438.728 277.772 432.972 283.287 422.784C283.318 422.737 283.359 422.647 283.391 422.594C283.397 422.679 283.404 422.776 283.422 422.855C283.658 423.966 283.997 425.042 284.432 426.059C287.207 431.383 290.458 433.561 294.185 432.594C297.289 431.788 300.867 428.541 304.888 422.944C302.059 434.764 298.607 449.196 294.532 466.242C293.954 467.905 293.626 469.697 293.564 471.53L293.598 471.74C293.887 473.774 295.335 475.978 297.942 478.352C300.137 480.496 302.849 481.585 305.575 481.419L305.633 481.415C306.398 481.314 307.093 480.842 307.572 480.098C307.802 479.32 309.148 473.768 311.611 463.442C318.664 433.87 322.298 418.772 322.513 418.148C324.131 421.139 326.41 423.476 329.054 424.854C332.104 426.296 335.378 426.706 338.541 426.043L338.879 425.981C346.712 424.489 353.273 417.071 358.562 403.725C360.958 397.403 362.797 390.752 364.046 383.886C365.719 373.704 366.118 365.561 365.245 359.458L365.037 358.026ZM350.833 367.577C350.27 372.469 349.406 377.287 348.25 381.988C346.904 387.435 345.093 392.666 342.848 397.59C338.347 406.803 333.798 411.845 329.203 412.718C328.654 412.786 328.102 412.816 327.548 412.809C326.469 412.586 325.378 412.502 324.293 412.559L323.789 412.652C327.2 398.253 330.403 384.939 333.399 372.712C333.347 372.091 333.843 371.001 334.886 369.441C336.436 366.909 338.08 364.361 339.819 361.798C344.54 355.167 348.046 351.148 350.335 349.742C350.65 350.636 350.88 351.571 351.022 352.527C351.513 357.553 351.447 362.618 350.827 367.577L350.833 367.577Z" fill="#DB1A40"/>
<path d="M306.071 496.766C300.932 496.893 295.847 494.909 291.581 491.111L291.045 490.646C285.617 485.704 282.553 480.253 281.655 473.968C281.174 469.484 281.65 464.957 283.034 460.858L286.406 446.727C285.686 446.414 284.98 446.05 284.291 445.637C280.931 450.019 276.706 453.203 272.022 454.883C267.57 456.368 262.793 455.771 258.558 453.202C255.084 457.945 250.641 461.396 245.685 463.202C237.217 465.862 228.934 461.59 222.994 451.466L222.632 450.822C221.319 448.296 220.332 445.534 219.707 442.64C217.953 434.722 218.548 423.445 221.634 406.08C221.958 403.866 223.545 393.69 232.877 335.344C237.047 308.079 237.834 303.096 238.064 301.788L238.361 300.072L238.964 298.5C239.881 296.116 241.201 294.026 242.834 292.372C244.467 290.717 246.375 289.538 248.428 288.914C254.181 287.101 260.414 288.77 267.056 293.861L268.177 294.83C269.464 296.064 270.666 297.432 271.77 298.921L272.004 298.846C277.679 297.054 283.89 298.728 290.53 303.823L291.543 304.69C295.37 307.915 298.226 312.688 299.619 318.185C300.411 322.127 300.37 326.23 299.499 330.079C299.319 331.213 299.142 332.334 298.966 333.442C303.267 333.95 307.44 335.766 311.123 338.734L311.783 339.268C312.004 339.461 312.222 339.655 312.442 339.853L313.066 338.824C315.283 335.093 318.57 332.61 322.261 331.879L322.9 331.76C327.086 331.101 331.373 332.089 335.179 334.59C338.741 330.668 343.08 328.015 347.771 326.89L348.308 326.79C354.041 325.823 359.924 327.527 364.864 331.584L365.602 332.22C368.627 335.037 371.191 338.574 373.142 342.621C375.093 346.667 376.392 351.141 376.961 355.777L377.164 357.191C378.338 365.327 377.93 375.218 375.913 387.453C374.478 395.456 372.351 403.209 369.569 410.577C362.392 428.718 352.831 438.881 341.043 441.114C337.328 441.867 333.515 441.784 329.78 440.87C328.227 447.358 326.11 456.211 323.223 468.276C319.416 484.258 319.144 485.173 318.921 485.911L318.306 487.96L317.257 489.683C314.941 493.422 311.563 495.877 307.797 496.555C307.233 496.648 306.657 496.726 306.071 496.766Z" fill="#E84A94"/>
<path d="M409.277 397.709C411.542 394.025 413.54 390.087 415.248 385.94C419.516 374.81 421.349 365.14 420.747 356.929L420.669 355.79C420.49 353.601 420.138 351.434 419.619 349.32C418.702 345.134 416.926 341.294 414.474 338.195C412.784 336.143 410.78 334.553 408.593 333.53C406.407 332.506 404.088 332.073 401.789 332.257C396.538 333.006 391.66 335.827 387.846 340.321C386.012 342.222 384.357 344.379 382.91 346.754C382.51 346.708 382.109 346.69 381.709 346.702L381.201 346.737C380.703 346.792 380.227 347.002 379.817 347.35C378.266 349.649 376.904 352.143 375.75 354.795C370.696 367.135 368.577 378.818 369.392 389.845C369.67 395.866 371.411 401.692 374.38 406.528C378.224 412.332 382.563 415.046 387.399 414.67L388.419 414.6C392.839 414.258 397.714 411.361 403.044 405.91C405.33 403.44 407.417 400.694 409.277 397.709ZM385.372 406.541C384.056 404.076 383.31 401.212 383.223 398.284L383.136 396.994C382.899 392.461 383.178 387.928 383.963 383.535C385.769 385.273 387.928 386.309 390.165 386.511L390.786 386.469C391.114 386.428 391.433 386.33 391.736 386.176C392.171 385.926 392.525 385.499 392.743 384.962C392.96 384.426 393.029 383.808 392.94 383.204C392.922 382.868 392.879 382.534 392.812 382.206C392.096 380.15 391.628 377.979 391.422 375.766C390.913 368.844 393.254 361.942 398.445 355.061C403.101 349.711 407.166 346.901 410.642 346.629C411.383 346.634 412.119 346.849 412.796 347.256C413.134 347.233 413.448 348.913 413.739 352.295L413.782 352.938C414.282 359.67 412.922 367.772 409.703 377.242C408.74 379.976 407.621 382.613 406.357 385.135C404.706 388.65 402.772 391.935 400.586 394.941C395.009 402.319 389.938 406.186 385.372 406.541Z" fill="#DB1A40"/>
<path d="M388.31 429.954C382.159 430.371 373.21 428.274 365.158 416.112C360.549 408.809 357.802 399.956 357.297 390.771C356.269 376.882 358.836 362.291 364.916 347.43C366.465 343.83 368.299 340.444 370.39 337.322L371.571 335.542L373.128 334.306C374.205 333.45 375.365 332.769 376.583 332.278C377.678 330.794 378.866 329.424 380.135 328.179C385.805 321.792 392.979 317.874 400.646 316.977C404.584 316.732 408.546 317.494 412.294 319.217C416.043 320.94 419.501 323.588 422.461 327.004C426.573 331.983 429.578 338.227 431.159 345.076C431.946 348.262 432.479 351.53 432.749 354.83L432.83 356.03C433.641 367.115 431.48 379.202 426.21 392.956C424.175 397.959 421.784 402.709 419.065 407.15L418.668 407.781C416.259 411.63 413.53 415.138 410.524 418.248C403.526 425.415 396.546 429.325 389.536 429.864L388.512 429.933L388.31 429.954Z" fill="#E84A94"/>
<path d="M478.577 342.893C476.525 340.212 473.785 338.549 470.881 338.222L470.367 338.181C466.878 337.915 461.666 340.843 454.731 346.965C454.179 345.007 453.308 343.206 452.176 341.678C449.436 338.315 447.062 336.557 445.054 336.403L444.428 336.356C443.741 336.327 443.08 336.637 442.587 337.22C441.828 338.881 437.165 349.453 428.598 368.937C427.52 371.299 416.431 396.446 395.33 444.378C394.487 445.844 393.871 447.501 393.511 449.266L393.505 449.479C393.46 451.531 394.523 454.053 396.694 457.044C398.502 459.703 400.994 461.474 403.706 462.027L403.764 462.023C404.532 462.124 405.292 461.847 405.885 461.25C406.241 460.562 408.482 455.52 412.606 446.124C424.415 419.236 430.479 405.519 430.801 404.973C431.901 408.303 433.764 411.168 436.144 413.192C438.909 415.394 442.063 416.649 445.287 416.832L445.631 416.859C453.592 417.459 461.275 411.969 468.68 400.389C472.078 394.869 474.983 388.885 477.343 382.538C480.671 373.082 482.405 365.275 482.545 359.119L482.577 357.689C482.735 355.041 482.462 352.363 481.774 349.819C481.086 347.275 479.999 344.918 478.577 342.893ZM467.01 363.247C465.651 367.853 464.007 372.307 462.093 376.571C459.874 381.514 457.229 386.123 454.206 390.318C448.259 398.094 442.952 401.804 438.287 401.447C437.732 401.368 437.18 401.252 436.633 401.101C435.611 400.599 434.555 400.229 433.48 399.997L432.97 399.958C438.692 386.859 444.036 374.761 449.001 363.663C449.05 363.044 449.72 362.113 451.002 360.875C452.945 358.823 454.984 356.778 457.121 354.74C462.864 349.536 466.977 346.549 469.46 345.778C469.622 346.73 469.697 347.698 469.683 348.665C469.335 353.68 468.435 358.587 467.008 363.247L467.01 363.247Z" fill="#DB1A40"/>
<path d="M405.242 477.306C404.632 477.345 404.02 477.342 403.409 477.297C397.671 476.602 392.285 473.207 388.329 467.792L387.864 467.189C383.354 460.984 381.227 454.892 381.369 448.569C381.624 444.068 382.842 439.777 384.894 436.149C413.12 372.011 417.336 362.508 418.033 360.982C426.564 341.582 431.262 330.936 432.025 329.264L433.021 327.085L434.54 325.456C437.348 322.392 441.009 320.829 444.781 321.082L445.4 321.13C449.64 321.57 453.709 323.654 457.045 327.094C461.199 324.224 465.906 322.782 470.708 322.91L471.239 322.95C477.053 323.505 482.576 326.703 486.776 331.948L487.399 332.748C489.915 336.278 491.858 340.388 493.113 344.833C494.368 349.278 494.909 353.968 494.704 358.623L494.678 360.027C494.488 368.251 492.461 377.764 488.465 389.117C485.73 396.512 482.359 403.487 478.411 409.92C468.349 425.669 457.257 433.049 445.289 432.137C441.502 431.899 437.757 430.821 434.227 428.95C431.645 434.811 428.105 442.855 423.267 453.86C416.88 468.414 416.476 469.195 416.12 469.905L415.186 471.703L413.883 473.086C411.464 475.636 408.436 477.114 405.242 477.306Z" fill="#E84A94"/>
<path d="M218.293 464.904C217.117 464.081 215.826 463.568 214.502 463.396C209.798 463.656 205.116 464.226 200.475 465.103L198.245 465.506C185.86 468.001 173.784 472.274 162.252 478.242L161.341 478.813C161.531 475.902 161.917 470.765 162.5 463.403C165.027 430.146 166.372 412.215 166.536 409.61C168.394 390.211 168.273 377.113 166.171 370.315L166.004 369.775C164.868 366.165 162.836 363.087 160.219 361.013C157.381 358.853 154.208 357.525 150.945 357.132C147.681 356.74 144.414 357.292 141.393 358.748L141.126 358.871C133.244 362.872 126.168 368.94 120.356 376.684C117.289 380.561 114.484 384.755 111.969 389.225C109.28 393.746 106.957 398.601 105.032 403.722C103.563 407.87 102.345 412.159 101.388 416.555C98.9541 429.535 99.1293 440.528 101.914 449.533C102.914 453.012 104.53 456.179 106.635 458.79C112.186 464.373 117.75 465.89 123.327 463.342L124.381 462.858C127.104 461.419 129.577 459.348 131.674 456.751C133.365 454.779 134.87 452.567 136.159 450.156C137.755 447.328 139.08 444.267 140.108 441.033C144.223 427.384 144.847 415.922 141.983 406.648C140.335 401.299 137.313 396.756 133.412 393.761C129.432 391.315 126.243 390.64 123.844 391.736C123.67 391.827 123.499 391.93 123.334 392.043C122.809 392.373 122.411 392.948 122.223 393.651C122.034 394.353 122.07 395.129 122.322 395.817C122.769 396.986 123.437 398.006 124.265 398.784C125.589 399.969 126.591 401.645 127.125 403.567C129.115 410.006 128.924 418.444 126.551 428.879C125.547 432.969 124.215 436.908 122.575 440.636C119.202 447.523 115.999 451.663 112.965 453.057L112.332 453.347C111.745 453.583 111.131 453.707 110.51 453.717C110.305 453.706 109.961 452.912 109.474 451.334L109.284 450.727C108.568 448.328 108.064 445.845 107.781 443.323C106.804 433.729 107.599 424.051 110.103 415.05C111.117 411.362 112.326 407.771 113.721 404.299C115.295 400.801 116.696 397.901 117.923 395.6C120.638 390.672 123.671 386.039 126.991 381.747C133.989 372.998 140.401 367.294 146.225 364.634L147.074 364.249C147.865 363.859 148.691 363.585 149.537 363.432C149.786 363.318 150.321 364.46 151.142 366.859C152.55 371.405 152.943 379.062 152.321 389.831C152.043 394.524 151.282 404.892 150.038 420.934C146.989 460.605 145.273 483.071 144.889 488.333L143.364 489.26C137.501 493.223 132.227 497.07 127.543 500.803C127.095 501.004 126.721 501.395 126.483 501.912C126.246 502.428 126.159 503.038 126.239 503.638L126.264 503.709C126.666 505.382 127.462 506.874 128.545 507.983C131.457 510.761 133.919 511.948 135.931 511.545L136.639 511.298C140.516 508.191 144.332 505.292 148.088 502.6C150.369 503.741 152.775 504.388 155.204 504.514C156.096 504.503 156.979 504.333 157.826 504.009L158.039 503.91C159.135 503.415 159.676 502.113 159.671 500.008L160.114 494.792C174.721 485.685 190.383 479.388 206.593 476.106L208.179 475.77C211.984 475.054 216.343 474.501 221.255 474.111C221.589 474.022 221.915 473.899 222.231 473.742C222.546 473.502 222.793 473.147 222.941 472.721C223.089 472.296 223.131 471.821 223.062 471.357C222.77 469.23 221.18 467.079 218.293 464.904Z" fill="white"/>
<path d="M224.914 395.842C224.346 393.746 223.615 391.721 222.731 389.797C221.085 385.953 218.671 382.699 215.736 380.369C213.731 378.843 211.506 377.86 209.207 377.486C206.909 377.112 204.589 377.355 202.4 378.199C198.082 379.847 194.081 383.822 190.396 390.122C188.967 392.514 187.757 395.105 186.786 397.849C186.393 397.92 186.005 398.018 185.622 398.146L185.133 398.332C184.663 398.527 184.243 398.871 183.913 399.33C182.833 402.032 181.967 404.869 181.328 407.801C178.681 421.367 178.749 433.439 181.531 444.017C182.893 449.842 185.632 455.053 189.377 458.942C194.144 463.527 198.828 464.94 203.429 463.18L204.399 462.808C208.61 461.201 212.798 456.956 216.964 450.071C218.729 446.994 220.253 443.704 221.517 440.245C223.032 435.978 224.247 431.541 225.147 426.985C227.257 414.836 227.276 404.82 225.204 396.939L224.914 395.842ZM218.21 420.031C217.774 422.99 217.169 425.898 216.402 428.735C215.445 432.66 214.172 436.439 212.602 440.016C208.56 448.87 204.361 454.127 200.005 455.789C198.288 453.75 197.051 451.156 196.438 448.31L196.111 447.069C195.064 442.69 194.513 438.164 194.476 433.63C196.537 434.812 198.81 435.207 201.008 434.764L201.605 434.536C201.914 434.402 202.206 434.213 202.472 433.976C202.848 433.606 203.113 433.086 203.226 432.497C203.339 431.908 203.295 431.283 203.099 430.716C203.02 430.391 202.917 430.075 202.792 429.771C201.728 427.96 200.882 425.964 200.283 423.852C198.534 417.206 199.546 409.762 203.319 401.519C206.843 394.927 210.26 390.999 213.569 389.738C214.285 389.531 215.034 389.53 215.762 389.734C216.083 389.61 216.69 391.167 217.585 394.404L217.748 395.023C219.45 401.486 219.604 409.822 218.21 420.031Z" fill="white"/>
<path d="M303.149 340.869C305.437 342.814 308.171 343.696 310.868 343.36C311.286 343.287 311.683 343.096 312.031 342.803C312.378 342.51 312.667 342.12 312.876 341.663C315.294 329.588 316.671 322.477 317.007 320.33C317.455 318.984 317.658 317.521 317.601 316.045L317.518 315.627C316.907 313.598 315.808 311.845 314.377 310.62C310.761 307.431 307.68 306.166 305.134 306.827C304.371 306.996 303.702 307.541 303.271 308.342C303.125 308.819 301.752 315.854 299.151 329.446C298.684 330.949 298.453 332.56 298.471 334.192L298.525 334.472C298.903 336.49 300.444 338.622 303.149 340.869Z" fill="white"/>
<path d="M365.037 358.026C364.755 355.377 364.048 352.81 362.962 350.484C361.875 348.157 360.43 346.12 358.716 344.495C356.28 342.395 353.345 341.474 350.469 341.909L349.961 342.003C346.53 342.656 341.949 346.904 336.217 354.744C335.358 352.96 334.213 351.414 332.86 350.207C329.65 347.611 327.056 346.501 325.077 346.876L324.46 346.993C323.786 347.144 323.195 347.624 322.812 348.329C322.347 350.162 319.556 361.794 314.439 383.223C314.17 384.286 312.889 389.595 310.627 399.014C308.061 404.28 306.137 407.996 304.934 409.966C302.837 413.687 300.554 417.232 298.099 420.582L297.978 420.54C298.194 418.374 298.457 416.269 298.767 414.223C299.74 408.862 302.845 392.678 308.083 365.671C308.741 363.236 309.163 360.703 309.341 358.123C308.606 355.439 307.103 353.171 305.133 351.771C301.797 349.244 299.04 348.263 296.862 348.83C296.454 348.909 296.068 349.1 295.732 349.391C295.395 349.682 295.116 350.066 294.915 350.514C294.313 353.328 291.456 368.049 286.342 394.677C285.546 398.392 284.906 401.752 284.403 404.834C282.964 408.158 281.638 411.124 280.513 413.448C278.046 418.51 275.275 423.319 272.222 427.834L272.117 427.866L272.201 426.423C272.582 421.982 273.672 414.312 275.469 403.414C276.358 397.913 280.417 372.217 287.644 326.326C287.996 325.001 288.121 323.589 288.012 322.182L287.934 321.834C287.221 319.759 286.01 318.002 284.476 316.819C280.758 313.968 277.711 312.918 275.335 313.669L275.286 313.686C274.88 313.785 274.5 313.996 274.173 314.306C273.845 314.615 273.579 315.015 273.393 315.476C273.104 317.157 272.323 322.172 271.052 330.523C263.749 376.439 260.022 400.017 259.871 401.257C259.053 405.766 258.442 409.773 257.995 413.378C256.583 416.602 255.267 419.496 254.172 421.758C251.708 426.801 248.957 431.605 245.94 436.133L245.828 436.166L245.922 434.722C246.261 430.292 247.35 422.621 249.19 411.709C250.039 406.224 255.032 374.447 264.167 316.377C264.491 315.054 264.599 313.654 264.484 312.26L264.406 311.908C263.702 309.841 262.512 308.082 261 306.875C257.278 304.029 254.212 302.986 251.802 303.747L251.745 303.765C251.351 303.867 250.982 304.079 250.666 304.385C250.349 304.69 250.093 305.083 249.914 305.534C249.622 307.22 247.907 318.321 244.769 338.836C237.43 384.764 233.682 408.348 233.527 409.588C230.952 424.012 230.236 433.802 231.38 438.957C231.652 440.26 232.088 441.506 232.669 442.648C235.567 447.594 238.803 449.503 242.377 448.373C246.579 447.043 251.436 441.287 256.948 431.104C257.126 430.803 257.356 430.362 257.562 429.991C257.6 430.202 257.62 430.445 257.667 430.652C257.935 431.957 258.371 433.204 258.956 434.343C261.847 439.29 265.102 441.193 268.721 440.053C272.916 438.728 277.771 432.972 283.286 422.784C283.318 422.737 283.359 422.647 283.391 422.594C283.397 422.679 283.404 422.776 283.422 422.855C283.658 423.966 283.997 425.042 284.432 426.059C287.207 431.383 290.458 433.562 294.185 432.594C297.289 431.788 300.867 428.541 304.887 422.944C302.058 434.764 298.606 449.196 294.532 466.242C293.954 467.905 293.626 469.697 293.564 471.53L293.598 471.74C293.887 473.774 295.335 475.978 297.942 478.352C300.136 480.496 302.849 481.585 305.575 481.419L305.633 481.415C306.398 481.314 307.093 480.842 307.572 480.098C307.802 479.32 309.148 473.768 311.611 463.442C318.664 433.87 322.298 418.772 322.512 418.148C324.131 421.139 326.41 423.476 329.054 424.854C332.104 426.296 335.378 426.706 338.541 426.043L338.879 425.981C346.712 424.489 353.273 417.071 358.562 403.725C360.958 397.403 362.797 390.752 364.046 383.886C365.718 373.704 366.118 365.561 365.244 359.458L365.037 358.026ZM350.833 367.577C350.27 372.469 349.406 377.287 348.25 381.988C346.904 387.435 345.093 392.666 342.848 397.59C338.347 406.803 333.798 411.845 329.203 412.718C328.654 412.786 328.101 412.816 327.548 412.81C326.469 412.586 325.378 412.502 324.293 412.559L323.788 412.652C327.2 398.253 330.403 384.939 333.399 372.712C333.347 372.091 333.843 371.001 334.885 369.441C336.436 366.909 338.08 364.361 339.819 361.798C344.54 355.167 348.045 351.148 350.335 349.742C350.649 350.636 350.88 351.571 351.021 352.527C351.513 357.553 351.447 362.618 350.827 367.577L350.833 367.577Z" fill="white"/>
<path d="M409.275 397.711C411.54 394.027 413.538 390.089 415.246 385.943C419.514 374.813 421.347 365.142 420.745 356.931L420.668 355.792C420.489 353.604 420.137 351.437 419.618 349.323C418.7 345.136 416.925 341.297 414.472 338.197C412.783 336.146 410.779 334.556 408.592 333.532C406.405 332.509 404.086 332.075 401.787 332.26C396.537 333.009 391.659 335.83 387.844 340.323C386.011 342.224 384.355 344.382 382.908 346.756C382.509 346.71 382.108 346.693 381.708 346.705L381.199 346.739C380.701 346.794 380.226 347.005 379.816 347.352C378.265 349.652 376.903 352.145 375.749 354.797C370.694 367.137 368.575 378.82 369.391 389.847C369.668 395.868 371.41 401.694 374.378 406.53C378.222 412.334 382.562 415.048 387.397 414.672L388.418 414.603C392.838 414.261 397.713 411.364 403.043 405.912C405.328 403.443 407.415 400.697 409.275 397.711ZM385.371 406.543C384.054 404.079 383.309 401.215 383.221 398.286L383.134 396.997C382.898 392.463 383.176 387.931 383.961 383.537C385.768 385.275 387.927 386.311 390.163 386.513L390.785 386.471C391.112 386.431 391.432 386.332 391.734 386.178C392.17 385.928 392.524 385.502 392.741 384.965C392.959 384.428 393.028 383.81 392.938 383.206C392.92 382.87 392.878 382.536 392.811 382.208C392.095 380.152 391.626 377.981 391.42 375.769C390.912 368.846 393.253 361.945 398.443 355.064C403.099 349.714 407.165 346.903 410.641 346.631C411.382 346.636 412.118 346.851 412.795 347.258C413.133 347.236 413.447 348.915 413.737 352.298L413.781 352.94C414.28 359.672 412.921 367.774 409.702 377.245C408.738 379.978 407.62 382.616 406.355 385.138C404.704 388.653 402.771 391.938 400.585 394.943C395.007 402.322 389.936 406.188 385.371 406.543Z" fill="white"/>
<path d="M478.577 342.893C476.525 340.212 473.785 338.549 470.881 338.222L470.367 338.181C466.878 337.915 461.666 340.843 454.731 346.965C454.179 345.007 453.308 343.206 452.176 341.678C449.436 338.315 447.062 336.557 445.054 336.403L444.428 336.356C443.741 336.327 443.08 336.637 442.587 337.22C441.828 338.881 437.165 349.453 428.598 368.937C427.52 371.299 416.431 396.446 395.33 444.378C394.487 445.844 393.871 447.501 393.511 449.266L393.505 449.479C393.46 451.531 394.523 454.053 396.694 457.044C398.502 459.703 400.994 461.474 403.706 462.027L403.764 462.023C404.532 462.124 405.292 461.847 405.885 461.25C406.241 460.562 408.482 455.52 412.606 446.124C424.415 419.236 430.479 405.519 430.801 404.973C431.901 408.303 433.764 411.168 436.144 413.192C438.909 415.394 442.063 416.649 445.287 416.832L445.631 416.859C453.592 417.459 461.275 411.969 468.68 400.389C472.078 394.869 474.983 388.885 477.343 382.538C480.671 373.082 482.405 365.275 482.545 359.119L482.577 357.689C482.735 355.041 482.462 352.363 481.774 349.819C481.086 347.275 479.999 344.918 478.577 342.893ZM467.01 363.247C465.651 367.853 464.007 372.307 462.093 376.571C459.874 381.514 457.229 386.123 454.206 390.318C448.259 398.094 442.952 401.804 438.287 401.447C437.732 401.368 437.18 401.252 436.633 401.101C435.611 400.599 434.555 400.229 433.48 399.997L432.97 399.958C438.692 386.859 444.036 374.761 449.001 363.663C449.05 363.044 449.72 362.113 451.002 360.875C452.945 358.823 454.984 356.778 457.121 354.74C462.864 349.536 466.977 346.549 469.46 345.778C469.622 346.73 469.697 347.698 469.683 348.665C469.335 353.68 468.435 358.587 467.008 363.247L467.01 363.247Z" fill="white"/>
<defs>
<linearGradient id="paint0_linear" x1="-224.074" y1="166.225" x2="-82.2026" y2="221.822" gradientUnits="userSpaceOnUse">
<stop stop-color="white"/>
<stop offset="0.49" stop-color="#FEFAFC"/>
<stop offset="1" stop-color="#EA4C95"/>
</linearGradient>
<linearGradient id="paint1_linear" x1="-216.428" y1="160.573" x2="-141.517" y2="183.383" gradientUnits="userSpaceOnUse">
<stop stop-color="white"/>
<stop offset="0.49" stop-color="#FEFAFC"/>
<stop offset="1" stop-color="#EA4C95"/>
</linearGradient>
<linearGradient id="paint2_linear" x1="-206.573" y1="144.068" x2="-130.501" y2="173.497" gradientUnits="userSpaceOnUse">
<stop stop-color="white"/>
<stop offset="0.49" stop-color="#FEFAFC"/>
<stop offset="1" stop-color="#EA4C95"/>
</linearGradient>
</defs>
</svg>
