<svg width="101" height="90" viewBox="0 0 101 90" fill="none" xmlns="http://www.w3.org/2000/svg">
<path d="M36.7418 65.812C36.4539 65.6384 36.1526 65.5556 35.8567 65.5689C34.8381 65.8572 33.8358 66.2302 32.8538 66.6864L32.3814 66.9004C29.7668 68.1605 27.2862 69.8986 24.9876 72.0812L24.8099 72.2814C24.7427 71.4665 24.6356 70.0264 24.4886 67.961C23.8011 58.6361 23.4267 53.6094 23.3654 52.8806C23.0484 47.4238 22.5335 43.8025 21.8207 42.0168L21.764 41.8749C21.381 40.9276 20.822 40.1688 20.1725 39.7148C19.4715 39.2469 18.7285 39.0252 18.0004 39.0664C17.2723 39.1077 16.5786 39.4109 15.9724 39.9529L15.9187 39.9993C14.3447 41.4692 13.0242 43.4747 12.0422 45.8861C11.5163 47.1007 11.0595 48.3909 10.6762 49.7441C10.257 51.1195 9.93016 52.5708 9.70033 54.0773C9.53375 55.2932 9.42738 56.5369 9.38211 57.7982C9.33392 61.5041 9.78204 64.5398 10.7265 66.9052C11.075 67.8226 11.5463 68.6254 12.1039 69.2514C13.5255 70.5422 14.7984 70.7066 15.9226 69.7446L16.135 69.5623C16.6766 69.0386 17.14 68.3517 17.5015 67.536C17.7978 66.9124 18.0443 66.2307 18.2362 65.5039C18.4796 64.6475 18.6552 63.7388 18.7595 62.796C19.15 58.8276 18.8593 55.6252 17.8874 53.189C17.3276 51.7836 16.4976 50.6645 15.533 50.0147C14.5718 49.5203 13.8494 49.48 13.3659 49.8937C13.3312 49.9269 13.2978 49.9631 13.2659 50.0021C13.1634 50.1175 13.0979 50.2951 13.0829 50.4983C13.0679 50.7015 13.1046 50.9146 13.1853 51.0935C13.3266 51.3969 13.5106 51.6485 13.7207 51.8257C14.0544 52.0931 14.3359 52.5112 14.5242 53.0189C15.1993 54.7103 15.4721 57.0554 15.3426 60.054C15.2756 61.2327 15.1312 62.3846 14.9117 63.4922C14.431 65.554 13.885 66.8476 13.2737 67.373L13.1463 67.4824C13.0268 67.5747 12.8972 67.6375 12.7618 67.6688C12.7164 67.6751 12.6117 67.4711 12.4464 67.0565L12.3823 66.8971C12.1363 66.2658 11.9336 65.6014 11.7777 64.916C11.2064 62.3045 11.0193 59.5883 11.2311 56.9807C11.3154 55.913 11.4458 54.863 11.6213 53.8375C11.8351 52.7965 12.0331 51.9293 12.2155 51.2357C12.6254 49.7462 13.1156 48.3242 13.6814 46.9831C14.8852 44.239 16.0742 42.3647 17.2483 41.3605L17.4194 41.215C17.5779 41.0707 17.7484 40.9568 17.9276 40.8756C17.9776 40.8325 18.1372 41.1242 18.4063 41.7507C18.8835 42.9446 19.2549 45.0468 19.5204 48.0571C19.6345 49.3695 19.8546 52.2752 20.1808 56.7744C20.9934 67.8992 21.4558 74.1989 21.5681 75.6735L21.2692 76.0003C20.1352 77.367 19.1258 78.6748 18.2409 79.9238C18.1505 79.9999 18.0833 80.1255 18.0506 80.2794C18.0179 80.4333 18.0218 80.6061 18.0615 80.7685L18.0696 80.7872C18.2198 81.2318 18.4496 81.6083 18.7277 81.8657C19.4679 82.501 20.0504 82.7165 20.4752 82.5124L20.6207 82.4115C21.3524 81.3732 22.0786 80.395 22.7994 79.4768C23.3406 79.688 23.8908 79.7567 24.4262 79.6798C24.621 79.6358 24.8077 79.5481 24.9808 79.4194L25.0235 79.3823C25.2448 79.1947 25.3144 78.8093 25.2348 78.2267L25.1373 76.7621C27.991 73.569 31.1801 71.1057 34.6016 69.4517L34.9357 69.2857C35.741 68.9127 36.6732 68.5592 37.7325 68.2253C37.8021 68.1853 37.8689 68.1362 37.9323 68.0785C37.992 67.9975 38.0327 67.8877 38.0492 67.7632C38.0657 67.6386 38.0573 67.5051 38.025 67.3796C37.8817 66.8042 37.454 66.2817 36.7418 65.812Z" fill="#DB1A40"/>
<path d="M21.1576 86.7398C19.9719 87.0136 18.7142 86.5873 17.6214 85.5411L17.3246 85.2516C16.673 84.5785 16.1268 83.6711 15.7394 82.6182L15.6663 82.4502L15.5326 81.9359C15.2848 80.9557 15.2294 79.9133 15.3739 78.9502C15.5183 77.9871 15.8556 77.1499 16.3399 76.5523C17.0458 75.5598 17.8327 74.5232 18.6881 73.4608C18.6615 73.1075 18.6326 72.7182 18.6013 72.293C18.3101 72.695 17.9908 73.0469 17.6483 73.3437L17.438 73.524C15.5167 75.1667 13.2077 74.932 10.9307 72.8678L10.7274 72.665C9.80884 71.6541 9.02938 70.3513 8.44937 68.8574C7.1948 65.711 6.59039 61.8069 6.64932 57.2448C6.6939 55.7514 6.81544 54.2791 7.01279 52.8419L7.05129 52.5746C7.32171 50.824 7.70417 49.1375 8.19329 47.539C8.63187 46.0032 9.1551 44.5405 9.7577 43.1654C10.9394 40.3093 12.5229 37.9407 14.4057 36.213C15.3482 35.3725 16.4248 34.8975 17.5552 34.8236C18.6855 34.7496 19.8404 35.0786 20.9338 35.786L21.1033 35.902C22.3032 36.7551 23.3336 38.1691 24.0373 39.9284C25.0976 42.5884 25.7115 46.5641 26.0827 52.9672C26.1283 53.475 26.4391 57.6542 27.0107 65.3809C28.4036 64.3717 29.8474 63.5128 31.333 62.8095L31.8309 62.5846C32.8927 62.093 33.9761 61.69 35.0769 61.3771C35.7993 61.2192 36.5556 61.3495 37.2779 61.7562L37.5592 61.9165C39.0863 62.9246 40.0946 64.378 40.5561 66.2366C40.7757 67.1182 40.8388 68.0511 40.7383 68.9302C40.6377 69.8092 40.3775 70.5995 39.9869 71.2119L39.7468 71.597L39.4432 71.858C39.2335 72.0448 39.0101 72.1963 38.7761 72.3102L38.552 72.3984C37.564 72.7115 36.6943 73.0405 35.9689 73.3764L35.6837 73.5178C32.9359 74.836 30.3505 76.7289 27.9929 79.1488C27.9972 79.9946 27.8653 80.8052 27.6091 81.5072C27.3529 82.2093 26.9804 82.7805 26.5255 83.169C26.1117 83.5038 25.6626 83.7393 25.1919 83.8684L24.8781 83.9268C24.5388 83.9588 24.1967 83.9625 23.8532 83.9377C23.4279 84.5046 23.0023 85.0904 22.5763 85.6952L22.2973 86.0899L21.5371 86.5938C21.413 86.6527 21.2863 86.7014 21.1576 86.7398ZM18.8824 45.0022L18.8723 45.0053L18.8824 45.0022Z" fill="#E84A94"/>
<path d="M35.6144 46.3854C35.4122 45.8313 35.1769 45.3042 34.912 44.812C34.4088 43.8233 33.7596 43.0333 33.0311 42.5229C32.536 42.1925 32.0129 42.0227 31.4964 42.0248C30.9799 42.0269 30.4818 42.2008 30.0349 42.535C29.1523 43.19 28.4257 44.4744 27.8551 46.3882C27.632 47.1162 27.4639 47.8894 27.3541 48.6938C27.2708 48.7313 27.1895 48.7766 27.1106 48.8294L27.0106 48.9035C26.9151 48.9792 26.8362 49.0935 26.7811 49.2359C26.6457 50.0338 26.5622 50.8591 26.5318 51.7002C26.459 55.5783 26.9239 58.9179 27.9265 61.719C28.4413 63.2693 29.2346 64.5863 30.1982 65.4909C31.4113 66.5413 32.4879 66.7172 33.428 66.0186L33.6264 65.8709C34.4869 65.2326 35.2442 63.8645 35.8984 61.7666C36.1694 60.8334 36.3799 59.8524 36.5273 58.8366C36.6995 57.5854 36.7996 56.3011 36.8264 54.9981C36.8347 51.537 36.4655 48.7629 35.7187 46.6759L35.6144 46.3854ZM35.0507 53.3915C35.0657 54.2307 35.042 55.0639 34.9799 55.8847C34.9171 57.0154 34.7796 58.1205 34.5697 59.1829C34.0163 61.8202 33.2944 63.4691 32.404 64.1295C31.9527 63.6438 31.5855 62.9825 31.3453 62.2224L31.2276 61.8938C30.8354 60.7294 30.5463 59.5017 30.3692 58.2478C30.8638 58.4805 31.3755 58.4853 31.8394 58.2616L31.9614 58.1711C32.024 58.1196 32.0808 58.054 32.1302 57.9761C32.1985 57.8563 32.237 57.7003 32.2398 57.532C32.2426 57.3637 32.2095 57.1925 32.1457 57.0447C32.1162 56.9583 32.0819 56.8754 32.0434 56.7971C31.7431 56.3444 31.4838 55.8307 31.2742 55.2733C30.644 53.5135 30.5876 51.4058 31.1051 48.9502C31.6299 46.9626 32.2304 45.7182 32.9066 45.2168C33.0556 45.1266 33.2193 45.0918 33.3859 45.1148C33.4515 45.0657 33.6424 45.4689 33.9586 46.3243L34.0173 46.488C34.6303 48.1994 34.9748 50.5005 35.0507 53.3915Z" fill="#DB1A40"/>
<path d="M33.5497 70.55C32.0623 70.9531 30.4699 70.4582 29.0817 69.1617C27.6016 67.8111 26.3767 65.8221 25.5751 63.4676C24.3111 59.9338 23.7141 55.7764 23.8004 51.1091C23.8364 49.968 23.9461 48.8481 24.1278 47.7658L24.2274 47.1592L24.442 46.6466C24.5929 46.2814 24.7753 45.9528 24.9847 45.6686C25.0923 45.1405 25.227 44.6307 25.3877 44.1439C26.0377 41.76 27.1775 39.8395 28.646 38.6532C29.4125 38.0817 30.2652 37.7804 31.1498 37.7686C32.0344 37.7568 32.9314 38.0347 33.7834 38.5846C34.9869 39.3854 36.0652 40.6549 36.9052 42.2601C37.3047 43.0007 37.6592 43.7946 37.9633 44.6295L38.073 44.9334C39.0826 47.7551 39.5693 51.2092 39.5581 55.4835C39.5319 57.0516 39.4148 58.5973 39.208 60.1019L39.1762 60.3243C38.9859 61.6372 38.7053 62.9001 38.3391 64.0925C37.4806 66.8434 36.382 68.7394 35.0173 69.7519L34.8195 69.8982C34.42 70.1967 33.9938 70.4155 33.5497 70.55Z" fill="#E84A94"/>
<path d="M50.6677 27.568C51.2404 28.0013 51.8711 28.12 52.4481 27.9029C52.5369 27.8634 52.6166 27.7925 52.6816 27.6952C52.7465 27.598 52.7951 27.477 52.8238 27.3408C52.9022 23.886 52.9382 21.8537 52.9317 21.2439C52.9793 20.8507 52.9691 20.4362 52.9017 20.03L52.868 19.9182C52.6588 19.3844 52.3531 18.9495 51.9947 18.6761C51.0853 17.9592 50.3646 17.7507 49.8325 18.0507C49.6721 18.1326 49.546 18.3142 49.4819 18.5559C49.4676 18.6946 49.4297 20.7055 49.368 24.5887C49.3219 25.0263 49.3315 25.4831 49.3963 25.9342L49.4184 26.0093C49.5762 26.5505 49.9927 27.0701 50.6677 27.568Z" fill="#DB1A40"/>
<path d="M53.0591 32.1655C52.0303 32.4174 50.9436 32.1909 49.929 31.5129L49.7309 31.3811C48.3423 30.3586 47.4338 29.0572 46.951 27.4048C46.6479 26.2706 46.5397 25.0632 46.6378 23.9105C46.7331 17.94 46.7463 17.8035 46.7768 17.4747L46.8231 16.9994L46.9384 16.5647C47.2572 15.3695 47.8722 14.461 48.6577 14.0247C49.8986 13.3202 51.3625 13.6234 53.0024 14.9147L53.2024 15.0849C54.1228 15.8565 54.8774 17.0749 55.3374 18.5325C55.6389 19.6161 55.7516 20.7757 55.663 21.8846C55.6639 22.504 55.6453 23.9209 55.5527 27.9579L55.5419 28.468L55.4514 28.9447C55.3178 29.6439 55.0846 30.2724 54.7681 30.7872C54.4515 31.3019 54.059 31.6906 53.6176 31.9264C53.4371 32.0283 53.2504 32.1082 53.0591 32.1655Z" fill="#E84A94"/>
<path d="M64.8375 29.4739C64.677 28.7532 64.427 28.0751 64.1027 27.4809C63.7783 26.8866 63.3866 26.3888 62.9513 26.0177C62.3404 25.5481 61.6643 25.4282 61.0519 25.6808L60.9444 25.7301C60.2187 26.0687 59.3755 27.4553 58.4148 29.8898C58.1603 29.4353 57.8526 29.0597 57.5117 28.7878C56.7132 28.2166 56.1046 28.0284 55.686 28.2232L55.5555 28.2841C55.4138 28.3568 55.3024 28.5168 55.245 28.7297C55.2117 29.2587 55.0351 32.6076 54.7154 38.7763C54.6964 39.0833 54.6142 40.6122 54.4709 43.3242C54.1062 44.9002 53.8242 46.0176 53.6346 46.6182C53.3149 47.745 52.9481 48.8317 52.5362 49.8721L52.5082 49.8659C52.4746 49.2563 52.4536 48.6612 52.4453 48.0806C52.458 46.5514 52.5334 41.9273 52.6716 34.2085C52.7247 33.5042 52.7225 32.7832 52.6652 32.0607C52.4044 31.3512 51.9914 30.7923 51.5085 30.4954C50.685 29.9488 50.0457 29.8041 49.5906 30.0612C49.5045 30.1017 49.4273 30.1725 49.3646 30.2685C49.3018 30.3646 49.2551 30.4835 49.2277 30.6169C49.2012 31.4238 49.1253 35.6313 49.0001 43.2395C48.9648 44.3048 48.9501 45.2644 48.955 46.141C48.7643 47.1276 48.5851 48.0099 48.4258 48.7049C48.0751 50.22 47.6485 51.6789 47.1495 53.0694L47.1278 53.0831L47.0923 52.6798C47.0101 51.4326 46.9623 49.2588 46.9489 46.1584C46.9382 44.5945 46.8674 37.2928 46.7365 24.2535C46.7639 23.8705 46.7387 23.4739 46.6624 23.0891L46.6324 22.9966C46.3993 22.4546 46.0689 22.0238 45.6894 21.7668C44.7703 21.1482 44.0651 20.9975 43.5737 21.3147L43.5635 21.3217C43.4786 21.3676 43.4033 21.4437 43.3433 21.5445C43.2833 21.6452 43.24 21.7681 43.2165 21.9042C43.2159 22.383 43.2323 23.8077 43.2658 26.1782C43.3811 39.2279 43.4454 45.9279 43.4585 46.2782C43.4478 47.5642 43.4637 48.7019 43.5003 49.7206C43.3118 50.6781 43.132 51.5402 42.977 52.2168C42.6264 53.7264 42.2041 55.183 41.7133 56.5755L41.69 56.5897L41.6568 56.1857C41.5657 54.9434 41.5178 52.7692 41.5132 49.6631C41.4944 48.1055 41.401 39.0772 41.2331 22.578C41.2547 22.1967 41.2261 21.804 41.1489 21.4233L41.1187 21.3295C40.8878 20.7895 40.562 20.3571 40.1866 20.0924C39.2668 19.4754 38.5576 19.3276 38.0591 19.6492L38.0473 19.6567C37.9649 19.703 37.8923 19.7786 37.8345 19.8778C37.7767 19.9771 37.7352 20.0976 37.713 20.2307C37.7119 20.711 37.7508 23.8635 37.8299 29.6882C37.9376 42.7429 37.9977 49.4454 38.01 49.7959C37.9848 53.9081 38.1933 56.6517 38.6355 58.0266C38.7436 58.3749 38.8853 58.7 39.055 58.9893C39.873 60.2258 40.6516 60.6055 41.3907 60.1283C42.2598 59.567 43.107 57.7499 43.9322 54.677C43.9601 54.5855 43.9938 54.4529 44.0251 54.3406C44.0412 54.3971 44.0547 54.4636 44.0726 54.5189C44.18 54.8678 44.3217 55.1931 44.4921 55.4816C45.3086 56.7185 46.0911 57.0959 46.8397 56.6137C47.7075 56.0541 48.5543 54.2371 49.3801 51.1627C49.3851 51.148 49.3907 51.1213 49.3959 51.1052C49.4003 51.1283 49.4054 51.1551 49.4123 51.1761C49.5053 51.4728 49.6195 51.7551 49.7526 52.0169C50.5578 53.3635 51.3498 53.8172 52.1284 53.3779C52.777 53.0122 53.4382 51.9487 54.1083 50.214C53.9305 53.6169 53.714 57.7719 53.4587 62.679C53.3944 63.166 53.3895 63.6773 53.4443 64.1876L53.4596 64.2443C53.5985 64.7942 53.9972 65.3379 54.6557 65.8755C55.2154 66.3681 55.849 66.5452 56.4387 66.3738L56.4512 66.3701C56.6147 66.307 56.749 66.1444 56.826 65.9164C56.8473 65.6903 56.9346 64.0911 57.0881 61.1187C57.5273 52.606 57.7589 48.2585 57.7826 48.076C58.2479 48.8297 58.8333 49.3719 59.4627 49.6322C60.1833 49.8912 60.9142 49.8543 61.581 49.5251L61.6526 49.4925C63.3094 48.7194 64.4671 46.3637 65.1258 42.4252C65.414 40.5647 65.568 38.6384 65.5851 36.6799C65.571 33.7836 65.3548 31.5106 64.9363 29.8609L64.8375 29.4739ZM62.0884 32.7712C62.1477 34.1517 62.1385 35.5255 62.061 36.8803C61.9698 38.4505 61.7689 39.9821 61.4618 41.4487C60.8212 44.2066 60.0148 45.812 59.0427 46.2649C58.9253 46.3089 58.8056 46.3427 58.6844 46.3663C58.4402 46.3539 58.1986 46.3807 57.9634 46.4464L57.8566 46.4955C58.0656 42.3516 58.2695 38.5179 58.4686 34.9944C58.4341 34.825 58.5018 34.5004 58.6716 34.0206C58.9161 33.2482 59.1806 32.4671 59.4652 31.6774C60.2501 29.6243 60.8665 28.3505 61.3146 27.8559C61.4167 28.089 61.502 28.3372 61.5685 28.5953C61.8633 29.9644 62.0379 31.37 62.0872 32.7716L62.0884 32.7712Z" fill="#DB1A40"/>
<path d="M57.1193 70.6005C56.0007 70.872 54.8149 70.5561 53.7408 69.7006L53.6061 69.5966C52.2354 68.4778 51.3623 67.1091 50.9315 65.4101C50.6593 64.1905 50.5946 62.9152 50.7444 61.7166L50.9546 57.649C50.7857 57.5952 50.6177 57.5269 50.4516 57.4443C49.8805 58.8122 49.0756 59.8879 48.1142 60.5682C47.1964 61.1841 46.1297 61.2386 45.1082 60.7216C44.5254 62.1947 43.6827 63.3547 42.6667 64.0824C40.9147 65.2083 38.9445 64.4061 37.2685 61.8757L37.1653 61.7141C36.7843 61.0751 36.4654 60.3555 36.2209 59.583C35.5424 57.4711 35.2519 54.3214 35.2791 49.3712C35.2674 48.7432 35.2351 45.8524 35.0997 29.2679C34.9948 21.5267 34.9812 20.1108 34.9827 19.7379L34.9836 19.2492L35.0569 18.7862C35.1684 18.084 35.379 17.4446 35.6744 16.9115C35.9697 16.3784 36.3429 15.9641 36.7685 15.6968C37.9585 14.9304 39.3833 15.1062 41.0251 16.2104L41.3064 16.4274C41.6337 16.7097 41.9475 17.0335 42.2445 17.395L42.2928 17.3634C43.4665 16.6065 44.8867 16.7843 46.5284 17.8899L46.7822 18.0835C47.7391 18.8004 48.5414 19.9908 49.0507 21.449C49.371 22.5041 49.5149 23.6421 49.4679 24.7479C49.471 25.07 49.474 25.3886 49.4768 25.7037C50.4362 25.6464 51.4161 25.9575 52.3319 26.61L52.496 26.7277C52.5516 26.771 52.6064 26.8146 52.6618 26.8593L52.7599 26.5458C53.1055 25.4106 53.7316 24.572 54.5112 24.1999L54.6464 24.1377C55.537 23.7628 56.511 23.8393 57.4362 24.3569C58.0688 23.1073 58.9186 22.1732 59.9021 21.646L60.0157 21.5936C61.2331 21.0625 62.5827 21.2638 63.8138 22.1601L63.999 22.3024C64.7652 22.9434 65.4576 23.8049 66.035 24.8357C66.6125 25.8665 67.0632 27.0455 67.3605 28.303L67.4575 28.6853C68.0175 30.8841 68.2971 33.6415 68.3124 37.1221C68.297 39.4039 68.1209 41.6486 67.7874 43.8166C66.8948 49.1697 65.1836 52.4232 62.6899 53.5833C61.9057 53.9625 61.0691 54.1149 60.2185 54.0334C60.1209 55.9012 59.9881 58.4499 59.8069 61.9234C59.5703 66.5236 59.5451 66.7896 59.5238 67.0043L59.4658 67.5997L59.3006 68.1252C58.9337 69.267 58.2867 70.1018 57.4888 70.4628C57.369 70.5145 57.2459 70.5626 57.1193 70.6005Z" fill="#E84A94"/>
<path d="M75.9884 38.4283C76.3463 37.3041 76.6363 36.1219 76.855 34.8952C77.3731 31.6172 77.4133 28.8552 76.9755 26.6092L76.9162 26.2974C76.7954 25.6997 76.6377 25.1158 76.4454 24.5544C76.0888 23.4373 75.5574 22.4558 74.9057 21.7103C74.4599 21.2199 73.9625 20.8717 73.4463 20.6888C72.9301 20.5059 72.4069 20.4925 71.9112 20.6493C70.7913 21.098 69.8301 22.1033 69.1638 23.5229C68.8338 24.1336 68.5523 24.8071 68.3245 25.531C68.2354 25.5366 68.1471 25.5503 68.0601 25.5719L67.9503 25.6048C67.8434 25.643 67.7473 25.7232 67.6706 25.8382C67.4173 26.5462 67.2125 27.2993 67.0591 28.0867C66.4142 31.7358 66.3865 35.0682 66.9759 38.084C67.261 39.7385 67.859 41.2716 68.6883 42.4743C69.745 43.9047 70.7949 44.4566 71.838 44.1302L72.0585 44.0642C73.012 43.7663 73.9697 42.74 74.9316 40.9855C75.3393 40.1967 75.6932 39.3405 75.9884 38.4283ZM71.0919 41.9726C70.7122 41.3506 70.4425 40.5919 70.3142 39.7849L70.247 39.4319C70.0262 38.1875 69.9182 36.9197 69.926 35.6671C70.3857 36.0654 70.8963 36.253 71.3928 36.2061L71.5272 36.1659C71.5972 36.1396 71.6634 36.0976 71.7237 36.0411C71.8096 35.9518 71.8711 35.8175 71.8986 35.6588C71.9262 35.5002 71.9183 35.3259 71.8762 35.1629C71.8597 35.0706 71.8379 34.98 71.8111 34.8923C71.5779 34.3559 71.3945 33.7763 71.267 33.1732C70.8978 31.2798 71.1522 29.2612 72.0304 27.1172C72.8488 25.4219 73.6328 24.4567 74.3825 24.2216C74.5447 24.1891 74.7136 24.2147 74.8769 24.2964C74.9498 24.2745 75.0812 24.7252 75.2708 25.6484L75.3043 25.8243C75.6644 27.6655 75.6693 29.9712 75.3187 32.7416C75.2099 33.5427 75.0638 34.3244 74.8813 35.0809C74.6514 36.1301 74.3512 37.1286 73.9853 38.0612C73.0412 40.3607 72.0767 41.6645 71.0919 41.9726Z" fill="#DB1A40"/>
<path d="M72.607 48.3205C71.2778 48.7186 69.2432 48.5494 67.0295 45.5519C65.7496 43.7416 64.8192 41.4166 64.3662 38.8966C63.6237 35.0978 63.6409 30.9397 64.4161 26.5453C64.6205 25.4773 64.895 24.4555 65.2358 23.4949L65.4277 22.9477L65.722 22.5339C65.9254 22.2475 66.1536 22.0056 66.4015 21.8136C66.5858 21.3525 66.7943 20.9184 67.0254 20.5153C68.0268 18.4862 69.4491 17.0715 71.0918 16.4708C71.9435 16.2221 72.838 16.251 73.7217 16.5557C74.6054 16.8605 75.4601 17.4348 76.2346 18.2444C77.3191 19.4343 78.2088 21.025 78.81 22.8489C79.1008 23.6948 79.3391 24.5751 79.5212 25.4764L79.5837 25.8051C80.1742 28.8372 80.1525 32.2834 79.5132 36.3339C79.2548 37.8128 78.9092 39.238 78.4803 40.5925L78.4169 40.7855C78.0339 41.962 77.568 43.0588 77.0268 44.0581C75.7642 46.3644 74.3841 47.7679 72.8716 48.2393L72.6503 48.3056L72.607 48.3205Z" fill="#E84A94"/>
<path d="M89.0949 20.0647C88.5463 19.4167 87.8852 19.0821 87.2381 19.125L87.1243 19.1373C86.3516 19.2242 85.3214 20.2745 84.0336 22.2884C83.8399 21.7717 83.5823 21.3128 83.2779 20.9419C82.5534 20.1367 81.9689 19.7589 81.5243 19.8085L81.3856 19.8244C81.2343 19.8478 81.1014 19.964 81.0153 20.1482C80.9113 20.643 80.286 23.7848 79.1396 29.5735C78.9921 30.2769 77.5053 37.7497 74.6794 51.9919C74.5499 52.4364 74.4769 52.9235 74.464 53.4289L74.4708 53.4882C74.5373 54.0584 74.8637 54.7078 75.45 55.4362C75.9443 56.0893 76.555 56.4651 77.1685 56.4937L77.181 56.4899C77.3528 56.4825 77.5086 56.3709 77.6159 56.1784C77.6682 55.9716 77.97 54.4725 78.5214 51.6811C80.1004 43.6933 80.9149 39.6164 80.9648 39.4502C81.3295 40.3217 81.8435 41.0294 82.4394 41.4806C83.1258 41.9631 83.8623 42.1658 84.5738 42.0681L84.65 42.0598C86.4129 41.8601 87.8877 39.9869 89.0747 36.44C89.6119 34.7554 90.0238 32.9648 90.3031 31.0991C90.6782 28.3275 90.7662 26.0862 90.5672 24.3752L90.5208 23.9778C90.4567 23.2374 90.2971 22.5085 90.0519 21.8357C89.8068 21.1629 89.4811 20.5602 89.0949 20.0647ZM87.3249 26.2322C87.1995 27.5701 87.0062 28.8791 86.7468 30.1476C86.4459 31.6184 86.0396 33.0162 85.5351 34.3168C84.5248 36.7433 83.503 38.0144 82.4698 38.13C82.3456 38.1335 82.2207 38.1269 82.0955 38.1103C81.8533 38.0181 81.6085 37.9642 81.3648 37.9494L81.252 37.9621C82.0146 34.0721 82.7317 30.4765 83.4035 27.1753C83.3911 27.0017 83.5029 26.7131 83.737 26.3114C84.0851 25.6538 84.4548 24.9938 84.8459 24.3313C85.9073 22.6264 86.6951 21.6102 87.2092 21.2826C87.2802 21.5387 87.3326 21.8035 87.3655 22.0717C87.4765 23.4763 87.4627 24.8765 87.3245 26.2323L87.3249 26.2322Z" fill="#DB1A40"/>
<path d="M78.074 60.6537C77.9422 60.6926 77.8083 60.72 77.6729 60.7356C76.3927 60.807 75.0886 60.1144 74.0218 58.7968L73.8978 58.6513C72.6805 57.1404 71.9883 55.5515 71.7836 53.794C71.6715 52.536 71.7778 51.2918 72.0913 50.1929C75.8705 31.1361 76.4378 28.3109 76.5333 27.8565C77.6751 22.0926 78.3052 18.9289 78.4098 18.4309L78.5461 17.7816L78.8176 17.2606C79.3171 16.2834 80.0593 15.6821 80.8933 15.579L81.0304 15.5636C81.9737 15.4906 82.9409 15.8806 83.7986 16.6799C84.5996 15.6942 85.5749 15.0787 86.6294 14.8934L86.7471 14.8799C88.0388 14.7664 89.3653 15.3982 90.4791 16.6574L90.6451 16.8503C91.3268 17.7121 91.9048 18.7608 92.3449 19.9339C92.785 21.107 93.0781 22.3806 93.2068 23.6791L93.2534 24.0692C93.5186 26.355 93.4301 29.0822 92.9798 32.4096C92.6575 34.5829 92.1806 36.6691 91.5575 38.6319C89.9448 43.4551 87.7953 46.0085 85.1449 46.3059C84.3081 46.4143 83.4491 46.2877 82.6076 45.932C82.2616 47.6737 81.7878 50.0635 81.1403 53.3332C80.2866 57.6569 80.2275 57.8915 80.1762 58.1046L80.039 58.6453L79.8058 59.0883C79.3719 59.9053 78.765 60.4539 78.074 60.6537Z" fill="#E84A94"/>
<path d="M36.742 65.8125C36.4541 65.6389 36.1529 65.5561 35.8569 65.5694C34.8383 65.8577 33.836 66.2307 32.854 66.6869L32.3817 66.9009C29.767 68.161 27.2865 69.8991 24.9878 72.0817L24.8101 72.2819C24.7429 71.467 24.6358 70.0269 24.4889 67.9614C23.8013 58.6366 23.4269 53.6098 23.3657 52.8811C23.0486 47.4242 22.5337 43.803 21.8209 42.0173L21.7643 41.8754C21.3813 40.9281 20.8222 40.1693 20.1727 39.7153C19.4718 39.2474 18.7287 39.0256 18.0007 39.0669C17.2726 39.1082 16.5789 39.4114 15.9727 39.9534L15.9189 39.9998C14.345 41.4697 13.0244 43.4752 12.0425 45.8865C11.5166 47.1011 11.0597 48.3914 10.6764 49.7446C10.2572 51.12 9.9304 52.5713 9.70057 54.0778C9.53399 55.2936 9.42763 56.5374 9.38236 57.7987C9.33416 61.5046 9.78228 64.5403 10.7267 66.9057C11.0752 67.8231 11.5465 68.6259 12.1041 69.2519C13.5257 70.5427 14.7986 70.7071 15.9228 69.7451L16.1352 69.5628C16.6769 69.0391 17.1402 68.3521 17.5018 67.5365C17.7981 66.9128 18.0445 66.2312 18.2364 65.5043C18.4799 64.6479 18.6555 63.7393 18.7597 62.7965C19.1502 58.8281 18.8596 55.6257 17.8876 53.1894C17.3278 51.7841 16.4978 50.665 15.5333 50.0152C14.572 49.5208 13.8497 49.4805 13.3662 49.8942C13.3314 49.9274 13.2981 49.9636 13.2662 50.0026C13.1637 50.118 13.0981 50.2956 13.0831 50.4988C13.0681 50.702 13.1048 50.9151 13.1856 51.094C13.3269 51.3974 13.5109 51.649 13.721 51.8262C14.0546 52.0936 14.3361 52.5116 14.5245 53.0193C15.1996 54.7108 15.4724 57.0559 15.3429 60.0545C15.2758 61.2332 15.1314 62.3851 14.912 63.4927C14.4313 65.5545 13.8853 66.8481 13.274 67.3735L13.1466 67.4829C13.0271 67.5752 12.8975 67.638 12.762 67.6693C12.7167 67.6756 12.612 67.4716 12.4466 67.057L12.3825 66.8976C12.1366 66.2663 11.9338 65.6018 11.7779 64.9165C11.2066 62.305 11.0195 59.5888 11.2313 56.9812C11.3157 55.9135 11.446 54.8634 11.6216 53.838C11.8353 52.797 12.0333 51.9298 12.2157 51.2362C12.6257 49.7467 13.1159 48.3246 13.6817 46.9836C14.8855 44.2394 16.0744 42.3652 17.2485 41.361L17.4197 41.2155C17.5781 41.0711 17.7486 40.9573 17.9279 40.876C17.9779 40.8329 18.1374 41.1246 18.4065 41.7512C18.8837 42.9451 19.2551 45.0472 19.5207 48.0576C19.6348 49.37 19.8549 52.2757 20.1811 56.7749C20.9936 67.8997 21.4561 74.1994 21.5684 75.674L21.2694 76.0008C20.1354 77.3675 19.126 78.6753 18.2412 79.9243C18.1507 80.0004 18.0835 80.126 18.0508 80.2799C18.0182 80.4338 18.022 80.6066 18.0618 80.769L18.0698 80.7877C18.22 81.2323 18.4498 81.6088 18.728 81.8662C19.4681 82.5015 20.0506 82.717 20.4755 82.5129L20.621 82.412C21.3526 81.3737 22.0789 80.3954 22.7997 79.4773C23.3408 79.6885 23.891 79.7572 24.4265 79.6803C24.6212 79.6363 24.8079 79.5486 24.981 79.4199L25.0238 79.3827C25.245 79.1952 25.3146 78.8098 25.2351 78.2272L25.1376 76.7626C27.9913 73.5695 31.1804 71.1062 34.6019 69.4522L34.936 69.2862C35.7412 68.9132 36.6735 68.5597 37.7327 68.2258C37.8024 68.1858 37.8692 68.1367 37.9325 68.079C37.9922 67.998 38.033 67.8882 38.0495 67.7637C38.066 67.6391 38.0575 67.5056 38.0252 67.3801C37.882 66.8047 37.4542 66.2822 36.742 65.8125Z" fill="white"/>
<path d="M35.6146 46.3854C35.4123 45.8313 35.177 45.3042 34.9121 44.812C34.4089 43.8233 33.7598 43.0333 33.0313 42.5229C32.5361 42.1925 32.0131 42.0227 31.4966 42.0248C30.9801 42.0269 30.4819 42.2008 30.035 42.535C29.1524 43.19 28.4259 44.4744 27.8552 46.3882C27.6321 47.1162 27.4641 47.8894 27.3542 48.6938C27.2709 48.7313 27.1896 48.7766 27.1107 48.8294L27.0108 48.9035C26.9153 48.9792 26.8363 49.0935 26.7812 49.2359C26.6458 50.0338 26.5623 50.8591 26.5319 51.7002C26.4591 55.5783 26.924 58.9179 27.9266 61.719C28.4415 63.2693 29.2347 64.5863 30.1983 65.4909C31.4114 66.5413 32.488 66.7172 33.4282 66.0186L33.6265 65.8709C34.487 65.2326 35.2444 63.8645 35.8985 61.7666C36.1695 60.8334 36.38 59.8524 36.5274 58.8366C36.6996 57.5854 36.7997 56.3011 36.8266 54.9981C36.8349 51.537 36.4656 48.7629 35.7188 46.6759L35.6146 46.3854ZM35.0509 53.3915C35.0658 54.2307 35.0421 55.0639 34.98 55.8847C34.9172 57.0154 34.7798 58.1205 34.5699 59.1829C34.0164 61.8202 33.2945 63.4691 32.4042 64.1295C31.9528 63.6438 31.5857 62.9825 31.3454 62.2224L31.2277 61.8938C30.8355 60.7294 30.5464 59.5017 30.3693 58.2478C30.8639 58.4805 31.3756 58.4853 31.8395 58.2616L31.9615 58.1711C32.0242 58.1196 32.081 58.054 32.1303 57.9761C32.1986 57.8563 32.2371 57.7003 32.2399 57.532C32.2427 57.3637 32.2096 57.1925 32.1458 57.0447C32.1163 56.9583 32.0821 56.8754 32.0435 56.7971C31.7432 56.3444 31.4839 55.8307 31.2743 55.2733C30.6441 53.5135 30.5877 51.4058 31.1052 48.9502C31.63 46.9626 32.2305 45.7182 32.9068 45.2168C33.0557 45.1266 33.2194 45.0918 33.386 45.1148C33.4516 45.0657 33.6425 45.4689 33.9587 46.3243L34.0175 46.488C34.6305 48.1994 34.9749 50.5005 35.0509 53.3915Z" fill="white"/>
<path d="M50.6684 27.5677C51.241 28.0011 51.8717 28.1197 52.4488 27.9027C52.5375 27.8632 52.6172 27.7922 52.6822 27.695C52.7472 27.5978 52.7957 27.4767 52.8244 27.3406C52.9028 23.8857 52.9388 21.8534 52.9323 21.2436C52.98 20.8504 52.9697 20.4359 52.9023 20.0298L52.8687 19.9179C52.6594 19.3842 52.3537 18.9493 51.9953 18.6758C51.0859 17.9589 50.3652 17.7505 49.8331 18.0505C49.6727 18.1324 49.5466 18.3139 49.4825 18.5556C49.4682 18.6944 49.4303 20.7053 49.3686 24.5885C49.3225 25.0261 49.3321 25.4829 49.3969 25.934L49.419 26.0091C49.5768 26.5503 49.9933 27.0698 50.6684 27.5677Z" fill="white"/>
<path d="M64.8377 29.4738C64.6771 28.7531 64.4271 28.075 64.1028 27.4807C63.7785 26.8865 63.3867 26.3887 62.9514 26.0176C62.3405 25.548 61.6644 25.4281 61.052 25.6807L60.9445 25.73C60.2188 26.0686 59.3757 27.4552 58.4149 29.8897C58.1605 29.4352 57.8527 29.0596 57.5118 28.7877C56.7133 28.2165 56.1047 28.0283 55.6861 28.2231L55.5556 28.2839C55.414 28.3567 55.3025 28.5166 55.2451 28.7296C55.2118 29.2586 55.0353 32.6075 54.7155 38.7762C54.6965 39.0832 54.6143 40.6121 54.4711 43.3241C54.1063 44.9001 53.8244 46.0175 53.6347 46.6181C53.315 47.7449 52.9482 48.8316 52.5363 49.8719L52.5084 49.8658C52.4747 49.2562 52.4538 48.6611 52.4454 48.0804C52.4581 46.5512 52.5335 41.9272 52.6717 34.2083C52.7248 33.5041 52.7227 32.783 52.6654 32.0606C52.4045 31.3511 51.9915 30.7922 51.5086 30.4953C50.6851 29.9487 50.0458 29.804 49.5907 30.0611C49.5046 30.1016 49.4274 30.1724 49.3647 30.2684C49.3019 30.3645 49.2552 30.4834 49.2279 30.6167C49.2013 31.4236 49.1254 35.6312 49.0002 43.2394C48.9649 44.3047 48.9502 45.2643 48.9552 46.1409C48.7644 47.1274 48.5852 48.0098 48.4259 48.7048C48.0752 50.2198 47.6486 51.6788 47.1496 53.0693L47.1279 53.083L47.0924 52.6797C47.0102 51.4325 46.9624 49.2587 46.949 46.1583C46.9383 44.5943 46.8675 37.2927 46.7366 24.2534C46.764 23.8704 46.7388 23.4738 46.6625 23.089L46.6325 22.9965C46.3994 22.4544 46.0691 22.0237 45.6895 21.7667C44.7705 21.148 44.0653 20.9973 43.5738 21.3146L43.5636 21.3216C43.4787 21.3675 43.4035 21.4436 43.3434 21.5443C43.2834 21.6451 43.2401 21.768 43.2166 21.9041C43.216 22.3829 43.2324 23.8075 43.2659 26.1781C43.3812 39.2278 43.4455 45.9278 43.4586 46.2781C43.448 47.5641 43.4639 48.7017 43.5004 49.7205C43.312 50.678 43.1321 51.5401 42.9772 52.2167C42.6266 53.7262 42.2042 55.1828 41.7134 56.5754L41.6902 56.5896L41.6569 56.1856C41.5658 54.9433 41.5179 52.769 41.5134 49.6629C41.4946 48.1054 41.4012 39.077 41.2332 22.5779C41.2549 22.1966 41.2262 21.8039 41.149 21.4231L41.1188 21.3293C40.8879 20.7894 40.5621 20.357 40.1867 20.0923C39.2669 19.4752 38.5577 19.3275 38.0592 19.6491L38.0474 19.6565C37.9651 19.7029 37.8924 19.7785 37.8346 19.8777C37.7768 19.977 37.7353 20.0975 37.7132 20.2306C37.712 20.7109 37.751 23.8634 37.83 29.6881C37.9378 42.7427 37.9978 49.4453 38.0102 49.7958C37.9849 53.908 38.1934 56.6516 38.6356 58.0265C38.7438 58.3748 38.8854 58.6998 39.0551 58.9892C39.8731 60.2257 40.6517 60.6053 41.3908 60.1282C42.2599 59.5669 43.1071 57.7498 43.9323 54.6768C43.9602 54.5854 43.9939 54.4527 44.0252 54.3405C44.0413 54.397 44.0548 54.4635 44.0727 54.5188C44.1801 54.8677 44.3218 55.1929 44.4923 55.4815C45.3087 56.7184 46.0913 57.0958 46.8398 56.6136C47.7076 56.054 48.5544 54.237 49.3802 51.1626C49.3852 51.1479 49.3909 51.1212 49.396 51.1051C49.4004 51.1282 49.4055 51.155 49.4124 51.176C49.5054 51.4727 49.6197 51.7549 49.7527 52.0167C50.5579 53.3634 51.3499 53.817 52.1286 53.3777C52.7771 53.0121 53.4383 51.9486 54.1084 50.2139C53.9307 53.6168 53.7141 57.7717 53.4588 62.6788C53.3945 63.1659 53.3896 63.6772 53.4444 64.1874L53.4597 64.2442C53.5986 64.7941 53.9973 65.3378 54.6558 65.8754C55.2155 66.368 55.8491 66.5451 56.4388 66.3737L56.4513 66.37C56.6148 66.3069 56.7492 66.1443 56.8262 65.9162C56.8474 65.6902 56.9347 64.0909 57.0882 61.1186C57.5275 52.6059 57.759 48.2584 57.7827 48.0759C58.248 48.8296 58.8334 49.3718 59.4628 49.6321C60.1834 49.8911 60.9143 49.8542 61.5812 49.525L61.6528 49.4924C63.3095 48.7193 64.4672 46.3636 65.1259 42.4251C65.4141 40.5646 65.5681 38.6382 65.5852 36.6797C65.5711 33.7835 65.3549 31.5105 64.9364 29.8608L64.8377 29.4738ZM62.0885 32.7711C62.1478 34.1516 62.1386 35.5254 62.0611 36.8802C61.9699 38.4504 61.769 39.982 61.4619 41.4486C60.8213 44.2065 60.0149 45.8119 59.0428 46.2648C58.9254 46.3088 58.8058 46.3426 58.6845 46.3661C58.4403 46.3537 58.1987 46.3806 57.9635 46.4463L57.8568 46.4954C58.0657 42.3515 58.2696 38.5178 58.4687 34.9943C58.4342 34.8249 58.5019 34.5003 58.6717 34.0205C58.9162 33.2481 59.1808 32.467 59.4653 31.6773C60.2502 29.6242 60.8667 28.3503 61.3147 27.8558C61.4168 28.0889 61.5021 28.3371 61.5686 28.5952C61.8634 29.9643 62.038 31.3699 62.0873 32.7715L62.0885 32.7711Z" fill="white"/>
<path d="M75.9883 38.4291C76.3462 37.3048 76.6361 36.1226 76.8549 34.8959C77.373 31.6179 77.4131 28.8559 76.9754 26.61L76.9161 26.2981C76.7953 25.7005 76.6376 25.1166 76.4453 24.5551C76.0886 23.438 75.5573 22.4565 74.9056 21.711C74.4598 21.2206 73.9623 20.8725 73.4462 20.6896C72.93 20.5067 72.4068 20.4932 71.9111 20.65C70.7912 21.0987 69.83 22.104 69.1637 23.5236C68.8336 24.1344 68.5522 24.8078 68.3244 25.5317C68.2353 25.5373 68.147 25.551 68.06 25.5727L67.9501 25.6056C67.8433 25.6437 67.7472 25.7239 67.6705 25.839C67.4172 26.5469 67.2124 27.3 67.059 28.0874C66.4141 31.7365 66.3864 35.0689 66.9758 38.0847C67.2609 39.7392 67.8589 41.2723 68.6882 42.475C69.7449 43.9054 70.7948 44.4574 71.8379 44.1309L72.0584 44.0649C73.0119 43.767 73.9696 42.7408 74.9315 40.9862C75.3392 40.1974 75.6931 39.3412 75.9883 38.4291ZM71.0918 41.9733C70.7121 41.3513 70.4424 40.5926 70.314 39.7857L70.2469 39.4327C70.0261 38.1882 69.918 36.9204 69.9259 35.6679C70.3856 36.0661 70.8962 36.2537 71.3926 36.2068L71.527 36.1666C71.5971 36.1404 71.6632 36.0984 71.7236 36.0418C71.8095 35.9525 71.871 35.8182 71.8985 35.6596C71.926 35.5009 71.9182 35.3266 71.876 35.1636C71.8596 35.0714 71.8378 34.9808 71.811 34.893C71.5778 34.3566 71.3944 33.777 71.2669 33.1739C70.8976 31.2806 71.1521 29.2619 72.0303 27.118C72.8486 25.4227 73.6327 24.4574 74.3824 24.2224C74.5446 24.1899 74.7135 24.2154 74.8767 24.2971C74.9497 24.2753 75.081 24.726 75.2707 25.6492L75.3041 25.825C75.6643 27.6662 75.6691 29.972 75.3186 32.7423C75.2098 33.5435 75.0636 34.3252 74.8812 35.0816C74.6513 36.1308 74.3511 37.1293 73.9852 38.0619C73.0411 40.3614 72.0766 41.6652 71.0918 41.9733Z" fill="white"/>
<path d="M89.095 20.0647C88.5465 19.4167 87.8853 19.0821 87.2382 19.125L87.1245 19.1373C86.3517 19.2242 85.3215 20.2745 84.0337 22.2884C83.84 21.7717 83.5825 21.3128 83.278 20.9419C82.5535 20.1367 81.969 19.7589 81.5244 19.8085L81.3858 19.8244C81.2344 19.8478 81.1015 19.964 81.0154 20.1482C80.9114 20.643 80.2861 23.7848 79.1398 29.5735C78.9922 30.2769 77.5055 37.7497 74.6795 51.9919C74.55 52.4364 74.477 52.9235 74.4641 53.4289L74.4709 53.4882C74.5374 54.0584 74.8638 54.7078 75.4501 55.4362C75.9444 56.0893 76.5551 56.4651 77.1687 56.4937L77.1811 56.4899C77.3529 56.4825 77.5087 56.3709 77.616 56.1784C77.6683 55.9716 77.9702 54.4725 78.5215 51.6811C80.1005 43.6933 80.915 39.6164 80.9649 39.4502C81.3296 40.3217 81.8436 41.0294 82.4395 41.4806C83.1259 41.9631 83.8624 42.1658 84.5739 42.0681L84.6502 42.0598C86.413 41.8601 87.8879 39.9869 89.0748 36.44C89.612 34.7554 90.0239 32.9648 90.3032 31.0991C90.6783 28.3275 90.7663 26.0862 90.5673 24.3752L90.5209 23.9778C90.4568 23.2374 90.2972 22.5085 90.0521 21.8357C89.8069 21.1629 89.4812 20.5602 89.095 20.0647ZM87.325 26.2322C87.1996 27.5701 87.0064 28.8791 86.7469 30.1476C86.446 31.6184 86.0398 33.0162 85.5352 34.3168C84.5249 36.7433 83.5032 38.0144 82.4699 38.13C82.3457 38.1335 82.2208 38.1269 82.0956 38.1103C81.8535 38.0181 81.6086 37.9642 81.365 37.9494L81.2521 37.9621C82.0147 34.0721 82.7319 30.4765 83.4036 27.1753C83.3912 27.0017 83.503 26.7131 83.7371 26.3114C84.0853 25.6538 84.4549 24.9938 84.846 24.3313C85.9074 22.6264 86.6952 21.6102 87.2094 21.2826C87.2803 21.5387 87.3327 21.8035 87.3657 22.0717C87.4767 23.4763 87.4629 24.8765 87.3246 26.2323L87.325 26.2322Z" fill="white"/>
</svg>
