<svg width="193" height="159" viewBox="0 0 193 159" fill="none" xmlns="http://www.w3.org/2000/svg">
<path d="M180.396 70.2829C179.906 68.6661 179.168 67.1461 178.225 65.8108C177.283 64.4755 176.154 63.3516 174.904 62.5042L174.693 62.3497L174.483 62.1953C172.621 61.107 170.588 60.7761 168.711 61.256L168.09 61.4276C166.65 62.0057 165.382 63.008 164.389 64.3543C163.141 63.89 161.854 63.8095 160.651 64.1204L160.184 64.2494C159.131 64.6143 158.233 65.3791 157.61 66.442C155.909 65.5016 154.075 65.1965 152.358 65.5686L152.054 65.6527C151.034 65.9004 150.162 66.5902 149.588 67.6027C148.421 67.5076 147.269 67.6123 146.165 67.9138L145.545 68.0854C143.354 68.9133 141.482 70.5288 140.152 72.7393C139.072 72.3419 137.96 72.2849 136.925 72.5738L136.461 72.7022C135.267 73.1237 134.286 74.0691 133.691 75.3715L133.288 76.3282L132.83 77.0901C130.914 75.8453 128.784 75.3907 126.794 75.8013L126.483 75.8872C125.033 76.421 123.876 77.6492 123.255 79.3156L123.208 79.7513L121.485 78.96C121.423 77.741 121.198 76.5183 120.818 75.341L120.763 75.1433C120.381 73.9164 119.781 72.7805 119.009 71.8249C121.427 69.99 123.475 67.5584 125.044 64.6619C125.146 64.4211 125.502 63.9001 125.806 63.1835L126.24 64.7538L126.505 65.1032C129.639 70.9981 133.231 71.908 135.201 71.7857L135.355 71.7431C135.96 71.7514 136.552 71.659 137.117 71.4685C140.67 70.0704 143.763 67.5424 146.107 64.1207C146.875 63.2731 147.94 61.7106 149.63 59.3429C150.207 58.7039 150.644 57.8983 150.911 56.984C151.178 56.0697 151.267 55.0693 151.173 54.0546C151.053 52.8244 150.661 51.6172 150.04 50.5645L149.72 50.0175L149.456 49.6681C148.487 48.4016 147.347 47.3498 146.1 46.5714C146.657 44.3179 146.837 41.8998 146.63 39.4503C146.153 35.5526 144.47 31.8505 141.936 29.1252L141.725 28.9707C142.4 26.2187 142.665 23.2862 142.509 20.3018C142.36 18.7248 141.958 17.1617 141.326 15.7037C140.693 14.2458 139.843 12.9223 138.824 11.8106L138.613 11.6562L138.402 11.5017C136.263 9.56659 133.74 8.4895 131.233 8.44199C130.576 8.44805 129.933 8.55461 129.317 8.75922C126.274 9.85529 123.807 12.3429 122.388 15.7468L122.287 15.9876L122.185 16.2285C120.733 19.2863 120.11 22.914 120.393 26.6568L120.502 27.0494C120.61 27.442 120.509 27.6828 120.617 28.0754C118.461 26.173 115.88 25.2937 113.426 25.6255L112.959 25.7545C111.795 26.0422 110.773 26.7669 110.026 27.8336C108.029 27.0491 105.965 26.8236 103.998 27.175L102.911 27.4756C99.1335 28.6507 96.012 31.5446 94.1381 35.6086C93.4611 34.782 92.7007 34.0665 91.8807 33.4845L91.6698 33.3301L91.1879 32.1955C88.8374 30.5443 86.1767 29.9284 83.7014 30.4625L83.235 30.5915C81.9334 31.074 80.8643 32.1162 80.2087 33.5415C78.5188 33.164 76.825 33.2012 75.229 33.6509L74.2982 33.9084C72.2648 34.718 70.4455 36.0633 68.9571 37.8578C67.4687 39.6523 66.3442 41.8563 65.6558 44.3282C64.5563 43.2479 63.3082 42.4405 61.9948 41.9598L61.7847 41.808L61.6306 41.8506C59.8116 41.1925 57.9425 41.0571 56.1774 41.4556C55.6467 41.5683 55.1423 41.7795 54.6807 42.0823C53.9365 42.5227 53.2944 43.1593 52.7949 43.9521C52.2954 44.7449 51.9493 45.6766 51.7785 46.6885L51.6315 47.3645L51.6385 47.9979C51.6932 48.1955 51.5909 48.4337 51.8305 51.1072L51.6196 50.9528L51.4116 50.8005C50.3759 50.1443 49.2862 49.6625 48.1758 49.3696L47.8655 49.4554C46.3394 49.0564 44.8005 49.0499 43.3501 49.4364C42.8193 49.549 42.3149 49.7602 41.8534 50.063C41.1092 50.5034 40.4671 51.1401 39.9676 51.9328C39.4681 52.7256 39.122 53.6573 38.9512 54.6692L39.0598 55.0618L39.1207 55.8902C40.0206 70.6454 40.275 73.956 40.3381 74.7838C40.53 77.8931 40.7172 80.3856 41.0038 82.6293C39.5389 82.1673 38.0584 81.8693 36.5815 81.7393C35.0757 81.7331 32.4303 81.8294 28.8002 81.9881C28.365 82.0942 27.9041 82.0773 27.4505 81.9388C27.0905 80.9802 26.8675 79.9707 26.7922 78.9585L26.6836 78.5659C26.4386 77.013 26.4023 75.4522 26.5762 73.9469C26.9718 74.4734 27.4344 74.9184 27.9413 75.2598L28.571 75.721L29.1461 75.9845C30.5678 76.6252 32.0593 76.7972 33.4598 76.482C34.2135 76.2883 34.9003 75.8811 35.4684 75.2911L35.724 75.0076L35.9796 74.7242C36.4388 74.2617 36.7874 73.6578 36.9965 72.9624L37.0959 72.7222L37.1982 72.484C37.8113 70.0799 38.3011 67.6155 38.6652 65.1037C38.9569 62.8237 39.152 60.5129 39.2497 58.1803L39.1411 57.7877C39.1654 51.2291 38.2274 46.6299 36.1632 43.3973L35.6442 43.3281C34.2381 41.1125 32.2497 39.544 30.0907 38.9474L29.7804 39.0332C27.8007 38.4985 25.8014 38.4752 23.9154 38.9649C22.2207 39.4443 20.6492 40.3085 19.2768 41.5156C16.6848 44.0979 14.6441 47.3988 13.291 51.1978C12.7406 52.8306 12.1895 54.4607 11.5851 56.5311C11.1493 58.1204 10.8224 59.7653 10.6076 61.4502C10.3198 63.4329 9.88639 66.0885 9.60701 69.3339C9.09469 78.3504 10.474 85.1534 13.6477 89.9823C16.8214 94.8113 21.7844 97.6648 28.2763 98.1923C29.3942 98.2863 30.505 98.2619 31.5961 98.1194C30.8348 99.5977 30.1758 100.838 29.362 102.118C28.9547 101.828 28.5059 101.661 28.0579 101.634L27.693 101.522L27.328 101.41C26.3761 101.275 25.4308 101.322 24.5265 101.549C23.8486 101.758 23.2068 102.077 22.6173 102.5L22.515 102.738L22.4135 102.979C21.8492 103.63 21.3857 104.4 21.0408 105.262L20.9393 105.503L20.8378 105.743C20.2495 107.482 20.0724 109.438 20.3246 111.411C20.5767 113.384 21.2491 115.302 22.2726 116.97C23.4048 118.535 24.7998 119.785 26.3376 120.612C27.8755 121.438 29.5102 121.817 31.1012 121.716C32.0983 121.788 33.0784 121.66 34.0022 121.336C35.7724 120.865 37.3898 119.912 38.7423 118.544C40.5552 116.924 42.154 114.989 43.4969 112.79L43.8072 112.705C45.4869 110.281 46.8667 107.554 47.9104 104.595C48.9165 102.078 49.5663 99.3303 49.8355 96.4558C51.2511 96.9046 52.6934 96.9406 54.0406 96.5607C54.7237 96.3985 55.3818 96.1452 56.0037 95.805L56.314 95.7192C56.4702 95.676 56.7258 95.3926 56.8799 95.3499C58.5889 93.9186 59.8163 91.8044 60.3872 89.3086C62.2959 90.5316 64.42 90.92 66.3699 90.4024C66.8499 90.3037 67.3035 90.1064 67.7125 89.8183C66.6701 92.5005 66.5974 95.7123 67.5105 98.749C68.374 101.188 69.8382 103.307 71.6787 104.784C73.2906 106.001 75.0525 106.823 76.8526 107.198C78.6526 107.573 80.4517 107.493 82.1356 106.963L83.2226 106.662C86.5876 105.351 89.3643 102.651 91.1191 98.9843C91.3135 100.19 91.5881 101.387 91.9401 102.561C93.4539 107.426 97.0281 111.296 102.349 113.628C102.559 113.78 102.713 113.737 102.924 113.892C102.768 113.935 102.768 113.935 102.668 114.175L102.25 113.868L102.195 113.671L101.83 113.559C100.475 112.759 98.994 112.499 97.6178 112.821L96.9973 112.992C96.3051 113.312 95.7064 113.84 95.2513 114.533L95.149 114.771L94.8388 114.857C93.8928 116.055 93.2681 117.59 93.0327 119.295C92.7974 121 92.9605 122.809 93.5042 124.524C94.1248 126.198 95.051 127.713 96.2042 128.939C97.3574 130.165 98.7034 131.067 100.128 131.567C102.222 132.446 104.408 132.577 106.412 131.942L107.343 131.684C109.095 130.913 110.799 130.019 112.448 129.005L112.758 128.919C114.574 127.581 116.279 126.049 117.855 124.338C119.395 122.526 120.601 120.328 121.408 117.862C122.182 117.892 122.946 117.822 123.689 117.653L124.465 117.439C126.263 116.815 127.827 115.578 128.988 113.862C130.519 114.42 132.094 114.494 133.558 114.079L133.714 114.035L135.01 113.89L135.368 113.368C138.047 111.743 140.109 109.021 141.24 105.615C141.713 106.119 142.132 106.426 142.605 106.928L142.814 107.083L143.024 107.237C145.085 108.699 147.436 109.184 149.578 108.587L150.034 108.461C151.512 107.794 152.81 106.713 153.835 105.297C154.046 105.451 154.2 105.409 154.41 105.561L154.098 109.873C153.885 111.425 153.994 113.063 154.416 114.646C154.857 115.854 155.487 116.967 156.267 117.916C157.047 118.864 157.96 119.628 158.95 120.16L159.16 120.314L159.317 120.271C161.171 121.473 163.236 121.876 165.143 121.408L165.453 121.322C166.84 120.836 167.957 119.695 168.579 118.132L168.882 117.413L168.975 116.542C169.077 116.301 168.968 115.909 169.317 110.531C169.535 107.09 169.76 104.279 169.838 102.145C170.662 102.16 171.476 102.077 172.268 101.895L173.045 101.68C176.97 100.172 179.72 96.2405 181.101 89.7321C181.655 87.15 181.918 84.4481 181.884 81.6957C181.992 78.2362 181.526 74.7004 180.512 71.297L180.396 70.2829ZM112.08 101.642C110.776 101.158 108.953 100.604 106.558 99.7887L106.402 99.8319C106.503 99.5911 106.395 99.1985 106.44 98.7633L106.542 98.5225L106.488 98.3302C106.594 98.0378 106.677 97.732 106.738 97.416L106.792 97.611L107.421 98.0722C108.139 98.7931 108.96 99.327 109.826 99.6349C110.691 99.9427 111.579 100.017 112.424 99.8511C112.133 100.353 112.011 100.988 112.08 101.642Z" fill="#E84A94"/>
<path d="M135.728 15.651C134.521 14.5774 133.121 13.9342 131.709 13.8042C130.576 14.0199 129.532 14.5633 128.66 15.3913C127.787 16.2193 127.11 17.3094 126.682 18.5752C125.67 20.6695 125.197 23.1429 125.317 25.7147L125.425 26.1073C125.538 27.4363 125.937 28.7476 126.581 29.9064C127.224 31.0653 128.089 32.03 129.087 32.7015C130.29 33.4269 131.073 33.8428 131.383 33.757C130.73 35.6279 120.328 54.7768 119.669 56.0144C118.538 58.0374 117.278 59.9395 115.899 61.7057C116.04 60.399 116.178 59.0928 116.416 57.5378C118.752 44.8459 119.961 37.7496 120.157 36.6405C120.352 35.9572 120.431 35.2177 120.391 34.4628C119.995 33.4938 119.412 32.6361 118.7 31.9721C116.97 30.5474 115.618 29.8661 114.681 30.1253C114.447 30.1508 114.235 30.2705 114.078 30.4665C113.921 30.6624 113.827 30.9238 113.811 31.2111C113.478 33.6291 113.027 35.0216 113.035 35.6518C112.394 34.4173 111.473 33.4148 110.404 32.7857C108.809 31.9018 107.094 31.5689 105.463 31.8265C102.096 32.3353 99.4364 35.3965 97.4734 40.3754C96.6527 42.8811 95.9737 45.4697 95.4405 48.1249C95.0497 51.0115 94.8603 53.9621 94.8743 56.9465C94.5694 57.9197 94.2168 58.8638 93.8182 59.7742C92.8677 62.4776 91.6626 65.008 90.2248 67.32C89.953 66.3372 90.5739 57.7132 91.3087 41.6635C91.4097 41.0522 91.402 40.4061 91.2862 39.7665C91.069 38.9814 90.3854 38.3252 89.339 37.5566C88.0595 36.5433 86.5689 36.1235 85.1723 36.3832C84.8862 36.4698 84.6487 36.6858 84.5042 36.9906C84.4566 37.4264 84.325 39.366 84.2081 42.5664L84.1535 42.3688C83.2681 41.1387 82.1422 40.2031 80.9085 39.6726C79.2728 39.042 77.5773 39.0654 76.0828 39.7394C71.5374 41.4191 68.9154 47.6382 68.317 58.1592C68.2233 61.1194 68.3819 64.1207 68.7902 67.1159C68.3938 68.7061 68.1529 70.2504 67.9626 71.3697C67.3943 73.8467 66.66 76.2406 65.7665 78.5289C65.7055 77.7006 65.4337 76.7178 65.3167 75.6951C65.1857 73.4055 64.5194 65.5659 63.7273 51.833C63.7976 51.2258 63.7361 50.5875 63.5486 49.9793L63.4939 49.7816C63.1556 49.2516 62.7388 48.8006 62.2698 48.4571C61.8009 48.1137 61.2902 47.8853 60.77 47.7866C59.587 47.2499 58.3368 47.2211 57.2394 47.7051C57.0821 47.7956 56.9493 47.9334 56.852 48.1073C56.7548 48.2812 56.6957 48.486 56.6798 48.705C56.7337 48.9 56.9279 52.0173 57.2523 57.4215C57.2293 60.25 57.0553 63.0513 56.7316 65.8079C56.4571 69.0463 55.8852 73.0166 55.2108 77.2164C54.8142 79.9341 54.1312 82.5377 53.178 84.9659C53.1233 84.7683 53.0624 83.9399 52.7821 82.327C52.651 80.0374 52.0918 72.5851 51.2628 59.9262C51.2473 58.6626 51.1864 57.8342 50.9216 57.4848L50.8677 57.2899C50.7589 56.8964 50.2856 56.3929 49.4479 55.7794C48.8176 55.411 48.1721 55.0948 47.5162 54.833C46.5021 54.5251 45.4723 54.5886 44.5606 55.0151C44.2811 55.2503 44.0844 55.6017 44.001 56.0151C44.8279 68.0421 45.2092 74.2759 45.2183 74.9087C45.1531 79.1136 45.7695 83.3941 47.0328 87.5078C47.4554 88.503 48.0988 89.3555 48.8799 89.9553C49.583 90.4651 50.3567 90.7727 51.1347 90.8519C51.9127 90.9311 52.672 90.7795 53.3476 90.4101C53.4618 90.2655 53.6023 90.1552 53.7602 90.0861C54.6363 89.6311 55.6448 87.2391 56.6854 83.1478C57.0817 81.5576 57.726 79.0565 58.3541 75.2891C58.5812 77.3114 59.0245 79.3205 59.6725 81.2637C59.9501 81.763 60.2509 82.2444 60.5732 82.705C61.169 83.5664 61.9685 84.1814 62.8338 84.4439C63.699 84.7063 64.5758 84.5998 65.3128 84.1426C67.0112 83.0376 68.5338 80.0894 69.9756 75.0333C70.1879 74.4504 70.3541 73.8387 70.4721 73.2055C71.1042 74.6042 72.0154 75.8125 73.1092 76.7023C73.816 77.237 74.5916 77.5897 75.3819 77.7361C76.1723 77.8824 76.9584 77.8188 77.6855 77.5497C78.5774 77.1359 79.3651 76.4862 79.9981 75.6423C80.9787 74.4183 81.832 73.0485 82.5425 71.5577L82.271 79.0299C81.4559 80.3134 80.2302 81.9202 78.7483 83.8077C76.4988 86.5429 74.7612 88.7139 73.6897 90.2781C72.9595 91.07 72.4385 92.1112 72.1796 93.2962C71.9207 94.4811 71.9331 95.7676 72.2156 97.025L72.2703 97.2226C72.6842 98.363 73.3687 99.357 74.2259 100.063C75.3686 100.896 76.6183 101.43 77.8853 101.626C79.1522 101.822 80.4051 101.676 81.554 101.198C83.0498 100.627 84.3946 99.6667 85.5039 98.3779C86.6132 97.0891 87.4633 95.4995 88.0007 93.7087C88.4199 92.5158 88.6842 91.2318 88.785 89.8981C88.871 88.3937 89.1741 83.4513 89.5918 75.3004C89.5918 75.3004 90.0491 74.5386 90.7628 73.496C91.9337 71.6916 93.1986 69.0188 94.8205 65.8218C95.0985 65.1354 95.4204 64.4814 95.7835 63.8651C96.3123 65.463 97.1734 66.9059 98.2735 68.0379C98.8909 68.6437 99.5914 69.0967 100.328 69.3666C101.066 69.6366 101.822 69.7175 102.549 69.6039C104.164 69.1797 105.567 68.1261 106.56 66.5914C107.59 65.4088 108.513 64.0946 109.316 62.6666L109.371 62.8642C109.511 63.4673 109.729 64.0501 110.016 64.589C111.343 66.9705 112.758 67.8556 114.361 67.6135C116.277 67.2963 118.48 64.9936 121.025 60.909C121.482 60.1472 133.158 38.9584 134.515 35.4121C134.912 35.5086 135.3 35.6871 135.663 35.9398C135.721 37.1129 135.648 38.2708 135.445 39.3811C135.048 40.9713 134.209 43.949 132.806 48.5631C131.319 52.3623 130.439 56.5426 130.207 60.9051C130.228 61.5876 130.418 62.2717 130.75 62.868C131.113 63.825 131.681 64.6676 132.387 65.296C133.094 65.9245 133.909 66.3125 134.737 66.4141L134.893 66.3709C136.709 66.2913 139.33 64.2986 142.703 60.1862C143.316 59.3811 144.386 57.8175 145.969 55.6891C146.327 55.1676 146.583 54.8841 146.529 54.6892L146.475 54.4942C146.456 54.3844 146.417 54.2783 146.362 54.1836C146.307 54.089 146.236 54.0082 146.156 53.9472C145.417 53.0934 144.944 52.5917 144.425 52.5225L144.115 52.6083C143.146 53.9343 142.336 55.2133 141.462 56.3003C140.056 58.2783 138.48 60.0621 136.755 61.6269C136.803 61.1911 137.005 60.7128 137.152 60.0367C137.603 58.6442 138.439 55.6557 139.743 51.2905C141.197 47.8551 141.948 43.9617 141.938 39.9053C141.77 38.7016 141.411 37.5217 140.88 36.4344C140.35 35.3472 139.66 34.3741 138.85 33.572C137.938 32.6295 136.933 31.8419 135.866 31.2349C137.04 27.9596 137.631 24.3471 137.604 20.6116C137.488 18.802 136.818 17.0298 135.728 15.651ZM81.2061 89.0388C80.7551 90.4314 80.4064 91.5858 79.996 91.9091C79.0725 93.6083 77.7631 94.919 76.2021 95.7068L76.0481 95.7494C75.7382 95.8681 75.4 95.8887 75.0626 95.8092C75.2802 94.0435 75.8671 92.4279 76.7693 91.1111C77.6846 89.5901 79.4761 87.6141 81.8279 84.6407C81.8311 86.1698 81.6209 87.6569 81.2061 89.0388ZM83.4579 56.7201C83.2676 60.4079 82.4819 63.9268 81.145 67.0799C80.1238 69.611 78.7885 71.9024 77.1804 73.883C76.951 73.5474 76.7856 73.158 76.6985 72.7485C76.0184 70.4972 75.6562 68.1644 75.6287 65.8571C75.3638 62.356 75.5313 58.8902 76.1255 55.577C76.3643 53.7657 76.7781 52.0199 77.3587 50.3745C78.0449 47.9253 79.4554 45.962 81.3387 44.8348L82.1155 44.62C82.6633 44.6165 83.2019 44.5389 83.7215 44.3886C83.9482 44.3568 84.1486 44.2261 84.2873 44.0193L83.4579 56.7201ZM109.344 55.4888C108.583 56.9672 107.674 58.4865 106.855 59.771C105.549 62.1229 103.904 64.1446 101.988 65.7541L101.663 64.5764C101.339 62.7719 101.23 60.9512 101.338 59.1722C101.37 57.3594 101.487 55.5629 101.688 53.7913C101.952 51.6909 102.397 49.6557 103.014 47.7178C103.363 46.5634 103.869 45.3684 104.22 44.222C104.707 42.8017 105.433 41.5479 106.354 40.5323C107.276 39.5168 108.375 38.7594 109.59 38.3037L109.746 38.2605C109.957 38.1712 110.196 38.1804 110.421 38.2865C110.941 38.4262 111.464 38.4946 111.982 38.4902L112.292 38.4044C111.757 41.3008 111.516 42.8451 111.516 42.8451C110.352 49.5035 109.522 53.7492 109.344 55.4888ZM134.525 23.3779C134.149 25.3758 133.687 27.3363 133.141 29.2517L131.628 28.6122C131.573 28.4145 131.619 27.9793 131.868 27.0652C132.133 26.0165 132.468 25.0049 132.87 24.0398C133.32 22.8522 134.021 21.8586 134.91 21.1496C134.74 21.875 134.611 22.6194 134.525 23.3779Z" fill="white"/>
<path d="M44.084 91.2875C43.1391 90.0766 41.9971 89.1258 40.753 88.5143C39.509 87.9028 38.1988 87.6482 36.9315 87.7717C35.4257 87.7655 32.9365 87.8186 29.5151 88.1323C28.4499 88.2006 27.3696 88.1452 26.2884 87.9668C25.7876 87.8971 25.2915 87.7012 24.8319 87.3917C24.3723 87.0822 23.9592 86.6659 23.6191 86.1693C22.4147 84.1203 21.6507 81.7752 21.4084 79.3836C21.0705 76.9405 20.9534 74.4919 21.0593 72.083C21.3312 68.8378 21.5622 66.6608 21.7524 65.5521C22.0232 63.6039 22.4521 61.7157 23.0332 59.9138C23.9079 55.7719 25.6523 52.0936 28.1065 49.2162C28.4605 48.8168 28.9042 48.5485 29.3951 48.4371C30.0844 49.6946 30.4807 51.1277 30.5355 52.5606C30.6512 53.5866 30.8228 54.807 30.8922 56.2655C30.975 58.0092 30.8916 59.7341 30.6438 61.4055C30.2082 64.0616 29.875 66.4796 29.333 68.7426C29.1313 69.221 29.0837 69.6567 29.3484 70.0061L29.7673 70.3129C30.0989 70.4987 30.4505 70.6013 30.7993 70.6143C31.1481 70.6273 31.4863 70.5503 31.7921 70.3883C31.813 70.3833 31.8323 70.373 31.8488 70.358C31.8653 70.343 31.8788 70.3237 31.8883 70.3011C31.8978 70.2786 31.9032 70.2533 31.9041 70.2269C31.905 70.2005 31.9014 70.1734 31.8936 70.1474C32.29 68.5572 32.6779 66.3369 33.2199 63.4415C33.5232 61.375 33.7226 59.2731 33.8171 57.147C33.8092 52.2877 33.3531 48.8231 31.9788 46.8773L31.7141 46.528C31.3713 46.0036 30.9535 45.5567 30.4856 45.2139C30.0176 44.8712 29.509 44.6395 28.9902 44.5329C27.7792 44.2045 26.5559 44.1813 25.398 44.465C24.24 44.7486 23.1727 45.3328 22.2637 46.1805C20.1983 48.261 18.5997 50.9419 17.5855 54.0262C17.1345 55.4188 16.584 57.0516 16.0329 58.6817C15.6394 60.0818 15.3111 61.5162 15.0491 62.9787C14.6097 65.3277 14.3267 67.738 14.2027 70.1873C13.8773 77.4646 14.7222 82.9347 17.049 86.5173C19.1132 89.75 22.6656 91.7258 27.754 92.0089C29.7788 92.0843 32.4234 91.9854 35.5353 91.7601C36.8849 91.8094 37.5601 91.8354 37.614 92.0304C38.0503 93.1699 38.1576 94.4139 37.9167 95.5403C37.5062 97.3558 36.9153 99.0795 36.1561 100.676C34.5168 104.511 32.271 107.855 29.5316 110.538C29.0797 110.989 28.5311 111.286 27.9326 111.403C27.7977 110.578 27.86 109.752 28.1118 109.027C28.2777 108.708 28.3461 108.317 28.3065 107.915L28.2496 107.71C27.9608 107.408 27.6145 107.209 27.2557 107.139C26.5805 107.113 26.0602 107.047 25.8038 107.328C25.6476 107.371 25.5482 107.612 25.4459 107.85C25.1341 108.658 25.0143 109.58 25.0987 110.522C25.1831 111.464 25.4688 112.391 25.9266 113.211C26.5713 113.976 27.3385 114.563 28.1643 114.923C28.9902 115.282 29.8508 115.404 30.6746 115.279C32.4616 115.204 34.1191 114.45 35.4217 113.12C36.8999 111.595 38.2839 109.942 39.565 108.171C40.9679 105.99 42.2235 103.666 43.3216 101.216C45.0283 96.5174 45.3006 93.2711 43.8724 91.1304L44.084 91.2875Z" fill="white"/>
<path d="M113.361 83.3284C113 84.6204 112.564 85.8704 112.058 87.0697C111.251 88.9833 110.336 90.5043 109.574 91.9827C109.319 92.2661 109.216 92.5043 109.325 92.8968C109.378 93.0445 109.473 93.1691 109.59 93.2462C110.042 93.6514 110.574 93.8763 111.103 93.8858L111.259 93.8426C112.155 92.4276 112.969 90.9321 113.695 89.3654C114.098 88.4086 114.703 86.9735 115.356 85.1025C116.381 82.7455 116.605 79.898 115.985 77.1087L115.93 76.9111C115.621 75.9521 115.035 75.1306 114.293 74.6154C113.422 73.9937 112.47 73.6018 111.509 73.468C110.547 73.3342 109.599 73.4619 108.733 73.8417C106.747 74.7586 104.982 76.1814 103.544 78.0252C102.81 78.9283 102.129 79.8935 101.503 80.9155C100.936 81.7957 100.411 82.7174 99.9291 83.6767C99.3696 84.6767 98.6651 86.3521 97.756 88.5038C95.9954 93.6395 95.6385 97.7544 96.7151 101.047C97.7399 104.145 100.051 106.464 103.914 108.354C105.426 108.992 107.459 109.697 110.012 110.471C110.952 110.846 111.524 111.111 111.578 111.306C111.721 112.268 111.565 113.216 111.143 113.962C108.816 117.846 105.563 120.722 101.75 122.266C101.294 122.453 100.799 122.517 100.298 122.455C100.361 121.846 100.55 121.285 100.848 120.822C101.105 120.54 101.206 120.301 101.151 120.103L101.097 119.908C101.043 119.71 100.833 119.559 100.57 119.209C99.787 118.793 99.4221 118.681 99.2659 118.724C99.1777 118.734 99.095 118.769 99.0237 118.825C98.9525 118.882 98.8945 118.959 98.8541 119.051C98.4318 119.526 98.1401 120.151 98.0113 120.858C97.8824 121.565 97.9213 122.326 98.1237 123.056C98.4495 124.234 99.5519 125.197 101.273 125.989C102.682 126.535 104.145 126.504 105.424 125.899C106.926 125.389 108.347 124.641 109.652 123.671C111.213 122.59 112.642 121.272 113.91 119.745C116.162 117.014 117.015 114.665 116.471 112.698L116.417 112.5C115.902 111.361 115.203 110.342 114.369 109.515C113.534 108.688 112.584 108.071 111.583 107.708C109.637 106.935 107.672 106.279 105.696 105.742C104.858 105.537 104.033 105.197 103.243 104.73C102.874 104.546 102.536 104.258 102.26 103.893C101.984 103.527 101.779 103.094 101.661 102.632C101.199 100.836 101.087 98.9819 101.337 97.2278C101.545 95.3507 101.941 93.5387 102.516 91.8304C103.37 89.481 103.969 88.0476 104.274 87.3192C104.89 85.98 105.607 84.7236 106.417 83.5642C107.967 80.8745 110.078 78.7675 112.569 77.424C113.035 77.295 113.499 77.1665 113.71 77.321C113.907 78.4482 113.938 79.585 113.802 80.6765C113.788 81.6045 113.638 82.5022 113.361 83.3284Z" fill="white"/>
<path d="M140.253 80.3269C140.209 80.1757 140.138 80.0345 140.047 79.9135C139.956 79.7925 139.846 79.6948 139.725 79.6276C139.48 79.3285 139.175 79.1159 138.85 79.0173C138.525 78.9186 138.195 78.9383 137.902 79.0738L137.746 79.117C137.59 79.1602 137.59 79.1602 137.491 79.4005C137.32 82.406 136.939 85.2597 136.668 88.5028C136.297 91.613 135.744 94.6611 135.015 97.625C134.705 98.9464 134.268 100.202 133.711 101.366C133.343 102.419 132.809 103.355 132.137 104.128L132.024 103.719C131.721 102.13 131.618 100.524 131.718 98.9565C131.889 95.951 132.043 91.6793 132.494 86.0635C132.587 85.1925 132.635 84.7567 132.424 84.6023C132.126 83.8889 131.665 83.2788 131.105 82.8542C130.654 82.4321 130.141 82.1357 129.607 81.9895C129.072 81.8433 128.533 81.8516 128.032 82.0135C127.913 82.0496 127.805 82.119 127.716 82.2166C127.628 82.3142 127.561 82.4376 127.52 82.5777C127.349 85.5832 127.17 87.9586 127.085 89.4597C126.96 90.5932 126.887 91.7421 126.867 92.901C125.866 100.785 124.329 106.071 122.183 108.571L122.128 108.373C122.04 107.756 121.98 107.137 121.949 106.52C121.934 105.255 122.33 99.4398 123.137 89.0741C123.222 88.5243 123.232 87.9507 123.169 87.3748C122.87 86.6614 122.409 86.0513 121.849 85.6267C121.385 85.2465 120.873 84.9761 120.345 84.8317C119.817 84.6873 119.284 84.6717 118.776 84.786C118.657 84.8221 118.549 84.8915 118.461 84.9891C118.372 85.0867 118.305 85.2101 118.265 85.3502C118.217 85.786 117.915 90.7311 117.304 99.9906C116.898 102.921 116.952 105.986 117.463 109.028C117.594 109.548 117.813 110.039 118.105 110.469C118.397 110.899 118.755 111.257 119.154 111.519C120.116 112.042 121.153 112.199 122.118 111.967L122.428 111.881C124.081 111.199 125.407 109.783 126.168 107.889C126.525 107.212 126.829 106.491 127.076 105.734C127.249 106.308 127.525 106.841 127.881 107.291C128.237 107.742 128.665 108.097 129.13 108.329C130.097 108.701 131.096 108.788 132.04 108.582L132.506 108.453C134.934 107.569 136.867 104.289 138.145 98.6509C138.855 95.4058 139.386 92.0822 139.736 88.7009C139.944 84.6386 140.214 82.028 140.253 80.3269Z" fill="white"/>
<path d="M175.847 71.9632C175.32 70.2833 174.322 68.8274 173.047 67.8762C172.143 67.3432 171.157 67.1705 170.239 67.385L170.087 67.427C168.412 68.432 167.12 70.125 166.41 72.2474C166.005 71.7346 165.544 71.2918 165.045 70.9345C164.203 70.326 163.249 70.0672 162.343 70.2012L162.187 70.2444C161.967 70.3579 161.789 70.5545 161.675 70.8086C161.682 71.442 161.418 75.3185 160.938 82.6357C160.89 83.0715 160.806 84.5753 160.636 87.5808C160.277 88.4721 159.976 89.4028 159.736 90.3654C159.085 92.0854 158.307 93.7147 157.409 95.2351C157.319 94.1762 157.307 93.1211 157.373 92.0826C157.978 82.1951 158.383 77.0118 158.32 76.184C158.405 75.6342 158.416 75.0606 158.352 74.4847C158.053 73.7713 157.593 73.1612 157.032 72.7366C156.568 72.3564 156.056 72.086 155.528 71.9416C155.001 71.7972 154.467 71.7816 153.96 71.8959C153.788 71.9115 153.634 72 153.522 72.1467C153.41 72.2933 153.348 72.4891 153.346 72.701C153.16 74.4429 153.176 75.7065 153.128 76.1423C152.542 75.2672 151.775 74.5962 150.925 74.2158C149.687 73.6448 148.375 73.6309 147.24 74.1769C145.918 74.7453 144.773 75.7285 143.91 77.0374C143.048 78.3463 142.494 79.9396 142.299 81.6727C141.873 83.5999 141.587 85.5882 141.444 87.616C141.246 90.8054 141.586 94.09 142.444 97.2721L142.607 97.8597C143.087 99.456 144.008 100.854 145.199 101.792C146.201 102.484 147.34 102.7 148.371 102.395C149.471 101.892 150.381 100.978 150.985 99.7687C151.652 98.7584 152.246 97.6752 152.761 96.5291L152.816 96.7267C152.924 97.1193 153.187 97.4693 153.296 97.8619C153.671 98.5316 154.195 99.0667 154.794 99.3933C155.393 99.7198 156.038 99.8219 156.64 99.6853C158.252 98.7954 159.525 97.2588 160.271 95.3001C160.064 99.3822 159.705 104.754 159.27 111.004C159.185 111.553 159.174 112.127 159.238 112.703C159.401 113.293 160.085 113.949 161.077 114.52C162.225 115.048 163.165 115.423 163.724 115.056C163.843 115.02 163.951 114.951 164.04 114.853C164.128 114.755 164.196 114.632 164.236 114.492C164.338 114.251 164.314 112.357 164.532 108.916C165.138 99.0284 165.542 93.8452 165.488 93.6476C166.144 94.5994 167.041 95.2564 168.001 95.4882C169.076 95.7948 170.165 95.7838 171.173 95.4561L171.329 95.4129C172.696 94.7189 173.869 93.6174 174.754 92.1979C175.638 90.7784 176.208 89.081 176.418 87.2438C176.889 85.0858 177.103 82.8215 177.056 80.5153C177.116 77.8674 176.766 75.1687 176.026 72.558L175.847 71.9632ZM152.057 91.0112C151.55 92.1523 151.096 93.3335 150.698 94.5496C149.931 96.4198 148.939 98.1167 147.75 99.591C147.696 99.3933 147.431 99.044 147.377 98.849C146.641 96.218 146.342 93.4942 146.5 90.849C146.525 89.2126 146.697 87.6062 147.014 86.0584C147.263 85.1442 147.356 84.2732 147.603 83.3596C148.1 81.0802 149.322 79.2295 151.017 78.1893L151.638 78.0176C152.027 78.0462 152.41 78.0107 152.779 77.912L153.089 77.8262C152.956 78.9574 152.883 80.1069 152.871 81.2674C152.385 84.4516 152.113 87.7088 152.057 91.0086L152.057 91.0112ZM171.734 75.8464C171.869 77.4814 171.871 79.1091 171.742 80.7056C171.663 82.5478 171.371 84.3357 170.873 86.0173C170.643 87.2554 170.204 88.3935 169.583 89.3638C168.961 90.3342 168.171 91.1171 167.257 91.6661L166.791 91.7951C166.401 91.7545 166.015 91.7892 165.649 91.8981L165.506 91.9378C165.808 86.9927 166.126 82.6787 166.329 78.609C166.275 78.4113 166.322 77.9756 166.678 77.4546C166.995 76.4848 167.42 75.5854 167.942 74.7791C168.587 73.0586 169.541 71.57 170.742 70.4111C170.851 70.8037 171.062 70.9582 171.17 71.3507C171.336 71.943 171.458 73.5998 171.734 75.8464Z" fill="white"/>
</svg>
