<svg width="24" height="26" viewBox="0 0 24 26" fill="none" xmlns="http://www.w3.org/2000/svg">
<path d="M12 0C5.37253 0 0 5.82024 0 13C0 20.1798 5.37253 26 12 26C18.6275 26 24 20.1798 24 13C24 5.82024 18.6275 0 12 0Z" fill="#40B3E0"/>
<path d="M17.839 7.47799L15.6956 19.185C15.6956 19.185 15.3959 19.9969 14.5716 19.6072L9.62551 15.4992L7.82701 14.5575L4.79945 13.4533C4.79945 13.4533 4.33482 13.2748 4.28982 12.8851C4.24482 12.4954 4.81445 12.2843 4.81445 12.2843L16.8497 7.16964C16.8497 7.16964 17.8389 6.6988 17.8389 7.47819" fill="white"/>
<path d="M9.2454 19.0534C9.2454 19.0534 9.10103 19.0388 8.92103 18.4217C8.74131 17.8047 7.82697 14.5573 7.82697 14.5573L15.0962 9.5564C15.0962 9.5564 15.5159 9.28036 15.5009 9.5564C15.5009 9.5564 15.5758 9.60515 15.3509 9.83245C15.1262 10.0598 9.64056 15.4017 9.64056 15.4017" fill="#D2E5F1"/>
<path d="M11.522 17.0742L9.56567 19.0065C9.56567 19.0065 9.41267 19.1323 9.24542 19.0534L9.62005 15.4642" fill="#B5CFE4"/>
</svg>
