<svg width="66" height="56" viewBox="0 0 66 56" fill="none" xmlns="http://www.w3.org/2000/svg">
<path d="M64.4794 21.9957C64.1704 20.1002 63.5721 18.3629 62.747 16.9656C62.1592 15.9944 61.4637 15.2362 60.7051 14.7396C59.9465 14.243 59.1413 14.0189 58.3411 14.0816C56.7791 14.2833 55.3116 15.3216 54.1455 17.0498C54.103 17.1028 54.0606 17.1587 54.0174 17.2154C53.8147 16.8722 53.5996 16.5512 53.3734 16.2543C53.3338 16.2003 53.2919 16.1494 53.2486 16.0986C52.2339 14.8489 51.0154 14.2031 49.7885 14.2645C48.0944 14.3933 46.4838 15.9688 44.8664 19.0778C44.8394 19.1289 44.8141 19.1806 44.7914 19.2278C44.6683 19.4897 44.5539 19.7415 44.4431 19.9894C44.2207 19.4212 43.9642 18.8931 43.6779 18.4143C43.09 17.4432 42.3944 16.6853 41.6357 16.1888C40.8771 15.6924 40.0719 15.4683 39.2716 15.531C37.7096 15.7328 36.242 16.7713 35.0761 18.4999C34.7993 18.8535 34.5407 19.2462 34.3028 19.6741C34.0446 19.8005 33.7986 19.9851 33.571 20.2232C33.4645 20.3346 33.3636 20.4604 33.2693 20.5996C32.5541 19.2822 31.6175 18.3795 30.5989 18.0259L31.8698 12.8511C32.1398 11.9429 32.2677 10.9238 32.2414 9.88945L32.2346 9.74568C32.1175 8.09038 31.6469 6.5458 30.9139 5.41073C30.874 5.34162 30.8333 5.27257 30.7926 5.21362C29.6591 3.49623 28.4987 2.67113 27.3385 2.75936C26.9023 2.77992 26.478 2.96946 26.0976 3.31376C25.7172 3.65806 25.3905 4.14816 25.1421 4.7473C25.0462 4.97751 24.9653 5.22551 24.9009 5.48707L24.1109 8.70776C23.1478 7.03152 21.4908 5.23707 18.8764 5.43588C18.3568 5.48612 17.8417 5.60538 17.3357 5.79256C15.1047 6.62161 12.8198 8.67832 10.5475 11.9035C8.49634 14.8657 6.69875 18.3027 5.20339 22.1215L5.16559 22.2123C4.40838 24.1371 3.73742 26.1602 3.15818 28.2649C2.01541 32.8918 1.53174 37.2493 1.71912 41.2159C1.83346 44.068 2.41414 46.8368 3.39473 49.2054L3.46179 49.3597C5.62084 54.0739 8.0053 54.9163 9.62728 54.7929L9.73298 54.7849C12.1888 54.5981 14.9714 52.0253 18.226 46.9246C19.0861 48.1745 20.1744 48.8537 21.2821 48.832C21.6751 48.8065 22.0584 48.6479 22.4099 48.3653C22.7614 48.0828 23.0741 47.6819 23.3301 47.1858C23.4919 46.873 23.6228 46.5165 23.718 46.1297C24.0107 44.9411 24.2839 43.831 24.5377 42.7992C24.6197 43.0571 24.7102 43.3142 24.8088 43.5672C24.858 43.6931 24.9111 43.8146 24.9679 43.9309C26.1165 46.29 27.4026 47.433 28.7906 47.3275L28.8388 47.3238C29.1267 47.3065 29.411 47.2289 29.6853 47.0928C30.7453 46.4856 31.7082 45.4913 32.509 44.177C33.0406 45.0591 33.6701 45.7483 34.3571 46.2004C35.0442 46.6526 35.7737 46.8577 36.499 46.8026L36.7112 46.7865C38.1314 46.6785 39.5563 45.6445 41.055 43.6425C41.5505 42.9715 42.006 42.2194 42.4155 41.3964C43.9251 45.3094 45.7079 46.0424 46.9515 45.9479L47.0933 45.9371C48.0513 45.8642 49.128 45.1944 50.4874 43.8249C50.8419 43.4567 51.1825 43.0518 51.5073 42.6125C52.042 43.5298 52.6808 44.2487 53.3812 44.7214C54.0815 45.1941 54.8273 45.4097 55.5689 45.3539L55.7786 45.3379C57.1993 45.2299 58.6237 44.196 60.122 42.194C60.7311 41.3539 61.2867 40.4077 61.7806 39.3697C61.8087 39.3149 61.8363 39.258 61.861 39.202C62.4294 37.9792 62.9309 36.6682 63.3598 35.2846C64.4732 31.4802 64.9428 28.1266 64.7967 25.0334L64.7815 24.7106C64.7346 23.7938 64.6334 22.8842 64.4794 21.9957Z" fill="#541C27"/>
<path d="M43.3481 26.336C43.3157 25.7176 43.2469 25.104 43.1428 24.5047C42.96 23.3189 42.5978 22.2261 42.0933 21.3381C41.7458 20.7496 41.3318 20.2895 40.8788 19.9882C40.4258 19.6868 39.944 19.5511 39.4652 19.5901C38.3711 19.7693 37.3504 20.5358 36.548 21.7807C36.1622 22.3057 35.8131 22.9042 35.5071 23.5653C35.4241 23.5495 35.3409 23.5421 35.2577 23.5432L35.1512 23.5513C35.0481 23.5647 34.9496 23.6217 34.8644 23.7174C34.5374 24.357 34.2488 25.0519 34.0026 25.7921C33.0847 28.5244 32.5986 31.6377 32.5904 34.8374C32.346 35.3326 31.9931 36.0186 31.5317 36.8954C30.8394 38.1845 30.0833 39.3687 29.2713 40.4356C29.3412 39.9002 29.4271 39.3721 29.5287 38.8534C29.6963 38.0712 30.4673 34.8396 31.8418 29.1589C32.1695 28.1697 32.3445 27.0472 32.351 25.8932C32.2775 25.0585 32.0628 24.2703 31.7337 23.6265C31.4873 23.0818 31.1691 22.6433 30.8066 22.3489C30.4441 22.0545 30.0484 21.9132 29.6535 21.9371C28.8191 22.0005 27.6956 23.0332 26.2829 25.0351L26.2707 25.0361L29.6974 11.0754C29.7967 10.7664 29.857 10.4234 29.8746 10.0678L29.8678 9.92402C29.7802 9.25587 29.5637 8.65001 29.2537 8.20536C28.6164 7.239 28.0458 6.77499 27.5416 6.81333L27.5303 6.81419C27.4455 6.81124 27.3622 6.84201 27.287 6.90407C27.2117 6.96613 27.1466 7.05779 27.0967 7.1718L22.359 26.4914C21.8016 28.7703 21.316 30.7623 20.8974 32.478C20.2071 33.9055 19.5054 35.3219 18.7922 36.7272C14.7759 44.434 11.6305 48.374 9.35598 48.5469L9.32033 48.5497C9.15053 48.557 8.98032 48.5494 8.81034 48.5271C8.47354 48.3043 8.16636 47.9609 7.90996 47.5206C7.35557 46.6562 7.03152 45.2262 6.93781 43.2306C6.86752 40.6583 7.07594 38.1033 7.55253 35.6946C7.79878 34.4577 8.08984 33.2507 8.42406 32.0803C8.91958 30.5001 9.46389 28.9681 10.0548 27.4906C10.6472 26.0076 11.2877 24.5837 11.9732 23.2253C12.7973 21.6606 13.435 20.5365 13.8862 19.8529C14.6845 18.6078 15.5418 17.477 16.45 16.4713C18.2114 14.6579 19.6274 13.7102 20.6977 13.6283L20.933 13.6104C21.2511 13.5873 21.5711 13.6589 21.8788 13.822C21.8519 14.252 21.7835 14.6689 21.6765 15.0559C21.41 16.1705 21.0569 17.2143 20.6264 18.16C20.2263 19.0832 19.7895 19.9571 19.3188 20.7758C18.5082 22.1501 17.6476 23.4353 16.7417 24.6245C16.5522 24.8019 16.4643 24.9904 16.4739 25.1931C16.5008 25.3466 16.5398 25.4939 16.5897 25.6309C16.687 25.8592 16.8116 26.0501 16.9548 26.1901C17.098 26.33 17.2563 26.4156 17.4185 26.4408C17.595 26.3362 17.7564 26.1719 17.8932 25.9574C18.6649 24.9103 19.3804 23.8478 20.0397 22.7699C20.5928 21.8513 21.1089 20.8698 21.5847 19.8316C22.646 17.3942 23.141 15.4216 23.0698 13.914L23.0575 13.653C23.0105 12.9388 22.8379 12.2579 22.5628 11.7009C21.7218 10.1142 20.5578 9.37718 19.071 9.48977C18.6838 9.53041 18.3 9.62085 17.9228 9.76033C16.0455 10.4576 14.1043 12.2287 12.0991 15.0736C10.209 17.8052 8.55363 20.9761 7.17818 24.4997C6.49261 26.2373 5.88214 28.0608 5.35142 29.9563C4.35111 34.0109 3.9296 37.703 4.08689 41.0328C4.16622 43.1358 4.5911 45.1793 5.31248 46.9275C6.52755 49.5818 7.90225 50.8507 9.43656 50.734L9.54226 50.7259C11.7765 50.556 14.6694 47.3731 18.2211 41.1771C18.5264 40.6439 18.862 40.0318 19.2228 39.3479C19.1253 39.7513 19.059 40.0226 19.026 40.1615C18.8711 40.5988 18.7732 41.0905 18.7389 41.6045C18.8273 42.2575 19.0339 42.853 19.3289 43.3048C19.9925 44.323 20.5801 44.8127 21.0918 44.7738C21.1748 44.772 21.2561 44.7411 21.3307 44.6831C21.4053 44.6251 21.4715 44.5411 21.5254 44.4364C23.5181 36.3423 24.5932 31.9437 24.7508 31.2406C25.2266 30.1668 25.7406 29.1451 26.29 28.1808C27.5167 26.0718 28.5607 24.7071 29.4221 24.0865C29.422 24.0894 29.4224 24.0922 29.423 24.0949C29.4237 24.0975 29.4247 24.0999 29.426 24.1018C29.4272 24.1037 29.4287 24.1051 29.4303 24.1059C29.432 24.1067 29.4336 24.1069 29.4353 24.1064L29.3971 24.5559C29.1875 25.4655 28.5677 28.0566 27.5375 32.3294C26.6694 35.6832 26.2675 38.0409 26.3318 39.4024C26.3744 40.1157 26.5257 40.8041 26.7705 41.3985C27.3998 42.6901 28.0094 43.3135 28.5994 43.2686L28.6468 43.265C28.7544 43.2607 28.8606 43.232 28.9627 43.1796C29.6355 42.8851 30.6305 41.639 31.9478 39.4414C32.2123 38.9978 32.5169 38.4422 32.8528 37.7999C33.0083 38.7269 33.2666 39.6001 33.6132 40.3709C34.4024 42.0289 35.3003 42.8199 36.307 42.7438L36.5192 42.7276C37.4392 42.6577 38.4601 41.8694 39.5819 40.3629C40.0622 39.6813 40.5018 38.9207 40.8949 38.0915C41.3736 37.066 41.7972 35.9672 42.1609 34.8079C43.0718 31.6952 43.4725 28.979 43.3629 26.6595L43.3481 26.336ZM41.9225 25.4928C42.0123 27.394 41.7129 29.6698 41.0243 32.3203C40.8184 33.0851 40.5804 33.8218 40.3122 34.525C39.9611 35.5069 39.5518 36.4221 39.0904 37.257C37.9166 39.3076 36.8536 40.3693 35.9015 40.4422C35.633 39.7388 35.4839 38.927 35.4714 38.1007L35.4542 37.7362C35.4143 36.4563 35.4816 35.1799 35.654 33.9457C36.0266 34.4468 36.4741 34.7521 36.9393 34.8227L37.0685 34.8128C37.1367 34.8042 37.2034 34.7785 37.2665 34.7365C37.3575 34.6683 37.4318 34.5501 37.478 34.3999C37.5241 34.2498 37.5396 34.076 37.5219 33.9054C37.5186 33.8107 37.5102 33.7165 37.4968 33.6238C37.3522 33.0387 37.2591 32.423 37.2207 31.7972C37.1284 29.8429 37.6295 27.9108 38.7241 26.0008C39.7031 24.5191 40.5548 23.7507 41.279 23.6956C41.4333 23.7009 41.5861 23.7657 41.7262 23.8853C41.7972 23.8799 41.8591 24.3561 41.9119 25.314L41.9225 25.4928Z" fill="white"/>
<path d="M62.2116 23.0576C62.0289 21.8717 61.6667 20.7787 61.162 19.891C60.8145 19.3025 60.4005 18.8424 59.9475 18.541C59.4945 18.2397 59.0127 18.104 58.5339 18.143C57.4398 18.3222 56.4191 19.0887 55.6167 20.3336C55.2309 20.8586 54.8818 21.4571 54.5758 22.1182C54.493 22.1024 54.4098 22.095 54.3268 22.096L54.2199 22.1042C54.1168 22.1176 54.0183 22.1746 53.9331 22.2703C53.6061 22.9097 53.3176 23.6046 53.0717 24.345C52.1545 27.0747 51.6681 30.1849 51.6587 33.3817C51.5398 33.6194 51.3953 33.9117 51.2194 34.2685C50.5544 35.544 49.8303 36.7252 49.0538 37.8016C48.1566 39.0068 47.4108 39.6794 46.8163 39.8193C46.685 39.2715 46.6011 38.6963 46.5673 38.1126L46.5443 37.6274C46.4132 34.8507 46.9826 31.6143 48.2527 27.9182C48.5876 26.9566 48.9729 26.0509 49.4041 25.2119C49.7737 24.4503 50.2043 23.7826 50.6839 23.2273C50.9792 22.9037 51.2966 22.6412 51.6299 22.4447C51.5573 22.7345 51.4335 23.1436 51.2614 23.6703C50.8605 24.6949 50.4245 25.6769 49.9556 26.6113L49.9613 26.7321C50.0069 26.9832 50.0868 27.2139 50.1943 27.4048C50.4999 27.8553 50.7276 28.0749 50.8775 28.0635L50.9475 28.0581L51.0174 28.0319C51.2431 27.616 51.4559 27.1799 51.6549 26.7252C52.5886 24.6121 53.0301 23.0154 52.9794 21.9352C52.9405 21.1128 52.6012 20.2794 51.9613 19.4349C51.3833 18.7013 50.6852 18.3114 49.9785 18.3275C48.9478 18.4059 47.8425 19.5793 46.6627 21.8478C46.2473 22.7096 45.8672 23.6202 45.5248 24.5733C45.0731 25.8684 44.6779 27.2212 44.3425 28.621C43.8397 30.8079 43.6204 33.1705 43.6991 35.5503C43.7502 36.7553 43.9512 37.937 44.2888 39.016C45.0145 41.0044 45.8374 41.9633 46.7576 41.8929L46.8994 41.8821C47.4497 41.8403 48.2188 41.3217 49.2068 40.3265C49.8068 39.678 50.3662 38.9285 50.877 38.0886C51.248 37.5424 51.5956 36.952 51.9175 36.3213C52.0725 37.2578 52.3323 38.14 52.6821 38.918C53.4713 40.576 54.3692 41.367 55.3759 41.2909L55.5881 41.2747C56.5086 41.2047 57.5295 40.4165 58.6507 38.91C59.131 38.2284 59.5707 37.4678 59.9637 36.6386C60.4426 35.6132 60.8662 34.5145 61.2297 33.355C62.1407 30.2423 62.5413 27.5261 62.4318 25.2066L62.4165 24.8831C62.384 24.2666 62.3153 23.655 62.2116 23.0576ZM60.9915 24.0428C61.0813 25.944 60.7819 28.2198 60.0932 30.8703C59.887 31.6349 59.6489 32.3716 59.3807 33.0751C59.0297 34.0569 58.6204 34.9722 58.159 35.807C56.9856 37.8556 55.9223 38.9164 54.9691 38.9894C54.7006 38.286 54.5515 37.4742 54.539 36.6479L54.5218 36.2834C54.4818 35.0035 54.549 33.727 54.7216 32.4929C55.0946 32.9947 55.5427 33.3 56.0086 33.3697L56.1382 33.3599C56.2062 33.3512 56.2728 33.3255 56.3358 33.2835C56.4268 33.2154 56.5011 33.0971 56.5473 32.947C56.5934 32.7968 56.6088 32.6231 56.5912 32.4525C56.5881 32.3578 56.5797 32.2635 56.5661 32.1709C56.4216 31.5858 56.3286 30.97 56.2904 30.3442C56.1981 28.3899 56.6991 26.4578 57.7934 24.5479C58.7724 23.0662 59.624 22.2978 60.3483 22.2427C60.5025 22.2479 60.6554 22.3127 60.7954 22.4323C60.8664 22.4269 60.9285 22.9032 60.9816 23.8611L60.9915 24.0428Z" fill="white"/>
</svg>
