<svg xmlns="http://www.w3.org/2000/svg" width="19.01" height="19.009" viewBox="0 0 19.01 19.009">
  <g id="comprobado" transform="translate(0 -0.003)">
    <path id="Trazado_14937" data-name="Trazado 14937" d="M19.01,9.508a9.5,9.5,0,1,0-9.5,9.5A9.5,9.5,0,0,0,19.01,9.508Z" fill="#ee109e"/>
    <path id="Trazado_14938" data-name="Trazado 14938" d="M120.228,153.412c-.224-.577-.68-.486-1.174-.388-.3.061-1.607.446-3.684,2.635a17.555,17.555,0,0,0-1.8,2.186,11.483,11.483,0,0,0-.766-.856,11.08,11.08,0,0,0-1.829-1.451.841.841,0,0,0-.878,1.434,9.474,9.474,0,0,1,1.518,1.206,13.047,13.047,0,0,1,1.367,1.688.841.841,0,0,0,1.516-.263,9.8,9.8,0,0,1,2.1-2.786,8.4,8.4,0,0,1,2.693-2.1l.01,0,.03-.014c.056-.021.086-.029.088-.03l-.025.005v0l.442-.191A.79.79,0,0,0,120.228,153.412Z" transform="translate(-105.489 -147.089)" fill="#fff"/>
  </g>
</svg>
