<svg id="Grupo_14426" data-name="Grupo 14426" xmlns="http://www.w3.org/2000/svg" width="79.745" height="40.035" viewBox="0 0 79.745 40.035">
  <g id="Grupo_14421" data-name="Grupo 14421" transform="translate(0 26.429)">
    <g id="Grupo_14420" data-name="Grupo 14420">
      <path id="Trazado_13692" data-name="Trazado 13692" d="M509.3,814.186v-5.132l13.1,8.485,13.1-8.485,13.088,8.485,13.1-8.485,13.1,8.485,11.919-7.722,2.347,3.607-14.266,9.236-13.1-8.474-13.1,8.474L535.5,814.186l-13.1,8.474Z" transform="translate(-509.305 -809.054)" fill="#fff"/>
    </g>
  </g>
  <g id="Grupo_14423" data-name="Grupo 14423" transform="translate(0 13.088)">
    <g id="Grupo_14422" data-name="Grupo 14422">
      <path id="Trazado_13693" data-name="Trazado 13693" d="M509.3,800.844v-5.132l13.1,8.485,13.1-8.485,13.088,8.485,13.1-8.485,13.1,8.485,11.919-7.733,2.347,3.617-14.266,9.236-13.1-8.474-13.1,8.474L535.5,800.844l-13.1,8.474Z" transform="translate(-509.305 -795.713)" fill="#fff"/>
    </g>
  </g>
  <g id="Grupo_14425" data-name="Grupo 14425">
    <g id="Grupo_14424" data-name="Grupo 14424">
      <path id="Trazado_13694" data-name="Trazado 13694" d="M509.3,787.756v-5.131l13.1,8.485,13.1-8.485,13.088,8.485,13.1-8.485,13.1,8.485,11.919-7.723,2.347,3.607-14.266,9.247-13.1-8.485-13.1,8.485L535.5,787.756l-13.1,8.485Z" transform="translate(-509.305 -782.625)" fill="#fff"/>
    </g>
  </g>
</svg>
