<svg xmlns="http://www.w3.org/2000/svg" xmlns:xlink="http://www.w3.org/1999/xlink" width="85.954" height="77.738" viewBox="0 0 85.954 77.738">
  <defs>
    <clipPath id="clip-path">
      <circle id="Elipse_238" data-name="Elipse 238" cx="19.486" cy="19.486" r="19.486" transform="matrix(0.741, -0.672, 0.672, 0.741, 0, 26.186)" fill="none" opacity="0.62" style="mix-blend-mode: multiply;isolation: isolate"/>
    </clipPath>
  </defs>
  <g id="Grupo_14672" data-name="Grupo 14672" transform="translate(69.023 -5.428) rotate(66)">
    <g id="Grupo_14671" data-name="Grupo 14671" transform="translate(0 0)">
      <g id="Grupo_14655" data-name="Grupo 14655" transform="translate(5.942 0)">
        <path id="Trazado_14877" data-name="Trazado 14877" d="M13.424,26.519C9.372,24.094,5.268,21.531,2.31,17.808.868,15.992-.314,13.709.075,11.419A5.113,5.113,0,0,1,3.686,7.405,5.087,5.087,0,0,1,8.81,9.074,8.039,8.039,0,0,1,15.3.06,8.1,8.1,0,0,1,24,7.006,7.364,7.364,0,0,1,30.967,4.6a6.148,6.148,0,0,1,4.715,5.545c.087,2.853-1.983,5.222-3.922,7.263l-3.967,4.177a4.7,4.7,0,0,1-1.091.936c-.79.434-7.119,6.661-7.119,6.661l-6.158-2.66" transform="translate(0)" fill="#e295ff"/>
        <path id="Trazado_14878" data-name="Trazado 14878" d="M14.16,14.366c2.663,2.757,4.178,6.447,7.618,3.648a8.283,8.283,0,0,0,1.279-6.343C25,15.3,28.5,16.736,32.286,16.842c1.768-1.913,3.475-4.107,3.4-6.7A6.148,6.148,0,0,0,30.967,4.6,7.364,7.364,0,0,0,24,7.006,8.1,8.1,0,0,0,15.3.06,8.039,8.039,0,0,0,8.81,9.074,5.087,5.087,0,0,0,3.686,7.405,5.113,5.113,0,0,0,.075,11.419c-.389,2.29.793,4.573,2.235,6.389a30.864,30.864,0,0,0,7.454,6.436C13.526,22.678,16.208,18.923,14.16,14.366Z" transform="translate(0 0)" fill="#e295ff"/>
        <path id="Trazado_14879" data-name="Trazado 14879" d="M14.952.06A8.039,8.039,0,0,0,8.466,9.074,5.087,5.087,0,0,0,3.342,7.405,5.1,5.1,0,0,0,0,10.486c3.338-2.5,7.447,1.649,11.114,2.38.126-3.278-.41-6.578.352-9.18,1.423-2.58,4.731-2.471,6.664-1.095,1.3.7,1.909,2.033,3.207,2.732A4.776,4.776,0,0,1,22.51,9.3c5.9-4.42,9.773-1.612,12.466,3.05a6.077,6.077,0,0,0,.361-2.212A6.148,6.148,0,0,0,30.622,4.6,7.364,7.364,0,0,0,23.66,7.006,8.1,8.1,0,0,0,14.952.06Z" transform="translate(0.345 0)" fill="#efc6ff"/>
        <path id="Trazado_14880" data-name="Trazado 14880" d="M16.936,10.846a4.7,4.7,0,0,0,1.091-.936l3.967-4.177c.176-.184.351-.372.527-.562C17.889,7.919,15.632,7.119,13.292,0c.58,2.558.529,5.392-.472,6.964C10.277,9.912,8.253,8.139,4.4,2.695c3.851,9,2.585,10.293-4.4,9.878,1.2.788,2.432,1.541,3.659,2.275l6.158,2.66S16.146,11.281,16.936,10.846Z" transform="translate(9.765 11.671)" fill="#d368ff"/>
      </g>
      <g id="Grupo_14656" data-name="Grupo 14656" transform="translate(18.241 56.896)">
        <path id="Trazado_14881" data-name="Trazado 14881" d="M22.477,2.321c3.98,2.148,8.01,4.422,10.876,7.787,1.4,1.642,2.526,3.718,2.092,5.833a5.146,5.146,0,0,1-8.738,2.338c.6,3.775-2.594,7.837-6.638,8.428s-8.149-2.4-8.519-6.213a7.951,7.951,0,0,1-6.975,2.362A5.492,5.492,0,0,1,0,17.849C-.027,15.226,2.081,13,4.051,11.085L8.083,7.159a4.912,4.912,0,0,1,1.106-.884C9.983,5.86,16.406,0,16.406,0l6.071,2.321" transform="translate(0 0)" fill="#e295ff"/>
        <path id="Trazado_14882" data-name="Trazado 14882" d="M21.495,9.18c-2.591-2.482-4.023-5.847-7.5-3.2a7.364,7.364,0,0,0-1.4,5.863c-1.858-3.3-5.311-4.549-9.074-4.569C1.718,9.069-.024,11.124,0,13.51a5.492,5.492,0,0,0,4.575,5.006,7.951,7.951,0,0,0,6.975-2.362c.37,3.809,4.476,6.8,8.519,6.213s7.242-4.653,6.638-8.428A5.146,5.146,0,0,0,35.446,11.6c.434-2.115-.7-4.191-2.092-5.833A28.346,28.346,0,0,0,26.071,0C22.3,1.518,19.551,5.028,21.495,9.18Z" transform="translate(0 4.339)" fill="#e295ff"/>
        <path id="Trazado_14883" data-name="Trazado 14883" d="M20.07,11.863c4.043-.591,7.242-4.653,6.638-8.428A5.14,5.14,0,0,0,31.77,4.865a5.243,5.243,0,0,0,3.388-2.9C31.786,4.33,27.784.6,24.151,0c-.192,3.019.273,6.045-.539,8.454-1.468,2.4-4.756,2.371-6.651,1.144C15.684,8.981,15.1,7.767,13.827,7.15a4.034,4.034,0,0,1-1.084-3.636C6.786,7.7,2.988,5.2.4.963A5.329,5.329,0,0,0,0,3.006,5.492,5.492,0,0,0,4.576,8.012,7.951,7.951,0,0,0,11.551,5.65C11.921,9.459,16.027,12.453,20.07,11.863Z" transform="translate(0 14.843)" fill="#efc6ff"/>
        <path id="Trazado_14884" data-name="Trazado 14884" d="M5.672,6.275a4.912,4.912,0,0,0-1.106.884L.535,11.085c-.177.173-.356.35-.535.528,4.9-2.73,6.99-.783,9.074,4.569a7.364,7.364,0,0,1,1.4-5.863c3.479-2.646,4.911.718,7.5,3.2-1.943-4.152.8-7.662,4.576-9.18-1.181-.7-2.388-1.368-3.594-2.019L12.89,0S6.467,5.86,5.672,6.275Z" transform="translate(3.516 0)" fill="#d368ff"/>
      </g>
      <g id="Grupo_14669" data-name="Grupo 14669" transform="translate(0 16.312)">
        <circle id="Elipse_236" data-name="Elipse 236" cx="21.288" cy="21.288" r="21.288" transform="matrix(0.885, -0.466, 0.466, 0.885, 0, 19.854)" fill="#d97bff"/>
        <circle id="Elipse_237" data-name="Elipse 237" cx="19.486" cy="19.486" r="19.486" transform="matrix(1, -0.004, 0.004, 1, 9.186, 9.359)" fill="#e7aaff"/>
        <g id="Grupo_14664" data-name="Grupo 14664" transform="translate(1.234 1.234)" opacity="0.64" style="mix-blend-mode: multiply;isolation: isolate">
          <g id="Grupo_14663" data-name="Grupo 14663" transform="translate(0 0)" clip-path="url(#clip-path)">
            <g id="Grupo_14657" data-name="Grupo 14657" transform="translate(8.689 10.403)">
              <path id="Trazado_14885" data-name="Trazado 14885" d="M1.209,28.148c7.358-.108,15.292-2.48,20.8-7.534A28.6,28.6,0,0,0,30.914,1.25c.1-1.641-2.453-1.677-2.549-.044a25.984,25.984,0,0,1-8.153,17.6c-4.991,4.582-12.3,6.7-18.958,6.8-1.64.024-1.686,2.573-.044,2.549Z" transform="translate(0 0)" fill="#c080ff"/>
            </g>
            <g id="Grupo_14658" data-name="Grupo 14658" transform="translate(4.212 5.557)">
              <path id="Trazado_14886" data-name="Trazado 14886" d="M1.209,28.148c7.358-.108,15.291-2.48,20.8-7.534A28.6,28.6,0,0,0,30.914,1.25c.1-1.642-2.453-1.677-2.549-.044a25.991,25.991,0,0,1-8.153,17.6c-4.991,4.582-12.3,6.7-18.958,6.8-1.64.025-1.686,2.573-.044,2.549Z" transform="translate(0 0)" fill="#c080ff"/>
            </g>
            <g id="Grupo_14659" data-name="Grupo 14659" transform="translate(0.096 1.915)">
              <path id="Trazado_14887" data-name="Trazado 14887" d="M1.209,28.148c7.358-.109,15.291-2.481,20.8-7.534A28.6,28.6,0,0,0,30.914,1.25c.1-1.642-2.453-1.677-2.549-.044a25.991,25.991,0,0,1-8.153,17.6c-4.992,4.581-12.3,6.7-18.959,6.8-1.639.024-1.685,2.573-.043,2.549Z" transform="translate(0 0)" fill="#c080ff"/>
            </g>
            <g id="Grupo_14660" data-name="Grupo 14660" transform="translate(-3.755 -3.06)">
              <path id="Trazado_14888" data-name="Trazado 14888" d="M1.209,28.148c7.358-.108,15.292-2.48,20.8-7.534A28.6,28.6,0,0,0,30.914,1.25c.1-1.642-2.453-1.677-2.549-.044a25.986,25.986,0,0,1-8.153,17.6c-4.991,4.581-12.3,6.7-18.958,6.8-1.64.025-1.686,2.573-.044,2.549Z" transform="translate(0 0)" fill="#c080ff"/>
            </g>
            <g id="Grupo_14661" data-name="Grupo 14661" transform="translate(12.065 14.077)">
              <path id="Trazado_14889" data-name="Trazado 14889" d="M1.249,29.069c7.5-.107,15.529-2.495,21.217-7.541a29.451,29.451,0,0,0,9.46-20.237c.1-1.7-2.533-1.732-2.633-.045a26.708,26.708,0,0,1-8.681,18.412C15.438,24.2,8.08,26.339,1.294,26.436c-1.693.024-1.741,2.657-.045,2.633Z" transform="translate(0 0)" fill="#c080ff"/>
            </g>
            <g id="Grupo_14662" data-name="Grupo 14662" transform="translate(16.237 18.774)">
              <path id="Trazado_14890" data-name="Trazado 14890" d="M1.249,29.069c7.5-.107,15.528-2.494,21.216-7.541a29.45,29.45,0,0,0,9.46-20.237c.1-1.7-2.533-1.733-2.633-.046a26.708,26.708,0,0,1-8.681,18.412C15.439,24.2,8.08,26.339,1.294,26.436c-1.693.024-1.741,2.657-.045,2.633Z" transform="translate(0 0)" fill="#c080ff"/>
            </g>
          </g>
        </g>
        <g id="Grupo_14668" data-name="Grupo 14668" transform="translate(10.637 13.195)">
          <g id="Grupo_14665" data-name="Grupo 14665" transform="translate(0 6.663)" opacity="0.94" style="mix-blend-mode: hard-light;isolation: isolate">
            <path id="Trazado_14891" data-name="Trazado 14891" d="M1.777,11.522a34.84,34.84,0,0,1,1.428-5.4c.736-1.736,2.122-3.076,2.851-4.784C6.434.449,5.283-.28,4.539.106c-1.826.947-2.894,3.3-3.608,5.13A10.742,10.742,0,0,0,.2,11.482a.822.822,0,0,0,1.575.039Z" transform="translate(0 0)" fill="#f4d8ff"/>
          </g>
          <g id="Grupo_14666" data-name="Grupo 14666" transform="translate(6.372 2.566)" opacity="0.94" style="mix-blend-mode: hard-light;isolation: isolate">
            <path id="Trazado_14892" data-name="Trazado 14892" d="M.971,3.034A2.287,2.287,0,0,0,1.94,2.35a4.051,4.051,0,0,0,.7-.918A.942.942,0,0,0,1.2.247a4,4,0,0,0-.737.887A2.349,2.349,0,0,0,0,2.257a.788.788,0,0,0,.969.777Z" transform="translate(0 0)" fill="#f4d8ff"/>
          </g>
          <g id="Grupo_14667" data-name="Grupo 14667" transform="translate(10.325 0)" opacity="0.94" style="mix-blend-mode: hard-light;isolation: isolate">
            <path id="Trazado_14893" data-name="Trazado 14893" d="M.652,1.756a1.308,1.308,0,0,1,.458-.383,2.318,2.318,0,0,1,.33-.062,2.053,2.053,0,0,0,.387-.162A.613.613,0,0,0,2.1.387.628.628,0,0,0,1.387.009,1.34,1.34,0,0,0,.53.572a2.84,2.84,0,0,0-.477.692.4.4,0,0,0,.086.507.387.387,0,0,0,.514-.014Z" transform="translate(0 0)" fill="#f4d8ff"/>
          </g>
        </g>
        <path id="Trazado_14894" data-name="Trazado 14894" d="M12.379,1.347A19.489,19.489,0,0,0,.483,23.79l.044.009a4.619,4.619,0,0,0,5.294-3.154C8.406,12.273,15.544,5.029,23.952.523A19.386,19.386,0,0,0,12.379,1.347Z" transform="translate(9.268 9.27)" fill="#f4d8ff" opacity="0.91" style="mix-blend-mode: hard-light;isolation: isolate"/>
      </g>
      <g id="Grupo_14670" data-name="Grupo 14670" transform="translate(11.995 52.552)" opacity="0.91" style="mix-blend-mode: hard-light;isolation: isolate">
        <path id="Trazado_14895" data-name="Trazado 14895" d="M.226,1.669,1.405,3.113c.485.6.948,1.165,1.806,1.082A1.123,1.123,0,0,0,4.329,3.122a1.816,1.816,0,0,0-.3-1.1,3.511,3.511,0,0,0-.968-.767L1.456.173C.5-.475-.444.846.226,1.669Z" transform="translate(0 0)" fill="#f4d8ff"/>
      </g>
    </g>
  </g>
</svg>
