<svg id="Grupo_1059" data-name="Grupo 1059" xmlns="http://www.w3.org/2000/svg" width="47.5" height="47.493" viewBox="0 0 47.5 47.493">
  <circle id="Elipse_71" data-name="Elipse 71" cx="23.744" cy="23.744" r="23.744" transform="translate(0.006 0)" fill="#4da600"/>
  <g id="Grupo_1058" data-name="Grupo 1058" transform="translate(0 0.625)">
    <path id="Trazado_13004" data-name="Trazado 13004" d="M55.119,366.206c0,.52.016,1.035.05,1.548a23.635,23.635,0,0,0,2.052,8.227,23.618,23.618,0,0,0,1.844,3.338,23.9,23.9,0,0,0,5.236,5.647c.52.3,1.054.587,1.6.851a27.022,27.022,0,0,0,3.578,1.417,26.343,26.343,0,0,0,3.763.846,24.3,24.3,0,0,0,7.76-.107,20.557,20.557,0,0,0,7.357-2.914A20.878,20.878,0,0,0,98,368.435c.03-.664.037-1.332,0-2a9.574,9.574,0,0,0-.083-1.014l-.117-1.025a17.506,17.506,0,0,0-3.186-7.546c-.1-.139-.2-.286-.3-.416l-.336-.393-.673-.782c-.24-.245-.491-.48-.739-.721a9.01,9.01,0,0,0-.766-.688,16.211,16.211,0,0,0-1.657-1.225c-.291-.185-.574-.382-.873-.553l-.915-.475-.459-.232c-.157-.07-.318-.131-.478-.194l-.961-.379c-.32-.129-.656-.2-.985-.3s-.659-.2-1-.264l-1.014-.187-.509-.091-.512-.043-1.025-.08a4.24,4.24,0,0,0-.515-.011l-.513.008c-.344.01-.683.008-1.03.034l-1.057.128a8.77,8.77,0,0,0-1.046.2,9.028,9.028,0,0,0-1.033.272l-1.011.342-.977.438a9.13,9.13,0,0,0-.939.5,8.357,8.357,0,0,0-.9.568,13.944,13.944,0,0,0-3.1,2.877c-.21.283-.445.549-.635.848l-.568.894c-.182.3-.331.624-.494.937-.077.158-.163.312-.232.475l-.194.494-.192.493-.093.245-.075.257-.285,1.016c-.075.344-.131.694-.195,1.041a8.191,8.191,0,0,0-.118,1.049l-.037.525-.016.264.005.261.029,1.052a12.4,12.4,0,0,0,.35,2.154,11.7,11.7,0,0,0,8.939,8.577c.355.059.71.131,1.067.171l1.073.075,1.07-.035c.363-.027.742-.088,1.107-.139a9.68,9.68,0,0,0,4.054-1.8,9.491,9.491,0,0,0,2.783-3.394,9.286,9.286,0,0,0,.972-4.243,8.415,8.415,0,0,0-.3-2.22A7.877,7.877,0,0,0,84.9,360.4a8.094,8.094,0,0,0-1.884-1.2,7.8,7.8,0,0,0-2.14-.611,5.479,5.479,0,0,0-.553-.05,4.77,4.77,0,0,0-.553-.014l-.553.024c-.187.019-.381.05-.57.078a6.371,6.371,0,0,0-3.872,2.295,6.139,6.139,0,0,0-1.351,4.2,5.269,5.269,0,0,0,.608,2.225,5.2,5.2,0,0,0,1.516,1.719,4.94,4.94,0,0,0,2.084.877,3.962,3.962,0,0,0,.563.064,3.6,3.6,0,0,0,.561,0,4.152,4.152,0,0,0,3.034-1.54,4.218,4.218,0,0,0,.587-.985,4.406,4.406,0,0,0,.283-1.1,4.073,4.073,0,0,0,.019-.566l-.016-.283-.043-.291a3.3,3.3,0,0,0-2.2-2.511,3.261,3.261,0,0,0-1.118-.155,2.683,2.683,0,0,0-1.127.278,2.605,2.605,0,0,0-1.39,1.745,2.662,2.662,0,0,0-.064.561c0,.093.008.187.013.28a2.659,2.659,0,0,0,.051.289,2.077,2.077,0,0,0,1.553,1.542,2.056,2.056,0,0,0,.555.048,1.616,1.616,0,0,0,.563-.123,1.661,1.661,0,0,0,.835-.747,1.6,1.6,0,0,0,.157-1.081,1.305,1.305,0,0,0-.657-.87,1.212,1.212,0,0,0-1.054-.048.993.993,0,0,0-.577.849.822.822,0,0,0,.128.5.753.753,0,0,0,.406.312.688.688,0,0,0,.5-.019.6.6,0,0,0,.32-.357.508.508,0,0,0-.064-.454.435.435,0,0,0-.395-.168.4.4,0,0,1,.347.2.411.411,0,0,1,0,.379.447.447,0,0,1-.272.24.52.52,0,0,1-.353-.038.506.506,0,0,1-.283-.568.6.6,0,0,1,.409-.475.721.721,0,0,1,.912.622.922.922,0,0,1-.165.59.844.844,0,0,1-.48.331,1.033,1.033,0,0,1-.587-.035,1.081,1.081,0,0,1-.486-.339,1.052,1.052,0,0,1-.221-.52,1.3,1.3,0,0,1-.008-.139l.008-.155a1.513,1.513,0,0,1,.069-.293,1.318,1.318,0,0,1,.793-.806,1.3,1.3,0,0,1,.56-.07,1.761,1.761,0,0,1,.579.147,1.613,1.613,0,0,1,.806.8,1.7,1.7,0,0,1,.145.534l.005.136-.008.152a2.194,2.194,0,0,1-.038.3,2.054,2.054,0,0,1-1.529,1.577,1.936,1.936,0,0,1-.563.048l-.152-.005c-.05-.005-.1-.016-.152-.021a1.9,1.9,0,0,1-.3-.061,2.511,2.511,0,0,1-1.043-.55,2.637,2.637,0,0,1-.686-.926,2.594,2.594,0,0,1-.195-1.118,3.318,3.318,0,0,1,.9-2.2,3.245,3.245,0,0,1,2.052-1.017c.1,0,.189-.016.288-.016l.318.011a1.991,1.991,0,0,1,.313.032,2.055,2.055,0,0,1,.309.048,4.259,4.259,0,0,1,1.161.416,4.492,4.492,0,0,1,.985.726,4.306,4.306,0,0,1,.728.963,4.371,4.371,0,0,1,.416,1.113,4.848,4.848,0,0,1,.083,1.217,5.263,5.263,0,0,1-.7,2.426,5.316,5.316,0,0,1-1.684,1.833,5.508,5.508,0,0,1-2.276.886c-.208.011-.4.04-.619.045s-.441-.008-.662-.005c-.219-.029-.438-.056-.656-.077s-.427-.094-.64-.134a7.117,7.117,0,0,1-2.354-1.1,7,7,0,0,1-2.786-4.192,7.166,7.166,0,0,1-.16-1.273l.005-.683,0-.17.021-.171.037-.339a4.331,4.331,0,0,1,.1-.67c.048-.221.085-.443.139-.664l.2-.646.048-.163.067-.155.133-.309.128-.315c.045-.1.107-.2.16-.3.112-.2.205-.4.325-.593l.379-.56c.123-.189.283-.349.419-.528a8.856,8.856,0,0,1,2.01-1.775,4.465,4.465,0,0,1,.577-.339,4.2,4.2,0,0,1,.6-.3c.205-.085.409-.176.611-.266l.638-.2a4.438,4.438,0,0,1,.646-.158,4.6,4.6,0,0,1,.657-.117l.667-.075c.229-.01.469,0,.7-.005l.355-.005a2.6,2.6,0,0,1,.352.01l.7.07.352.032.347.07.691.136c.229.043.449.134.675.195s.454.12.67.214l.648.27c.11.045.219.085.326.133l.309.168q.309.168.623.328c.2.117.392.256.592.382a10.514,10.514,0,0,1,1.127.841,4.84,4.84,0,0,1,.52.475l.5.489.454.539.229.267a3.141,3.141,0,0,1,.2.285,11.982,11.982,0,0,1,2.143,5.129l.08.7a5.532,5.532,0,0,1,.064.713c.03.491.024.982.005,1.473a15.211,15.211,0,0,1-.406,2.906,15.8,15.8,0,0,1-6.615,9.431,15.862,15.862,0,0,1-5.431,2.266,19.209,19.209,0,0,1-6.058.216A23.853,23.853,0,0,1,70.9,382.4a21.79,21.79,0,0,1-2.908-1.041,20.963,20.963,0,0,1-9.241-8.1,21.715,21.715,0,0,1-1.446-2.786,21.48,21.48,0,0,1-1.014-2.986,21.8,21.8,0,0,1-.555-3.119c-.049-.534-.083-1.078-.118-1.617l-.016-.811c-.005-.147-.011-.3-.011-.443-.01.059-.021.114-.032.174A23.728,23.728,0,0,0,55.119,366.206Z" transform="translate(-55.119 -343.088)" fill="#e2f7ad"/>
    <g id="Grupo_1056" data-name="Grupo 1056" transform="translate(6.315 1.994)">
      <path id="Trazado_13005" data-name="Trazado 13005" d="M97.315,339.4a23.761,23.761,0,1,1-28.3,37.245c7.9,4.243,22.267,7.267,31.356-5.633S102.8,345.651,97.315,339.4Z" transform="translate(-69.015 -339.402)" fill="#d6e5a8" opacity="0.5" style="mix-blend-mode: multiply;isolation: isolate"/>
      <path id="Trazado_13006" data-name="Trazado 13006" d="M82.307,382.326a23.927,23.927,0,0,0,8.739,1.087,23.589,23.589,0,0,0,9.381-2.585,23.9,23.9,0,0,0,6.948-5.409,23.749,23.749,0,0,0,3.308-26.577,23.709,23.709,0,0,0-7.855-8.836,23.753,23.753,0,1,1-24.647,40.551A23.566,23.566,0,0,0,82.307,382.326Z" transform="translate(-74.016 -339.732)" fill="#d6e5a8" style="mix-blend-mode: multiply;isolation: isolate"/>
    </g>
    <g id="Grupo_1057" data-name="Grupo 1057" transform="translate(1.868)">
      <path id="Trazado_13007" data-name="Trazado 13007" d="M69.123,367.625c3.5.214,4.446-3.226,13.736-11.721,8.128-7.433,11.251-8.315,11.171-11.354-.123-4.681-7.705-9.253-14.468-9.523-9.562-.381-20.081,7.736-20.329,17.581C59.059,359.566,64.015,367.312,69.123,367.625Z" transform="translate(-59.229 -335.014)" fill="#fff" opacity="0.2" style="mix-blend-mode: screen;isolation: isolate"/>
      <path id="Trazado_13008" data-name="Trazado 13008" d="M80.2,338.66c5.459-.058,11.4,2.576,11.074,4.5-.188,1.126-7.409.447-16.142,8.634-9.009,8.446-7.705,16.917-9.009,17.08-1.5.188-6.445-7.149-5.63-13.889C61.633,345.55,71.56,338.753,80.2,338.66Z" transform="translate(-59.87 -337.002)" fill="#fff" opacity="0.22" style="mix-blend-mode: screen;isolation: isolate"/>
      <path id="Trazado_13009" data-name="Trazado 13009" d="M62.257,353.627A21.419,21.419,0,0,1,82.583,339.4c2.753.009,9.087,1.907,3.79,1.889A25.405,25.405,0,0,0,63.415,356.15C62.332,358.439,61.422,356.017,62.257,353.627Z" transform="translate(-60.703 -337.408)" fill="#fff" opacity="0.25" style="mix-blend-mode: screen;isolation: isolate"/>
      <path id="Trazado_13010" data-name="Trazado 13010" d="M87.278,341.223c1.281-.152,3.817.251,2.878.626a37.19,37.19,0,0,0-8.884,4c-1.626,1-2.878-.187-2.127-1A16.7,16.7,0,0,1,87.278,341.223Z" transform="translate(-69.973 -338.383)" fill="#fff" style="mix-blend-mode: screen;isolation: isolate"/>
      <path id="Trazado_13011" data-name="Trazado 13011" d="M69.616,352.638c.454-.378,2.309.18,2,.438a20.171,20.171,0,0,0-5.944,7.758C64.173,364.15,65.111,356.392,69.616,352.638Z" transform="translate(-62.384 -344.56)" fill="#fff" style="mix-blend-mode: screen;isolation: isolate"/>
    </g>
  </g>
</svg>
