<svg xmlns="http://www.w3.org/2000/svg" xmlns:xlink="http://www.w3.org/1999/xlink" width="179.664" height="223.159" viewBox="0 0 179.664 223.159">
  <defs>
    <radialGradient id="radial-gradient" cx="0.5" cy="0.5" r="0.5" gradientTransform="matrix(0.998, -0.057, -0.057, -0.998, 0.029, 1.028)" gradientUnits="objectBoundingBox">
      <stop offset="0.283" stop-color="#732a5f"/>
      <stop offset="0.919" stop-color="#472056"/>
    </radialGradient>
  </defs>
  <g id="Grupo_15278" data-name="Grupo 15278" transform="translate(-31.322 -3.901)">
    <g id="Grupo_15041" data-name="Grupo 15041" transform="translate(31.322 49.303)">
      <path id="Trazado_15160" data-name="Trazado 15160" d="M400.134,150.219a43.049,43.049,0,0,1-10.829.044l-12.6,80.4a2.966,2.966,0,0,1-3.146.5,9.553,9.553,0,0,1-5.024-1.339L383.9,149.257a43.334,43.334,0,0,1-32.4-47.2c.09-1.05.2-2.1.368-3.16a44.6,44.6,0,1,1,48.273,51.318Z" transform="translate(-350.763 -53.693)" fill="#ba320d" opacity="0.26" style="mix-blend-mode: multiply;isolation: isolate"/>
      <g id="Grupo_15008" data-name="Grupo 15008" transform="translate(0 0)">
        <g id="Grupo_15002" data-name="Grupo 15002" transform="translate(20.929 84.31)">
          <path id="Trazado_15161" data-name="Trazado 15161" d="M447,182.867l-13.8,88.058a9.52,9.52,0,0,1-8.01-.813l16.788-88.033Z" transform="translate(-425.189 -182.079)" fill="#fff26f"/>
          <path id="Trazado_15162" data-name="Trazado 15162" d="M442.779,183.132l-13.8,88.058a2.823,2.823,0,0,1-4.038-.19l15.329-88.262Z" transform="translate(-420.805 -182.319)" fill="#f9d213"/>
        </g>
        <ellipse id="Elipse_250" data-name="Elipse 250" cx="44.601" cy="44.601" rx="44.601" ry="44.601" transform="translate(88.862 96.644) rotate(-174.995)" fill="#8a50dd"/>
        <ellipse id="Elipse_251" data-name="Elipse 251" cx="43.339" cy="43.339" rx="43.339" ry="43.339" transform="translate(87.7 95.506) rotate(-176.721)" opacity="0.31" fill="url(#radial-gradient)"/>
        <g id="Grupo_15003" data-name="Grupo 15003" transform="translate(5.843 4.833)">
          <path id="Trazado_15163" data-name="Trazado 15163" d="M392.617,142.254a33.152,33.152,0,0,0,15.905-5.629c12.019-3.586,21.241-13.562,24.741-26.811a42.1,42.1,0,0,0-10.523-40.383c-13.523-13.589-33.237-16.293-50.224-6.889a44.27,44.27,0,0,0-18.287,19.1,42.563,42.563,0,0,0-2.975,28.565c3.044,13.106,13.293,24.768,26.111,29.71A34.643,34.643,0,0,0,392.617,142.254Zm13.189-12.691c-11.09,3.06-21.259.533-28.635-7.118-7.685-7.971-10.875-20.384-7.758-30.185,1.842-5.792,6.617-13.187,18.911-15.525,10.99-2.089,22.107,3.793,25.847,13.688,2.358,6.24,2.479,12.426.337,17.42-4.059,9.468-14.535,12.361-22.784,10.325-6.7-1.653-13.573-7.053-12.768-17.249.48-6.077,6.643-12.551,15.047-12.5,3.194.02,8.631,1.243,9.16,9.213.257,3.866-2.794,6.2-5.735,7.09-2.916.884-6.547.575-8.1-2.11a1.892,1.892,0,0,1-.052-1.839,1.468,1.468,0,0,1,1.014-.856c1.073-.132,2.562.916,3.553,2.483a3.769,3.769,0,0,0,6.37-4.031c-2.623-4.145-6.761-6.417-10.816-5.936A8.917,8.917,0,0,0,382.54,97.4a9.454,9.454,0,0,0,.262,8.98c3.13,5.427,9.888,7.66,16.816,5.557,7.065-2.145,11.512-8.093,11.066-14.8-.651-9.814-7.18-16.193-16.634-16.252a24,24,0,0,0-14.643,5.125,20.176,20.176,0,0,0-7.964,14.317c-.97,12.276,6.283,22.152,18.476,25.16,11.337,2.8,25.8-1.344,31.518-14.672,2.913-6.795,2.837-14.983-.215-23.055-5.016-13.271-19.773-21.193-34.306-18.427-12.439,2.365-21.2,9.7-24.686,20.646-3.981,12.518-.156,27.669,9.515,37.7q.979,1.015,2.013,1.936c-7.45-4.914-13.226-12.77-15.164-21.11-4.5-19.385,6.652-33.322,17.571-39.367,13.961-7.73,30.147-5.526,41.231,5.612a34.093,34.093,0,0,1,8.578,33.141c-2.86,10.826-10.335,18.905-20.007,21.628C405.914,129.532,405.86,129.547,405.806,129.563Z" transform="translate(-350.05 -56.99)" fill="#4823a5"/>
        </g>
        <g id="Grupo_15004" data-name="Grupo 15004" transform="translate(5.849 6.495)">
          <path id="Trazado_15164" data-name="Trazado 15164" d="M350.068,99.147a6.447,6.447,0,0,0,6.182-4.37,42.348,42.348,0,0,1,4.711,19.67,23.663,23.663,0,0,1-7.87,4.765A34.31,34.31,0,0,0,350.068,99.147Z" transform="translate(-276.339 -72.43)" fill="#ae36ff"/>
          <path id="Trazado_15165" data-name="Trazado 15165" d="M418.851,87.394a23.966,23.966,0,0,0-13.012-1.346,11.053,11.053,0,0,0-5.275-6.511c1.145-.325,2.324-.608,3.542-.84a31.356,31.356,0,0,1,14.969.816A9.856,9.856,0,0,1,418.851,87.394Z" transform="translate(-367.247 -66.368)" fill="#ff80ff"/>
          <path id="Trazado_15166" data-name="Trazado 15166" d="M379.182,80.3a30.715,30.715,0,0,1,14.439,9.371,6.252,6.252,0,0,1-3.692,5.3l-1.585.126a22.668,22.668,0,0,0-9.386-6.917A9.856,9.856,0,0,0,379.182,80.3Z" transform="translate(-327.354 -67.15)" fill="#ae36ff"/>
          <path id="Trazado_15167" data-name="Trazado 15167" d="M368.394,100.471l1.585-.126a6.252,6.252,0,0,0,3.692-5.3,27.9,27.9,0,0,1,4.9,8.24,37.063,37.063,0,0,1,1.814,6.516,12.9,12.9,0,0,1-7.01,5.73,27.355,27.355,0,0,0-1.855-9.581A20.457,20.457,0,0,0,368.394,100.471Z" transform="translate(-307.404 -72.528)" fill="#ff80ff"/>
          <path id="Trazado_15168" data-name="Trazado 15168" d="M374.939,131.839a19.737,19.737,0,0,0,1.517-7.84,12.9,12.9,0,0,0,7.01-5.73,31.135,31.135,0,0,1,.261,9.769,26.255,26.255,0,0,1-1.86,6.771,25.116,25.116,0,0,1-4.328,6.84,24.39,24.39,0,0,1-2.684,2.581,14.044,14.044,0,0,1-7.295-4.1A17.277,17.277,0,0,0,374.939,131.839Z" transform="translate(-310.487 -80.997)" fill="#ae36ff"/>
          <path id="Trazado_15169" data-name="Trazado 15169" d="M415.181,146.822a17.692,17.692,0,0,0,9.473,5.753c.5.123,1.009.224,1.523.31a11.979,11.979,0,0,0,.843,7.7,28.439,28.439,0,0,1-4.172-.7,27.169,27.169,0,0,1-7.082-2.815C413.956,154.109,413.065,149.538,415.181,146.822Z" transform="translate(-382.986 -91.408)" fill="#ae36ff"/>
          <path id="Trazado_15170" data-name="Trazado 15170" d="M438.233,123.372a3.364,3.364,0,0,1,1.534.89,10.87,10.87,0,0,0-.506,2.486,15.62,15.62,0,0,0,3.295,11.5c-2.115,2.716-1.224,7.287.586,10.256a22.737,22.737,0,0,1-11.46-21.154C433.036,124.848,435.285,122.879,438.233,123.372Z" transform="translate(-410.36 -82.829)" fill="#ff80ff"/>
          <path id="Trazado_15171" data-name="Trazado 15171" d="M418.8,117.684a20.178,20.178,0,0,1,7.964-14.317,24.38,24.38,0,0,1,5.668-3.3c2.855,1.038,5.349,3.2,5.974,5.98a15.074,15.074,0,0,0-11.586,9.745,3.364,3.364,0,0,0-1.534-.89c-2.948-.494-5.2,1.475-6.552,3.973C418.753,118.48,418.773,118.084,418.8,117.684Z" transform="translate(-397.419 -74.359)" fill="#ae36ff"/>
          <path id="Trazado_15172" data-name="Trazado 15172" d="M406.42,97.2a16.693,16.693,0,0,1,10.528,3.5,8.577,8.577,0,0,1-3.982,6.532,9.137,9.137,0,0,0-6.593-2.5,15.784,15.784,0,0,0-2.954.267c-.625-2.782-3.119-4.942-5.974-5.98A23.184,23.184,0,0,1,406.42,97.2Z" transform="translate(-362.427 -73.312)" fill="#ff80ff"/>
          <path id="Trazado_15173" data-name="Trazado 15173" d="M403.428,122.632a15.305,15.305,0,0,1,.946,1.327,3.751,3.751,0,0,1,.56,1.62q-.069-.277-.118-.572C404.415,124.339,403.537,123.478,403.428,122.632Z" transform="translate(-354.215 -82.587)" fill="#ae36ff"/>
          <path id="Trazado_15174" data-name="Trazado 15174" d="M404.4,120.306a8.916,8.916,0,0,1,6.859-4.965,9.292,9.292,0,0,1,2.651.072,11.935,11.935,0,0,1,7.219,4.538c.109.846.987,1.707,1.389,2.374q.049.3.117.572a3.767,3.767,0,0,1-6.93,2.411,5.3,5.3,0,0,0-2.981-2.442,1.813,1.813,0,0,0-.572-.041,1.468,1.468,0,0,0-1.014.856,1.891,1.891,0,0,0,.052,1.838,4.88,4.88,0,0,0,2.784,2.187,8.118,8.118,0,0,0-.964,7.549,12.61,12.61,0,0,1-8.349-5.971A9.453,9.453,0,0,1,404.4,120.306Z" transform="translate(-371.92 -79.906)" fill="#ae36ff"/>
          <path id="Trazado_15175" data-name="Trazado 15175" d="M391.4,133.264a9.631,9.631,0,0,0,9.584-2.747,6.35,6.35,0,0,0,7.655,1.9A15.647,15.647,0,0,1,398.9,140.4a16.665,16.665,0,0,1-8.467.413A8.118,8.118,0,0,1,391.4,133.264Z" transform="translate(-349.343 -85.462)" fill="#ff80ff"/>
          <path id="Trazado_15176" data-name="Trazado 15176" d="M388.891,120.378a6.012,6.012,0,0,0,1.463-4.42,10.232,10.232,0,0,0-2.568-6.715,8.577,8.577,0,0,0,3.982-6.532c3.533,2.834,5.741,7.252,6.106,12.747a13.507,13.507,0,0,1-1.329,6.817A6.35,6.35,0,0,1,388.891,120.378Z" transform="translate(-337.248 -75.324)" fill="#ae36ff"/>
          <path id="Trazado_15177" data-name="Trazado 15177" d="M382.265,155.022a21.161,21.161,0,0,0,13.883-2.339,14.044,14.044,0,0,0,7.295,4.1,27.029,27.029,0,0,1-13.721,5.824c-.022-.126-.048-.251-.066-.38.018.129.044.254.066.38a29.723,29.723,0,0,1-6.614.123A11.979,11.979,0,0,1,382.265,155.022Z" transform="translate(-339.074 -93.545)" fill="#ff80ff"/>
          <path id="Trazado_15178" data-name="Trazado 15178" d="M439.714,80.334a11.053,11.053,0,0,1,5.275,6.511c-.109.019-.217.034-.325.055a25.822,25.822,0,0,0-12.924,6.047c-2.06-2.27-6.211-1.787-9.224-.853A30.626,30.626,0,0,1,439.714,80.334Z" transform="translate(-406.396 -67.164)" fill="#ae36ff"/>
          <path id="Trazado_15179" data-name="Trazado 15179" d="M444.625,106.441a29.7,29.7,0,0,1,3.946-8.046c3.014-.934,7.164-1.417,9.224.853a21.532,21.532,0,0,0-5.987,9.478,24.952,24.952,0,0,0-.959,4.443,6.183,6.183,0,0,0-7.48-1.04A32.788,32.788,0,0,1,444.625,106.441Z" transform="translate(-432.451 -73.465)" fill="#ff80ff"/>
          <path id="Trazado_15180" data-name="Trazado 15180" d="M446.679,164.376a26.445,26.445,0,0,1,2.225-10,37.456,37.456,0,0,0,8.506,10.05,27.8,27.8,0,0,0,2.7,10.814A43.912,43.912,0,0,1,446.679,164.376Z" transform="translate(-436.869 -94.162)" fill="#ff80ff"/>
          <path id="Trazado_15181" data-name="Trazado 15181" d="M428.818,151.995c-.393-.407-.773-.826-1.146-1.25a39.729,39.729,0,0,1-9.626-30.763,6.183,6.183,0,0,1,7.48,1.04,32.374,32.374,0,0,0,5.228,21.367,30.632,30.632,0,0,0,3.489,4.376,27.361,27.361,0,0,0,8.65,6.1c-.327,5.348,2.618,9.628,5.856,13.754a34.819,34.819,0,0,1-14.314-2.383,40.146,40.146,0,0,1-4.068-1.84,27.8,27.8,0,0,1-2.7-10.814,36.135,36.135,0,0,0,3.162,2.349Q429.8,153.01,428.818,151.995Z" transform="translate(-407.129 -81.318)" fill="#ae36ff"/>
          <path id="Trazado_15182" data-name="Trazado 15182" d="M389.434,172.212a28.342,28.342,0,0,0,16.51,1.8,15.731,15.731,0,0,0,7.352,5.908c-.385.13-.771.259-1.161.376a33.145,33.145,0,0,1-15.905,5.628c-.312.025-.626.031-.939.047C392.052,181.84,389.107,177.56,389.434,172.212Z" transform="translate(-353.668 -100.666)" fill="#ff80ff"/>
          <path id="Trazado_15183" data-name="Trazado 15183" d="M360.915,169.386c1.147-.2,2.305-.456,3.475-.778.054-.017.107-.031.162-.045a27.285,27.285,0,0,0,13.646-9.025,10.3,10.3,0,0,0,2.777,1.362,14.137,14.137,0,0,0,5.4.267,35.324,35.324,0,0,1-18.1,14.127A15.731,15.731,0,0,1,360.915,169.386Z" transform="translate(-308.64 -96.044)" fill="#ae36ff"/>
          <path id="Trazado_15184" data-name="Trazado 15184" d="M352.846,148.574a10.3,10.3,0,0,1-2.777-1.362,32.915,32.915,0,0,0,6.361-12.6,37,37,0,0,0,.833-4.108,23.663,23.663,0,0,0,7.87-4.765,42.978,42.978,0,0,1-1.416,10.8,41.273,41.273,0,0,1-5.476,12.308A14.137,14.137,0,0,1,352.846,148.574Z" transform="translate(-280.511 -83.719)" fill="#ff80ff"/>
          <path id="Trazado_15185" data-name="Trazado 15185" d="M360.34,70.95q.661.455,1.311.936a44.123,44.123,0,0,1,4.958,4.287,40.442,40.442,0,0,1,7.229,9.915,6.447,6.447,0,0,1-6.182,4.37,33.53,33.53,0,0,0-6.389-8.969,36.249,36.249,0,0,0-3.784-3.307A48.66,48.66,0,0,0,360.34,70.95Z" transform="translate(-293.925 -63.742)" fill="#ff80ff"/>
          <path id="Trazado_15186" data-name="Trazado 15186" d="M396.266,59.668a40.537,40.537,0,0,1,20.77,7.145,48.66,48.66,0,0,1-2.857,7.233,33.314,33.314,0,0,0-27.889-6c-1.305-2.909-4.166-4.662-7.564-5.542A41.971,41.971,0,0,1,396.266,59.668Z" transform="translate(-350.622 -59.605)" fill="#ae36ff"/>
          <path id="Trazado_15187" data-name="Trazado 15187" d="M464.315,133.681a10.015,10.015,0,0,1,7.424-1.438,39.638,39.638,0,0,0,.857,5.282,32.05,32.05,0,0,0,3.5,8.71,26.444,26.444,0,0,0-2.225,10,41.5,41.5,0,0,1-8.613-17.006A46.622,46.622,0,0,1,464.315,133.681Z" transform="translate(-464.057 -86.021)" fill="#ae36ff"/>
          <path id="Trazado_15188" data-name="Trazado 15188" d="M469.888,106.543a14.183,14.183,0,0,1,7.748.7,33.919,33.919,0,0,0-2.112,15.608,10.015,10.015,0,0,0-7.424,1.438A42.313,42.313,0,0,1,469.888,106.543Z" transform="translate(-467.842 -76.631)" fill="#ff80ff"/>
          <path id="Trazado_15189" data-name="Trazado 15189" d="M448.95,90.906a43.4,43.4,0,0,1,9.818-13.018,15.562,15.562,0,0,1,9.158,2.348,36.6,36.6,0,0,0-13.354,16.64,14.182,14.182,0,0,0-7.748-.7A41.231,41.231,0,0,1,448.95,90.906Z" transform="translate(-444.778 -66.263)" fill="#ae36ff"/>
          <path id="Trazado_15190" data-name="Trazado 15190" d="M435.586,66.814a45.828,45.828,0,0,1,5.646-2.638c3.4.879,6.259,2.633,7.564,5.542a36.807,36.807,0,0,0-9.559,3.69c-.989.548-1.98,1.163-2.962,1.838a15.562,15.562,0,0,0-9.158-2.348A44.858,44.858,0,0,1,435.586,66.814Z" transform="translate(-413.127 -61.272)" fill="#ff80ff"/>
        </g>
        <path id="Trazado_15191" data-name="Trazado 15191" d="M373.25,83.225c-.128,1.622-2.484,7.455-3.137,8.876-21.342,46.457,34.206,74.918,70.058,40.336-8.3,15.308-26.363,22.134-44.064,19.359-22.661-3.552-36.889-23.015-33.223-46.4A43.64,43.64,0,0,1,373.25,83.225Z" transform="translate(-357.478 -61.723)" fill="#eeceef" opacity="0.36" style="mix-blend-mode: hard-light;isolation: isolate"/>
        <g id="Grupo_15007" data-name="Grupo 15007" transform="translate(7.529 13.703)" opacity="0.73" style="mix-blend-mode: hard-light;isolation: isolate">
          <g id="Grupo_15005" data-name="Grupo 15005" transform="translate(0 34.543)" opacity="0.68" style="mix-blend-mode: hard-light;isolation: isolate">
            <path id="Trazado_15192" data-name="Trazado 15192" d="M476.776,126.574a26.246,26.246,0,0,0,1.14,12.137c.731,2.117-2.532,3.439-3.229,1.31a21.752,21.752,0,0,1-.025-14.036c.4-1.214,2.28-.629,2.114.588Z" transform="translate(-473.511 -125.317)" fill="#eacee5"/>
          </g>
          <path id="Trazado_15193" data-name="Trazado 15193" d="M356.053,70.95c2.116,1.25,4.191,2.522,6.146,3.951a45.383,45.383,0,0,1,5.462,4.693,35.026,35.026,0,0,1,9.682,18.636,42.4,42.4,0,0,1,.678,7.115,56.765,56.765,0,0,1-1.832,14.375,39.447,39.447,0,0,0,3.549-14.337,37.123,37.123,0,0,0-.339-7.495,34.931,34.931,0,0,0-1.943-7.29,31.885,31.885,0,0,0-8.617-12.245A36.969,36.969,0,0,0,362.783,74,42.737,42.737,0,0,0,356.053,70.95Z" transform="translate(-300.66 -70.95)" fill="#eacee5"/>
          <path id="Trazado_15194" data-name="Trazado 15194" d="M390.884,123.279a29.354,29.354,0,0,1-2.09,7.609,29.019,29.019,0,0,1-9.5,11.926,29.505,29.505,0,0,1-6.945,3.745,17.323,17.323,0,0,0,7.876-2.287,21.907,21.907,0,0,0,10.191-12.807A17.37,17.37,0,0,0,390.884,123.279Z" transform="translate(-322.394 -90.031)" fill="#eacee5"/>
          <path id="Trazado_15195" data-name="Trazado 15195" d="M393.987,107.009a16.013,16.013,0,0,1,2.951,5.317,12.62,12.62,0,0,1,.557,2.837,12.006,12.006,0,0,1-.153,2.827,13.273,13.273,0,0,1-2.253,5.273,14.29,14.29,0,0,1-4.469,4.086,9.638,9.638,0,0,0,5.793-2.973,11.594,11.594,0,0,0,3.095-6,11.342,11.342,0,0,0,.056-3.457,10.949,10.949,0,0,0-1.031-3.249A10.3,10.3,0,0,0,393.987,107.009Z" transform="translate(-342.494 -84.098)" fill="#eacee5"/>
          <path id="Trazado_15196" data-name="Trazado 15196" d="M438.495,105.925a7.05,7.05,0,0,0-4.055,1.018,9.61,9.61,0,0,0-4.618,6.949,7.019,7.019,0,0,0,.638,4.133,20.07,20.07,0,0,1,1.042-3.719,17.3,17.3,0,0,1,1.668-3.2,17.071,17.071,0,0,1,2.3-2.781A19.86,19.86,0,0,1,438.495,105.925Z" transform="translate(-406.182 -83.696)" fill="#eacee5"/>
          <path id="Trazado_15197" data-name="Trazado 15197" d="M455.348,94.062a13.879,13.879,0,0,0-5.066,4.09,22.814,22.814,0,0,0-3.266,5.739,32.4,32.4,0,0,0-1.816,6.348,34.788,34.788,0,0,0-.583,6.59,31.112,31.112,0,0,0,2.831,12.877,26.51,26.51,0,0,0,1.615,2.9,23.382,23.382,0,0,0,2.024,2.626,17.25,17.25,0,0,0,5.185,3.959,23.91,23.91,0,0,1-7.2-10.187,33,33,0,0,1-1.661-6,37.692,37.692,0,0,1-.619-6.2,40.3,40.3,0,0,1,1.78-12.347,25.938,25.938,0,0,1,2.547-5.711A16.089,16.089,0,0,1,455.348,94.062Z" transform="translate(-433.403 -79.377)" fill="#eacee5"/>
          <path id="Trazado_15198" data-name="Trazado 15198" d="M454.664,73.046a8.877,8.877,0,0,0-3.172.941,12.45,12.45,0,0,0-2.7,1.834,12.317,12.317,0,0,0-2.14,2.47,8.8,8.8,0,0,0-1.3,3.042,24.035,24.035,0,0,0,2.6-1.891c.8-.651,1.559-1.306,2.31-1.976s1.491-1.351,2.23-2.065A24.688,24.688,0,0,0,454.664,73.046Z" transform="translate(-432.256 -71.714)" fill="#eacee5"/>
          <g id="Grupo_15006" data-name="Grupo 15006" transform="translate(37.412 18.893)">
            <path id="Trazado_15199" data-name="Trazado 15199" d="M414.019,104.412c-2.747-.952-5.327-.337-7.957.647a1.494,1.494,0,0,1-1.473-2.451c2.931-2.761,7.393-2.362,10.411.019a1.06,1.06,0,0,1-.981,1.785Z" transform="translate(-404.187 -100.687)" fill="#eacee5"/>
          </g>
        </g>
      </g>
    </g>
    <g id="Grupo_15042" data-name="Grupo 15042" transform="translate(127.966 3.901)">
      <path id="Trazado_15200" data-name="Trazado 15200" d="M385.748,70.231A24.27,24.27,0,0,1,364.607,43.2c1.823-14.9,13.536-22.794,27.035-21.143a24.268,24.268,0,0,1-5.894,48.178Z" transform="translate(-357.378 -1.608)" fill="#ba320d" opacity="0.26" style="mix-blend-mode: multiply;isolation: isolate"/>
      <g id="Grupo_15014" data-name="Grupo 15014" transform="translate(0 0)">
        <path id="Trazado_15201" data-name="Trazado 15201" d="M385.748,62.226a24.268,24.268,0,0,0,5.894-48.178c-13.5-1.651-25.212,6.241-27.035,21.143A24.27,24.27,0,0,0,385.748,62.226Z" transform="translate(-357.378 -6.819)" fill="#e06f15"/>
        <ellipse id="Elipse_252" data-name="Elipse 252" cx="22.213" cy="22.213" rx="22.213" ry="22.213" transform="translate(33.782 62.635) rotate(-139.499)" fill="#fd9644"/>
        <path id="Trazado_15202" data-name="Trazado 15202" d="M409.816,28.159A22.282,22.282,0,0,1,407.247,39.2c-12.335,3.018-27.014.566-38.99.5a22.151,22.151,0,0,1-2.587-7.431C380.951,34.588,396.892,34.391,409.816,28.159Z" transform="translate(-356.293 2.507)" fill="#fd7912"/>
        <path id="Trazado_15203" data-name="Trazado 15203" d="M408.986,29.739c-.021.246-.031.492-.063.74a22.126,22.126,0,0,1-2.412,7.69c-12.335,3.018-27.857,4.26-38.99.5a22.2,22.2,0,0,1-1.788-4.1A88.3,88.3,0,0,0,408.986,29.739Z" transform="translate(-355.557 3.536)" fill="#fd7912"/>
        <path id="Trazado_15204" data-name="Trazado 15204" d="M409.818,28.159a22.338,22.338,0,0,1-.094,2.609A88.3,88.3,0,0,1,366.471,35.6a21.887,21.887,0,0,1-.8-3.333C380.952,34.588,396.894,34.391,409.818,28.159Z" transform="translate(-356.294 2.507)" fill="#fa862d"/>
        <path id="Trazado_15205" data-name="Trazado 15205" d="M378.687,15.265a22.214,22.214,0,0,1,19.508,21.4,47.85,47.85,0,0,1-4.785,1.989c-4.3-10.611-15.607-18.04-27.735-21.009A22.1,22.1,0,0,1,378.687,15.265Z" transform="translate(-344.672 -5.995)" fill="#fed7b8" opacity="0.44" style="mix-blend-mode: hard-light;isolation: isolate"/>
        <g id="Grupo_15013" data-name="Grupo 15013" transform="translate(33.285 12.315)">
          <g id="Grupo_15010" data-name="Grupo 15010" transform="translate(8.994 5.408)" opacity="0.94" style="mix-blend-mode: hard-light;isolation: isolate">
            <path id="Trazado_15206" data-name="Trazado 15206" d="M374.527,32.163a39.793,39.793,0,0,0-3.11-5.556c-1.308-1.707-3.218-2.792-4.507-4.471-.67-.873.395-2.006,1.326-1.791,2.285.527,4.132,2.82,5.44,4.639a12.234,12.234,0,0,1,2.579,6.688.937.937,0,0,1-1.727.49Z" transform="translate(-366.699 -20.319)" fill="#fed7b8"/>
          </g>
          <g id="Grupo_15011" data-name="Grupo 15011" transform="translate(4.481 1.806)" opacity="0.94" style="mix-blend-mode: hard-light;isolation: isolate">
            <path id="Trazado_15207" data-name="Trazado 15207" d="M375.716,21.272a2.6,2.6,0,0,1-1.265-.48,4.611,4.611,0,0,1-1.032-.814,1.074,1.074,0,0,1,1.255-1.719,4.643,4.643,0,0,1,1.065.769,2.687,2.687,0,0,1,.826,1.111.9.9,0,0,1-.849,1.133Z" transform="translate(-373.095 -18.138)" fill="#fed7b8"/>
          </g>
          <g id="Grupo_15012" data-name="Grupo 15012" transform="translate(0)" opacity="0.94" style="mix-blend-mode: hard-light;isolation: isolate">
            <path id="Trazado_15208" data-name="Trazado 15208" d="M378.325,18.773a1.5,1.5,0,0,0-.614-.292,2.7,2.7,0,0,0-.383.025,2.313,2.313,0,0,1-.474-.069.7.7,0,0,1-.522-.761.716.716,0,0,1,.684-.622,1.522,1.522,0,0,1,1.106.378,3.216,3.216,0,0,1,.725.627.458.458,0,0,1,.049.584.441.441,0,0,1-.571.13Z" transform="translate(-376.327 -17.044)" fill="#fed7b8"/>
          </g>
        </g>
      </g>
    </g>
    <g id="Grupo_15043" data-name="Grupo 15043" transform="translate(170.217 111.913)">
      <ellipse id="Elipse_253" data-name="Elipse 253" cx="18.907" cy="18.907" rx="18.907" ry="18.907" transform="translate(3.082 52.537) rotate(-94.675)" fill="#ba320d" opacity="0.26" style="mix-blend-mode: multiply;isolation: isolate"/>
      <g id="Grupo_15020" data-name="Grupo 15020" transform="translate(1.477 0)">
        <path id="Trazado_15209" data-name="Trazado 15209" d="M477.3,63.9a18.907,18.907,0,0,0,4.591-37.534c-10.517-1.286-19.642,4.862-21.062,16.472A18.9,18.9,0,0,0,477.3,63.9Z" transform="translate(-460.689 -26.199)" fill="#f06253"/>
        <path id="Trazado_15210" data-name="Trazado 15210" d="M476.865,61.671a17.306,17.306,0,1,0-15.077-19.279A17.305,17.305,0,0,0,476.865,61.671Z" transform="translate(-460.058 -25.557)" fill="#ff9c92"/>
        <path id="Trazado_15211" data-name="Trazado 15211" d="M496.052,37.361a17.349,17.349,0,0,1-2,8.6c-9.609,2.351-21.045.441-30.375.393a17.235,17.235,0,0,1-2.016-5.79C473.562,42.37,485.983,42.217,496.052,37.361Z" transform="translate(-459.844 -18.933)" fill="#f55545"/>
        <path id="Trazado_15212" data-name="Trazado 15212" d="M495.405,38.592c-.018.192-.026.383-.049.576a17.243,17.243,0,0,1-1.88,5.991c-9.609,2.351-21.7,3.319-30.375.393a17.236,17.236,0,0,1-1.393-3.193A68.782,68.782,0,0,0,495.405,38.592Z" transform="translate(-459.27 -18.131)" fill="#f55545"/>
        <path id="Trazado_15213" data-name="Trazado 15213" d="M496.053,37.361a17.531,17.531,0,0,1-.073,2.032,68.782,68.782,0,0,1-33.7,3.768,17.1,17.1,0,0,1-.622-2.6C473.563,42.37,485.983,42.217,496.053,37.361Z" transform="translate(-459.845 -18.933)" fill="#ff7164"/>
        <path id="Trazado_15214" data-name="Trazado 15214" d="M471.8,27.315A17.308,17.308,0,0,1,487,43.985a37.232,37.232,0,0,1-3.728,1.55c-3.353-8.267-12.16-14.055-21.608-16.368A17.225,17.225,0,0,1,471.8,27.315Z" transform="translate(-450.791 -25.557)" fill="#ffc6c0" opacity="0.44" style="mix-blend-mode: hard-light;isolation: isolate"/>
        <g id="Grupo_15019" data-name="Grupo 15019" transform="translate(20.44 4.131)">
          <g id="Grupo_15016" data-name="Grupo 15016" transform="translate(7.007 4.213)" opacity="0.94" style="mix-blend-mode: hard-light;isolation: isolate">
            <path id="Trazado_15215" data-name="Trazado 15215" d="M468.559,40.481a31.12,31.12,0,0,0-2.424-4.327c-1.019-1.331-2.506-2.176-3.512-3.485-.522-.679.309-1.562,1.034-1.4,1.78.411,3.219,2.2,4.238,3.614A9.539,9.539,0,0,1,469.9,40.1a.73.73,0,0,1-1.346.381Z" transform="translate(-462.46 -31.253)" fill="#ffc6c0"/>
          </g>
          <g id="Grupo_15017" data-name="Grupo 15017" transform="translate(3.491 1.408)" opacity="0.94" style="mix-blend-mode: hard-light;isolation: isolate">
            <path id="Trazado_15216" data-name="Trazado 15216" d="M469.485,31.994a2.017,2.017,0,0,1-.984-.373,3.615,3.615,0,0,1-.806-.634.838.838,0,0,1,.979-1.339,3.559,3.559,0,0,1,.829.6,2.081,2.081,0,0,1,.644.865.7.7,0,0,1-.662.882Z" transform="translate(-467.443 -29.554)" fill="#ffc6c0"/>
          </g>
          <g id="Grupo_15018" data-name="Grupo 15018" transform="translate(0)" opacity="0.94" style="mix-blend-mode: hard-light;isolation: isolate">
            <path id="Trazado_15217" data-name="Trazado 15217" d="M471.517,30.048a1.158,1.158,0,0,0-.479-.228,2.246,2.246,0,0,0-.3.02,1.98,1.98,0,0,1-.368-.053.547.547,0,0,1-.408-.594.559.559,0,0,1,.533-.485,1.193,1.193,0,0,1,.862.3,2.5,2.5,0,0,1,.565.489.358.358,0,0,1,.038.456.344.344,0,0,1-.446.1Z" transform="translate(-469.961 -28.701)" fill="#ffc6c0"/>
          </g>
        </g>
      </g>
    </g>
  </g>
</svg>
