<svg id="Grupo_15294" data-name="Grupo 15294" xmlns="http://www.w3.org/2000/svg" xmlns:xlink="http://www.w3.org/1999/xlink" width="83.803" height="82.715" viewBox="0 0 83.803 82.715">
  <defs>
    <linearGradient id="linear-gradient" x1="0.307" y1="0.057" x2="1.167" y2="0.944" gradientUnits="objectBoundingBox">
      <stop offset="0" stop-color="#e9863a"/>
      <stop offset="1" stop-color="#ea9537"/>
    </linearGradient>
    <linearGradient id="linear-gradient-2" x1="0.47" y1="0.516" x2="1.533" y2="0.516" gradientUnits="objectBoundingBox">
      <stop offset="0" stop-color="#ea9537"/>
      <stop offset="1" stop-color="#ea9537"/>
    </linearGradient>
  </defs>
  <g id="Grupo_15290" data-name="Grupo 15290" transform="translate(0 0)">
    <path id="Trazado_15549" data-name="Trazado 15549" d="M886.676,654.69c-9.185-6.73-21.719-60.024-18.742-64.521s62.107-19.982,65.689-17.25,21.721,60.023,16.837,65.774S891.759,658.415,886.676,654.69Z" transform="translate(-867.487 -572.598)" fill="#f5ad4f"/>
    <path id="Trazado_15550" data-name="Trazado 15550" d="M891.333,612.012c1.64-3.306,53.3-17.281,56.574-14.973s16.259,52.349,13.225,56.1-49.964,17.426-54.7,14.427S889.236,616.24,891.333,612.012Z" transform="translate(-885.241 -590.784)" fill="url(#linear-gradient)"/>
    <path id="Trazado_15551" data-name="Trazado 15551" d="M900.159,620.023c1.538-3.1,50-16.211,53.074-14.047s15.254,49.111,12.407,52.633-46.873,16.348-51.319,13.534S898.193,623.989,900.159,620.023Z" transform="translate(-891.889 -597.517)" fill="#fed580"/>
    <path id="Trazado_15552" data-name="Trazado 15552" d="M891.332,616c-2.02,4.071,9.457,49.045,14.54,55.038-2.313-8.114-12.941-48.432-10.437-52.849,2.17-3.824,30.8-12.914,41.689-16.1C920.981,605.311,892.543,613.557,891.332,616Z" transform="translate(-885.24 -594.769)" opacity="0.7" fill="url(#linear-gradient-2)" style="mix-blend-mode: multiply;isolation: isolate"/>
    <path id="Trazado_15553" data-name="Trazado 15553" d="M1017.319,596.657s15.746,51.167,10.471,58.089c-5.463,7.165-52.888,18.425-52.888,18.425,16.234-1.655,52.367-11.723,56.33-16.387C1035.283,652.016,1023.5,611.81,1017.319,596.657Z" transform="translate(-948.259 -590.689)" fill="#bc7431" opacity="0.3" style="mix-blend-mode: multiply;isolation: isolate"/>
    <path id="Trazado_15554" data-name="Trazado 15554" d="M1134.78,631.954c4.528,13.845,10.833,40.252,9.965,46.5,1.144-1.266,1.693-7.079-.737-19.034C1140.7,643.131,1136.671,635.4,1134.78,631.954Z" transform="translate(-1068.48 -617.231)" fill="#fed580"/>
  </g>
  <g id="Grupo_15293" data-name="Grupo 15293" transform="translate(20.976 21.935)">
    <g id="Grupo_15291" data-name="Grupo 15291">
      <path id="Trazado_15555" data-name="Trazado 15555" d="M960.724,686.5c-1.43,0-4.291-.8-4.85-2.3-.488-1.361,1.675-5.792,2.407-7.187-1.779-.663-7.606-3.35-5.931-9.874,1.116-4.222,6.141-6.106,10.153-6.106a12.514,12.514,0,0,1,4.466.768c3.21,1.221,5.338,3.908,4.152,7.92a60.885,60.885,0,0,1-6.35,14.479A4.528,4.528,0,0,1,960.724,686.5Zm-.314-15.6a2.776,2.776,0,0,0,2.407-1.919.977.977,0,0,0-.419-.907,2.424,2.424,0,0,0-1.081-.279,3.2,3.2,0,0,0-2.407,1.326.835.835,0,0,0-.07.489A1.937,1.937,0,0,0,960.41,670.9Zm3.489-5.513a6.449,6.449,0,0,0,5.129,3.245c1.151,0,1.884-.628,1.43-2.094-.628-1.988-3-4.152-5.2-4.152a2.8,2.8,0,0,0-1.5.349C962.888,663.369,963.55,664.694,963.9,665.392Z" transform="translate(-952.052 -661.031)" fill="#723219"/>
      <path id="Trazado_15556" data-name="Trazado 15556" d="M1043.289,686.5c-1.431,0-4.292-.8-4.85-2.3-.488-1.361,1.675-5.792,2.407-7.187-1.779-.663-7.606-3.35-5.931-9.874,1.116-4.222,6.141-6.106,10.153-6.106a12.516,12.516,0,0,1,4.466.768c3.209,1.221,5.338,3.908,4.152,7.92a60.879,60.879,0,0,1-6.35,14.479A4.529,4.529,0,0,1,1043.289,686.5Zm-.314-15.6a2.776,2.776,0,0,0,2.407-1.919.977.977,0,0,0-.419-.907,2.425,2.425,0,0,0-1.081-.279,3.2,3.2,0,0,0-2.407,1.326.837.837,0,0,0-.07.489A1.937,1.937,0,0,0,1042.975,670.9Zm3.489-5.513a6.448,6.448,0,0,0,5.129,3.245c1.151,0,1.884-.628,1.43-2.094-.628-1.988-3-4.152-5.2-4.152a2.8,2.8,0,0,0-1.5.349C1045.453,663.369,1046.115,664.694,1046.464,665.392Z" transform="translate(-1014.137 -661.031)" fill="#723219"/>
    </g>
    <g id="Grupo_15292" data-name="Grupo 15292" transform="translate(2.639 32.877)">
      <path id="Trazado_15557" data-name="Trazado 15557" d="M963.567,802c-1.148-1.547-1.324-7.066.445-8.156a2.079,2.079,0,0,1,1.125-.27c.586,0,1.523.2,1.758.82a5.742,5.742,0,0,1-.164,2.449,2.321,2.321,0,0,1,.668-.105,2.142,2.142,0,0,1,.586.082,4.807,4.807,0,0,1-.07-2.379c.164-.621.938-.785,1.5-.785,3.422,0,3.668,7.921,1.383,8.964a2.94,2.94,0,0,1-1.2.223,4.109,4.109,0,0,1-.879-.094c-1.16-.269-.785-2.7-.7-3.3a2.469,2.469,0,0,0-.551-.047,2.093,2.093,0,0,0-.422.035c.188,1.558.586,3.375-1.277,3.375A2.531,2.531,0,0,1,963.567,802Zm-.4-5.93c-.047.375.07.527.269.527.68,0,1.641-1.254,1.77-1.828.164-.668-.117-.891-.445-.891a1.045,1.045,0,0,0-.656.258A2.975,2.975,0,0,0,963.168,796.074Z" transform="translate(-962.693 -793.578)" fill="#723219"/>
      <path id="Trazado_15558" data-name="Trazado 15558" d="M1009.955,807.921a3.739,3.739,0,0,1-3.926,2.812,2.562,2.562,0,0,1-2.7-1.664,3.345,3.345,0,0,1-.141-1.184,3.662,3.662,0,0,1,3.469-3.785c.141-.012.269-.023.41-.023.082,0,.164-.012.246-.012a2.54,2.54,0,0,1,2.8,2.3A3.756,3.756,0,0,1,1009.955,807.921Zm-3.926-.5c-.2.527.246.691.586.691h.07c.574-.035,1.019-1.324.234-1.406a.7.7,0,0,0-.258.035A1.067,1.067,0,0,0,1006.029,807.417Zm1.547-1.8a1.939,1.939,0,0,0,1.57.938.7.7,0,0,0,.34-.07c.539-.293-.14-1.418-.961-1.828a1.249,1.249,0,0,0-.562-.141.758.758,0,0,0-.316.058C1007.377,804.675,1007.236,804.98,1007.576,805.613Z" transform="translate(-993.144 -801.464)" fill="#723219"/>
      <path id="Trazado_15559" data-name="Trazado 15559" d="M1035.747,808.3a.921.921,0,0,0-.844.422,12.232,12.232,0,0,0-.164,2.637c-.047.387-.41.551-.832.551a1.522,1.522,0,0,1-1.184-.492c-.4-.574-.234-3.4-.129-4.043.106-.621.352-1.746,1.125-1.746a.259.259,0,0,1,.094.012,1.1,1.1,0,0,1,1,.773,1.536,1.536,0,0,1,1.324-.68,1.976,1.976,0,0,1,.855.187,1.4,1.4,0,0,1,.8,1.605c-.105.527-.387.949-.973.949a1.539,1.539,0,0,1-.492-.082A2.03,2.03,0,0,0,1035.747,808.3Zm.809-2.238c-.187,0-.293.141-.129.5a1.337,1.337,0,0,0,.973.68c.176,0,.27-.106.188-.352A1.341,1.341,0,0,0,1036.555,806.059Z" transform="translate(-1015.162 -802.637)" fill="#723219"/>
      <path id="Trazado_15560" data-name="Trazado 15560" d="M1059.321,811.027a2.937,2.937,0,0,1-2.1.914,1.925,1.925,0,0,1-1.863-1.207,3.2,3.2,0,0,1-.129-1.933,3.982,3.982,0,0,1,3.586-3.129,2.323,2.323,0,0,1,1.078.258,2.838,2.838,0,0,1,1.207,3.105,3.249,3.249,0,0,1,.832,1.57.5.5,0,0,1,0,.188,1.486,1.486,0,0,1-1.371,1.031A1.363,1.363,0,0,1,1059.321,811.027Zm-1.383-1.641H1058c.551-.035.984-1.265.234-1.359a.7.7,0,0,0-.258.035,1.052,1.052,0,0,0-.609.656C1057.177,809.234,1057.6,809.387,1057.938,809.387Zm2.367-1.664a.8.8,0,0,0,.258.047c.633,0,.07-1.219-.668-1.652a1.263,1.263,0,0,0-.574-.176c-.34,0-.422.3-.352.563A1.988,1.988,0,0,0,1060.305,807.723Z" transform="translate(-1032.209 -802.672)" fill="#723219"/>
      <path id="Trazado_15561" data-name="Trazado 15561" d="M1088.089,808.765a2.023,2.023,0,0,1-1.019,2.894,4.786,4.786,0,0,1-1.3.176c-.9,0-1.781-.269-1.828-1.336a1.4,1.4,0,0,1,.07-.551.781.781,0,0,1,.75-.527,1.342,1.342,0,0,1,.293.035h.012a3.332,3.332,0,0,1,.445.2,3.054,3.054,0,0,0,.668.258h.023c.07,0,.117-.023.117-.105.023-.187-.281-.3-.68-.457-.785-.281-1.5-.574-1.629-1.523a2.034,2.034,0,0,1,.058-.832,2.412,2.412,0,0,1,2.566-1.465c.832,0,1.676.234,1.816,1.183a1.292,1.292,0,0,1-.035.563.741.741,0,0,1-.738.574.39.39,0,0,1-.117-.012,4.982,4.982,0,0,1-.586-.14,4.308,4.308,0,0,0-.914-.246h-.047c-.152.024-.187.2-.059.258C1086.331,807.9,1087.561,808.062,1088.089,808.765Zm-3.633-1.512a1.619,1.619,0,0,0,.609-.2,1.828,1.828,0,0,0,.715-.621c.141-.2.176-.574-.2-.574a1.017,1.017,0,0,0-.516.153C1084.491,806.363,1083.952,807.253,1084.456,807.253Z" transform="translate(-1053.864 -802.566)" fill="#723219"/>
    </g>
  </g>
</svg>
