<svg id="Grupo_1026" data-name="Grupo 1026" xmlns="http://www.w3.org/2000/svg" width="40.577" height="40.578" viewBox="0 0 40.577 40.578">
  <path id="Trazado_12888" data-name="Trazado 12888" d="M55.119,227.026a20.35,20.35,0,0,0,.3,3.479,20.146,20.146,0,0,0,3.073,7.723,20.411,20.411,0,0,0,5.243,5.394,20.2,20.2,0,0,0,7.63,3.29,20.45,20.45,0,0,0,7.523.1,20.15,20.15,0,0,0,7.723-3.073A20.412,20.412,0,0,0,92,238.7a20.29,20.29,0,0,0-27.8-28.591,20.421,20.421,0,0,0-5.393,5.243,20.217,20.217,0,0,0-3.693,11.674Z" transform="translate(-55.119 -206.737)" fill="#7021cc"/>
  <g id="Grupo_1025" data-name="Grupo 1025" transform="translate(0)">
    <g id="Grupo_1024" data-name="Grupo 1024" transform="translate(0 0)">
      <g id="Grupo_1023" data-name="Grupo 1023">
        <g id="Grupo_1015" data-name="Grupo 1015" transform="translate(14.093)">
          <path id="Trazado_12889" data-name="Trazado 12889" d="M95.54,225.291a14.03,14.03,0,0,0,2.015,1.674,14.083,14.083,0,0,1,4.106-19.824,20.438,20.438,0,0,0-7.523-.105A14.064,14.064,0,0,0,95.54,225.291Z" transform="translate(-91.421 -206.737)" fill="#ddc7ff"/>
        </g>
        <g id="Grupo_1016" data-name="Grupo 1016" transform="translate(20.047 3.693)">
          <path id="Trazado_12890" data-name="Trazado 12890" d="M106.759,230.152A14.049,14.049,0,0,0,107,232.76a14.079,14.079,0,0,1,16.917-11.115,20.411,20.411,0,0,0-5.243-5.394A14.068,14.068,0,0,0,106.759,230.152Z" transform="translate(-106.759 -216.251)" fill="#ddc7ff"/>
        </g>
        <g id="Grupo_1017" data-name="Grupo 1017" transform="translate(20.35 14.093)">
          <path id="Trazado_12891" data-name="Trazado 12891" d="M107.54,249.174a14.084,14.084,0,0,1,19.824,4.106,20.45,20.45,0,0,0,.1-7.523,14.077,14.077,0,0,0-19.928,3.417Z" transform="translate(-107.54 -243.04)" fill="#ddc7ff"/>
        </g>
        <g id="Grupo_1018" data-name="Grupo 1018" transform="translate(20.375 20.047)">
          <path id="Trazado_12892" data-name="Trazado 12892" d="M119.061,272.44a14.115,14.115,0,0,1-.342,3.1,20.412,20.412,0,0,0,5.394-5.243,14.078,14.078,0,0,0-16.51-11.674A14.067,14.067,0,0,1,119.061,272.44Z" transform="translate(-107.604 -258.377)" fill="#ddc7ff"/>
        </g>
        <g id="Grupo_1019" data-name="Grupo 1019" transform="translate(16.244 20.35)">
          <path id="Trazado_12893" data-name="Trazado 12893" d="M96.964,278.982a20.451,20.451,0,0,0,7.523.1,14.078,14.078,0,0,0-3.417-19.929,14.086,14.086,0,0,1-4.106,19.824Z" transform="translate(-96.964 -259.158)" fill="#ddc7ff"/>
        </g>
        <g id="Grupo_1020" data-name="Grupo 1020" transform="translate(3.372 20.375)">
          <path id="Trazado_12894" data-name="Trazado 12894" d="M63.8,270.338a20.412,20.412,0,0,0,5.243,5.394,14.08,14.08,0,0,0,11.674-16.509A14.079,14.079,0,0,1,63.8,270.338Z" transform="translate(-63.804 -259.223)" fill="#ddc7ff"/>
        </g>
        <g id="Grupo_1021" data-name="Grupo 1021" transform="translate(0 16.245)">
          <path id="Trazado_12895" data-name="Trazado 12895" d="M55.119,252.627a20.35,20.35,0,0,0,.3,3.479,14.075,14.075,0,0,0,19.928-3.417,14.084,14.084,0,0,1-19.824-4.105A20.378,20.378,0,0,0,55.119,252.627Z" transform="translate(-55.119 -248.583)" fill="#ddc7ff"/>
        </g>
        <g id="Grupo_1022" data-name="Grupo 1022" transform="translate(3.693 3.372)">
          <path id="Trazado_12896" data-name="Trazado 12896" d="M64.632,220.665a14.078,14.078,0,0,0,16.509,11.674,14.081,14.081,0,0,1-11.115-16.917A20.422,20.422,0,0,0,64.632,220.665Z" transform="translate(-64.632 -215.422)" fill="#ddc7ff"/>
        </g>
      </g>
    </g>
    <path id="Trazado_12897" data-name="Trazado 12897" d="M97.692,253.072a3.761,3.761,0,1,0,3.762-3.762A3.762,3.762,0,0,0,97.692,253.072Z" transform="translate(-81.165 -232.783)" fill="#ddc7ff"/>
  </g>
  <path id="Trazado_12898" data-name="Trazado 12898" d="M102.1,255.767a2.052,2.052,0,1,0,2.052-2.052A2.052,2.052,0,0,0,102.1,255.767Z" transform="translate(-83.86 -235.478)" fill="#7021cc"/>
  <path id="Trazado_12899" data-name="Trazado 12899" d="M141.607,298.49" transform="translate(-108.032 -262.871)" fill="#fff"/>
  <path id="Trazado_12900" data-name="Trazado 12900" d="M93.68,210.178a20.3,20.3,0,1,1-20.544,34.275C100.789,251.026,110.979,226.57,93.68,210.178Z" transform="translate(-66.142 -208.842)" fill="#d4c4f2" opacity="0.5" style="mix-blend-mode: multiply;isolation: isolate"/>
  <path id="Trazado_12901" data-name="Trazado 12901" d="M86.779,248.509a20.459,20.459,0,0,0,7.523.105,20.145,20.145,0,0,0,7.724-3.073,20.408,20.408,0,0,0,5.393-5.243,20.288,20.288,0,0,0,.322-22.876,20.27,20.27,0,0,0-7.5-6.768,20.291,20.291,0,1,1-17.133,36.74A20.152,20.152,0,0,0,86.779,248.509Z" transform="translate(-72.244 -209.133)" fill="#d4c4f2" opacity="0.9" style="mix-blend-mode: multiply;isolation: isolate"/>
  <path id="Trazado_12902" data-name="Trazado 12902" d="M117.951,215.545" transform="translate(-93.559 -212.126)" fill="#ccc"/>
  <path id="Trazado_12903" data-name="Trazado 12903" d="M80.957,242.833a10.258,10.258,0,1,0,10.258-10.258A10.258,10.258,0,0,0,80.957,242.833Z" transform="translate(-70.927 -222.545)" fill="#d4c4f2" opacity="0.5" style="mix-blend-mode: multiply;isolation: isolate"/>
  <path id="Trazado_12904" data-name="Trazado 12904" d="M90.263,248.527a6.645,6.645,0,1,0,6.646-6.645A6.646,6.646,0,0,0,90.263,248.527Z" transform="translate(-76.62 -228.239)" fill="#d4c4f2" opacity="0.8" style="mix-blend-mode: multiply;isolation: isolate"/>
  <path id="Trazado_12905" data-name="Trazado 12905" d="M64.292,239.377c2.992.184,1.592-12.585,7.763-17.719s16.954-2.435,16.886-5.031c-.106-4-6.584-6.091-12.36-6.321-8.168-.326-17.154,6.608-17.366,15.019C59.065,231.269,59.928,239.11,64.292,239.377Z" transform="translate(-57.615 -208.913)" fill="#fff" opacity="0.2" style="mix-blend-mode: screen;isolation: isolate"/>
  <path id="Trazado_12906" data-name="Trazado 12906" d="M76.815,210.655c4.663-.05,9.735,2.2,9.46,3.848-.16.962-8.818-2.25-16.279,4.745-7.7,7.216-4.093,17.083-5.207,17.222-1.282.161-5.506-6.107-4.81-11.865C60.954,216.54,69.434,210.734,76.815,210.655Z" transform="translate(-58.046 -209.133)" fill="#fff" opacity="0.22" style="mix-blend-mode: screen;isolation: isolate"/>
  <path id="Trazado_12907" data-name="Trazado 12907" d="M83.859,213.509c.059-.521-3.616-2.062-7.659-1.762-5.752.425-11.778,4.541-13.794,10.405-1.627,4.73-.292,9.57.289,9.592.556.021-.027-4.392,2.653-9.039a19.32,19.32,0,0,1,10.27-8.158C80.133,213.11,83.8,214.025,83.859,213.509Z" transform="translate(-59.1 -209.779)" fill="#fff" opacity="0.37" style="mix-blend-mode: screen;isolation: isolate"/>
  <path id="Trazado_12908" data-name="Trazado 12908" d="M85.264,213.263c1.094-.13,3.26.214,2.458.535a31.754,31.754,0,0,0-7.59,3.421c-1.389.855-2.458-.16-1.817-.855A14.265,14.265,0,0,1,85.264,213.263Z" transform="translate(-69.194 -210.712)" fill="#fff" style="mix-blend-mode: screen;isolation: isolate"/>
  <path id="Trazado_12909" data-name="Trazado 12909" d="M68.148,224.665c.387-.323,1.972.154,1.71.374a17.235,17.235,0,0,0-5.078,6.627C63.5,234.5,64.3,227.871,68.148,224.665Z" transform="translate(-60.684 -217.638)" fill="#fff" style="mix-blend-mode: screen;isolation: isolate"/>
</svg>
