<svg xmlns="http://www.w3.org/2000/svg" width="340.164" height="436.103" viewBox="0 0 340.164 436.103">
  <g id="Grupo_15269" data-name="Grupo 15269" transform="translate(-33.442 -254.663)">
    <g id="Grupo_15050" data-name="Grupo 15050" transform="translate(29.617 254.663)">
      <path id="Trazado_15261" data-name="Trazado 15261" d="M162.659,352.689c-.015-.209-.042-.412-.058-.619a71.521,71.521,0,1,0-74.5,71.355l-3,200.372s2.393,3.648,5.75,2.349a15.364,15.364,0,0,0,9.89-1.107l-2.5-201.7c.427-.032.847-.081,1.271-.12.568-.024,1.133-.034,1.7-.073A66.1,66.1,0,0,0,162.659,352.689Z" transform="translate(91.504 -237.879)" fill="#ba320d" opacity="0.26" style="mix-blend-mode: multiply;isolation: isolate"/>
      <g id="Grupo_15049" data-name="Grupo 15049" transform="translate(0 0)">
        <path id="Trazado_15262" data-name="Trazado 15262" d="M63.359,357.905,60.292,563.081a15.516,15.516,0,0,0,15.329,1.237L73.068,358.049Z" transform="translate(112.18 -192.912)" fill="#fff37a"/>
        <path id="Trazado_15263" data-name="Trazado 15263" d="M63.167,357.9,60.1,563.078s3.332,5.117,7.657,1.124l.265-206.227Z" transform="translate(112.061 -192.914)" fill="#f3cf1d"/>
        <circle id="Elipse_257" data-name="Elipse 257" cx="71.53" cy="71.53" r="71.53" transform="translate(81.435 101.158) rotate(-45)" fill="#8352bd"/>
        <circle id="Elipse_258" data-name="Elipse 258" cx="69.506" cy="69.506" r="69.506" transform="translate(95.003 143.672) rotate(-69.306)" fill="#9f70cf"/>
        <circle id="Elipse_259" data-name="Elipse 259" cx="66.099" cy="66.099" r="66.099" transform="matrix(0.352, -0.936, 0.936, 0.352, 98.615, 142.132)" fill="#8352bd"/>
        <circle id="Elipse_260" data-name="Elipse 260" cx="62.886" cy="62.886" r="62.886" transform="translate(93.3 102.563) rotate(-45)" fill="#cfa4cf"/>
        <g id="Grupo_15044" data-name="Grupo 15044" transform="translate(119.497 39.861)">
          <path id="Trazado_15264" data-name="Trazado 15264" d="M89.255,339.189l-44-47.051a62.906,62.906,0,0,0-17.724,39.653l61.727,7.4Z" transform="translate(-27.528 -273.342)" fill="#772a91"/>
          <path id="Trazado_15265" data-name="Trazado 15265" d="M65.705,346.36l54.335-36.5a63,63,0,0,0-48.674-29.344l-5.513,63.72Z" transform="translate(-3.978 -280.513)" fill="#772a91"/>
          <path id="Trazado_15266" data-name="Trazado 15266" d="M35.172,355.737a63.03,63.03,0,0,0,42.641,24.77l6.726-59.269Z" transform="translate(-22.813 -255.391)" fill="#772a91"/>
          <path id="Trazado_15267" data-name="Trazado 15267" d="M65.705,321.238l42.987,43.675a63.056,63.056,0,0,0,19.865-35.365Z" transform="translate(-3.978 -255.391)" fill="#772a91"/>
        </g>
        <g id="Grupo_15045" data-name="Grupo 15045" transform="translate(119.352 39.68)">
          <path id="Trazado_15268" data-name="Trazado 15268" d="M89.624,337.507l-48.4-42.517a62.919,62.919,0,0,0-13.755,41.2l62.155,1.318Z" transform="translate(-27.438 -271.402)" fill="#ae50c7"/>
          <path id="Trazado_15269" data-name="Trazado 15269" d="M66.21,346.506l50.5-41.649A63.005,63.005,0,0,0,65.395,280.42l.752,63.955Z" transform="translate(-4.024 -280.401)" fill="#ae50c7"/>
          <path id="Trazado_15270" data-name="Trazado 15270" d="M37.6,360.453a63.025,63.025,0,0,0,44.86,20.476l.893-59.643Z" transform="translate(-21.169 -255.181)" fill="#ae50c7"/>
          <path id="Trazado_15271" data-name="Trazado 15271" d="M65.9,321.286l47.055,39.254A63.055,63.055,0,0,0,129.262,323.4Z" transform="translate(-3.713 -255.181)" fill="#ae50c7"/>
        </g>
        <path id="Trazado_15272" data-name="Trazado 15272" d="M142.074,298.454c-.225,2.377-1.019,4.7-.859,6.991,4.212,60.606-51.327,94.1-111.612,47.455a62.892,62.892,0,1,0,112.47-54.446Z" transform="translate(93.25 -229.585)" fill="#f1dbf2" opacity="0.36" style="mix-blend-mode: hard-light;isolation: isolate"/>
        <g id="Grupo_15046" data-name="Grupo 15046" transform="translate(139.953 142.841)" opacity="0.68" style="mix-blend-mode: hard-light;isolation: isolate">
          <path id="Trazado_15273" data-name="Trazado 15273" d="M40.311,345.505c.648,1,.679,1.926,1.6,2.831a16.125,16.125,0,0,0,4.3,2.826,27.291,27.291,0,0,0,9.562,2.808c3.017.3,3.591-4.278.815-5.14-2.721-.844-5.475-1.641-8.126-2.686-1.235-.488-2.433-1.078-3.69-1.51s-2.205-.155-3.413-.412c-.681-.144-1.505.577-1.049,1.282Z" transform="translate(-40.18 -344.205)" fill="#eddbe9"/>
        </g>
        <g id="Grupo_15047" data-name="Grupo 15047" transform="translate(161.851 151.529)" opacity="0.68" style="mix-blend-mode: hard-light;isolation: isolate">
          <path id="Trazado_15274" data-name="Trazado 15274" d="M54.1,352.532c1.394,1.565,3.832,1.876,5.782,2.3a2.549,2.549,0,1,0,.792-5c-1.964-.184-4.4-.637-6.183.419a1.48,1.48,0,0,0-.391,2.28Z" transform="translate(-53.723 -349.578)" fill="#eddbe9"/>
        </g>
        <g id="Grupo_15048" data-name="Grupo 15048" transform="translate(232.31 86.655)" opacity="0.68" style="mix-blend-mode: hard-light;isolation: isolate">
          <path id="Trazado_15275" data-name="Trazado 15275" d="M102.776,311.145a42.1,42.1,0,0,1-5.1,18.872c-1.73,3.148,3.066,6.125,4.747,2.951a34.881,34.881,0,0,0,3.858-22.178c-.309-2.028-3.433-1.614-3.5.356Z" transform="translate(-97.301 -309.454)" fill="#eddbe9"/>
        </g>
        <g id="Grupo_15279" data-name="Grupo 15279" transform="translate(43.495 282.647) rotate(-62)">
          <path id="Trazado_14944" data-name="Trazado 14944" d="M19.69,0a19.4,19.4,0,0,0-.58,38.8c.042,0,.083,0,.125,0a19.147,19.147,0,0,0,1.992-.029c.156-.011.3-.041.46-.056s.306,0,.462-.007a17.928,17.928,0,0,0,16.662-19.11c0-.066-.019-.13-.024-.2A19.392,19.392,0,0,0,19.69,0Z" transform="translate(8.034 17.958)" fill="#ba320d" opacity="0.26" style="mix-blend-mode: multiply;isolation: isolate"/>
          <g id="Grupo_14802" data-name="Grupo 14802" transform="translate(0 0)">
            <circle id="Elipse_246" data-name="Elipse 246" cx="19.4" cy="19.4" r="19.4" transform="translate(0 27.086) rotate(-44.274)" fill="#dd70de"/>
            <circle id="Elipse_247" data-name="Elipse 247" cx="18.851" cy="18.851" r="18.851" transform="translate(1.86 33.357) rotate(-56.611)" fill="#d7a3f0"/>
            <circle id="Elipse_248" data-name="Elipse 248" cx="17.927" cy="17.927" r="17.927" transform="matrix(0.655, -0.756, 0.756, 0.655, 3.671, 30.658)" fill="#dd70de"/>
            <circle id="Elipse_249" data-name="Elipse 249" cx="17.056" cy="17.056" r="17.056" transform="matrix(0.411, -0.912, 0.912, 0.411, 5.985, 37.117)" fill="#feb0ff"/>
            <g id="Grupo_14798" data-name="Grupo 14798" transform="translate(11.529 11.572)">
              <path id="Trazado_14945" data-name="Trazado 14945" d="M16.741,12.761,4.807,0A17.063,17.063,0,0,0,0,10.754l16.741,2.007Z" transform="translate(0 5.098)" fill="#b2569c"/>
              <path id="Trazado_14946" data-name="Trazado 14946" d="M0,17.859l14.736-9.9A17.087,17.087,0,0,0,1.535,0L.04,17.283Z" transform="translate(16.741)" fill="#b2569c"/>
              <path id="Trazado_14947" data-name="Trazado 14947" d="M0,9.357a17.1,17.1,0,0,0,11.565,6.718L13.39,0Z" transform="translate(3.351 17.859)" fill="#b2569c"/>
              <path id="Trazado_14948" data-name="Trazado 14948" d="M0,0,11.659,11.845a17.107,17.107,0,0,0,5.388-9.592Z" transform="translate(16.741 17.859)" fill="#b2569c"/>
            </g>
            <g id="Grupo_14799" data-name="Grupo 14799" transform="translate(11.489 11.523)">
              <path id="Trazado_14949" data-name="Trazado 14949" d="M16.866,11.531,3.739,0A17.055,17.055,0,0,0,.008,11.173l16.858.358Z" transform="translate(0 6.398)" fill="#e85cff"/>
              <path id="Trazado_14950" data-name="Trazado 14950" d="M.222,17.929l13.7-11.3A17.086,17.086,0,0,0,0,.005L.2,17.351Z" transform="translate(16.644)" fill="#e85cff"/>
              <path id="Trazado_14951" data-name="Trazado 14951" d="M0,10.623a17.087,17.087,0,0,0,12.167,5.553L12.409,0Z" transform="translate(4.457 17.929)" fill="#e85cff"/>
              <path id="Trazado_14952" data-name="Trazado 14952" d="M0,0,12.762,10.646A17.1,17.1,0,0,0,17.185.573Z" transform="translate(16.866 17.929)" fill="#e85cff"/>
            </g>
            <path id="Trazado_14953" data-name="Trazado 14953" d="M30.5,0a12.118,12.118,0,0,0-.233,1.9C31.414,18.334,16.35,27.418,0,14.767A17.058,17.058,0,1,0,30.5,0Z" transform="translate(12.439 19.439)" fill="#ffb7ef" opacity="0.36" style="mix-blend-mode: hard-light;isolation: isolate"/>
            <g id="Grupo_14800" data-name="Grupo 14800" transform="translate(17.076 39.502)" opacity="0.68" style="mix-blend-mode: hard-light;isolation: isolate">
              <path id="Trazado_14954" data-name="Trazado 14954" d="M.035.353c.176.271.185.522.434.767a4.357,4.357,0,0,0,1.168.766,7.392,7.392,0,0,0,2.592.762c.818.082.974-1.16.221-1.395-.738-.228-1.484-.445-2.2-.728-.335-.133-.661-.293-1-.41A6.28,6.28,0,0,0,.32,0C.136-.034-.087.162.035.353Z" fill="#ff9ddc"/>
            </g>
            <g id="Grupo_14801" data-name="Grupo 14801" transform="translate(42.125 24.263)" opacity="0.68" style="mix-blend-mode: hard-light;isolation: isolate">
              <path id="Trazado_14955" data-name="Trazado 14955" d="M1.484.459A11.4,11.4,0,0,1,.1,5.577c-.47.854.832,1.661,1.287.8A9.458,9.458,0,0,0,2.434.362c-.083-.55-.931-.438-.95.1Z" fill="#ff9ddc"/>
            </g>
          </g>
        </g>
        <g id="Grupo_15280" data-name="Grupo 15280" transform="translate(-4.451 182.536) rotate(-62)">
          <path id="Trazado_15248" data-name="Trazado 15248" d="M19.235,38.794a19.133,19.133,0,0,0,1.992-.03c.156-.011.3-.041.46-.055s.306,0,.462-.009A17.928,17.928,0,0,0,38.812,19.592c-.005-.067-.019-.131-.024-.2A19.394,19.394,0,1,0,19.11,38.8C19.152,38.8,19.193,38.793,19.235,38.794Z" transform="translate(6.13 16.039)" fill="#ba320d" opacity="0.26" style="mix-blend-mode: multiply;isolation: isolate"/>
          <g id="Grupo_15038" data-name="Grupo 15038" transform="translate(0 0)">
            <path id="Trazado_15249" data-name="Trazado 15249" d="M38.8,19.69A19.4,19.4,0,1,1,19.69,0,19.4,19.4,0,0,1,38.8,19.69Z" transform="translate(6.13 6.114)" fill="#ffa770"/>
            <circle id="Elipse_254" data-name="Elipse 254" cx="18.851" cy="18.851" r="18.851" transform="translate(0 31.644) rotate(-57.067)" fill="#f0d2a3"/>
            <circle id="Elipse_255" data-name="Elipse 255" cx="17.927" cy="17.927" r="17.927" transform="translate(4.563 15.231) rotate(-17.521)" fill="#ffa770"/>
            <circle id="Elipse_256" data-name="Elipse 256" cx="17.056" cy="17.056" r="17.056" transform="translate(9.584 9.602)" fill="#ffe7b0"/>
            <g id="Grupo_15034" data-name="Grupo 15034" transform="translate(9.625 9.651)">
              <path id="Trazado_15250" data-name="Trazado 15250" d="M16.741,12.761,4.807,0A17.063,17.063,0,0,0,0,10.755l16.741,2.006Z" transform="translate(0 5.098)" fill="#fcb358"/>
              <path id="Trazado_15251" data-name="Trazado 15251" d="M0,17.859l14.736-9.9A17.088,17.088,0,0,0,1.535,0L.04,17.283Z" transform="translate(16.741)" fill="#fcb358"/>
              <path id="Trazado_15252" data-name="Trazado 15252" d="M0,9.357a17.1,17.1,0,0,0,11.565,6.718L13.39,0Z" transform="translate(3.351 17.859)" fill="#fcb358"/>
              <path id="Trazado_15253" data-name="Trazado 15253" d="M0,0,11.659,11.845a17.1,17.1,0,0,0,5.388-9.591Z" transform="translate(16.741 17.859)" fill="#fcb358"/>
            </g>
            <g id="Grupo_15035" data-name="Grupo 15035" transform="translate(9.586 9.602)">
              <path id="Trazado_15254" data-name="Trazado 15254" d="M16.866,11.531,3.739,0A17.056,17.056,0,0,0,.008,11.174l16.858.357Z" transform="translate(0 6.398)" fill="#ffb21a"/>
              <path id="Trazado_15255" data-name="Trazado 15255" d="M.222,17.929l13.7-11.3A17.089,17.089,0,0,0,0,.005L.2,17.351Z" transform="translate(16.644)" fill="#ffb21a"/>
              <path id="Trazado_15256" data-name="Trazado 15256" d="M0,10.623a17.092,17.092,0,0,0,12.167,5.554L12.409,0Z" transform="translate(4.457 17.929)" fill="#ffb21a"/>
              <path id="Trazado_15257" data-name="Trazado 15257" d="M0,0,12.762,10.646A17.1,17.1,0,0,0,17.185.573Z" transform="translate(16.866 17.929)" fill="#ffb21a"/>
            </g>
            <path id="Trazado_15258" data-name="Trazado 15258" d="M30.5,0a12.109,12.109,0,0,0-.233,1.9C31.414,18.334,16.35,27.418,0,14.767A17.058,17.058,0,1,0,30.5,0Z" transform="translate(10.535 17.519)" fill="#ffeeb7" opacity="0.36" style="mix-blend-mode: hard-light;isolation: isolate"/>
            <g id="Grupo_15036" data-name="Grupo 15036" transform="translate(15.173 37.582)" opacity="0.68" style="mix-blend-mode: hard-light;isolation: isolate">
              <path id="Trazado_15259" data-name="Trazado 15259" d="M.035.352C.211.624.22.874.469,1.12a4.4,4.4,0,0,0,1.167.767,7.429,7.429,0,0,0,2.594.761c.818.082.974-1.16.221-1.393C3.712,1.026,2.966.81,2.247.526c-.335-.133-.661-.293-1-.409A6.114,6.114,0,0,0,.32.005C.136-.034-.088.161.035.352Z" fill="#ffec9d"/>
            </g>
            <g id="Grupo_15037" data-name="Grupo 15037" transform="translate(40.222 22.343)" opacity="0.68" style="mix-blend-mode: hard-light;isolation: isolate">
              <path id="Trazado_15260" data-name="Trazado 15260" d="M1.484.458A11.414,11.414,0,0,1,.1,5.578c-.47.853.831,1.66,1.287.8A9.462,9.462,0,0,0,2.434.362c-.083-.549-.931-.438-.95.1Z" fill="#ffec9d"/>
            </g>
          </g>
        </g>
      </g>
    </g>
    <g id="Grupo_15055" data-name="Grupo 15055" transform="translate(171.494 333.686)">
      <path id="Trazado_15276" data-name="Trazado 15276" d="M268.773,373.941a71.521,71.521,0,1,0-97.223,38.04L96.958,591.632s.873,4.273,4.474,4.307a15.365,15.365,0,0,0,9.6,2.627l70.073-182.7c.377.128.747.272,1.129.393.543.175,1.09.32,1.635.48.537.186,1.066.386,1.609.561A66.1,66.1,0,0,0,268.6,374.536C268.664,374.339,268.712,374.139,268.773,373.941Z" transform="translate(-96.958 -241.509)" fill="#ba320d" opacity="0.26" style="mix-blend-mode: multiply;isolation: isolate"/>
      <g id="Grupo_15054" data-name="Grupo 15054" transform="translate(0 0)">
        <path id="Trazado_15277" data-name="Trazado 15277" d="M175.823,346.024,97.135,535.536a15.513,15.513,0,0,0,13.785,6.817L184.79,349.748Z" transform="translate(-96.849 -198.238)" fill="#fff37a"/>
        <path id="Trazado_15278" data-name="Trazado 15278" d="M175.646,345.95,96.958,535.464s1.2,5.986,6.7,3.872l76.473-191.523Z" transform="translate(-96.958 -198.284)" fill="#f3cf1d"/>
        <circle id="Elipse_261" data-name="Elipse 261" cx="71.53" cy="71.53" r="71.53" transform="matrix(0.987, -0.16, 0.16, 0.987, 23.356, 33.799)" fill="#bf2277"/>
        <circle id="Elipse_262" data-name="Elipse 262" cx="69.506" cy="69.506" r="69.506" transform="translate(10.877 72.827) rotate(-31.594)" fill="#ff3e9f"/>
        <circle id="Elipse_263" data-name="Elipse 263" cx="66.099" cy="66.099" r="66.099" transform="translate(40.396 29.519)" fill="#f0a9d2"/>
        <path id="Trazado_15279" data-name="Trazado 15279" d="M236.013,297.943a61.525,61.525,0,0,0-15.171.962c-40.666,4.637-77.019,34.294-83.887,73.376a63.017,63.017,0,0,0,31.5,15.915c4-16.128,12.535-30.656,28.051-38.784a92.581,92.581,0,0,1,45.2-11.224A62.83,62.83,0,0,0,236.013,297.943Z" transform="translate(-74.49 -232.245)" fill="#ed81ba"/>
        <path id="Trazado_15280" data-name="Trazado 15280" d="M129.454,315.365a62.664,62.664,0,0,0-4.821,23.726c18.849-32.7,57.106-51.486,96.077-53.023a62.839,62.839,0,0,0-91.255,29.3Z" transform="translate(-82.091 -245.361)" fill="#ed81ba"/>
        <path id="Trazado_15281" data-name="Trazado 15281" d="M249.316,308.254c-1.087,2.126-2.682,3.992-3.382,6.18-18.487,57.871-82.473,68.463-121.247,2.841a62.892,62.892,0,1,0,124.629-9.02Z" transform="translate(-82.092 -225.821)" fill="#f1dbf2" opacity="0.36" style="mix-blend-mode: hard-light;isolation: isolate"/>
        <g id="Grupo_15051" data-name="Grupo 15051" transform="translate(53.095 120.501)" opacity="0.68" style="mix-blend-mode: hard-light;isolation: isolate">
          <path id="Trazado_15282" data-name="Trazado 15282" d="M129.814,330.1c.233,1.172-.081,2.041.437,3.222a16.184,16.184,0,0,0,2.957,4.217,27.335,27.335,0,0,0,7.847,6.144c2.69,1.4,4.918-2.648,2.656-4.475-2.217-1.79-4.482-3.549-6.558-5.5-.969-.909-1.864-1.9-2.87-2.766s-1.992-.959-3.02-1.643c-.579-.386-1.612-.021-1.449.8Z" transform="translate(-129.796 -329.148)" fill="#eddbe9"/>
        </g>
        <g id="Grupo_15052" data-name="Grupo 15052" transform="translate(149.556 100.424)" opacity="0.68" style="mix-blend-mode: hard-light;isolation: isolate">
          <path id="Trazado_15283" data-name="Trazado 15283" d="M203.576,320.4a42.1,42.1,0,0,1-11.719,15.65c-2.771,2.285.585,6.823,3.321,4.495a34.88,34.88,0,0,0,11.782-19.181c.462-2-2.592-2.768-3.384-.964Z" transform="translate(-190.819 -319.381)" fill="#eddbe9"/>
        </g>
        <g id="Grupo_15053" data-name="Grupo 15053" transform="translate(51.404 36.741)" opacity="0.65" style="mix-blend-mode: hard-light;isolation: isolate">
          <path id="Trazado_15284" data-name="Trazado 15284" d="M131.972,332.909c4.06-10.658,8.649-20.811,16.437-29.328,7.444-8.139,17.363-14.3,28.24-16.5,22.022-4.456,45.513,7.269,55,27.595,1.659,3.554,7.3,1.46,5.738-2.207-7.648-17.986-26.094-30.129-45.27-32.177-19.645-2.1-38.939,7.116-50.976,22.56-6.577,8.438-11.384,18.917-11,29.781a.967.967,0,0,0,1.837.276Z" transform="translate(-130.114 -279.995)" fill="#f1dbf2"/>
        </g>
      </g>
    </g>
  </g>
</svg>
