<svg xmlns="http://www.w3.org/2000/svg" width="144.196" height="153.943" viewBox="0 0 144.196 153.943">
  <g id="lanzamiento" transform="translate(0 0)">
    <path id="Trazado_12722" data-name="Trazado 12722" d="M429.671,11a94.814,94.814,0,0,1-2.455,21.484l-.106-.025a40.393,40.393,0,0,1-18.954-18.87l-.047-.1A94.115,94.115,0,0,1,429.671,11Z" transform="translate(-285.475 -11)" fill="#ed6337"/>
    <path id="Trazado_12723" data-name="Trazado 12723" d="M190.7,94.372l-7.8-7.8q.689-2.556,1.524-5.056A94.4,94.4,0,0,1,198.989,54h0A95.226,95.226,0,0,1,252.8,19.03l.047.1A40.391,40.391,0,0,0,271.8,38l.106.025a94.1,94.1,0,0,1-17.492,36.568A94.787,94.787,0,0,1,236.87,91.874a94.107,94.107,0,0,1-27.275,14.339q-2.682.889-5.438,1.617l-7.163-7.163Z" transform="translate(-130.163 -16.538)" fill="#e5f5fd"/>
    <path id="Trazado_12724" data-name="Trazado 12724" d="M406.762,337.8a12.16,12.16,0,0,0,4.782,2.964,12.248,12.248,0,0,0-7.737,7.759,12.248,12.248,0,0,0-7.738-7.759A12.248,12.248,0,0,0,403.807,333,12.25,12.25,0,0,0,406.762,337.8Z" transform="translate(-277.172 -233.061)" fill="#3090fc"/>
    <path id="Trazado_12725" data-name="Trazado 12725" d="M287.19,267.644a11.1,11.1,0,0,1,0,15.7l-18.175,18.442-10.54-10.67a16.421,16.421,0,0,1-.028-23.048,94.11,94.11,0,0,0,27.275-14.339l.009.012A11.106,11.106,0,0,0,287.19,267.644Z" transform="translate(-179.015 -178.394)" fill="#475673"/>
    <path id="Trazado_12726" data-name="Trazado 12726" d="M177.67,268.074l-3.963,16.03-18.827-18.83,16.5-3.495Z" transform="translate(-110.84 -183.946)" fill="#ed6337"/>
    <path id="Trazado_12727" data-name="Trazado 12727" d="M114.087,119.773a11.1,11.1,0,0,0,13.9,1.456,94.4,94.4,0,0,0-14.566,27.521,16.418,16.418,0,0,1-22.806-.261L79.94,137.948l18.445-18.175A11.1,11.1,0,0,1,114.087,119.773Z" transform="translate(-59.159 -83.77)" fill="#475673"/>
    <path id="Trazado_12728" data-name="Trazado 12728" d="M151.369,312.051a6.764,6.764,0,0,1-5.944,6.722l-8.625,1.071,1.068-8.628a6.776,6.776,0,0,1,13.5.835Z" transform="translate(-98.371 -213.94)" fill="#fadf4a"/>
    <path id="Trazado_12729" data-name="Trazado 12729" d="M34.762,96.8a12.164,12.164,0,0,0,4.783,2.964,12.248,12.248,0,0,0-7.737,7.759,12.248,12.248,0,0,0-7.737-7.759A12.248,12.248,0,0,0,31.807,92,12.259,12.259,0,0,0,34.762,96.8Z" transform="translate(-20.629 -66.86)" fill="#3090fc"/>
    <ellipse id="Elipse_68" data-name="Elipse 68" cx="11.753" cy="11.753" rx="11.753" ry="11.753" transform="translate(88.733 31.96)" fill="#50a6ea"/>
    <path id="Trazado_12730" data-name="Trazado 12730" d="M252.844,19.126l-.047-.1A95.224,95.224,0,0,0,198.992,54h0a94.389,94.389,0,0,0-14.565,27.52q-.833,2.5-1.524,5.056l6.207,6.207q.689-2.556,1.524-5.056A94.391,94.391,0,0,1,205.2,60.2h0a95.278,95.278,0,0,1,51.692-34.443,40.381,40.381,0,0,1-4.047-6.634Z" transform="translate(-130.163 -16.538)" fill="#a6b7d0"/>
    <g id="Grupo_986" data-name="Grupo 986" transform="translate(0 63.65)">
      <path id="Trazado_12737" data-name="Trazado 12737" d="M24.574,247.473a1.862,1.862,0,0,0,2.633,0l7.49-7.49a1.862,1.862,0,1,0-2.634-2.633l-7.49,7.49A1.862,1.862,0,0,0,24.574,247.473Z" transform="translate(-20.6 -230.371)" fill="#284268"/>
      <path id="Trazado_12738" data-name="Trazado 12738" d="M61.824,222.572a1.856,1.856,0,0,0,1.317-.545l2.769-2.769a1.862,1.862,0,0,0-2.633-2.634l-2.769,2.769a1.862,1.862,0,0,0,1.317,3.179Z" transform="translate(-45.381 -216.079)" fill="#284268"/>
      <path id="Trazado_12739" data-name="Trazado 12739" d="M21.8,277.335l-8.274,8.274a1.862,1.862,0,1,0,2.634,2.634l8.274-8.274a1.862,1.862,0,1,0-2.634-2.634Z" transform="translate(-12.983 -257.947)" fill="#284268"/>
      <path id="Trazado_12740" data-name="Trazado 12740" d="M66.255,232.362a1.862,1.862,0,0,0-2.633,0l-9.693,9.692a1.862,1.862,0,1,0,2.633,2.634l9.693-9.693A1.862,1.862,0,0,0,66.255,232.362Z" transform="translate(-40.844 -226.932)" fill="#284268"/>
      <path id="Trazado_12743" data-name="Trazado 12743" d="M216.127,439.027a1.863,1.863,0,0,0,2.633,0l7.491-7.49a1.862,1.862,0,0,0-2.633-2.634l-7.49,7.49A1.863,1.863,0,0,0,216.127,439.027Z" transform="translate(-152.702 -362.473)" fill="#284268"/>
      <path id="Trazado_12744" data-name="Trazado 12744" d="M252.059,413.583a1.862,1.862,0,0,0,2.634,0l2.769-2.769a1.862,1.862,0,0,0-2.634-2.634l-2.769,2.769A1.862,1.862,0,0,0,252.059,413.583Z" transform="translate(-177.481 -348.182)" fill="#284268"/>
      <path id="Trazado_12745" data-name="Trazado 12745" d="M213.354,468.888l-8.274,8.274a1.862,1.862,0,1,0,2.633,2.633l8.274-8.273a1.862,1.862,0,1,0-2.633-2.634Z" transform="translate(-145.083 -390.048)" fill="#284268"/>
      <path id="Trazado_12746" data-name="Trazado 12746" d="M255.174,423.913l-9.693,9.694a1.862,1.862,0,1,0,2.633,2.633l9.693-9.693a1.862,1.862,0,1,0-2.633-2.634Z" transform="translate(-172.945 -359.032)" fill="#284268"/>
    </g>
  </g>
</svg>
