<svg xmlns="http://www.w3.org/2000/svg" width="37.121" height="26.084" viewBox="0 0 37.121 26.084">
  <g id="chemical" transform="translate(0 -76.124)">
    <path id="Trazado_13682" data-name="Trazado 13682" d="M32.9,82.5H25.776a1.766,1.766,0,0,1-1.638-1.109A8.4,8.4,0,0,0,7.945,84.523q0,.126,0,.251l9.242,1.411L32.9,84.774Z" transform="translate(-7.369 0)" fill="#e2f4f9"/>
    <path id="Trazado_13683" data-name="Trazado 13683" d="M300.706,164.065v.7a1.949,1.949,0,0,1-.8,1.579l4.55.588-.759-2.863Z" transform="translate(-278.16 -81.566)" fill="#d3effb"/>
    <path id="Trazado_13684" data-name="Trazado 13684" d="M8,195.444a8.4,8.4,0,0,0,16.153,2.969,1.774,1.774,0,0,1,1.635-1.1h7.164v-1.867Z" transform="translate(-7.416 -110.67)" fill="#e7edf2"/>
    <path id="Trazado_13685" data-name="Trazado 13685" d="M70.4,195.443a1.943,1.943,0,0,1-1.148.373H64.038a1.774,1.774,0,0,0-1.635,1.1,8.411,8.411,0,0,1-9.942,4.891,8.4,8.4,0,0,0,12.93-3.4,1.774,1.774,0,0,1,1.635-1.1h7.164l.759-1.867H70.4Z" transform="translate(-48.657 -110.669)" fill="#79858f"/>
    <path id="Trazado_13686" data-name="Trazado 13686" d="M54.336,225.6a.56.56,0,1,1-.56-.56A.56.56,0,0,1,54.336,225.6Zm2.382,1.939a.56.56,0,1,0,.56.56A.56.56,0,0,0,56.718,227.534Zm2.115-2.151a.56.56,0,1,0,.56.56A.56.56,0,0,0,58.832,225.383Zm-8.314.56a.56.56,0,1,0,.56.56A.56.56,0,0,0,50.518,225.943Z" transform="translate(-46.336 -138.116)" fill="#79858f"/>
    <path id="Trazado_13687" data-name="Trazado 13687" d="M138.495,265.84a.561.561,0,0,0,.539-.712,8.411,8.411,0,0,1-.907.575A.558.558,0,0,0,138.495,265.84Z" transform="translate(-128.113 -175.302)" fill="#79858f"/>
    <path id="Trazado_13688" data-name="Trazado 13688" d="M171.844,235.516a.56.56,0,0,0,.522-.764,8.421,8.421,0,0,1-.563.762Z" transform="translate(-159.348 -147.128)" fill="#79858f"/>
    <path id="Trazado_13689" data-name="Trazado 13689" d="M37.121,203.811a.22.22,0,0,0-.22-.22H32.635a1.353,1.353,0,0,1-1.353-1.353v-2.984a3.809,3.809,0,0,0-3.809-3.809l-.675.92.675.947a1.942,1.942,0,0,1,1.942,1.942v2.984a1.353,1.353,0,0,1-1.353,1.353H.224c-.241,0-.228.279-.22.448a2.81,2.81,0,0,0,2.81,2.81H4.474a1.394,1.394,0,0,1,1.394,1.394v1.267a1.41,1.41,0,0,0,2.82,0v-1.267a1.394,1.394,0,0,1,2.788,0V211.9a.982.982,0,0,0,1.964,0v-3.653a1.394,1.394,0,0,1,1.394-1.394H34.311a2.81,2.81,0,0,0,2.81-2.81Z" transform="translate(0 -110.671)" fill="#79858f"/>
    <path id="Trazado_13690" data-name="Trazado 13690" d="M353.165,157.059a.97.97,0,0,1-.97-.97V152a.97.97,0,1,1,1.94,0v4.093A.97.97,0,0,1,353.165,157.059Z" transform="translate(-326.662 -69.472)" fill="#ecf9f9"/>
  </g>
</svg>
