<svg xmlns="http://www.w3.org/2000/svg" width="21.069" height="17.848" viewBox="0 0 21.069 17.848">
  <g id="Grupo_14389" data-name="Grupo 14389" transform="translate(-518.039 -284.98)">
    <path id="Trazado_13674" data-name="Trazado 13674" d="M522.063,288.239c-.968,0-1.945,0-2.923,0-.69,0-1.062-.28-1.072-.8-.01-.534.373-.824,1.094-.825.961,0,1.922,0,2.745,0,.326-.488.514-1.02.89-1.264a3.91,3.91,0,0,1,1.477-.351,5.046,5.046,0,0,1,.809-.005,1.711,1.711,0,0,1,1.938,1.621h.693c3.46,0,6.92-.009,10.38.015a1.331,1.331,0,0,1,.871.361.808.808,0,0,1,.058.773,1.082,1.082,0,0,1-.755.453c-1.5.043-3,.021-4.506.022h-6.721c-.348,1.287-.792,1.619-2.134,1.62h-.76C522.863,289.865,522.392,289.5,522.063,288.239Z" transform="translate(-0.026)" fill="#79858f"/>
    <path id="Trazado_13675" data-name="Trazado 13675" d="M533.523,351.867c-.367,1.289-.788,1.6-2.131,1.609-.27,0-.54,0-.81,0-1.24,0-1.723-.38-2.034-1.623h-6.163c-1.114,0-2.228,0-3.342,0-.6,0-.962-.3-.976-.792-.014-.509.359-.83.985-.831q4.456,0,8.912,0h.432a6.919,6.919,0,0,1,.864-1.276,4.108,4.108,0,0,1,3.526-.012,7.165,7.165,0,0,1,.892,1.288h4.047c.186,0,.372-.008.557,0a.818.818,0,0,1,.85.815.8.8,0,0,1-.859.8c-1.5.011-3,0-4.507.005C533.683,351.857,533.6,351.864,533.523,351.867Z" transform="translate(-0.025 -57.134)" fill="#79858f"/>
    <path id="Trazado_13676" data-name="Trazado 13676" d="M527.018,415.857c-.369,1.3-.791,1.615-2.133,1.62l-.76,0c-1.293,0-1.769-.365-2.085-1.623-.985,0-1.979,0-2.973,0-.657,0-1.045-.324-1.027-.844.018-.5.382-.777,1.037-.778l2.836,0c.033,0,.066-.01-.024,0a6.932,6.932,0,0,1,.865-1.277,4.108,4.108,0,0,1,3.526-.012,7.165,7.165,0,0,1,.892,1.287h1.16c3.241,0,6.482-.006,9.723.012a1.2,1.2,0,0,1,.813.275.884.884,0,0,1,.147.807,1.092,1.092,0,0,1-.768.506c-1.264.053-2.531.025-3.8.025Z" transform="translate(0 -114.651)" fill="#79858f"/>
  </g>
</svg>
