<svg id="Grupo_14415" data-name="Grupo 14415" xmlns="http://www.w3.org/2000/svg" width="37.237" height="37.237" viewBox="0 0 37.237 37.237">
  <path id="Trazado_12977" data-name="Trazado 12977" d="M339.882,351.956c0,.156,0,.312.006.466a18.622,18.622,0,0,0,36.709,3.932c.023-.092.044-.184.065-.277a18.212,18.212,0,0,0,.439-3.374.158.158,0,0,0,0-.032c.012-.237.017-.476.017-.715a18.62,18.62,0,0,0-37.021-2.844l-.006.038s0,.01,0,.014-.006.039-.008.058q-.106.712-.156,1.437Q339.882,351.3,339.882,351.956Z" transform="translate(-339.882 -333.337)" fill="#e17906"/>
  <path id="Trazado_12978" data-name="Trazado 12978" d="M339.882,380.775c0,.156,0,.312.006.466A18.619,18.619,0,0,0,372.7,392.819c-1.2-.31-3.227-1.469-6.605-4.66-7.489-7.073-9.153-9.569-14.77-7.489-5.544,2.053-11.09-2.584-11.231-2.7l0,0-.008.075-.156,1.437Q339.882,380.121,339.882,380.775Z" transform="translate(-339.882 -362.156)" fill="#a85400"/>
  <path id="Trazado_12979" data-name="Trazado 12979" d="M340.47,349.164c2.677,2.33,7.366,4.1,11.026,1.023,5.2-4.369,8.945-2.081,17.058,4.576,3.977,3.264,6.655,2.927,8.422,1.59.023-.092.044-.184.065-.277a18.207,18.207,0,0,0,.439-3.374.158.158,0,0,0,0-.032c.012-.237.017-.476.017-.715a18.62,18.62,0,0,0-37.021-2.844C340.476,349.128,340.472,349.147,340.47,349.164Z" transform="translate(-340.262 -333.337)" fill="#631b0d"/>
  <path id="Trazado_12980" data-name="Trazado 12980" d="M375.2,376.473c7.839-5.829,10.14-14.547,7.508-23.689a18.536,18.536,0,0,1,4.159,11.729c0,.239,0,.478-.017.715a.158.158,0,0,1,0,.032,18.213,18.213,0,0,1-.439,3.374c-.021.094-.042.185-.065.277a18.621,18.621,0,0,1-31.367,8.659C363.209,381.53,369.983,380.351,375.2,376.473Z" transform="translate(-349.629 -345.895)" fill="#dbdbdb" opacity="0.6" style="mix-blend-mode: multiply;isolation: isolate"/>
  <path id="Trazado_12981" data-name="Trazado 12981" d="M390.112,357.007a18.524,18.524,0,0,1,3.065,10.233c0,.239,0,.478-.017.715a.158.158,0,0,1,0,.032,18.211,18.211,0,0,1-.439,3.374c-.021.094-.042.185-.065.277a18.624,18.624,0,0,1-27.905,11.428C379.655,388.533,396.9,377.994,390.112,357.007Z" transform="translate(-355.94 -348.622)" fill="#dbdbdb" style="mix-blend-mode: multiply;isolation: isolate"/>
  <g id="Grupo_1045" data-name="Grupo 1045" transform="translate(2.913 10.817)">
    <path id="Trazado_12982" data-name="Trazado 12982" d="M348.1,365.328a1.456,1.456,0,1,0,1.456-1.456A1.456,1.456,0,0,0,348.1,365.328Z" transform="translate(-348.104 -363.872)" fill="#cecece" style="mix-blend-mode: multiply;isolation: isolate"/>
    <path id="Trazado_12983" data-name="Trazado 12983" d="M348.851,365.811a1.191,1.191,0,1,0,1.191-1.191A1.191,1.191,0,0,0,348.851,365.811Z" transform="translate(-348.586 -364.355)" fill="#cecece" style="mix-blend-mode: multiply;isolation: isolate"/>
  </g>
  <g id="Grupo_1046" data-name="Grupo 1046" transform="translate(9.362 4.993)">
    <path id="Trazado_12984" data-name="Trazado 12984" d="M366.308,348.886a1.456,1.456,0,1,0,1.456-1.456A1.456,1.456,0,0,0,366.308,348.886Z" transform="translate(-366.308 -347.43)" fill="#cecece" style="mix-blend-mode: multiply;isolation: isolate"/>
    <path id="Trazado_12985" data-name="Trazado 12985" d="M367.056,349.369a1.191,1.191,0,1,0,1.191-1.191A1.191,1.191,0,0,0,367.056,349.369Z" transform="translate(-366.791 -347.913)" fill="#cecece" style="mix-blend-mode: multiply;isolation: isolate"/>
  </g>
  <g id="Grupo_1047" data-name="Grupo 1047" transform="translate(9.985 10.817)">
    <path id="Trazado_12986" data-name="Trazado 12986" d="M368.069,365.328a1.456,1.456,0,1,0,1.456-1.456A1.456,1.456,0,0,0,368.069,365.328Z" transform="translate(-368.069 -363.872)" fill="#cecece" style="mix-blend-mode: multiply;isolation: isolate"/>
    <path id="Trazado_12987" data-name="Trazado 12987" d="M368.817,365.811a1.191,1.191,0,1,0,1.191-1.191A1.191,1.191,0,0,0,368.817,365.811Z" transform="translate(-368.552 -364.355)" fill="#cecece" style="mix-blend-mode: multiply;isolation: isolate"/>
  </g>
  <g id="Grupo_1048" data-name="Grupo 1048" transform="translate(19.555 1.456)">
    <path id="Trazado_12988" data-name="Trazado 12988" d="M395.081,338.9a1.456,1.456,0,1,0,1.456-1.457A1.456,1.456,0,0,0,395.081,338.9Z" transform="translate(-395.081 -337.447)" fill="#cecece" style="mix-blend-mode: multiply;isolation: isolate"/>
    <circle id="Elipse_69" data-name="Elipse 69" cx="1.191" cy="1.191" r="1.191" transform="translate(0.265 0.265)" fill="#cecece" style="mix-blend-mode: multiply;isolation: isolate"/>
  </g>
  <g id="Grupo_1049" data-name="Grupo 1049" transform="translate(15.186 6.865)">
    <path id="Trazado_12989" data-name="Trazado 12989" d="M382.749,354.171a1.457,1.457,0,1,0,1.456-1.456A1.457,1.457,0,0,0,382.749,354.171Z" transform="translate(-382.749 -352.715)" fill="#cecece" style="mix-blend-mode: multiply;isolation: isolate"/>
    <path id="Trazado_12990" data-name="Trazado 12990" d="M383.5,354.654a1.192,1.192,0,1,0,1.191-1.191A1.192,1.192,0,0,0,383.5,354.654Z" transform="translate(-383.232 -353.198)" fill="#cecece" style="mix-blend-mode: multiply;isolation: isolate"/>
  </g>
  <g id="Grupo_1050" data-name="Grupo 1050" transform="translate(23.715 6.449)">
    <path id="Trazado_12991" data-name="Trazado 12991" d="M406.825,353a1.457,1.457,0,1,0,1.456-1.456A1.457,1.457,0,0,0,406.825,353Z" transform="translate(-406.825 -351.541)" fill="#cecece" style="mix-blend-mode: multiply;isolation: isolate"/>
    <path id="Trazado_12992" data-name="Trazado 12992" d="M407.573,353.479a1.192,1.192,0,1,0,1.191-1.191A1.192,1.192,0,0,0,407.573,353.479Z" transform="translate(-407.308 -352.023)" fill="#cecece" style="mix-blend-mode: multiply;isolation: isolate"/>
  </g>
  <g id="Grupo_1051" data-name="Grupo 1051" transform="translate(24.756 14.562)">
    <path id="Trazado_12993" data-name="Trazado 12993" d="M409.763,375.9a1.456,1.456,0,1,0,1.456-1.456A1.456,1.456,0,0,0,409.763,375.9Z" transform="translate(-409.763 -374.442)" fill="#cecece" style="mix-blend-mode: multiply;isolation: isolate"/>
    <path id="Trazado_12994" data-name="Trazado 12994" d="M410.509,376.381a1.191,1.191,0,1,0,1.191-1.191A1.192,1.192,0,0,0,410.509,376.381Z" transform="translate(-410.245 -374.925)" fill="#cecece" style="mix-blend-mode: multiply;isolation: isolate"/>
  </g>
  <g id="Grupo_1052" data-name="Grupo 1052" transform="translate(32.453 15.81)">
    <path id="Trazado_12995" data-name="Trazado 12995" d="M431.489,379.422a1.456,1.456,0,1,0,1.457-1.456A1.456,1.456,0,0,0,431.489,379.422Z" transform="translate(-431.489 -377.966)" fill="#cecece" style="mix-blend-mode: multiply;isolation: isolate"/>
    <circle id="Elipse_70" data-name="Elipse 70" cx="1.191" cy="1.191" r="1.191" transform="translate(0.265 0.265)" fill="#cecece" style="mix-blend-mode: multiply;isolation: isolate"/>
  </g>
  <g id="Grupo_1053" data-name="Grupo 1053" transform="translate(28.708 9.153)">
    <path id="Trazado_12996" data-name="Trazado 12996" d="M420.919,360.631a1.456,1.456,0,1,0,1.456-1.456A1.456,1.456,0,0,0,420.919,360.631Z" transform="translate(-420.919 -359.175)" fill="#cecece" style="mix-blend-mode: multiply;isolation: isolate"/>
    <path id="Trazado_12997" data-name="Trazado 12997" d="M421.667,361.113a1.192,1.192,0,1,0,1.191-1.191A1.191,1.191,0,0,0,421.667,361.113Z" transform="translate(-421.402 -359.657)" fill="#cecece" style="mix-blend-mode: multiply;isolation: isolate"/>
  </g>
  <g id="Grupo_1054" data-name="Grupo 1054" transform="translate(0.416 0.314)">
    <path id="Trazado_12998" data-name="Trazado 12998" d="M350.263,365.181c3.227.2,1.641-5.381,10.2-13.208,7.489-6.849,12.822-5.251,12.748-8.052-.113-4.312-7.1-8.525-13.33-8.773-8.809-.351-18.5,7.127-18.729,16.2C340.989,357.756,345.557,364.892,350.263,365.181Z" transform="translate(-341.115 -334.813)" fill="#fff" opacity="0.1" style="mix-blend-mode: screen;isolation: isolate"/>
    <path id="Trazado_12999" data-name="Trazado 12999" d="M359.3,334.225c5.029-.054,10.5,2.373,10.2,4.15-.173,1.038-6.825.411-14.871,7.955-8.3,7.781-7.1,15.586-8.3,15.736-1.383.173-5.938-6.587-5.188-12.8C342.19,340.573,351.336,334.31,359.3,334.225Z" transform="translate(-341.056 -334.224)" fill="#fff" opacity="0.1" style="mix-blend-mode: screen;isolation: isolate"/>
    <path id="Trazado_13000" data-name="Trazado 13000" d="M368.351,338.627c.063-.562-3.9-2.223-8.26-1.9-6.2.459-12.7,4.9-14.877,11.222-1.755,5.1-.316,10.321.311,10.345.6.023.159-4.55,3.05-9.561a19.554,19.554,0,0,1,10.818-8.529C364.263,338.653,368.288,339.184,368.351,338.627Z" transform="translate(-343.198 -335.813)" fill="#fff" opacity="0.2" style="mix-blend-mode: screen;isolation: isolate"/>
    <path id="Trazado_13001" data-name="Trazado 13001" d="M372.243,338.3c1.18-.141,3.516.23,2.652.576a34.229,34.229,0,0,0-8.185,3.69c-1.5.922-2.652-.173-1.96-.922A15.38,15.38,0,0,1,372.243,338.3Z" transform="translate(-356.223 -336.834)" fill="#fff" opacity="0.6" style="mix-blend-mode: screen;isolation: isolate"/>
    <path id="Trazado_13002" data-name="Trazado 13002" d="M352.346,351.763c.418-.349,2.128.166,1.845.4a18.59,18.59,0,0,0-5.476,7.148C347.331,362.369,348.2,355.221,352.346,351.763Z" transform="translate(-345.607 -345.474)" fill="#fff" opacity="0.6" style="mix-blend-mode: screen;isolation: isolate"/>
  </g>
  <path id="Trazado_13003" data-name="Trazado 13003" d="M436.739,418.484s-.137.164-.342.414A.825.825,0,0,0,436.739,418.484Z" transform="translate(-402.206 -388.32)" fill="#fff"/>
</svg>
