<svg xmlns="http://www.w3.org/2000/svg" xmlns:xlink="http://www.w3.org/1999/xlink" width="67.025" height="60.578" viewBox="0 0 67.025 60.578">
  <defs>
    <clipPath id="clip-path">
      <path id="Trazado_13053" data-name="Trazado 13053" d="M372.693,83.1c4.173-4.316,11.871-4.623,17.145-.766,5.251,3.839,6.243,10.455,2.276,14.88l0,0L358.08,133.544a3.459,3.459,0,0,1-4.456.251l-1.038-.757a2.579,2.579,0,0,1-.551-3.915l33.88-36.155c1.522-1.622,1.12-4.128-.894-5.6a4.966,4.966,0,0,0-6.392.267l-1.244,1.326a3.458,3.458,0,0,1-4.458.251l-1.036-.758a2.58,2.58,0,0,1-.554-3.913l1.351-1.441Z" transform="translate(-351.363 -79.643)" fill="none"/>
    </clipPath>
  </defs>
  <g id="Grupo_14412" data-name="Grupo 14412" transform="translate(0 40.034) rotate(-68)">
    <g id="Grupo_1079" data-name="Grupo 1079" transform="translate(0)">
      <g id="Grupo_1078" data-name="Grupo 1078" clip-path="url(#clip-path)">
        <path id="Trazado_13032" data-name="Trazado 13032" d="M372.693,83.1c4.173-4.316,11.871-4.623,17.145-.766,5.251,3.839,6.243,10.455,2.276,14.88l0,0L358.08,133.544a3.459,3.459,0,0,1-4.456.251l-1.038-.757a2.579,2.579,0,0,1-.551-3.915l33.88-36.155c1.522-1.622,1.12-4.128-.894-5.6a4.966,4.966,0,0,0-6.392.267l-1.244,1.326a3.458,3.458,0,0,1-4.458.251l-1.036-.758a2.58,2.58,0,0,1-.554-3.913l1.351-1.441Z" transform="translate(-351.363 -79.643)" fill="#cf181f"/>
        <path id="Trazado_13033" data-name="Trazado 13033" d="M372.693,83.1c4.173-4.316,11.871-4.623,17.145-.766,5.251,3.839,6.243,10.455,2.276,14.88l0,0L358.08,133.544a3.459,3.459,0,0,1-4.456.251l-1.038-.757a2.579,2.579,0,0,1-.551-3.915l33.88-36.155c1.522-1.622,1.12-4.128-.894-5.6a4.966,4.966,0,0,0-6.392.267l-1.244,1.326a3.458,3.458,0,0,1-4.458.251l-1.036-.758a2.58,2.58,0,0,1-.554-3.913l1.351-1.441Z" transform="translate(-351.363 -79.643)" fill="#cf181f"/>
        <g id="Grupo_1070" data-name="Grupo 1070" transform="translate(-7.561 44.307)">
          <path id="Trazado_13034" data-name="Trazado 13034" d="M336.15,173.3l2.992-4.411s7.466,5.709,25.355-.1l-3.388,5.314S348.413,180.274,336.15,173.3Z" transform="translate(-336.15 -168.794)" fill="#f2f2f2"/>
        </g>
        <g id="Grupo_1071" data-name="Grupo 1071" transform="translate(-5.792 -11.251)">
          <path id="Trazado_13035" data-name="Trazado 13035" d="M339.709,166.5l1.642-.133s7.466,5.708,25.356-.1l-2.038,1.036S352.262,172.837,339.709,166.5Z" transform="translate(-339.709 -111.968)" fill="#f2f2f2"/>
          <path id="Trazado_13036" data-name="Trazado 13036" d="M353.554,155.221l1.642-.134s7.466,5.708,25.355-.1l-2.038,1.037S366.106,161.555,353.554,155.221Z" transform="translate(-346.673 -106.292)" fill="#fcfffd"/>
          <path id="Trazado_13037" data-name="Trazado 13037" d="M365.059,139.768l1.621-.29s7.981,4.963,25.228-2.538l-1.929,1.228S378.163,144.864,365.059,139.768Z" transform="translate(-352.46 -97.213)" fill="#f2f2f2"/>
          <path id="Trazado_13038" data-name="Trazado 13038" d="M384.574,128.833l.434-1.385s6.722,6.116,23.969-1.384l-1.929,1.228A27.492,27.492,0,0,1,384.574,128.833Z" transform="translate(-362.277 -91.742)" fill="#f2f2f2"/>
          <path id="Trazado_13039" data-name="Trazado 13039" d="M389.138,111.925l.247-.788s10.246,3.956,27.495-3.545l-1.929,1.228S401.275,116.587,389.138,111.925Z" transform="translate(-364.572 -82.45)" fill="#f2f2f2"/>
          <path id="Trazado_13040" data-name="Trazado 13040" d="M403.9,101.6l.139-.815s8.439,3.6,24.521-6.151l.5.417S416.188,104.284,403.9,101.6Z" transform="translate(-371.996 -75.933)" fill="#f2f2f2"/>
          <path id="Trazado_13041" data-name="Trazado 13041" d="M403.158,86.834l.139-.815s8.439,3.6,24.521-6.151l.5.417S415.45,89.516,403.158,86.834Z" transform="translate(-371.624 -68.505)" fill="#f2f2f2"/>
          <path id="Trazado_13042" data-name="Trazado 13042" d="M405.7,82.772l-.7-.437s6.528-6.448,3.594-25.025L409.17,57S412.839,72.411,405.7,82.772Z" transform="translate(-372.551 -57.004)" fill="#f2f2f2"/>
          <path id="Trazado_13043" data-name="Trazado 13043" d="M389.884,83.115l-.668-.487s6.974-5.961,5.382-24.7l.6-.263S397.748,73.294,389.884,83.115Z" transform="translate(-364.612 -57.335)" fill="#f2f2f2"/>
        </g>
        <g id="Grupo_1072" data-name="Grupo 1072" transform="translate(-8.008 49.965)">
          <path id="Trazado_13044" data-name="Trazado 13044" d="M335.251,180.311l1.642-.133s7.768,5.766,24.313.233l-.995.707S347.8,186.644,335.251,180.311Z" transform="translate(-335.251 -180.178)" fill="#fcfffd"/>
        </g>
        <g id="Grupo_1073" data-name="Grupo 1073" transform="translate(2.563 31.047)">
          <path id="Trazado_13045" data-name="Trazado 13045" d="M356.52,147.428l5.107-5.106s5.385,6.1,23.1-.21l-3.235,5.408S368.978,154.047,356.52,147.428Z" transform="translate(-356.52 -142.112)" fill="#f2f2f2"/>
        </g>
        <g id="Grupo_1074" data-name="Grupo 1074" transform="translate(15.918 16.504)">
          <path id="Trazado_13046" data-name="Trazado 13046" d="M383.391,120.067l2.554-4.678s7.981,4.962,25.229-2.538l-2.863,5.615S396.269,125.826,383.391,120.067Z" transform="translate(-383.391 -112.851)" fill="#f2f2f2"/>
        </g>
        <g id="Grupo_1075" data-name="Grupo 1075" transform="translate(27.393 -0.692)">
          <path id="Trazado_13047" data-name="Trazado 13047" d="M406.48,91.737l1.4-5.144s8.916,2.968,23.944-8.341l-1.476,6.127S420.345,94.34,406.48,91.737Z" transform="translate(-406.48 -78.251)" fill="#f2f2f2"/>
        </g>
        <g id="Grupo_1076" data-name="Grupo 1076" transform="translate(21.564 -13.175)">
          <path id="Trazado_13048" data-name="Trazado 13048" d="M398.853,81.784l-4.1-3.4s6.4-6.882,2.346-25.248l4.962,3.885S406.975,70.25,398.853,81.784Z" transform="translate(-394.752 -53.133)" fill="#f2f2f2"/>
        </g>
        <path id="Trazado_13049" data-name="Trazado 13049" d="M372.693,83.1c4.173-4.316,11.871-4.623,17.145-.766,5.251,3.839,6.243,10.455,2.276,14.88l0,0L358.08,133.544a3.459,3.459,0,0,1-4.456.251l-1.038-.757a2.579,2.579,0,0,1-.551-3.915l33.88-36.155c1.522-1.622,1.12-4.128-.894-5.6a4.966,4.966,0,0,0-6.392.267l-1.244,1.326a3.458,3.458,0,0,1-4.458.251l-1.036-.758a2.58,2.58,0,0,1-.554-3.913l1.351-1.441Z" transform="translate(-351.363 -79.643)" fill="none"/>
        <path id="Trazado_13050" data-name="Trazado 13050" d="M372.693,83.1c4.173-4.316,11.871-4.623,17.145-.766,5.251,3.839,6.243,10.455,2.276,14.88l0,0L358.08,133.544a3.459,3.459,0,0,1-4.456.251l-1.038-.757a2.579,2.579,0,0,1-.551-3.915l33.88-36.155c1.522-1.622,1.12-4.128-.894-5.6a4.966,4.966,0,0,0-6.392.267l-1.244,1.326a3.458,3.458,0,0,1-4.458.251l-1.036-.758a2.58,2.58,0,0,1-.554-3.913l1.351-1.441Z" transform="translate(-351.363 -79.643)" fill="none"/>
        <g id="Grupo_1077" data-name="Grupo 1077" transform="translate(0.771 2)" opacity="0.18" style="mix-blend-mode: multiply;isolation: isolate">
          <path id="Trazado_13051" data-name="Trazado 13051" d="M395.69,92.776l1.241-1.327a4.964,4.964,0,0,1,6.393-.266,4.9,4.9,0,0,1,.9.851,4.8,4.8,0,0,0-5.276.89L397.7,94.249a3.458,3.458,0,0,1-4.457.251l-1.036-.758a3.274,3.274,0,0,1-.451-.4A3.411,3.411,0,0,0,395.69,92.776Z" transform="translate(-372.454 -86.929)" fill="#ce939a" style="mix-blend-mode: multiply;isolation: isolate"/>
          <path id="Trazado_13052" data-name="Trazado 13052" d="M357.6,134.19l33.919-35.908c3.708-4.139,2.44-10.706-1.951-14.615.359.215.709.446,1.049.695,5.251,3.839,6.243,10.455,2.276,14.88l0,0-34.039,36.324a3.459,3.459,0,0,1-4.457.251l-1.038-.757a3.553,3.553,0,0,1-.452-.4C354.242,135.314,356.653,135.2,357.6,134.19Z" transform="translate(-352.915 -83.667)" fill="#ce939a" style="mix-blend-mode: multiply;isolation: isolate"/>
        </g>
      </g>
    </g>
    <path id="Trazado_13054" data-name="Trazado 13054" d="M359.255,141.282a1.1,1.1,0,0,1-1.555.024h0a1.1,1.1,0,0,1-.023-1.554s22.667-22.645,27.546-28.361,8.91-8.474,6.052-4.063S359.255,141.282,359.255,141.282Z" transform="translate(-354.383 -92.473)" fill="#fff" opacity="0.5" style="mix-blend-mode: screen;isolation: isolate"/>
    <path id="Trazado_13055" data-name="Trazado 13055" d="M405.819,81.656c-2.521-2.534-9.409-1.107-12.313,1.976s-.506,3.782.74,1.885C398.372,80.145,405.819,81.656,405.819,81.656Z" transform="translate(-371.869 -79.999)" fill="#fff" opacity="0.5" style="mix-blend-mode: screen;isolation: isolate"/>
  </g>
</svg>
