<svg xmlns="http://www.w3.org/2000/svg" xmlns:xlink="http://www.w3.org/1999/xlink" width="18.895" height="18.19" viewBox="0 0 18.895 18.19">
  <defs>
    <linearGradient id="linear-gradient" x1="-1.43" y1="-0.037" x2="-0.782" y2="0.441" gradientUnits="objectBoundingBox">
      <stop offset="0" stop-color="#fff"/>
      <stop offset="0.49" stop-color="#fefafc"/>
      <stop offset="1" stop-color="#ea4c95"/>
    </linearGradient>
    <linearGradient id="linear-gradient-2" x1="-1.739" y1="-0.079" x2="-1.333" y2="0.217" xlink:href="#linear-gradient"/>
    <linearGradient id="linear-gradient-3" x1="-2.112" y1="-0.191" x2="-1.671" y2="0.233" xlink:href="#linear-gradient"/>
  </defs>
  <g id="Recurso_1" data-name="Recurso 1" transform="translate(0.026 -0.001)">
    <g id="Capa_2" data-name="Capa 2" transform="translate(-0.026 0.001)">
      <g id="Capa_1" data-name="Capa 1">
        <path id="Trazado_13568" data-name="Trazado 13568" d="M1.332,13.547l.053.1a8.993,8.993,0,0,0,3.192,3.244,9.375,9.375,0,0,0,13.334-4.21,8.578,8.578,0,0,0,.385-1.032,8.922,8.922,0,0,0,.38-3.178c-.011-.178-.028-.366-.051-.55h0a1.065,1.065,0,0,0,.243-.655,3.508,3.508,0,0,0-.332-1.543,3.968,3.968,0,0,0-.284-.556l-.018-.03c-.3-.483-.71-.723-.776-.645h0c-.016-.032-.036-.064-.055-.1a8.925,8.925,0,0,0-.749-1.056,9.045,9.045,0,0,0-2.331-2A9.377,9.377,0,0,0,.991,5.55a8.982,8.982,0,0,0-.744,4.462c-.206-.023-.295.305-.268.87h0a4.971,4.971,0,0,0,.066.549.288.288,0,0,0,.012.1C.156,12.114.581,13.424,1.332,13.547Z" transform="translate(0.026 -0.019)" fill="#ea4c95"/>
        <path id="Trazado_13569" data-name="Trazado 13569" d="M.187,32.543l-.016-.053-.011-.03h0a3.242,3.242,0,0,1-.107-.533c-.149-.888-.071-1.459.2-1.42a21.357,21.357,0,0,0,8.846-1c3.729-1.133,6.791-2.855,8.363-4.528.076-.08.49.178.8.675a4.8,4.8,0,0,1,.4.859h0c.016.046.032.092.046.137v.021l.037.126h0a1.742,1.742,0,0,1-.123,1.6c-1.529,1.735-4.641,3.5-8.448,4.657a21.4,21.4,0,0,1-8.83,1.01c-.518-.078-.888-.723-1.092-1.309v-.016c-.009-.023-.016-.046-.025-.071S.218,32.628.21,32.61A.5.5,0,0,1,.187,32.543Z" transform="translate(0.021 -20.528)" fill="#e8318a"/>
        <path id="Trazado_13570" data-name="Trazado 13570" d="M18.914,27.325h0a4.723,4.723,0,0,0-.4-.859c-.305-.5-.71-.755-.794-.673-1.571,1.674-4.639,3.395-8.368,4.528A21.325,21.325,0,0,1,.505,31.327c-.272-.043-.355.533-.2,1.42a3.279,3.279,0,0,0,.108.524h0v-.014a.276.276,0,0,0-.023-.071c-.007-.023-.012-.036-.018-.053s-.014-.044-.02-.066a.376.376,0,0,1-.016-.055l-.011-.03h0a3.279,3.279,0,0,1-.108-.533c-.149-.888-.069-1.461.2-1.42a21.357,21.357,0,0,0,8.846-1c3.727-1.129,6.791-2.848,8.363-4.522.075-.082.488.178.794.673a4.588,4.588,0,0,1,.4.861h0c.016.046.032.091.046.137v.021l.037.126Z" transform="translate(-0.112 -20.961)" fill="#ee77ab"/>
        <path id="Trazado_13571" data-name="Trazado 13571" d="M1.011,39.744,1,39.714H1c.208.586.573,1.225,1.09,1.305a21.4,21.4,0,0,0,8.828-1.01c3.809-1.156,6.925-2.924,8.46-4.631a1.761,1.761,0,0,0,.123-1.6h0c.016.046.032.092.046.137v.021l.037.126h0a1.742,1.742,0,0,1-.123,1.6c-1.529,1.717-4.641,3.484-8.448,4.639a21.4,21.4,0,0,1-8.83,1.01C1.666,41.234,1.3,40.589,1.092,40v-.016c-.009-.023-.016-.046-.025-.071s-.011-.034-.018-.051a.515.515,0,0,1-.02-.067Z" transform="translate(-0.818 -27.782)" fill="#dd0a80"/>
        <path id="Trazado_13572" data-name="Trazado 13572" d="M10.3,18.624c1.38-.5,1.152-2.047,3.262-7.033C15.4,7.227,16.45,6.357,15.9,5.133c-.849-1.875-4.531-2.463-7.178-1.44C4.992,5.131,2.345,10.17,3.927,14.2,5.058,17.038,8.284,19.348,10.3,18.624Z" transform="translate(-2.841 -2.628)" opacity="0.2" fill="url(#linear-gradient)"/>
        <path id="Trazado_13573" data-name="Trazado 13573" d="M9.129,5.722c2.084-.932,4.812-.861,5.018-.021.121.488-2.764,1.42-4.712,6.184-2.01,4.92-.06,8.132-.533,8.416-.543.325-3.695-1.822-4.535-4.686C3.188,11.608,5.832,7.2,9.129,5.722Z" transform="translate(-3.352 -4.151)" opacity="0.15" fill="url(#linear-gradient-2)"/>
        <path id="Trazado_13574" data-name="Trazado 13574" d="M12.291,7.031c-.078-.257-2.037-.272-3.791.659A8.165,8.165,0,0,0,4.392,15.31C4.61,17.869,6.178,19.9,6.443,19.8s-.888-2.076-.62-4.794A9.644,9.644,0,0,1,8.8,9.135C10.539,7.569,12.369,7.287,12.291,7.031Z" transform="translate(-3.587 -5.659)" opacity="0.1" fill="url(#linear-gradient-3)"/>
        <path id="Trazado_13575" data-name="Trazado 13575" d="M14.033,12.437c.465-.275,1.507-.533,1.211-.227a15.41,15.41,0,0,0-2.722,3.1c-.453.676-1.135.4-.987-.051A6.9,6.9,0,0,1,14.033,12.437Z" transform="translate(-9.466 -9.929)" fill="#fff"/>
        <path id="Trazado_13576" data-name="Trazado 13576" d="M6.612,34.431c.108-.227.916-.311.842-.156A8.972,8.972,0,0,0,6.5,38.407C6.494,40,5.526,36.7,6.612,34.431Z" transform="translate(-5.01 -28.125)" fill="#fff"/>
        <path id="Trazado_13577" data-name="Trazado 13577" d="M50.164,12.056C51.945,6.408,47.339,2.474,45.7,1a9.233,9.233,0,0,1,2.981,1.138,8.984,8.984,0,0,1,3.077,3.056l.057.1h0c.076-.082.488.178.8.675.5.824.888,2.177.373,2.754h0a8.972,8.972,0,0,1-.71,4.76,9.322,9.322,0,0,1-5.73,5.1,9.48,9.48,0,0,1-4.794.231C43.982,18.255,48.383,17.7,50.164,12.056Z" transform="translate(-34.333 -0.823)" fill="#e2afc6" opacity="0.3"/>
        <path id="Trazado_13578" data-name="Trazado 13578" d="M51.1,102.2H51.05l.167-.046Z" transform="translate(-41.981 -84.013)" fill="#cdcccc" opacity="0.54"/>
        <path id="Trazado_13579" data-name="Trazado 13579" d="M51.112,12.907a8.954,8.954,0,0,0,.71-4.76l.009-.009c.522-.577.13-1.93-.373-2.754-.305-.5-.71-.756-.8-.675h0c-.02-.032-.037-.064-.055-.1a8.988,8.988,0,0,0-3.082-3.049A9.293,9.293,0,0,0,41.756.3c-.151-.014-.3-.025-.456-.03a9.313,9.313,0,0,1,7.012,1.042,8.984,8.984,0,0,1,3.077,3.056l.057.1h0c.076-.082.488.178.8.675.5.824.888,2.177.373,2.754h0a8.972,8.972,0,0,1-.71,4.76,9.322,9.322,0,0,1-5.73,5.1c-.133.043-.268.082-.4.117a9.307,9.307,0,0,0,5.341-4.966Z" transform="translate(-33.962 -0.001)" fill="#e2afc6" opacity="0.8"/>
        <path id="Trazado_13580" data-name="Trazado 13580" d="M79.6,33.638A1.138,1.138,0,1,1,78.17,32.9,1.138,1.138,0,0,1,79.6,33.638Z" transform="translate(-63.633 -27.012)" fill="#6a2349"/>
        <path id="Trazado_13581" data-name="Trazado 13581" d="M79.567,34.763a.4.4,0,1,1-.2-.237A.4.4,0,0,1,79.567,34.763Z" transform="translate(-64.785 -28.359)" fill="#f6f6f6"/>
        <path id="Trazado_13582" data-name="Trazado 13582" d="M17.385,53.328a1.138,1.138,0,1,1-1.42-.742A1.138,1.138,0,0,1,17.385,53.328Z" transform="translate(-12.465 -43.208)" fill="#6a2349"/>
        <path id="Trazado_13583" data-name="Trazado 13583" d="M17.336,54.427a.4.4,0,1,1-.508-.265A.4.4,0,0,1,17.336,54.427Z" transform="translate(-13.602 -44.531)" fill="#f6f6f6"/>
        <path id="Trazado_13584" data-name="Trazado 13584" d="M47.268,49.812a.858.858,0,1,1-1.635.517.238.238,0,1,0-.454.144,1.334,1.334,0,1,0,2.544-.8.238.238,0,1,0-.455.144Z" transform="translate(-37.143 -40.713)" fill="#6a2349"/>
      </g>
    </g>
  </g>
</svg>
