<svg id="Grupo_14413" data-name="Grupo 14413" xmlns="http://www.w3.org/2000/svg" width="46.665" height="46.664" viewBox="0 0 46.665 46.664">
  <path id="Trazado_12923" data-name="Trazado 12923" d="M198.536,356.669c0,.2,0,.391.008.584a23.338,23.338,0,0,0,45.192,7.571,23.055,23.055,0,0,0,1.441-7.219.192.192,0,0,0,0-.039c.016-.3.021-.6.021-.9a23.308,23.308,0,0,0-23.332-23.332,23.358,23.358,0,0,0-21.208,13.6c-.289.628-.553,1.272-.784,1.929a23.039,23.039,0,0,0-1.069,4.242A23.3,23.3,0,0,0,198.536,356.669Z" transform="translate(-198.536 -333.337)" fill="#fbf2e3"/>
  <g id="Grupo_1030" data-name="Grupo 1030" transform="translate(29.198 6.257)">
    <path id="Trazado_12924" data-name="Trazado 12924" d="M271.352,349.516a2.085,2.085,0,1,0,2.086-2.086A2.085,2.085,0,0,0,271.352,349.516Z" transform="translate(-268.224 -347.43)" fill="#fc2b45"/>
    <path id="Trazado_12925" data-name="Trazado 12925" d="M264.3,359.629a1.043,1.043,0,1,0,1.043-1.042A1.043,1.043,0,0,0,264.3,359.629Z" transform="translate(-264.305 -353.634)" fill="#fc2b45"/>
  </g>
  <g id="Grupo_1031" data-name="Grupo 1031" transform="translate(35.517 22.685)">
    <path id="Trazado_12926" data-name="Trazado 12926" d="M289.558,386.1a2.086,2.086,0,1,0,2.849.764A2.086,2.086,0,0,0,289.558,386.1Z" transform="translate(-284.086 -385.203)" fill="#fc2b45"/>
    <path id="Trazado_12927" data-name="Trazado 12927" d="M279.06,384.574a1.043,1.043,0,1,0,1.425.382A1.043,1.043,0,0,0,279.06,384.574Z" transform="translate(-278.538 -384.434)" fill="#fc2b45"/>
  </g>
  <g id="Grupo_1032" data-name="Grupo 1032" transform="translate(28.739 33.895)">
    <path id="Trazado_12928" data-name="Trazado 12928" d="M266.981,420.156a2.086,2.086,0,1,0,.764,2.849A2.085,2.085,0,0,0,266.981,420.156Z" transform="translate(-263.594 -415.352)" fill="#fc2b45"/>
    <path id="Trazado_12929" data-name="Trazado 12929" d="M264.835,409.825a1.043,1.043,0,1,0,.382,1.424A1.043,1.043,0,0,0,264.835,409.825Z" transform="translate(-263.271 -409.685)" fill="#fc2b45"/>
  </g>
  <g id="Grupo_1033" data-name="Grupo 1033" transform="translate(10.428 33.63)">
    <path id="Trazado_12930" data-name="Trazado 12930" d="M226.2,417.633a2.086,2.086,0,1,0-2.086,2.086A2.085,2.085,0,0,0,226.2,417.633Z" transform="translate(-222.025 -412.68)" fill="#fc2b45"/>
    <path id="Trazado_12931" data-name="Trazado 12931" d="M235.855,410.131a1.043,1.043,0,1,0-1.043,1.042A1.043,1.043,0,0,0,235.855,410.131Z" transform="translate(-228.555 -409.088)" fill="#fc2b45"/>
  </g>
  <g id="Grupo_1034" data-name="Grupo 1034" transform="translate(2.808 19.454)">
    <path id="Trazado_12932" data-name="Trazado 12932" d="M207.989,381.05a2.086,2.086,0,1,0-2.849-.763A2.086,2.086,0,0,0,207.989,381.05Z" transform="translate(-204.86 -377.158)" fill="#fc2b45"/>
    <path id="Trazado_12933" data-name="Trazado 12933" d="M249.8,385.476a2.086,2.086,0,1,0-2.849-.764A2.085,2.085,0,0,0,249.8,385.476Z" transform="translate(-228.108 -379.619)" fill="#fc2b45"/>
    <path id="Trazado_12934" data-name="Trazado 12934" d="M249.8,385.476a2.086,2.086,0,1,0-2.849-.764A2.085,2.085,0,0,0,249.8,385.476Z" transform="translate(-228.108 -379.619)" fill="#fc2b45"/>
    <path id="Trazado_12935" data-name="Trazado 12935" d="M221.1,385.186a1.043,1.043,0,1,0-1.424-.382A1.043,1.043,0,0,0,221.1,385.186Z" transform="translate(-213.02 -380.54)" fill="#fc2b45"/>
  </g>
  <g id="Grupo_1035" data-name="Grupo 1035" transform="translate(13.757 4.334)">
    <path id="Trazado_12936" data-name="Trazado 12936" d="M230.566,346.991a2.086,2.086,0,1,0-.764-2.849A2.085,2.085,0,0,0,230.566,346.991Z" transform="translate(-229.523 -343.1)" fill="#fc2b45"/>
    <path id="Trazado_12937" data-name="Trazado 12937" d="M235.324,359.936a1.043,1.043,0,1,0-.381-1.425A1.043,1.043,0,0,0,235.324,359.936Z" transform="translate(-232.459 -351.379)" fill="#fc2b45"/>
  </g>
  <path id="Trazado_12938" data-name="Trazado 12938" d="M216.318,382.8a23.361,23.361,0,0,0,27.12-14.583,23.044,23.044,0,0,0,.892-2.99,22.79,22.79,0,0,0,.55-4.228.2.2,0,0,0,0-.039c.016-.3.021-.6.021-.9a23.2,23.2,0,0,0-2.891-11.245c.512.515,1,1.051,1.468,1.612a23.28,23.28,0,0,1,5.334,14.847c0,.3,0,.6-.021.9a.191.191,0,0,1,0,.039,23.053,23.053,0,0,1-1.441,7.219,23.345,23.345,0,0,1-42.315,3.088A23.284,23.284,0,0,0,216.318,382.8Z" transform="translate(-202.149 -341.946)" fill="#d3a7af" opacity="0.3" style="mix-blend-mode: multiply;isolation: isolate"/>
  <g id="Grupo_1036" data-name="Grupo 1036" transform="translate(1.061 0)">
    <path id="Trazado_12939" data-name="Trazado 12939" d="M245.6,356.8c-5.73-8.152,1.567-8.606,5.217-16.08a7.083,7.083,0,0,0,.055-6.752,23.565,23.565,0,0,0-9.445-.279c2.568,2.711,4.8,6.767,1.57,11.108C237.326,352.407,245.407,356.7,245.6,356.8Z" transform="translate(-223.198 -333.337)" fill="#fc2b45"/>
    <path id="Trazado_12940" data-name="Trazado 12940" d="M251.382,367.427c4.195-9.044,8.235-2.948,16.534-3.524a7.1,7.1,0,0,0,5.743-3.123,23.182,23.182,0,0,0-4.408-8.329c-1.092,3.525-3.5,7.336-8.776,6.718C250.939,358.05,251.382,367.427,251.382,367.427Z" transform="translate(-228.98 -343.965)" fill="#fc2b45"/>
    <path id="Trazado_12941" data-name="Trazado 12941" d="M251.386,384.367c9.93-.889,6.671,5.657,11.32,12.555a7.11,7.11,0,0,0,5.445,3.405,23.308,23.308,0,0,0,4.972-7.936c-3.569.772-7.964.527-10.037-4.28C259.285,379.294,251.386,384.367,251.386,384.367Z" transform="translate(-228.984 -360.905)" fill="#fc2b45"/>
    <path id="Trazado_12942" data-name="Trazado 12942" d="M238.368,408.8a23.548,23.548,0,0,0,9.314.242c-2.458-2.706-4.455-6.64-1.324-10.845,5.667-7.612-2.415-11.9-2.6-12,5.73,8.152-1.567,8.606-5.216,16.08A7.086,7.086,0,0,0,238.368,408.8Z" transform="translate(-221.35 -362.727)" fill="#fc2b45"/>
    <path id="Trazado_12943" data-name="Trazado 12943" d="M200.926,393.027a23.21,23.21,0,0,0,4.523,8.173c1.087-3.535,3.489-7.375,8.785-6.755,9.537,1.118,9.093-8.259,9.093-8.259-4.195,9.044-8.235,2.949-16.534,3.525A7.088,7.088,0,0,0,200.926,393.027Z" transform="translate(-200.926 -362.724)" fill="#fc2b45"/>
    <path id="Trazado_12944" data-name="Trazado 12944" d="M201.555,358.228c3.634-.873,8.274-.79,10.422,4.192,3.8,8.816,11.7,3.744,11.7,3.744-9.93.889-6.671-5.657-11.319-12.555a7.079,7.079,0,0,0-5.926-3.431,23.327,23.327,0,0,0-4.093,6.121C202.05,356.927,201.787,357.572,201.555,358.228Z" transform="translate(-201.276 -342.702)" fill="#fc2b45"/>
  </g>
  <path id="Trazado_12945" data-name="Trazado 12945" d="M223.077,386.712a23.361,23.361,0,0,0,27.12-14.583,23.118,23.118,0,0,0,.891-2.99,22.755,22.755,0,0,0,.55-4.229.2.2,0,0,0,0-.039c.016-.3.021-.6.021-.9a23.277,23.277,0,0,0-5.331-14.843c-.055-.1-.11-.209-.166-.312.512.515,1,1.051,1.468,1.612a23.282,23.282,0,0,1,5.334,14.847c0,.3,0,.6-.021.9a.186.186,0,0,1,0,.039,23.05,23.05,0,0,1-1.441,7.219,23.329,23.329,0,0,1-39,7.682A23.259,23.259,0,0,0,223.077,386.712Z" transform="translate(-206.301 -341.946)" fill="#d3a7af" opacity="0.5" style="mix-blend-mode: multiply;isolation: isolate"/>
  <g id="Grupo_1037" data-name="Grupo 1037" transform="translate(0 1.366)">
    <path id="Trazado_12946" data-name="Trazado 12946" d="M209.3,372.48c3.781.231,4.8-3.483,14.831-12.656,8.776-8.026,12.148-8.978,12.062-12.26-.133-5.054-8.32-9.991-15.622-10.282-10.324-.412-21.682,8.352-21.949,18.983C198.436,363.778,203.789,372.141,209.3,372.48Z" transform="translate(-198.583 -336.889)" fill="#fff" opacity="0.2" style="mix-blend-mode: screen;isolation: isolate"/>
    <path id="Trazado_12947" data-name="Trazado 12947" d="M219.912,336.416c5.894-.063,12.3,2.781,11.957,4.864-.2,1.216-8,.482-17.429,9.322-9.728,9.12-8.32,18.266-9.728,18.442-1.621.2-6.959-7.72-6.079-15C199.864,343.855,210.583,336.516,219.912,336.416Z" transform="translate(-198.536 -336.415)" fill="#fff" opacity="0.22" style="mix-blend-mode: screen;isolation: isolate"/>
    <path id="Trazado_12948" data-name="Trazado 12948" d="M230.673,340.7c.074-.659-4.57-2.606-9.68-2.228-7.271.539-14.886,5.74-17.435,13.152-2.056,5.979-.37,12.1.365,12.124.7.026-.035-5.551,3.353-11.425,4.281-7.422,12.1-10.032,12.98-10.312C225.963,340.195,230.6,341.351,230.673,340.7Z" transform="translate(-200.78 -337.531)" fill="#fff" opacity="0.37" style="mix-blend-mode: screen;isolation: isolate"/>
    <path id="Trazado_12949" data-name="Trazado 12949" d="M229.83,340.145c1.383-.164,4.121.27,3.108.676a40.129,40.129,0,0,0-9.593,4.323c-1.756,1.081-3.108-.2-2.3-1.081A18.023,18.023,0,0,1,229.83,340.145Z" transform="translate(-210.92 -338.469)" fill="#fff" style="mix-blend-mode: screen;isolation: isolate"/>
    <path id="Trazado_12950" data-name="Trazado 12950" d="M210.4,352.76c.49-.408,2.493.194,2.162.473a21.785,21.785,0,0,0-6.418,8.377C204.528,365.19,205.541,356.813,210.4,352.76Z" transform="translate(-202.371 -345.427)" fill="#fff" style="mix-blend-mode: screen;isolation: isolate"/>
  </g>
</svg>
