<svg id="Grupo_14416" data-name="Grupo 14416" xmlns="http://www.w3.org/2000/svg" width="39.897" height="39.897" viewBox="0 0 39.897 39.897">
  <path id="Trazado_12888" data-name="Trazado 12888" d="M55.119,226.685a20.009,20.009,0,0,0,.294,3.42,19.808,19.808,0,0,0,3.021,7.594,20.068,20.068,0,0,0,5.155,5.3,19.858,19.858,0,0,0,7.5,3.234,20.108,20.108,0,0,0,7.4.1,19.812,19.812,0,0,0,7.593-3.022,20.07,20.07,0,0,0,5.3-5.155,19.95,19.95,0,0,0-27.332-28.112,20.079,20.079,0,0,0-5.3,5.155,19.878,19.878,0,0,0-3.631,11.478Z" transform="translate(-55.119 -206.737)" fill="#7021cc"/>
  <g id="Grupo_1025" data-name="Grupo 1025" transform="translate(0 0)">
    <g id="Grupo_1024" data-name="Grupo 1024" transform="translate(0)">
      <g id="Grupo_1023" data-name="Grupo 1023">
        <g id="Grupo_1015" data-name="Grupo 1015" transform="translate(13.856)">
          <path id="Trazado_12889" data-name="Trazado 12889" d="M95.471,224.98a13.791,13.791,0,0,0,1.981,1.645,13.847,13.847,0,0,1,4.037-19.491,20.1,20.1,0,0,0-7.4-.1A13.829,13.829,0,0,0,95.471,224.98Z" transform="translate(-91.421 -206.737)" fill="#ddc7ff"/>
        </g>
        <g id="Grupo_1016" data-name="Grupo 1016" transform="translate(19.711 3.631)">
          <path id="Trazado_12890" data-name="Trazado 12890" d="M106.759,229.919a13.813,13.813,0,0,0,.238,2.564,13.843,13.843,0,0,1,16.633-10.929,20.07,20.07,0,0,0-5.155-5.3A13.832,13.832,0,0,0,106.759,229.919Z" transform="translate(-106.759 -216.251)" fill="#ddc7ff"/>
        </g>
        <g id="Grupo_1017" data-name="Grupo 1017" transform="translate(20.009 13.857)">
          <path id="Trazado_12891" data-name="Trazado 12891" d="M107.54,249.071a13.848,13.848,0,0,1,19.491,4.037,20.107,20.107,0,0,0,.1-7.4,13.84,13.84,0,0,0-19.594,3.36Z" transform="translate(-107.54 -243.04)" fill="#ddc7ff"/>
        </g>
        <g id="Grupo_1018" data-name="Grupo 1018" transform="translate(20.033 19.711)">
          <path id="Trazado_12892" data-name="Trazado 12892" d="M118.869,272.2a13.878,13.878,0,0,1-.336,3.044,20.07,20.07,0,0,0,5.3-5.155A13.842,13.842,0,0,0,107.6,258.615,13.831,13.831,0,0,1,118.869,272.2Z" transform="translate(-107.604 -258.377)" fill="#ddc7ff"/>
        </g>
        <g id="Grupo_1019" data-name="Grupo 1019" transform="translate(15.972 20.009)">
          <path id="Trazado_12893" data-name="Trazado 12893" d="M96.964,278.65a20.107,20.107,0,0,0,7.4.1A13.842,13.842,0,0,0,101,259.158a13.849,13.849,0,0,1-4.037,19.492Z" transform="translate(-96.964 -259.158)" fill="#ddc7ff"/>
        </g>
        <g id="Grupo_1020" data-name="Grupo 1020" transform="translate(3.315 20.034)">
          <path id="Trazado_12894" data-name="Trazado 12894" d="M63.8,270.152a20.069,20.069,0,0,0,5.155,5.3,13.844,13.844,0,0,0,11.478-16.232A13.843,13.843,0,0,1,63.8,270.152Z" transform="translate(-63.804 -259.223)" fill="#ddc7ff"/>
        </g>
        <g id="Grupo_1021" data-name="Grupo 1021" transform="translate(0 15.972)">
          <path id="Trazado_12895" data-name="Trazado 12895" d="M55.119,252.559a20.009,20.009,0,0,0,.294,3.42,13.839,13.839,0,0,0,19.594-3.36,13.848,13.848,0,0,1-19.491-4.036A20.037,20.037,0,0,0,55.119,252.559Z" transform="translate(-55.119 -248.583)" fill="#ddc7ff"/>
        </g>
        <g id="Grupo_1022" data-name="Grupo 1022" transform="translate(3.631 3.315)">
          <path id="Trazado_12896" data-name="Trazado 12896" d="M64.632,220.577a13.841,13.841,0,0,0,16.232,11.478,13.845,13.845,0,0,1-10.929-16.633A20.08,20.08,0,0,0,64.632,220.577Z" transform="translate(-64.632 -215.422)" fill="#ddc7ff"/>
        </g>
      </g>
    </g>
    <path id="Trazado_12897" data-name="Trazado 12897" d="M97.692,253.009a3.7,3.7,0,1,0,3.7-3.7A3.7,3.7,0,0,0,97.692,253.009Z" transform="translate(-81.442 -233.06)" fill="#ddc7ff"/>
  </g>
  <path id="Trazado_12898" data-name="Trazado 12898" d="M102.1,255.732a2.017,2.017,0,1,0,2.017-2.017A2.017,2.017,0,0,0,102.1,255.732Z" transform="translate(-84.166 -235.784)" fill="#7021cc"/>
  <path id="Trazado_12899" data-name="Trazado 12899" d="M141.607,298.49" transform="translate(-108.595 -263.468)" fill="#fff"/>
  <path id="Trazado_12900" data-name="Trazado 12900" d="M93.335,210.178a19.957,19.957,0,1,1-20.2,33.7C100.325,250.341,110.345,226.295,93.335,210.178Z" transform="translate(-66.259 -208.865)" fill="#d4c4f2" opacity="0.5" style="mix-blend-mode: multiply;isolation: isolate"/>
  <path id="Trazado_12901" data-name="Trazado 12901" d="M86.718,247.875a20.117,20.117,0,0,0,7.4.1,19.807,19.807,0,0,0,7.594-3.022,20.066,20.066,0,0,0,5.3-5.155,19.948,19.948,0,0,0,.316-22.493,19.931,19.931,0,0,0-7.371-6.655,19.951,19.951,0,1,1-16.845,36.124A19.813,19.813,0,0,0,86.718,247.875Z" transform="translate(-72.427 -209.159)" fill="#d4c4f2" opacity="0.9" style="mix-blend-mode: multiply;isolation: isolate"/>
  <path id="Trazado_12902" data-name="Trazado 12902" d="M117.951,215.545" transform="translate(-93.968 -212.183)" fill="#ccc"/>
  <path id="Trazado_12903" data-name="Trazado 12903" d="M80.957,242.661a10.086,10.086,0,1,0,10.086-10.086A10.086,10.086,0,0,0,80.957,242.661Z" transform="translate(-71.095 -222.713)" fill="#d4c4f2" opacity="0.5" style="mix-blend-mode: multiply;isolation: isolate"/>
  <path id="Trazado_12904" data-name="Trazado 12904" d="M90.263,248.416a6.534,6.534,0,1,0,6.534-6.534A6.535,6.535,0,0,0,90.263,248.416Z" transform="translate(-76.849 -228.467)" fill="#d4c4f2" opacity="0.8" style="mix-blend-mode: multiply;isolation: isolate"/>
  <path id="Trazado_12905" data-name="Trazado 12905" d="M64.206,238.89c2.941.181,1.566-12.374,7.633-17.422s16.67-2.394,16.6-4.947c-.1-3.932-6.473-5.989-12.153-6.215-8.031-.321-16.866,6.5-17.075,14.767C59.067,230.917,59.916,238.627,64.206,238.89Z" transform="translate(-57.641 -208.937)" fill="#fff" opacity="0.2" style="mix-blend-mode: screen;isolation: isolate"/>
  <path id="Trazado_12906" data-name="Trazado 12906" d="M76.532,210.655c4.585-.049,9.571,2.163,9.3,3.783-.158.946-8.67-2.212-16.006,4.665-7.567,7.095-4.025,16.8-5.12,16.933-1.261.158-5.413-6-4.729-11.666C60.936,216.441,69.274,210.732,76.532,210.655Z" transform="translate(-58.077 -209.159)" fill="#fff" opacity="0.22" style="mix-blend-mode: screen;isolation: isolate"/>
  <path id="Trazado_12907" data-name="Trazado 12907" d="M83.486,213.479c.058-.513-3.555-2.027-7.53-1.733-5.656.418-11.58,4.465-13.563,10.231-1.6,4.651-.287,9.41.284,9.431.547.021-.027-4.318,2.608-8.888a19,19,0,0,1,10.1-8.021C79.823,213.087,83.429,213.987,83.486,213.479Z" transform="translate(-59.143 -209.811)" fill="#fff" opacity="0.37" style="mix-blend-mode: screen;isolation: isolate"/>
  <path id="Trazado_12908" data-name="Trazado 12908" d="M85.144,213.262c1.076-.128,3.205.21,2.417.526a31.224,31.224,0,0,0-7.463,3.364c-1.366.841-2.417-.158-1.787-.841A14.026,14.026,0,0,1,85.144,213.262Z" transform="translate(-69.344 -210.755)" fill="#fff" style="mix-blend-mode: screen;isolation: isolate"/>
  <path id="Trazado_12909" data-name="Trazado 12909" d="M68.082,224.663c.381-.317,1.939.151,1.682.368a16.947,16.947,0,0,0-4.993,6.516C63.51,234.332,64.3,227.816,68.082,224.663Z" transform="translate(-60.743 -217.754)" fill="#fff" style="mix-blend-mode: screen;isolation: isolate"/>
</svg>
