<svg xmlns="http://www.w3.org/2000/svg" width="44.63" height="36.577" viewBox="0 0 44.63 36.577">
  <g id="Grupo_143932" data-name="Grupo 143932" transform="translate(-0.098 -0.411)">
    <g id="Grupo_672" data-name="Grupo 672" transform="translate(9.511 37.179) rotate(-121)">
      <g id="Grupo_670" data-name="Grupo 670" transform="translate(0 0)">
        <path id="Trazado_11110" data-name="Trazado 11110" d="M12.415,3.417A1.832,1.832,0,0,1,12.5,6,1.832,1.832,0,0,1,9.92,5.86a11.12,11.12,0,0,0-.987-.925,8.521,8.521,0,0,0-1.038-.742,4.988,4.988,0,0,0-1.064-.416,3.035,3.035,0,0,0-.962-.118,2.2,2.2,0,0,0-.833.217,2.672,2.672,0,0,0-.8.5,2.285,2.285,0,0,0-.435.75,2.16,2.16,0,0,0-.154.846,3.518,3.518,0,0,0,.137,1.018,5.9,5.9,0,0,0,.467,1.1,8.451,8.451,0,0,0,.674,1.105,10.775,10.775,0,0,0,.9,1.007c.181.185.345.373.542.6l.014.017c.186.215.379.436.591.652q.257.263.542.55l.214.217.445.451c.184.188.384.386.557.557l.088.088c.183.181.37.368.563.565s.389.406.611.646l.011.011c.193.208.371.4.554.586.167.17.361.351.549.526l.018.017c.217.2.442.411.669.643s.427.46.621.68l.069.078c.162.185.314.359.461.509.191.195.4.392.58.566l.007.007c.228.218.433.415.637.623.183.186.367.369.546.546l.079.078c.166.163.382.376.587.585.238.243.459.48.654.69l.059.063c.152.165.319.343.464.491.415.423.572.6.711.749.1.115.2.223.466.491a1.752,1.752,0,1,1-2.494,2.443c-.312-.319-.441-.46-.566-.6s-.242-.267-.611-.643c-.172-.175-.343-.359-.524-.552l-.024-.026c-.182-.2-.4-.429-.628-.665-.159-.162-.328-.329-.508-.506l-.034-.033c-.238-.234-.449-.442-.67-.668-.159-.162-.333-.33-.546-.533l-.035-.034c-.208-.2-.423-.406-.642-.63s-.433-.466-.631-.692L9.8,19.329c-.173-.2-.343-.391-.505-.557s-.374-.363-.551-.528l-.02-.019c-.216-.2-.44-.41-.664-.639s-.447-.469-.637-.675-.365-.393-.537-.569-.348-.351-.521-.522l-.175-.174c-.17-.169-.344-.341-.512-.513-.149-.152-.3-.3-.439-.446l-.2-.206-.017-.015-.2-.2-.346-.351c-.3-.3-.55-.6-.754-.831l-.049-.057c-.13-.149-.253-.291-.343-.383A14.244,14.244,0,0,1,2.075,11.22,12.322,12.322,0,0,1,1.057,9.571,9.614,9.614,0,0,1,.286,7.715,7.282,7.282,0,0,1,0,5.625,5.6,5.6,0,0,1,.418,3.474,5.3,5.3,0,0,1,1.574,1.656,5.84,5.84,0,0,1,3.294.525,5.672,5.672,0,0,1,5.4.006,6.774,6.774,0,0,1,7.538.265a8.763,8.763,0,0,1,1.9.763,11.766,11.766,0,0,1,1.6,1.117A14.686,14.686,0,0,1,12.415,3.417Z" transform="translate(0.154 0.114)" fill="#79858f"/>
        <path id="Trazado_11111" data-name="Trazado 11111" d="M.171,1.395c.362.321.722.646,1.083.969a3.919,3.919,0,0,0,1.118.822,4.209,4.209,0,0,0,2.495-.09.694.694,0,0,0,.4-.317l.037.009a.286.286,0,0,0,.349-.342,3.036,3.036,0,0,0-.926-1.293A3.67,3.67,0,0,0,3.414.087C2.436-.241,1.574.472.621.341A.626.626,0,0,0,.171,1.395Z" transform="translate(12.031 20.298)" fill="#bac1c6"/>
        <path id="Trazado_11112" data-name="Trazado 11112" d="M.137,1.766A5.617,5.617,0,0,0,2.266,3.415a3.5,3.5,0,0,0,2.575-.343A.4.4,0,0,0,5,2.928l.04.018c.342.14.68-.329.491-.624a7.109,7.109,0,0,0-.979-1.041A12.681,12.681,0,0,1,3.579.154a.515.515,0,0,0-.617-.09A7.193,7.193,0,0,1,.372.932.5.5,0,0,0,.137,1.766Z" transform="translate(7.307 15.024)" fill="#bac1c6"/>
        <path id="Trazado_11113" data-name="Trazado 11113" d="M.116.913a14.925,14.925,0,0,0,1.57,1.55.612.612,0,0,0,.068.206c.211.388.662.343,1.041.33.534-.018,1.066-.054,1.6-.086a1.351,1.351,0,0,0,.984-.306.373.373,0,0,0,.378-.533A3.441,3.441,0,0,0,3.333.118C2.434,0,1.494.4.629.04.095-.18-.168.56.116.913Z" transform="translate(2.332 10.619)" fill="#bac1c6"/>
        <path id="Trazado_11114" data-name="Trazado 11114" d="M.8.3l0,0A5.177,5.177,0,0,1,.46,1.647,4.294,4.294,0,0,0,0,3.085,1.882,1.882,0,0,0,.357,4.32c.334.441.976.515,1.475.672a.391.391,0,0,0,.094.017,3.985,3.985,0,0,0,1.514.362.413.413,0,0,0,.213-.047l.111.029a.4.4,0,0,0,.208-.761l-.091-.031a.524.524,0,0,0-.034-.622c-.463-.57-.938-1.117-1.425-1.666a7.428,7.428,0,0,1-.838-1.007,1.558,1.558,0,0,0,.032-.96A.424.424,0,0,0,.8.3Z" transform="translate(0 2.871)" fill="#bac1c6"/>
        <path id="Trazado_11115" data-name="Trazado 11115" d="M.131,1.233c.807.8,2.147,1.682,3.225.768a1.136,1.136,0,0,0,.262-.323c.5-.432.709-1.357-.078-1.628A3.266,3.266,0,0,0,2.149.162L.356.434A.482.482,0,0,0,.131,1.233Z" transform="translate(9.186 3.919)" fill="#bac1c6"/>
        <path id="Trazado_11116" data-name="Trazado 11116" d="M.535.2a5.125,5.125,0,0,0-.5,2.895.476.476,0,0,0,.337.446A1.777,1.777,0,0,0,1.8,3.293a.2.2,0,0,0,.3.076c.434-.321.742-.762,1.2-1.059a3.882,3.882,0,0,1,1.583-.568c.448-.065.392-.719.009-.832C3.607.532,2.31.26,1,.009A.423.423,0,0,0,.535.2Z" transform="translate(4.574 0.203)" fill="#bac1c6"/>
        <path id="Trazado_11117" data-name="Trazado 11117" d="M.082.458C.882,1.233,1.6,2.095,2.4,2.865c.183.175.531-.051.375-.279A16.446,16.446,0,0,0,.471.077C.218-.163-.171.213.082.458Z" transform="translate(14.954 20.225)" fill="#bac1c6"/>
        <path id="Trazado_11118" data-name="Trazado 11118" d="M.086.6a15.419,15.419,0,0,0,2.1,2.348c.254.2.7-.042.5-.371A15.742,15.742,0,0,0,.585.112C.272-.22-.193.258.086.6Z" transform="translate(9.98 15.024)" fill="#bac1c6"/>
        <path id="Trazado_11119" data-name="Trazado 11119" d="M.086.48A21.347,21.347,0,0,1,1.72,2.521c.3.4.986.05.7-.386a8.373,8.373,0,0,0-.828-1.1A12.53,12.53,0,0,0,.5.076C.22-.161-.176.207.086.48Z" transform="translate(5.762 10.758)" fill="#bac1c6"/>
        <path id="Trazado_11120" data-name="Trazado 11120" d="M.056,1.06c.065.351.207.868.588.975A.349.349,0,0,0,1.064,1.8a.718.718,0,0,0-.079-.531A3.094,3.094,0,0,1,.856.777C.825.623.837.457.792.307.742.137.534-.055.337.015-.1.171-.011.691.056,1.06Z" transform="translate(3.095 6.262)" fill="#bac1c6"/>
        <path id="Trazado_11121" data-name="Trazado 11121" d="M.386.847a4.463,4.463,0,0,1,1.43.1A.4.4,0,0,0,2.028.169,3.6,3.6,0,0,0,.293.059C-.149.141-.069.881.386.847Z" transform="translate(4.718 2.951)" fill="#bac1c6"/>
        <path id="Trazado_11122" data-name="Trazado 11122" d="M.375,1.043a3.075,3.075,0,0,0,1.33.965.289.289,0,0,0,.09.009.35.35,0,0,0,.108.072.322.322,0,0,0,.352-.065.34.34,0,0,0,.09-.3,1.194,1.194,0,0,0,.16-.019.143.143,0,0,0,0-.275,2.16,2.16,0,0,1-.774-.275A2.736,2.736,0,0,1,1.067.421C.859.152.5-.18.155.116-.205.429.145.8.375,1.043Z" transform="translate(9.46 4.499)" fill="#bac1c6"/>
        <path id="Trazado_11123" data-name="Trazado 11123" d="M.122.792A7.11,7.11,0,0,0,2.383,2.885a.435.435,0,0,0,.574-.168c.095.078.191.153.29.223.309.217.782-.222.549-.537A15.233,15.233,0,0,0,2.222.773,3.552,3.552,0,0,0,1.535.147.922.922,0,0,0,1.187.038C1.16.035.723.064.8.127A.475.475,0,0,0,.122.792Z" transform="translate(12.016 20.8)" fill="#bac1c6"/>
        <path id="Trazado_11124" data-name="Trazado 11124" d="M.013.19C.146.453.358.662.475.936a2.207,2.207,0,0,0,.431.73c.248.254.557-.127.421-.387A2.3,2.3,0,0,0,.785.687C.574.491.44.236.237.034.142-.062-.051.066.013.19Z" transform="translate(9.807 16.998)" fill="#bac1c6"/>
        <path id="Trazado_11125" data-name="Trazado 11125" d="M.1.645C.364,1,.657,1.338.944,1.68a3.563,3.563,0,0,0,.864.9A.322.322,0,0,0,2.23,2.45c.11.109.192.186.226.213.291.226.583-.235.376-.483C2.37,1.626,1.828,1.133,1.344.6,1.027.243.684-.187.177.087A.361.361,0,0,0,.1.645Z" transform="translate(7.528 15.934)" fill="#bac1c6"/>
        <path id="Trazado_11126" data-name="Trazado 11126" d="M.11.589c.416.486.819.981,1.222,1.476A3.354,3.354,0,0,0,2.418,3.1a.238.238,0,0,0,.363-.182c.071.065.142.129.215.189.293.241.777.014.513-.363a16.225,16.225,0,0,0-1.5-1.682,3.739,3.739,0,0,0-.69-.642C1.054.253.756.232.5.068.117-.17-.165.268.11.589Z" transform="translate(2.35 10.651)" fill="#bac1c6"/>
        <path id="Trazado_11127" data-name="Trazado 11127" d="M.6.342A12.548,12.548,0,0,0,.14,2.332a3.183,3.183,0,0,0,.012,1.86.377.377,0,0,0,.391.188,2.019,2.019,0,0,0,.188.414.332.332,0,0,0,.617-.156c0-.39-.112-.771-.131-1.162a4.808,4.808,0,0,1,.07-1.143c.124-.654.488-1.313.239-1.982A.484.484,0,0,0,.6.342Z" transform="translate(0.071 2.971)" fill="#bac1c6"/>
        <path id="Trazado_11128" data-name="Trazado 11128" d="M.071.643a.766.766,0,0,0,.189.909c.323.259.78.125,1.161.121A6.18,6.18,0,0,1,2.775,1.8a7.883,7.883,0,0,0,1.344.351.284.284,0,0,0,.284-.2c.572.22,1.049-.64.466-.943A8.877,8.877,0,0,0,2.287.115C1.566-.009.433-.215.071.643Z" transform="translate(4.603 0)" fill="#bac1c6"/>
        <path id="Trazado_11129" data-name="Trazado 11129" d="M.124.542c.431.238.49.87.648,1.273a.174.174,0,0,0,.341-.04,1.129,1.129,0,0,0-.037-.41.278.278,0,0,0,.156-.157C1.458.595.783-.3.128.1A.256.256,0,0,0,.124.542Z" transform="translate(11.768 3.815)" fill="#bac1c6"/>
      </g>
      <path id="Trazado_11130" data-name="Trazado 11130" d="M0,0S0,0,0,0,.006,0,0,0Z" transform="translate(3.542 0.062)" fill="#1e0303"/>
    </g>
    <g id="Grupo_675" data-name="Grupo 675" transform="matrix(0.559, -0.829, 0.829, 0.559, 17.26, 24.677)">
      <g id="Grupo_673" data-name="Grupo 673" transform="translate(0 0)">
        <path id="Trazado_11133" data-name="Trazado 11133" d="M22.6,13.271a1.883,1.883,0,0,1-2.44-1.046,1.883,1.883,0,0,1,1.253-2.34,11.421,11.421,0,0,0,1.292-.516,8.756,8.756,0,0,0,1.144-.643,5.112,5.112,0,0,0,.851-.809,3.118,3.118,0,0,0,.529-.844,2.255,2.255,0,0,0,.161-.87,2.745,2.745,0,0,0-.117-.961,2.349,2.349,0,0,0-.509-.732A2.221,2.221,0,0,0,24.045,4a3.6,3.6,0,0,0-1.008-.316,6.088,6.088,0,0,0-1.227-.044,8.67,8.67,0,0,0-1.322.145,11.047,11.047,0,0,0-1.33.4c-.251.088-.5.159-.8.242l-.022.006c-.281.08-.571.163-.865.266l-.749.265-.3.1-.613.217c-.256.09-.527.19-.762.276l-.121.044c-.248.091-.5.184-.771.278s-.547.185-.868.287l-.015.005c-.277.089-.534.172-.786.26-.232.081-.485.183-.729.282l-.023.009c-.283.114-.576.232-.89.342s-.614.2-.9.282l-.1.03c-.242.07-.471.136-.675.208-.264.093-.538.2-.78.293l-.009,0c-.3.117-.575.222-.858.321-.253.089-.5.181-.746.271l-.106.039c-.224.084-.516.192-.8.292-.33.116-.647.218-.927.308l-.084.027c-.22.07-.458.147-.659.218-.574.2-.8.273-1.007.336-.153.048-.3.092-.66.22A1.883,1.883,0,0,1,.093,8.867,1.883,1.883,0,0,1,1.347,6.527c.433-.152.62-.21.8-.267s.354-.109.865-.289c.238-.083.483-.163.743-.247l.035-.011c.263-.084.573-.183.893-.3.22-.077.45-.162.693-.252l.046-.017c.321-.119.607-.225.914-.333.22-.077.453-.166.734-.276l.047-.018c.276-.107.562-.217.866-.323s.623-.2.919-.286l.023-.007c.26-.075.513-.149.738-.227s.5-.19.732-.283l.026-.011c.282-.113.573-.231.884-.34s.632-.212.906-.3.524-.168.764-.252.478-.171.713-.257l.239-.087c.231-.085.467-.171.7-.253l.606-.214.281-.1.022-.009.271-.1.477-.169c.411-.144.794-.253,1.1-.34l.074-.021c.2-.056.381-.109.506-.153a14.629,14.629,0,0,1,1.874-.55A12.645,12.645,0,0,1,21.824.016a9.888,9.888,0,0,1,2.063.091,7.493,7.493,0,0,1,2.071.645,5.762,5.762,0,0,1,1.821,1.327,5.45,5.45,0,0,1,1.188,1.868,6,6,0,0,1,.3,2.094,5.818,5.818,0,0,1-.434,2.187A6.957,6.957,0,0,1,27.662,10.1a9,9,0,0,1-1.54,1.44,12.113,12.113,0,0,1-1.737,1A15.073,15.073,0,0,1,22.6,13.271Z" transform="translate(0)" fill="#79858f"/>
        <path id="Trazado_11134" data-name="Trazado 11134" d="M3.635.041c-.457.2-.916.39-1.373.586a4.03,4.03,0,0,0-1.253.683,4.327,4.327,0,0,0-1,2.362.714.714,0,0,0,.121.51c-.008.01-.017.02-.024.03a.294.294,0,0,0,.166.473,3.119,3.119,0,0,0,1.607-.3A3.775,3.775,0,0,0,3.439,3.63c.731-.768.444-1.881.982-2.711C4.72.457,4.115-.166,3.635.041Z" transform="translate(2.22 4.972)" fill="#bac1c6"/>
        <path id="Trazado_11135" data-name="Trazado 11135" d="M3.349.028A5.772,5.772,0,0,0,.886,1.291a3.593,3.593,0,0,0-.8,2.547.414.414,0,0,0,.063.213l-.035.03a.447.447,0,0,0,.367.729,7.3,7.3,0,0,0,1.4-.458A13.053,13.053,0,0,1,3.35,3.934.529.529,0,0,0,3.7,3.4,7.4,7.4,0,0,1,4.022.61.516.516,0,0,0,3.349.028Z" transform="translate(9.144 2.694)" fill="#bac1c6"/>
        <path id="Trazado_11136" data-name="Trazado 11136" d="M3.93.014A15.35,15.35,0,0,0,1.8.8.629.629,0,0,0,1.582.773C1.129.8.974,1.24.821,1.6.605,2.1.407,2.615.2,3.125A1.389,1.389,0,0,0,.06,4.174a.383.383,0,0,0,.331.584,3.536,3.536,0,0,0,2.877-1.4c.5-.787.542-1.833,1.251-2.483C4.956.471,4.382-.1,3.93.014Z" transform="translate(15.636 0.347)" fill="#bac1c6"/>
        <path id="Trazado_11137" data-name="Trazado 11137" d="M6.093,2.2l0,0a5.333,5.333,0,0,1-1.108-.9A4.417,4.417,0,0,0,3.85.247a1.934,1.934,0,0,0-1.3-.21c-.556.119-.9.684-1.269,1.08a.408.408,0,0,0-.057.08,4.093,4.093,0,0,0-1,1.252.42.42,0,0,0-.049.218L.1,2.758a.405.405,0,0,0,.617.525l.068-.071a.538.538,0,0,0,.593.24c.732-.182,1.449-.386,2.172-.6a7.636,7.636,0,0,1,1.3-.341,1.6,1.6,0,0,0,.88.448A.436.436,0,0,0,6.093,2.2Z" transform="translate(21.972 0.27)" fill="#bac1c6"/>
        <path id="Trazado_11138" data-name="Trazado 11138" d="M2.185.026c-1.1.4-2.5,1.265-2.121,2.668a1.18,1.18,0,0,0,.186.385c.185.652.954,1.251,1.55.637a3.349,3.349,0,0,0,.5-1.344q.265-.894.528-1.788A.5.5,0,0,0,2.185.026Z" transform="translate(20.327 9.511)" fill="#bac1c6"/>
        <path id="Trazado_11139" data-name="Trazado 11139" d="M3.633,1.764A5.267,5.267,0,0,0,1.156.038.489.489,0,0,0,.594.157,1.825,1.825,0,0,0,.2,1.59a.207.207,0,0,0-.2.244c.11.543.386,1.023.462,1.58A3.993,3.993,0,0,1,.306,5.135c-.135.446.5.678.771.371C1.985,4.479,2.8,3.39,3.608,2.281A.435.435,0,0,0,3.633,1.764Z" transform="translate(25.133 5.925)" fill="#bac1c6"/>
        <path id="Trazado_11140" data-name="Trazado 11140" d="M3.4.02c-1.07.407-2.185.7-3.25,1.108-.243.094-.184.517.1.47A16.9,16.9,0,0,0,3.588.548C3.922.417,3.741-.108,3.4.02Z" transform="translate(2.157 8.071)" fill="#bac1c6"/>
        <path id="Trazado_11141" data-name="Trazado 11141" d="M3.3.013A15.83,15.83,0,0,0,.2.948c-.3.147-.264.666.128.624A16.179,16.179,0,0,0,3.54.691C3.985.544,3.743-.1,3.3.013Z" transform="translate(9.133 5.657)" fill="#bac1c6"/>
        <path id="Trazado_11142" data-name="Trazado 11142" d="M2.973.019A21.95,21.95,0,0,1,.36.651c-.5.1-.476.9.056.817A8.66,8.66,0,0,0,1.8,1.176a12.856,12.856,0,0,0,1.368-.6A.3.3,0,0,0,2.973.019Z" transform="translate(15.385 3.637)" fill="#bac1c6"/>
        <path id="Trazado_11143" data-name="Trazado 11143" d="M1.245.089C.89,0,.347-.1.081.212a.359.359,0,0,0,.04.495A.738.738,0,0,0,.65.865a3.207,3.207,0,0,1,.51.091c.157.039.306.123.465.146.18.027.45-.083.47-.3C2.141.331,1.619.187,1.245.089Z" transform="translate(21.933 2.762)" fill="#bac1c6"/>
        <path id="Trazado_11144" data-name="Trazado 11144" d="M.812.23A4.59,4.59,0,0,1,.1,1.518a.414.414,0,0,0,.63.536A3.7,3.7,0,0,0,1.587.486C1.7.039.979-.209.812.23Z" transform="translate(24.795 5.976)" fill="#bac1c6"/>
        <path id="Trazado_11145" data-name="Trazado 11145" d="M1.752.118A3.166,3.166,0,0,0,.274.935a.309.309,0,0,0-.048.08.351.351,0,0,0-.114.069.331.331,0,0,0-.093.356.35.35,0,0,0,.236.212A1.32,1.32,0,0,0,.2,1.81a.147.147,0,0,0,.255.123,2.221,2.221,0,0,1,.593-.6,2.817,2.817,0,0,1,.978-.3c.342-.076.808-.27.682-.715C2.576-.155,2.079.01,1.752.118Z" transform="translate(20.171 9.732)" fill="#bac1c6"/>
        <path id="Trazado_11146" data-name="Trazado 11146" d="M3.533.017A7.314,7.314,0,0,0,.6,1.209.446.446,0,0,0,.5,1.817c-.114.054-.227.111-.334.173-.337.194-.134.825.261.745a15.639,15.639,0,0,0,2.2-.755,3.644,3.644,0,0,0,.883-.366.942.942,0,0,0,.253-.277c.014-.023.178-.443.086-.4A.489.489,0,0,0,3.533.017Z" transform="translate(2.444 4.982)" fill="#bac1c6"/>
        <path id="Trazado_11147" data-name="Trazado 11147" d="M1.94,0c-.3.01-.59.116-.9.105A2.273,2.273,0,0,0,.176.189C-.17.309.051.762.352.749A2.366,2.366,0,0,0,1.14.5c.275-.112.57-.125.847-.225C2.118.231,2.083,0,1.94,0Z" transform="translate(9.148 4.759)" fill="#bac1c6"/>
        <path id="Trazado_11148" data-name="Trazado 11148" d="M3.056.011c-.449.1-.89.221-1.333.339A3.658,3.658,0,0,0,.507.761a.332.332,0,0,0-.062.451c-.149.055-.257.1-.3.118-.337.173-.035.645.286.561.717-.189,1.413-.479,2.123-.7.466-.142,1.016-.273.983-.865A.371.371,0,0,0,3.056.011Z" transform="translate(9.555 2.968)" fill="#bac1c6"/>
        <path id="Trazado_11149" data-name="Trazado 11149" d="M3.852.019c-.633.175-1.27.335-1.907.494a3.454,3.454,0,0,0-1.435.56.245.245,0,0,0,.011.418c-.092.038-.182.076-.27.118-.352.167-.352.718.114.636a16.618,16.618,0,0,0,2.221-.665,3.834,3.834,0,0,0,.9-.362c.27-.174.419-.442.685-.612C4.556.356,4.272-.1,3.852.019Z" transform="translate(15.98 0.482)" fill="#bac1c6"/>
        <path id="Trazado_11150" data-name="Trazado 11150" d="M4.514,2.1A12.934,12.934,0,0,0,2.862.8,3.273,3.273,0,0,0,1.124,0,.387.387,0,0,0,.779.284a2.066,2.066,0,0,0-.468,0A.341.341,0,0,0,.188.921c.364.168.767.232,1.139.384a4.941,4.941,0,0,1,1.033.564C2.915,2.27,3.37,2.9,4.1,2.955A.5.5,0,0,0,4.514,2.1Z" transform="translate(23.478 0.193)" fill="#bac1c6"/>
        <path id="Trazado_11151" data-name="Trazado 11151" d="M3.263.292a.788.788,0,0,0-.929-.22C1.952.26,1.878.744,1.715,1.1a6.346,6.346,0,0,1-.708,1.2A8.137,8.137,0,0,0,.095,3.4a.292.292,0,0,0,.067.353C-.293,4.193.3,5.013.836,4.6A9.13,9.13,0,0,0,2.789,2.585C3.218,1.968,3.9,1,3.263.292Z" transform="translate(25.47 6.888)" fill="#bac1c6"/>
        <path id="Trazado_11152" data-name="Trazado 11152" d="M1.675.048C1.265.345.651.124.207.1A.179.179,0,0,0,.1.431a1.169,1.169,0,0,0,.4.144A.284.284,0,0,0,.572.788c.471.479,1.6.242,1.511-.544A.263.263,0,0,0,1.675.048Z" transform="translate(20.455 12.233)" fill="#bac1c6"/>
      </g>
      <path id="Trazado_11153" data-name="Trazado 11153" d="M0,0A0,0,0,0,0,0,0,0,0,0,1,0,0,0Z" transform="translate(29.761 6.379)" fill="#1e0303"/>
      <g id="Grupo_674" data-name="Grupo 674" transform="translate(21.323 11.31)">
        <path id="Trazado_11155" data-name="Trazado 11155" d="M.36.064C.4.17.333.262.337.368A.263.263,0,0,0,.486.6C.669.69.525.966.339.883A.563.563,0,0,1,.006.444C-.019.288.027,0,.255,0A.1.1,0,0,1,.36.064Z" transform="translate(0 0)" fill="#bac1c6"/>
      </g>
    </g>
  </g>
</svg>
