<svg id="Grupo_14414" data-name="Grupo 14414" xmlns="http://www.w3.org/2000/svg" width="31.176" height="31.172" viewBox="0 0 31.176 31.172">
  <circle id="Elipse_71" data-name="Elipse 71" cx="15.584" cy="15.584" r="15.584" transform="translate(0.004 0)" fill="#4da600"/>
  <g id="Grupo_1058" data-name="Grupo 1058" transform="translate(0 0.41)">
    <path id="Trazado_13004" data-name="Trazado 13004" d="M55.119,360.573c0,.342.01.679.033,1.016a15.512,15.512,0,0,0,1.347,5.4,15.5,15.5,0,0,0,1.21,2.191,15.687,15.687,0,0,0,3.436,3.706c.342.2.692.385,1.048.559a17.737,17.737,0,0,0,2.349.93,17.29,17.29,0,0,0,2.47.555,15.949,15.949,0,0,0,5.093-.07,13.492,13.492,0,0,0,4.829-1.912,13.7,13.7,0,0,0,6.333-10.912c.019-.436.024-.874,0-1.31a6.283,6.283,0,0,0-.054-.665l-.077-.673a11.49,11.49,0,0,0-2.091-4.953c-.067-.091-.128-.188-.2-.273l-.221-.258-.441-.513c-.157-.161-.322-.315-.485-.473a5.913,5.913,0,0,0-.5-.452,10.64,10.64,0,0,0-1.088-.8c-.191-.121-.377-.251-.573-.363l-.6-.312-.3-.152c-.1-.046-.208-.086-.313-.128l-.631-.249c-.21-.084-.431-.133-.646-.2s-.432-.134-.653-.174l-.666-.123-.334-.06-.336-.028-.673-.053a2.783,2.783,0,0,0-.338-.007l-.336.005c-.226.007-.448.005-.676.023l-.693.084a5.761,5.761,0,0,0-.687.132,5.929,5.929,0,0,0-.678.178l-.664.224-.641.287a5.993,5.993,0,0,0-.617.33,5.485,5.485,0,0,0-.59.373,9.152,9.152,0,0,0-2.037,1.888c-.138.185-.292.361-.417.557l-.373.587c-.119.2-.217.41-.324.615-.051.1-.107.2-.152.312l-.128.324-.126.324-.061.161-.049.169-.187.667c-.049.226-.086.455-.128.683a5.377,5.377,0,0,0-.077.688l-.024.345-.01.174,0,.172.019.69a8.142,8.142,0,0,0,.23,1.413,7.678,7.678,0,0,0,5.867,5.629c.233.038.466.086.7.112l.7.049.7-.023c.238-.018.487-.058.727-.091a6.354,6.354,0,0,0,2.661-1.184,6.229,6.229,0,0,0,1.827-2.228,6.1,6.1,0,0,0,.638-2.785,5.524,5.524,0,0,0-.2-1.457,5.17,5.17,0,0,0-1.582-2.477,5.313,5.313,0,0,0-1.237-.79,5.118,5.118,0,0,0-1.4-.4,3.6,3.6,0,0,0-.363-.033,3.134,3.134,0,0,0-.363-.009l-.363.016c-.123.012-.25.033-.374.051a4.181,4.181,0,0,0-2.542,1.506,4.029,4.029,0,0,0-.886,2.759,3.458,3.458,0,0,0,.4,1.461,3.415,3.415,0,0,0,.995,1.128,3.243,3.243,0,0,0,1.368.576,2.6,2.6,0,0,0,.369.042,2.367,2.367,0,0,0,.368,0,2.725,2.725,0,0,0,1.992-1.011,2.769,2.769,0,0,0,.385-.646,2.892,2.892,0,0,0,.186-.723,2.672,2.672,0,0,0,.012-.371l-.01-.186-.028-.191a2.167,2.167,0,0,0-1.442-1.648,2.14,2.14,0,0,0-.734-.1,1.76,1.76,0,0,0-.739.182,1.71,1.71,0,0,0-.912,1.145,1.748,1.748,0,0,0-.042.368c0,.061.005.123.009.184a1.744,1.744,0,0,0,.033.189,1.363,1.363,0,0,0,1.019,1.012,1.35,1.35,0,0,0,.364.032,1.061,1.061,0,0,0,.37-.081,1.09,1.09,0,0,0,.548-.49,1.053,1.053,0,0,0,.1-.709.857.857,0,0,0-.431-.571.8.8,0,0,0-.692-.032.652.652,0,0,0-.378.557.539.539,0,0,0,.084.331.494.494,0,0,0,.266.2.451.451,0,0,0,.326-.012.391.391,0,0,0,.21-.234.333.333,0,0,0-.042-.3.286.286,0,0,0-.259-.11.263.263,0,0,1,.228.132.27.27,0,0,1,0,.248.293.293,0,0,1-.178.158.342.342,0,0,1-.231-.025.332.332,0,0,1-.186-.373.4.4,0,0,1,.268-.312.473.473,0,0,1,.6.408.605.605,0,0,1-.109.387.554.554,0,0,1-.315.217.677.677,0,0,1-.385-.023.71.71,0,0,1-.319-.222.691.691,0,0,1-.145-.341.854.854,0,0,1-.005-.091l.005-.1a.992.992,0,0,1,.045-.192.865.865,0,0,1,.52-.529.853.853,0,0,1,.368-.046,1.155,1.155,0,0,1,.38.1,1.059,1.059,0,0,1,.529.526,1.112,1.112,0,0,1,.095.35l0,.089-.005.1a1.438,1.438,0,0,1-.025.2,1.348,1.348,0,0,1-1,1.035,1.271,1.271,0,0,1-.37.032l-.1,0c-.033,0-.067-.01-.1-.014a1.241,1.241,0,0,1-.194-.04,1.648,1.648,0,0,1-.685-.361,1.731,1.731,0,0,1-.45-.608,1.7,1.7,0,0,1-.128-.734,2.178,2.178,0,0,1,.589-1.445,2.13,2.13,0,0,1,1.347-.668c.063,0,.124-.01.189-.01l.208.007a1.3,1.3,0,0,1,.205.021,1.347,1.347,0,0,1,.2.031,2.8,2.8,0,0,1,.762.273,2.949,2.949,0,0,1,.646.476,2.827,2.827,0,0,1,.478.632,2.869,2.869,0,0,1,.273.73,3.182,3.182,0,0,1,.054.8,3.454,3.454,0,0,1-.457,1.592,3.489,3.489,0,0,1-1.105,1.2,3.615,3.615,0,0,1-1.494.581c-.137.007-.264.026-.406.03s-.289-.005-.435,0c-.143-.019-.287-.037-.431-.051s-.28-.061-.42-.088a4.671,4.671,0,0,1-1.545-.721,4.594,4.594,0,0,1-1.828-2.751,4.7,4.7,0,0,1-.105-.835l0-.449,0-.112.014-.112.024-.222a2.843,2.843,0,0,1,.065-.44c.032-.145.056-.29.091-.436l.131-.424.032-.107.044-.1.087-.2.084-.207c.03-.067.07-.129.105-.194.074-.13.135-.265.214-.389l.249-.368c.081-.124.186-.229.275-.347a5.813,5.813,0,0,1,1.319-1.165,2.932,2.932,0,0,1,.379-.223,2.758,2.758,0,0,1,.392-.2c.135-.056.268-.115.4-.175l.418-.132a2.916,2.916,0,0,1,.424-.1,3.021,3.021,0,0,1,.431-.077l.438-.049c.151-.007.308,0,.463,0l.233,0a1.707,1.707,0,0,1,.231.007l.461.046.231.021.228.046.454.089c.15.028.294.088.443.128s.3.079.44.14l.426.177c.072.03.143.056.214.087l.2.11q.2.111.409.215c.133.077.257.168.388.251a6.9,6.9,0,0,1,.739.552,3.178,3.178,0,0,1,.341.312l.331.321.3.353.151.175a2.056,2.056,0,0,1,.133.187,7.864,7.864,0,0,1,1.407,3.366l.052.459a3.63,3.63,0,0,1,.042.468c.019.322.016.645,0,.967a9.983,9.983,0,0,1-.266,1.907A10.373,10.373,0,0,1,75,369.959a10.411,10.411,0,0,1-3.565,1.487,12.609,12.609,0,0,1-3.976.142,15.657,15.657,0,0,1-1.983-.389,14.3,14.3,0,0,1-1.909-.683A13.759,13.759,0,0,1,57.5,365.2a14.253,14.253,0,0,1-.949-1.829,14.1,14.1,0,0,1-.665-1.96,14.306,14.306,0,0,1-.364-2.047c-.032-.35-.055-.707-.077-1.062l-.01-.532c0-.1-.007-.195-.007-.291-.007.038-.014.075-.021.114A15.574,15.574,0,0,0,55.119,360.573Z" transform="translate(-55.119 -345.399)" fill="#e2f7ad"/>
    <g id="Grupo_1056" data-name="Grupo 1056" transform="translate(4.145 1.309)">
      <path id="Trazado_13005" data-name="Trazado 13005" d="M87.589,339.4a15.6,15.6,0,1,1-18.574,24.445c5.188,2.785,14.615,4.77,20.58-3.7S91.192,343.5,87.589,339.4Z" transform="translate(-69.015 -339.402)" fill="#d6e5a8" opacity="0.5" style="mix-blend-mode: multiply;isolation: isolate"/>
      <path id="Trazado_13006" data-name="Trazado 13006" d="M80.89,367.782a15.7,15.7,0,0,0,5.736.713,15.482,15.482,0,0,0,6.157-1.7,15.687,15.687,0,0,0,4.56-3.55,15.588,15.588,0,0,0,2.171-17.443,15.561,15.561,0,0,0-5.155-5.8,15.59,15.59,0,1,1-16.177,26.615A15.467,15.467,0,0,0,80.89,367.782Z" transform="translate(-75.448 -339.826)" fill="#d6e5a8" style="mix-blend-mode: multiply;isolation: isolate"/>
    </g>
    <g id="Grupo_1057" data-name="Grupo 1057" transform="translate(1.226)">
      <path id="Trazado_13007" data-name="Trazado 13007" d="M65.723,356.418c2.3.141,2.918-2.117,9.015-7.693,5.335-4.878,7.384-5.458,7.332-7.452-.081-3.072-5.057-6.073-9.5-6.25-6.276-.25-13.18,5.077-13.343,11.539C59.117,351.129,62.37,356.213,65.723,356.418Z" transform="translate(-59.229 -335.014)" fill="#fff" opacity="0.2" style="mix-blend-mode: screen;isolation: isolate"/>
      <path id="Trazado_13008" data-name="Trazado 13008" d="M73.4,338.66c3.583-.038,7.479,1.691,7.268,2.957-.123.739-4.863.293-10.595,5.667-5.913,5.544-5.057,11.1-5.913,11.21-.985.123-4.23-4.692-3.7-9.116C61.21,343.182,67.726,338.72,73.4,338.66Z" transform="translate(-60.053 -337.572)" fill="#fff" opacity="0.22" style="mix-blend-mode: screen;isolation: isolate"/>
      <path id="Trazado_13009" data-name="Trazado 13009" d="M62.145,348.739A14.058,14.058,0,0,1,75.486,339.4c1.807.006,5.964,1.252,2.487,1.24A16.675,16.675,0,0,0,62.9,350.394C62.194,351.9,61.6,350.307,62.145,348.739Z" transform="translate(-61.125 -338.093)" fill="#fff" opacity="0.25" style="mix-blend-mode: screen;isolation: isolate"/>
      <path id="Trazado_13010" data-name="Trazado 13010" d="M84.407,341.211c.841-.1,2.505.165,1.889.411a24.409,24.409,0,0,0-5.831,2.628c-1.067.657-1.889-.123-1.4-.657A10.959,10.959,0,0,1,84.407,341.211Z" transform="translate(-73.048 -339.348)" fill="#fff" style="mix-blend-mode: screen;isolation: isolate"/>
      <path id="Trazado_13011" data-name="Trazado 13011" d="M68.034,352.594c.3-.248,1.515.118,1.314.288a13.239,13.239,0,0,0-3.9,5.092C64.461,360.15,65.077,355.058,68.034,352.594Z" transform="translate(-63.287 -347.292)" fill="#fff" style="mix-blend-mode: screen;isolation: isolate"/>
    </g>
  </g>
</svg>
