<svg id="reloj-de-pared" xmlns="http://www.w3.org/2000/svg" width="17.848" height="17.848" viewBox="0 0 17.848 17.848">
  <g id="Grupo_14391" data-name="Grupo 14391">
    <g id="Grupo_14390" data-name="Grupo 14390">
      <path id="Trazado_13677" data-name="Trazado 13677" d="M415.426,376.865a.7.7,0,0,0-.975.143c-.126.17-.262.337-.4.5a.7.7,0,1,0,1.045.924c.166-.188.326-.385.476-.587A.7.7,0,0,0,415.426,376.865Z" transform="translate(-399.446 -363.594)" fill="#79858f"/>
      <path id="Trazado_13678" data-name="Trazado 13678" d="M463.538,286.44a.7.7,0,0,0-.83.533c-.045.207-.1.414-.162.616a.7.7,0,1,0,1.332.412c.074-.24.139-.486.192-.731A.7.7,0,0,0,463.538,286.44Z" transform="translate(-446.392 -276.439)" fill="#79858f"/>
      <path id="Trazado_13679" data-name="Trazado 13679" d="M335.006,442.282c-.185.1-.377.2-.57.287a.7.7,0,1,0,.574,1.271c.229-.1.456-.218.675-.34a.7.7,0,0,0-.68-1.217Z" transform="translate(-322.381 -426.778)" fill="#79858f"/>
      <path id="Trazado_13680" data-name="Trazado 13680" d="M159.564,76.7v5.289l-2.557,2.557a.7.7,0,0,0,.986.986l2.761-2.761a.7.7,0,0,0,.2-.493V76.7a.7.7,0,1,0-1.394,0Z" transform="translate(-151.337 -73.351)" fill="#79858f"/>
      <path id="Trazado_13681" data-name="Trazado 13681" d="M17.151,1.5a.7.7,0,0,0-.7.7V4.132a8.925,8.925,0,1,0-7.53,13.716h.035c.251,0,.505-.011.754-.031a.7.7,0,1,0-.116-1.39c-.211.018-.425.027-.638.027H8.924A7.53,7.53,0,1,1,15.406,5.09H13.489a.7.7,0,0,0,0,1.394h2.128a2.218,2.218,0,0,0,1.16-.326.7.7,0,0,0,.063-.04,2.231,2.231,0,0,0,1.008-1.865V2.2A.7.7,0,0,0,17.151,1.5Z" fill="#79858f"/>
    </g>
  </g>
</svg>
