<svg id="empleado" xmlns="http://www.w3.org/2000/svg" width="91.771" height="113.98" viewBox="0 0 91.771 113.98">
  <g id="icon_40_" transform="translate(0 0)">
    <path id="Trazado_15898" data-name="Trazado 15898" d="M146.559,360.091l-.339,2.71-.452,3.6-2.824,22.736H65.284L62.46,366.4l-.452-3.6-.339-2.71Z" transform="translate(-58.229 -275.161)" fill="#f6b863"/>
    <g id="Grupo_15800" data-name="Grupo 15800" transform="translate(29.596 21.106)">
      <path id="Trazado_15899" data-name="Trazado 15899" d="M210.276,149.6h14.79v10.982h-14.79Z" transform="translate(-201.381 -135.421)" fill="#f4bb87"/>
      <path id="Trazado_15900" data-name="Trazado 15900" d="M175.737,89.487a3.173,3.173,0,0,0-3.173,3.173v.352a3.173,3.173,0,0,0,3.173,3.169,1.236,1.236,0,0,0,1.236-1.236V90.72A1.236,1.236,0,0,0,175.737,89.487Z" transform="translate(-172.564 -89.487)" fill="#f4bb87"/>
      <path id="Trazado_15901" data-name="Trazado 15901" d="M293.282,89.487a3.173,3.173,0,0,1,3.173,3.173v.352a3.173,3.173,0,0,1-3.173,3.169,1.236,1.236,0,0,1-1.236-1.236V90.72A1.236,1.236,0,0,1,293.282,89.487Z" transform="translate(-263.865 -89.487)" fill="#f4bb87"/>
    </g>
    <path id="Trazado_15902" data-name="Trazado 15902" d="M210.788,43.828V56.453c0,.4-1.826,8.362-6.614,12.659-1.012.908-1.668,2.171-3.14,2.905a9.356,9.356,0,0,1-8.016,0c-1.469-.735-2.128-2-3.14-2.905-4.787-4.3-6.647-12.258-6.647-12.659V43.828C191.983,40.855,201.2,41.122,210.788,43.828Z" transform="translate(-151.119 -31.863)" fill="#fed19a"/>
    <path id="Trazado_15903" data-name="Trazado 15903" d="M178.9,21.31s4.17-2.453,4.905-8.977c0,0,3.336,1.618,12.63,3.079s10.02,5.845,10.02,5.845a19.368,19.368,0,0,0,.3-12.8C202.982-.519,191.27-1.706,187.408,1.9,172.534,3.483,178.9,21.31,178.9,21.31Z" transform="translate(-146.774 -0.001)" fill="#414451"/>
    <path id="Trazado_15904" data-name="Trazado 15904" d="M166.278,196.1C159.987,201.951,148,202.97,148,202.97H122.424s-11.987-1.019-18.278-6.871c-4.39-4.082.324-14.734,3.574-20.8a16.8,16.8,0,0,1,8.867-7.839,87.209,87.209,0,0,1,9.313-2.745c.088-.018.175-.035.246-.053.756-.193,1.336-.317,1.722-.4.278,4.569,3.058,7.416,7.345,7.45,4.287-.035,7.064-2.882,7.345-7.45.386.088.973.211,1.722.4.071.018.158.035.246.053a87.232,87.232,0,0,1,9.313,2.743,16.8,16.8,0,0,1,8.861,7.838c3.256,6.07,7.969,16.723,3.58,20.805Z" transform="translate(-89.326 -125.515)" fill="#ef5261"/>
    <path id="Trazado_15905" data-name="Trazado 15905" d="M221.32,164.678c-.457,5.307-3.971,8.757-9.049,8.8-5.1-.053-8.628-3.5-9.085-8.8.756-.193,1.336-.317,1.722-.4.278,4.569,3.058,7.416,7.345,7.45,4.287-.035,7.064-2.881,7.345-7.45C219.984,164.361,220.564,164.484,221.32,164.678Z" transform="translate(-166.368 -125.528)" fill="#da364c"/>
    <path id="Trazado_15906" data-name="Trazado 15906" d="M179.365,212.923H133.848a3.484,3.484,0,0,0-3.458,3.906l2.747,22.464a3.483,3.483,0,0,0,3.454,3.058h40.032a3.483,3.483,0,0,0,3.458-3.058l2.747-22.465a3.483,3.483,0,0,0-3.037-3.879A3.412,3.412,0,0,0,179.365,212.923Z" transform="translate(-110.721 -162.703)" fill="#eeefee"/>
    <path id="Trazado_15907" data-name="Trazado 15907" d="M48.213,337.709h89.511a1.13,1.13,0,0,1,1.13,1.13v5.734a1.13,1.13,0,0,1-1.13,1.13H48.213a1.13,1.13,0,0,1-1.13-1.13v-5.734a1.13,1.13,0,0,1,1.13-1.13Z" transform="translate(-47.083 -258.058)" fill="#f6b863"/>
    <path id="Trazado_15908" data-name="Trazado 15908" d="M228.534,264.859c0,1.946-2.606,3.506-5.855,3.506s-5.838-1.559-5.838-3.506,2.606-3.487,5.838-3.487S228.534,262.931,228.534,264.859Z" transform="translate(-176.802 -199.725)" fill="#dbd8dd"/>
    <path id="Trazado_15909" data-name="Trazado 15909" d="M147.319,371.583l-.452,3.6H63.559l-.452-3.6Z" transform="translate(-59.328 -283.942)" fill="#eaa14e"/>
  </g>
</svg>
