<svg xmlns="http://www.w3.org/2000/svg" width="61.401" height="61.31" viewBox="0 0 61.401 61.31">
  <g id="Grupo_15802" data-name="Grupo 15802" transform="translate(61.401 30.236) rotate(133)">
    <path id="Trazado_14956" data-name="Trazado 14956" d="M4.353,6.971C17.869-2.545,30.251.054,37.427,1.239A5.772,5.772,0,0,1,42.488,6.9a37.909,37.909,0,0,1-3.722,16.2c-.009.027-.02.052-.03.079-.05.136-.1.27-.153.4q-.119.312-.241.619-.083.208-.169.414-.121.294-.245.584c-.059.137-.119.272-.179.408q-.126.285-.256.565c-.061.132-.122.264-.184.394q-.132.279-.267.552c-.062.126-.123.252-.186.376-.094.186-.189.369-.285.552-.06.114-.12.23-.18.343-.105.2-.212.389-.319.581-.052.094-.1.19-.156.283-.133.234-.266.463-.4.69-.028.049-.057.1-.085.146q-.246.413-.5.811c-.038.06-.076.118-.114.178-.128.2-.256.4-.385.6-.058.088-.116.174-.174.26-.109.163-.217.325-.326.484l-.2.286q-.151.218-.3.43-.1.146-.209.289c-.1.135-.2.267-.292.4q-.1.141-.209.279-.146.193-.29.38l-.208.267c-.1.122-.191.241-.285.358-.069.085-.136.171-.2.254-.1.12-.194.236-.29.352l-.189.227c-.1.121-.2.237-.3.355-.056.064-.112.131-.167.194-.12.137-.237.269-.355.4-.506.566-.988,1.076-1.429,1.522a6.227,6.227,0,0,1-3.722,1.81h0a6.152,6.152,0,0,1-.743.036h-.1a6.025,6.025,0,0,1-.709-.059l-.128-.019a6.036,6.036,0,0,1-.7-.155l-.105-.032a6.123,6.123,0,0,1-.714-.264q-.379-.17-.754-.363c-.083-.042-.165-.088-.247-.132-.168-.089-.336-.179-.5-.274-.1-.056-.194-.115-.292-.173-.151-.09-.3-.181-.454-.276l-.162-.1C11.24,34.445,3.98,23.233.428,16.95-1.063,14.314,1.609,8.9,4.353,6.971Z" transform="translate(0 0)" fill="#ba320d" opacity="0.26" style="mix-blend-mode: multiply;isolation: isolate"/>
    <g id="Grupo_14868" data-name="Grupo 14868" transform="translate(0 4.989)">
      <path id="Trazado_14957" data-name="Trazado 14957" d="M.428,16.95c3.715,6.568,11.48,18.532,20.4,21.961a7.3,7.3,0,0,0,7.459-1.577c4.9-4.593,14.172-15.279,14.2-30.434a5.772,5.772,0,0,0-5.061-5.66C30.251.054,17.869-2.545,4.353,6.971,1.609,8.9-1.063,14.314.428,16.95Z" transform="translate(0 0)" fill="#2fa8a6"/>
      <path id="Trazado_14958" data-name="Trazado 14958" d="M.771,15.51C4.492,22.3,12.2,34.7,20.675,38.5a6.184,6.184,0,0,0,6.916-1.317C32,32.722,40.272,22.253,39.728,6.913A6.276,6.276,0,0,0,34.783.994c-6.755-1.468-20-2.606-32.285,6.52A6.231,6.231,0,0,0,.771,15.51Z" transform="translate(1.409 1.227)" fill="#71e5e6"/>
      <path id="Trazado_14959" data-name="Trazado 14959" d="M12.968.351A17.213,17.213,0,0,1,24.76,9.943a12.939,12.939,0,0,1-2.954,15,6.09,6.09,0,0,1-3.194-.494C11.022,21.035,4.046,10.73,0,3.74,3.361.345,8.377-.6,12.968.351Z" transform="translate(3.472 15.286)" fill="#9beaea"/>
      <path id="Trazado_14960" data-name="Trazado 14960" d="M38.851,6.913A40.971,40.971,0,0,1,28.04,35.78C33.429,29.794,36.312,11.9,29,6.254,24.069,2.445,3.432,3.54,0,9.316a6.14,6.14,0,0,1,1.62-1.8C13.9-1.612,27.15-.474,33.9.994A6.276,6.276,0,0,1,38.851,6.913Z" transform="translate(2.287 1.227)" fill="#42ccca"/>
      <g id="Grupo_14867" data-name="Grupo 14867" transform="translate(3.026 3.008)">
        <g id="Grupo_14804" data-name="Grupo 14804" transform="translate(15.088 28.039)">
          <path id="Trazado_14961" data-name="Trazado 14961" d="M.2,0A.212.212,0,0,1,.207.424.212.212,0,0,1,.2,0Z" transform="translate(0)" fill="#e2f2f1"/>
        </g>
        <g id="Grupo_14805" data-name="Grupo 14805" transform="translate(16.292 25.627)">
          <path id="Trazado_14962" data-name="Trazado 14962" d="M.115.089C.408-.149.909.125.69.51.415,1-.27.4.115.089Z" transform="translate(0 0)" fill="#e2f2f1"/>
        </g>
        <g id="Grupo_14806" data-name="Grupo 14806" transform="translate(20.126 27.899)">
          <path id="Trazado_14963" data-name="Trazado 14963" d="M.157,0a.165.165,0,0,1,0,.33.165.165,0,0,1,0-.33Z" transform="translate(0 0)" fill="#e2f2f1"/>
        </g>
        <g id="Grupo_14807" data-name="Grupo 14807" transform="translate(12.2 20.245)">
          <path id="Trazado_14964" data-name="Trazado 14964" d="M1.3,0a1.358,1.358,0,0,1,.032,2.715A1.358,1.358,0,0,1,1.3,0Z" transform="translate(0)" fill="#e2f2f1"/>
        </g>
        <g id="Grupo_14808" data-name="Grupo 14808" transform="translate(16.785 19.74)">
          <path id="Trazado_14965" data-name="Trazado 14965" d="M1.345,0A1.379,1.379,0,0,1,2.722,1.344,1.384,1.384,0,0,1,1.378,2.721,1.379,1.379,0,0,1,0,1.377,1.384,1.384,0,0,1,1.345,0Z" transform="translate(0)" fill="#e2f2f1"/>
        </g>
        <g id="Grupo_14809" data-name="Grupo 14809" transform="translate(17.162 28.197)">
          <path id="Trazado_14966" data-name="Trazado 14966" d="M1.1,0a1.148,1.148,0,0,1,.027,2.295A1.148,1.148,0,0,1,1.1,0Z" transform="translate(0)" fill="#e2f2f1"/>
        </g>
        <g id="Grupo_14810" data-name="Grupo 14810" transform="translate(16.243 32.439)">
          <path id="Trazado_14967" data-name="Trazado 14967" d="M.5,0A.521.521,0,0,1,.509,1.041.521.521,0,0,1,.5,0Z" transform="translate(0 0)" fill="#e2f2f1"/>
        </g>
        <g id="Grupo_14811" data-name="Grupo 14811" transform="translate(20.48 31.354)">
          <path id="Trazado_14968" data-name="Trazado 14968" d="M.376,0A.394.394,0,0,1,.385.787.394.394,0,0,1,.376,0Z" transform="translate(0)" fill="#e2f2f1"/>
        </g>
        <g id="Grupo_14812" data-name="Grupo 14812" transform="translate(8.986 24.105)">
          <path id="Trazado_14969" data-name="Trazado 14969" d="M.808,0A.848.848,0,0,1,.829,1.694.848.848,0,0,1,.808,0Z" transform="translate(0 0)" fill="#e2f2f1"/>
        </g>
        <g id="Grupo_14813" data-name="Grupo 14813" transform="translate(11.081 27.365)">
          <path id="Trazado_14970" data-name="Trazado 14970" d="M.675,0A.707.707,0,0,1,.692,1.414.707.707,0,0,1,.675,0Z" transform="translate(0 0)" fill="#e2f2f1"/>
        </g>
        <g id="Grupo_14814" data-name="Grupo 14814" transform="translate(7.439 21.411)">
          <path id="Trazado_14971" data-name="Trazado 14971" d="M.4,0a.421.421,0,0,1,.01.841A.421.421,0,0,1,.4,0Z" transform="translate(0 0)" fill="#e2f2f1"/>
        </g>
        <g id="Grupo_14815" data-name="Grupo 14815" transform="translate(11.948 24.094)">
          <path id="Trazado_14972" data-name="Trazado 14972" d="M.465,0A.487.487,0,0,1,.476.973.487.487,0,0,1,.465,0Z" transform="translate(0)" fill="#e2f2f1"/>
        </g>
        <g id="Grupo_14816" data-name="Grupo 14816" transform="translate(6.427 22.303)">
          <path id="Trazado_14973" data-name="Trazado 14973" d="M.388,0A.407.407,0,0,1,.4.814.407.407,0,0,1,.388,0Z" transform="translate(0 0)" fill="#e2f2f1"/>
        </g>
        <g id="Grupo_14817" data-name="Grupo 14817" transform="translate(3.719 18.121)">
          <path id="Trazado_14974" data-name="Trazado 14974" d="M.535,0a.561.561,0,0,1,.014,1.12A.561.561,0,0,1,.535,0Z" transform="translate(0 0)" fill="#e2f2f1"/>
        </g>
        <g id="Grupo_14818" data-name="Grupo 14818" transform="translate(4.821 20.92)">
          <path id="Trazado_14975" data-name="Trazado 14975" d="M.2,0a.214.214,0,0,1,0,.427A.214.214,0,0,1,.2,0Z" transform="translate(0 0)" fill="#e2f2f1"/>
        </g>
        <g id="Grupo_14819" data-name="Grupo 14819" transform="translate(7.312 17.452)">
          <path id="Trazado_14976" data-name="Trazado 14976" d="M.624,0A.654.654,0,0,1,.64,1.307.654.654,0,0,1,.624,0Z" transform="translate(0 0)" fill="#e2f2f1"/>
        </g>
        <g id="Grupo_14820" data-name="Grupo 14820" transform="translate(8.559 19.433)">
          <path id="Trazado_14977" data-name="Trazado 14977" d="M.656,0A.688.688,0,0,1,.673,1.374.688.688,0,0,1,.656,0Z" transform="translate(0 0)" fill="#e2f2f1"/>
        </g>
        <g id="Grupo_14821" data-name="Grupo 14821" transform="translate(22.141 34.734)">
          <path id="Trazado_14978" data-name="Trazado 14978" d="M.28,0A.294.294,0,0,1,.287.587.294.294,0,0,1,.28,0Z" transform="translate(0)" fill="#e2f2f1"/>
        </g>
        <g id="Grupo_14822" data-name="Grupo 14822" transform="translate(18.797 35.605)">
          <path id="Trazado_14979" data-name="Trazado 14979" d="M.3,0A.314.314,0,0,1,.307.627.314.314,0,0,1,.3,0Z" transform="translate(0 0)" fill="#e2f2f1"/>
        </g>
        <g id="Grupo_14823" data-name="Grupo 14823" transform="translate(18.956 33.428)">
          <path id="Trazado_14980" data-name="Trazado 14980" d="M.484,0A.507.507,0,0,1,.5,1.014.507.507,0,0,1,.484,0Z" transform="translate(0)" fill="#e2f2f1"/>
        </g>
        <g id="Grupo_14824" data-name="Grupo 14824" transform="translate(20.83 35.717)">
          <path id="Trazado_14981" data-name="Trazado 14981" d="M.446,0A.467.467,0,0,1,.457.934.467.467,0,0,1,.446,0Z" transform="translate(0 0)" fill="#e2f2f1"/>
        </g>
        <g id="Grupo_14825" data-name="Grupo 14825" transform="translate(22.398 32.03)">
          <path id="Trazado_14982" data-name="Trazado 14982" d="M.324,0A.34.34,0,0,1,.333.681.34.34,0,0,1,.324,0Z" transform="translate(0)" fill="#e2f2f1"/>
        </g>
        <g id="Grupo_14826" data-name="Grupo 14826" transform="translate(25.048 34.781)">
          <path id="Trazado_14983" data-name="Trazado 14983" d="M.07,0a.074.074,0,0,1,0,.147A.074.074,0,0,1,.07,0Z" transform="translate(0)" fill="#e2f2f1"/>
        </g>
        <g id="Grupo_14827" data-name="Grupo 14827" transform="translate(25.506 33.088)">
          <path id="Trazado_14984" data-name="Trazado 14984" d="M.471,0A.494.494,0,0,1,.483.987.494.494,0,0,1,.471,0Z" transform="translate(0)" fill="#e2f2f1"/>
        </g>
        <g id="Grupo_14828" data-name="Grupo 14828" transform="translate(23.43 31.16)">
          <path id="Trazado_14985" data-name="Trazado 14985" d="M.318,0A.334.334,0,0,1,.326.667.334.334,0,0,1,.318,0Z" transform="translate(0)" fill="#e2f2f1"/>
        </g>
        <g id="Grupo_14829" data-name="Grupo 14829" transform="translate(25.379 32.099)">
          <path id="Trazado_14986" data-name="Trazado 14986" d="M.395,0A.414.414,0,0,1,.4.827.414.414,0,0,1,.395,0Z" transform="translate(0)" fill="#e2f2f1"/>
        </g>
        <g id="Grupo_14830" data-name="Grupo 14830" transform="translate(25.811 29.309)">
          <path id="Trazado_14987" data-name="Trazado 14987" d="M.022.67C.015.6.008.538,0,.472A.469.469,0,0,1,.343.016.492.492,0,0,1,.869.226L1,.393a.529.529,0,0,1-.31.779A.538.538,0,0,1,.022.67Z" transform="translate(0 0)" fill="#e2f2f1"/>
        </g>
        <g id="Grupo_14831" data-name="Grupo 14831" transform="translate(22.519 27.13)">
          <path id="Trazado_14988" data-name="Trazado 14988" d="M.649,0A.681.681,0,0,1,.666,1.36.681.681,0,0,1,.649,0Z" transform="translate(0)" fill="#e2f2f1"/>
        </g>
        <g id="Grupo_14832" data-name="Grupo 14832" transform="translate(23.526 24.861)">
          <path id="Trazado_14989" data-name="Trazado 14989" d="M.5,0A.527.527,0,0,1,.515,1.054.527.527,0,0,1,.5,0Z" transform="translate(0)" fill="#e2f2f1"/>
        </g>
        <g id="Grupo_14833" data-name="Grupo 14833" transform="translate(26.358 27.459)">
          <path id="Trazado_14990" data-name="Trazado 14990" d="M.618,0A.648.648,0,0,1,.633,1.294.648.648,0,0,1,.618,0Z" transform="translate(0)" fill="#e2f2f1"/>
        </g>
        <g id="Grupo_14834" data-name="Grupo 14834" transform="translate(27.009 30.706)">
          <path id="Trazado_14991" data-name="Trazado 14991" d="M.579,0A.607.607,0,0,1,.594,1.214.607.607,0,0,1,.579,0Z" transform="translate(0)" fill="#e2f2f1"/>
        </g>
        <g id="Grupo_14835" data-name="Grupo 14835" transform="translate(7.841 16.002)">
          <path id="Trazado_14992" data-name="Trazado 14992" d="M.681,0A.714.714,0,0,1,.7,1.428.714.714,0,0,1,.681,0Z" transform="translate(0)" fill="#e2f2f1"/>
        </g>
        <g id="Grupo_14836" data-name="Grupo 14836" transform="translate(4.341 14.596)">
          <path id="Trazado_14993" data-name="Trazado 14993" d="M.566,0A.594.594,0,0,1,.581,1.187.594.594,0,0,1,.566,0Z" transform="translate(0 0)" fill="#e2f2f1"/>
        </g>
        <g id="Grupo_14837" data-name="Grupo 14837" transform="translate(11.414 15.998)">
          <path id="Trazado_14994" data-name="Trazado 14994" d="M.478,0A.5.5,0,0,1,.49,1,.5.5,0,0,1,.478,0Z" transform="translate(0)" fill="#e2f2f1"/>
        </g>
        <g id="Grupo_14838" data-name="Grupo 14838" transform="translate(15.442 23.723)">
          <path id="Trazado_14995" data-name="Trazado 14995" d="M.535,0A.561.561,0,0,1,.548,1.12.561.561,0,0,1,.535,0Z" transform="translate(0)" fill="#e2f2f1"/>
        </g>
        <g id="Grupo_14839" data-name="Grupo 14839" transform="translate(13.027 30.599)">
          <path id="Trazado_14996" data-name="Trazado 14996" d="M.565.033A1.482,1.482,0,0,1,1.146.025.71.71,0,0,1,1.594,1.05a1.514,1.514,0,0,1-.413.416A.786.786,0,1,1,.565.033Z" transform="translate(0 0)" fill="#e2f2f1"/>
        </g>
        <g id="Grupo_14840" data-name="Grupo 14840" transform="translate(0 12.316)">
          <path id="Trazado_14997" data-name="Trazado 14997" d="M.5,0A.521.521,0,0,1,.509,1.041.521.521,0,0,1,.5,0Z" transform="translate(0 0)" fill="#e2f2f1"/>
        </g>
        <g id="Grupo_14841" data-name="Grupo 14841" transform="translate(1.432 15.346)">
          <path id="Trazado_14998" data-name="Trazado 14998" d="M.547,0A.574.574,0,0,1,.561,1.147.574.574,0,0,1,.547,0Z" transform="translate(0 0)" fill="#e2f2f1"/>
        </g>
        <g id="Grupo_14842" data-name="Grupo 14842" transform="translate(10.193 13.779)">
          <path id="Trazado_14999" data-name="Trazado 14999" d="M1.166.3a.768.768,0,0,1,.113.667.6.6,0,0,1-.861.377A.768.768,0,0,1,.012.8.637.637,0,0,1,1.166.3Z" transform="translate(0 0)" fill="#e2f2f1"/>
        </g>
        <g id="Grupo_14843" data-name="Grupo 14843" transform="translate(14.493 13.881)">
          <path id="Trazado_15000" data-name="Trazado 15000" d="M.439,0A.461.461,0,0,1,.451.92.461.461,0,0,1,.439,0Z" transform="translate(0)" fill="#e2f2f1"/>
        </g>
        <g id="Grupo_14844" data-name="Grupo 14844" transform="translate(15.904 16.147)">
          <path id="Trazado_15001" data-name="Trazado 15001" d="M.388,0A.407.407,0,0,1,.4.814.407.407,0,0,1,.388,0Z" transform="translate(0 0)" fill="#e2f2f1"/>
        </g>
        <g id="Grupo_14845" data-name="Grupo 14845" transform="translate(21.187 19.646)">
          <path id="Trazado_15002" data-name="Trazado 15002" d="M.812.137l.126.15a.549.549,0,0,1-.163.894A.548.548,0,0,1,.014.689L0,.49A.485.485,0,0,1,.812.137Z" transform="translate(0 0)" fill="#e2f2f1"/>
        </g>
        <g id="Grupo_14846" data-name="Grupo 14846" transform="translate(19.461 23.325)">
          <path id="Trazado_15003" data-name="Trazado 15003" d="M.478,0A.5.5,0,0,1,.489,1,.5.5,0,0,1,.478,0Z" transform="translate(0)" fill="#e2f2f1"/>
        </g>
        <g id="Grupo_14847" data-name="Grupo 14847" transform="translate(2.054 9.477)">
          <path id="Trazado_15004" data-name="Trazado 15004" d="M.134,0a.14.14,0,0,1,0,.28.14.14,0,0,1,0-.28Z" transform="translate(0 0)" fill="#e2f2f1"/>
        </g>
        <g id="Grupo_14848" data-name="Grupo 14848" transform="translate(9.706 9.025)">
          <path id="Trazado_15005" data-name="Trazado 15005" d="M.522,0A.547.547,0,0,1,.535,1.094.547.547,0,0,1,.522,0Z" transform="translate(0)" fill="#e2f2f1"/>
        </g>
        <g id="Grupo_14849" data-name="Grupo 14849" transform="translate(3.476 8.268)">
          <path id="Trazado_15006" data-name="Trazado 15006" d="M.408,0a.427.427,0,0,1,.01.854A.427.427,0,0,1,.408,0Z" transform="translate(0 0)" fill="#e2f2f1"/>
        </g>
        <g id="Grupo_14850" data-name="Grupo 14850" transform="translate(3.823 10.229)">
          <path id="Trazado_15007" data-name="Trazado 15007" d="M.388,0A.407.407,0,0,1,.4.814.407.407,0,0,1,.388,0Z" transform="translate(0 0)" fill="#e2f2f1"/>
        </g>
        <g id="Grupo_14851" data-name="Grupo 14851" transform="translate(19.502 11.312)">
          <path id="Trazado_15008" data-name="Trazado 15008" d="M.331,0A.347.347,0,0,1,.34.694.347.347,0,0,1,.331,0Z" transform="translate(0 0)" fill="#e2f2f1"/>
        </g>
        <g id="Grupo_14852" data-name="Grupo 14852" transform="translate(22.22 15.22)">
          <path id="Trazado_15009" data-name="Trazado 15009" d="M.369,0A.387.387,0,0,1,.379.774.387.387,0,0,1,.369,0Z" transform="translate(0 0)" fill="#e2f2f1"/>
        </g>
        <g id="Grupo_14853" data-name="Grupo 14853" transform="translate(26.502 20.123)">
          <path id="Trazado_15010" data-name="Trazado 15010" d="M.395,0A.414.414,0,0,1,.4.828.414.414,0,0,1,.395,0Z" transform="translate(0)" fill="#e2f2f1"/>
        </g>
        <g id="Grupo_14854" data-name="Grupo 14854" transform="translate(27.631 15.925)">
          <path id="Trazado_15011" data-name="Trazado 15011" d="M.274,0A.287.287,0,0,1,.28.573.287.287,0,0,1,.274,0Z" transform="translate(0)" fill="#e2f2f1"/>
        </g>
        <g id="Grupo_14855" data-name="Grupo 14855" transform="translate(25.503 9.83)">
          <path id="Trazado_15012" data-name="Trazado 15012" d="M.465,0A.487.487,0,0,1,.476.973.487.487,0,0,1,.465,0Z" transform="translate(0)" fill="#e2f2f1"/>
        </g>
        <g id="Grupo_14856" data-name="Grupo 14856" transform="translate(15.144 5.016)">
          <path id="Trazado_15013" data-name="Trazado 15013" d="M.649,0A.681.681,0,0,1,.666,1.361.681.681,0,0,1,.649,0Z" transform="translate(0)" fill="#e2f2f1"/>
        </g>
        <g id="Grupo_14857" data-name="Grupo 14857" transform="translate(13.237 7.036)">
          <path id="Trazado_15014" data-name="Trazado 15014" d="M.586,0A.614.614,0,0,1,.6,1.228.614.614,0,0,1,.586,0Z" transform="translate(0 0)" fill="#e2f2f1"/>
        </g>
        <g id="Grupo_14858" data-name="Grupo 14858" transform="translate(9.756 4.221)">
          <path id="Trazado_15015" data-name="Trazado 15015" d="M.643,0A.674.674,0,0,1,.659,1.347.674.674,0,0,1,.643,0Z" transform="translate(0)" fill="#e2f2f1"/>
        </g>
        <g id="Grupo_14859" data-name="Grupo 14859" transform="translate(23.197 6.806)">
          <path id="Trazado_15016" data-name="Trazado 15016" d="M.337,0A.354.354,0,0,1,.346.707.354.354,0,0,1,.337,0Z" transform="translate(0)" fill="#e2f2f1"/>
        </g>
        <g id="Grupo_14860" data-name="Grupo 14860" transform="translate(30.551 19.243)">
          <path id="Trazado_15017" data-name="Trazado 15017" d="M.344,0A.36.36,0,0,1,.353.72.36.36,0,0,1,.344,0Z" transform="translate(0)" fill="#e2f2f1"/>
        </g>
        <g id="Grupo_14861" data-name="Grupo 14861" transform="translate(29.063 24.668)">
          <path id="Trazado_15018" data-name="Trazado 15018" d="M.356,0A.374.374,0,0,1,.366.747.374.374,0,0,1,.356,0Z" transform="translate(0 0)" fill="#e2f2f1"/>
        </g>
        <g id="Grupo_14862" data-name="Grupo 14862" transform="translate(33.493 19.441)">
          <path id="Trazado_15019" data-name="Trazado 15019" d="M.178,0a.187.187,0,0,1,0,.373A.187.187,0,0,1,.178,0Z" transform="translate(0)" fill="#e2f2f1"/>
        </g>
        <g id="Grupo_14863" data-name="Grupo 14863" transform="translate(33.945 9.912)">
          <path id="Trazado_15020" data-name="Trazado 15020" d="M.267,0A.28.28,0,0,1,.274.56.28.28,0,0,1,.267,0Z" transform="translate(0)" fill="#e2f2f1"/>
        </g>
        <g id="Grupo_14864" data-name="Grupo 14864" transform="translate(32.254 2.9)">
          <path id="Trazado_15021" data-name="Trazado 15021" d="M.65,0A.681.681,0,0,1,.666,1.36.681.681,0,0,1,.65,0Z" transform="translate(0)" fill="#e2f2f1"/>
        </g>
        <g id="Grupo_14865" data-name="Grupo 14865" transform="translate(22.778 0.202)">
          <path id="Trazado_15022" data-name="Trazado 15022" d="M.4,0a.421.421,0,0,1,.01.841A.421.421,0,0,1,.4,0Z" transform="translate(0 0)" fill="#e2f2f1"/>
        </g>
        <g id="Grupo_14866" data-name="Grupo 14866" transform="translate(15.651 0)">
          <path id="Trazado_15023" data-name="Trazado 15023" d="M.631,0A.661.661,0,0,1,.646,1.321.661.661,0,0,1,.631,0Z" transform="translate(0 0)" fill="#e2f2f1"/>
        </g>
      </g>
    </g>
  </g>
</svg>
