<svg xmlns="http://www.w3.org/2000/svg" width="68.475" height="68.536" viewBox="0 0 68.475 68.536">
  <g id="Grupo_15804" data-name="Grupo 15804" transform="translate(68.476 32.646) rotate(133)">
    <path id="Trazado_15228" data-name="Trazado 15228" d="M5.6,32.244l-.941-1.759L.57,22.838a4.864,4.864,0,0,1-.521-2.987A5.276,5.276,0,0,1,.155,19.3a5.687,5.687,0,0,1,1.613-2.725,6.153,6.153,0,0,1,1.394-.993l4.443-2.318L18.652,7.5h0l1.02-.532L31.679.7A6.074,6.074,0,0,1,35.2.041l.029,0a5.588,5.588,0,0,1,1.546.419l.065.027a5.2,5.2,0,0,1,.667.36c.028.017.054.037.081.055a4.955,4.955,0,0,1,.55.423c.021.018.044.035.064.054a4.961,4.961,0,0,1,.5.532c.034.042.065.085.1.128a4.831,4.831,0,0,1,.411.631l1.039,1.944h0l3.993,7.464L48.5,20.035c.045.085.081.173.121.259a4.815,4.815,0,0,1,.386,1.233,4.912,4.912,0,0,1,.057.513,5.028,5.028,0,0,1-.043.982,5.279,5.279,0,0,1-.105.553,5.85,5.85,0,0,1-3.008,3.719L39.12,30.836h0l-9.542,4.98h0L17.39,42.176c-.161.084-.323.158-.488.226-.052.022-.1.041-.157.061-.113.044-.227.085-.343.122l-.18.054q-.168.048-.337.086c-.057.013-.115.027-.172.038-.133.026-.267.047-.4.064-.034,0-.069.011-.1.015q-.251.027-.5.033l-.029,0c-.037,0-.073,0-.109,0-.121,0-.241,0-.361-.009-.059,0-.118-.009-.177-.014-.108-.009-.216-.022-.322-.037-.034,0-.07-.007-.1-.012s-.048-.011-.072-.016c-.113-.02-.225-.044-.336-.071-.047-.012-.1-.021-.142-.034q-.232-.062-.456-.143c-.032-.012-.063-.026-.095-.039-.118-.045-.234-.093-.348-.147-.052-.024-.1-.05-.153-.077-.093-.047-.184-.1-.274-.148-.052-.031-.1-.062-.156-.095-.088-.055-.174-.115-.259-.176-.045-.032-.091-.064-.135-.1q-.166-.13-.323-.273c-.013-.012-.028-.023-.041-.036h0a4.826,4.826,0,0,1-.958-1.25l-.468-.874h0L5.6,32.244Z" transform="translate(0.002 0)" fill="#ba320d" opacity="0.26" style="mix-blend-mode: multiply;isolation: isolate"/>
    <g id="Grupo_15028" data-name="Grupo 15028" transform="translate(0 4.983)">
      <path id="Trazado_15229" data-name="Trazado 15229" d="M48.5,20.041,39.213,2.678A5.557,5.557,0,0,0,31.681.7L3.164,15.585A5.422,5.422,0,0,0,.572,22.844L9.86,40.206a5.556,5.556,0,0,0,7.532,1.975L45.909,27.3A5.421,5.421,0,0,0,48.5,20.041Z" transform="translate(0 0)" fill="#ffbba6"/>
      <path id="Trazado_15230" data-name="Trazado 15230" d="M11.486,0a31.394,31.394,0,0,1,.009,3.3A37.867,37.867,0,0,1,5.6,21.007L.572,11.6A5.422,5.422,0,0,1,3.164,4.342Z" transform="translate(0 11.242)" fill="#fde6e1"/>
      <path id="Trazado_15231" data-name="Trazado 15231" d="M8.016,38.744,8,38.753A5.556,5.556,0,0,1,.468,36.778L0,35.9c5.169-7.2,8.671-15.347,9.434-23.893a35.72,35.72,0,0,0-.173-7.938L17.068,0C19.352,13.449,16.907,27.737,8.016,38.744Z" transform="translate(9.392 3.428)" fill="#fde6e1"/>
      <path id="Trazado_15232" data-name="Trazado 15232" d="M9.634,2.672l1.039,1.944c.3,1.534.57,3.076.785,4.631A44.59,44.59,0,0,1,9.542,30.836L0,35.816A58.6,58.6,0,0,0,3.929.086,5.355,5.355,0,0,1,9.634,2.672Z" transform="translate(29.579 0.006)" fill="#fde6e1"/>
      <path id="Trazado_15233" data-name="Trazado 15233" d="M.614,0A5.163,5.163,0,0,1,0,4.426Q.411,2.233.614,0Z" transform="translate(48.202 20.785)" fill="#fde6e1"/>
      <path id="Trazado_15234" data-name="Trazado 15234" d="M7.617,14.259c-2.26.148-3.686-.17-4.867-1.011-3.285-2.339-3.507-5.621-1.3-7.921C3.79,2.879,16.267-3.393,20.28,2.357,24.079,7.8,13.82,13.852,7.617,14.259Z" transform="translate(1.353 11.745)" fill="#fff" opacity="0.3" style="mix-blend-mode: hard-light;isolation: isolate"/>
      <path id="Trazado_15235" data-name="Trazado 15235" d="M35.092,20.126,6.574,35.007A5.749,5.749,0,0,1,0,34.283c6.763-3.022,13.837-5.39,20.438-8.785,5.243-2.7,10.927-6.147,12.194-12.006C33.623,8.913,32.423,4.212,30.8,0l6.884,12.867A5.421,5.421,0,0,1,35.092,20.126Z" transform="translate(10.818 7.174)" fill="#f48062" opacity="0.26" style="mix-blend-mode: multiply;isolation: isolate"/>
      <g id="Grupo_15026" data-name="Grupo 15026" transform="translate(3.181 15.236)" opacity="0.3" style="mix-blend-mode: hard-light;isolation: isolate">
        <path id="Trazado_15236" data-name="Trazado 15236" d="M0,5.773A5.8,5.8,0,0,1,4.236.045c1.4-.38,2.426,1.737,1.042,2.419A6.009,6.009,0,0,0,1.9,5.994.968.968,0,0,1,0,5.773Z" transform="translate(0 0)" fill="#fff"/>
      </g>
      <g id="Grupo_15027" data-name="Grupo 15027" transform="translate(2.303 22.584)" opacity="0.3" style="mix-blend-mode: hard-light;isolation: isolate">
        <path id="Trazado_15237" data-name="Trazado 15237" d="M1.2.028l.236.06a1.092,1.092,0,1,1-1.2,1.625L.129,1.479A1,1,0,0,1,.184.405.98.98,0,0,1,1.2.028Z" transform="translate(0 0)" fill="#fff"/>
      </g>
    </g>
  </g>
</svg>
