<svg xmlns="http://www.w3.org/2000/svg" width="61.718" height="62.172" viewBox="0 0 61.718 62.172">
  <g id="Grupo_15803" data-name="Grupo 15803" transform="translate(61.718 32.935) rotate(133)">
    <path id="Trazado_15024" data-name="Trazado 15024" d="M1.3,36.079c-4.143-16,2.653-26.674,6.29-32.972A5.771,5.771,0,0,1,14.667.365a37.9,37.9,0,0,1,13.85,9.191l.063.056c.11.094.216.189.323.284.167.148.334.3.5.446.11.1.217.2.325.3.156.146.311.292.463.439q.16.154.317.309.222.219.439.439c.1.1.2.207.3.311q.215.222.423.446c.1.1.19.2.284.3.142.155.28.309.418.464.085.1.172.191.256.287.145.166.287.332.427.5.071.084.145.168.215.252.17.2.336.408.5.612.036.045.075.091.111.136q.3.376.585.75c.043.057.083.112.125.168.144.191.287.381.425.571.064.087.125.174.187.261.113.158.226.315.336.472l.194.282c.1.148.2.295.3.441.065.1.129.2.193.292.092.14.183.279.271.417l.188.295c.086.136.17.27.252.4.059.1.118.193.176.289.081.134.16.266.238.4l.161.274c.078.135.155.268.229.4.049.085.1.171.145.255.077.138.151.272.224.408.041.075.084.152.124.227.088.163.172.323.254.482.35.669.655,1.3.917,1.865a6.228,6.228,0,0,1,.383,4.121h0a6.068,6.068,0,0,1-.228.707c-.011.03-.021.06-.034.09a5.991,5.991,0,0,1-.305.642c-.021.038-.041.075-.063.113a5.985,5.985,0,0,1-.391.6c-.022.029-.045.057-.067.087a6.109,6.109,0,0,1-.5.576c-.194.2-.4.388-.605.577-.069.063-.141.123-.212.185-.143.126-.285.251-.434.374-.086.072-.176.141-.264.212-.138.11-.277.221-.419.328l-.151.115c-6.683,6.494-19.734,9.337-26.865,10.448C6.259,43.736,2.137,39.327,1.3,36.079Z" transform="translate(0 0)" fill="#ba320d" opacity="0.26" style="mix-blend-mode: multiply;isolation: isolate"/>
    <g id="Grupo_14934" data-name="Grupo 14934" transform="translate(0 4.989)">
      <path id="Trazado_15025" data-name="Trazado 15025" d="M9.252,43.269c7.455-1.162,21.388-4.213,27.742-11.354a7.3,7.3,0,0,0,1.153-7.536C35.575,18.173,28.842,5.731,14.667.365A5.771,5.771,0,0,0,7.587,3.107C3.949,9.405-2.847,20.076,1.3,36.079,2.137,39.327,6.259,43.736,9.252,43.269Z" transform="translate(0 0)" fill="#2aa887"/>
      <path id="Trazado_15026" data-name="Trazado 15026" d="M8.355,39.818c7.663-1.09,21.985-3.936,28.532-10.524a6.184,6.184,0,0,0,1.205-6.937C35.469,16.655,28.585,5.227,14.038.33A6.276,6.276,0,0,0,6.756,2.873C3,8.677-2.731,20.674,1.48,35.385A6.231,6.231,0,0,0,8.355,39.818Z" transform="translate(1.315 1.735)" fill="#71e6ca"/>
      <path id="Trazado_15027" data-name="Trazado 15027" d="M2.493,7.7A17.213,17.213,0,0,1,15.626.046,12.94,12.94,0,0,1,28.618,8.094,6.1,6.1,0,0,1,27.03,10.91c-5.866,5.9-17.968,8.8-25.935,10.122C-.9,16.69-.018,11.661,2.493,7.7Z" transform="translate(11.171 20.12)" fill="#9bead6"/>
      <path id="Trazado_15028" data-name="Trazado 15028" d="M14.038.33a40.975,40.975,0,0,1,23.206,20.29C33.54,13.467,17.805,4.462,9.951,9.313,4.647,12.589-1.6,32.288,2.6,37.535A6.14,6.14,0,0,1,1.48,35.385C-2.731,20.674,3,8.677,6.756,2.873A6.276,6.276,0,0,1,14.038.33Z" transform="translate(1.315 1.735)" fill="#42cca8"/>
      <g id="Grupo_14933" data-name="Grupo 14933" transform="translate(2.84 5.706)">
        <g id="Grupo_14870" data-name="Grupo 14870" transform="translate(25.903 25.651)">
          <path id="Trazado_15029" data-name="Trazado 15029" d="M.2,0a.212.212,0,0,1,0,.424A.212.212,0,0,1,.2,0Z" transform="translate(0 0)" fill="#e2f2ed"/>
        </g>
        <g id="Grupo_14871" data-name="Grupo 14871" transform="translate(24.09 23.416)">
          <path id="Trazado_15030" data-name="Trazado 15030" d="M.016.451A.361.361,0,0,1,.67.169.358.358,0,1,1,.016.451Z" transform="translate(0 0)" fill="#e2f2ed"/>
        </g>
        <g id="Grupo_14872" data-name="Grupo 14872" transform="translate(27.533 20.96)">
          <path id="Trazado_15031" data-name="Trazado 15031" d="M.157,0a.165.165,0,0,1,0,.33.165.165,0,0,1,0-.33Z" transform="translate(0)" fill="#e2f2ed"/>
        </g>
        <g id="Grupo_14873" data-name="Grupo 14873" transform="translate(17.946 23.829)">
          <path id="Trazado_15032" data-name="Trazado 15032" d="M1.3,0a1.358,1.358,0,0,1,.032,2.715A1.358,1.358,0,0,1,1.3,0Z" transform="translate(0)" fill="#e2f2ed"/>
        </g>
        <g id="Grupo_14874" data-name="Grupo 14874" transform="translate(19.06 19.312)">
          <path id="Trazado_15033" data-name="Trazado 15033" d="M1.345,0A1.379,1.379,0,0,1,2.722,1.344,1.384,1.384,0,0,1,1.378,2.721,1.379,1.379,0,0,1,0,1.377,1.384,1.384,0,0,1,1.345,0Z" transform="translate(0 0)" fill="#e2f2ed"/>
        </g>
        <g id="Grupo_14875" data-name="Grupo 14875" transform="translate(27.071 22.313)">
          <path id="Trazado_15034" data-name="Trazado 15034" d="M1.095,0a1.148,1.148,0,0,1,.028,2.295A1.148,1.148,0,0,1,1.095,0Z" transform="translate(0)" fill="#e2f2ed"/>
        </g>
        <g id="Grupo_14876" data-name="Grupo 14876" transform="translate(30.522 25.642)">
          <path id="Trazado_15035" data-name="Trazado 15035" d="M.5,0A.521.521,0,0,1,.509,1.041.521.521,0,0,1,.5,0Z" transform="translate(0)" fill="#e2f2ed"/>
        </g>
        <g id="Grupo_14877" data-name="Grupo 14877" transform="translate(30.961 21.491)">
          <path id="Trazado_15036" data-name="Trazado 15036" d="M.376,0A.394.394,0,0,1,.385.787.394.394,0,0,1,.376,0Z" transform="translate(0)" fill="#e2f2ed"/>
        </g>
        <g id="Grupo_14878" data-name="Grupo 14878" transform="translate(20.267 28.989)">
          <path id="Trazado_15037" data-name="Trazado 15037" d="M.809,0A.848.848,0,0,1,.829,1.694.848.848,0,0,1,.809,0Z" transform="translate(0)" fill="#e2f2ed"/>
        </g>
        <g id="Grupo_14879" data-name="Grupo 14879" transform="translate(24.013 28.395)">
          <path id="Trazado_15038" data-name="Trazado 15038" d="M.675,0A.707.707,0,0,1,.692,1.414.707.707,0,0,1,.675,0Z" transform="translate(0 0)" fill="#e2f2ed"/>
        </g>
        <g id="Grupo_14880" data-name="Grupo 14880" transform="translate(17.07 30.15)">
          <path id="Trazado_15039" data-name="Trazado 15039" d="M.4,0a.421.421,0,0,1,.01.841A.421.421,0,0,1,.4,0Z" transform="translate(0)" fill="#e2f2ed"/>
        </g>
        <g id="Grupo_14881" data-name="Grupo 14881" transform="translate(21.189 26.772)">
          <path id="Trazado_15040" data-name="Trazado 15040" d="M.465,0A.487.487,0,0,1,.476.974.487.487,0,0,1,.465,0Z" transform="translate(0)" fill="#e2f2ed"/>
        </g>
        <g id="Grupo_14882" data-name="Grupo 14882" transform="translate(17.542 31.432)">
          <path id="Trazado_15041" data-name="Trazado 15041" d="M.388,0A.407.407,0,0,1,.4.814.407.407,0,0,1,.388,0Z" transform="translate(0 0)" fill="#e2f2ed"/>
        </g>
        <g id="Grupo_14883" data-name="Grupo 14883" transform="translate(12.722 32.254)">
          <path id="Trazado_15042" data-name="Trazado 15042" d="M.535,0A.561.561,0,0,1,.548,1.121.561.561,0,0,1,.535,0Z" transform="translate(0 0)" fill="#e2f2ed"/>
        </g>
        <g id="Grupo_14884" data-name="Grupo 14884" transform="translate(15.623 32.748)">
          <path id="Trazado_15043" data-name="Trazado 15043" d="M.2,0A.214.214,0,0,1,.209.427.214.214,0,0,1,.2,0Z" transform="translate(0)" fill="#e2f2ed"/>
        </g>
        <g id="Grupo_14885" data-name="Grupo 14885" transform="translate(13.391 28.511)">
          <path id="Trazado_15044" data-name="Trazado 15044" d="M.624,0A.654.654,0,0,1,.64,1.307.654.654,0,0,1,.624,0Z" transform="translate(0 0)" fill="#e2f2ed"/>
        </g>
        <g id="Grupo_14886" data-name="Grupo 14886" transform="translate(15.695 27.99)">
          <path id="Trazado_15045" data-name="Trazado 15045" d="M.656,0A.688.688,0,0,1,.672,1.374.688.688,0,0,1,.656,0Z" transform="translate(0)" fill="#e2f2ed"/>
        </g>
        <g id="Grupo_14887" data-name="Grupo 14887" transform="translate(34.679 21.283)">
          <path id="Trazado_15046" data-name="Trazado 15046" d="M.28,0A.294.294,0,0,1,.287.587.294.294,0,0,1,.28,0Z" transform="translate(0)" fill="#e2f2ed"/>
        </g>
        <g id="Grupo_14888" data-name="Grupo 14888" transform="translate(34.322 24.688)">
          <path id="Trazado_15047" data-name="Trazado 15047" d="M.3,0A.314.314,0,0,1,.307.627.314.314,0,0,1,.3,0Z" transform="translate(0 0)" fill="#e2f2ed"/>
        </g>
        <g id="Grupo_14889" data-name="Grupo 14889" transform="translate(32.4 23.472)">
          <path id="Trazado_15048" data-name="Trazado 15048" d="M.484,0A.507.507,0,0,1,.5,1.014.507.507,0,0,1,.484,0Z" transform="translate(0 0)" fill="#e2f2ed"/>
        </g>
        <g id="Grupo_14890" data-name="Grupo 14890" transform="translate(35.19 22.587)">
          <path id="Trazado_15049" data-name="Trazado 15049" d="M.446,0A.467.467,0,0,1,.457.934.467.467,0,0,1,.446,0Z" transform="translate(0)" fill="#e2f2ed"/>
        </g>
        <g id="Grupo_14891" data-name="Grupo 14891" transform="translate(32.254 20.017)">
          <path id="Trazado_15050" data-name="Trazado 15050" d="M.325,0A.34.34,0,0,1,.333.68.34.34,0,0,1,.325,0Z" transform="translate(0)" fill="#e2f2ed"/>
        </g>
        <g id="Grupo_14892" data-name="Grupo 14892" transform="translate(35.679 18.921)">
          <path id="Trazado_15051" data-name="Trazado 15051" d="M.07,0a.074.074,0,0,1,0,.147A.074.074,0,0,1,.07,0Z" transform="translate(0)" fill="#e2f2ed"/>
        </g>
        <g id="Grupo_14893" data-name="Grupo 14893" transform="translate(34.387 17.242)">
          <path id="Trazado_15052" data-name="Trazado 15052" d="M.471,0A.494.494,0,0,1,.483.988.494.494,0,0,1,.471,0Z" transform="translate(0)" fill="#e2f2ed"/>
        </g>
        <g id="Grupo_14894" data-name="Grupo 14894" transform="translate(31.801 18.755)">
          <path id="Trazado_15053" data-name="Trazado 15053" d="M.318,0A.334.334,0,0,1,.326.667.334.334,0,0,1,.318,0Z" transform="translate(0)" fill="#e2f2ed"/>
        </g>
        <g id="Grupo_14895" data-name="Grupo 14895" transform="translate(33.391 17.137)">
          <path id="Trazado_15054" data-name="Trazado 15054" d="M.395,0A.414.414,0,0,1,.405.827.414.414,0,0,1,.395,0Z" transform="translate(0 0)" fill="#e2f2ed"/>
        </g>
        <g id="Grupo_14896" data-name="Grupo 14896" transform="translate(30.949 15.574)">
          <path id="Trazado_15055" data-name="Trazado 15055" d="M.542,1.05.344,1a.471.471,0,0,1-.012-.9l.2-.064c.821-.264.88,1.248.014,1.019Z" transform="translate(0 0)" fill="#e2f2ed"/>
        </g>
        <g id="Grupo_14897" data-name="Grupo 14897" transform="translate(27.816 17.649)">
          <path id="Trazado_15056" data-name="Trazado 15056" d="M.649,0A.681.681,0,0,1,.666,1.36.681.681,0,0,1,.649,0Z" transform="translate(0)" fill="#e2f2ed"/>
        </g>
        <g id="Grupo_14898" data-name="Grupo 14898" transform="translate(26 16.145)">
          <path id="Trazado_15057" data-name="Trazado 15057" d="M.5,0A.527.527,0,0,1,.516,1.054.527.527,0,0,1,.5,0Z" transform="translate(0)" fill="#e2f2ed"/>
        </g>
        <g id="Grupo_14899" data-name="Grupo 14899" transform="translate(29.467 14.224)">
          <path id="Trazado_15058" data-name="Trazado 15058" d="M.617,0A.648.648,0,0,1,.633,1.294.648.648,0,0,1,.617,0Z" transform="translate(0)" fill="#e2f2ed"/>
        </g>
        <g id="Grupo_14900" data-name="Grupo 14900" transform="translate(32.722 14.821)">
          <path id="Trazado_15059" data-name="Trazado 15059" d="M.579,0A.607.607,0,0,1,.594,1.214.607.607,0,0,1,.579,0Z" transform="translate(0 0)" fill="#e2f2ed"/>
        </g>
        <g id="Grupo_14901" data-name="Grupo 14901" transform="translate(12.239 27.412)">
          <path id="Trazado_15060" data-name="Trazado 15060" d="M.681,0A.714.714,0,0,1,.7,1.428.714.714,0,0,1,.681,0Z" transform="translate(0 0)" fill="#e2f2ed"/>
        </g>
        <g id="Grupo_14902" data-name="Grupo 14902" transform="translate(9.653 30.378)">
          <path id="Trazado_15061" data-name="Trazado 15061" d="M.567,0A.594.594,0,0,1,.581,1.187.594.594,0,0,1,.567,0Z" transform="translate(0 0)" fill="#e2f2ed"/>
        </g>
        <g id="Grupo_14903" data-name="Grupo 14903" transform="translate(13.429 24.398)">
          <path id="Trazado_15062" data-name="Trazado 15062" d="M.478,0A.5.5,0,0,1,.489,1,.5.5,0,0,1,.478,0Z" transform="translate(0 0)" fill="#e2f2ed"/>
        </g>
        <g id="Grupo_14904" data-name="Grupo 14904" transform="translate(22.097 23.257)">
          <path id="Trazado_15063" data-name="Trazado 15063" d="M.535,0A.561.561,0,0,1,.548,1.12.561.561,0,0,1,.535,0Z" transform="translate(0)" fill="#e2f2ed"/>
        </g>
        <g id="Grupo_14905" data-name="Grupo 14905" transform="translate(27.742 27.45)">
          <path id="Trazado_15064" data-name="Trazado 15064" d="M.015.721A1.057,1.057,0,0,1,.153.359.716.716,0,0,1,1.379.334,1.088,1.088,0,0,1,1.537.7a.8.8,0,0,1-.749,1A.8.8,0,0,1,.015.721Z" transform="translate(0 0)" fill="#e2f2ed"/>
        </g>
        <g id="Grupo_14906" data-name="Grupo 14906" transform="translate(5.967 33.751)">
          <path id="Trazado_15065" data-name="Trazado 15065" d="M.5,0A.52.52,0,0,1,.509,1.04.52.52,0,0,1,.5,0Z" transform="translate(0 0)" fill="#e2f2ed"/>
        </g>
        <g id="Grupo_14907" data-name="Grupo 14907" transform="translate(9.324 33.396)">
          <path id="Trazado_15066" data-name="Trazado 15066" d="M.548,0A.574.574,0,0,1,.561,1.147.574.574,0,0,1,.548,0Z" transform="translate(0 0)" fill="#e2f2ed"/>
        </g>
        <g id="Grupo_14908" data-name="Grupo 14908" transform="translate(10.95 24.524)">
          <path id="Trazado_15067" data-name="Trazado 15067" d="M.451.038A.771.771,0,0,1,1.12.122a.6.6,0,0,1,.021,1.03.773.773,0,0,1-.672.112A.638.638,0,0,1,.451.038Z" transform="translate(0 0)" fill="#e2f2ed"/>
        </g>
        <g id="Grupo_14909" data-name="Grupo 14909" transform="translate(12.52 20.832)">
          <path id="Trazado_15068" data-name="Trazado 15068" d="M.439,0A.461.461,0,0,1,.451.92.461.461,0,0,1,.439,0Z" transform="translate(0)" fill="#e2f2ed"/>
        </g>
        <g id="Grupo_14910" data-name="Grupo 14910" transform="translate(15.121 20.393)">
          <path id="Trazado_15069" data-name="Trazado 15069" d="M.389,0A.407.407,0,0,1,.4.813.407.407,0,0,1,.389,0Z" transform="translate(0)" fill="#e2f2ed"/>
        </g>
        <g id="Grupo_14911" data-name="Grupo 14911" transform="translate(20.285 16.475)">
          <path id="Trazado_15070" data-name="Trazado 15070" d="M.34.1l.2-.07a.551.551,0,0,1,.694.52.552.552,0,0,1-.679.537l-.2-.059A.484.484,0,0,1,.34.1Z" transform="translate(0 0)" fill="#e2f2ed"/>
        </g>
        <g id="Grupo_14912" data-name="Grupo 14912" transform="translate(23.122 19.449)">
          <path id="Trazado_15071" data-name="Trazado 15071" d="M.478,0A.5.5,0,0,1,.489,1,.5.5,0,0,1,.478,0Z" transform="translate(0)" fill="#e2f2ed"/>
        </g>
        <g id="Grupo_14913" data-name="Grupo 14913" transform="translate(3.915 31.418)">
          <path id="Trazado_15072" data-name="Trazado 15072" d="M.134,0a.14.14,0,0,1,0,.28.14.14,0,0,1,0-.28Z" transform="translate(0 0)" fill="#e2f2ed"/>
        </g>
        <g id="Grupo_14914" data-name="Grupo 14914" transform="translate(6.316 23.467)">
          <path id="Trazado_15073" data-name="Trazado 15073" d="M.522,0A.547.547,0,0,1,.536,1.094.547.547,0,0,1,.522,0Z" transform="translate(0 0)" fill="#e2f2ed"/>
        </g>
        <g id="Grupo_14915" data-name="Grupo 14915" transform="translate(3.375 29.217)">
          <path id="Trazado_15074" data-name="Trazado 15074" d="M.408,0a.427.427,0,0,1,.01.854A.427.427,0,0,1,.408,0Z" transform="translate(0 0)" fill="#e2f2ed"/>
        </g>
        <g id="Grupo_14916" data-name="Grupo 14916" transform="translate(5.326 29.614)">
          <path id="Trazado_15075" data-name="Trazado 15075" d="M.388,0A.407.407,0,0,1,.4.814.407.407,0,0,1,.388,0Z" transform="translate(0 0)" fill="#e2f2ed"/>
        </g>
        <g id="Grupo_14917" data-name="Grupo 14917" transform="translate(11.846 15.415)">
          <path id="Trazado_15076" data-name="Trazado 15076" d="M.331,0A.347.347,0,0,1,.34.694.347.347,0,0,1,.331,0Z" transform="translate(0 0)" fill="#e2f2ed"/>
        </g>
        <g id="Grupo_14918" data-name="Grupo 14918" transform="translate(16.473 14.187)">
          <path id="Trazado_15077" data-name="Trazado 15077" d="M.369,0A.387.387,0,0,1,.379.774.387.387,0,0,1,.369,0Z" transform="translate(0)" fill="#e2f2ed"/>
        </g>
        <g id="Grupo_14919" data-name="Grupo 14919" transform="translate(22.58 11.866)">
          <path id="Trazado_15078" data-name="Trazado 15078" d="M.4,0a.414.414,0,0,1,.01.827A.414.414,0,0,1,.4,0Z" transform="translate(0)" fill="#e2f2ed"/>
        </g>
        <g id="Grupo_14920" data-name="Grupo 14920" transform="translate(19.009 9.527)">
          <path id="Trazado_15079" data-name="Trazado 15079" d="M.274,0A.287.287,0,0,1,.28.574.287.287,0,0,1,.274,0Z" transform="translate(0)" fill="#e2f2ed"/>
        </g>
        <g id="Grupo_14921" data-name="Grupo 14921" transform="translate(12.617 9.06)">
          <path id="Trazado_15080" data-name="Trazado 15080" d="M.465,0A.487.487,0,0,1,.476.973.487.487,0,0,1,.465,0Z" transform="translate(0)" fill="#e2f2ed"/>
        </g>
        <g id="Grupo_14922" data-name="Grupo 14922" transform="translate(4.522 16.758)">
          <path id="Trazado_15081" data-name="Trazado 15081" d="M.649,0A.681.681,0,0,1,.666,1.36.681.681,0,0,1,.649,0Z" transform="translate(0 0)" fill="#e2f2ed"/>
        </g>
        <g id="Grupo_14923" data-name="Grupo 14923" transform="translate(5.72 19.357)">
          <path id="Trazado_15082" data-name="Trazado 15082" d="M.586,0A.614.614,0,0,1,.6,1.227.614.614,0,0,1,.586,0Z" transform="translate(0 0)" fill="#e2f2ed"/>
        </g>
        <g id="Grupo_14924" data-name="Grupo 14924" transform="translate(1.876 21.53)">
          <path id="Trazado_15083" data-name="Trazado 15083" d="M.643,0A.674.674,0,0,1,.659,1.347.674.674,0,0,1,.643,0Z" transform="translate(0 0)" fill="#e2f2ed"/>
        </g>
        <g id="Grupo_14925" data-name="Grupo 14925" transform="translate(8.933 10.36)">
          <path id="Trazado_15084" data-name="Trazado 15084" d="M.338,0A.354.354,0,0,1,.346.707.354.354,0,0,1,.338,0Z" transform="translate(0)" fill="#e2f2ed"/>
        </g>
        <g id="Grupo_14926" data-name="Grupo 14926" transform="translate(23.167 7.849)">
          <path id="Trazado_15085" data-name="Trazado 15085" d="M.344,0A.36.36,0,0,1,.352.72.36.36,0,0,1,.344,0Z" transform="translate(0)" fill="#e2f2ed"/>
        </g>
        <g id="Grupo_14927" data-name="Grupo 14927" transform="translate(27.722 11.133)">
          <path id="Trazado_15086" data-name="Trazado 15086" d="M.356,0A.374.374,0,0,1,.366.747.374.374,0,0,1,.356,0Z" transform="translate(0 0)" fill="#e2f2ed"/>
        </g>
        <g id="Grupo_14928" data-name="Grupo 14928" transform="translate(24.335 5.435)">
          <path id="Trazado_15087" data-name="Trazado 15087" d="M.178,0a.187.187,0,0,1,0,.373A.187.187,0,0,1,.178,0Z" transform="translate(0)" fill="#e2f2ed"/>
        </g>
        <g id="Grupo_14929" data-name="Grupo 14929" transform="translate(15.605 1.509)">
          <path id="Trazado_15088" data-name="Trazado 15088" d="M.267,0A.28.28,0,0,1,.274.56.28.28,0,0,1,.267,0Z" transform="translate(0)" fill="#e2f2ed"/>
        </g>
        <g id="Grupo_14930" data-name="Grupo 14930" transform="translate(8.571 0)">
          <path id="Trazado_15089" data-name="Trazado 15089" d="M.649,0A.681.681,0,0,1,.666,1.36.681.681,0,0,1,.649,0Z" transform="translate(0 0)" fill="#e2f2ed"/>
        </g>
        <g id="Grupo_14931" data-name="Grupo 14931" transform="translate(2.626 8.32)">
          <path id="Trazado_15090" data-name="Trazado 15090" d="M.4,0a.421.421,0,0,1,.01.841A.421.421,0,0,1,.4,0Z" transform="translate(0 0)" fill="#e2f2ed"/>
        </g>
        <g id="Grupo_14932" data-name="Grupo 14932" transform="translate(0 14.547)">
          <path id="Trazado_15091" data-name="Trazado 15091" d="M.63,0A.661.661,0,0,1,.646,1.321.661.661,0,0,1,.63,0Z" transform="translate(0 0)" fill="#e2f2ed"/>
        </g>
      </g>
    </g>
  </g>
</svg>
