<svg xmlns="http://www.w3.org/2000/svg" width="47.843" height="49.39" viewBox="0 0 47.843 49.39">
  <g id="Grupo_15806" data-name="Grupo 15806" transform="translate(41.787) rotate(82)">
    <path id="Trazado_15092" data-name="Trazado 15092" d="M34.9,27.711c-.056.075-.112.152-.168.227q-.541.713-1.1,1.381l-.2.237q-.554.659-1.117,1.276l-.186.2c-.385.416-.772.819-1.158,1.206l-.119.117q-.591.585-1.18,1.127l-.059.055c-.4.363-.791.708-1.183,1.041l-.157.135c-.375.317-.747.618-1.114.907l-.191.15q-.541.423-1.066.807l-.178.129c-.353.256-.7.5-1.036.731l-.125.084c-.98.664-1.889,1.223-2.682,1.678a6.211,6.211,0,0,1-4.048.737l-.023.014c-.083-.014-.165-.039-.247-.056-.117-.024-.234-.049-.349-.079-.172-.045-.34-.1-.507-.16-.108-.039-.216-.074-.323-.119-.18-.076-.354-.166-.528-.26-.086-.047-.174-.087-.259-.138a6.039,6.039,0,0,1-.733-.517q-.319-.265-.63-.552c-.067-.062-.133-.127-.2-.191-.139-.131-.277-.264-.414-.4-.079-.079-.156-.162-.234-.243-.122-.128-.245-.256-.365-.389-.042-.047-.086-.092-.128-.14C5.833,30.629,1.833,17.884.087,10.881-.645,7.943,3.377,3.443,6.537,2.314c15.568-5.559,26.8.254,33.4,3.313A5.772,5.772,0,0,1,43.3,12.434a37.913,37.913,0,0,1-7.926,14.629C35.221,27.283,35.062,27.5,34.9,27.711Z" transform="translate(0 0)" fill="#ba320d" opacity="0.26" style="mix-blend-mode: multiply;isolation: isolate"/>
    <g id="Grupo_15000" data-name="Grupo 15000" transform="translate(0.771 2.565)">
      <path id="Trazado_15093" data-name="Trazado 15093" d="M.034,9.252C1.2,16.707,4.247,30.64,11.389,36.994a7.3,7.3,0,0,0,7.536,1.152c6.206-2.571,18.648-9.3,24.013-23.478A5.771,5.771,0,0,0,40.2,7.587C33.9,3.95,23.228-2.847,7.224,1.3,3.976,2.137-.432,6.26.034,9.252Z" transform="translate(0 0)" fill="#cc5250"/>
      <path id="Trazado_15094" data-name="Trazado 15094" d="M.063,8.355C1.153,16.018,4,30.34,10.586,36.888a6.184,6.184,0,0,0,6.937,1.2c5.7-2.624,17.13-9.507,22.027-24.054a6.276,6.276,0,0,0-2.543-7.282C31.2,3,19.207-2.731,4.5,1.481A6.231,6.231,0,0,0,.063,8.355Z" transform="translate(1.688 1.315)" fill="#ff7673"/>
      <path id="Trazado_15095" data-name="Trazado 15095" d="M13.331,2.493a17.213,17.213,0,0,1,7.655,13.132,12.939,12.939,0,0,1-8.048,12.992,6.1,6.1,0,0,1-2.816-1.587C4.22,21.165,1.322,9.062,0,1.095,4.342-.9,9.37-.018,13.331,2.493Z" transform="translate(2.152 11.172)" fill="#ff9290"/>
      <path id="Trazado_15096" data-name="Trazado 15096" d="M37.205,14.038a40.972,40.972,0,0,1-20.29,23.2c7.154-3.7,16.159-19.438,11.308-27.292C24.947,4.647,5.248-1.6,0,2.6A6.147,6.147,0,0,1,2.151,1.481C16.862-2.731,28.859,3,34.663,6.757A6.276,6.276,0,0,1,37.205,14.038Z" transform="translate(4.032 1.315)" fill="#e23431"/>
      <g id="Grupo_14999" data-name="Grupo 14999" transform="translate(2.806 2.84)">
        <g id="Grupo_14936" data-name="Grupo 14936" transform="translate(8.717 25.903)">
          <path id="Trazado_15097" data-name="Trazado 15097" d="M.424.2A.212.212,0,0,1,0,.207.212.212,0,0,1,.424.2Z" transform="translate(0 0)" fill="#fee"/>
        </g>
        <g id="Grupo_14937" data-name="Grupo 14937" transform="translate(10.67 24.09)">
          <path id="Trazado_15098" data-name="Trazado 15098" d="M.255.016A.362.362,0,0,1,.536.671.358.358,0,1,1,.255.016Z" transform="translate(0 0)" fill="#fee"/>
        </g>
        <g id="Grupo_14938" data-name="Grupo 14938" transform="translate(13.502 27.533)">
          <path id="Trazado_15099" data-name="Trazado 15099" d="M.33.157a.165.165,0,0,1-.33,0,.165.165,0,0,1,.33,0Z" transform="translate(0 0)" fill="#fee"/>
        </g>
        <g id="Grupo_14939" data-name="Grupo 14939" transform="translate(8.248 17.946)">
          <path id="Trazado_15100" data-name="Trazado 15100" d="M2.715,1.3A1.359,1.359,0,0,1,0,1.328,1.359,1.359,0,0,1,2.715,1.3Z" transform="translate(0 0)" fill="#fee"/>
        </g>
        <g id="Grupo_14940" data-name="Grupo 14940" transform="translate(12.758 19.061)">
          <path id="Trazado_15101" data-name="Trazado 15101" d="M2.721,1.345A1.379,1.379,0,0,1,1.377,2.722,1.384,1.384,0,0,1,0,1.378,1.379,1.379,0,0,1,1.344,0,1.384,1.384,0,0,1,2.721,1.345Z" transform="translate(0 0)" fill="#fee"/>
        </g>
        <g id="Grupo_14941" data-name="Grupo 14941" transform="translate(10.184 27.071)">
          <path id="Trazado_15102" data-name="Trazado 15102" d="M2.295,1.1A1.148,1.148,0,0,1,0,1.123,1.148,1.148,0,0,1,2.295,1.1Z" transform="translate(0 0)" fill="#fee"/>
        </g>
        <g id="Grupo_14942" data-name="Grupo 14942" transform="translate(8.11 30.523)">
          <path id="Trazado_15103" data-name="Trazado 15103" d="M1.04.5A.52.52,0,0,1,0,.509.52.52,0,0,1,1.04.5Z" transform="translate(0 0)" fill="#fee"/>
        </g>
        <g id="Grupo_14943" data-name="Grupo 14943" transform="translate(12.514 30.961)">
          <path id="Trazado_15104" data-name="Trazado 15104" d="M.787.375A.394.394,0,0,1,0,.385.394.394,0,0,1,.787.375Z" transform="translate(0 0)" fill="#fee"/>
        </g>
        <g id="Grupo_14944" data-name="Grupo 14944" transform="translate(4.109 20.268)">
          <path id="Trazado_15105" data-name="Trazado 15105" d="M1.694.808A.848.848,0,0,1,0,.829.848.848,0,0,1,1.694.808Z" transform="translate(0 0)" fill="#fee"/>
        </g>
        <g id="Grupo_14945" data-name="Grupo 14945" transform="translate(4.983 24.014)">
          <path id="Trazado_15106" data-name="Trazado 15106" d="M1.414.675A.707.707,0,0,1,0,.692.707.707,0,0,1,1.414.675Z" transform="translate(0 0)" fill="#fee"/>
        </g>
        <g id="Grupo_14946" data-name="Grupo 14946" transform="translate(3.801 17.07)">
          <path id="Trazado_15107" data-name="Trazado 15107" d="M.841.4A.421.421,0,0,1,0,.412.421.421,0,0,1,.841.4Z" transform="translate(0 0)" fill="#fee"/>
        </g>
        <g id="Grupo_14947" data-name="Grupo 14947" transform="translate(7.046 21.189)">
          <path id="Trazado_15108" data-name="Trazado 15108" d="M.974.465A.487.487,0,0,1,0,.477.487.487,0,0,1,.974.465Z" transform="translate(0 0)" fill="#fee"/>
        </g>
        <g id="Grupo_14948" data-name="Grupo 14948" transform="translate(2.546 17.543)">
          <path id="Trazado_15109" data-name="Trazado 15109" d="M.814.388A.407.407,0,0,1,0,.4.407.407,0,0,1,.814.388Z" transform="translate(0 0)" fill="#fee"/>
        </g>
        <g id="Grupo_14949" data-name="Grupo 14949" transform="translate(1.417 12.723)">
          <path id="Trazado_15110" data-name="Trazado 15110" d="M1.121.535A.561.561,0,0,1,0,.548.561.561,0,0,1,1.121.535Z" transform="translate(0 0)" fill="#fee"/>
        </g>
        <g id="Grupo_14950" data-name="Grupo 14950" transform="translate(1.617 15.624)">
          <path id="Trazado_15111" data-name="Trazado 15111" d="M.427.2A.214.214,0,0,1,0,.209.214.214,0,0,1,.427.2Z" transform="translate(0 0)" fill="#fee"/>
        </g>
        <g id="Grupo_14951" data-name="Grupo 14951" transform="translate(4.973 13.392)">
          <path id="Trazado_15112" data-name="Trazado 15112" d="M1.307.624A.654.654,0,0,1,0,.64.654.654,0,0,1,1.307.624Z" transform="translate(0 0)" fill="#fee"/>
        </g>
        <g id="Grupo_14952" data-name="Grupo 14952" transform="translate(5.427 15.696)">
          <path id="Trazado_15113" data-name="Trazado 15113" d="M1.374.655A.688.688,0,0,1,0,.672.688.688,0,0,1,1.374.655Z" transform="translate(0 0)" fill="#fee"/>
        </g>
        <g id="Grupo_14953" data-name="Grupo 14953" transform="translate(12.922 34.68)">
          <path id="Trazado_15114" data-name="Trazado 15114" d="M.587.28A.294.294,0,0,1,0,.287.294.294,0,0,1,.587.28Z" transform="translate(0 0)" fill="#fee"/>
        </g>
        <g id="Grupo_14954" data-name="Grupo 14954" transform="translate(9.477 34.322)">
          <path id="Trazado_15115" data-name="Trazado 15115" d="M.627.3A.314.314,0,0,1,0,.307.314.314,0,0,1,.627.3Z" transform="translate(0 0)" fill="#fee"/>
        </g>
        <g id="Grupo_14955" data-name="Grupo 14955" transform="translate(10.306 32.401)">
          <path id="Trazado_15116" data-name="Trazado 15116" d="M1.014.484A.507.507,0,0,1,0,.5.507.507,0,0,1,1.014.484Z" transform="translate(0 0)" fill="#fee"/>
        </g>
        <g id="Grupo_14956" data-name="Grupo 14956" transform="translate(11.272 35.191)">
          <path id="Trazado_15117" data-name="Trazado 15117" d="M.934.446A.467.467,0,0,1,0,.457.467.467,0,0,1,.934.446Z" transform="translate(0 0)" fill="#fee"/>
        </g>
        <g id="Grupo_14957" data-name="Grupo 14957" transform="translate(14.095 32.255)">
          <path id="Trazado_15118" data-name="Trazado 15118" d="M.68.325A.34.34,0,0,1,0,.333.34.34,0,0,1,.68.325Z" transform="translate(0 0)" fill="#fee"/>
        </g>
        <g id="Grupo_14958" data-name="Grupo 14958" transform="translate(15.724 35.679)">
          <path id="Trazado_15119" data-name="Trazado 15119" d="M.146.07A.073.073,0,0,1,0,.072a.073.073,0,0,1,.146,0Z" transform="translate(0 0)" fill="#fee"/>
        </g>
        <g id="Grupo_14959" data-name="Grupo 14959" transform="translate(16.562 34.387)">
          <path id="Trazado_15120" data-name="Trazado 15120" d="M.987.471A.494.494,0,0,1,0,.483.494.494,0,0,1,.987.471Z" transform="translate(0 0)" fill="#fee"/>
        </g>
        <g id="Grupo_14960" data-name="Grupo 14960" transform="translate(15.37 31.801)">
          <path id="Trazado_15121" data-name="Trazado 15121" d="M.667.318A.334.334,0,0,1,0,.326.334.334,0,0,1,.667.318Z" transform="translate(0 0)" fill="#fee"/>
        </g>
        <g id="Grupo_14961" data-name="Grupo 14961" transform="translate(16.828 33.392)">
          <path id="Trazado_15122" data-name="Trazado 15122" d="M.827.395A.414.414,0,0,1,0,.4.414.414,0,0,1,.827.395Z" transform="translate(0 0)" fill="#fee"/>
        </g>
        <g id="Grupo_14962" data-name="Grupo 14962" transform="translate(18.145 30.949)">
          <path id="Trazado_15123" data-name="Trazado 15123" d="M.024.543l.052-.2a.471.471,0,0,1,.9-.012l.064.2c.264.821-1.248.879-1.019.014Z" transform="translate(0 0)" fill="#fee"/>
        </g>
        <g id="Grupo_14963" data-name="Grupo 14963" transform="translate(15.783 27.816)">
          <path id="Trazado_15124" data-name="Trazado 15124" d="M1.36.649A.681.681,0,0,1,0,.666.681.681,0,0,1,1.36.649Z" transform="translate(0 0)" fill="#fee"/>
        </g>
        <g id="Grupo_14964" data-name="Grupo 14964" transform="translate(17.593 26)">
          <path id="Trazado_15125" data-name="Trazado 15125" d="M1.054.5A.527.527,0,0,1,0,.516.527.527,0,0,1,1.054.5Z" transform="translate(0 0)" fill="#fee"/>
        </g>
        <g id="Grupo_14965" data-name="Grupo 14965" transform="translate(19.274 29.467)">
          <path id="Trazado_15126" data-name="Trazado 15126" d="M1.294.618A.647.647,0,0,1,0,.633.647.647,0,0,1,1.294.618Z" transform="translate(0 0)" fill="#fee"/>
        </g>
        <g id="Grupo_14966" data-name="Grupo 14966" transform="translate(18.757 32.723)">
          <path id="Trazado_15127" data-name="Trazado 15127" d="M1.214.579A.607.607,0,0,1,0,.594.607.607,0,0,1,1.214.579Z" transform="translate(0 0)" fill="#fee"/>
        </g>
        <g id="Grupo_14967" data-name="Grupo 14967" transform="translate(5.952 12.239)">
          <path id="Trazado_15128" data-name="Trazado 15128" d="M1.428.681A.714.714,0,0,1,0,.7.714.714,0,0,1,1.428.681Z" transform="translate(0 0)" fill="#fee"/>
        </g>
        <g id="Grupo_14968" data-name="Grupo 14968" transform="translate(3.227 9.654)">
          <path id="Trazado_15129" data-name="Trazado 15129" d="M1.187.566A.594.594,0,0,1,0,.581.594.594,0,0,1,1.187.566Z" transform="translate(0 0)" fill="#fee"/>
        </g>
        <g id="Grupo_14969" data-name="Grupo 14969" transform="translate(9.394 13.429)">
          <path id="Trazado_15130" data-name="Trazado 15130" d="M1,.478A.5.5,0,0,1,0,.49.5.5,0,0,1,1,.478Z" transform="translate(0 0)" fill="#fee"/>
        </g>
        <g id="Grupo_14970" data-name="Grupo 14970" transform="translate(10.414 22.097)">
          <path id="Trazado_15131" data-name="Trazado 15131" d="M1.12.535A.561.561,0,0,1,0,.548.561.561,0,0,1,1.12.535Z" transform="translate(0 0)" fill="#fee"/>
        </g>
        <g id="Grupo_14971" data-name="Grupo 14971" transform="translate(5.642 27.742)">
          <path id="Trazado_15132" data-name="Trazado 15132" d="M.978.015a1.056,1.056,0,0,1,.363.138.716.716,0,0,1,.024,1.226A1.086,1.086,0,0,1,1,1.537.8.8,0,0,1,0,.788.8.8,0,0,1,.978.015Z" transform="translate(0 0)" fill="#fee"/>
        </g>
        <g id="Grupo_14972" data-name="Grupo 14972" transform="translate(0 5.967)">
          <path id="Trazado_15133" data-name="Trazado 15133" d="M1.041.5A.521.521,0,0,1,0,.509.521.521,0,0,1,1.041.5Z" transform="translate(0 0)" fill="#fee"/>
        </g>
        <g id="Grupo_14973" data-name="Grupo 14973" transform="translate(0.249 9.324)">
          <path id="Trazado_15134" data-name="Trazado 15134" d="M1.147.547A.574.574,0,0,1,0,.562.574.574,0,0,1,1.147.547Z" transform="translate(0 0)" fill="#fee"/>
        </g>
        <g id="Grupo_14974" data-name="Grupo 14974" transform="translate(8.977 10.95)">
          <path id="Trazado_15135" data-name="Trazado 15135" d="M1.253.451a.77.77,0,0,1-.084.669.6.6,0,0,1-1.029.021A.773.773,0,0,1,.028.468.638.638,0,0,1,1.253.451Z" transform="translate(0 0)" fill="#fee"/>
        </g>
        <g id="Grupo_14975" data-name="Grupo 14975" transform="translate(13.039 12.521)">
          <path id="Trazado_15136" data-name="Trazado 15136" d="M.92.439A.461.461,0,0,1,0,.45.461.461,0,0,1,.92.439Z" transform="translate(0 0)" fill="#fee"/>
        </g>
        <g id="Grupo_14976" data-name="Grupo 14976" transform="translate(13.585 15.122)">
          <path id="Trazado_15137" data-name="Trazado 15137" d="M.814.388A.407.407,0,0,1,0,.4.407.407,0,0,1,.814.388Z" transform="translate(0 0)" fill="#fee"/>
        </g>
        <g id="Grupo_14977" data-name="Grupo 14977" transform="translate(17.212 20.285)">
          <path id="Trazado_15138" data-name="Trazado 15138" d="M1.008.34l.07.2a.551.551,0,0,1-.52.694A.551.551,0,0,1,.02.55l.059-.2A.484.484,0,0,1,1.008.34Z" transform="translate(0 0)" fill="#fee"/>
        </g>
        <g id="Grupo_14978" data-name="Grupo 14978" transform="translate(14.342 23.122)">
          <path id="Trazado_15139" data-name="Trazado 15139" d="M1,.478A.5.5,0,0,1,0,.489.5.5,0,0,1,1,.478Z" transform="translate(0 0)" fill="#fee"/>
        </g>
        <g id="Grupo_14979" data-name="Grupo 14979" transform="translate(3.094 3.916)">
          <path id="Trazado_15140" data-name="Trazado 15140" d="M.28.133a.14.14,0,0,1-.28,0,.14.14,0,0,1,.28,0Z" transform="translate(0 0)" fill="#fee"/>
        </g>
        <g id="Grupo_14980" data-name="Grupo 14980" transform="translate(10.231 6.316)">
          <path id="Trazado_15141" data-name="Trazado 15141" d="M1.094.522A.547.547,0,0,1,0,.535.547.547,0,0,1,1.094.522Z" transform="translate(0 0)" fill="#fee"/>
        </g>
        <g id="Grupo_14981" data-name="Grupo 14981" transform="translate(4.721 3.375)">
          <path id="Trazado_15142" data-name="Trazado 15142" d="M.854.407A.427.427,0,0,1,0,.418.427.427,0,0,1,.854.407Z" transform="translate(0 0)" fill="#fee"/>
        </g>
        <g id="Grupo_14982" data-name="Grupo 14982" transform="translate(4.364 5.326)">
          <path id="Trazado_15143" data-name="Trazado 15143" d="M.814.388A.407.407,0,0,1,0,.4.407.407,0,0,1,.814.388Z" transform="translate(0 0)" fill="#fee"/>
        </g>
        <g id="Grupo_14983" data-name="Grupo 14983" transform="translate(18.682 11.846)">
          <path id="Trazado_15144" data-name="Trazado 15144" d="M.694.331A.347.347,0,0,1,0,.339.347.347,0,0,1,.694.331Z" transform="translate(0 0)" fill="#fee"/>
        </g>
        <g id="Grupo_14984" data-name="Grupo 14984" transform="translate(19.831 16.474)">
          <path id="Trazado_15145" data-name="Trazado 15145" d="M.774.369A.387.387,0,0,1,0,.379.387.387,0,0,1,.774.369Z" transform="translate(0 0)" fill="#fee"/>
        </g>
        <g id="Grupo_14985" data-name="Grupo 14985" transform="translate(22.098 22.58)">
          <path id="Trazado_15146" data-name="Trazado 15146" d="M.828.395A.414.414,0,0,1,0,.4.414.414,0,0,1,.828.395Z" transform="translate(0 0)" fill="#fee"/>
        </g>
        <g id="Grupo_14986" data-name="Grupo 14986" transform="translate(24.691 19.009)">
          <path id="Trazado_15147" data-name="Trazado 15147" d="M.574.274A.287.287,0,0,1,0,.281.287.287,0,0,1,.574.274Z" transform="translate(0 0)" fill="#fee"/>
        </g>
        <g id="Grupo_14987" data-name="Grupo 14987" transform="translate(24.758 12.617)">
          <path id="Trazado_15148" data-name="Trazado 15148" d="M.973.465A.487.487,0,0,1,0,.476.487.487,0,0,1,.973.465Z" transform="translate(0 0)" fill="#fee"/>
        </g>
        <g id="Grupo_14988" data-name="Grupo 14988" transform="translate(16.673 4.522)">
          <path id="Trazado_15149" data-name="Trazado 15149" d="M1.36.65A.681.681,0,0,1,0,.666.681.681,0,0,1,1.36.65Z" transform="translate(0 0)" fill="#fee"/>
        </g>
        <g id="Grupo_14989" data-name="Grupo 14989" transform="translate(14.207 5.72)">
          <path id="Trazado_15150" data-name="Trazado 15150" d="M1.227.586A.614.614,0,0,1,0,.6.614.614,0,0,1,1.227.586Z" transform="translate(0 0)" fill="#fee"/>
        </g>
        <g id="Grupo_14990" data-name="Grupo 14990" transform="translate(11.914 1.877)">
          <path id="Trazado_15151" data-name="Trazado 15151" d="M1.347.643A.674.674,0,0,1,0,.659.674.674,0,0,1,1.347.643Z" transform="translate(0 0)" fill="#fee"/>
        </g>
        <g id="Grupo_14991" data-name="Grupo 14991" transform="translate(23.725 8.934)">
          <path id="Trazado_15152" data-name="Trazado 15152" d="M.707.337A.354.354,0,0,1,0,.346.354.354,0,0,1,.707.337Z" transform="translate(0 0)" fill="#fee"/>
        </g>
        <g id="Grupo_14992" data-name="Grupo 14992" transform="translate(26.222 23.167)">
          <path id="Trazado_15153" data-name="Trazado 15153" d="M.72.344A.36.36,0,0,1,0,.352.36.36,0,0,1,.72.344Z" transform="translate(0 0)" fill="#fee"/>
        </g>
        <g id="Grupo_14993" data-name="Grupo 14993" transform="translate(22.911 27.723)">
          <path id="Trazado_15154" data-name="Trazado 15154" d="M.747.357A.374.374,0,0,1,0,.365.374.374,0,0,1,.747.357Z" transform="translate(0 0)" fill="#fee"/>
        </g>
        <g id="Grupo_14994" data-name="Grupo 14994" transform="translate(28.984 24.335)">
          <path id="Trazado_15155" data-name="Trazado 15155" d="M.373.178A.187.187,0,0,1,0,.183a.187.187,0,0,1,.373,0Z" transform="translate(0 0)" fill="#fee"/>
        </g>
        <g id="Grupo_14995" data-name="Grupo 14995" transform="translate(32.723 15.605)">
          <path id="Trazado_15156" data-name="Trazado 15156" d="M.56.267A.28.28,0,0,1,0,.274.28.28,0,0,1,.56.267Z" transform="translate(0 0)" fill="#fee"/>
        </g>
        <g id="Grupo_14996" data-name="Grupo 14996" transform="translate(33.431 8.571)">
          <path id="Trazado_15157" data-name="Trazado 15157" d="M1.36.649A.681.681,0,0,1,0,.666.681.681,0,0,1,1.36.649Z" transform="translate(0 0)" fill="#fee"/>
        </g>
        <g id="Grupo_14997" data-name="Grupo 14997" transform="translate(25.631 2.627)">
          <path id="Trazado_15158" data-name="Trazado 15158" d="M.841.4A.421.421,0,0,1,0,.411.421.421,0,0,1,.841.4Z" transform="translate(0 0)" fill="#fee"/>
        </g>
        <g id="Grupo_14998" data-name="Grupo 14998" transform="translate(18.924 0)">
          <path id="Trazado_15159" data-name="Trazado 15159" d="M1.321.63A.661.661,0,0,1,0,.646.661.661,0,0,1,1.321.63Z" transform="translate(0 0)" fill="#fee"/>
        </g>
      </g>
    </g>
  </g>
</svg>
