<svg xmlns="http://www.w3.org/2000/svg" width="32.761" height="32.76" viewBox="0 0 32.761 32.76">
  <g id="Grupo_14708" data-name="Grupo 14708" opacity="0.2">
    <g id="Grupo_14457" data-name="Grupo 14457" transform="translate(0 0)">
      <path id="Trazado_13723" data-name="Trazado 13723" d="M23.49,725.688c.137,0,.276,0,.415-.014a6.266,6.266,0,0,0,5.771-6.308V717.7a2.215,2.215,0,0,1,2.212-2.213H33.7a6.2,6.2,0,0,0,4.506-1.952,6.131,6.131,0,0,0,1.658-4.631,6.267,6.267,0,0,0-6.309-5.77H31.888a2.215,2.215,0,0,1-2.212-2.213v-1.813a6.2,6.2,0,0,0-1.954-4.508,6.125,6.125,0,0,0-4.631-1.656,6.265,6.265,0,0,0-5.771,6.308v1.668a2.216,2.216,0,0,1-2.212,2.213H13.44A6.266,6.266,0,0,0,7.131,708.9a6.127,6.127,0,0,0,1.658,4.632,6.2,6.2,0,0,0,4.506,1.952h1.813A2.216,2.216,0,0,1,17.32,717.7v1.813a6.2,6.2,0,0,0,1.954,4.508A6.113,6.113,0,0,0,23.49,725.688Zm10.066-18.634a2.364,2.364,0,0,1,2.394,2.1,2.255,2.255,0,0,1-2.249,2.409H31.888a6.141,6.141,0,0,0-6.134,6.134v1.669a2.367,2.367,0,0,1-2.1,2.395,2.272,2.272,0,0,1-1.695-.605,2.234,2.234,0,0,1-.714-1.645V717.7a6.141,6.141,0,0,0-6.134-6.134H13.3a2.257,2.257,0,0,1-2.25-2.41,2.366,2.366,0,0,1,2.395-2.1h1.668a6.142,6.142,0,0,0,6.134-6.136V699.25a2.367,2.367,0,0,1,2.1-2.395,2.257,2.257,0,0,1,2.41,2.25v1.813a6.142,6.142,0,0,0,6.134,6.136Z" transform="translate(-7.118 -692.928)" fill="#0090ff"/>
    </g>
  </g>
</svg>
