<svg xmlns="http://www.w3.org/2000/svg" width="28.603" height="27.742" viewBox="0 0 28.603 27.742">
  <g id="Grupo_15801" data-name="Grupo 15801" transform="translate(31.357 10.505) rotate(133)">
    <path id="Trazado_14944" data-name="Trazado 14944" d="M9.9,19.506A9.752,9.752,0,0,1,9.606,0l.063,0a9.627,9.627,0,0,1,1,.014c.079.006.153.021.231.028s.154,0,.232,0a9.011,9.011,0,0,1,8.375,9.606c0,.033-.009.065-.012.1A9.748,9.748,0,0,1,9.9,19.506Z" transform="translate(4.038 0)" fill="#ba320d" opacity="0.26" style="mix-blend-mode: multiply;isolation: isolate"/>
    <g id="Grupo_14802" data-name="Grupo 14802" transform="translate(0 0.954)">
      <ellipse id="Elipse_246" data-name="Elipse 246" cx="9.752" cy="9.752" rx="9.752" ry="9.752" transform="translate(13.615 0) rotate(44.274)" fill="#dd70de"/>
      <ellipse id="Elipse_247" data-name="Elipse 247" cx="9.476" cy="9.476" rx="9.476" ry="9.476" transform="matrix(0.55, 0.835, -0.835, 0.55, 16.759, 0.383)" fill="#d7a3f0"/>
      <ellipse id="Elipse_248" data-name="Elipse 248" cx="9.011" cy="9.011" rx="9.011" ry="9.011" transform="matrix(0.655, 0.756, -0.756, 0.655, 15.465, 0.367)" fill="#dd70de"/>
      <ellipse id="Elipse_249" data-name="Elipse 249" cx="8.573" cy="8.573" rx="8.573" ry="8.573" transform="matrix(0.411, 0.912, -0.912, 0.411, 18.64, 1.876)" fill="#feb0ff"/>
      <g id="Grupo_14798" data-name="Grupo 14798" transform="translate(5.795 4.706)">
        <path id="Trazado_14945" data-name="Trazado 14945" d="M8.415,0l-6,6.414A8.577,8.577,0,0,1,0,1.009L8.415,0Z" transform="translate(0 8.08)" fill="#b2569c"/>
        <path id="Trazado_14946" data-name="Trazado 14946" d="M0,0,7.407,4.977a8.589,8.589,0,0,1-6.636,4L.02.29Z" transform="translate(8.415 8.08)" fill="#b2569c"/>
        <path id="Trazado_14947" data-name="Trazado 14947" d="M0,3.377A8.6,8.6,0,0,1,5.813,0L6.73,8.08Z" transform="translate(1.684 0)" fill="#b2569c"/>
        <path id="Trazado_14948" data-name="Trazado 14948" d="M0,5.954,5.86,0A8.6,8.6,0,0,1,8.569,4.822Z" transform="translate(8.415 2.126)" fill="#b2569c"/>
      </g>
      <g id="Grupo_14799" data-name="Grupo 14799" transform="translate(5.775 4.645)">
        <path id="Trazado_14949" data-name="Trazado 14949" d="M8.478,0l-6.6,5.8A8.573,8.573,0,0,1,0,.18L8.478,0Z" transform="translate(0 8.131)" fill="#e85cff"/>
        <path id="Trazado_14950" data-name="Trazado 14950" d="M.112,0,7,5.678A8.588,8.588,0,0,1,0,9.009L.1.29Z" transform="translate(8.366 8.131)" fill="#e85cff"/>
        <path id="Trazado_14951" data-name="Trazado 14951" d="M0,2.791A8.589,8.589,0,0,1,6.116,0l.122,8.131Z" transform="translate(2.24 0)" fill="#e85cff"/>
        <path id="Trazado_14952" data-name="Trazado 14952" d="M0,5.351,6.415,0A8.6,8.6,0,0,1,8.638,5.063Z" transform="translate(8.478 2.779)" fill="#e85cff"/>
      </g>
      <path id="Trazado_14953" data-name="Trazado 14953" d="M15.333,13.166a6.089,6.089,0,0,1-.117-.953C15.79,3.951,8.219-.615,0,5.744a8.574,8.574,0,1,1,15.333,7.423Z" transform="translate(6.252 4.642)" fill="#ffb7ef" opacity="0.36" style="mix-blend-mode: hard-light;isolation: isolate"/>
      <g id="Grupo_14800" data-name="Grupo 14800" transform="translate(8.583 6.39)" opacity="0.68" style="mix-blend-mode: hard-light;isolation: isolate">
        <path id="Trazado_14954" data-name="Trazado 14954" d="M.018,1.156C.106,1.02.111.894.236.77A2.19,2.19,0,0,1,.823.385,3.716,3.716,0,0,1,2.126,0c.411-.041.49.583.111.7s-.746.224-1.107.366c-.168.067-.332.147-.5.206a3.156,3.156,0,0,1-.466.056c-.093.019-.2-.079-.143-.175Z" transform="translate(0 0)" fill="#ff9ddc"/>
      </g>
      <g id="Grupo_14801" data-name="Grupo 14801" transform="translate(21.174 11.993)" opacity="0.68" style="mix-blend-mode: hard-light;isolation: isolate">
        <path id="Trazado_14955" data-name="Trazado 14955" d="M.746,3.16A5.733,5.733,0,0,0,.051.587C-.186.158.469-.248.7.185a4.754,4.754,0,0,1,.526,3.023c-.042.277-.468.22-.477-.049Z" transform="translate(0 0)" fill="#ff9ddc"/>
      </g>
    </g>
  </g>
</svg>
