<svg xmlns="http://www.w3.org/2000/svg" width="171.992" height="238.784" viewBox="0 0 171.992 238.784">
  <g id="Grupo_15050" data-name="Grupo 15050" transform="translate(-5.085 0)">
    <path id="Trazado_15261" data-name="Trazado 15261" d="M107.482,324.836c-.009-.128-.026-.253-.036-.381A43.944,43.944,0,1,0,61.674,368.3L59.834,491.41s1.47,2.241,3.533,1.443a9.44,9.44,0,0,0,6.077-.68L67.909,368.243c.262-.02.521-.05.781-.074.349-.015.7-.021,1.047-.045A40.613,40.613,0,0,0,107.482,324.836Z" transform="translate(51.415 -254.294)" fill="#ba320d" opacity="0.26" style="mix-blend-mode: multiply;isolation: isolate"/>
    <g id="Grupo_15049" data-name="Grupo 15049" transform="translate(0 0)">
      <path id="Trazado_15262" data-name="Trazado 15262" d="M62.177,357.905,60.292,483.969a9.533,9.533,0,0,0,9.419.76L68.142,357.993Z" transform="translate(48.413 -256.53)" fill="#fff37a"/>
      <path id="Trazado_15263" data-name="Trazado 15263" d="M61.985,357.9,60.1,483.966s2.047,3.144,4.7.69l.163-126.71Z" transform="translate(48.414 -256.53)" fill="#f3cf1d"/>
      <circle id="Elipse_257" data-name="Elipse 257" cx="43.949" cy="43.949" r="43.949" transform="translate(52.77 62.154) rotate(-45)" fill="#8352bd"/>
      <ellipse id="Elipse_258" data-name="Elipse 258" cx="42.706" cy="42.706" rx="42.706" ry="42.706" transform="translate(61.107 88.275) rotate(-69.306)" fill="#9f70cf"/>
      <ellipse id="Elipse_259" data-name="Elipse 259" cx="40.612" cy="40.612" rx="40.612" ry="40.612" transform="matrix(0.352, -0.936, 0.936, 0.352, 63.326, 87.329)" fill="#8352bd"/>
      <circle id="Elipse_260" data-name="Elipse 260" cx="38.638" cy="38.638" r="38.638" transform="translate(60.06 63.017) rotate(-45)" fill="#cfa4cf"/>
      <g id="Grupo_15044" data-name="Grupo 15044" transform="translate(76.156 24.491)">
        <path id="Trazado_15264" data-name="Trazado 15264" d="M65.454,321.047,38.418,292.138A38.65,38.65,0,0,0,27.528,316.5l37.926,4.545Z" transform="translate(-27.528 -280.589)" fill="#772a91"/>
        <path id="Trazado_15265" data-name="Trazado 15265" d="M65.705,320.97l33.384-22.428a38.71,38.71,0,0,0-29.906-18.03L65.8,319.664Z" transform="translate(-27.779 -280.513)" fill="#772a91"/>
        <path id="Trazado_15266" data-name="Trazado 15266" d="M35.172,342.435a38.726,38.726,0,0,0,26.2,15.219L65.5,321.238Z" transform="translate(-27.578 -280.781)" fill="#772a91"/>
        <path id="Trazado_15267" data-name="Trazado 15267" d="M65.705,321.238l26.412,26.835a38.743,38.743,0,0,0,12.205-21.729Z" transform="translate(-27.779 -280.781)" fill="#772a91"/>
      </g>
      <g id="Grupo_15045" data-name="Grupo 15045" transform="translate(76.067 24.38)">
        <path id="Trazado_15268" data-name="Trazado 15268" d="M65.646,321.113,35.908,294.99A38.658,38.658,0,0,0,27.457,320.3l38.189.81Z" transform="translate(-27.438 -280.497)" fill="#ae50c7"/>
        <path id="Trazado_15269" data-name="Trazado 15269" d="M65.9,321.017l31.027-25.59a38.712,38.712,0,0,0-31.527-15.015l.462,39.3Z" transform="translate(-27.688 -280.401)" fill="#ae50c7"/>
        <path id="Trazado_15270" data-name="Trazado 15270" d="M37.6,345.351a38.724,38.724,0,0,0,27.563,12.581l.548-36.646Z" transform="translate(-27.505 -280.67)" fill="#ae50c7"/>
        <path id="Trazado_15271" data-name="Trazado 15271" d="M65.9,321.286,94.811,345.4a38.743,38.743,0,0,0,10.02-22.82Z" transform="translate(-27.691 -280.67)" fill="#ae50c7"/>
      </g>
      <path id="Trazado_15272" data-name="Trazado 15272" d="M98.708,298.454a27.39,27.39,0,0,0-.527,4.3c2.588,37.238-31.536,57.817-68.576,29.157a38.642,38.642,0,1,0,69.1-33.453Z" transform="translate(48.614 -256.139)" fill="#f1dbf2" opacity="0.36" style="mix-blend-mode: hard-light;isolation: isolate"/>
      <g id="Grupo_15046" data-name="Grupo 15046" transform="translate(88.725 87.765)" opacity="0.68" style="mix-blend-mode: hard-light;isolation: isolate">
        <path id="Trazado_15273" data-name="Trazado 15273" d="M40.26,345c.4.616.417,1.183.982,1.74a9.908,9.908,0,0,0,2.645,1.737,16.769,16.769,0,0,0,5.875,1.726c1.854.186,2.206-2.629.5-3.158-1.672-.519-3.364-1.008-4.993-1.65-.759-.3-1.5-.663-2.267-.928a14.106,14.106,0,0,0-2.1-.253c-.418-.088-.925.355-.645.788Z" transform="translate(-40.18 -344.205)" fill="#eddbe9"/>
      </g>
      <g id="Grupo_15047" data-name="Grupo 15047" transform="translate(102.179 93.103)" opacity="0.68" style="mix-blend-mode: hard-light;isolation: isolate">
        <path id="Trazado_15274" data-name="Trazado 15274" d="M53.954,351.393c.856.962,2.354,1.152,3.552,1.413a1.566,1.566,0,1,0,.487-3.071c-1.207-.113-2.7-.391-3.8.257a.91.91,0,0,0-.24,1.4Z" transform="translate(-53.723 -349.578)" fill="#eddbe9"/>
      </g>
      <g id="Grupo_15048" data-name="Grupo 15048" transform="translate(145.47 53.243)" opacity="0.68" style="mix-blend-mode: hard-light;isolation: isolate">
        <path id="Trazado_15275" data-name="Trazado 15275" d="M100.665,310.493a25.864,25.864,0,0,1-3.136,11.6c-1.063,1.934,1.884,3.763,2.917,1.813a21.432,21.432,0,0,0,2.37-13.627c-.19-1.246-2.109-.991-2.151.219Z" transform="translate(-97.301 -309.454)" fill="#eddbe9"/>
      </g>
      <g id="Grupo_15279" data-name="Grupo 15279" transform="translate(29.459 173.664) rotate(-62)">
        <path id="Trazado_14944" data-name="Trazado 14944" d="M12.1,0a11.92,11.92,0,0,0-.357,23.838c.026,0,.051,0,.077,0a11.765,11.765,0,0,0,1.224-.018c.1-.007.187-.025.283-.034s.188,0,.284,0A11.015,11.015,0,0,0,23.846,12.038c0-.04-.011-.08-.014-.12A11.915,11.915,0,0,0,12.1,0Z" transform="translate(4.936 11.034)" fill="#ba320d" opacity="0.26" style="mix-blend-mode: multiply;isolation: isolate"/>
        <g id="Grupo_14802" data-name="Grupo 14802" transform="translate(0 0)">
          <ellipse id="Elipse_246" data-name="Elipse 246" cx="11.92" cy="11.92" rx="11.92" ry="11.92" transform="translate(0 16.642) rotate(-44.274)" fill="#dd70de"/>
          <ellipse id="Elipse_247" data-name="Elipse 247" cx="11.583" cy="11.583" rx="11.583" ry="11.583" transform="translate(1.143 20.495) rotate(-56.611)" fill="#d7a3f0"/>
          <ellipse id="Elipse_248" data-name="Elipse 248" cx="11.015" cy="11.015" rx="11.015" ry="11.015" transform="matrix(0.655, -0.756, 0.756, 0.655, 2.255, 18.837)" fill="#dd70de"/>
          <ellipse id="Elipse_249" data-name="Elipse 249" cx="10.479" cy="10.479" rx="10.479" ry="10.479" transform="matrix(0.411, -0.912, 0.912, 0.411, 3.678, 22.805)" fill="#feb0ff"/>
          <g id="Grupo_14798" data-name="Grupo 14798" transform="translate(7.083 7.11)">
            <path id="Trazado_14945" data-name="Trazado 14945" d="M10.286,7.841,2.953,0A10.484,10.484,0,0,0,0,6.607L10.286,7.841Z" transform="translate(0 3.132)" fill="#b2569c"/>
            <path id="Trazado_14946" data-name="Trazado 14946" d="M0,10.973,9.054,4.89A10.5,10.5,0,0,0,.943,0L.024,10.619Z" transform="translate(10.286 0)" fill="#b2569c"/>
            <path id="Trazado_14947" data-name="Trazado 14947" d="M0,5.749A10.507,10.507,0,0,0,7.106,9.877L8.227,0Z" transform="translate(2.059 10.973)" fill="#b2569c"/>
            <path id="Trazado_14948" data-name="Trazado 14948" d="M0,0,7.164,7.278a10.511,10.511,0,0,0,3.311-5.894Z" transform="translate(10.286 10.973)" fill="#b2569c"/>
          </g>
          <g id="Grupo_14799" data-name="Grupo 14799" transform="translate(7.059 7.08)">
            <path id="Trazado_14949" data-name="Trazado 14949" d="M10.363,7.085,2.3,0A10.479,10.479,0,0,0,.005,6.865l10.358.22Z" transform="translate(0 3.931)" fill="#e85cff"/>
            <path id="Trazado_14950" data-name="Trazado 14950" d="M.136,11.016l8.415-6.94A10.5,10.5,0,0,0,0,0L.126,10.661Z" transform="translate(10.226 0)" fill="#e85cff"/>
            <path id="Trazado_14951" data-name="Trazado 14951" d="M0,6.527A10.5,10.5,0,0,0,7.476,9.939L7.624,0Z" transform="translate(2.738 11.016)" fill="#e85cff"/>
            <path id="Trazado_14952" data-name="Trazado 14952" d="M0,0,7.841,6.541A10.508,10.508,0,0,0,10.559.352Z" transform="translate(10.363 11.016)" fill="#e85cff"/>
          </g>
          <path id="Trazado_14953" data-name="Trazado 14953" d="M18.742,0A7.446,7.446,0,0,0,18.6,1.165c.7,10.1-8.553,15.681-18.6,7.909A10.481,10.481,0,1,0,18.742,0Z" transform="translate(7.643 11.944)" fill="#ffb7ef" opacity="0.36" style="mix-blend-mode: hard-light;isolation: isolate"/>
          <g id="Grupo_14800" data-name="Grupo 14800" transform="translate(10.492 24.271)" opacity="0.68" style="mix-blend-mode: hard-light;isolation: isolate">
            <path id="Trazado_14954" data-name="Trazado 14954" d="M.022.217C.13.384.135.538.288.689a2.677,2.677,0,0,0,.718.471A4.542,4.542,0,0,0,2.6,1.628c.5.05.6-.713.136-.857S1.822.5,1.381.324C1.175.242.975.144.766.072A3.858,3.858,0,0,0,.2,0C.083-.021-.054.1.022.217Z" transform="translate(0 0)" fill="#ff9ddc"/>
          </g>
          <g id="Grupo_14801" data-name="Grupo 14801" transform="translate(25.883 14.908)" opacity="0.68" style="mix-blend-mode: hard-light;isolation: isolate">
            <path id="Trazado_14955" data-name="Trazado 14955" d="M.912.282a7.007,7.007,0,0,1-.85,3.145c-.289.525.511,1.021.791.491A5.811,5.811,0,0,0,1.5.223C1.444-.116.923-.046.912.282Z" transform="translate(0 0)" fill="#ff9ddc"/>
          </g>
        </g>
      </g>
      <g id="Grupo_15280" data-name="Grupo 15280" transform="translate(0 112.154) rotate(-62)">
        <path id="Trazado_15248" data-name="Trazado 15248" d="M11.818,23.836a11.755,11.755,0,0,0,1.224-.018c.1-.007.187-.025.283-.034s.188,0,.284-.005A11.015,11.015,0,0,0,23.847,12.038c0-.041-.011-.081-.015-.121A11.916,11.916,0,1,0,11.742,23.838C11.767,23.839,11.793,23.835,11.818,23.836Z" transform="translate(3.767 9.854)" fill="#ba320d" opacity="0.26" style="mix-blend-mode: multiply;isolation: isolate"/>
        <g id="Grupo_15038" data-name="Grupo 15038" transform="translate(0 0)">
          <path id="Trazado_15249" data-name="Trazado 15249" d="M23.838,12.1A11.92,11.92,0,1,1,12.1,0,11.92,11.92,0,0,1,23.838,12.1Z" transform="translate(3.767 3.757)" fill="#ffa770"/>
          <ellipse id="Elipse_254" data-name="Elipse 254" cx="11.583" cy="11.583" rx="11.583" ry="11.583" transform="translate(0 19.443) rotate(-57.067)" fill="#f0d2a3"/>
          <ellipse id="Elipse_255" data-name="Elipse 255" cx="11.015" cy="11.015" rx="11.015" ry="11.015" transform="translate(2.804 9.358) rotate(-17.521)" fill="#ffa770"/>
          <ellipse id="Elipse_256" data-name="Elipse 256" cx="10.48" cy="10.48" rx="10.48" ry="10.48" transform="translate(5.889 5.899)" fill="#ffe7b0"/>
          <g id="Grupo_15034" data-name="Grupo 15034" transform="translate(5.914 5.93)">
            <path id="Trazado_15250" data-name="Trazado 15250" d="M10.286,7.841,2.953,0A10.484,10.484,0,0,0,0,6.608L10.286,7.841Z" transform="translate(0 3.132)" fill="#fcb358"/>
            <path id="Trazado_15251" data-name="Trazado 15251" d="M0,10.973,9.054,4.89A10.5,10.5,0,0,0,.943,0L.024,10.619Z" transform="translate(10.286 0)" fill="#fcb358"/>
            <path id="Trazado_15252" data-name="Trazado 15252" d="M0,5.749A10.5,10.5,0,0,0,7.106,9.877L8.227,0Z" transform="translate(2.059 10.973)" fill="#fcb358"/>
            <path id="Trazado_15253" data-name="Trazado 15253" d="M0,0,7.164,7.278a10.509,10.509,0,0,0,3.311-5.893Z" transform="translate(10.286 10.973)" fill="#fcb358"/>
          </g>
          <g id="Grupo_15035" data-name="Grupo 15035" transform="translate(5.89 5.9)">
            <path id="Trazado_15254" data-name="Trazado 15254" d="M10.363,7.085,2.3,0A10.48,10.48,0,0,0,.005,6.866l10.358.219Z" transform="translate(0 3.931)" fill="#ffb21a"/>
            <path id="Trazado_15255" data-name="Trazado 15255" d="M.136,11.016l8.415-6.94A10.5,10.5,0,0,0,0,0L.126,10.661Z" transform="translate(10.226 0)" fill="#ffb21a"/>
            <path id="Trazado_15256" data-name="Trazado 15256" d="M0,6.527A10.5,10.5,0,0,0,7.476,9.939L7.624,0Z" transform="translate(2.738 11.016)" fill="#ffb21a"/>
            <path id="Trazado_15257" data-name="Trazado 15257" d="M0,0,7.841,6.541A10.506,10.506,0,0,0,10.559.352Z" transform="translate(10.363 11.016)" fill="#ffb21a"/>
          </g>
          <path id="Trazado_15258" data-name="Trazado 15258" d="M18.742,0A7.44,7.44,0,0,0,18.6,1.165c.7,10.1-8.553,15.681-18.6,7.908A10.481,10.481,0,1,0,18.742,0Z" transform="translate(6.473 10.764)" fill="#ffeeb7" opacity="0.36" style="mix-blend-mode: hard-light;isolation: isolate"/>
          <g id="Grupo_15036" data-name="Grupo 15036" transform="translate(9.322 23.091)" opacity="0.68" style="mix-blend-mode: hard-light;isolation: isolate">
            <path id="Trazado_15259" data-name="Trazado 15259" d="M.022.216C.13.383.135.537.288.688a2.705,2.705,0,0,0,.717.472A4.565,4.565,0,0,0,2.6,1.627c.5.05.6-.713.136-.856S1.822.5,1.381.323C1.175.242.975.143.766.072A3.757,3.757,0,0,0,.2,0C.083-.021-.054.1.022.216Z" transform="translate(0 0)" fill="#ffec9d"/>
          </g>
          <g id="Grupo_15037" data-name="Grupo 15037" transform="translate(24.713 13.728)" opacity="0.68" style="mix-blend-mode: hard-light;isolation: isolate">
            <path id="Trazado_15260" data-name="Trazado 15260" d="M.912.282a7.013,7.013,0,0,1-.85,3.145c-.289.524.51,1.02.791.491A5.813,5.813,0,0,0,1.5.222C1.444-.115.923-.047.912.282Z" transform="translate(0 0)" fill="#ffec9d"/>
          </g>
        </g>
      </g>
    </g>
  </g>
</svg>
