<svg xmlns="http://www.w3.org/2000/svg" width="124.182" height="219.397" viewBox="0 0 124.182 219.397">
  <g id="Grupo_15055" data-name="Grupo 15055" transform="translate(0.001 0)">
    <path id="Trazado_15276" data-name="Trazado 15276" d="M202.525,336.13A43.944,43.944,0,1,0,142.789,359.5L96.958,469.883s.536,2.626,2.749,2.647a9.44,9.44,0,0,0,5.9,1.614l43.054-112.257c.231.079.459.167.693.242.334.107.67.2,1,.3.33.114.655.237.988.345A40.612,40.612,0,0,0,202.417,336.5C202.457,336.374,202.487,336.251,202.525,336.13Z" transform="translate(-96.959 -254.76)" fill="#ba320d" opacity="0.26" style="mix-blend-mode: multiply;isolation: isolate"/>
    <g id="Grupo_15054" data-name="Grupo 15054" transform="translate(-0.001 0)">
      <path id="Trazado_15277" data-name="Trazado 15277" d="M145.482,346.024,97.135,462.464a9.531,9.531,0,0,0,8.47,4.188l45.387-118.34Z" transform="translate(-96.959 -255.221)" fill="#fff37a"/>
      <path id="Trazado_15278" data-name="Trazado 15278" d="M145.305,345.95,96.958,462.391s.74,3.678,4.116,2.379L148.06,347.094Z" transform="translate(-96.958 -255.221)" fill="#f3cf1d"/>
      <ellipse id="Elipse_261" data-name="Elipse 261" cx="43.949" cy="43.949" rx="43.949" ry="43.949" transform="matrix(0.987, -0.16, 0.16, 0.987, 14.351, 20.767)" fill="#bf2277"/>
      <ellipse id="Elipse_262" data-name="Elipse 262" cx="42.706" cy="42.706" rx="42.706" ry="42.706" transform="translate(6.683 44.747) rotate(-31.594)" fill="#ff3e9f"/>
      <ellipse id="Elipse_263" data-name="Elipse 263" cx="40.612" cy="40.612" rx="40.612" ry="40.612" transform="translate(24.82 18.137)" fill="#f0a9d2"/>
      <path id="Trazado_15279" data-name="Trazado 15279" d="M197.818,297.9a37.8,37.8,0,0,0-9.321.591c-24.986,2.849-47.322,21.071-51.542,45.084a38.719,38.719,0,0,0,19.352,9.778c2.455-9.909,7.7-18.835,17.235-23.829a56.883,56.883,0,0,1,27.774-6.9A38.6,38.6,0,0,0,197.818,297.9Z" transform="translate(-98.575 -257.537)" fill="#ed81ba"/>
      <path id="Trazado_15280" data-name="Trazado 15280" d="M127.6,300.409a38.5,38.5,0,0,0-2.962,14.578c11.581-20.091,35.087-31.634,59.031-32.579a38.609,38.609,0,0,0-56.069,18Z" transform="translate(-98.494 -257.397)" fill="#ed81ba"/>
      <path id="Trazado_15281" data-name="Trazado 15281" d="M201.24,308.254a27.624,27.624,0,0,0-2.078,3.8c-11.359,35.557-50.673,42.065-74.5,1.745a38.642,38.642,0,1,0,76.574-5.542Z" transform="translate(-98.494 -257.606)" fill="#f1dbf2" opacity="0.36" style="mix-blend-mode: hard-light;isolation: isolate"/>
      <g id="Grupo_15051" data-name="Grupo 15051" transform="translate(32.622 74.038)" opacity="0.68" style="mix-blend-mode: hard-light;isolation: isolate">
        <path id="Trazado_15282" data-name="Trazado 15282" d="M129.807,329.736a7.747,7.747,0,0,0,.268,1.98,9.943,9.943,0,0,0,1.817,2.591,16.8,16.8,0,0,0,4.821,3.775c1.653.858,3.022-1.627,1.632-2.75-1.362-1.1-2.754-2.18-4.029-3.38-.6-.558-1.145-1.167-1.763-1.7a14.175,14.175,0,0,0-1.856-1.009c-.356-.237-.99-.013-.89.493Z" transform="translate(-129.796 -329.148)" fill="#eddbe9"/>
      </g>
      <g id="Grupo_15052" data-name="Grupo 15052" transform="translate(91.89 61.703)" opacity="0.68" style="mix-blend-mode: hard-light;isolation: isolate">
        <path id="Trazado_15283" data-name="Trazado 15283" d="M198.657,320.006a25.869,25.869,0,0,1-7.2,9.615c-1.7,1.4.36,4.192,2.041,2.762a21.431,21.431,0,0,0,7.239-11.785c.284-1.228-1.592-1.7-2.079-.592Z" transform="translate(-190.819 -319.381)" fill="#eddbe9"/>
      </g>
      <g id="Grupo_15053" data-name="Grupo 15053" transform="translate(31.584 22.575)" opacity="0.65" style="mix-blend-mode: hard-light;isolation: isolate">
        <path id="Trazado_15284" data-name="Trazado 15284" d="M131.255,312.506c2.494-6.549,5.314-12.786,10.1-18.02a32.737,32.737,0,0,1,17.351-10.138A31.119,31.119,0,0,1,192.5,301.3c1.019,2.184,4.484.9,3.526-1.356-4.7-11.051-16.033-18.512-27.815-19.77-12.07-1.29-23.925,4.372-31.321,13.861-4.041,5.185-6.995,11.623-6.759,18.3a.594.594,0,0,0,1.129.17Z" transform="translate(-130.114 -279.995)" fill="#f1dbf2"/>
      </g>
    </g>
  </g>
</svg>
