<svg xmlns="http://www.w3.org/2000/svg" width="166.551" height="157.504" viewBox="0 0 166.551 157.504">
  <g id="teamwork" transform="translate(0)">
    <path id="Trazado_12759" data-name="Trazado 12759" d="M81.808,285.4v56.889a82.207,82.207,0,0,1-12.277-3.436q-3.442-1.254-6.737-2.8-1.121-.526-2.23-1.092-2.844-1.437-5.557-3.087A83.517,83.517,0,0,1,21.965,294.4v-9a22.573,22.573,0,0,1,16.72-21.8c.353-.1.706-.184,1.067-.258a21.9,21.9,0,0,1,2.937-.435c.609-.047,1.224-.075,1.845-.075h14.7a22.454,22.454,0,0,1,4.787.51c.088.017.177.038.264.057.259.059.521.122.775.191.008,0,.014,0,.02.006a22.594,22.594,0,0,1,16.727,21.8Zm0,0" transform="translate(-14.82 -186.382)" fill="#2ba1cf"/>
    <path id="Trazado_12760" data-name="Trazado 12760" d="M101.9,285.4v56.889a82.182,82.182,0,0,1-12.277-3.436q-3.442-1.254-6.737-2.8-1.121-.526-2.23-1.092-2.844-1.438-5.557-3.087a83.7,83.7,0,0,1-23.355-21.063V285.4a22.573,22.573,0,0,1,16.72-21.8c.354-.1.708-.184,1.067-.259a21.954,21.954,0,0,1,2.937-.435c.609-.047,1.224-.075,1.846-.075h5.013a22.466,22.466,0,0,1,4.787.51c.088.017.177.037.264.057.259.059.521.122.775.191a.2.2,0,0,0,.02.006A22.6,22.6,0,0,1,101.9,285.4Zm0,0" transform="translate(-34.911 -186.382)" fill="#66baed"/>
    <path id="Trazado_12761" data-name="Trazado 12761" d="M99.707,264.4l-.053.255L92.9,296.059a6.569,6.569,0,0,1-6.389,5.209H86.4a6.568,6.568,0,0,1-6.389-5.209l-6.752-31.4L73.2,264.4Zm0,0" transform="translate(-49.391 -187.439)" fill="#f2f0ec"/>
    <path id="Trazado_12762" data-name="Trazado 12762" d="M86.455,265.418l-10.162,5.647L73.2,256.687l6.314-3.718" transform="translate(-49.391 -179.727)" fill="#d8d5d0"/>
    <path id="Trazado_12763" data-name="Trazado 12763" d="M113.941,265.418l10.162,5.647,3.09-14.378-6.314-3.718" transform="translate(-76.877 -179.727)" fill="#d8d5d0"/>
    <path id="Trazado_12764" data-name="Trazado 12764" d="M20.676,112.573V78.534a30.342,30.342,0,1,1,60.683,0v34.039" transform="translate(-13.95 -41.563)" fill="#cc7a3b"/>
    <path id="Trazado_12765" data-name="Trazado 12765" d="M33.154,79.869c0,12.04,7.051,25.969,10.923,32.71h-23.4V78.54A30.323,30.323,0,0,1,50.792,48.2C41.464,48.432,33.154,63.4,33.154,79.869Zm0,0" transform="translate(-13.948 -41.569)" fill="#a35418"/>
    <path id="Trazado_12766" data-name="Trazado 12766" d="M105.3,236.105v9.883a8.052,8.052,0,0,1-16.1,0V236.1Zm0,0" transform="translate(-60.181 -168.349)" fill="#eab599"/>
    <path id="Trazado_12767" data-name="Trazado 12767" d="M115.315,264.563v.627a8.051,8.051,0,0,1-5.671,7.691,8.048,8.048,0,0,1-5.605-6.643q.806.05,1.621.05a27.792,27.792,0,0,0,9.655-1.725Zm0,0" transform="translate(-70.196 -187.55)" fill="#f6caae"/>
    <path id="Trazado_12768" data-name="Trazado 12768" d="M14.978,170.785a7.489,7.489,0,1,1-6.29-7.391A7.489,7.489,0,0,1,14.978,170.785Zm0,0" transform="translate(-0.001 -119.225)" fill="#f6caae"/>
    <path id="Trazado_12769" data-name="Trazado 12769" d="M30.936,170.985a7.489,7.489,0,0,1-6.29,7.393,27.993,27.993,0,0,1,0-14.785A7.488,7.488,0,0,1,30.936,170.985Zm0,0" transform="translate(-15.959 -119.425)" fill="#eab599"/>
    <path id="Trazado_12770" data-name="Trazado 12770" d="M20.146,180.766a2.677,2.677,0,1,1-2.677-2.676A2.677,2.677,0,0,1,20.146,180.766Zm0,0" transform="translate(-9.981 -129.206)" fill="#eab599"/>
    <path id="Trazado_12771" data-name="Trazado 12771" d="M75.388,121.666v25.742a27.757,27.757,0,0,1-14.757,7.344l-.137.023a27.513,27.513,0,0,1-4.336.337A27.862,27.862,0,0,1,28.3,127.25v-10.61a28.074,28.074,0,0,1,.285-4,17.657,17.657,0,0,0,22.19-1.427,15.782,15.782,0,0,0,4.187-6.543,18.387,18.387,0,0,0,5.751,11.478A20.564,20.564,0,0,0,75.388,121.666Zm0,0" transform="translate(-19.093 -79.668)" fill="#eab599"/>
    <path id="Trazado_12772" data-name="Trazado 12772" d="M93.383,121.666v25.742a27.756,27.756,0,0,1-14.757,7.343l-.137.023a27.867,27.867,0,0,1-23.52-27.525v-10.61q0-.423.015-.843a17.458,17.458,0,0,0,13.783-4.587,15.776,15.776,0,0,0,4.187-6.542,18.387,18.387,0,0,0,5.751,11.478A20.563,20.563,0,0,0,93.383,121.666Zm0,0" transform="translate(-37.088 -79.668)" fill="#f6caae"/>
    <path id="Trazado_12773" data-name="Trazado 12773" d="M140.751,157.253a4.628,4.628,0,1,0-9.256,0" transform="translate(-88.721 -112.025)" fill="#eab599"/>
    <path id="Trazado_12774" data-name="Trazado 12774" d="M77.215,157.253a4.627,4.627,0,1,0-9.254,0" transform="translate(-45.854 -112.025)" fill="#eab599"/>
    <path id="Trazado_12775" data-name="Trazado 12775" d="M78.79,166.352a3.161,3.161,0,1,1-3.161-3.16A3.162,3.162,0,0,1,78.79,166.352Zm0,0" transform="translate(-48.895 -119.154)" fill="#3d4159"/>
    <path id="Trazado_12776" data-name="Trazado 12776" d="M142.329,166.352a3.16,3.16,0,1,1-3.16-3.16A3.161,3.161,0,0,1,142.329,166.352Zm0,0" transform="translate(-91.766 -119.154)" fill="#3d4159"/>
    <path id="Trazado_12777" data-name="Trazado 12777" d="M107.732,191.715H101.41a1.363,1.363,0,1,1,0-2.727h6.322a1.363,1.363,0,0,1,0,2.727Zm0,0" transform="translate(-67.503 -136.559)" fill="#eab599"/>
    <path id="Trazado_12778" data-name="Trazado 12778" d="M98.531,215.428a14.073,14.073,0,0,1-6.793-1.755,1.239,1.239,0,1,1,1.194-2.172,11.562,11.562,0,0,0,11.2,0,1.239,1.239,0,1,1,1.194,2.172A14.073,14.073,0,0,1,98.531,215.428Zm0,0" transform="translate(-61.463 -151.646)" fill="#eab599"/>
    <path id="Trazado_12779" data-name="Trazado 12779" d="M84.3,168.382a1.355,1.355,0,1,1-1.355-1.355A1.355,1.355,0,0,1,84.3,168.382Zm0,0" transform="translate(-55.052 -121.742)" fill="#fff"/>
    <path id="Trazado_12780" data-name="Trazado 12780" d="M148.318,168.382a1.354,1.354,0,1,1-1.353-1.355A1.354,1.354,0,0,1,148.318,168.382Zm0,0" transform="translate(-98.244 -121.742)" fill="#fff"/>
    <path id="Trazado_12781" data-name="Trazado 12781" d="M157.852,189.373a3.471,3.471,0,1,1-3.471-3.471A3.471,3.471,0,0,1,157.852,189.373Zm0,0" transform="translate(-101.82 -134.477)" fill="#eab599"/>
    <path id="Trazado_12782" data-name="Trazado 12782" d="M62.593,189.373a3.47,3.47,0,1,1-3.47-3.471A3.47,3.47,0,0,1,62.593,189.373Zm0,0" transform="translate(-37.549 -134.477)" fill="#eab599"/>
    <path id="Trazado_12783" data-name="Trazado 12783" d="M359.161,281.136v10.425a83.609,83.609,0,0,1-40.5,40.917,82.458,82.458,0,0,1-10.047,3.925,81.6,81.6,0,0,1-12.006,2.851.255.255,0,0,1-.055.008V281.136A23.609,23.609,0,0,1,318.233,257.6c.639-.055,1.281-.077,1.93-.077h15.378a23.577,23.577,0,0,1,23.62,23.609Zm0,0" transform="translate(-200.084 -182.802)" fill="#bfd5de"/>
    <path id="Trazado_12784" data-name="Trazado 12784" d="M384.175,281.137v10.424a83.607,83.607,0,0,1-40.5,40.918,82.269,82.269,0,0,1-10.048,3.925V281.137a23.614,23.614,0,0,1,23.617-23.61h3.316a23.611,23.611,0,0,1,23.617,23.61Zm0,0" transform="translate(-225.098 -182.803)" fill="#dde8ed"/>
    <path id="Trazado_12785" data-name="Trazado 12785" d="M289.232,161.214a7.83,7.83,0,1,1-6.58-7.735A7.835,7.835,0,0,1,289.232,161.214Zm0,0" transform="translate(-184.574 -112.534)" fill="#d3a489"/>
    <path id="Trazado_12786" data-name="Trazado 12786" d="M385.976,283.711l-6.34,10.168-6.34-10.168" transform="translate(-251.865 -200.469)" fill="#f74f4f"/>
    <path id="Trazado_12787" data-name="Trazado 12787" d="M383.621,338.2l-8.529,10.763-8.53-10.763,8.531-31.368Zm0,0" transform="translate(-247.322 -216.072)" fill="#f74f4f"/>
    <path id="Trazado_12788" data-name="Trazado 12788" d="M305.931,161.422a7.835,7.835,0,0,1-6.579,7.735,29.293,29.293,0,0,1,0-15.47A7.837,7.837,0,0,1,305.931,161.422Zm0,0" transform="translate(-201.273 -112.742)" fill="#bf8e75"/>
    <path id="Trazado_12789" data-name="Trazado 12789" d="M294.643,171.659a2.8,2.8,0,1,1-2.8-2.8A2.8,2.8,0,0,1,294.643,171.659Zm0,0" transform="translate(-195.019 -122.979)" fill="#bf8e75"/>
    <path id="Trazado_12790" data-name="Trazado 12790" d="M364.02,260.221,353.39,266.13l-3.234-15.044,6.6-3.891" transform="translate(-236.252 -175.832)" fill="#bfd5de"/>
    <path id="Trazado_12791" data-name="Trazado 12791" d="M392.777,260.221l10.632,5.909,3.234-15.044-6.606-3.891" transform="translate(-265.008 -175.832)" fill="#bfd5de"/>
    <path id="Trazado_12792" data-name="Trazado 12792" d="M463.828,161.214a7.83,7.83,0,1,0,6.58-7.735A7.835,7.835,0,0,0,463.828,161.214Zm0,0" transform="translate(-312.947 -112.534)" fill="#d3a489"/>
    <g id="Grupo_989" data-name="Grupo 989" transform="translate(98.619 15.316)">
      <path id="Trazado_12793" data-name="Trazado 12793" d="M463.828,161.422a7.835,7.835,0,0,0,6.58,7.735,29.294,29.294,0,0,0,0-15.47A7.837,7.837,0,0,0,463.828,161.422Zm0,0" transform="translate(-411.566 -128.058)" fill="#bf8e75"/>
      <path id="Trazado_12794" data-name="Trazado 12794" d="M484.905,171.659a2.8,2.8,0,1,1-2.8-2.8A2.8,2.8,0,0,1,484.905,171.659Zm0,0" transform="translate(-422.008 -138.295)" fill="#bf8e75"/>
      <path id="Trazado_12795" data-name="Trazado 12795" d="M361.471,104.1A29.153,29.153,0,0,1,337,132.875a28.787,28.787,0,0,1-4.678.376A29.15,29.15,0,0,1,303.167,104.1c0-7.618,2.646-19.054,7.43-24.247,5.326-5.783,13.238-4.9,21.721-4.9a28.8,28.8,0,0,1,4.678.377A29.152,29.152,0,0,1,361.47,104.1Zm0,0" transform="translate(-303.167 -74.9)" fill="#bf8e75"/>
      <path id="Trazado_12796" data-name="Trazado 12796" d="M383.734,229.559V239.9a8.425,8.425,0,0,1-16.851,0v-10.34Zm0,0" transform="translate(-346.157 -179.249)" fill="#bf8e75"/>
    </g>
    <path id="Trazado_12797" data-name="Trazado 12797" d="M394.213,259.328v.656a8.423,8.423,0,0,1-5.934,8.047,8.42,8.42,0,0,1-5.864-6.95q.844.052,1.7.053a28.947,28.947,0,0,0,4.678-.377A28.584,28.584,0,0,0,394.213,259.328Zm0,0" transform="translate(-258.017 -184.018)" fill="#d3a489"/>
    <path id="Trazado_12798" data-name="Trazado 12798" d="M380.879,104.979a29.153,29.153,0,0,1-24.473,28.775,29.154,29.154,0,0,1,0-57.551,29.162,29.162,0,0,1,24.33,25.869c.1.957.143,1.928.143,2.907Zm0,0" transform="translate(-223.957 -60.463)" fill="#d3a489"/>
    <path id="Trazado_12799" data-name="Trazado 12799" d="M376.648,199.949a14.725,14.725,0,0,1-7.107-1.835,1.3,1.3,0,1,1,1.249-2.272,12.108,12.108,0,0,0,11.716,0,1.3,1.3,0,0,1,1.249,2.272A14.737,14.737,0,0,1,376.648,199.949Zm0,0" transform="translate(-248.877 -141.075)" fill="#bf8e75"/>
    <path id="Trazado_12800" data-name="Trazado 12800" d="M359.981,152.589a3.307,3.307,0,1,1-3.307-3.308A3.307,3.307,0,0,1,359.981,152.589Zm0,0" transform="translate(-238.418 -109.769)" fill="#3d4159"/>
    <path id="Trazado_12801" data-name="Trazado 12801" d="M418.481,152.589a3.307,3.307,0,1,1-3.307-3.308A3.306,3.306,0,0,1,418.481,152.589Zm0,0" transform="translate(-277.888 -109.769)" fill="#3d4159"/>
    <path id="Trazado_12802" data-name="Trazado 12802" d="M365.748,154.713a1.417,1.417,0,1,1-1.417-1.417A1.418,1.418,0,0,1,365.748,154.713Zm0,0" transform="translate(-244.86 -112.478)" fill="#fff"/>
    <path id="Trazado_12803" data-name="Trazado 12803" d="M424.748,154.713a1.417,1.417,0,1,1-1.417-1.417A1.418,1.418,0,0,1,424.748,154.713Zm0,0" transform="translate(-284.667 -112.478)" fill="#fff"/>
    <path id="Trazado_12804" data-name="Trazado 12804" d="M386.271,179.126h-6.614a1.426,1.426,0,1,1,0-2.853h6.614a1.426,1.426,0,1,1,0,2.853Zm0,0" transform="translate(-255.194 -127.981)" fill="#bf8e75"/>
    <path id="Trazado_12805" data-name="Trazado 12805" d="M422.289,327.727H435v3.89H422.289Zm0,0" transform="translate(-284.92 -230.167)" fill="#bfd5de"/>
    <path id="Trazado_12806" data-name="Trazado 12806" d="M387.539,49.354A17.669,17.669,0,0,1,403.91,66.1l.084,1.686h5.08l2.736,18.194,6.626-2.051-.89-17.828a17.668,17.668,0,0,0-17.712-16.791Zm0,0" transform="translate(-261.474 -42.317)" fill="#2a2f4f"/>
    <path id="Trazado_12807" data-name="Trazado 12807" d="M425.24,27.816a18.007,18.007,0,0,1-25.466,25.466Zm0,0" transform="translate(-269.729 -27.816)" fill="#3d4159"/>
    <path id="Trazado_12808" data-name="Trazado 12808" d="M334.514,67.781h-22.1l-2.737,18.2-6.627-2.051.888-17.829A17.671,17.671,0,0,1,321.653,49.3l31.919.121,4.22,7.595" transform="translate(-204.47 -42.315)" fill="#3d4159"/>
    <path id="Trazado_12809" data-name="Trazado 12809" d="M333.943,49.354A17.668,17.668,0,0,0,317.573,66.1l-.084,1.686H312.41l-2.737,18.194-6.627-2.051.889-17.828A17.669,17.669,0,0,1,321.65,49.308Zm0,0" transform="translate(-204.467 -42.317)" fill="#2a2f4f"/>
    <path id="Trazado_12810" data-name="Trazado 12810" d="M218.078,413.511v6.244a83.493,83.493,0,0,1-70.6,0v-6.24A26.633,26.633,0,0,1,167.2,387.787c.415-.112.833-.215,1.258-.306a26.293,26.293,0,0,1,3.464-.509c.721-.059,1.445-.089,2.179-.089h17.341a26.694,26.694,0,0,1,5.65.6c.105.02.211.045.312.069.306.071.611.146.913.227l.024.007a26.655,26.655,0,0,1,19.731,25.728Zm0,0" transform="translate(-99.504 -270.079)" fill="#3d4159"/>
    <path id="Trazado_12811" data-name="Trazado 12811" d="M239.2,388.723l-.065.3-8.493,39.5q-.66.055-1.323.1c-.623.041-1.248.078-1.877.105q-1.927.092-3.874.092-2,0-3.97-.1-.892-.04-1.785-.106c-.445-.03-.887-.061-1.329-.1l-8.491-39.5-.063-.306Zm0,0" transform="translate(-140.289 -271.321)" fill="#66baed"/>
    <path id="Trazado_12812" data-name="Trazado 12812" d="M248.316,416.422l-7.149,11.464-7.148-11.464" transform="translate(-157.895 -290.009)" fill="#3d4159"/>
    <path id="Trazado_12813" data-name="Trazado 12813" d="M249.815,464.907c-.623.041-1.248.077-1.877.1q-1.927.092-3.874.092-2,0-3.969-.1c-.595-.027-1.191-.061-1.785-.105l5.755-22.41Zm0,0" transform="translate(-160.788 -307.6)" fill="#3d4159"/>
    <path id="Trazado_12814" data-name="Trazado 12814" d="M223.557,389.932l-11.989,6.662-3.647-16.963,7.449-4.388" transform="translate(-140.286 -262.226)" fill="#2ba1cf"/>
    <path id="Trazado_12815" data-name="Trazado 12815" d="M255.988,389.932l11.988,6.662,3.647-16.963-7.449-4.388" transform="translate(-172.717 -262.226)" fill="#2ba1cf"/>
    <path id="Trazado_12816" data-name="Trazado 12816" d="M280.12,411.616h3.8l-6.642,16.158a82.844,82.844,0,0,1-9.371.96l11.668-39.714.089-.3,8.2,2.678Zm0,0" transform="translate(-180.76 -271.321)" fill="#2a2f4f"/>
    <path id="Trazado_12817" data-name="Trazado 12817" d="M202.392,428.729a82.536,82.536,0,0,1-9.378-.972l-6.635-16.142h3.8L182.43,391.4l8.2-2.678.089.3Zm0,0" transform="translate(-123.087 -271.321)" fill="#2a2f4f"/>
    <path id="Trazado_12818" data-name="Trazado 12818" d="M245.787,355.352V367.01a9.5,9.5,0,0,1-19,0V355.352Zm0,0" transform="translate(-153.013 -248.805)" fill="#eab599"/>
    <path id="Trazado_12819" data-name="Trazado 12819" d="M257.6,388.922v.74a9.5,9.5,0,0,1-6.692,9.075A9.5,9.5,0,0,1,244.3,390.9q.953.06,1.914.059a32.749,32.749,0,0,0,11.392-2.034Zm0,0" transform="translate(-164.828 -271.455)" fill="#f6caae"/>
    <path id="Trazado_12820" data-name="Trazado 12820" d="M139.222,278.282A8.838,8.838,0,0,1,131.8,287a8.947,8.947,0,0,1-1.414.113,8.836,8.836,0,1,1,8.835-8.835Zm0,0" transform="translate(-82.011 -190.843)" fill="#f6caae"/>
    <path id="Trazado_12821" data-name="Trazado 12821" d="M158.053,278.519a8.837,8.837,0,0,1-7.421,8.722,33.048,33.048,0,0,1,0-17.444A8.837,8.837,0,0,1,158.053,278.519Zm0,0" transform="translate(-100.842 -191.081)" fill="#eab599"/>
    <path id="Trazado_12822" data-name="Trazado 12822" d="M145.323,290.06a3.158,3.158,0,1,1-3.158-3.158A3.158,3.158,0,0,1,145.323,290.06Zm0,0" transform="translate(-93.79 -202.622)" fill="#eab599"/>
    <path id="Trazado_12823" data-name="Trazado 12823" d="M336.1,278.282A8.838,8.838,0,0,0,343.526,287a8.931,8.931,0,0,0,1.414.113,8.836,8.836,0,1,0-8.835-8.835Zm0,0" transform="translate(-226.772 -190.843)" fill="#f6caae"/>
    <path id="Trazado_12824" data-name="Trazado 12824" d="M336.1,278.519a8.837,8.837,0,0,0,7.421,8.722,33.059,33.059,0,0,0,0-17.444A8.837,8.837,0,0,0,336.1,278.519Zm0,0" transform="translate(-226.772 -191.081)" fill="#eab599"/>
    <path id="Trazado_12825" data-name="Trazado 12825" d="M220.686,175.511v12.518a32.873,32.873,0,0,1-27.6,32.447l-.16.027a32.317,32.317,0,0,1-5.116.4,32.87,32.87,0,0,1-32.87-32.87V175.511a32.853,32.853,0,0,1,32.87-32.874h0a32.851,32.851,0,0,1,32.871,32.874Zm0,0" transform="translate(-104.54 -105.286)" fill="#eab599"/>
    <path id="Trazado_12826" data-name="Trazado 12826" d="M359.875,290.06a3.158,3.158,0,1,1-3.158-3.158A3.157,3.157,0,0,1,359.875,290.06Zm0,0" transform="translate(-238.548 -202.622)" fill="#eab599"/>
    <path id="Trazado_12827" data-name="Trazado 12827" d="M241.914,176.335v12.518a32.873,32.873,0,0,1-27.6,32.447l-.161.027a32.878,32.878,0,0,1-27.749-32.474V176.335a32.879,32.879,0,0,1,27.756-32.476A32.878,32.878,0,0,1,241.914,176.335Zm0,0" transform="translate(-125.769 -106.111)" fill="#f6caae"/>
    <path id="Trazado_12828" data-name="Trazado 12828" d="M219,268.556a3.729,3.729,0,1,1-3.728-3.728A3.729,3.729,0,0,1,219,268.556Zm0,0" transform="translate(-142.729 -187.729)" fill="#3d4159"/>
    <path id="Trazado_12829" data-name="Trazado 12829" d="M284.97,268.556a3.729,3.729,0,1,1-3.729-3.728A3.729,3.729,0,0,1,284.97,268.556Zm0,0" transform="translate(-187.239 -187.729)" fill="#3d4159"/>
    <path id="Trazado_12830" data-name="Trazado 12830" d="M225.5,270.955a1.6,1.6,0,1,1-1.6-1.6A1.6,1.6,0,0,1,225.5,270.955Zm0,0" transform="translate(-149.993 -190.784)" fill="#fff"/>
    <path id="Trazado_12831" data-name="Trazado 12831" d="M292.035,270.955a1.6,1.6,0,1,1-1.6-1.6A1.6,1.6,0,0,1,292.035,270.955Zm0,0" transform="translate(-194.882 -190.784)" fill="#fff"/>
    <path id="Trazado_12832" data-name="Trazado 12832" d="M248.65,293.987H241.19a1.609,1.609,0,0,1,0-3.217h7.459a1.609,1.609,0,1,1,0,3.217Zm0,0" transform="translate(-161.647 -205.232)" fill="#eab599"/>
    <path id="Trazado_12833" data-name="Trazado 12833" d="M237.8,321.96a16.6,16.6,0,0,1-8.014-2.07,1.462,1.462,0,0,1,1.409-2.562,13.641,13.641,0,0,0,13.21,0,1.462,1.462,0,0,1,1.409,2.562,16.608,16.608,0,0,1-8.014,2.07Zm0,0" transform="translate(-154.524 -223.028)" fill="#eab599"/>
    <path id="Trazado_12834" data-name="Trazado 12834" d="M220.683,153.877V166.7h-6.118V156.657L170.4,148.451l-9.344-1.737V166.7h-6.119V153.876A26.464,26.464,0,0,1,181.4,127.41h12.819c.348,0,.7.006,1.044.024A26.46,26.46,0,0,1,220.683,153.877Zm0,0" transform="translate(-104.537 -95.012)" fill="#2a2f4f"/>
    <path id="Trazado_12835" data-name="Trazado 12835" d="M252.755,153.927V166.75h-6.118V156.708L202.472,148.5a25.339,25.339,0,0,1,50.282,5.426Zm0,0" transform="translate(-136.609 -95.062)" fill="#3d4159"/>
  </g>
</svg>
