<svg xmlns="http://www.w3.org/2000/svg" width="24.877" height="24.878" viewBox="0 0 24.877 24.878">
  <g id="coin" transform="translate(0)">
    <g id="Grupo_994" data-name="Grupo 994" transform="translate(0)">
      <g id="Grupo_990" data-name="Grupo 990" transform="translate(0.021 0.02)">
        <path id="Trazado_12836" data-name="Trazado 12836" d="M12.112.416A12.334,12.334,0,0,0,4.546,3.565c-.17.153.149.8-.015.96-.182.182-.844-.117-1.013.074a12.333,12.333,0,0,0-3.1,7.507c-.014.242.465.485.465.729s-.479.487-.465.729A12.334,12.334,0,0,0,3.545,21.1a2.771,2.771,0,0,0,.655.408,2.335,2.335,0,0,0,.375.623,12.334,12.334,0,0,0,7.536,3.122,1.958,1.958,0,0,0,.729-.283L13.327,13.3,12.85.617a2.417,2.417,0,0,0-.737-.2Z" transform="translate(-0.423 -0.416)" fill="#fdcb02"/>
        <path id="Trazado_12837" data-name="Trazado 12837" d="M256,.894V22.27s.487,3.018.729,3a12.334,12.334,0,0,0,7.559-3.142c.173-.155-.144-.8.022-.966s.839.122,1.007-.067a12.334,12.334,0,0,0,3.1-7.514c.014-.242-.951-.485-.951-.729s.965-.487.951-.729A12.334,12.334,0,0,0,265.3,4.591a1.973,1.973,0,0,0-.732-.31,1.861,1.861,0,0,0-.3-.72A12.334,12.334,0,0,0,256.73.439C256.514.427,256,.894,256,.894Z" transform="translate(-243.583 -0.438)" fill="#fdae02"/>
      </g>
      <path id="Trazado_12838" data-name="Trazado 12838" d="M68.122,68.124l-2.946-2.89q-.256.229-.5.474-.273.273-.526.561l2.943,2.887Z" transform="translate(-61.031 -62.064)" fill="#fdae02"/>
      <g id="Grupo_991" data-name="Grupo 991" transform="translate(11.71 20.731)">
        <path id="Trazado_12839" data-name="Trazado 12839" d="M241,426.667v4.125c.242.014.485.022.729.022h0l.486-1.639-.486-2.507Z" transform="translate(-241 -426.667)" fill="#fdae02"/>
        <path id="Trazado_12840" data-name="Trazado 12840" d="M256.73,426.667H256v4.146c.244,0,.487-.008.729-.022Z" transform="translate(-255.272 -426.667)" fill="#fd8c02"/>
      </g>
      <g id="Grupo_992" data-name="Grupo 992" transform="translate(11.71)">
        <path id="Trazado_12841" data-name="Trazado 12841" d="M241,.022V4.146h.729l.486-2.351L241.729,0S241.242.008,241,.022Z" transform="translate(-241)" fill="#fdae02"/>
        <path id="Trazado_12842" data-name="Trazado 12842" d="M256.73.022C256.488.008,256.245,0,256,0V4.146h.729Z" transform="translate(-255.272)" fill="#fd8c02"/>
      </g>
      <path id="Trazado_12843" data-name="Trazado 12843" d="M366.073,367.1l2.939,2.9q.259-.232.508-.48.27-.27.52-.553l-2.937-2.894Z" transform="translate(-348.286 -348.286)" fill="#fd8c02"/>
      <path id="Trazado_12844" data-name="Trazado 12844" d="M426.667,242.458h4.125c.014-.242.022-.485.022-.729s-.008-.487-.022-.729h-4.125Z" transform="translate(-405.936 -229.29)" fill="#fd8c02"/>
      <path id="Trazado_12845" data-name="Trazado 12845" d="M4.146,241H.022c-.014.242-.022.485-.022.729s.008.487.022.729H4.146Z" transform="translate(0 -229.29)" fill="#fdae02"/>
      <path id="Trazado_12846" data-name="Trazado 12846" d="M367.1,68.636l2.916-2.917q-.242-.271-.5-.531t-.531-.5l-2.916,2.916Z" transform="translate(-348.285 -61.546)" fill="#fd8c02"/>
      <path id="Trazado_12847" data-name="Trazado 12847" d="M67.607,366.073l-2.917,2.916q.242.271.5.531t.531.5l2.916-2.916Z" transform="translate(-61.547 -348.286)" fill="#fdae02"/>
      <g id="Grupo_993" data-name="Grupo 993" transform="translate(3.417 3.417)">
        <path id="Trazado_12848" data-name="Trazado 12848" d="M79.355,70.334a9.021,9.021,0,0,0,0,18.043h0l.486-8.6-.486-9.444Z" transform="translate(-70.334 -70.334)" fill="#ffdf8e"/>
        <path id="Trazado_12849" data-name="Trazado 12849" d="M265.022,79.354A9.032,9.032,0,0,0,256,70.333V88.376A9.032,9.032,0,0,0,265.022,79.354Z" transform="translate(-246.98 -70.333)" fill="#ffd664"/>
      </g>
    </g>
    <g id="Grupo_995" data-name="Grupo 995" transform="translate(6.528 7.225)">
      <path id="Trazado_12850" data-name="Trazado 12850" d="M241,148.686v2.073h.729l.486-.97-.486-1.1Z" transform="translate(-235.819 -148.686)" fill="#fdae02"/>
      <path id="Trazado_12851" data-name="Trazado 12851" d="M256,148.686h.729v2.073H256Z" transform="translate(-250.091 -148.686)" fill="#fd8c02"/>
      <path id="Trazado_12852" data-name="Trazado 12852" d="M138.445,215.56l.231-6.8a2.528,2.528,0,0,0-4.047,2.924l1.954,3.878Z" transform="translate(-134.36 -205.131)" fill="#fdae02"/>
      <path id="Trazado_12853" data-name="Trazado 12853" d="M291.881,208.365a2.518,2.518,0,0,0-3.069.394l.284,6.8H290.9l1.954-3.878A2.533,2.533,0,0,0,291.881,208.365Z" transform="translate(-281.307 -205.132)" fill="#fd8c02"/>
      <path id="Trazado_12854" data-name="Trazado 12854" d="M197.337,185.437h1.841l.47-4.436-.486-4.648a2.9,2.9,0,0,0-2.858,3.411Z" transform="translate(-193.252 -175.009)" fill="#fdcb02"/>
      <path id="Trazado_12855" data-name="Trazado 12855" d="M257.878,185.437l.98-5.677A2.9,2.9,0,0,0,256,176.353v9.084h1.878Z" transform="translate(-250.09 -175.009)" fill="#fdae02"/>
    </g>
  </g>
</svg>
