<svg xmlns="http://www.w3.org/2000/svg" width="15.017" height="12.204" viewBox="0 0 15.017 12.204">
  <g id="gorjeo_1_" data-name="gorjeo (1)" transform="translate(0)">
    <g id="Grupo_1" data-name="Grupo 1" transform="translate(0 0)">
      <path id="Trazado_1" data-name="Trazado 1" d="M40.12,35.473a6.147,6.147,0,0,1-1.77.485,3.089,3.089,0,0,0,1.355-1.7A6.167,6.167,0,0,1,37.749,35a3.083,3.083,0,0,0-5.25,2.81,8.746,8.746,0,0,1-6.35-3.219,3.084,3.084,0,0,0,.953,4.113,3.059,3.059,0,0,1-1.4-.386c0,.013,0,.026,0,.039a3.083,3.083,0,0,0,2.472,3.021,3.093,3.093,0,0,1-1.391.053,3.084,3.084,0,0,0,2.878,2.14A6.219,6.219,0,0,1,25.1,44.847a8.761,8.761,0,0,0,13.488-7.382c0-.133,0-.267-.009-.4a6.247,6.247,0,0,0,1.538-1.595Z" transform="translate(-25.103 -34.028)" fill="#79858f"/>
    </g>
  </g>
</svg>
