<svg xmlns="http://www.w3.org/2000/svg" width="44.527" height="36.492" viewBox="0 0 44.527 36.492">
  <g id="Grupo_676" data-name="Grupo 676" transform="translate(-0.098 -0.41)">
    <g id="Grupo_672" data-name="Grupo 672" transform="translate(9.489 37.093) rotate(-121)">
      <g id="Grupo_670" data-name="Grupo 670" transform="translate(0 0)">
        <path id="Trazado_11110" data-name="Trazado 11110" d="M12.386,3.409a1.828,1.828,0,0,1,.085,2.576A1.828,1.828,0,0,1,9.9,5.846a11.1,11.1,0,0,0-.985-.923,8.5,8.5,0,0,0-1.036-.741,4.977,4.977,0,0,0-1.062-.415,3.028,3.028,0,0,0-.96-.117,2.2,2.2,0,0,0-.831.217,2.666,2.666,0,0,0-.8.5,2.28,2.28,0,0,0-.434.749,2.155,2.155,0,0,0-.153.844,3.51,3.51,0,0,0,.137,1.016,5.886,5.886,0,0,0,.466,1.1,8.431,8.431,0,0,0,.672,1.1,10.75,10.75,0,0,0,.9,1c.18.184.345.373.541.6l.014.017c.186.214.379.435.59.651q.257.263.541.549l.214.217.443.45c.184.188.383.385.556.556L8.8,13.3c.182.181.369.367.561.563s.388.405.609.645l.011.011c.192.207.37.4.552.584.167.17.36.351.548.525l.018.017c.217.2.441.41.667.641s.426.458.62.679l.069.078c.161.184.314.358.46.508.191.194.4.391.578.565l.007.007c.227.217.432.414.636.622.182.186.367.368.545.544l.078.077c.165.162.381.375.585.583.237.243.458.479.653.688l.059.063c.152.164.318.342.463.49.414.422.571.595.71.747.1.114.2.222.465.49a1.748,1.748,0,1,1-2.489,2.437c-.312-.318-.44-.459-.565-.6s-.242-.266-.61-.642c-.172-.175-.342-.358-.523-.551l-.024-.026c-.182-.2-.4-.428-.627-.663-.158-.162-.328-.329-.507-.505l-.033-.033c-.237-.233-.448-.441-.669-.667-.159-.162-.332-.33-.545-.532l-.035-.034c-.208-.2-.422-.405-.641-.628S10,19.527,9.8,19.3l-.016-.018c-.173-.2-.342-.39-.5-.556s-.373-.363-.55-.527l-.02-.019c-.216-.2-.439-.409-.663-.637s-.446-.468-.636-.673-.364-.392-.536-.568-.347-.35-.52-.521l-.175-.174c-.17-.168-.343-.341-.511-.512-.149-.152-.3-.3-.438-.445l-.2-.206-.016-.015-.2-.2-.345-.35c-.3-.3-.549-.594-.753-.829L3.668,13c-.13-.149-.252-.29-.343-.382A14.211,14.211,0,0,1,2.07,11.194,12.294,12.294,0,0,1,1.055,9.549,9.592,9.592,0,0,1,.286,7.7,7.265,7.265,0,0,1,0,5.612,5.591,5.591,0,0,1,.417,3.466,5.292,5.292,0,0,1,1.57,1.652,5.827,5.827,0,0,1,3.286.524a5.659,5.659,0,0,1,2.1-.518A6.759,6.759,0,0,1,7.52.264a8.743,8.743,0,0,1,1.9.761,11.738,11.738,0,0,1,1.6,1.114A14.652,14.652,0,0,1,12.386,3.409Z" transform="translate(0.154 0.114)" fill="#e1e7ec"/>
        <path id="Trazado_11111" data-name="Trazado 11111" d="M.171,1.392c.361.321.72.644,1.08.966a3.91,3.91,0,0,0,1.116.82,4.2,4.2,0,0,0,2.489-.09.692.692,0,0,0,.4-.317l.037.009a.286.286,0,0,0,.348-.341,3.029,3.029,0,0,0-.924-1.29A3.662,3.662,0,0,0,3.407.087C2.431-.24,1.57.471.619.34A.624.624,0,0,0,.171,1.392Z" transform="translate(12.003 20.251)" fill="#ff2308"/>
        <path id="Trazado_11112" data-name="Trazado 11112" d="M.137,1.762A5.6,5.6,0,0,0,2.261,3.407,3.488,3.488,0,0,0,4.83,3.064a.4.4,0,0,0,.161-.143l.04.018c.341.14.679-.329.489-.623a7.092,7.092,0,0,0-.977-1.038A12.652,12.652,0,0,1,3.57.153a.514.514,0,0,0-.616-.09A7.176,7.176,0,0,1,.371.93.5.5,0,0,0,.137,1.762Z" transform="translate(7.29 14.989)" fill="#ff2308"/>
        <path id="Trazado_11113" data-name="Trazado 11113" d="M.116.91A14.891,14.891,0,0,0,1.682,2.457a.611.611,0,0,0,.068.205c.211.387.661.342,1.039.329.532-.018,1.064-.054,1.6-.086A1.348,1.348,0,0,0,5.365,2.6a.372.372,0,0,0,.378-.531A3.433,3.433,0,0,0,3.325.118C2.428,0,1.491.4.627.04.095-.179-.168.559.116.91Z" transform="translate(2.326 10.595)" fill="#ff2308"/>
        <path id="Trazado_11114" data-name="Trazado 11114" d="M.8.3l0,0A5.165,5.165,0,0,1,.459,1.644,4.284,4.284,0,0,0,0,3.077,1.877,1.877,0,0,0,.356,4.31c.334.44.973.513,1.472.671A.39.39,0,0,0,1.922,5a3.976,3.976,0,0,0,1.51.361.413.413,0,0,0,.212-.047l.111.029a.394.394,0,0,0,.208-.759l-.09-.031a.523.523,0,0,0-.034-.62C3.377,3.362,2.9,2.816,2.417,2.269a7.411,7.411,0,0,1-.836-1A1.554,1.554,0,0,0,1.613.306.423.423,0,0,0,.8.3Z" transform="translate(0 2.865)" fill="#ff2308"/>
        <path id="Trazado_11115" data-name="Trazado 11115" d="M.13,1.231c.806.8,2.142,1.678,3.218.766a1.133,1.133,0,0,0,.262-.322c.5-.431.707-1.354-.078-1.625A3.259,3.259,0,0,0,2.144.162L.355.433A.481.481,0,0,0,.13,1.231Z" transform="translate(9.165 3.91)" fill="#ff2308"/>
        <path id="Trazado_11116" data-name="Trazado 11116" d="M.534.2a5.113,5.113,0,0,0-.5,2.888.474.474,0,0,0,.336.445,1.773,1.773,0,0,0,1.42-.247.2.2,0,0,0,.3.076c.433-.32.741-.761,1.2-1.057a3.873,3.873,0,0,1,1.58-.567c.447-.065.391-.718.009-.83C3.6.531,2.3.259,1,.009A.422.422,0,0,0,.534.2Z" transform="translate(4.563 0.203)" fill="#ff2308"/>
        <path id="Trazado_11117" data-name="Trazado 11117" d="M.082.457c.8.773,1.513,1.633,2.312,2.4.182.175.53-.051.374-.279A16.408,16.408,0,0,0,.47.077C.217-.163-.17.213.082.457Z" transform="translate(14.919 20.178)" fill="#bc1515"/>
        <path id="Trazado_11118" data-name="Trazado 11118" d="M.085.6a15.384,15.384,0,0,0,2.1,2.342c.253.2.694-.042.5-.37A15.705,15.705,0,0,0,.584.112C.271-.22-.193.258.085.6Z" transform="translate(9.957 14.989)" fill="#bc1515"/>
        <path id="Trazado_11119" data-name="Trazado 11119" d="M.085.479A21.3,21.3,0,0,1,1.716,2.515c.3.4.983.05.7-.385a8.353,8.353,0,0,0-.826-1.1A12.5,12.5,0,0,0,.5.076C.219-.161-.176.207.085.479Z" transform="translate(5.749 10.733)" fill="#bc1515"/>
        <path id="Trazado_11120" data-name="Trazado 11120" d="M.056,1.057c.064.351.206.866.587.972a.348.348,0,0,0,.418-.239.716.716,0,0,0-.078-.53A3.087,3.087,0,0,1,.854.775C.824.621.835.456.791.306.74.137.533-.055.337.015-.1.171-.011.689.056,1.057Z" transform="translate(3.087 6.248)" fill="#bc1515"/>
        <path id="Trazado_11121" data-name="Trazado 11121" d="M.385.845a4.453,4.453,0,0,1,1.427.1A.4.4,0,0,0,2.023.168,3.593,3.593,0,0,0,.292.059C-.148.141-.069.879.385.845Z" transform="translate(4.707 2.944)" fill="#bc1515"/>
        <path id="Trazado_11122" data-name="Trazado 11122" d="M.374,1.04A3.067,3.067,0,0,0,1.7,2a.289.289,0,0,0,.09.009.349.349,0,0,0,.108.072.322.322,0,0,0,.351-.065.339.339,0,0,0,.09-.295A1.192,1.192,0,0,0,2.5,1.7a.143.143,0,0,0,0-.274,2.155,2.155,0,0,1-.772-.274A2.73,2.73,0,0,1,1.064.421C.857.152.495-.179.155.116-.2.428.144.8.374,1.04Z" transform="translate(9.438 4.488)" fill="#bc1515"/>
        <path id="Trazado_11123" data-name="Trazado 11123" d="M.122.79A7.094,7.094,0,0,0,2.378,2.878a.434.434,0,0,0,.573-.167c.094.078.191.153.29.223.309.216.781-.222.547-.536A15.2,15.2,0,0,0,2.217.772,3.543,3.543,0,0,0,1.531.146.92.92,0,0,0,1.184.038C1.157.035.721.064.8.127A.474.474,0,0,0,.122.79Z" transform="translate(11.988 20.752)" fill="#ff6155"/>
        <path id="Trazado_11124" data-name="Trazado 11124" d="M.013.19C.146.452.357.66.474.934a2.2,2.2,0,0,0,.43.729c.248.254.556-.126.42-.386A2.3,2.3,0,0,0,.784.685C.573.49.439.236.237.033.141-.062-.051.065.013.19Z" transform="translate(9.785 16.958)" fill="#ff6155"/>
        <path id="Trazado_11125" data-name="Trazado 11125" d="M.1.644c.268.355.56.691.846,1.032a3.555,3.555,0,0,0,.862.9.322.322,0,0,0,.421-.132c.11.108.192.186.226.213.291.226.582-.234.375-.482-.461-.553-1-1.045-1.485-1.581C1.025.243.683-.186.176.086A.36.36,0,0,0,.1.644Z" transform="translate(7.511 15.897)" fill="#ff6155"/>
        <path id="Trazado_11126" data-name="Trazado 11126" d="M.11.588c.415.484.817.979,1.219,1.473a3.347,3.347,0,0,0,1.083,1.03.237.237,0,0,0,.363-.181c.071.065.142.128.215.188.292.241.776.014.511-.362A16.188,16.188,0,0,0,2,1.058a3.731,3.731,0,0,0-.688-.64C1.052.253.754.231.495.068.117-.17-.165.267.11.588Z" transform="translate(2.345 10.626)" fill="#ff6155"/>
        <path id="Trazado_11127" data-name="Trazado 11127" d="M.6.341A12.519,12.519,0,0,0,.14,2.327,3.176,3.176,0,0,0,.152,4.182a.376.376,0,0,0,.39.188,2.015,2.015,0,0,0,.188.413.331.331,0,0,0,.616-.156c0-.389-.111-.77-.131-1.159a4.8,4.8,0,0,1,.07-1.14c.124-.653.487-1.31.238-1.977A.482.482,0,0,0,.6.341Z" transform="translate(0.07 2.964)" fill="#ff6155"/>
        <path id="Trazado_11128" data-name="Trazado 11128" d="M.071.642a.764.764,0,0,0,.189.907c.322.258.778.124,1.158.121A6.166,6.166,0,0,1,2.769,1.8a7.864,7.864,0,0,0,1.341.35.283.283,0,0,0,.283-.2c.571.219,1.047-.639.465-.941A8.857,8.857,0,0,0,2.282.114C1.562-.009.432-.215.071.642Z" transform="translate(4.592 0)" fill="#ff6155"/>
        <path id="Trazado_11129" data-name="Trazado 11129" d="M.123.54c.43.238.488.868.646,1.27a.173.173,0,0,0,.34-.04,1.126,1.126,0,0,0-.037-.409.277.277,0,0,0,.155-.156C1.455.594.781-.3.128.1A.255.255,0,0,0,.123.54Z" transform="translate(11.74 3.806)" fill="#ff6155"/>
      </g>
      <path id="Trazado_11130" data-name="Trazado 11130" d="M0,0S0,0,0,0,.006,0,0,0Z" transform="translate(3.534 0.062)" fill="#1e0303"/>
    </g>
    <g id="Grupo_675" data-name="Grupo 675" transform="matrix(0.559, -0.829, 0.829, 0.559, 17.22, 24.62)">
      <g id="Grupo_673" data-name="Grupo 673" transform="translate(0 0)">
        <path id="Trazado_11133" data-name="Trazado 11133" d="M22.549,13.24A1.879,1.879,0,0,1,20.115,12.2a1.879,1.879,0,0,1,1.251-2.335,11.4,11.4,0,0,0,1.289-.515A8.736,8.736,0,0,0,23.8,8.7a5.1,5.1,0,0,0,.849-.807,3.111,3.111,0,0,0,.528-.842,2.249,2.249,0,0,0,.161-.868,2.738,2.738,0,0,0-.117-.959,2.344,2.344,0,0,0-.508-.73,2.215,2.215,0,0,0-.719-.51,3.6,3.6,0,0,0-1.005-.316,6.073,6.073,0,0,0-1.224-.044,8.65,8.65,0,0,0-1.319.145,11.022,11.022,0,0,0-1.327.4c-.25.088-.5.158-.794.242L18.3,4.42c-.281.08-.57.163-.863.265l-.747.265-.295.1-.612.216c-.255.089-.526.189-.76.275L14.9,5.59c-.248.091-.5.184-.769.277s-.546.185-.866.286l-.015.005c-.277.089-.533.171-.784.26-.231.081-.484.183-.728.281l-.023.009c-.283.114-.574.232-.888.342s-.613.2-.9.281l-.1.03c-.241.07-.47.136-.673.207-.264.093-.537.2-.778.292l-.009,0c-.3.117-.573.221-.856.32-.252.089-.5.181-.744.27l-.106.039c-.223.083-.515.192-.8.291-.33.115-.646.218-.925.308l-.084.027c-.219.07-.457.147-.658.217-.573.2-.8.272-1,.335-.152.047-.3.092-.659.219A1.879,1.879,0,0,1,.093,8.847,1.879,1.879,0,0,1,1.344,6.512c.432-.151.619-.21.8-.266s.353-.109.863-.288c.238-.083.482-.162.741-.246L3.783,5.7c.263-.084.571-.183.891-.295.22-.077.449-.162.691-.252l.045-.017c.32-.119.606-.225.912-.332.22-.077.452-.166.732-.275L7.1,4.511c.276-.106.561-.217.864-.323s.622-.2.917-.285L8.906,3.9c.26-.075.512-.148.737-.227s.5-.189.73-.282l.026-.011c.281-.113.572-.23.882-.339s.63-.211.9-.3.523-.168.762-.252.477-.171.711-.257l.238-.087c.231-.084.466-.171.7-.252l.6-.214.281-.1L15.5,1.57l.271-.1.476-.169c.41-.144.793-.252,1.1-.339l.074-.021c.2-.056.38-.108.5-.152A14.6,14.6,0,0,1,19.8.244,12.615,12.615,0,0,1,21.773.015a9.865,9.865,0,0,1,2.058.091A7.475,7.475,0,0,1,25.9.75a5.749,5.749,0,0,1,1.817,1.324A5.437,5.437,0,0,1,28.9,3.937a5.981,5.981,0,0,1,.3,2.089,5.8,5.8,0,0,1-.433,2.182,6.941,6.941,0,0,1-1.17,1.873,8.983,8.983,0,0,1-1.536,1.436,12.085,12.085,0,0,1-1.733,1A15.038,15.038,0,0,1,22.549,13.24Z" transform="translate(0 0)" fill="#e1e7ec"/>
        <path id="Trazado_11134" data-name="Trazado 11134" d="M3.627.041c-.456.2-.914.389-1.37.585a4.021,4.021,0,0,0-1.25.681,4.317,4.317,0,0,0-1,2.356.713.713,0,0,0,.121.509c-.008.01-.017.02-.024.03a.293.293,0,0,0,.165.472,3.112,3.112,0,0,0,1.6-.3,3.766,3.766,0,0,0,1.56-.756c.729-.766.443-1.877.979-2.705C4.709.456,4.106-.166,3.627.041Z" transform="translate(2.215 4.961)" fill="#6068c4"/>
        <path id="Trazado_11135" data-name="Trazado 11135" d="M3.341.028A5.758,5.758,0,0,0,.884,1.288a3.584,3.584,0,0,0-.8,2.541.413.413,0,0,0,.063.212l-.035.03A.446.446,0,0,0,.478,4.8a7.283,7.283,0,0,0,1.393-.457,13.023,13.023,0,0,1,1.472-.416.527.527,0,0,0,.352-.534A7.385,7.385,0,0,1,4.013.608.515.515,0,0,0,3.341.028Z" transform="translate(9.123 2.688)" fill="#6068c4"/>
        <path id="Trazado_11136" data-name="Trazado 11136" d="M3.921.014A15.315,15.315,0,0,0,1.8.8a.628.628,0,0,0-.22-.026C1.126.8.972,1.238.819,1.6.6,2.1.406,2.609.2,3.117A1.386,1.386,0,0,0,.06,4.165a.383.383,0,0,0,.33.583,3.528,3.528,0,0,0,2.87-1.4c.5-.785.541-1.829,1.248-2.477C4.945.469,4.372-.1,3.921.014Z" transform="translate(15.6 0.346)" fill="#6068c4"/>
        <path id="Trazado_11137" data-name="Trazado 11137" d="M6.079,2.2l0,0a5.321,5.321,0,0,1-1.105-.9A4.407,4.407,0,0,0,3.841.246a1.929,1.929,0,0,0-1.3-.21c-.555.118-.9.682-1.266,1.078a.407.407,0,0,0-.057.08A4.084,4.084,0,0,0,.223,2.443a.419.419,0,0,0-.048.218L.1,2.752a.4.4,0,0,0,.616.524l.068-.071a.537.537,0,0,0,.592.239c.73-.182,1.446-.385,2.167-.6a7.619,7.619,0,0,1,1.3-.341,1.6,1.6,0,0,0,.878.447A.435.435,0,0,0,6.079,2.2Z" transform="translate(21.921 0.27)" fill="#6068c4"/>
        <path id="Trazado_11138" data-name="Trazado 11138" d="M2.18.026c-1.1.4-2.5,1.262-2.116,2.661a1.177,1.177,0,0,0,.186.384c.184.65.952,1.248,1.546.636a3.341,3.341,0,0,0,.5-1.341q.264-.892.527-1.784A.494.494,0,0,0,2.18.026Z" transform="translate(20.28 9.489)" fill="#6068c4"/>
        <path id="Trazado_11139" data-name="Trazado 11139" d="M3.625,1.76A5.255,5.255,0,0,0,1.154.038.487.487,0,0,0,.593.157,1.821,1.821,0,0,0,.2,1.586a.206.206,0,0,0-.2.243C.114,2.371.39,2.85.466,3.405A3.984,3.984,0,0,1,.3,5.123c-.135.445.5.676.769.37C1.981,4.469,2.8,3.382,3.6,2.276A.434.434,0,0,0,3.625,1.76Z" transform="translate(25.074 5.912)" fill="#6068c4"/>
        <path id="Trazado_11140" data-name="Trazado 11140" d="M3.4.02C2.327.426,1.215.716.152,1.126c-.243.093-.184.516.1.469A16.858,16.858,0,0,0,3.579.547C3.913.416,3.732-.108,3.4.02Z" transform="translate(2.152 8.052)" fill="#1088cf"/>
        <path id="Trazado_11141" data-name="Trazado 11141" d="M3.294.013A15.794,15.794,0,0,0,.2.946c-.3.147-.264.664.128.623a16.142,16.142,0,0,0,3.2-.88C3.976.543,3.734-.1,3.294.013Z" transform="translate(9.112 5.644)" fill="#1088cf"/>
        <path id="Trazado_11142" data-name="Trazado 11142" d="M2.966.019A21.9,21.9,0,0,1,.359.649c-.5.1-.475.894.056.815A8.64,8.64,0,0,0,1.8,1.173a12.826,12.826,0,0,0,1.365-.6A.3.3,0,0,0,2.966.019Z" transform="translate(15.35 3.628)" fill="#1088cf"/>
        <path id="Trazado_11143" data-name="Trazado 11143" d="M1.242.089C.888,0,.346-.1.081.212a.358.358,0,0,0,.04.494A.736.736,0,0,0,.649.863a3.2,3.2,0,0,1,.509.091c.156.039.305.122.464.146.18.027.449-.082.469-.3C2.136.331,1.615.187,1.242.089Z" transform="translate(21.882 2.755)" fill="#1088cf"/>
        <path id="Trazado_11144" data-name="Trazado 11144" d="M.81.229A4.579,4.579,0,0,1,.1,1.515a.413.413,0,0,0,.629.535A3.694,3.694,0,0,0,1.583.485C1.7.039.977-.209.81.229Z" transform="translate(24.737 5.962)" fill="#1088cf"/>
        <path id="Trazado_11145" data-name="Trazado 11145" d="M1.748.117A3.158,3.158,0,0,0,.274.933a.308.308,0,0,0-.047.08.35.35,0,0,0-.113.069.33.33,0,0,0-.093.355.349.349,0,0,0,.235.212A1.317,1.317,0,0,0,.2,1.806a.147.147,0,0,0,.254.122,2.216,2.216,0,0,1,.591-.6,2.811,2.811,0,0,1,.975-.3c.341-.076.807-.269.68-.713C2.57-.154,2.075.01,1.748.117Z" transform="translate(20.124 9.709)" fill="#1088cf"/>
        <path id="Trazado_11146" data-name="Trazado 11146" d="M3.524.017A7.3,7.3,0,0,0,.6,1.207.445.445,0,0,0,.5,1.812c-.114.054-.226.111-.334.173-.336.193-.134.824.26.743a15.6,15.6,0,0,0,2.2-.754,3.635,3.635,0,0,0,.881-.365.939.939,0,0,0,.252-.277c.014-.023.178-.442.086-.4A.488.488,0,0,0,3.524.017Z" transform="translate(2.438 4.97)" fill="#58afe1"/>
        <path id="Trazado_11147" data-name="Trazado 11147" d="M1.935,0c-.3.01-.589.116-.894.105A2.267,2.267,0,0,0,.175.188C-.169.308.05.761.351.748A2.36,2.36,0,0,0,1.138.5c.274-.111.569-.125.845-.225C2.113.23,2.078,0,1.935,0Z" transform="translate(9.127 4.748)" fill="#58afe1"/>
        <path id="Trazado_11148" data-name="Trazado 11148" d="M3.049.011c-.448.1-.887.22-1.33.338A3.65,3.65,0,0,0,.506.76a.331.331,0,0,0-.062.45c-.148.055-.256.1-.3.117-.337.172-.035.644.285.559.715-.188,1.41-.478,2.119-.693C3.017,1.051,3.565.92,3.532.33A.37.37,0,0,0,3.049.011Z" transform="translate(9.533 2.962)" fill="#58afe1"/>
        <path id="Trazado_11149" data-name="Trazado 11149" d="M3.843.019c-.632.175-1.267.334-1.9.493a3.446,3.446,0,0,0-1.431.559.244.244,0,0,0,.011.417c-.092.037-.181.076-.269.118-.351.167-.351.716.114.634A16.58,16.58,0,0,0,2.58,1.576a3.825,3.825,0,0,0,.9-.361c.269-.173.418-.441.683-.611C4.545.355,4.262-.1,3.843.019Z" transform="translate(15.943 0.481)" fill="#58afe1"/>
        <path id="Trazado_11150" data-name="Trazado 11150" d="M4.5,2.091A12.9,12.9,0,0,0,2.855.8,3.265,3.265,0,0,0,1.122,0,.386.386,0,0,0,.777.283a2.061,2.061,0,0,0-.467,0A.34.34,0,0,0,.187.919c.363.167.765.232,1.136.383a4.93,4.93,0,0,1,1.031.562c.553.4,1.008,1.025,1.737,1.084A.5.5,0,0,0,4.5,2.091Z" transform="translate(23.424 0.192)" fill="#58afe1"/>
        <path id="Trazado_11151" data-name="Trazado 11151" d="M3.255.291A.786.786,0,0,0,2.328.072C1.948.26,1.874.742,1.711,1.1A6.331,6.331,0,0,1,1,2.3a8.118,8.118,0,0,0-.91,1.1.291.291,0,0,0,.066.353C-.292,4.184.3,5,.834,4.591A9.108,9.108,0,0,0,2.782,2.579C3.211,1.963,3.895,1,3.255.291Z" transform="translate(25.411 6.872)" fill="#58afe1"/>
        <path id="Trazado_11152" data-name="Trazado 11152" d="M1.671.048C1.262.344.65.124.206.1A.178.178,0,0,0,.1.43a1.166,1.166,0,0,0,.4.144A.283.283,0,0,0,.571.786c.47.478,1.6.242,1.507-.543A.262.262,0,0,0,1.671.048Z" transform="translate(20.407 12.204)" fill="#58afe1"/>
      </g>
      <path id="Trazado_11153" data-name="Trazado 11153" d="M0,0A0,0,0,0,0,0,0,0,0,0,1,0,0,0Z" transform="translate(29.692 6.364)" fill="#1e0303"/>
      <g id="Grupo_674" data-name="Grupo 674" transform="translate(21.274 11.284)">
        <path id="Trazado_11155" data-name="Trazado 11155" d="M.359.064C.4.169.332.262.336.367A.263.263,0,0,0,.485.6C.668.689.524.964.338.881A.561.561,0,0,1,.006.443C-.019.287.027,0,.254,0A.1.1,0,0,1,.359.064Z" transform="translate(0 0)" fill="#58afe1"/>
      </g>
    </g>
  </g>
</svg>
