<svg xmlns="http://www.w3.org/2000/svg" width="31.209" height="31.209" viewBox="0 0 31.209 31.209">
  <g id="poker" transform="translate(0)">
    <path id="Trazado_12856" data-name="Trazado 12856" d="M167.838,294.21,162.43,288.3a.914.914,0,0,0-1.361.013l-5.2,5.913a.914.914,0,0,0,0,1.208l5.2,5.913a.914.914,0,0,0,1.361.013l5.408-5.913A.913.913,0,0,0,167.838,294.21Z" transform="translate(-146.15 -270.445)" fill="#ff6a4d"/>
    <path id="Trazado_12857" data-name="Trazado 12857" d="M160.143,0A3.419,3.419,0,0,0,157.4,1.377h0A3.419,3.419,0,0,0,154.657,0,3.741,3.741,0,0,0,151,3.921c0,2.729,2.521,4.415,5.8,7.282a.915.915,0,0,0,1.2,0c3.277-2.868,5.8-4.554,5.8-7.282A3.741,3.741,0,0,0,160.143,0Z" transform="translate(-141.795 0)" fill="#ff6a4d"/>
    <path id="Trazado_12858" data-name="Trazado 12858" d="M256.612,11.2a.913.913,0,0,1-.6.226V1.377A3.419,3.419,0,0,1,258.752,0a3.741,3.741,0,0,1,3.657,3.921C262.41,6.649,259.889,8.335,256.612,11.2Z" transform="translate(-240.404 0)" fill="#f03800"/>
    <path id="Trazado_12859" data-name="Trazado 12859" d="M262.093,294.21a.913.913,0,0,1,0,1.234l-5.409,5.913a.909.909,0,0,1-.674.3V288a.914.914,0,0,1,.674.3Z" transform="translate(-240.404 -270.445)" fill="#f03800"/>
    <path id="Trazado_12860" data-name="Trazado 12860" d="M10.056,127.773a3.657,3.657,0,1,0-7.311,0,3.657,3.657,0,1,0,2.741,6.708V136.8H4.572a.914.914,0,0,0,0,1.829H8.229a.914.914,0,0,0,0-1.829H7.315V134.48a3.657,3.657,0,1,0,2.741-6.708Z" transform="translate(0 -116.442)" fill="#384949"/>
    <path id="Trazado_12861" data-name="Trazado 12861" d="M111.4,131.315a3.655,3.655,0,0,1-5.486,3.165V136.8h.914a.914.914,0,0,1,0,1.829H105V124a3.662,3.662,0,0,1,3.655,3.773A3.664,3.664,0,0,1,111.4,131.315Z" transform="translate(-98.599 -116.442)" fill="#293939"/>
    <path id="Trazado_12862" data-name="Trazado 12862" d="M309,120.476a.915.915,0,0,0-1.2,0c-3.277,2.868-5.8,4.554-5.8,7.282a3.741,3.741,0,0,0,3.657,3.921,3.3,3.3,0,0,0,1.829-.535v2.135h-.914a.914.914,0,0,0,0,1.829h3.657a.914.914,0,0,0,0-1.829h-.914v-2.135a3.3,3.3,0,0,0,1.829.535,3.741,3.741,0,0,0,3.657-3.921C314.8,125.029,312.279,123.343,309,120.476Z" transform="translate(-283.591 -112.92)" fill="#384949"/>
    <path id="Trazado_12863" data-name="Trazado 12863" d="M413.4,127.758a3.741,3.741,0,0,1-3.657,3.921,3.3,3.3,0,0,1-1.829-.535v2.135h.914a.914.914,0,0,1,0,1.829H407V120.25a.912.912,0,0,1,.6.226C410.879,123.343,413.4,125.029,413.4,127.758Z" transform="translate(-382.191 -112.92)" fill="#293939"/>
  </g>
</svg>
