<svg xmlns="http://www.w3.org/2000/svg" width="32.521" height="30.755" viewBox="0 0 32.521 30.755">
  <g id="teamwork" transform="translate(0)">
    <path id="Trazado_12759" data-name="Trazado 12759" d="M33.65,267.239v11.108a16.053,16.053,0,0,1-2.4-.671q-.672-.245-1.316-.547-.219-.1-.435-.213-.555-.281-1.085-.6A16.308,16.308,0,0,1,21.965,269v-1.757a4.408,4.408,0,0,1,3.265-4.257c.069-.019.138-.036.208-.05a4.272,4.272,0,0,1,.573-.085c.119-.009.239-.015.36-.015h2.87a4.384,4.384,0,0,1,.935.1l.052.011c.051.011.1.024.151.037h0a4.412,4.412,0,0,1,3.266,4.258Zm0,0" transform="translate(-20.57 -247.905)" fill="#2ba1cf"/>
    <path id="Trazado_12760" data-name="Trazado 12760" d="M61.536,267.24v11.108a16.045,16.045,0,0,1-2.4-.671q-.672-.245-1.316-.547-.219-.1-.435-.213-.555-.281-1.085-.6a16.344,16.344,0,0,1-4.56-4.113V267.24a4.408,4.408,0,0,1,3.265-4.257c.069-.019.138-.036.208-.05a4.285,4.285,0,0,1,.573-.085c.119-.009.239-.015.361-.015h.979a4.386,4.386,0,0,1,.935.1l.052.011c.051.012.1.024.151.037h0a4.412,4.412,0,0,1,3.266,4.258Zm0,0" transform="translate(-48.456 -247.905)" fill="#66baed"/>
    <path id="Trazado_12761" data-name="Trazado 12761" d="M78.379,264.4l-.01.05L77.05,270.58A1.283,1.283,0,0,1,75.8,271.6H75.78a1.282,1.282,0,0,1-1.248-1.017l-1.318-6.132-.01-.05Zm0,0" transform="translate(-68.554 -249.371)" fill="#f2f0ec"/>
    <path id="Trazado_12762" data-name="Trazado 12762" d="M75.79,255.4l-1.984,1.1-.6-2.807,1.233-.726" transform="translate(-68.553 -238.667)" fill="#d8d5d0"/>
    <path id="Trazado_12763" data-name="Trazado 12763" d="M113.941,255.4l1.984,1.1.6-2.807-1.233-.726" transform="translate(-106.704 -238.667)" fill="#d8d5d0"/>
    <path id="Trazado_12764" data-name="Trazado 12764" d="M20.676,60.762V54.116a5.925,5.925,0,1,1,11.849,0v6.647" transform="translate(-19.363 -46.897)" fill="#cc7a3b"/>
    <path id="Trazado_12765" data-name="Trazado 12765" d="M23.109,54.383c0,2.351,1.377,5.071,2.133,6.387h-4.57V54.124A5.921,5.921,0,0,1,26.553,48.2C24.732,48.245,23.109,51.167,23.109,54.383Zm0,0" transform="translate(-19.359 -46.905)" fill="#a35418"/>
    <path id="Trazado_12766" data-name="Trazado 12766" d="M92.34,236.1v1.93a1.572,1.572,0,0,1-3.145,0V236.1Zm0,0" transform="translate(-83.53 -222.875)" fill="#eab599"/>
    <path id="Trazado_12767" data-name="Trazado 12767" d="M106.241,264.563v.122a1.137,1.137,0,1,1-2.2.2q.157.01.317.01a5.427,5.427,0,0,0,1.885-.337Zm0,0" transform="translate(-97.431 -249.525)" fill="#f6caae"/>
    <path id="Trazado_12768" data-name="Trazado 12768" d="M2.925,164.759A1.462,1.462,0,1,1,1.7,163.315,1.462,1.462,0,0,1,2.925,164.759Zm0,0" transform="translate(-0.001 -154.691)" fill="#f6caae"/>
    <path id="Trazado_12769" data-name="Trazado 12769" d="M25.075,165.037a1.462,1.462,0,0,1-1.228,1.444,5.466,5.466,0,0,1,0-2.887A1.462,1.462,0,0,1,25.075,165.037Zm0,0" transform="translate(-22.15 -154.969)" fill="#eab599"/>
    <path id="Trazado_12770" data-name="Trazado 12770" d="M15.838,178.612a.523.523,0,1,1-.523-.523A.523.523,0,0,1,15.838,178.612Zm0,0" transform="translate(-13.854 -168.544)" fill="#eab599"/>
    <path id="Trazado_12771" data-name="Trazado 12771" d="M37.492,107.987v5.026a5.42,5.42,0,0,1-2.881,1.434l-.027,0a5.372,5.372,0,0,1-.847.066,5.44,5.44,0,0,1-5.44-5.44v-2.072a5.482,5.482,0,0,1,.056-.781,3.448,3.448,0,0,0,4.333-.279,3.082,3.082,0,0,0,.818-1.278,3.59,3.59,0,0,0,1.123,2.241A4.015,4.015,0,0,0,37.492,107.987Zm0,0" transform="translate(-26.5 -99.787)" fill="#eab599"/>
    <path id="Trazado_12772" data-name="Trazado 12772" d="M62.47,107.987v5.026a5.42,5.42,0,0,1-2.881,1.434l-.027,0a5.441,5.441,0,0,1-4.593-5.375v-2.072q0-.083,0-.165a3.409,3.409,0,0,0,2.691-.9,3.08,3.08,0,0,0,.818-1.277,3.59,3.59,0,0,0,1.123,2.241A4.015,4.015,0,0,0,62.47,107.987Zm0,0" transform="translate(-51.478 -99.786)" fill="#f6caae"/>
    <path id="Trazado_12773" data-name="Trazado 12773" d="M133.3,153.529a.9.9,0,1,0-1.807,0" transform="translate(-123.144 -144.698)" fill="#eab599"/>
    <path id="Trazado_12774" data-name="Trazado 12774" d="M69.768,153.529a.9.9,0,1,0-1.807,0" transform="translate(-63.645 -144.698)" fill="#eab599"/>
    <path id="Trazado_12775" data-name="Trazado 12775" d="M73.7,163.808a.617.617,0,1,1-.617-.617A.617.617,0,0,1,73.7,163.808Zm0,0" transform="translate(-67.866 -154.592)" fill="#3d4159"/>
    <path id="Trazado_12776" data-name="Trazado 12776" d="M137.242,163.808a.617.617,0,1,1-.617-.617A.617.617,0,0,1,137.242,163.808Zm0,0" transform="translate(-127.37 -154.592)" fill="#3d4159"/>
    <path id="Trazado_12777" data-name="Trazado 12777" d="M101.548,189.521h-1.234a.266.266,0,1,1,0-.532h1.234a.266.266,0,0,1,0,.532Zm0,0" transform="translate(-93.693 -178.751)" fill="#eab599"/>
    <path id="Trazado_12778" data-name="Trazado 12778" d="M92.547,212.145a2.748,2.748,0,0,1-1.326-.343.242.242,0,1,1,.233-.424,2.258,2.258,0,0,0,2.186,0,.242.242,0,1,1,.233.424A2.748,2.748,0,0,1,92.547,212.145Zm0,0" transform="translate(-85.31 -199.69)" fill="#eab599"/>
    <path id="Trazado_12779" data-name="Trazado 12779" d="M82.123,167.291a.264.264,0,1,1-.264-.265A.265.265,0,0,1,82.123,167.291Zm0,0" transform="translate(-76.412 -158.185)" fill="#fff"/>
    <path id="Trazado_12780" data-name="Trazado 12780" d="M146.139,167.291a.264.264,0,1,1-.264-.265A.264.264,0,0,1,146.139,167.291Zm0,0" transform="translate(-136.361 -158.185)" fill="#fff"/>
    <path id="Trazado_12781" data-name="Trazado 12781" d="M152.266,186.58a.678.678,0,1,1-.678-.678A.678.678,0,0,1,152.266,186.58Zm0,0" transform="translate(-141.325 -175.861)" fill="#eab599"/>
    <path id="Trazado_12782" data-name="Trazado 12782" d="M57.008,186.58a.678.678,0,1,1-.678-.678A.678.678,0,0,1,57.008,186.58Zm0,0" transform="translate(-52.118 -175.861)" fill="#eab599"/>
    <path id="Trazado_12783" data-name="Trazado 12783" d="M308.776,262.136v2.036a16.326,16.326,0,0,1-7.909,7.99,16.1,16.1,0,0,1-1.962.766,15.932,15.932,0,0,1-2.344.557h-.011v-11.35a4.61,4.61,0,0,1,4.234-4.595c.125-.011.25-.015.377-.015h3a4.6,4.6,0,0,1,4.612,4.61Zm0,0" transform="translate(-277.714 -242.935)" fill="#bfd5de"/>
    <path id="Trazado_12784" data-name="Trazado 12784" d="M343.495,262.137v2.036a16.325,16.325,0,0,1-7.909,7.99,16.062,16.062,0,0,1-1.962.766V262.137a4.611,4.611,0,0,1,4.612-4.61h.648a4.61,4.61,0,0,1,4.612,4.61Zm0,0" transform="translate(-312.434 -242.936)" fill="#dde8ed"/>
    <path id="Trazado_12785" data-name="Trazado 12785" d="M276.622,154.909a1.529,1.529,0,1,1-1.285-1.51A1.53,1.53,0,0,1,276.622,154.909Zm0,0" transform="translate(-256.186 -145.404)" fill="#d3a489"/>
    <path id="Trazado_12786" data-name="Trazado 12786" d="M375.772,283.711l-1.238,1.985-1.238-1.985" transform="translate(-349.586 -267.457)" fill="#f74f4f"/>
    <path id="Trazado_12787" data-name="Trazado 12787" d="M369.893,312.961l-1.665,2.1-1.666-2.1,1.666-6.125Zm0,0" transform="translate(-343.28 -289.113)" fill="#f74f4f"/>
    <path id="Trazado_12788" data-name="Trazado 12788" d="M299.8,155.2a1.53,1.53,0,0,1-1.285,1.51,5.72,5.72,0,0,1,0-3.021A1.53,1.53,0,0,1,299.8,155.2Zm0,0" transform="translate(-279.364 -145.693)" fill="#bf8e75"/>
    <path id="Trazado_12789" data-name="Trazado 12789" d="M290.137,169.406a.547.547,0,1,1-.547-.547A.547.547,0,0,1,290.137,169.406Zm0,0" transform="translate(-270.684 -159.901)" fill="#bf8e75"/>
    <path id="Trazado_12790" data-name="Trazado 12790" d="M352.863,249.739l-2.076,1.154-.631-2.937,1.29-.76" transform="translate(-327.915 -233.26)" fill="#bfd5de"/>
    <path id="Trazado_12791" data-name="Trazado 12791" d="M392.777,249.739l2.076,1.154.631-2.937-1.29-.76" transform="translate(-367.829 -233.26)" fill="#bfd5de"/>
    <path id="Trazado_12792" data-name="Trazado 12792" d="M463.828,154.909a1.529,1.529,0,1,0,1.285-1.51A1.53,1.53,0,0,0,463.828,154.909Zm0,0" transform="translate(-434.367 -145.404)" fill="#d3a489"/>
    <g id="Grupo_989" data-name="Grupo 989" transform="translate(19.256 2.991)">
      <path id="Trazado_12793" data-name="Trazado 12793" d="M463.828,155.2a1.53,1.53,0,0,0,1.285,1.51,5.721,5.721,0,0,0,0-3.021A1.53,1.53,0,0,0,463.828,155.2Zm0,0" transform="translate(-453.623 -148.683)" fill="#bf8e75"/>
      <path id="Trazado_12794" data-name="Trazado 12794" d="M480.4,169.406a.547.547,0,1,1-.547-.547A.547.547,0,0,1,480.4,169.406Zm0,0" transform="translate(-468.116 -162.891)" fill="#bf8e75"/>
      <path id="Trazado_12795" data-name="Trazado 12795" d="M314.552,80.6a5.693,5.693,0,0,1-4.779,5.619,5.621,5.621,0,0,1-.914.073,5.692,5.692,0,0,1-5.692-5.692,8.109,8.109,0,0,1,1.451-4.735c1.04-1.129,2.585-.958,4.241-.958a5.624,5.624,0,0,1,.914.074,5.692,5.692,0,0,1,4.779,5.619Zm0,0" transform="translate(-303.167 -74.9)" fill="#bf8e75"/>
      <path id="Trazado_12796" data-name="Trazado 12796" d="M370.174,229.559v2.019a1.645,1.645,0,0,1-3.29,0v-2.019Zm0,0" transform="translate(-362.836 -219.735)" fill="#bf8e75"/>
    </g>
    <path id="Trazado_12797" data-name="Trazado 12797" d="M384.718,259.328v.128a1.189,1.189,0,1,1-2.3.214q.165.01.331.01a5.653,5.653,0,0,0,.914-.074A5.584,5.584,0,0,0,384.718,259.328Zm0,0" transform="translate(-358.125 -244.623)" fill="#d3a489"/>
    <path id="Trazado_12798" data-name="Trazado 12798" d="M341.49,81.822a5.687,5.687,0,1,1-.028-.568c.019.187.028.376.028.568Zm0,0" transform="translate(-310.85 -73.13)" fill="#d3a489"/>
    <path id="Trazado_12799" data-name="Trazado 12799" d="M370.387,196.514a2.875,2.875,0,0,1-1.388-.358.253.253,0,1,1,.244-.444,2.364,2.364,0,0,0,2.288,0,.253.253,0,0,1,.244.444A2.878,2.878,0,0,1,370.387,196.514Zm0,0" transform="translate(-345.439 -185.018)" fill="#bf8e75"/>
    <path id="Trazado_12800" data-name="Trazado 12800" d="M354.658,149.927a.646.646,0,1,1-.646-.646A.646.646,0,0,1,354.658,149.927Zm0,0" transform="translate(-330.922 -141.566)" fill="#3d4159"/>
    <path id="Trazado_12801" data-name="Trazado 12801" d="M413.158,149.927a.646.646,0,1,1-.646-.646A.646.646,0,0,1,413.158,149.927Zm0,0" transform="translate(-385.706 -141.566)" fill="#3d4159"/>
    <path id="Trazado_12802" data-name="Trazado 12802" d="M363.467,153.573a.277.277,0,1,1-.277-.277A.277.277,0,0,1,363.467,153.573Zm0,0" transform="translate(-339.863 -145.326)" fill="#fff"/>
    <path id="Trazado_12803" data-name="Trazado 12803" d="M422.467,153.573a.277.277,0,1,1-.277-.277A.277.277,0,0,1,422.467,153.573Zm0,0" transform="translate(-395.115 -145.326)" fill="#fff"/>
    <path id="Trazado_12804" data-name="Trazado 12804" d="M379.8,176.83h-1.291a.279.279,0,1,1,0-.557H379.8a.279.279,0,1,1,0,.557Zm0,0" transform="translate(-354.206 -166.844)" fill="#bf8e75"/>
    <path id="Trazado_12805" data-name="Trazado 12805" d="M422.289,327.727h2.481v.76h-2.481Zm0,0" transform="translate(-395.466 -308.677)" fill="#bfd5de"/>
    <path id="Trazado_12806" data-name="Trazado 12806" d="M387.539,49.317a3.45,3.45,0,0,1,3.2,3.269l.016.329h.992l.534,3.553,1.294-.4-.174-3.481a3.45,3.45,0,0,0-3.459-3.279Zm0,0" transform="translate(-362.924 -47.943)" fill="#2a2f4f"/>
    <path id="Trazado_12807" data-name="Trazado 12807" d="M404.746,27.816a3.516,3.516,0,0,1-4.973,4.973Zm0,0" transform="translate(-374.381 -27.816)" fill="#3d4159"/>
    <path id="Trazado_12808" data-name="Trazado 12808" d="M309.194,52.912h-4.315l-.534,3.553-1.294-.4.173-3.481a3.45,3.45,0,0,1,3.459-3.279l6.233.024.824,1.483" transform="translate(-283.802 -47.94)" fill="#3d4159"/>
    <path id="Trazado_12809" data-name="Trazado 12809" d="M309.079,49.317a3.45,3.45,0,0,0-3.2,3.269l-.016.329h-.992l-.534,3.553-1.294-.4.174-3.481a3.45,3.45,0,0,1,3.459-3.279Zm0,0" transform="translate(-283.798 -47.943)" fill="#2a2f4f"/>
    <path id="Trazado_12810" data-name="Trazado 12810" d="M161.263,392.082V393.3a16.3,16.3,0,0,1-13.786,0v-1.218a5.2,5.2,0,0,1,3.852-5.023c.081-.022.163-.042.246-.06a5.136,5.136,0,0,1,.676-.1c.141-.011.282-.017.425-.017h3.386a5.211,5.211,0,0,1,1.1.117l.061.013c.06.014.119.029.178.044h0a5.2,5.2,0,0,1,3.853,5.024Zm0,0" transform="translate(-138.11 -364.075)" fill="#3d4159"/>
    <path id="Trazado_12811" data-name="Trazado 12811" d="M214.032,388.723l-.013.059-1.658,7.713-.258.02c-.122.008-.244.015-.367.021q-.376.018-.757.018t-.775-.019q-.174-.008-.349-.021l-.26-.019-1.658-7.712-.012-.06Zm0,0" transform="translate(-194.719 -365.799)" fill="#66baed"/>
    <path id="Trazado_12812" data-name="Trazado 12812" d="M236.811,416.422l-1.4,2.239-1.4-2.239" transform="translate(-219.156 -391.738)" fill="#3d4159"/>
    <path id="Trazado_12813" data-name="Trazado 12813" d="M240.556,446.869c-.122.008-.244.015-.366.02q-.376.018-.757.018t-.775-.019c-.116-.005-.233-.012-.349-.021l1.124-4.376Zm0,0" transform="translate(-223.172 -416.153)" fill="#3d4159"/>
    <path id="Trazado_12814" data-name="Trazado 12814" d="M210.975,378.111l-2.341,1.3-.712-3.312,1.454-.857" transform="translate(-194.715 -353.175)" fill="#2ba1cf"/>
    <path id="Trazado_12815" data-name="Trazado 12815" d="M255.988,378.111l2.341,1.3.712-3.312-1.454-.857" transform="translate(-239.729 -353.175)" fill="#2ba1cf"/>
    <path id="Trazado_12816" data-name="Trazado 12816" d="M270.294,393.193h.743l-1.3,3.155a16.178,16.178,0,0,1-1.83.187l2.278-7.755.017-.058,1.6.523Zm0,0" transform="translate(-250.893 -365.799)" fill="#2a2f4f"/>
    <path id="Trazado_12817" data-name="Trazado 12817" d="M186.328,396.534a16.108,16.108,0,0,1-1.831-.19l-1.3-3.152h.743l-1.514-3.947,1.6-.523.017.058Zm0,0" transform="translate(-170.843 -365.798)" fill="#2a2f4f"/>
    <path id="Trazado_12818" data-name="Trazado 12818" d="M230.5,355.352v2.276a1.855,1.855,0,0,1-3.71,0v-2.276Zm0,0" transform="translate(-212.38 -334.547)" fill="#eab599"/>
    <path id="Trazado_12819" data-name="Trazado 12819" d="M246.895,388.922v.144a1.341,1.341,0,1,1-2.6.241q.186.012.374.011a6.4,6.4,0,0,0,2.224-.4Zm0,0" transform="translate(-228.78 -365.985)" fill="#f6caae"/>
    <path id="Trazado_12820" data-name="Trazado 12820" d="M125,271.17a1.726,1.726,0,0,1-1.449,1.7,1.747,1.747,0,0,1-.276.022A1.725,1.725,0,1,1,125,271.17Zm0,0" transform="translate(-113.83 -254.097)" fill="#f6caae"/>
    <path id="Trazado_12821" data-name="Trazado 12821" d="M151.139,271.5a1.726,1.726,0,0,1-1.449,1.7,6.453,6.453,0,0,1,0-3.406A1.726,1.726,0,0,1,151.139,271.5Zm0,0" transform="translate(-139.968 -254.426)" fill="#eab599"/>
    <path id="Trazado_12822" data-name="Trazado 12822" d="M140.241,287.519a.617.617,0,1,1-.617-.617A.617.617,0,0,1,140.241,287.519Zm0,0" transform="translate(-130.179 -270.445)" fill="#eab599"/>
    <path id="Trazado_12823" data-name="Trazado 12823" d="M336.1,271.17a1.726,1.726,0,0,0,1.449,1.7,1.744,1.744,0,0,0,.276.022,1.725,1.725,0,1,0-1.725-1.725Zm0,0" transform="translate(-314.757 -254.097)" fill="#f6caae"/>
    <path id="Trazado_12824" data-name="Trazado 12824" d="M336.1,271.5a1.726,1.726,0,0,0,1.449,1.7,6.456,6.456,0,0,0,0-3.406A1.726,1.726,0,0,0,336.1,271.5Zm0,0" transform="translate(-314.757 -254.426)" fill="#eab599"/>
    <path id="Trazado_12825" data-name="Trazado 12825" d="M167.779,149.055V151.5a6.419,6.419,0,0,1-5.389,6.336l-.031.005a6.309,6.309,0,0,1-1,.078,6.418,6.418,0,0,1-6.418-6.418v-2.445a6.415,6.415,0,0,1,6.418-6.419h0a6.415,6.415,0,0,1,6.419,6.419Zm0,0" transform="translate(-145.1 -135.343)" fill="#eab599"/>
    <path id="Trazado_12826" data-name="Trazado 12826" d="M354.792,287.519a.617.617,0,1,1-.617-.617A.617.617,0,0,1,354.792,287.519Zm0,0" transform="translate(-331.102 -270.445)" fill="#eab599"/>
    <path id="Trazado_12827" data-name="Trazado 12827" d="M197.245,150.2v2.444a6.419,6.419,0,0,1-5.389,6.336l-.031.005a6.42,6.42,0,0,1-5.418-6.341V150.2a6.42,6.42,0,0,1,5.42-6.341A6.42,6.42,0,0,1,197.245,150.2Zm0,0" transform="translate(-174.567 -136.488)" fill="#f6caae"/>
    <path id="Trazado_12828" data-name="Trazado 12828" d="M213,265.556a.728.728,0,1,1-.728-.728A.728.728,0,0,1,213,265.556Zm0,0" transform="translate(-198.107 -249.774)" fill="#3d4159"/>
    <path id="Trazado_12829" data-name="Trazado 12829" d="M278.968,265.556a.728.728,0,1,1-.728-.728A.728.728,0,0,1,278.968,265.556Zm0,0" transform="translate(-259.885 -249.774)" fill="#3d4159"/>
    <path id="Trazado_12830" data-name="Trazado 12830" d="M222.933,269.668a.312.312,0,1,1-.312-.312A.312.312,0,0,1,222.933,269.668Zm0,0" transform="translate(-208.189 -254.014)" fill="#fff"/>
    <path id="Trazado_12831" data-name="Trazado 12831" d="M289.464,269.668a.312.312,0,1,1-.312-.312A.312.312,0,0,1,289.464,269.668Zm0,0" transform="translate(-270.494 -254.014)" fill="#fff"/>
    <path id="Trazado_12832" data-name="Trazado 12832" d="M241.353,291.4H239.9a.314.314,0,0,1,0-.628h1.457a.314.314,0,1,1,0,.628Zm0,0" transform="translate(-224.365 -274.067)" fill="#eab599"/>
    <path id="Trazado_12833" data-name="Trazado 12833" d="M230.736,318.086a3.242,3.242,0,0,1-1.565-.4.286.286,0,0,1,.275-.5,2.664,2.664,0,0,0,2.579,0,.286.286,0,0,1,.275.5,3.243,3.243,0,0,1-1.565.4Zm0,0" transform="translate(-214.477 -298.769)" fill="#eab599"/>
    <path id="Trazado_12834" data-name="Trazado 12834" d="M167.775,132.578v2.5H166.58v-1.961l-8.624-1.6-1.825-.339v3.9h-1.195v-2.5a5.167,5.167,0,0,1,5.167-5.168h2.5c.068,0,.136,0,.2,0A5.167,5.167,0,0,1,167.775,132.578Zm0,0" transform="translate(-145.096 -121.084)" fill="#2a2f4f"/>
    <path id="Trazado_12835" data-name="Trazado 12835" d="M212.291,132.647v2.5H211.1V133.19l-8.624-1.6a4.948,4.948,0,0,1,9.818,1.059Zm0,0" transform="translate(-189.612 -121.153)" fill="#3d4159"/>
  </g>
</svg>
