<svg xmlns="http://www.w3.org/2000/svg" width="116.045" height="116.046" viewBox="0 0 116.045 116.046">
  <g id="Grupo_14419" data-name="Grupo 14419" transform="translate(-21.858 -183.029)">
    <g id="golosinas" transform="translate(21.859 183.029)">
      <path id="Trazado_11168" data-name="Trazado 11168" d="M0,0H8V60.024H0Z" transform="translate(54.021 56.022)" fill="#fff"/>
      <ellipse id="Elipse_41" data-name="Elipse 41" cx="30.375" cy="28.205" rx="30.375" ry="28.205" transform="translate(27.648 1.627)" fill="#fff"/>
      <path id="Trazado_11169" data-name="Trazado 11169" d="M16.2,20.008a17.419,17.419,0,0,0,2.886,10A17.423,17.423,0,0,1,9.971,24.98C2.929,17.937,6.94,13.861,0,6.848A29.9,29.9,0,0,1,19.085,0q1.459,0,2.884.138C21.919,10,16.2,10.051,16.2,20.008Z" transform="translate(38.938 0)" fill="#fc556a"/>
      <path id="Trazado_11170" data-name="Trazado 11170" d="M30.012,2.884A17.416,17.416,0,0,1,24.98,12C17.937,19.04,13.86,15.028,6.848,21.969A29.9,29.9,0,0,1,0,2.884Q0,1.424.138,0C10,.05,10.051,5.77,20.008,5.77A17.419,17.419,0,0,0,30.012,2.884Z" transform="translate(28.011 27.128)" fill="#ff2308"/>
      <path id="Trazado_11171" data-name="Trazado 11171" d="M21.969,23.164A29.9,29.9,0,0,1,2.884,30.012q-1.459,0-2.884-.138C.05,20.008,5.77,19.96,5.77,10A17.419,17.419,0,0,0,2.884,0,17.41,17.41,0,0,1,12,5.035C19.04,12.075,15.028,16.151,21.969,23.164Z" transform="translate(55.139 30.012)" fill="#fc556a"/>
      <path id="Trazado_11172" data-name="Trazado 11172" d="M30.012,19.085q0,1.459-.138,2.884C20.008,21.919,19.96,16.2,10,16.2A17.42,17.42,0,0,0,0,19.085,17.457,17.457,0,0,1,5.034,9.969C12.075,2.929,16.151,6.94,23.164,0a29.9,29.9,0,0,1,6.848,19.085Z" transform="translate(58.023 10.927)" fill="#ff2308"/>
      <g id="Grupo_677" data-name="Grupo 677" transform="translate(28.011 0)">
        <path id="Trazado_11173" data-name="Trazado 11173" d="M.1,0C.065.033.032.065,0,.1" transform="translate(53.176 10.832)" fill="none"/>
        <path id="Trazado_11174" data-name="Trazado 11174" d="M.1.1C.065.065.032.033,0,0" transform="translate(10.832 6.75)" fill="none"/>
        <path id="Trazado_11175" data-name="Trazado 11175" d="M0,0C0,.045,0,.09,0,.137" transform="translate(27.126 59.886)" fill="none"/>
        <path id="Trazado_11176" data-name="Trazado 11176" d="M0,0C0,.048,0,.093,0,.138" transform="translate(32.895 0)" fill="none"/>
        <path id="Trazado_11177" data-name="Trazado 11177" d="M.138,0C.093,0,.048,0,0,0" transform="translate(0 27.126)" fill="none"/>
        <path id="Trazado_11178" data-name="Trazado 11178" d="M.138,0C.09,0,.045,0,0,0" transform="translate(59.886 32.895)" fill="none"/>
        <path id="Trazado_11179" data-name="Trazado 11179" d="M.1,0C.065.03.032.062,0,.1" transform="translate(6.75 49.097)" fill="none"/>
        <path id="Trazado_11180" data-name="Trazado 11180" d="M.1.1C.062.065.03.033,0,0" transform="translate(49.097 53.176)" fill="none"/>
      </g>
      <ellipse id="Elipse_42" data-name="Elipse 42" cx="6.509" cy="6.509" rx="6.509" ry="6.509" transform="translate(14.631 53.698)" fill="#58afe1"/>
      <ellipse id="Elipse_43" data-name="Elipse 43" cx="6.509" cy="6.509" rx="6.509" ry="6.509" transform="translate(97.076 23.323)" fill="#58afe1"/>
      <ellipse id="Elipse_44" data-name="Elipse 44" cx="6.509" cy="6.509" rx="6.509" ry="6.509" transform="translate(88.397 97.091)" fill="#ff2308"/>
      <ellipse id="Elipse_45" data-name="Elipse 45" cx="6.509" cy="6.509" rx="6.509" ry="6.509" transform="translate(5.952 5.966)" fill="#ff2308"/>
      <path id="Trazado_11181" data-name="Trazado 11181" d="M18.149,15.32l-1.415,1.413-1.416,1.415a4,4,0,0,1-5.657,0L1.172,9.661a4,4,0,0,1,0-5.66L4,1.172a4,4,0,0,1,5.66,0l8.488,8.488A4,4,0,0,1,18.149,15.32Z" transform="translate(10.147 82.376)" fill="#58afe1"/>
      <path id="Trazado_11182" data-name="Trazado 11182" d="M12.732,4.244,7.073,7.075,4.244,12.735,0,0Z" transform="translate(26.88 99.109)" fill="#e9eef2"/>
      <path id="Trazado_11183" data-name="Trazado 11183" d="M12.732,12.735,0,8.491,5.66,5.66,8.488,0Z" transform="translate(0 72.228)" fill="#e9eef2"/>
      <rect id="Rectángulo_19749" data-name="Rectángulo 19749" width="20.008" height="12.005" rx="6.002" transform="translate(107.574 61.394) rotate(135)" fill="#ff2308"/>
      <path id="Trazado_11184" data-name="Trazado 11184" d="M0,4.245,12.733,0,8.489,12.733,5.659,7.074Z" transform="translate(76.432 71.3)" fill="#e9eef2"/>
      <path id="Trazado_11185" data-name="Trazado 11185" d="M4.244,0,0,12.733,12.733,8.489,7.074,5.659Z" transform="translate(103.313 44.42)" fill="#e9eef2"/>
    </g>
  </g>
</svg>
