<svg id="Grupo_14483" data-name="Grupo 14483" xmlns="http://www.w3.org/2000/svg" width="59.687" height="50.625" viewBox="0 0 59.687 50.625">
  <g id="Grupo_14466" data-name="Grupo 14466" transform="translate(0 0.058)">
    <path id="Trazado_13733" data-name="Trazado 13733" d="M313.977,417.681c-1.383-1.714-3.5-3.371-5.686-2.409a3.68,3.68,0,0,0-1.94,4.333c-1.318-1.424-4-1.169-5.377.512s-1.152,4.4.463,5.462a3.368,3.368,0,0,0-2.638,3.345,3.968,3.968,0,0,0,2.307,3.378,32.593,32.593,0,0,0,12.383,2.332l5.612-7.647A31.115,31.115,0,0,0,313.977,417.681Z" transform="translate(-298.798 -414.988)" fill="#54ba2f"/>
    <path id="Trazado_13734" data-name="Trazado 13734" d="M354.459,447.386c2.05.805,4.267,2.33,4,4.7a3.681,3.681,0,0,1-3.552,3.151c1.754.83,2.314,3.46,1.125,5.283s-3.851,2.419-5.35,1.2a3.368,3.368,0,0,1-2.4,3.52,3.971,3.971,0,0,1-3.916-1.188,32.628,32.628,0,0,1-5.94-11.112l5.612-7.647A31.074,31.074,0,0,1,354.459,447.386Z" transform="translate(-298.798 -414.988)" fill="#54ba2f"/>
    <g id="Grupo_14465" data-name="Grupo 14465" transform="translate(5.905 6.215)">
      <g id="Grupo_14459" data-name="Grupo 14459" transform="translate(38.922 33.9)">
        <path id="Trazado_13735" data-name="Trazado 13735" d="M344.174,458.018c1.512,1.109,3.458-1.537,1.943-2.648s-3.458,1.536-1.943,2.648Z" transform="translate(-343.626 -455.104)" fill="#282f39"/>
      </g>
      <g id="Grupo_14460" data-name="Grupo 14460" transform="translate(45.435 27.719)">
        <path id="Trazado_13736" data-name="Trazado 13736" d="M351,449.335l-.176.171a1.967,1.967,0,0,0-.547.745,1.8,1.8,0,0,0-.134.853,1.423,1.423,0,0,0,1.759,1.291,1.8,1.8,0,0,0,.773-.384,1.959,1.959,0,0,0,.547-.745l.111-.22.117-.415a1.243,1.243,0,0,0-.031-.611.739.739,0,0,0-.139-.371,1.025,1.025,0,0,0-.379-.459,1.622,1.622,0,0,0-.747-.262,1.193,1.193,0,0,0-.6.1,1.332,1.332,0,0,0-.557.3Z" transform="translate(-350.139 -448.923)" fill="#282f39"/>
      </g>
      <g id="Grupo_14461" data-name="Grupo 14461" transform="translate(44.513 34.29)">
        <path id="Trazado_13737" data-name="Trazado 13737" d="M349.657,457.834c1.215.891,2.777-1.233,1.56-2.126s-2.776,1.234-1.56,2.126Z" transform="translate(-349.217 -455.494)" fill="#282f39"/>
      </g>
      <g id="Grupo_14462" data-name="Grupo 14462" transform="translate(0 2.534)">
        <path id="Trazado_13738" data-name="Trazado 13738" d="M305.2,426.354c1.357,1,3.1-1.379,1.744-2.377s-3.1,1.379-1.744,2.377Z" transform="translate(-304.704 -423.738)" fill="#282f39"/>
      </g>
      <g id="Grupo_14463" data-name="Grupo 14463" transform="translate(6.573)">
        <path id="Trazado_13739" data-name="Trazado 13739" d="M311.841,424.2c1.556,1.142,3.559-1.581,2-2.725s-3.559,1.581-2,2.725Z" transform="translate(-311.277 -421.204)" fill="#282f39"/>
      </g>
      <g id="Grupo_14464" data-name="Grupo 14464" transform="translate(2.259 6.977)">
        <path id="Trazado_13740" data-name="Trazado 13740" d="M307.535,431.222c1.578,1.158,3.609-1.6,2.028-2.763s-3.609,1.6-2.028,2.763Z" transform="translate(-306.963 -428.181)" fill="#282f39"/>
      </g>
    </g>
  </g>
  <ellipse id="Elipse_80" data-name="Elipse 80" cx="18.005" cy="18.25" rx="18.005" ry="18.25" transform="translate(4.397 29.033) rotate(-53.733)" fill="#72d150"/>
  <g id="Grupo_14475" data-name="Grupo 14475" transform="translate(14.79 9.246)">
    <g id="Grupo_14467" data-name="Grupo 14467" transform="translate(11.601)">
      <path id="Trazado_13741" data-name="Trazado 13741" d="M328.409,426.5l.027-.093.123-.436a1.3,1.3,0,0,0-.033-.641.762.762,0,0,0-.145-.389,1.063,1.063,0,0,0-.4-.482,1.685,1.685,0,0,0-.784-.275,1.254,1.254,0,0,0-.626.107,1.39,1.39,0,0,0-.584.319l-.082.055a2.055,2.055,0,0,0-.57.777,1.87,1.87,0,0,0-.139.889,1.484,1.484,0,0,0,1.834,1.347,1.87,1.87,0,0,0,.807-.4,2.058,2.058,0,0,0,.571-.778Z" transform="translate(-325.19 -424.177)" fill="#282f39"/>
    </g>
    <g id="Grupo_14468" data-name="Grupo 14468" transform="translate(9.876 10.306)">
      <path id="Trazado_13742" data-name="Trazado 13742" d="M324.149,438.121c1.888,1.385,4.316-1.918,2.425-3.3s-4.316,1.917-2.425,3.3Z" transform="translate(-323.464 -434.484)" fill="#282f39"/>
    </g>
    <g id="Grupo_14469" data-name="Grupo 14469" transform="translate(19.7 5.421)">
      <path id="Trazado_13743" data-name="Trazado 13743" d="M334.021,433.491c2.02,1.482,4.618-2.052,2.6-3.537s-4.619,2.052-2.6,3.537Z" transform="translate(-333.288 -429.598)" fill="#282f39"/>
    </g>
    <g id="Grupo_14470" data-name="Grupo 14470" transform="translate(0 8.82)">
      <path id="Trazado_13744" data-name="Trazado 13744" d="M314.213,436.316c1.722,1.263,3.937-1.749,2.213-3.015s-3.938,1.749-2.213,3.015Z" transform="translate(-313.589 -432.997)" fill="#282f39"/>
    </g>
    <g id="Grupo_14471" data-name="Grupo 14471" transform="translate(4.646 21.333)">
      <path id="Trazado_13745" data-name="Trazado 13745" d="M318.967,449.4c2.02,1.482,4.618-2.052,2.6-3.537s-4.618,2.052-2.6,3.537Z" transform="translate(-318.235 -445.51)" fill="#282f39"/>
    </g>
    <g id="Grupo_14472" data-name="Grupo 14472" transform="translate(17.69 17.002)">
      <path id="Trazado_13746" data-name="Trazado 13746" d="M331.951,444.752c1.854,1.361,4.24-1.884,2.382-3.247s-4.24,1.884-2.382,3.247Z" transform="translate(-331.278 -441.179)" fill="#282f39"/>
    </g>
    <g id="Grupo_14473" data-name="Grupo 14473" transform="translate(26.017 12.333)">
      <path id="Trazado_13747" data-name="Trazado 13747" d="M342.81,436.861a1.332,1.332,0,0,0-.51-.262,1.925,1.925,0,0,0-.976-.044,2.6,2.6,0,0,0-.483.164c-.077.047-.153.1-.228.148a1.581,1.581,0,0,0-.551.505c-.019.023-.036.045-.053.069a2.492,2.492,0,0,0-.381.921,1.776,1.776,0,0,0,.082.887,1.134,1.134,0,0,0,.364.541,1.118,1.118,0,0,0,.55.362,1.62,1.62,0,0,0,.87.046,3.956,3.956,0,0,0,.508-.183l-.438.154a2.877,2.877,0,0,0,.479-.17,4.809,4.809,0,0,0,.444-.289l-.4.265a.558.558,0,0,1,.078-.038l-.436.153a.261.261,0,0,1,.055-.013l-.444.037a.312.312,0,0,1,.081,0l-.427-.082.027.007a1.741,1.741,0,0,0,1.291-.1l.394-.258a1.582,1.582,0,0,0,.459-.576,1.008,1.008,0,0,0,.185-.442,1.4,1.4,0,0,0,.079-.679c-.032-.143-.065-.286-.1-.429a1.5,1.5,0,0,0-.517-.693Z" transform="translate(-339.606 -436.51)" fill="#282f39"/>
    </g>
    <g id="Grupo_14474" data-name="Grupo 14474" transform="translate(15.496 25.477)">
      <path id="Trazado_13748" data-name="Trazado 13748" d="M331.593,452.706a2.06,2.06,0,0,0,.776-1.363,1.411,1.411,0,0,0-2.074-1.522,2.065,2.065,0,0,0-1.067,1.15l-.119.42a1.254,1.254,0,0,0,.032.62.736.736,0,0,0,.14.376,1.038,1.038,0,0,0,.385.466,1.654,1.654,0,0,0,.758.266,1.762,1.762,0,0,0,1.169-.413Z" transform="translate(-329.085 -449.654)" fill="#282f39"/>
    </g>
  </g>
  <g id="Grupo_14476" data-name="Grupo 14476" transform="translate(8.597 1.837)">
    <path id="Trazado_13749" data-name="Trazado 13749" d="M310.372,416.769a2.755,2.755,0,0,0-2.108,1.006,2.59,2.59,0,0,0-.761,2.473c.268.619,1.094.393,1.26-.271a5.325,5.325,0,0,1,.361-1.57,2.693,2.693,0,0,1,1.3-1.1c.268-.115.215-.533-.05-.541Z" transform="translate(-307.395 -416.768)" fill="#fff"/>
  </g>
  <g id="Grupo_14477" data-name="Grupo 14477" transform="translate(2.573 6.284)">
    <path id="Trazado_13750" data-name="Trazado 13750" d="M302.142,421.324a2.018,2.018,0,0,0-.68,1.226,1.786,1.786,0,0,0,.124,1.448.808.808,0,0,0,1.375-.485c.047-.407-.135-.668-.139-1.031,0-.3.09-.591.074-.888-.021-.406-.457-.47-.754-.27Z" transform="translate(-301.372 -421.214)" fill="#fff"/>
  </g>
  <g id="Grupo_14478" data-name="Grupo 14478" transform="translate(16.8 8.522)">
    <path id="Trazado_13751" data-name="Trazado 13751" d="M316.068,429.289a20.947,20.947,0,0,1,7.6-4.418c.838-.29.743-1.656-.129-1.382a17.682,17.682,0,0,0-7.863,5.406.279.279,0,0,0,.395.394Z" transform="translate(-315.598 -423.453)" fill="#fff"/>
  </g>
  <g id="Grupo_14479" data-name="Grupo 14479" transform="translate(26.864 7.904)">
    <path id="Trazado_13752" data-name="Trazado 13752" d="M326.032,424.032a6.58,6.58,0,0,1,1.475.092,9.309,9.309,0,0,0,1.42.319c.61.018,1.081-.913.526-1.255a4.794,4.794,0,0,0-3.39-.086c-.489.12-.566.951-.031.93Z" transform="translate(-325.662 -422.835)" fill="#fff"/>
  </g>
  <g id="Grupo_14480" data-name="Grupo 14480" transform="translate(44.111 21.336)">
    <path id="Trazado_13753" data-name="Trazado 13753" d="M345.082,436.42c-.229,1.166-.241,2.328-.546,3.495a20.161,20.161,0,0,1-1.55,3.556c-.363.759.658,1.243,1.147.6,1.511-1.99,2.321-5.626,1.257-7.716a.164.164,0,0,0-.308.066Z" transform="translate(-342.91 -436.267)" fill="#fff"/>
  </g>
  <g id="Grupo_14481" data-name="Grupo 14481" transform="translate(54.928 34.531)">
    <path id="Trazado_13754" data-name="Trazado 13754" d="M355.571,450.017a4.8,4.8,0,0,1-1.611,3.254c-.5.531-.15,1.4.576,1.069a3.973,3.973,0,0,0,1.888-4.622c-.167-.507-.843-.183-.853.3Z" transform="translate(-353.726 -449.462)" fill="#fff"/>
  </g>
  <g id="Grupo_14482" data-name="Grupo 14482" transform="translate(52.606 44.076)">
    <path id="Trazado_13755" data-name="Trazado 13755" d="M351.542,460.234a2.263,2.263,0,0,0,2.739.109c.628-.433.213-1.53-.487-1.307-.335.106-.645.263-.985.34a2.637,2.637,0,0,1-.926.045c-.439-.065-.629.576-.341.813Z" transform="translate(-351.405 -459.006)" fill="#fff"/>
  </g>
</svg>
