<svg xmlns="http://www.w3.org/2000/svg" width="59.474" height="51.756" viewBox="0 0 59.474 51.756">
  <g id="Grupo_14438" data-name="Grupo 14438" transform="translate(-8.162 41.75) rotate(-39)">
    <g id="Grupo_14437" data-name="Grupo 14437" transform="translate(9.78)">
      <g id="Grupo_14427" data-name="Grupo 14427" transform="translate(0 0.892)">
        <path id="Trazado_13695" data-name="Trazado 13695" d="M484.6,440.553a.479.479,0,0,0-.082-.461,14.13,14.13,0,0,0-10.011-5.888c-1.649-.156-3.552.144-4.43,1.725a4.9,4.9,0,0,0,.163,4.281,4.206,4.206,0,0,0,.344,8.327,4.1,4.1,0,0,0-.2,3.714,4.292,4.292,0,0,0,3.609,1.789,12.673,12.673,0,0,0,9.455-3.493c.662-.631,1.554-1.368,1.572-2.324.016-.87-.1-1.766-.145-2.635Z" transform="translate(-466.78 -434.167)" fill="#282f39"/>
        <path id="Trazado_13696" data-name="Trazado 13696" d="M522.927,441.8a4.941,4.941,0,0,0,.447-4.191c-.755-1.683-2.658-2.119-4.346-2.061a14.133,14.133,0,0,0-10.347,5.275.48.48,0,0,0-.109.455q-.282,2.444-.565,4.888c-.1.889-.27,1.8-.311,2.692-.045.991.772,1.764,1.424,2.466a12.724,12.724,0,0,0,9.033,4.052,4.475,4.475,0,0,0,3.8-1.426,4,4,0,0,0,.13-3.859,4.206,4.206,0,0,0,.846-8.291Z" transform="translate(-466.78 -434.167)" fill="#282f39"/>
      </g>
      <path id="Trazado_13697" data-name="Trazado 13697" d="M510.472,439.468c-3.136-4.826-9.9-6.389-15.3-6.173-5.2.208-11.3,2.731-13.511,7.785-2.751,6.292,3.123,11.838,8.478,13.971,5.6,2.049,12.251,1.643,17.172-1.889C511.663,450.039,513.562,444.226,510.472,439.468Z" transform="translate(-466.78 -433.276)" fill="#ff6a12"/>
      <g id="Grupo_14428" data-name="Grupo 14428" transform="translate(15.555 0.044)">
        <path id="Trazado_13698" data-name="Trazado 13698" d="M493.328,433.464a19.373,19.373,0,0,0-3.53.838,46.219,46.219,0,0,0-3.395,5.334,51.976,51.976,0,0,0-4.068,9.2,12.294,12.294,0,0,0,1.173,1.591c1.434-3.21,2.715-6.486,4.463-9.563A42.756,42.756,0,0,1,493.328,433.464Z" transform="translate(-482.335 -433.32)" fill="#282f39"/>
        <path id="Trazado_13699" data-name="Trazado 13699" d="M500.089,433.593a24.57,24.57,0,0,0-2.475-.273,81.262,81.262,0,0,0-5.682,8.857,68.813,68.813,0,0,0-4.912,11.256c.368.237.742.462,1.119.67a99.711,99.711,0,0,1,5.456-10.885A81.194,81.194,0,0,1,500.089,433.593Z" transform="translate(-482.335 -433.32)" fill="#282f39"/>
        <path id="Trazado_13700" data-name="Trazado 13700" d="M506.5,435.783a16,16,0,0,0-2.186-1.052,73.273,73.273,0,0,0-6.738,10.045,68.635,68.635,0,0,0-5.031,10.986c.556.129,1.119.234,1.684.316a93.583,93.583,0,0,1,5.145-10.177A86.444,86.444,0,0,1,506.5,435.783Z" transform="translate(-482.335 -433.32)" fill="#282f39"/>
        <path id="Trazado_13701" data-name="Trazado 13701" d="M510.472,439.468c-.075-.114-.153-.225-.231-.335a100.88,100.88,0,0,0-10.293,16.947c.592-.088,1.181-.2,1.761-.349A128.344,128.344,0,0,1,511.3,441.04,9.625,9.625,0,0,0,510.472,439.468Z" transform="translate(-482.335 -433.32)" fill="#282f39"/>
      </g>
      <g id="Grupo_14436" data-name="Grupo 14436" transform="translate(1.72 2.078)">
        <g id="Grupo_14429" data-name="Grupo 14429" transform="translate(0 7.465)">
          <path id="Trazado_13702" data-name="Trazado 13702" d="M468.511,443.46a4.457,4.457,0,0,0,.633,2.749.891.891,0,1,0,1.432-1.038,2.291,2.291,0,0,1-.695-1.669.686.686,0,0,0-1.37-.042Z" transform="translate(-468.5 -442.82)" fill="#fff"/>
        </g>
        <g id="Grupo_14430" data-name="Grupo 14430" transform="translate(3.186 0.593)">
          <path id="Trazado_13703" data-name="Trazado 13703" d="M472.824,437.844c.081-.051.162-.1.244-.15l-.188.072c.06-.007.121-.012.181-.022a1.306,1.306,0,0,0,.344-.131.891.891,0,1,0-1.038-1.432,1.568,1.568,0,0,0-.329.418l.287-.27-.239.161a.833.833,0,0,0-.367.45.771.771,0,0,0,1.105.9Z" transform="translate(-471.686 -435.947)" fill="#fff"/>
        </g>
        <g id="Grupo_14431" data-name="Grupo 14431" transform="translate(50.392 3.362)">
          <path id="Trazado_13704" data-name="Trazado 13704" d="M519.257,439.292a3.4,3.4,0,0,1-.318,1.343.783.783,0,1,0,1.5.461,3.226,3.226,0,0,0,.03-1.93.616.616,0,0,0-1.208.126Z" transform="translate(-518.892 -438.716)" fill="#fff"/>
        </g>
        <g id="Grupo_14432" data-name="Grupo 14432" transform="translate(54.01 9.792)">
          <path id="Trazado_13705" data-name="Trazado 13705" d="M523.107,445.458c-.155.322-.309.641-.481.954a.824.824,0,1,0,1.488.681c.06-.361.139-.717.218-1.074a.688.688,0,0,0-.369-.813.671.671,0,0,0-.856.252Z" transform="translate(-522.51 -445.146)" fill="#fff"/>
        </g>
        <g id="Grupo_14433" data-name="Grupo 14433" transform="translate(16.738 0.233)">
          <path id="Trazado_13706" data-name="Trazado 13706" d="M486.189,439.539a25.3,25.3,0,0,1,8.272-2.169c1-.123.829-1.837-.187-1.782a19.967,19.967,0,0,0-8.706,2.81.65.65,0,0,0,.621,1.141Z" transform="translate(-485.238 -435.587)" fill="#fff"/>
        </g>
        <g id="Grupo_14434" data-name="Grupo 14434" transform="translate(28.152)">
          <path id="Trazado_13707" data-name="Trazado 13707" d="M497.144,437.071a5.08,5.08,0,0,1,1.029.309l-.435-.272.042.051a1.083,1.083,0,0,0,1.855-.7,1.119,1.119,0,0,0-.5-.943,1.089,1.089,0,0,0-1.306.129l-.045.048.45-.245a5.12,5.12,0,0,1-1.046.247.721.721,0,0,0-.041,1.38Z" transform="translate(-496.652 -435.354)" fill="#fff"/>
        </g>
        <g id="Grupo_14435" data-name="Grupo 14435" transform="translate(31.53 14.325)">
          <path id="Trazado_13708" data-name="Trazado 13708" d="M500.333,454c2.541.486,5.544-.864,7.518-2.376.984-.753-.259-2.5-1.285-1.773a23.5,23.5,0,0,1-3.064,1.939c-1.057.525-2.219.837-3.25,1.4-.308.168-.308.738.081.813Z" transform="translate(-500.03 -449.679)" fill="#fff"/>
        </g>
      </g>
    </g>
  </g>
</svg>
