<svg id="Grupo_14654" data-name="Grupo 14654" xmlns="http://www.w3.org/2000/svg" xmlns:xlink="http://www.w3.org/1999/xlink" width="77.65" height="78.393" viewBox="0 0 77.65 78.393">
  <defs>
    <clipPath id="clip-path">
      <circle id="Elipse_235" data-name="Elipse 235" cx="20.914" cy="20.914" r="20.914" transform="translate(0 14.444) rotate(-20.201)" fill="none" opacity="0.62" style="mix-blend-mode: multiply;isolation: isolate"/>
    </clipPath>
  </defs>
  <g id="Grupo_14653" data-name="Grupo 14653" transform="translate(0 0)">
    <g id="Grupo_14637" data-name="Grupo 14637" transform="translate(47.484)">
      <path id="Trazado_14857" data-name="Trazado 14857" d="M95.875,29.633c0-5.068.092-10.26,1.888-15.038.876-2.329,2.326-4.677,4.648-5.582a5.489,5.489,0,0,1,5.688,1.11,5.46,5.46,0,0,1,1.29,5.639,8.628,8.628,0,0,1,11.878,1,8.692,8.692,0,0,1-1.591,11.849,7.9,7.9,0,0,1,6.061,5.08,6.6,6.6,0,0,1-2.5,7.4c-2.578,1.653-5.9,1.054-8.851.4l-6.035-1.348a5.032,5.032,0,0,1-1.464-.489c-.836-.488-10.06-2.879-10.06-2.879l-.948-7.136" transform="translate(-95.875 -8.655)" fill="#ff976f"/>
      <path id="Trazado_14858" data-name="Trazado 14858" d="M107.522,23.606c-1.069,3.972-3.63,7.4.845,9.025a8.886,8.886,0,0,0,6.544-2.322c-2.267,3.789-1.659,7.807.331,11.349,2.736.573,5.7.933,8.043-.571a6.6,6.6,0,0,0,2.5-7.4,7.9,7.9,0,0,0-6.061-5.08,8.692,8.692,0,0,0,1.591-11.849,8.628,8.628,0,0,0-11.878-1,5.46,5.46,0,0,0-1.29-5.639,5.489,5.489,0,0,0-5.688-1.11c-2.322.9-3.772,3.253-4.648,5.582A33.114,33.114,0,0,0,96,25.009C99.52,27.608,104.457,28.005,107.522,23.606Z" transform="translate(-95.928 -8.655)" fill="#ff976f"/>
      <path id="Trazado_14859" data-name="Trazado 14859" d="M126.53,16.768a8.628,8.628,0,0,0-11.878-1,5.461,5.461,0,0,0-1.29-5.639,5.473,5.473,0,0,0-4.68-1.377c4.143,1.695,2.59,7.766,3.94,11.546,3.088-1.692,5.831-4.006,8.646-4.74,3.16-.113,4.884,2.991,4.684,5.532.072,1.581-.818,2.879-.746,4.459a5.124,5.124,0,0,1-3.016,3.274c7.322,2.991,6.876,8.108,4.069,13.16A6.519,6.519,0,0,0,128.5,41.1a6.6,6.6,0,0,0,2.5-7.4,7.9,7.9,0,0,0-6.061-5.08A8.692,8.692,0,0,0,126.53,16.768Z" transform="translate(-101.137 -8.663)" fill="#ffbaa0"/>
      <path id="Trazado_14860" data-name="Trazado 14860" d="M106.883,50.077a5.03,5.03,0,0,0,1.464.489l6.034,1.348c.266.059.536.117.808.174-5.086-2.749-5.594-5.268-.331-11.349-2.035,1.945-4.671,3.462-6.672,3.407-4.117-.715-3.6-3.556-.717-10.111-6.161,8.511-8.05,8.058-11.518,1.4-.062,1.543-.077,3.089-.076,4.624l.948,7.136S106.047,49.589,106.883,50.077Z" transform="translate(-95.875 -19.084)" fill="#ff7542"/>
    </g>
    <g id="Grupo_14638" data-name="Grupo 14638" transform="translate(0 45.692)">
      <path id="Trazado_14861" data-name="Trazado 14861" d="M44.43,99.2c.218,4.849.348,9.814-1.169,14.308-.74,2.192-2.029,4.377-4.215,5.145a5.524,5.524,0,0,1-6.972-6.755c-3.142,2.639-8.647,1.935-11.421-1.461s-2.283-8.829,1.02-11.27a8.534,8.534,0,0,1-6.022-5.119,5.893,5.893,0,0,1,2.084-6.974c2.4-1.472,5.609-.758,8.462,0l5.838,1.546a5.228,5.228,0,0,1,1.423.53c.822.5,9.76,3.183,9.76,3.183L44.43,99.2" transform="translate(-15.269 -86.218)" fill="#ff976f"/>
      <path id="Trazado_14862" data-name="Trazado 14862" d="M33.579,104.475c.855-3.755,3.163-6.929-1.193-8.672a7.9,7.9,0,0,0-6.171,1.943c2.011-3.529,1.257-7.4-.8-10.874-2.646-.664-5.5-1.135-7.681.2A5.893,5.893,0,0,0,15.65,94.05a8.531,8.531,0,0,0,6.022,5.118c-3.3,2.442-3.795,7.874-1.02,11.271s8.28,4.1,11.421,1.461a5.524,5.524,0,0,0,6.972,6.755c2.186-.768,3.475-2.953,4.215-5.145a30.409,30.409,0,0,0,1.294-9.887C41.075,100.986,36.329,100.4,33.579,104.475Z" transform="translate(-15.269 -86.219)" fill="#ff976f"/>
      <path id="Trazado_14863" data-name="Trazado 14863" d="M20.652,110.51c2.775,3.4,8.28,4.1,11.421,1.461a5.518,5.518,0,0,0,1.476,5.45,5.628,5.628,0,0,0,4.542,1.517c-4.041-1.8-2.812-7.542-4.266-11.216-2.886,1.489-5.415,3.586-8.081,4.168-3.023-.027-4.806-3.071-4.723-5.493-.137-1.516.661-2.72.525-4.235a4.328,4.328,0,0,1,2.749-3c-7.142-3.174-6.932-8.052-4.459-12.766a5.715,5.715,0,0,0-2.1.754,5.893,5.893,0,0,0-2.084,6.974,8.533,8.533,0,0,0,6.022,5.119C18.369,101.682,17.878,107.114,20.652,110.51Z" transform="translate(-15.269 -86.29)" fill="#ffbaa0"/>
      <path id="Trazado_14864" data-name="Trazado 14864" d="M40.536,89.6a5.238,5.238,0,0,0-1.424-.53l-5.838-1.546c-.257-.068-.519-.135-.781-.2,5.217,3,4.577,6,.8,10.874a7.9,7.9,0,0,1,6.171-1.943c4.356,1.743,2.048,4.917,1.193,8.672,2.75-4.079,7.5-3.489,10.975-.851-.006-1.474-.058-2.953-.124-4.422L50.3,92.788S41.357,90.107,40.536,89.6Z" transform="translate(-22.347 -86.674)" fill="#ff7542"/>
    </g>
    <g id="Grupo_14651" data-name="Grupo 14651" transform="translate(7.105 11.379)">
      <circle id="Elipse_233" data-name="Elipse 233" cx="22.848" cy="22.848" r="22.848" transform="translate(0 13.221) rotate(-16.818)" fill="#ff8456"/>
      <circle id="Elipse_234" data-name="Elipse 234" cx="20.914" cy="20.914" r="20.914" transform="translate(7.567 7.567)" fill="#ffa684"/>
      <g id="Grupo_14646" data-name="Grupo 14646" transform="translate(1.632 1.632)" opacity="0.64" style="mix-blend-mode: multiply;isolation: isolate">
        <g id="Grupo_14645" data-name="Grupo 14645" transform="translate(0)" clip-path="url(#clip-path)">
          <g id="Grupo_14639" data-name="Grupo 14639" transform="translate(6.763 14.69)">
            <path id="Trazado_14865" data-name="Trazado 14865" d="M41.792,57.693c4.16,6.714,10.72,12.71,18.408,14.989A30.693,30.693,0,0,0,82.942,70.2c1.565-.816.191-3.184-1.366-2.371a27.893,27.893,0,0,1-20.7,2.2c-6.972-2.068-12.95-7.627-16.715-13.7-.927-1.5-3.3-.132-2.371,1.366Z" transform="translate(-41.581 -55.679)" fill="#ff615d"/>
          </g>
          <g id="Grupo_14640" data-name="Grupo 14640" transform="translate(8.753 7.895)">
            <path id="Trazado_14866" data-name="Trazado 14866" d="M45.171,46.158c4.16,6.714,10.72,12.709,18.408,14.989a30.693,30.693,0,0,0,22.742-2.481c1.564-.817.191-3.184-1.366-2.371a27.89,27.89,0,0,1-20.7,2.2c-6.972-2.067-12.95-7.627-16.715-13.7-.927-1.5-3.3-.133-2.371,1.366Z" transform="translate(-44.96 -44.144)" fill="#ff615d"/>
          </g>
          <g id="Grupo_14641" data-name="Grupo 14641" transform="translate(9.836 2.097)">
            <path id="Trazado_14867" data-name="Trazado 14867" d="M47.009,36.315c4.16,6.714,10.72,12.71,18.409,14.989A30.691,30.691,0,0,0,88.16,48.823c1.565-.816.191-3.184-1.366-2.371a27.893,27.893,0,0,1-20.7,2.2c-6.971-2.068-12.95-7.627-16.715-13.7-.927-1.5-3.3-.132-2.371,1.366Z" transform="translate(-46.798 -34.301)" fill="#ff615d"/>
          </g>
          <g id="Grupo_14642" data-name="Grupo 14642" transform="translate(12.291 -4.193)">
            <path id="Trazado_14868" data-name="Trazado 14868" d="M51.177,25.637c4.16,6.714,10.72,12.71,18.409,14.989a30.689,30.689,0,0,0,22.741-2.481c1.565-.816.191-3.184-1.366-2.37a27.893,27.893,0,0,1-20.7,2.2c-6.971-2.067-12.95-7.627-16.715-13.7-.927-1.5-3.3-.132-2.371,1.366Z" transform="translate(-50.966 -23.623)" fill="#ff615d"/>
          </g>
          <g id="Grupo_14643" data-name="Grupo 14643" transform="translate(4.41 20.303)">
            <path id="Trazado_14869" data-name="Trazado 14869" d="M37.8,67.288c4.234,6.842,10.863,12.92,18.646,15.373A31.611,31.611,0,0,0,80.3,80.205c1.616-.844.2-3.288-1.411-2.448a28.666,28.666,0,0,1-21.74,2.166c-7.04-2.255-13.064-7.851-16.9-14.046-.957-1.545-3.407-.137-2.449,1.411Z" transform="translate(-37.587 -65.208)" fill="#ff615d"/>
          </g>
          <g id="Grupo_14644" data-name="Grupo 14644" transform="translate(2.388 26.735)">
            <path id="Trazado_14870" data-name="Trazado 14870" d="M34.373,78.207c4.234,6.842,10.863,12.92,18.646,15.372a31.608,31.608,0,0,0,23.85-2.455c1.616-.843.2-3.288-1.411-2.448a28.666,28.666,0,0,1-21.74,2.166c-7.04-2.254-13.064-7.851-16.9-14.046-.956-1.546-3.406-.137-2.448,1.411Z" transform="translate(-34.155 -76.126)" fill="#ff615d"/>
          </g>
        </g>
      </g>
      <g id="Grupo_14650" data-name="Grupo 14650" transform="translate(15.971 10.31)">
        <g id="Grupo_14647" data-name="Grupo 14647" opacity="0.94" style="mix-blend-mode: hard-light;isolation: isolate">
          <path id="Trazado_14871" data-name="Trazado 14871" d="M55.522,50.042a37.358,37.358,0,0,1,5.759-1.664c2.005-.28,4,.257,5.977-.015,1.026-.141,1.062-1.6.3-2.076-1.879-1.159-4.634-.844-6.713-.491a11.529,11.529,0,0,0-6.154,2.775.883.883,0,0,0,.834,1.472Z" transform="translate(-54.441 -45.472)" fill="#ffc7b2"/>
        </g>
        <g id="Grupo_14648" data-name="Grupo 14648" transform="translate(15.495 1.225)" opacity="0.94" style="mix-blend-mode: hard-light;isolation: isolate">
          <path id="Trazado_14872" data-name="Trazado 14872" d="M80.987,49.077a2.454,2.454,0,0,0,1.164.515,4.347,4.347,0,0,0,1.231.137,1.011,1.011,0,0,0,.3-1.981,4.3,4.3,0,0,0-1.223-.189,2.518,2.518,0,0,0-1.288.2.845.845,0,0,0-.18,1.32Z" transform="translate(-80.745 -47.551)" fill="#ffc7b2"/>
        </g>
        <g id="Grupo_14649" data-name="Grupo 14649" transform="translate(20.98 3.139)" opacity="0.94" style="mix-blend-mode: hard-light;isolation: isolate">
          <path id="Trazado_14873" data-name="Trazado 14873" d="M90.356,51.639a1.4,1.4,0,0,1,.6.21,2.415,2.415,0,0,1,.239.27,2.218,2.218,0,0,0,.363.267.659.659,0,0,0,.854-.166.674.674,0,0,0-.047-.869,1.435,1.435,0,0,0-.991-.478,3.022,3.022,0,0,0-.9-.058.429.429,0,0,0-.419.358.416.416,0,0,0,.3.466Z" transform="translate(-90.056 -50.801)" fill="#ffc7b2"/>
        </g>
      </g>
      <path id="Trazado_14874" data-name="Trazado 14874" d="M78.38,45.175a20.918,20.918,0,0,0-27.224,1.43l.016.046A4.956,4.956,0,0,0,57,49.785c9.134-2.239,19.74.335,28.527,5.59A20.811,20.811,0,0,0,78.38,45.175Z" transform="translate(-37.121 -33.249)" fill="#ffc7b2" opacity="0.91" style="mix-blend-mode: hard-light;isolation: isolate"/>
    </g>
    <g id="Grupo_14652" data-name="Grupo 14652" transform="translate(17.041 28.963)" opacity="0.91" style="mix-blend-mode: hard-light;isolation: isolate">
      <path id="Trazado_14875" data-name="Trazado 14875" d="M45.2,58.541l-.68,1.882a2.209,2.209,0,0,0,0,2.26,1.2,1.2,0,0,0,1.6.437,1.947,1.947,0,0,0,.843-.881,3.778,3.778,0,0,0,.173-1.314l.114-2.077c.068-1.239-1.668-1.378-2.055-.307Z" transform="translate(-44.197 -57.82)" fill="#ffc7b2"/>
    </g>
  </g>
</svg>
