<svg id="Grupo_14491" data-name="Grupo 14491" xmlns="http://www.w3.org/2000/svg" width="34.106" height="54.147" viewBox="0 0 34.106 54.147">
  <g id="Grupo_14484" data-name="Grupo 14484" transform="translate(0 21.029)">
    <path id="Trazado_13756" data-name="Trazado 13756" d="M44.271,458.291c-6.106,10.521-11.684,21.33-18.081,31.688a.933.933,0,0,1-1.626-.915c5.822-10.7,12.441-20.9,18.549-31.425a.665.665,0,0,1,1.158.652Z" transform="translate(-24.439 -457.314)" fill="#fff7c7"/>
  </g>
  <path id="Trazado_13757" data-name="Trazado 13757" d="M51.3,437.456a2.8,2.8,0,0,1,1.971-1.171c1.8.477,4.8,1.954,5.209,3.767a4.855,4.855,0,0,1-.506,2.846,80.814,80.814,0,0,1-4.442,8.706,107.068,107.068,0,0,1-7.027,11.367,11.522,11.522,0,0,1-4.162,3.87,4.085,4.085,0,0,1-6.212-4.216,12.09,12.09,0,0,1,1.077-3.483A77.765,77.765,0,0,1,51.3,437.456Z" transform="translate(-24.439 -436.284)" fill="#ff893d"/>
  <g id="Grupo_14485" data-name="Grupo 14485" transform="translate(11.674 4.302)">
    <path id="Trazado_13758" data-name="Trazado 13758" d="M52.342,444.139a19.689,19.689,0,0,0-6.813.393q1.455-2.013,3.035-3.929a19.286,19.286,0,0,1,5.318.566,8.972,8.972,0,0,1,3.956,2.047q-.536,1.264-1.143,2.5A8.566,8.566,0,0,0,52.342,444.139Z" transform="translate(-36.113 -440.587)" fill="#ffec69"/>
    <path id="Trazado_13759" data-name="Trazado 13759" d="M43.9,446.877c3.856-.479,8.079-.1,11.247,1.82q-.561,1.031-1.136,2.054c-3.793-1.371-8.336-1.038-12.293-.421Q42.762,448.575,43.9,446.877Z" transform="translate(-36.113 -440.587)" fill="#ffec69"/>
    <path id="Trazado_13760" data-name="Trazado 13760" d="M36.113,462.9c.005-.091.009-.182.018-.273a12.09,12.09,0,0,1,1.077-3.483c.046-.106.094-.211.141-.317a21.106,21.106,0,0,1,2.5-.456,17.085,17.085,0,0,1,8.857,1.413q-.786,1.21-1.622,2.388a15.245,15.245,0,0,0-6.783-.548A14.533,14.533,0,0,0,36.113,462.9Z" transform="translate(-36.113 -440.587)" fill="#ffec69"/>
    <path id="Trazado_13761" data-name="Trazado 13761" d="M38.588,456.2l-.033.007q.938-1.939,1.986-3.822a25.814,25.814,0,0,1,4.435-.215,22.227,22.227,0,0,1,7.437,1.419q-.658,1.164-1.332,2.32a24.667,24.667,0,0,0-6.233-.457A42.908,42.908,0,0,0,38.588,456.2Z" transform="translate(-36.113 -440.587)" fill="#ffec69"/>
  </g>
  <g id="Grupo_14490" data-name="Grupo 14490" transform="translate(19.88 2.063)">
    <g id="Grupo_14486" data-name="Grupo 14486" transform="translate(2.497 13.562)">
      <path id="Trazado_13762" data-name="Trazado 13762" d="M52.123,452.53a22.8,22.8,0,0,1-4.038,6.663c-.555.578-1.623-.177-1.152-.871,1.432-2.113,3.115-4.022,4.458-6.2a.42.42,0,0,1,.732.412Z" transform="translate(-46.816 -451.909)" fill="#fff"/>
    </g>
    <g id="Grupo_14487" data-name="Grupo 14487" transform="translate(0 21.279)">
      <path id="Trazado_13763" data-name="Trazado 13763" d="M46.436,460.459a7.446,7.446,0,0,1-.555.635c-.08.087-.156.178-.244.258a1,1,0,0,1-.645.249.665.665,0,0,1-.479-1.123,1.241,1.241,0,0,1,.414-.268,2.578,2.578,0,0,0,.277-.064.941.941,0,0,0,.256-.236.577.577,0,0,1,.762-.213.562.562,0,0,1,.214.762Z" transform="translate(-44.319 -459.626)" fill="#fff"/>
    </g>
    <g id="Grupo_14488" data-name="Grupo 14488" transform="translate(3.857 1.612)">
      <path id="Trazado_13764" data-name="Trazado 13764" d="M50.22,440.146c.1.249-.109.533-.218.753a4.848,4.848,0,0,0-.431.842.71.71,0,1,1-1.05-.786c.235-.163,1.442-1.474,1.7-.809Z" transform="translate(-48.176 -439.959)" fill="#fff"/>
    </g>
    <g id="Grupo_14489" data-name="Grupo 14489" transform="translate(5.993)">
      <path id="Trazado_13765" data-name="Trazado 13765" d="M50.659,439.661a.7.7,0,0,1,.686-1.219.7.7,0,0,1-.686,1.219Z" transform="translate(-50.312 -438.347)" fill="#fff"/>
    </g>
  </g>
</svg>
