<svg xmlns="http://www.w3.org/2000/svg" width="16.452" height="16.452" viewBox="0 0 16.452 16.452">
  <path id="Trazado_14908" data-name="Trazado 14908" d="M204.228,464.189l3.386,3.386L211,464.189a2.834,2.834,0,0,1,4.01,0h0a2.835,2.835,0,0,1,0,4.009l-3.386,3.386,3.386,3.386a2.836,2.836,0,0,1,0,4.01h0a2.836,2.836,0,0,1-4.01,0l-3.386-3.387-3.386,3.387a2.835,2.835,0,0,1-4.009,0h0a2.834,2.834,0,0,1,0-4.01l3.386-3.386-3.386-3.386a2.833,2.833,0,0,1,0-4.009h0A2.833,2.833,0,0,1,204.228,464.189Z" transform="translate(-199.388 -463.358)" fill="#fff"/>
</svg>
