<svg xmlns="http://www.w3.org/2000/svg" width="37.998" height="77.077" viewBox="0 0 37.998 77.077">
  <g id="Grupo_1069" data-name="Grupo 1069" transform="matrix(0.242, -0.97, 0.97, 0.242, -2.849, 71.375)">
    <path id="Trazado_13012" data-name="Trazado 13012" d="M5.525,4.66A14.254,14.254,0,0,1,0,.287C2.9-1.041,3.72,2.553,5.525,4.66Z" transform="translate(19.652 15.344)" fill="#ef44a4"/>
    <g id="Grupo_1061" data-name="Grupo 1061" transform="translate(52.944 2.959)">
      <path id="Trazado_13013" data-name="Trazado 13013" d="M0,0" transform="translate(5.126 16.463)" fill="#ef44a4"/>
      <g id="Grupo_1060" data-name="Grupo 1060" transform="translate(0 0)">
        <path id="Trazado_13014" data-name="Trazado 13014" d="M0,12.477s.225.235.625.623c.028.028.059.057.09.088,2.344,2.27,9.868,9.09,13.674,7.049,4.545-2.437-1.029-3.624.487-5.761s6.464-2.664,5.367-5.3-5.02-3.115-3.114-4.828-.745-5.2-5.378-4.164A37.072,37.072,0,0,0,3.136,3.673c-.131.071-.258.141-.38.21-.7.394-1.3.766-1.747,1.078-.049.033-.094.067-.139.1-.453.329-.716.586-.727.729C.117,6.155.082,7.776.051,9.33c-.014.818-.026,1.618-.036,2.207v0C.006,12.106,0,12.477,0,12.477Z" transform="translate(0.954 0)" fill="#e02607"/>
        <path id="Trazado_13015" data-name="Trazado 13015" d="M11.611,9.179c-1.1-2.63-5.02-3.115-3.115-4.83C10.3,2.726,8.017-.487,3.827.062,8.059,2.12,2.9,2.387,2.5,3.6S7.1,4.4,6.375,4.825c-2.45,1.429-1.429.816,0,3.47s1.225,2.45-.408,4.9-4.288.613-5.717.817c-1.457.208,3.879.408,5.1,3.062.87,1.884-.731,2.842-2.1,3.458a3.832,3.832,0,0,0,2.5-.3c4.544-2.438-1.03-3.624.486-5.762S12.708,11.811,11.611,9.179Z" transform="translate(9.586 0.001)" fill="#d8d8d8" style="mix-blend-mode: multiply;isolation: isolate"/>
        <path id="Trazado_13016" data-name="Trazado 13016" d="M.1,9.5c.329-.047.619-.078.88-.09a3.513,3.513,0,0,1,.6.021c.961.118,1.5.639,2.908.853a.089.089,0,0,0,.05-.169,1.951,1.951,0,0,1-1.356-1.5C2.638,6.864,5.355,6.686,7.235,6.578s.872-.272-1.045-1.2C4.645,4.62,6.854,2.811,7.8,2.125a.154.154,0,0,0-.082-.28A11.12,11.12,0,0,1,6.58,1.715,3.274,3.274,0,0,1,4.535.6C4.518.58,4.267.231,4.09,0c-.131.071-.258.141-.38.21-.7.394-1.3.766-1.747,1.078-.049.033-.094.067-.139.1A35.323,35.323,0,0,0,1,5.657,14.805,14.805,0,0,1,.558,7.664v0C.313,8.423.118,9.031,0,9.387A.086.086,0,0,0,.1,9.5Z" transform="translate(0 3.673)" fill="#d8d8d8" style="mix-blend-mode: multiply;isolation: isolate"/>
      </g>
    </g>
    <g id="Grupo_1063" data-name="Grupo 1063" transform="translate(0 2.936)">
      <path id="Trazado_13017" data-name="Trazado 13017" d="M0,0" transform="translate(15.836 16.967)" fill="#ef44a4"/>
      <g id="Grupo_1062" data-name="Grupo 1062" transform="translate(0 0)">
        <path id="Trazado_13018" data-name="Trazado 13018" d="M20.225,13.223s-.237.221-.659.586c-.03.027-.063.054-.094.083C17,16.027,9.106,22.412,5.422,20.159c-4.4-2.69,1.232-3.56-.162-5.779S-1.043,11.355.2,8.79,5.388,5.963,3.581,4.145,4.618-1,9.186.291a37.072,37.072,0,0,1,8.4,3.965c.126.079.249.155.367.231.679.433,1.256.838,1.684,1.175.047.035.09.072.132.105.434.354.682.626.685.769,0,.368-.052,1.989-.109,3.541-.032.819-.064,1.618-.087,2.206v0C20.24,12.852,20.225,13.223,20.225,13.223Z" transform="translate(0.001 0)" fill="#e02607"/>
        <path id="Trazado_13019" data-name="Trazado 13019" d="M.2,8.789C1.445,6.226,5.388,5.962,3.583,4.142c-1.713-1.722.751-4.8,4.9-4.017C4.145,1.941,9.281,2.5,9.615,3.733s-4.643.539-3.941,1c2.366,1.565,1.38.9-.2,3.465s-1.36,2.377.132,4.915,4.246.853,5.661,1.138c1.443.29-3.9.189-5.269,2.769-.974,1.833.569,2.879,1.9,3.571a3.834,3.834,0,0,1-2.478-.437c-4.4-2.69,1.234-3.56-.16-5.779S-1.043,11.354.2,8.789Z" transform="translate(0 0.001)" fill="#d8d8d8" style="mix-blend-mode: multiply;isolation: isolate"/>
        <path id="Trazado_13020" data-name="Trazado 13020" d="M7.6,7.618c-.325-.066-.63.917-.89.89-.218-.023,1.3.433,1.112.445-.966.064-2.886,1.155-4.3,1.29a.089.089,0,0,1-.039-.172A1.95,1.95,0,0,0,4.922,8.644C5.562,6.935,2.859,6.6.989,6.39S.133,6.069,2.1,5.246c1.585-.665-.518-2.6-1.423-3.334a.154.154,0,0,1,.1-.275,11.247,11.247,0,0,0,1.143-.066,3.278,3.278,0,0,0,2.105-1C4.039.555,4.31.221,4.5,0c.126.079.249.155.367.231.679.433,1.256.838,1.684,1.175.047.035.09.072.132.105a35.109,35.109,0,0,1,.576,4.31,14.743,14.743,0,0,0,.334,2.029h0c.2.77.361,1.389.455,1.75C8.067,9.664,7.666,7.631,7.6,7.618Z" transform="translate(13.091 4.256)" fill="#d8d8d8" style="mix-blend-mode: multiply;isolation: isolate"/>
      </g>
    </g>
    <path id="Trazado_13021" data-name="Trazado 13021" d="M0,.01v.2S.011.139.03,0Z" transform="translate(55.537 16.141)" fill="#e23411"/>
    <path id="Trazado_13022" data-name="Trazado 13022" d="M0,11.171C0,13.9,1.633,16.4,4.347,18.335c3.426,2.45,8.573,4.008,14.33,4.008,10.317,0,18.678-5,18.678-11.172A8.065,8.065,0,0,0,34.8,5.535C31.563,2.223,25.554,0,18.676,0,8.361,0,0,5,0,11.171Z" transform="translate(18.172 0.031)" fill="#e02607"/>
    <path id="Trazado_13023" data-name="Trazado 13023" d="M18.677,0A25.515,25.515,0,0,1,32.514,3.682c.642,2.409,1.959,4.908.071,6.773-2.666,2.852-4.621-1.521-6.576-3.612-.711-.95-2.311-1.141-2.843-.19-2.666,4.563,1.6,8.175,4.265,11.977a4.771,4.771,0,0,1,.784,2.231,27.348,27.348,0,0,1-6.589,1.432c-2.091-2.108-3.513-5.8-4.681-8.415C14.99,9.505,14.1,1.14,8.059,2.091c-2.843.57-3.377,4.562-2.133,7.033,1.422,3.042,5.332,5.323,4.266,9.315a2.779,2.779,0,0,1-1.764,2.154q-.736-.291-1.422-.621C5.2,17.866,4.38,14.272,1.48,15.6A7.537,7.537,0,0,1,0,11.216C0,5.021,8.361,0,18.677,0Z" transform="translate(18.172 0.031)" fill="#ffa394"/>
    <path id="Trazado_13024" data-name="Trazado 13024" d="M0,12.851c3.426,2.461,8.573,4.025,14.33,4.025,10.317,0,18.678-5.023,18.678-11.216A8.111,8.111,0,0,0,30.457,0C33.534,7.666,21.227,17.843,0,12.851Z" transform="translate(22.435 5.587)" fill="#ccc" opacity="0.3" style="mix-blend-mode: multiply;isolation: isolate"/>
    <g id="Grupo_1067" data-name="Grupo 1067" transform="translate(18.205 5.895)" style="mix-blend-mode: multiply;isolation: isolate">
      <g id="Grupo_1066" data-name="Grupo 1066" transform="translate(0 0)">
        <g id="Grupo_1064" data-name="Grupo 1064" transform="translate(4.146 2.883)" opacity="0.8">
          <path id="Trazado_13025" data-name="Trazado 13025" d="M32.719,0a7.007,7.007,0,0,1,.455,2.469c0,6.195-8.361,11.216-18.677,11.216C8.646,13.685,3.424,12.069,0,9.54,13.779,16.89,32.374,12.22,32.719,0Z" fill="#dbdbdb"/>
        </g>
        <g id="Grupo_1065" data-name="Grupo 1065">
          <path id="Trazado_13026" data-name="Trazado 13026" d="M0,4.685A8.189,8.189,0,0,1,2.225,0,9.644,9.644,0,0,0,0,4.685Z" fill="#dbdbdb"/>
        </g>
      </g>
    </g>
    <path id="Trazado_13027" data-name="Trazado 13027" d="M.061,11.83c.761,3.759,8.42,3.983,15.655,2.309s15.4-5.22,14.643-8.98S20.2-1.15,12.963.524-.7,8.07.061,11.83Z" transform="translate(18.387 0)" fill="#fff" opacity="0.2" style="mix-blend-mode: screen;isolation: isolate"/>
    <g id="Grupo_1068" data-name="Grupo 1068" transform="translate(19.023 0.112)">
      <path id="Trazado_13028" data-name="Trazado 13028" d="M22.879.784c4.041,1.2,7.414,4,6.447,4.995-.565.583-5.623-1.421-15.155,1.158C4.338,9.6,2.089,14.594,1.067,14.391-.11,14.157-.97,8.97,2.183,5.412,6.6.428,16.482-1.111,22.879.784Z" transform="translate(0 0)" fill="#fff" opacity="0.22" style="mix-blend-mode: screen;isolation: isolate"/>
      <path id="Trazado_13029" data-name="Trazado 13029" d="M1.25,4.293A23.772,23.772,0,0,1,21.6.971c2.023.625,5.968,3.105,2.075,1.9A28.431,28.431,0,0,0,1.146,5.953C-.519,6.98-.27,5.431,1.25,4.293Z" transform="translate(2.035 0.053)" fill="#fff" opacity="0.25" style="mix-blend-mode: screen;isolation: isolate"/>
      <path id="Trazado_13030" data-name="Trazado 13030" d="M7.789.277c1,.2,2.715,1,1.882,1a42.307,42.307,0,0,0-8.059.222C.036,1.684-.436.743.425.46A19,19,0,0,1,7.789.277Z" transform="translate(12.162 0.187)" fill="#fff" style="mix-blend-mode: screen;isolation: isolate"/>
      <path id="Trazado_13031" data-name="Trazado 13031" d="M6.748.011C7.225-.1,8.38.631,8.056.705A21.368,21.368,0,0,0,.741,3.674C-1.621,5.176,2.009,1.081,6.748.011Z" transform="translate(3.801 1.093)" fill="#fff" style="mix-blend-mode: screen;isolation: isolate"/>
    </g>
  </g>
</svg>
