<svg xmlns="http://www.w3.org/2000/svg" width="53.258" height="53.259" viewBox="0 0 53.258 53.259">
  <g id="Grupo_1029" data-name="Grupo 1029" transform="translate(0 0)">
    <path id="Trazado_12910" data-name="Trazado 12910" d="M343,227.392c-.109.573-.2,1.144-.268,1.715a26.47,26.47,0,0,0,.539,9.49,26.507,26.507,0,0,0,1.332,4.063,26.812,26.812,0,0,0,5.44,8.238l.034.034a26.543,26.543,0,0,0,14.114,7.587,26.793,26.793,0,0,0,4.558.467,26.432,26.432,0,0,0,10.133-1.836c.194-.076.386-.155.577-.235a26.785,26.785,0,0,0,8.239-5.439,26.563,26.563,0,0,0,6.11-9.032c.22-.537.422-1.087.608-1.645a26.824,26.824,0,0,0,1.369-8.029c0-.176,0-.353,0-.529a26.108,26.108,0,0,0-.607-5.539,26.5,26.5,0,0,0-1.466-4.643,26.786,26.786,0,0,0-5.44-8.238q-.374-.387-.764-.757a26.445,26.445,0,0,0-8.268-5.353,26.819,26.819,0,0,0-9.674-1.977,26.338,26.338,0,0,0-9.775,1.7c-.314.117-.628.24-.935.37a26.66,26.66,0,0,0-6.369,3.8q-.974.775-1.869,1.644a25.776,25.776,0,0,0-2.965,3.41,26.183,26.183,0,0,0-3.145,5.621c-.029.07-.057.139-.083.21A26.617,26.617,0,0,0,343,227.392Z" transform="translate(-342.533 -205.731)" fill="#fcab29"/>
    <path id="Trazado_12911" data-name="Trazado 12911" d="M362.083,213.242a71.608,71.608,0,0,0,39.793,7.558,26.777,26.777,0,0,0-4.007-5.338c-.249-.258-.5-.51-.764-.757a74.239,74.239,0,0,1-13.213-1.35,72.448,72.448,0,0,1-14.5-4.28c-.314.117-.628.24-.935.37A26.665,26.665,0,0,0,362.083,213.242Z" transform="translate(-352.123 -207.372)" fill="#ffe5bb"/>
    <path id="Trazado_12912" data-name="Trazado 12912" d="M346.261,233c4.393,4.288,13.579,8.365,24.619,10.462s21.081,1.672,26.74-.706a26.108,26.108,0,0,0-.607-5.539c-5.858,1.451-14.415,1.467-23.673-.291-10.432-1.981-19.21-5.735-23.851-9.756a26.181,26.181,0,0,0-3.145,5.621C346.314,232.865,346.286,232.934,346.261,233Z" transform="translate(-344.362 -216.25)" fill="#ffe5bb"/>
    <path id="Trazado_12913" data-name="Trazado 12913" d="M342.736,251.615a26.471,26.471,0,0,0,.539,9.49c4.818,3.75,13.171,7.182,22.984,9.046s18.847,1.734,24.7.012a26.477,26.477,0,0,0,2.847-5.211c.22-.537.422-1.087.608-1.645-5.8,2.02-15.309,2.281-25.7.308C356.364,261.269,346.325,256.435,342.736,251.615Z" transform="translate(-342.533 -228.239)" fill="#ffe5bb"/>
    <path id="Trazado_12914" data-name="Trazado 12914" d="M357.347,294.454a26.624,26.624,0,0,0,28.805,6.218,74.347,74.347,0,0,1-12.957-1.346A70.637,70.637,0,0,1,357.347,294.454Z" transform="translate(-349.8 -249.253)" fill="#ffe5bb"/>
    <g id="Grupo_1027" data-name="Grupo 1027" transform="translate(5.736 3.968)">
      <path id="Trazado_12915" data-name="Trazado 12915" d="M388.674,213.52a26.615,26.615,0,0,1,12.17,27.63,26.815,26.815,0,0,1-1.51,5.115,26.626,26.626,0,0,1-43.764,8.454c-.628-.65-1.219-1.332-1.777-2.039C374.579,268.778,410.2,245.962,388.674,213.52Z" transform="translate(-353.793 -213.52)" fill="#eab86a" opacity="0.5" style="mix-blend-mode: multiply;isolation: isolate"/>
      <path id="Trazado_12916" data-name="Trazado 12916" d="M366.776,259.72a26.815,26.815,0,0,0,9.673,1.977,26.444,26.444,0,0,0,10.711-2.07,26.805,26.805,0,0,0,8.238-5.439,26.627,26.627,0,0,0,6.017-29.416,26.618,26.618,0,0,0-8.008-10.563,26.63,26.63,0,1,1-31.087,43.174A26.419,26.419,0,0,0,366.776,259.72Z" transform="translate(-357.976 -213.858)" fill="#eab86a" opacity="0.5" style="mix-blend-mode: multiply;isolation: isolate"/>
    </g>
    <g id="Grupo_1028" data-name="Grupo 1028" transform="translate(1.656 0.926)">
      <path id="Trazado_12917" data-name="Trazado 12917" d="M358.228,247.238c4.233.141,5.307-6.69,16.228-17.257,9.556-9.245,11.98-7.186,13.04-11.431,1.37-5.484-9.611-10.9-17.78-11-11.55-.135-23.966,10.016-23.931,21.9C345.809,237.856,352.054,247.034,358.228,247.238Z" transform="translate(-345.785 -207.549)" fill="#fff" opacity="0.2" style="mix-blend-mode: screen;isolation: isolate"/>
      <path id="Trazado_12918" data-name="Trazado 12918" d="M375.805,212.068c6.112.316,12.571,3.679,12.076,5.814-.288,1.248-8.32-.018-18.664,8.533-10.671,8.821-9.806,18.391-11.275,18.482-1.694.1-6.712-8.451-5.33-15.935C354.549,218.48,366.131,211.568,375.805,212.068Z" transform="translate(-349.018 -209.754)" fill="#fff" opacity="0.3" style="mix-blend-mode: screen;isolation: isolate"/>
      <path id="Trazado_12919" data-name="Trazado 12919" d="M381.221,213.775c.12-.678-4.567-3-9.887-2.935-7.57.087-15.8,4.984-18.92,12.5-2.518,6.062-1.166,12.511-.406,12.587.726.073.323-5.755,4.213-11.623,4.916-7.415,13.19-9.614,14.119-9.846C376.373,212.947,381.1,214.446,381.221,213.775Z" transform="translate(-348.322 -209.163)" fill="#fff" opacity="0.4" style="mix-blend-mode: screen;isolation: isolate"/>
      <path id="Trazado_12920" data-name="Trazado 12920" d="M347.337,222.788a24.013,24.013,0,0,1,23.737-14.5c3.081.2,10.035,2.769,4.109,2.379a28.482,28.482,0,0,0-26.726,15.02C347.083,228.178,346.235,225.4,347.337,222.788Z" transform="translate(-346.298 -207.887)" fill="#fff" opacity="0.25" style="mix-blend-mode: screen;isolation: isolate"/>
      <path id="Trazado_12921" data-name="Trazado 12921" d="M375.519,210.188c1.444-.081,4.253.547,3.177.9a41.65,41.65,0,0,0-10.221,3.86c-1.891,1.006-3.208-.412-2.311-1.269A18.719,18.719,0,0,1,375.519,210.188Z" transform="translate(-355.64 -208.84)" fill="#fff" style="mix-blend-mode: screen;isolation: isolate"/>
      <path id="Trazado_12922" data-name="Trazado 12922" d="M357.512,221.459c.534-.391,2.571.363,2.21.63a22.626,22.626,0,0,0-7.193,8.266C350.617,233.96,352.209,225.344,357.512,221.459Z" transform="translate(-348.711 -214.318)" fill="#fff" style="mix-blend-mode: screen;isolation: isolate"/>
    </g>
  </g>
</svg>
