<svg id="Grupo_1377" data-name="Grupo 1377" xmlns="http://www.w3.org/2000/svg" width="57.94" height="57.933" viewBox="0 0 57.94 57.933">
  <circle id="Elipse_71" data-name="Elipse 71" cx="28.963" cy="28.963" r="28.963" transform="translate(0.008 0)" fill="#4da600"/>
  <g id="Grupo_1058" data-name="Grupo 1058" transform="translate(0 0.763)">
    <path id="Trazado_13004" data-name="Trazado 13004" d="M55.119,369.81c0,.635.019,1.263.062,1.888a28.829,28.829,0,0,0,2.5,10.035,28.807,28.807,0,0,0,2.249,4.072,29.154,29.154,0,0,0,6.386,6.888c.635.367,1.286.716,1.947,1.038a32.949,32.949,0,0,0,4.365,1.728,32.122,32.122,0,0,0,4.59,1.032,29.643,29.643,0,0,0,9.466-.131,25.074,25.074,0,0,0,8.974-3.554,25.468,25.468,0,0,0,11.77-20.279c.036-.81.045-1.625,0-2.435a11.675,11.675,0,0,0-.1-1.237l-.143-1.25A21.354,21.354,0,0,0,103.3,358.4c-.124-.17-.238-.349-.371-.508l-.41-.479-.82-.953c-.293-.3-.6-.586-.9-.879a10.988,10.988,0,0,0-.934-.84,19.775,19.775,0,0,0-2.022-1.494c-.355-.225-.7-.466-1.065-.674l-1.116-.579-.56-.283c-.192-.085-.387-.16-.583-.237l-1.172-.462c-.39-.157-.8-.248-1.2-.371s-.8-.248-1.214-.323L89.7,350.09l-.621-.111-.625-.052-1.251-.1a5.187,5.187,0,0,0-.628-.013l-.625.01c-.42.013-.833.009-1.256.042l-1.289.156a10.7,10.7,0,0,0-1.276.245,11,11,0,0,0-1.26.331l-1.233.417-1.192.534a11.152,11.152,0,0,0-1.146.613,10.194,10.194,0,0,0-1.1.693,17.008,17.008,0,0,0-3.787,3.509c-.257.345-.543.67-.774,1.035l-.693,1.09c-.222.368-.4.762-.6,1.142-.094.192-.2.381-.283.579l-.237.6-.234.6-.114.3-.091.313-.348,1.24c-.091.42-.16.846-.238,1.27a9.992,9.992,0,0,0-.144,1.279l-.045.641-.019.323.007.319.035,1.283a15.131,15.131,0,0,0,.427,2.627,14.271,14.271,0,0,0,10.9,10.462c.433.071.866.16,1.3.208l1.309.091,1.305-.042c.443-.033.905-.108,1.35-.17a11.808,11.808,0,0,0,4.945-2.2,11.577,11.577,0,0,0,3.4-4.14,11.328,11.328,0,0,0,1.185-5.176,10.264,10.264,0,0,0-.371-2.708,9.608,9.608,0,0,0-2.94-4.6,9.874,9.874,0,0,0-2.3-1.468,9.51,9.51,0,0,0-2.61-.746,6.684,6.684,0,0,0-.674-.062,5.818,5.818,0,0,0-.674-.017l-.674.029c-.228.023-.465.061-.7.095a7.771,7.771,0,0,0-4.723,2.8,7.488,7.488,0,0,0-1.647,5.127,6.427,6.427,0,0,0,.742,2.715,6.347,6.347,0,0,0,1.849,2.1,6.026,6.026,0,0,0,2.543,1.07,4.834,4.834,0,0,0,.686.079,4.4,4.4,0,0,0,.684,0,5.064,5.064,0,0,0,3.7-1.879,5.145,5.145,0,0,0,.716-1.2,5.374,5.374,0,0,0,.345-1.344,4.97,4.97,0,0,0,.023-.69l-.019-.345-.052-.355a4.027,4.027,0,0,0-2.679-3.063,3.979,3.979,0,0,0-1.364-.189,3.272,3.272,0,0,0-1.374.339,3.178,3.178,0,0,0-1.7,2.128,3.249,3.249,0,0,0-.078.684c0,.114.01.228.016.341a3.242,3.242,0,0,0,.062.352,2.534,2.534,0,0,0,1.895,1.881,2.507,2.507,0,0,0,.677.059,1.972,1.972,0,0,0,.687-.15,2.027,2.027,0,0,0,1.019-.911,1.957,1.957,0,0,0,.192-1.318,1.592,1.592,0,0,0-.8-1.062,1.478,1.478,0,0,0-1.285-.059,1.211,1.211,0,0,0-.7,1.035,1,1,0,0,0,.156.615.918.918,0,0,0,.5.38.839.839,0,0,0,.605-.023.727.727,0,0,0,.391-.436.619.619,0,0,0-.078-.554.531.531,0,0,0-.482-.2.489.489,0,0,1,.423.245.5.5,0,0,1,0,.462.545.545,0,0,1-.331.293.635.635,0,0,1-.43-.046.617.617,0,0,1-.345-.693.733.733,0,0,1,.5-.58.879.879,0,0,1,1.113.758,1.125,1.125,0,0,1-.2.72,1.03,1.03,0,0,1-.586.4,1.26,1.26,0,0,1-.716-.042,1.319,1.319,0,0,1-.593-.414,1.283,1.283,0,0,1-.27-.634,1.593,1.593,0,0,1-.01-.17l.01-.189a1.847,1.847,0,0,1,.084-.358,1.608,1.608,0,0,1,.967-.983,1.585,1.585,0,0,1,.683-.085,2.148,2.148,0,0,1,.706.179,1.968,1.968,0,0,1,.983.977,2.067,2.067,0,0,1,.176.651l.007.166-.01.185a2.675,2.675,0,0,1-.046.368,2.506,2.506,0,0,1-1.865,1.924,2.361,2.361,0,0,1-.687.059l-.186-.007c-.062-.007-.124-.019-.186-.026a2.314,2.314,0,0,1-.361-.075,3.063,3.063,0,0,1-1.273-.671,3.216,3.216,0,0,1-.837-1.129,3.164,3.164,0,0,1-.238-1.364,4.047,4.047,0,0,1,1.094-2.685,3.959,3.959,0,0,1,2.5-1.241c.117,0,.231-.019.351-.019l.387.013a2.429,2.429,0,0,1,.381.039,2.511,2.511,0,0,1,.378.058,5.194,5.194,0,0,1,1.416.508,5.478,5.478,0,0,1,1.2.885,5.253,5.253,0,0,1,.889,1.175,5.331,5.331,0,0,1,.508,1.357,5.914,5.914,0,0,1,.1,1.484,6.42,6.42,0,0,1-.85,2.959,6.485,6.485,0,0,1-2.054,2.236,6.718,6.718,0,0,1-2.777,1.08c-.254.013-.491.049-.755.055s-.538-.01-.808-.007c-.267-.036-.534-.068-.8-.094-.264-.042-.521-.114-.781-.163a8.682,8.682,0,0,1-2.871-1.341,8.537,8.537,0,0,1-3.4-5.114,8.741,8.741,0,0,1-.2-1.553l.007-.834,0-.208.026-.208.045-.414a5.286,5.286,0,0,1,.121-.817c.059-.27.1-.54.169-.81l.244-.788.059-.2.081-.189.162-.378.156-.384c.055-.124.131-.241.2-.361.137-.241.251-.492.4-.723l.462-.683c.15-.231.345-.426.511-.644a10.8,10.8,0,0,1,2.451-2.165,5.451,5.451,0,0,1,.7-.414,5.129,5.129,0,0,1,.729-.368c.251-.1.5-.215.746-.325l.778-.244a5.411,5.411,0,0,1,.788-.192,5.611,5.611,0,0,1,.8-.143l.813-.091c.28-.013.573,0,.86-.006l.433-.007a3.18,3.18,0,0,1,.43.013l.856.085.43.039.423.085.843.166c.279.053.547.163.823.238s.554.147.817.261l.791.329c.134.055.267.1.4.162l.377.205q.377.205.759.4c.247.143.478.313.722.466a12.827,12.827,0,0,1,1.374,1.025,5.9,5.9,0,0,1,.634.579l.616.6.553.657.28.326a3.831,3.831,0,0,1,.247.348,14.616,14.616,0,0,1,2.614,6.256l.1.853a6.746,6.746,0,0,1,.078.869c.036.6.029,1.2.007,1.8a18.555,18.555,0,0,1-.5,3.544,19.278,19.278,0,0,1-8.069,11.5,19.348,19.348,0,0,1-6.625,2.764,23.433,23.433,0,0,1-7.389.263,29.1,29.1,0,0,1-3.685-.722,26.58,26.58,0,0,1-3.548-1.269,25.572,25.572,0,0,1-11.273-9.876,26.491,26.491,0,0,1-1.764-3.4,26.2,26.2,0,0,1-1.237-3.643,26.584,26.584,0,0,1-.677-3.8c-.059-.651-.1-1.315-.144-1.973L55.7,364.6c-.007-.179-.013-.361-.013-.54-.013.071-.025.14-.039.212A28.943,28.943,0,0,0,55.119,369.81Z" transform="translate(-55.119 -341.61)" fill="#e2f7ad"/>
    <g id="Grupo_1056" data-name="Grupo 1056" transform="translate(7.703 2.433)">
      <path id="Trazado_13005" data-name="Trazado 13005" d="M103.535,339.4a28.983,28.983,0,1,1-34.52,45.432c9.642,5.175,27.162,8.865,38.248-6.871S110.23,347.025,103.535,339.4Z" transform="translate(-69.015 -339.402)" fill="#d6e5a8" opacity="0.5" style="mix-blend-mode: multiply;isolation: isolate"/>
      <path id="Trazado_13006" data-name="Trazado 13006" d="M83.214,391.628a29.186,29.186,0,0,0,10.66,1.325,28.775,28.775,0,0,0,11.443-3.153,29.156,29.156,0,0,0,8.476-6.6,28.97,28.97,0,0,0,4.035-32.418,28.919,28.919,0,0,0-9.581-10.779A28.974,28.974,0,1,1,78.182,389.47,28.748,28.748,0,0,0,83.214,391.628Z" transform="translate(-73.101 -339.671)" fill="#d6e5a8" style="mix-blend-mode: multiply;isolation: isolate"/>
    </g>
    <g id="Grupo_1057" data-name="Grupo 1057" transform="translate(2.278)">
      <path id="Trazado_13007" data-name="Trazado 13007" d="M71.3,374.794c4.272.262,5.423-3.935,16.755-14.3,9.915-9.066,13.724-10.143,13.627-13.85-.15-5.71-9.4-11.287-17.648-11.616-11.663-.465-24.494,9.436-24.8,21.446C59.021,364.963,65.067,374.412,71.3,374.794Z" transform="translate(-59.229 -335.014)" fill="#fff" opacity="0.2" style="mix-blend-mode: screen;isolation: isolate"/>
      <path id="Trazado_13008" data-name="Trazado 13008" d="M84.552,338.66c6.659-.071,13.9,3.142,13.508,5.495-.229,1.374-9.037.545-19.69,10.532-10.989,10.3-9.4,20.636-10.989,20.834-1.831.229-7.861-8.721-6.868-16.942C61.9,347.064,74.013,338.773,84.552,338.66Z" transform="translate(-59.752 -336.638)" fill="#fff" opacity="0.22" style="mix-blend-mode: screen;isolation: isolate"/>
      <path id="Trazado_13009" data-name="Trazado 13009" d="M62.328,356.754A26.127,26.127,0,0,1,87.122,339.4c3.359.012,11.084,2.326,4.622,2.3-12.479-.041-22.988,7.525-28,18.124C62.42,362.623,61.31,359.669,62.328,356.754Z" transform="translate(-60.433 -336.969)" fill="#fff" opacity="0.25" style="mix-blend-mode: screen;isolation: isolate"/>
      <path id="Trazado_13010" data-name="Trazado 13010" d="M89.115,341.23c1.563-.185,4.656.306,3.511.763a45.366,45.366,0,0,0-10.837,4.884c-1.984,1.221-3.511-.228-2.595-1.221A20.367,20.367,0,0,1,89.115,341.23Z" transform="translate(-68.006 -337.766)" fill="#fff" style="mix-blend-mode: screen;isolation: isolate"/>
      <path id="Trazado_13011" data-name="Trazado 13011" d="M70.629,352.666c.553-.461,2.816.22,2.442.534a24.6,24.6,0,0,0-7.251,9.463C63.989,366.709,65.133,357.245,70.629,352.666Z" transform="translate(-61.806 -342.812)" fill="#fff" style="mix-blend-mode: screen;isolation: isolate"/>
    </g>
  </g>
</svg>
