<svg xmlns="http://www.w3.org/2000/svg" width="48.041" height="48.041" viewBox="0 0 48.041 48.041">
  <g id="Grupo_1038" data-name="Grupo 1038" transform="translate(0 0)">
    <path id="Trazado_12923" data-name="Trazado 12923" d="M198.536,357.357c0,.2,0,.4.008.6a24.027,24.027,0,0,0,46.525,7.794,23.736,23.736,0,0,0,1.484-7.432.2.2,0,0,0,0-.04c.016-.306.021-.615.021-.923a24,24,0,0,0-24.02-24.02,24.047,24.047,0,0,0-21.833,14c-.3.647-.569,1.31-.808,1.986a23.715,23.715,0,0,0-1.1,4.367A23.985,23.985,0,0,0,198.536,357.357Z" transform="translate(-198.536 -333.337)" fill="#fbf2e3"/>
    <g id="Grupo_1030" data-name="Grupo 1030" transform="translate(30.059 6.441)">
      <path id="Trazado_12924" data-name="Trazado 12924" d="M271.352,349.577a2.147,2.147,0,1,0,2.147-2.147A2.147,2.147,0,0,0,271.352,349.577Z" transform="translate(-268.131 -347.43)" fill="#fc2b45"/>
      <path id="Trazado_12925" data-name="Trazado 12925" d="M264.3,359.66a1.074,1.074,0,1,0,1.074-1.073A1.074,1.074,0,0,0,264.3,359.66Z" transform="translate(-264.305 -353.488)" fill="#fc2b45"/>
    </g>
    <g id="Grupo_1031" data-name="Grupo 1031" transform="translate(36.565 23.354)">
      <path id="Trazado_12926" data-name="Trazado 12926" d="M289.589,386.1a2.147,2.147,0,1,0,2.933.786A2.148,2.148,0,0,0,289.589,386.1Z" transform="translate(-283.955 -385.185)" fill="#fc2b45"/>
      <path id="Trazado_12927" data-name="Trazado 12927" d="M279.075,384.578a1.073,1.073,0,1,0,1.467.393A1.074,1.074,0,0,0,279.075,384.578Z" transform="translate(-278.538 -384.434)" fill="#fc2b45"/>
    </g>
    <g id="Grupo_1032" data-name="Grupo 1032" transform="translate(29.587 34.894)">
      <path id="Trazado_12928" data-name="Trazado 12928" d="M267.073,420.165a2.147,2.147,0,1,0,.786,2.933A2.146,2.146,0,0,0,267.073,420.165Z" transform="translate(-263.586 -415.219)" fill="#fc2b45"/>
      <path id="Trazado_12929" data-name="Trazado 12929" d="M264.881,409.829a1.073,1.073,0,1,0,.393,1.466A1.073,1.073,0,0,0,264.881,409.829Z" transform="translate(-263.271 -409.685)" fill="#fc2b45"/>
    </g>
    <g id="Grupo_1033" data-name="Grupo 1033" transform="translate(10.735 34.622)">
      <path id="Trazado_12930" data-name="Trazado 12930" d="M226.319,417.695a2.147,2.147,0,1,0-2.147,2.147A2.147,2.147,0,0,0,226.319,417.695Z" transform="translate(-222.025 -412.595)" fill="#fc2b45"/>
      <path id="Trazado_12931" data-name="Trazado 12931" d="M235.916,410.162a1.074,1.074,0,1,0-1.074,1.073A1.074,1.074,0,0,0,235.916,410.162Z" transform="translate(-228.401 -409.088)" fill="#fc2b45"/>
    </g>
    <g id="Grupo_1034" data-name="Grupo 1034" transform="translate(2.89 20.028)">
      <path id="Trazado_12932" data-name="Trazado 12932" d="M208.081,381.165a2.147,2.147,0,1,0-2.933-.786A2.147,2.147,0,0,0,208.081,381.165Z" transform="translate(-204.86 -377.158)" fill="#fc2b45"/>
      <path id="Trazado_12933" data-name="Trazado 12933" d="M249.89,385.591a2.147,2.147,0,1,0-2.933-.786A2.146,2.146,0,0,0,249.89,385.591Z" transform="translate(-227.56 -379.561)" fill="#fc2b45"/>
      <path id="Trazado_12934" data-name="Trazado 12934" d="M249.89,385.591a2.147,2.147,0,1,0-2.933-.786A2.146,2.146,0,0,0,249.89,385.591Z" transform="translate(-227.56 -379.561)" fill="#fc2b45"/>
      <path id="Trazado_12935" data-name="Trazado 12935" d="M221.146,385.244a1.073,1.073,0,1,0-1.466-.393A1.074,1.074,0,0,0,221.146,385.244Z" transform="translate(-212.828 -380.461)" fill="#fc2b45"/>
    </g>
    <g id="Grupo_1035" data-name="Grupo 1035" transform="translate(14.162 4.462)">
      <path id="Trazado_12936" data-name="Trazado 12936" d="M230.6,347.106a2.147,2.147,0,1,0-.786-2.933A2.147,2.147,0,0,0,230.6,347.106Z" transform="translate(-229.523 -343.1)" fill="#fc2b45"/>
      <path id="Trazado_12937" data-name="Trazado 12937" d="M235.34,359.993a1.074,1.074,0,1,0-.393-1.467A1.073,1.073,0,0,0,235.34,359.993Z" transform="translate(-232.39 -351.184)" fill="#fc2b45"/>
    </g>
    <path id="Trazado_12938" data-name="Trazado 12938" d="M216.651,383.8a24.05,24.05,0,0,0,27.92-15.013,23.727,23.727,0,0,0,.918-3.079,23.46,23.46,0,0,0,.566-4.353.2.2,0,0,0,0-.041c.016-.306.021-.615.021-.923a23.886,23.886,0,0,0-2.976-11.576c.527.53,1.034,1.082,1.511,1.659a23.967,23.967,0,0,1,5.491,15.285c0,.309-.005.617-.021.923a.2.2,0,0,1,0,.04,23.734,23.734,0,0,1-1.484,7.432,24.034,24.034,0,0,1-43.564,3.179A23.971,23.971,0,0,0,216.651,383.8Z" transform="translate(-202.064 -341.743)" fill="#d3a7af" opacity="0.3" style="mix-blend-mode: multiply;isolation: isolate"/>
    <g id="Grupo_1036" data-name="Grupo 1036" transform="translate(1.092 0)">
      <path id="Trazado_12939" data-name="Trazado 12939" d="M245.733,357.489c-5.9-8.393,1.613-8.86,5.371-16.554a7.292,7.292,0,0,0,.056-6.951,24.259,24.259,0,0,0-9.724-.287c2.644,2.791,4.944,6.967,1.616,11.436C237.218,352.969,245.537,357.387,245.733,357.489Z" transform="translate(-222.674 -333.337)" fill="#fc2b45"/>
      <path id="Trazado_12940" data-name="Trazado 12940" d="M251.382,367.869c4.319-9.31,8.478-3.035,17.021-3.628a7.309,7.309,0,0,0,5.912-3.215,23.867,23.867,0,0,0-4.538-8.575c-1.125,3.629-3.6,7.553-9.034,6.916C250.926,358.216,251.382,367.869,251.382,367.869Z" transform="translate(-228.32 -343.715)" fill="#fc2b45"/>
      <path id="Trazado_12941" data-name="Trazado 12941" d="M251.386,384.41c10.223-.915,6.868,5.824,11.654,12.926a7.32,7.32,0,0,0,5.606,3.506,24,24,0,0,0,5.118-8.17c-3.674.794-8.2.542-10.333-4.407C259.518,379.187,251.386,384.41,251.386,384.41Z" transform="translate(-228.324 -360.256)" fill="#fc2b45"/>
      <path id="Trazado_12942" data-name="Trazado 12942" d="M238.389,409.464a24.244,24.244,0,0,0,9.589.25c-2.531-2.786-4.586-6.835-1.363-11.165,5.834-7.837-2.486-12.255-2.681-12.357,5.9,8.393-1.613,8.859-5.37,16.554A7.3,7.3,0,0,0,238.389,409.464Z" transform="translate(-220.869 -362.035)" fill="#fc2b45"/>
      <path id="Trazado_12943" data-name="Trazado 12943" d="M200.926,393.229a23.9,23.9,0,0,0,4.656,8.414c1.119-3.639,3.591-7.593,9.044-6.954,9.818,1.151,9.362-8.5,9.362-8.5-4.319,9.311-8.478,3.036-17.021,3.629A7.3,7.3,0,0,0,200.926,393.229Z" transform="translate(-200.926 -362.032)" fill="#fc2b45"/>
      <path id="Trazado_12944" data-name="Trazado 12944" d="M201.555,358.466c3.741-.9,8.518-.813,10.73,4.316,3.914,9.076,12.045,3.854,12.045,3.854-10.223.915-6.868-5.824-11.653-12.925a7.288,7.288,0,0,0-6.1-3.532,24.017,24.017,0,0,0-4.214,6.3C202.065,357.126,201.794,357.79,201.555,358.466Z" transform="translate(-201.268 -342.481)" fill="#fc2b45"/>
    </g>
    <path id="Trazado_12945" data-name="Trazado 12945" d="M223.389,387.83a24.05,24.05,0,0,0,27.92-15.013,23.792,23.792,0,0,0,.918-3.078,23.425,23.425,0,0,0,.566-4.353.2.2,0,0,0,0-.04c.016-.306.022-.615.022-.923a23.964,23.964,0,0,0-5.489-15.281c-.057-.107-.113-.215-.171-.321.527.53,1.034,1.082,1.511,1.659a23.968,23.968,0,0,1,5.491,15.285c0,.309-.005.617-.022.923a.2.2,0,0,1,0,.04,23.729,23.729,0,0,1-1.484,7.432,24.017,24.017,0,0,1-40.15,7.909A23.945,23.945,0,0,0,223.389,387.83Z" transform="translate(-206.118 -341.743)" fill="#d3a7af" opacity="0.5" style="mix-blend-mode: multiply;isolation: isolate"/>
    <g id="Grupo_1037" data-name="Grupo 1037" transform="translate(0 1.407)">
      <path id="Trazado_12946" data-name="Trazado 12946" d="M209.619,373.518c3.893.238,4.941-3.586,15.268-13.029,9.035-8.262,12.506-9.243,12.418-12.622-.137-5.2-8.565-10.286-16.082-10.586-10.628-.424-22.321,8.6-22.6,19.543C198.431,364.56,203.941,373.17,209.619,373.518Z" transform="translate(-198.582 -336.878)" fill="#fff" opacity="0.2" style="mix-blend-mode: screen;isolation: isolate"/>
      <path id="Trazado_12947" data-name="Trazado 12947" d="M220.543,336.416c6.068-.065,12.667,2.863,12.31,5.007-.208,1.252-8.234.5-17.943,9.6-10.015,9.389-8.565,18.805-10.015,18.986-1.669.208-7.164-7.948-6.259-15.439C199.9,344.074,210.938,336.519,220.543,336.416Z" transform="translate(-198.536 -336.415)" fill="#fff" opacity="0.22" style="mix-blend-mode: screen;isolation: isolate"/>
      <path id="Trazado_12948" data-name="Trazado 12948" d="M231.5,340.766c.076-.679-4.705-2.683-9.966-2.294-7.485.554-15.326,5.91-17.949,13.539-2.117,6.155-.381,12.453.376,12.482.724.027-.036-5.715,3.452-11.762,4.407-7.641,12.458-10.328,13.363-10.616C226.653,340.247,231.426,341.438,231.5,340.766Z" transform="translate(-200.728 -337.505)" fill="#fff" opacity="0.37" style="mix-blend-mode: screen;isolation: isolate"/>
      <path id="Trazado_12949" data-name="Trazado 12949" d="M230.1,340.146c1.424-.169,4.242.278,3.2.7a41.311,41.311,0,0,0-9.876,4.451c-1.808,1.113-3.2-.208-2.364-1.112A18.555,18.555,0,0,1,230.1,340.146Z" transform="translate(-210.628 -338.421)" fill="#fff" style="mix-blend-mode: screen;isolation: isolate"/>
      <path id="Trazado_12950" data-name="Trazado 12950" d="M210.551,352.764c.5-.42,2.566.2,2.226.487a22.428,22.428,0,0,0-6.607,8.624C204.5,365.561,205.544,356.937,210.551,352.764Z" transform="translate(-202.281 -345.215)" fill="#fff" style="mix-blend-mode: screen;isolation: isolate"/>
    </g>
  </g>
</svg>
