<svg xmlns="http://www.w3.org/2000/svg" width="257.848" height="54.051" viewBox="0 0 257.848 54.051">
  <g id="Grupo_960" data-name="Grupo 960" transform="translate(-38.852 -15.607)">
    <g id="Grupo_955" data-name="Grupo 955" opacity="0.3">
      <g id="Grupo_953" data-name="Grupo 953">
        <g id="Grupo_952" data-name="Grupo 952">
          <path id="Trazado_11828" data-name="Trazado 11828" d="M80.671,41.328V26.638c-.863-.47-1.855-.972-2.967-1.5a24.152,24.152,0,0,0-3.882-1.416A39.852,39.852,0,0,0,68.86,22.7a43.092,43.092,0,0,0-6.293-.414,31.245,31.245,0,0,0-9.28,1.3A17.337,17.337,0,0,0,46.211,27.7a18.515,18.515,0,0,0-4.5,7.349,33.134,33.134,0,0,0-1.581,10.927,33.171,33.171,0,0,0,1.581,10.961,18.488,18.488,0,0,0,4.526,7.316,17.693,17.693,0,0,0,7.109,4.111,31.528,31.528,0,0,0,9.347,1.3,43.529,43.529,0,0,0,6.259-.415A41.709,41.709,0,0,0,73.94,68.22,24.557,24.557,0,0,0,77.824,66.8c1.111-.524,2.06-1.025,2.847-1.493V50.084H66.57v4.765a4.631,4.631,0,0,1-1,3.316,4.884,4.884,0,0,1-5.987,0,4.6,4.6,0,0,1-1-3.316V37.1a4.6,4.6,0,0,1,1-3.314,4.843,4.843,0,0,1,5.987,0,4.63,4.63,0,0,1,1,3.314v4.233Z"/>
          <path id="Trazado_11829" data-name="Trazado 11829" d="M127.1,59.19l-3.642-13.217-6.293-22.858h-21.4L89.481,45.973,85.839,59.19H83.493v9.639h20.1V59.19h-3.523l.938-4.634h7.928l1,4.634h-3.522v9.639h23.031V59.19Zm-24.81-10.862.479-2.355,1.931-9.4h.588l1.932,9.4.479,2.355Z"/>
          <path id="Trazado_11830" data-name="Trazado 11830" d="M168.085,48.208a13.187,13.187,0,0,0-1.429-2.235,13.645,13.645,0,0,0-2.18-2.17,21.665,21.665,0,0,0-5.322-3.066q-3.027-1.226-6.434-2.343a18.764,18.764,0,0,1-2.727-1.058,1.558,1.558,0,0,1-.915-1.473,1.851,1.851,0,0,1,.851-1.733,5.864,5.864,0,0,1,2.791-.5,4.029,4.029,0,0,1,2.29.622,2.571,2.571,0,0,1,.949,2.322h12.333V26.049a27.649,27.649,0,0,0-7.525-2.736,43.815,43.815,0,0,0-9.629-1.025,39.751,39.751,0,0,0-9.5.97,16.086,16.086,0,0,0-6.172,2.824,10.754,10.754,0,0,0-3.348,4.46,16.024,16.024,0,0,0-1.025,5.91,14.774,14.774,0,0,0,1.058,5.912,11.41,11.41,0,0,0,2.508,3.609c.219.229.458.436.7.642a23.12,23.12,0,0,0,5.41,3.326c2.168.994,4.7,2.052,7.6,3.141a9.677,9.677,0,0,1,2.736,1.441,1.913,1.913,0,0,1,.677,1.439,2.038,2.038,0,0,1-.818,1.766,4.935,4.935,0,0,1-2.771.589c-1.482,0-2.463-.282-2.933-.85a4.062,4.062,0,0,1-.708-2.618H131.618V66.484a39.627,39.627,0,0,0,7.993,2.238,56.873,56.873,0,0,0,10.405.936q9.517,0,14.46-3.73,4.939-3.746,4.94-11.372A13.811,13.811,0,0,0,168.085,48.208Z"/>
          <path id="Trazado_11831" data-name="Trazado 11831" d="M191.509,32.745h3.52v-9.63h-23.5v9.63h3.522V59.19h-3.522v9.639h23.5V59.19h-3.52Z"/>
          <path id="Trazado_11832" data-name="Trazado 11832" d="M230.887,23.115v9.63h3.522V46.737l-.5-.764-14.95-22.858h-21.81v9.63h3.534V59.19h-3.534v9.639h20.566V59.19h-3.522V42.331l2.367,3.642,14.854,22.856h16.509V32.745h3.533v-9.63Z"/>
          <path id="Trazado_11833" data-name="Trazado 11833" d="M295.118,35.046a18.523,18.523,0,0,0-4.5-7.349,17.351,17.351,0,0,0-7.078-4.111,33.862,33.862,0,0,0-18.571,0,17.4,17.4,0,0,0-7.077,4.111,18.537,18.537,0,0,0-4.505,7.349,33.162,33.162,0,0,0-1.58,10.927,33.2,33.2,0,0,0,1.58,10.961,18.59,18.59,0,0,0,4.505,7.316,17.411,17.411,0,0,0,7.077,4.111,33.887,33.887,0,0,0,18.571,0,17.363,17.363,0,0,0,7.078-4.111,18.575,18.575,0,0,0,4.5-7.316A33.172,33.172,0,0,0,296.7,45.973,33.135,33.135,0,0,0,295.118,35.046Zm-16.87,19.8a4.635,4.635,0,0,1-1,3.316,4.884,4.884,0,0,1-5.987,0,4.631,4.631,0,0,1-1-3.316V37.1a4.63,4.63,0,0,1,1-3.314,4.843,4.843,0,0,1,5.987,0,4.635,4.635,0,0,1,1,3.314Z"/>
        </g>
      </g>
      <g id="Grupo_954" data-name="Grupo 954">
        <path id="Trazado_11834" data-name="Trazado 11834" d="M77.7,25.143c1.112.523,2.1,1.025,2.967,1.5v14.69H66.57V37.1a4.63,4.63,0,0,0-1-3.314,4.843,4.843,0,0,0-5.987,0,4.6,4.6,0,0,0-1,3.314v8.878H40.125a33.134,33.134,0,0,1,1.581-10.927,18.515,18.515,0,0,1,4.5-7.349,17.337,17.337,0,0,1,7.076-4.111,31.245,31.245,0,0,1,9.28-1.3,43.092,43.092,0,0,1,6.293.414,39.852,39.852,0,0,1,4.962,1.025A24.152,24.152,0,0,1,77.7,25.143Z"/>
        <path id="Trazado_11835" data-name="Trazado 11835" d="M123.462,45.973H107.224l-1.932-9.4H104.7l-1.931,9.4H89.481l6.292-22.858h21.4Z"/>
        <path id="Trazado_11836" data-name="Trazado 11836" d="M160.767,23.313a27.649,27.649,0,0,1,7.525,2.736V36.572H155.959a2.571,2.571,0,0,0-.949-2.322,4.029,4.029,0,0,0-2.29-.622,5.864,5.864,0,0,0-2.791.5,1.851,1.851,0,0,0-.851,1.733,1.558,1.558,0,0,0,.915,1.473,18.764,18.764,0,0,0,2.727,1.058q3.4,1.111,6.434,2.343a21.665,21.665,0,0,1,5.322,3.066,13.645,13.645,0,0,1,2.18,2.17h-32a11.41,11.41,0,0,1-2.508-3.609,14.774,14.774,0,0,1-1.058-5.912,16.024,16.024,0,0,1,1.025-5.91,10.754,10.754,0,0,1,3.348-4.46,16.086,16.086,0,0,1,6.172-2.824,39.751,39.751,0,0,1,9.5-.97A43.815,43.815,0,0,1,160.767,23.313Z"/>
        <path id="Trazado_11837" data-name="Trazado 11837" d="M171.531,23.115h23.5v9.63h-3.52V45.973H175.053V32.745h-3.521Z"/>
        <path id="Trazado_11838" data-name="Trazado 11838" d="M233.907,45.973h-17.35l-2.366-3.642v3.642h-13.51V32.745h-3.534v-9.63h21.809Z"/>
        <path id="Trazado_11839" data-name="Trazado 11839" d="M230.887,23.115h20.567v9.63h-3.533V45.973H234.409V32.745h-3.522Z"/>
        <path id="Trazado_11840" data-name="Trazado 11840" d="M278.248,45.973V37.1a4.635,4.635,0,0,0-1-3.314,4.843,4.843,0,0,0-5.987,0,4.63,4.63,0,0,0-1,3.314v8.878H251.8a33.162,33.162,0,0,1,1.58-10.927,18.537,18.537,0,0,1,4.505-7.349,17.4,17.4,0,0,1,7.077-4.111,33.862,33.862,0,0,1,18.571,0,17.351,17.351,0,0,1,7.078,4.111,18.523,18.523,0,0,1,4.5,7.349A33.135,33.135,0,0,1,296.7,45.973Z"/>
      </g>
    </g>
    <g id="Grupo_959" data-name="Grupo 959">
      <g id="Grupo_957" data-name="Grupo 957">
        <g id="Grupo_956" data-name="Grupo 956">
          <path id="Trazado_11841" data-name="Trazado 11841" d="M79.4,34.647V19.958c-.863-.47-1.856-.972-2.968-1.5a24.044,24.044,0,0,0-3.882-1.417,39.834,39.834,0,0,0-4.961-1.025,43.232,43.232,0,0,0-6.293-.414,31.252,31.252,0,0,0-9.281,1.3,17.357,17.357,0,0,0-7.076,4.112,18.525,18.525,0,0,0-4.5,7.349,33.13,33.13,0,0,0-1.581,10.927,33.171,33.171,0,0,0,1.581,10.961,18.482,18.482,0,0,0,4.525,7.315,17.691,17.691,0,0,0,7.109,4.112,31.537,31.537,0,0,0,9.347,1.3,43.524,43.524,0,0,0,6.26-.415,41.907,41.907,0,0,0,4.993-1.023,24.507,24.507,0,0,0,3.883-1.419c1.112-.523,2.061-1.025,2.848-1.494V43.4H65.3v4.765a4.637,4.637,0,0,1-1,3.316,4.007,4.007,0,0,1-3,1.025,3.983,3.983,0,0,1-2.989-1.025,4.6,4.6,0,0,1-1-3.316V30.415a4.6,4.6,0,0,1,1-3.314,4.841,4.841,0,0,1,5.988,0,4.636,4.636,0,0,1,1,3.314v4.232Z" fill="#f2c41d"/>
          <path id="Trazado_11842" data-name="Trazado 11842" d="M125.831,52.51l-3.642-13.217L115.9,16.435H94.5L88.209,39.293,84.565,52.51H82.22v9.639h20.1V52.51H98.8l.938-4.634h7.928l1,4.634h-3.521v9.639h23.03V52.51Zm-24.81-10.862.48-2.355,1.93-9.4h.589l1.931,9.4.479,2.355Z" fill="#f2c41d"/>
          <path id="Trazado_11843" data-name="Trazado 11843" d="M166.812,41.528a13.145,13.145,0,0,0-1.429-2.235,13.6,13.6,0,0,0-2.18-2.17,21.557,21.557,0,0,0-5.323-3.065q-3.027-1.227-6.433-2.345a18.667,18.667,0,0,1-2.727-1.057,1.557,1.557,0,0,1-.915-1.472,1.851,1.851,0,0,1,.85-1.734,5.868,5.868,0,0,1,2.792-.5,4.038,4.038,0,0,1,2.29.621,2.574,2.574,0,0,1,.949,2.323h12.333V19.369a27.676,27.676,0,0,0-7.526-2.737,43.86,43.86,0,0,0-9.628-1.025,39.683,39.683,0,0,0-9.5.971A16.071,16.071,0,0,0,134.2,19.4a10.763,10.763,0,0,0-3.348,4.461,16.022,16.022,0,0,0-1.026,5.909,14.79,14.79,0,0,0,1.058,5.913,11.424,11.424,0,0,0,2.509,3.609c.219.229.457.436.7.642a23.148,23.148,0,0,0,5.411,3.326c2.168.993,4.7,2.052,7.6,3.141a9.7,9.7,0,0,1,2.737,1.441,1.915,1.915,0,0,1,.676,1.439,2.037,2.037,0,0,1-.818,1.766,4.937,4.937,0,0,1-2.771.589c-1.482,0-2.464-.283-2.933-.85a4.062,4.062,0,0,1-.708-2.618H130.345V59.8a39.594,39.594,0,0,0,7.992,2.237,56.713,56.713,0,0,0,10.4.937q9.519,0,14.461-3.73,4.939-3.746,4.939-11.372A13.811,13.811,0,0,0,166.812,41.528Z" fill="#f2c41d"/>
          <path id="Trazado_11844" data-name="Trazado 11844" d="M190.236,26.064h3.52V16.435h-23.5v9.629h3.522V52.51h-3.522v9.639h23.5V52.51h-3.52Z" fill="#f2c41d"/>
          <path id="Trazado_11845" data-name="Trazado 11845" d="M229.614,16.435v9.629h3.522V40.057l-.5-.764-14.95-22.858H195.873v9.629h3.535V52.51h-3.535v9.639H216.44V52.51h-3.522V35.65l2.366,3.643,14.854,22.856h16.51V26.064h3.533V16.435Z" fill="#f2c41d"/>
          <path id="Trazado_11846" data-name="Trazado 11846" d="M293.845,28.366a18.514,18.514,0,0,0-4.5-7.349,17.348,17.348,0,0,0-7.077-4.112,33.862,33.862,0,0,0-18.571,0,17.424,17.424,0,0,0-7.078,4.112,18.525,18.525,0,0,0-4.5,7.349,33.157,33.157,0,0,0-1.581,10.927,33.2,33.2,0,0,0,1.581,10.961,18.573,18.573,0,0,0,4.5,7.315,17.412,17.412,0,0,0,7.078,4.112,33.887,33.887,0,0,0,18.571,0,17.336,17.336,0,0,0,7.077-4.112,18.562,18.562,0,0,0,4.5-7.315,33.171,33.171,0,0,0,1.581-10.961A33.13,33.13,0,0,0,293.845,28.366Zm-16.87,19.8a4.632,4.632,0,0,1-1,3.316,4.882,4.882,0,0,1-5.986,0,4.632,4.632,0,0,1-1-3.316V30.415a4.632,4.632,0,0,1,1-3.314,4.838,4.838,0,0,1,5.986,0,4.632,4.632,0,0,1,1,3.314Z" fill="#f2c41d"/>
        </g>
      </g>
      <g id="Grupo_958" data-name="Grupo 958">
        <path id="Trazado_11847" data-name="Trazado 11847" d="M76.43,18.463c1.112.523,2.105,1.025,2.968,1.5V34.647H65.3V30.415a4.636,4.636,0,0,0-1-3.314,4.841,4.841,0,0,0-5.988,0,4.6,4.6,0,0,0-1,3.314v8.878H38.852a33.13,33.13,0,0,1,1.581-10.927,18.525,18.525,0,0,1,4.5-7.349,17.357,17.357,0,0,1,7.076-4.112,31.252,31.252,0,0,1,9.281-1.3,43.232,43.232,0,0,1,6.293.414,39.834,39.834,0,0,1,4.961,1.025A24.044,24.044,0,0,1,76.43,18.463Z" fill="#ffe045"/>
        <path id="Trazado_11848" data-name="Trazado 11848" d="M122.189,39.293H105.951l-1.931-9.4h-.589l-1.93,9.4H88.209L94.5,16.435h21.4Z" fill="#ffe045"/>
        <path id="Trazado_11849" data-name="Trazado 11849" d="M159.493,16.632a27.676,27.676,0,0,1,7.526,2.737V29.892H154.686a2.574,2.574,0,0,0-.949-2.323,4.038,4.038,0,0,0-2.29-.621,5.868,5.868,0,0,0-2.792.5,1.851,1.851,0,0,0-.85,1.734,1.557,1.557,0,0,0,.915,1.472,18.667,18.667,0,0,0,2.727,1.057q3.4,1.115,6.433,2.345a21.557,21.557,0,0,1,5.323,3.065,13.6,13.6,0,0,1,2.18,2.17H133.388a11.424,11.424,0,0,1-2.509-3.609,14.79,14.79,0,0,1-1.058-5.913,16.022,16.022,0,0,1,1.026-5.909A10.763,10.763,0,0,1,134.2,19.4a16.071,16.071,0,0,1,6.172-2.823,39.683,39.683,0,0,1,9.5-.971A43.86,43.86,0,0,1,159.493,16.632Z" fill="#ffe045"/>
        <path id="Trazado_11850" data-name="Trazado 11850" d="M170.258,16.435h23.5v9.629h-3.521V39.293H173.78V26.064h-3.522Z" fill="#ffe045"/>
        <path id="Trazado_11851" data-name="Trazado 11851" d="M232.634,39.293h-17.35l-2.366-3.643v3.643h-13.51V26.064h-3.534V16.435h21.81Z" fill="#ffe045"/>
        <path id="Trazado_11852" data-name="Trazado 11852" d="M229.614,16.435h20.567v9.629h-3.533V39.293H233.136V26.064h-3.522Z" fill="#ffe045"/>
        <path id="Trazado_11853" data-name="Trazado 11853" d="M276.975,39.293V30.415a4.632,4.632,0,0,0-1-3.314,4.838,4.838,0,0,0-5.986,0,4.632,4.632,0,0,0-1,3.314v8.878H250.53a33.157,33.157,0,0,1,1.581-10.927,18.525,18.525,0,0,1,4.5-7.349,17.424,17.424,0,0,1,7.078-4.112,33.862,33.862,0,0,1,18.571,0,17.348,17.348,0,0,1,7.077,4.112,18.514,18.514,0,0,1,4.5,7.349,33.13,33.13,0,0,1,1.581,10.927Z" fill="#ffe045"/>
      </g>
    </g>
  </g>
</svg>
