<svg id="Grupo_1378" data-name="Grupo 1378" xmlns="http://www.w3.org/2000/svg" xmlns:xlink="http://www.w3.org/1999/xlink" width="97.073" height="94.254" viewBox="0 0 97.073 94.254">
  <defs>
    <clipPath id="clip-path">
      <path id="Trazado_12969" data-name="Trazado 12969" d="M191.234,232.527a18.925,18.925,0,0,0,1.676,7.816,19.431,19.431,0,0,0,4.191,5.94c.178.173.352.352.522.53a19.359,19.359,0,0,1,5.329,13.339,18.9,18.9,0,0,1-.27,3.2.309.309,0,0,1-.009.069,20.351,20.351,0,0,0-.293,3.411,18.88,18.88,0,0,0,.82,5.528,19.577,19.577,0,0,0,18.068,13.73h0a19.1,19.1,0,0,0,8.829-1.931c.22-.105.439-.216.659-.33a19.391,19.391,0,0,1,18.022,0q.331.171.659.33a19.127,19.127,0,0,0,8.351,1.936c.161,0,.317,0,.477-.006h0a19.578,19.578,0,0,0,18.068-13.73,19.254,19.254,0,0,0,.526-8.939.437.437,0,0,1-.009-.069,18.89,18.89,0,0,1-.27-3.2,19.359,19.359,0,0,1,5.329-13.339c.17-.178.345-.357.523-.53a19.442,19.442,0,0,0,4.19-5.94,18.925,18.925,0,0,0,1.676-7.816,19.255,19.255,0,0,0-16.6-19.268,19.257,19.257,0,0,1-2.239-.462l0-.006a19.237,19.237,0,0,1-10.986-7.82h0a18.242,18.242,0,0,1-1.341-2.3,19.8,19.8,0,0,0-2.949-4.4h0a19.445,19.445,0,0,0-28.818,0h-.006a19.851,19.851,0,0,0-2.948,4.4,18.145,18.145,0,0,1-1.343,2.3h0a19.275,19.275,0,0,1-10.984,7.82l-.006.006a19.311,19.311,0,0,1-2.238.462,19.67,19.67,0,0,0-5.793,1.768A19.465,19.465,0,0,0,191.234,232.527Z" transform="translate(-191.234 -191.88)" fill="none"/>
    </clipPath>
  </defs>
  <path id="Trazado_12963" data-name="Trazado 12963" d="M191.234,232.527a18.925,18.925,0,0,0,1.676,7.816,19.431,19.431,0,0,0,4.191,5.94c.178.173.352.352.522.53a19.359,19.359,0,0,1,5.329,13.339,18.9,18.9,0,0,1-.27,3.2.309.309,0,0,1-.009.069,20.351,20.351,0,0,0-.293,3.411,18.88,18.88,0,0,0,.82,5.528,19.577,19.577,0,0,0,18.068,13.73h0a19.1,19.1,0,0,0,8.829-1.931c.22-.105.439-.216.659-.33a19.391,19.391,0,0,1,18.022,0q.331.171.659.33a19.127,19.127,0,0,0,8.351,1.936c.161,0,.317,0,.477-.006h0a19.578,19.578,0,0,0,18.068-13.73,19.254,19.254,0,0,0,.526-8.939.437.437,0,0,1-.009-.069,18.89,18.89,0,0,1-.27-3.2,19.359,19.359,0,0,1,5.329-13.339c.17-.178.345-.357.523-.53a19.442,19.442,0,0,0,4.19-5.94,18.925,18.925,0,0,0,1.676-7.816,19.255,19.255,0,0,0-16.6-19.268,19.257,19.257,0,0,1-2.239-.462l0-.006a19.237,19.237,0,0,1-10.986-7.82h0a18.242,18.242,0,0,1-1.341-2.3,19.8,19.8,0,0,0-2.949-4.4h0a19.445,19.445,0,0,0-28.818,0h-.006a19.851,19.851,0,0,0-2.948,4.4,18.145,18.145,0,0,1-1.343,2.3h0a19.275,19.275,0,0,1-10.984,7.82l-.006.006a19.311,19.311,0,0,1-2.238.462,19.67,19.67,0,0,0-5.793,1.768A19.465,19.465,0,0,0,191.234,232.527Z" transform="translate(-191.234 -191.88)" fill="#4da600"/>
  <path id="Trazado_12964" data-name="Trazado 12964" d="M191.234,232.527a18.925,18.925,0,0,0,1.676,7.816,19.431,19.431,0,0,0,4.191,5.94c.178.173.352.352.522.53a19.359,19.359,0,0,1,5.329,13.339,18.9,18.9,0,0,1-.27,3.2.309.309,0,0,1-.009.069,20.351,20.351,0,0,0-.293,3.411,18.88,18.88,0,0,0,.82,5.528,19.577,19.577,0,0,0,18.068,13.73h0a19.1,19.1,0,0,0,8.829-1.931c.22-.105.439-.216.659-.33a19.391,19.391,0,0,1,18.022,0q.331.171.659.33a19.127,19.127,0,0,0,8.351,1.936c.161,0,.317,0,.477-.006h0a19.578,19.578,0,0,0,18.068-13.73,19.254,19.254,0,0,0,.526-8.939.437.437,0,0,1-.009-.069,18.89,18.89,0,0,1-.27-3.2,19.359,19.359,0,0,1,5.329-13.339c.17-.178.345-.357.523-.53a19.442,19.442,0,0,0,4.19-5.94,18.925,18.925,0,0,0,1.676-7.816,19.255,19.255,0,0,0-16.6-19.268,19.257,19.257,0,0,1-2.239-.462l0-.006a19.237,19.237,0,0,1-10.986-7.82h0a18.242,18.242,0,0,1-1.341-2.3,19.8,19.8,0,0,0-2.949-4.4h0a19.445,19.445,0,0,0-28.818,0h-.006a19.851,19.851,0,0,0-2.948,4.4,18.145,18.145,0,0,1-1.343,2.3h0a19.275,19.275,0,0,1-10.984,7.82l-.006.006a19.311,19.311,0,0,1-2.238.462,19.67,19.67,0,0,0-5.793,1.768A19.465,19.465,0,0,0,191.234,232.527Z" transform="translate(-191.234 -191.88)" fill="#4da600"/>
  <path id="Trazado_12965" data-name="Trazado 12965" d="M191.234,232.527a18.925,18.925,0,0,0,1.676,7.816,19.431,19.431,0,0,0,4.191,5.94c.178.173.352.352.522.53a19.359,19.359,0,0,1,5.329,13.339,18.9,18.9,0,0,1-.27,3.2.309.309,0,0,1-.009.069,20.351,20.351,0,0,0-.293,3.411,18.88,18.88,0,0,0,.82,5.528,19.577,19.577,0,0,0,18.068,13.73h0a19.1,19.1,0,0,0,8.829-1.931c.22-.105.439-.216.659-.33a19.391,19.391,0,0,1,18.022,0q.331.171.659.33a19.127,19.127,0,0,0,8.351,1.936c.161,0,.317,0,.477-.006h0a19.578,19.578,0,0,0,18.068-13.73,19.254,19.254,0,0,0,.526-8.939.437.437,0,0,1-.009-.069,18.89,18.89,0,0,1-.27-3.2,19.359,19.359,0,0,1,5.329-13.339c.17-.178.345-.357.523-.53a19.442,19.442,0,0,0,4.19-5.94,18.925,18.925,0,0,0,1.676-7.816,19.255,19.255,0,0,0-16.6-19.268,19.257,19.257,0,0,1-2.239-.462l0-.006a19.237,19.237,0,0,1-10.986-7.82h0a18.242,18.242,0,0,1-1.341-2.3,19.8,19.8,0,0,0-2.949-4.4h0a19.445,19.445,0,0,0-28.818,0h-.006a19.851,19.851,0,0,0-2.948,4.4,18.145,18.145,0,0,1-1.343,2.3h0a19.275,19.275,0,0,1-10.984,7.82l-.006.006a19.311,19.311,0,0,1-2.238.462,19.67,19.67,0,0,0-5.793,1.768A19.465,19.465,0,0,0,191.234,232.527Z" transform="translate(-191.234 -191.88)" fill="#4da600"/>
  <g id="Grupo_1043" data-name="Grupo 1043" transform="translate(0)">
    <g id="Grupo_1042" data-name="Grupo 1042" clip-path="url(#clip-path)">
      <path id="Trazado_12966" data-name="Trazado 12966" d="M191.234,232.527a18.925,18.925,0,0,0,1.676,7.816,19.431,19.431,0,0,0,4.191,5.94c.178.173.352.352.522.53a19.359,19.359,0,0,1,5.329,13.339,18.9,18.9,0,0,1-.27,3.2.309.309,0,0,1-.009.069,20.351,20.351,0,0,0-.293,3.411,18.88,18.88,0,0,0,.82,5.528,19.577,19.577,0,0,0,18.068,13.73h0a19.1,19.1,0,0,0,8.829-1.931c.22-.105.439-.216.659-.33a19.391,19.391,0,0,1,18.022,0q.331.171.659.33a19.127,19.127,0,0,0,8.351,1.936c.161,0,.317,0,.477-.006h0a19.578,19.578,0,0,0,18.068-13.73,19.254,19.254,0,0,0,.526-8.939.437.437,0,0,1-.009-.069,18.89,18.89,0,0,1-.27-3.2,19.359,19.359,0,0,1,5.329-13.339c.17-.178.345-.357.523-.53a19.442,19.442,0,0,0,4.19-5.94,18.925,18.925,0,0,0,1.676-7.816,19.255,19.255,0,0,0-16.6-19.268,19.257,19.257,0,0,1-2.239-.462l0-.006a19.237,19.237,0,0,1-10.986-7.82h0a18.242,18.242,0,0,1-1.341-2.3,19.8,19.8,0,0,0-2.949-4.4h0a19.445,19.445,0,0,0-28.818,0h-.006a19.851,19.851,0,0,0-2.948,4.4,18.145,18.145,0,0,1-1.343,2.3h0a19.275,19.275,0,0,1-10.984,7.82l-.006.006a19.311,19.311,0,0,1-2.238.462,19.67,19.67,0,0,0-5.793,1.768A19.465,19.465,0,0,0,191.234,232.527Z" transform="translate(-191.234 -191.88)" fill="#e17906"/>
      <path id="Trazado_12967" data-name="Trazado 12967" d="M195.38,232.148c.544-11.7,14.083-12.419,24.392-19.69,6.687-4.717,8.543-13.429,13.371-16.056,12.272-6.677,22.353,1.07,20.351,13.485-2.2,13.665-25.567,50.474-39.752,45.84C209.03,254.187,194.765,245.4,195.38,232.148Z" transform="translate(-192.015 -192.271)" fill="#fff" opacity="0.2" style="mix-blend-mode: screen;isolation: isolate"/>
      <path id="Trazado_12968" data-name="Trazado 12968" d="M197.054,231.684c.511-9.011,16.25-12.435,23.234-18.158,4.531-3.715,10.677-13.756,13.939-15.839,8.287-5.293,16.158-2.7,17.6,6.887,1.333,8.864-17.256,7.924-26.757,15.241-12.328,9.5-9.737,17.77-15.8,20.5C203.894,242.74,196.476,241.885,197.054,231.684Z" transform="translate(-192.329 -192.468)" fill="#fff" opacity="0.22" style="mix-blend-mode: screen;isolation: isolate"/>
    </g>
  </g>
  <path id="Trazado_12970" data-name="Trazado 12970" d="M214.67,247.967A29.534,29.534,0,1,0,244.2,218.432,29.533,29.533,0,0,0,214.67,247.967Zm2.9,0A26.635,26.635,0,1,1,244.2,274.6,26.637,26.637,0,0,1,217.568,247.967Z" transform="translate(-195.667 -196.902)" fill="#f9bf6b"/>
  <path id="Trazado_12971" data-name="Trazado 12971" d="M254.534,282.351c24.245-2.415,18.03-19.028,21.777-27.369,4.418-9.837,14.707-15.071,8.2-34.556a19.465,19.465,0,0,1,10.807,17.5,18.926,18.926,0,0,1-1.676,7.816,19.44,19.44,0,0,1-4.19,5.94c-.178.173-.353.352-.523.53A19.359,19.359,0,0,0,283.6,265.55a18.889,18.889,0,0,0,.27,3.2.448.448,0,0,0,.009.069,19.253,19.253,0,0,1-.526,8.939,19.578,19.578,0,0,1-18.068,13.73h0c-.16.006-.315.006-.477.006a19.127,19.127,0,0,1-8.351-1.936q-.328-.158-.659-.33a19.391,19.391,0,0,0-18.022,0c-.221.114-.439.225-.659.33a17.983,17.983,0,0,1-8.829,1.931C235.894,285.578,241.72,283.627,254.534,282.351Z" transform="translate(-198.24 -197.279)" fill="#d1ad8f" opacity="0.5" style="mix-blend-mode: multiply;isolation: isolate"/>
  <path id="Trazado_12972" data-name="Trazado 12972" d="M231.61,251.171a15.8,15.8,0,1,0,15.8-15.8A15.8,15.8,0,0,0,231.61,251.171Zm1.55,0a14.246,14.246,0,1,1,14.248,14.247A14.249,14.249,0,0,1,233.16,251.171Z" transform="translate(-198.871 -200.106)" fill="#f9bf6b"/>
  <path id="Trazado_12973" data-name="Trazado 12973" d="M242.9,253.307a6.639,6.639,0,1,0,6.64-6.639A6.639,6.639,0,0,0,242.9,253.307Zm.652,0a5.987,5.987,0,1,1,5.988,5.987A5.988,5.988,0,0,1,243.556,253.307Z" transform="translate(-201.007 -202.243)" fill="#f9bf6b"/>
  <path id="Trazado_12974" data-name="Trazado 12974" d="M264.009,289.126c14.515,3.462,19.582-8.827,18.974-18.4-.44-6.943,0-9.867,1.537-13.292,4.418-9.837,7.92-8.654,9.978-15.112s.939-9.507-1.85-16.317a19.755,19.755,0,0,1,4.879,12.979,18.924,18.924,0,0,1-1.676,7.816,19.442,19.442,0,0,1-4.19,5.94c-.178.173-.353.352-.523.53a19.358,19.358,0,0,0-5.329,13.339,18.893,18.893,0,0,0,.27,3.2.445.445,0,0,0,.009.069,19.254,19.254,0,0,1-.526,8.939,19.578,19.578,0,0,1-18.068,13.73h0c-.16.006-.315.006-.477.006a19.126,19.126,0,0,1-8.351-1.936q-.328-.158-.659-.33a19.391,19.391,0,0,0-18.022,0C244.338,287.8,245.079,284.608,264.009,289.126Z" transform="translate(-200.454 -198.334)" fill="#d1ad8f" opacity="0.5" style="mix-blend-mode: multiply;isolation: isolate"/>
  <path id="Trazado_12975" data-name="Trazado 12975" d="M212.458,225.606s-15.436,3.809-11.859,18.99C200.6,244.6,201.067,233.372,212.458,225.606Z" transform="translate(-192.904 -198.259)" fill="#fff"/>
  <path id="Trazado_12976" data-name="Trazado 12976" d="M258.129,199.871s-10.1-7.891-18.457,2.159A22.277,22.277,0,0,1,258.129,199.871Z" transform="translate(-200.396 -192.834)" fill="#fff"/>
</svg>
