<svg xmlns="http://www.w3.org/2000/svg" xmlns:xlink="http://www.w3.org/1999/xlink" width="115.03" height="103.966" viewBox="0 0 115.03 103.966">
  <defs>
    <clipPath id="clip-path">
      <path id="Trazado_13053" data-name="Trazado 13053" d="M387.97,85.583c7.162-7.408,20.373-7.934,29.425-1.315,9.011,6.588,10.714,17.943,3.907,25.538l.009,0-58.418,62.34a5.936,5.936,0,0,1-7.648.432l-1.781-1.3c-2.374-1.739-2.8-4.744-.946-6.72l58.145-62.05c2.612-2.783,1.923-7.084-1.534-9.609s-8.36-2.32-10.97.459l-2.136,2.276a5.935,5.935,0,0,1-7.65.432l-1.778-1.3c-2.372-1.735-2.8-4.742-.95-6.716l2.319-2.474Z" transform="translate(-351.363 -79.643)" fill="none"/>
    </clipPath>
  </defs>
  <g id="Grupo_1080" data-name="Grupo 1080" transform="translate(0 68.707) rotate(-68)">
    <g id="Grupo_1079" data-name="Grupo 1079" transform="translate(0)">
      <g id="Grupo_1078" data-name="Grupo 1078" clip-path="url(#clip-path)">
        <path id="Trazado_13032" data-name="Trazado 13032" d="M387.97,85.583c7.162-7.408,20.373-7.934,29.425-1.315,9.011,6.588,10.714,17.943,3.907,25.538l.009,0-58.418,62.34a5.936,5.936,0,0,1-7.648.432l-1.781-1.3c-2.374-1.739-2.8-4.744-.946-6.72l58.145-62.05c2.612-2.783,1.923-7.084-1.534-9.609s-8.36-2.32-10.97.459l-2.136,2.276a5.935,5.935,0,0,1-7.65.432l-1.778-1.3c-2.372-1.735-2.8-4.742-.95-6.716l2.319-2.474Z" transform="translate(-351.363 -79.643)" fill="#cf181f"/>
        <path id="Trazado_13033" data-name="Trazado 13033" d="M387.97,85.583c7.162-7.408,20.373-7.934,29.425-1.315,9.011,6.588,10.714,17.943,3.907,25.538l.009,0-58.418,62.34a5.936,5.936,0,0,1-7.648.432l-1.781-1.3c-2.374-1.739-2.8-4.744-.946-6.72l58.145-62.05c2.612-2.783,1.923-7.084-1.534-9.609s-8.36-2.32-10.97.459l-2.136,2.276a5.935,5.935,0,0,1-7.65.432l-1.778-1.3c-2.372-1.735-2.8-4.742-.95-6.716l2.319-2.474Z" transform="translate(-351.363 -79.643)" fill="#cf181f"/>
        <g id="Grupo_1070" data-name="Grupo 1070" transform="translate(-12.976 76.041)">
          <path id="Trazado_13034" data-name="Trazado 13034" d="M336.15,176.529l5.136-7.57s12.813,9.8,43.516-.165l-5.815,9.12S357.2,188.5,336.15,176.529Z" transform="translate(-336.15 -168.794)" fill="#f2f2f2"/>
        </g>
        <g id="Grupo_1071" data-name="Grupo 1071" transform="translate(-9.94 -19.309)">
          <path id="Trazado_13035" data-name="Trazado 13035" d="M339.709,166.669l2.817-.229s12.813,9.8,43.516-.166l-3.5,1.778S361.253,177.538,339.709,166.669Z" transform="translate(-339.709 -73.073)" fill="#f2f2f2"/>
          <path id="Trazado_13036" data-name="Trazado 13036" d="M353.554,155.386l2.817-.229s12.813,9.8,43.516-.165l-3.5,1.779S375.1,166.256,353.554,155.386Z" transform="translate(-341.745 -71.413)" fill="#fcfffd"/>
          <path id="Trazado_13037" data-name="Trazado 13037" d="M365.059,141.793l2.781-.5s13.7,8.518,43.3-4.355l-3.31,2.107S387.548,150.539,365.059,141.793Z" transform="translate(-343.437 -68.759)" fill="#f2f2f2"/>
          <path id="Trazado_13038" data-name="Trazado 13038" d="M384.574,130.817l.745-2.377s11.536,10.5,41.136-2.375l-3.31,2.107S405.41,138.816,384.574,130.817Z" transform="translate(-346.307 -67.16)" fill="#f2f2f2"/>
          <path id="Trazado_13039" data-name="Trazado 13039" d="M389.138,115.029l.424-1.353s17.585,6.789,47.187-6.084l-3.31,2.107S409.969,123.029,389.138,115.029Z" transform="translate(-346.978 -64.443)" fill="#f2f2f2"/>
          <path id="Trazado_13040" data-name="Trazado 13040" d="M403.9,106.591l.239-1.4s14.483,6.178,42.084-10.557l.859.716S424.992,111.194,403.9,106.591Z" transform="translate(-349.148 -62.538)" fill="#f2f2f2"/>
          <path id="Trazado_13041" data-name="Trazado 13041" d="M403.158,91.823l.238-1.4S417.88,96.6,445.48,79.868l.861.716S424.254,96.426,403.158,91.823Z" transform="translate(-349.039 -60.366)" fill="#f2f2f2"/>
          <path id="Trazado_13042" data-name="Trazado 13042" d="M406.2,101.228l-1.2-.75s11.2-11.066,6.169-42.948l.989-.525S418.454,83.446,406.2,101.228Z" transform="translate(-349.31 -57.004)" fill="#f2f2f2"/>
          <path id="Trazado_13043" data-name="Trazado 13043" d="M390.362,101.345l-1.146-.836s11.969-10.231,9.237-42.394l1.024-.452S403.859,84.489,390.362,101.345Z" transform="translate(-346.989 -57.101)" fill="#f2f2f2"/>
        </g>
        <g id="Grupo_1072" data-name="Grupo 1072" transform="translate(-13.743 85.751)">
          <path id="Trazado_13044" data-name="Trazado 13044" d="M335.251,180.407l2.817-.229s13.332,9.9,41.727.4l-1.708,1.214S356.794,191.276,335.251,180.407Z" transform="translate(-335.251 -180.178)" fill="#fcfffd"/>
        </g>
        <g id="Grupo_1073" data-name="Grupo 1073" transform="translate(4.399 53.283)">
          <path id="Trazado_13045" data-name="Trazado 13045" d="M356.52,151.235l8.764-8.762s9.242,10.475,39.647-.361l-5.552,9.282S377.9,162.6,356.52,151.235Z" transform="translate(-356.52 -142.112)" fill="#f2f2f2"/>
        </g>
        <g id="Grupo_1074" data-name="Grupo 1074" transform="translate(27.318 28.325)">
          <path id="Trazado_13046" data-name="Trazado 13046" d="M383.391,125.235l4.383-8.029s13.7,8.517,43.3-4.355l-4.913,9.637S405.493,135.12,383.391,125.235Z" transform="translate(-383.391 -112.851)" fill="#f2f2f2"/>
        </g>
        <g id="Grupo_1075" data-name="Grupo 1075" transform="translate(47.012 -1.187)">
          <path id="Trazado_13047" data-name="Trazado 13047" d="M406.48,101.4l2.394-8.829s15.3,5.094,41.093-14.316l-2.532,10.516S430.275,105.863,406.48,101.4Z" transform="translate(-406.48 -78.251)" fill="#f2f2f2"/>
        </g>
        <g id="Grupo_1076" data-name="Grupo 1076" transform="translate(37.008 -22.611)">
          <path id="Trazado_13048" data-name="Trazado 13048" d="M401.79,102.3l-7.038-5.841s10.985-11.811,4.027-43.331l8.516,6.668S415.729,82.509,401.79,102.3Z" transform="translate(-394.752 -53.133)" fill="#f2f2f2"/>
        </g>
        <path id="Trazado_13049" data-name="Trazado 13049" d="M387.97,85.583c7.162-7.408,20.373-7.934,29.425-1.315,9.011,6.588,10.714,17.943,3.907,25.538l.009,0-58.418,62.34a5.936,5.936,0,0,1-7.648.432l-1.781-1.3c-2.374-1.739-2.8-4.744-.946-6.72l58.145-62.05c2.612-2.783,1.923-7.084-1.534-9.609s-8.36-2.32-10.97.459l-2.136,2.276a5.935,5.935,0,0,1-7.65.432l-1.778-1.3c-2.372-1.735-2.8-4.742-.95-6.716l2.319-2.474Z" transform="translate(-351.363 -79.643)" fill="none"/>
        <path id="Trazado_13050" data-name="Trazado 13050" d="M387.97,85.583c7.162-7.408,20.373-7.934,29.425-1.315,9.011,6.588,10.714,17.943,3.907,25.538l.009,0-58.418,62.34a5.936,5.936,0,0,1-7.648.432l-1.781-1.3c-2.374-1.739-2.8-4.744-.946-6.72l58.145-62.05c2.612-2.783,1.923-7.084-1.534-9.609s-8.36-2.32-10.97.459l-2.136,2.276a5.935,5.935,0,0,1-7.65.432l-1.778-1.3c-2.372-1.735-2.8-4.742-.95-6.716l2.319-2.474Z" transform="translate(-351.363 -79.643)" fill="none"/>
        <g id="Grupo_1077" data-name="Grupo 1077" transform="translate(1.324 3.433)" opacity="0.18" style="mix-blend-mode: multiply;isolation: isolate">
          <path id="Trazado_13051" data-name="Trazado 13051" d="M398.505,94.656l2.131-2.278c2.611-2.78,7.516-2.985,10.971-.457a8.4,8.4,0,0,1,1.545,1.46c-3.179-1.3-6.9-.77-9.054,1.527l-2.136,2.276a5.935,5.935,0,0,1-7.65.432l-1.778-1.3a5.622,5.622,0,0,1-.774-.682A5.854,5.854,0,0,0,398.505,94.656Z" transform="translate(-358.627 -84.621)" fill="#ce939a" style="mix-blend-mode: multiply;isolation: isolate"/>
          <path id="Trazado_13052" data-name="Trazado 13052" d="M360.958,170.375l58.213-61.625c6.364-7.1,4.188-18.374-3.349-25.083.617.369,1.216.765,1.8,1.192,9.011,6.588,10.714,17.943,3.907,25.538l.009,0-58.418,62.34a5.936,5.936,0,0,1-7.648.432l-1.781-1.3a6.1,6.1,0,0,1-.775-.683C355.193,172.305,359.331,172.109,360.958,170.375Z" transform="translate(-352.915 -83.667)" fill="#ce939a" style="mix-blend-mode: multiply;isolation: isolate"/>
        </g>
      </g>
    </g>
    <path id="Trazado_13054" data-name="Trazado 13054" d="M360.607,167.161a1.89,1.89,0,0,1-2.669.041h0a1.889,1.889,0,0,1-.04-2.667s38.9-38.864,47.275-48.673,15.292-14.544,10.387-6.974S360.607,167.161,360.607,167.161Z" transform="translate(-352.246 -83.393)" fill="#fff" opacity="0.5" style="mix-blend-mode: screen;isolation: isolate"/>
    <path id="Trazado_13055" data-name="Trazado 13055" d="M415.625,82.59c-4.327-4.349-16.148-1.9-21.133,3.39s-.869,6.491,1.27,3.235C402.844,80,415.625,82.59,415.625,82.59Z" transform="translate(-357.358 -79.747)" fill="#fff" opacity="0.5" style="mix-blend-mode: screen;isolation: isolate"/>
  </g>
</svg>
