<svg xmlns="http://www.w3.org/2000/svg" width="135.596" height="120.019" viewBox="0 0 135.596 120.019">
  <g id="Grupo_15890" data-name="Grupo 15890" transform="translate(-1007.391 -1976.526)">
    <g id="Grupo_1379" data-name="Grupo 1379" transform="translate(1059.042 1986.205)">
      <path id="Trazado_12888" data-name="Trazado 12888" d="M55.119,248.709a42.1,42.1,0,0,0,.618,7.2,41.677,41.677,0,0,0,6.357,15.978,42.224,42.224,0,0,0,10.847,11.158,41.783,41.783,0,0,0,15.784,6.805,42.307,42.307,0,0,0,15.563.217,41.686,41.686,0,0,0,15.977-6.357,42.229,42.229,0,0,0,11.159-10.847,41.975,41.975,0,0,0-57.508-59.148,42.246,42.246,0,0,0-11.158,10.847,41.825,41.825,0,0,0-7.64,24.151Z" transform="translate(-55.119 -206.737)" fill="#7021cc"/>
      <g id="Grupo_1025" data-name="Grupo 1025" transform="translate(0 0)">
        <g id="Grupo_1024" data-name="Grupo 1024" transform="translate(0)">
          <g id="Grupo_1023" data-name="Grupo 1023">
            <g id="Grupo_1015" data-name="Grupo 1015" transform="translate(29.155)">
              <path id="Trazado_12889" data-name="Trazado 12889" d="M99.943,245.12a29.024,29.024,0,0,0,4.169,3.462,29.134,29.134,0,0,1,8.494-41.01,42.281,42.281,0,0,0-15.563-.218A29.1,29.1,0,0,0,99.943,245.12Z" transform="translate(-91.421 -206.737)" fill="#ddc7ff"/>
            </g>
            <g id="Grupo_1016" data-name="Grupo 1016" transform="translate(41.472 7.641)">
              <path id="Trazado_12890" data-name="Trazado 12890" d="M106.759,245.009a29.066,29.066,0,0,0,.5,5.4,29.125,29.125,0,0,1,35-22.994,42.226,42.226,0,0,0-10.847-11.158A29.1,29.1,0,0,0,106.759,245.009Z" transform="translate(-106.759 -216.251)" fill="#ddc7ff"/>
            </g>
            <g id="Grupo_1017" data-name="Grupo 1017" transform="translate(42.1 29.155)">
              <path id="Trazado_12891" data-name="Trazado 12891" d="M107.54,255.731a29.137,29.137,0,0,1,41.011,8.494,42.307,42.307,0,0,0,.217-15.563,29.121,29.121,0,0,0-41.227,7.07Z" transform="translate(-107.54 -243.04)" fill="#ddc7ff"/>
            </g>
            <g id="Grupo_1018" data-name="Grupo 1018" transform="translate(42.151 41.472)">
              <path id="Trazado_12892" data-name="Trazado 12892" d="M131.307,287.47a29.2,29.2,0,0,1-.708,6.4,42.228,42.228,0,0,0,11.159-10.847A29.125,29.125,0,0,0,107.6,258.877,29.1,29.1,0,0,1,131.307,287.47Z" transform="translate(-107.604 -258.377)" fill="#ddc7ff"/>
            </g>
            <g id="Grupo_1019" data-name="Grupo 1019" transform="translate(33.606 42.099)">
              <path id="Trazado_12893" data-name="Trazado 12893" d="M96.964,300.169a42.309,42.309,0,0,0,15.563.217,29.125,29.125,0,0,0-7.07-41.228,29.14,29.14,0,0,1-8.494,41.011Z" transform="translate(-96.964 -259.158)" fill="#ddc7ff"/>
            </g>
            <g id="Grupo_1020" data-name="Grupo 1020" transform="translate(6.975 42.152)">
              <path id="Trazado_12894" data-name="Trazado 12894" d="M63.8,282.218a42.227,42.227,0,0,0,10.847,11.158A29.129,29.129,0,0,0,98.8,259.223a29.126,29.126,0,0,1-35,23Z" transform="translate(-63.804 -259.223)" fill="#ddc7ff"/>
            </g>
            <g id="Grupo_1021" data-name="Grupo 1021" transform="translate(0 33.607)">
              <path id="Trazado_12895" data-name="Trazado 12895" d="M55.119,256.949a42.1,42.1,0,0,0,.618,7.2,29.118,29.118,0,0,0,41.227-7.07,29.136,29.136,0,0,1-41.011-8.493A42.159,42.159,0,0,0,55.119,256.949Z" transform="translate(-55.119 -248.583)" fill="#ddc7ff"/>
            </g>
            <g id="Grupo_1022" data-name="Grupo 1022" transform="translate(7.64 6.975)">
              <path id="Trazado_12896" data-name="Trazado 12896" d="M64.632,226.269A29.123,29.123,0,0,0,98.785,250.42a29.13,29.13,0,0,1-23-35A42.247,42.247,0,0,0,64.632,226.269Z" transform="translate(-64.632 -215.422)" fill="#ddc7ff"/>
            </g>
          </g>
        </g>
        <path id="Trazado_12897" data-name="Trazado 12897" d="M97.692,257.092a7.781,7.781,0,1,0,7.782-7.782A7.782,7.782,0,0,0,97.692,257.092Z" transform="translate(-63.501 -215.12)" fill="#ddc7ff"/>
      </g>
      <path id="Trazado_12898" data-name="Trazado 12898" d="M102.1,257.959a4.244,4.244,0,1,0,4.244-4.244A4.244,4.244,0,0,0,102.1,257.959Z" transform="translate(-64.368 -215.987)" fill="#7021cc"/>
      <path id="Trazado_12899" data-name="Trazado 12899" d="M141.607,298.49" transform="translate(-72.148 -224.803)" fill="#fff"/>
      <path id="Trazado_12900" data-name="Trazado 12900" d="M115.636,210.178a41.991,41.991,0,1,1-42.5,70.906C130.344,294.684,151.425,244.088,115.636,210.178Z" transform="translate(-58.666 -207.414)" fill="#d4c4f2" opacity="0.5" style="mix-blend-mode: multiply;isolation: isolate"/>
      <path id="Trazado_12901" data-name="Trazado 12901" d="M90.7,288.968a42.325,42.325,0,0,0,15.563.218,41.675,41.675,0,0,0,15.979-6.358A42.219,42.219,0,0,0,133.4,271.981a41.971,41.971,0,0,0,.666-47.325,41.935,41.935,0,0,0-15.51-14A41.977,41.977,0,1,1,83.111,286.66,41.689,41.689,0,0,0,90.7,288.968Z" transform="translate(-60.63 -207.508)" fill="#d4c4f2" opacity="0.9" style="mix-blend-mode: multiply;isolation: isolate"/>
      <path id="Trazado_12902" data-name="Trazado 12902" d="M117.951,215.545" transform="translate(-67.49 -208.471)" fill="#ccc"/>
      <path id="Trazado_12903" data-name="Trazado 12903" d="M80.957,253.8a21.222,21.222,0,1,0,21.222-21.222A21.222,21.222,0,0,0,80.957,253.8Z" transform="translate(-60.206 -211.824)" fill="#d4c4f2" opacity="0.5" style="mix-blend-mode: multiply;isolation: isolate"/>
      <path id="Trazado_12904" data-name="Trazado 12904" d="M90.263,255.63a13.748,13.748,0,1,0,13.748-13.747A13.749,13.749,0,0,0,90.263,255.63Z" transform="translate(-62.038 -213.657)" fill="#d4c4f2" opacity="0.8" style="mix-blend-mode: multiply;isolation: isolate"/>
      <path id="Trazado_12905" data-name="Trazado 12905" d="M69.735,270.46c6.189.38,3.294-26.036,16.061-36.657s35.074-5.038,34.933-10.409c-.218-8.273-13.62-12.6-25.571-13.077-16.9-.675-35.488,13.671-35.926,31.071C58.922,253.685,60.707,269.907,69.735,270.46Z" transform="translate(-55.922 -207.437)" fill="#fff" opacity="0.2" style="mix-blend-mode: screen;isolation: isolate"/>
      <path id="Trazado_12906" data-name="Trazado 12906" d="M94.89,210.656c9.647-.1,20.139,4.552,19.571,7.96-.332,1.99-18.243-4.654-33.677,9.816-15.922,14.927-8.468,35.34-10.772,35.627-2.653.332-11.39-12.634-9.95-24.545C62.077,222.831,79.621,210.819,94.89,210.656Z" transform="translate(-56.061 -207.508)" fill="#fff" opacity="0.22" style="mix-blend-mode: screen;isolation: isolate"/>
      <path id="Trazado_12907" data-name="Trazado 12907" d="M107.62,215.434c.122-1.079-7.48-4.265-15.844-3.646-11.9.88-24.365,9.395-28.538,21.526-3.366,9.785-.6,19.8.6,19.844,1.151.043-.056-9.086,5.488-18.7,7.006-12.148,19.806-16.42,21.245-16.877C99.912,214.608,107.5,216.5,107.62,215.434Z" transform="translate(-56.4 -207.716)" fill="#fff" opacity="0.37" style="mix-blend-mode: screen;isolation: isolate"/>
      <path id="Trazado_12908" data-name="Trazado 12908" d="M92.894,213.293c2.263-.268,6.744.442,5.086,1.106a65.691,65.691,0,0,0-15.7,7.077c-2.874,1.769-5.086-.332-3.759-1.769S86.37,214.067,92.894,213.293Z" transform="translate(-59.648 -208.016)" fill="#fff" style="mix-blend-mode: screen;isolation: isolate"/>
      <path id="Trazado_12909" data-name="Trazado 12909" d="M72.353,224.781c.8-.667,4.081.318,3.538.774a35.657,35.657,0,0,0-10.5,13.711C62.733,245.126,64.392,231.415,72.353,224.781Z" transform="translate(-56.91 -210.245)" fill="#fff" style="mix-blend-mode: screen;isolation: isolate"/>
    </g>
    <g id="Grupo_1380" data-name="Grupo 1380" transform="translate(1007.391 1976.526)">
      <path id="Trazado_12923" data-name="Trazado 12923" d="M198.536,380.149c0,.392.005.784.016,1.171a46.824,46.824,0,0,0,90.669,15.189,46.255,46.255,0,0,0,2.892-14.483.388.388,0,0,0,.005-.078c.032-.6.042-1.2.042-1.8a46.764,46.764,0,0,0-46.812-46.812,46.864,46.864,0,0,0-42.55,27.281c-.581,1.26-1.109,2.553-1.574,3.87a46.219,46.219,0,0,0-2.146,8.51A46.745,46.745,0,0,0,198.536,380.149Z" transform="translate(-198.536 -333.337)" fill="#fbf2e3"/>
      <g id="Grupo_1030" data-name="Grupo 1030" transform="translate(58.581 12.553)">
        <path id="Trazado_12924" data-name="Trazado 12924" d="M271.352,351.614a4.184,4.184,0,1,0,4.185-4.184A4.184,4.184,0,0,0,271.352,351.614Z" transform="translate(-265.075 -347.43)" fill="#fc2b45"/>
        <path id="Trazado_12925" data-name="Trazado 12925" d="M264.3,360.678a2.092,2.092,0,1,0,2.092-2.091A2.092,2.092,0,0,0,264.3,360.678Z" transform="translate(-264.305 -348.649)" fill="#fc2b45"/>
      </g>
      <g id="Grupo_1031" data-name="Grupo 1031" transform="translate(71.258 45.512)">
        <path id="Trazado_12926" data-name="Trazado 12926" d="M290.608,386.378a4.184,4.184,0,1,0,5.716,1.532A4.185,4.185,0,0,0,290.608,386.378Z" transform="translate(-279.629 -384.585)" fill="#fc2b45"/>
        <path id="Trazado_12927" data-name="Trazado 12927" d="M279.585,384.715a2.092,2.092,0,1,0,2.858.766A2.093,2.093,0,0,0,279.585,384.715Z" transform="translate(-278.538 -384.434)" fill="#fc2b45"/>
      </g>
      <g id="Grupo_1032" data-name="Grupo 1032" transform="translate(57.659 68.003)">
        <path id="Trazado_12928" data-name="Trazado 12928" d="M270.129,420.438a4.184,4.184,0,1,0,1.532,5.716A4.183,4.183,0,0,0,270.129,420.438Z" transform="translate(-263.334 -410.799)" fill="#fc2b45"/>
        <path id="Trazado_12929" data-name="Trazado 12929" d="M266.409,409.966a2.092,2.092,0,1,0,.766,2.857A2.092,2.092,0,0,0,266.409,409.966Z" transform="translate(-263.271 -409.685)" fill="#fc2b45"/>
      </g>
      <g id="Grupo_1033" data-name="Grupo 1033" transform="translate(20.922 67.472)">
        <path id="Trazado_12930" data-name="Trazado 12930" d="M230.394,419.732a4.185,4.185,0,1,0-4.185,4.185A4.184,4.184,0,0,0,230.394,419.732Z" transform="translate(-222.025 -409.794)" fill="#fc2b45"/>
        <path id="Trazado_12931" data-name="Trazado 12931" d="M237.954,411.181a2.092,2.092,0,1,0-2.092,2.091A2.092,2.092,0,0,0,237.954,411.181Z" transform="translate(-223.309 -409.088)" fill="#fc2b45"/>
      </g>
      <g id="Grupo_1034" data-name="Grupo 1034" transform="translate(5.633 39.031)">
        <path id="Trazado_12932" data-name="Trazado 12932" d="M211.137,384.967a4.184,4.184,0,1,0-5.716-1.531A4.184,4.184,0,0,0,211.137,384.967Z" transform="translate(-204.86 -377.158)" fill="#fc2b45"/>
        <path id="Trazado_12933" data-name="Trazado 12933" d="M252.946,389.393a4.184,4.184,0,1,0-5.716-1.532A4.183,4.183,0,0,0,252.946,389.393Z" transform="translate(-209.43 -377.642)" fill="#fc2b45"/>
        <path id="Trazado_12934" data-name="Trazado 12934" d="M252.946,389.393a4.184,4.184,0,1,0-5.716-1.532A4.183,4.183,0,0,0,252.946,389.393Z" transform="translate(-209.43 -377.642)" fill="#fc2b45"/>
        <path id="Trazado_12935" data-name="Trazado 12935" d="M222.674,387.145a2.092,2.092,0,1,0-2.857-.766A2.093,2.093,0,0,0,222.674,387.145Z" transform="translate(-206.464 -377.823)" fill="#fc2b45"/>
      </g>
      <g id="Grupo_1035" data-name="Grupo 1035" transform="translate(27.6 8.695)">
        <path id="Trazado_12936" data-name="Trazado 12936" d="M231.616,350.908a4.184,4.184,0,1,0-1.532-5.716A4.184,4.184,0,0,0,231.616,350.908Z" transform="translate(-229.523 -343.1)" fill="#fc2b45"/>
        <path id="Trazado_12937" data-name="Trazado 12937" d="M235.849,361.894a2.092,2.092,0,1,0-.765-2.858A2.092,2.092,0,0,0,235.849,361.894Z" transform="translate(-230.1 -344.727)" fill="#fc2b45"/>
      </g>
      <path id="Trazado_12938" data-name="Trazado 12938" d="M227.674,417a46.87,46.87,0,0,0,54.411-29.259,46.243,46.243,0,0,0,1.789-6,45.717,45.717,0,0,0,1.1-8.483.4.4,0,0,0,.005-.079c.031-.6.042-1.2.042-1.8a46.547,46.547,0,0,0-5.8-22.561c1.028,1.033,2.016,2.108,2.945,3.234a46.709,46.709,0,0,1,10.7,29.788c0,.6-.01,1.2-.042,1.8a.39.39,0,0,1-.005.078,46.253,46.253,0,0,1-2.892,14.483,46.838,46.838,0,0,1-84.9,6.195A46.716,46.716,0,0,0,227.674,417Z" transform="translate(-199.246 -335.029)" fill="#d3a7af" opacity="0.3" style="mix-blend-mode: multiply;isolation: isolate"/>
      <g id="Grupo_1036" data-name="Grupo 1036" transform="translate(2.129 0)">
        <path id="Trazado_12939" data-name="Trazado 12939" d="M250.243,380.405c-11.5-16.356,3.143-17.266,10.467-32.261,2.651-5.435,2.009-9.969.11-13.547a47.279,47.279,0,0,0-18.951-.56c5.153,5.439,9.636,13.578,3.15,22.287C233.648,371.6,249.861,380.206,250.243,380.405Z" transform="translate(-205.304 -333.337)" fill="#fc2b45"/>
        <path id="Trazado_12940" data-name="Trazado 12940" d="M251.385,382.5c8.416-18.144,16.523-5.915,33.172-7.071,5.79-.4,9.346-3.023,11.522-6.266a46.512,46.512,0,0,0-8.844-16.711c-2.192,7.072-7.014,14.719-17.607,13.479C250.5,363.686,251.385,382.5,251.385,382.5Z" transform="translate(-206.44 -335.426)" fill="#fc2b45"/>
        <path id="Trazado_12941" data-name="Trazado 12941" d="M251.386,385.828c19.923-1.783,13.385,11.35,22.711,25.19,3.169,4.707,7.108,6.507,10.925,6.832A46.762,46.762,0,0,0,295,401.928c-7.16,1.548-15.979,1.056-20.138-8.588C267.234,375.651,251.386,385.828,251.386,385.828Z" transform="translate(-206.441 -338.756)" fill="#fc2b45"/>
        <path id="Trazado_12942" data-name="Trazado 12942" d="M239.085,431.545a47.244,47.244,0,0,0,18.688.486c-4.932-5.429-8.938-13.321-2.656-21.758,11.37-15.273-4.844-23.882-5.226-24.081,11.5,16.356-3.143,17.265-10.466,32.261C236.883,423.658,237.364,428.041,239.085,431.545Z" transform="translate(-204.94 -339.114)" fill="#fc2b45"/>
        <path id="Trazado_12943" data-name="Trazado 12943" d="M200.926,399.911a46.569,46.569,0,0,0,9.074,16.4c2.181-7.093,7-14.8,17.626-13.552,19.134,2.244,18.244-16.571,18.244-16.571-8.416,18.145-16.523,5.916-33.172,7.072C206.685,393.677,203.076,396.491,200.926,399.911Z" transform="translate(-200.926 -339.113)" fill="#fc2b45"/>
        <path id="Trazado_12944" data-name="Trazado 12944" d="M201.555,366.329c7.29-1.752,16.6-1.585,20.91,8.411,7.627,17.688,23.475,7.511,23.475,7.511-19.922,1.784-13.385-11.35-22.71-25.189-3.436-5.1-7.778-6.79-11.889-6.883a46.806,46.806,0,0,0-8.211,12.281C202.548,363.719,202.02,365.012,201.555,366.329Z" transform="translate(-200.995 -335.178)" fill="#fc2b45"/>
      </g>
      <path id="Trazado_12945" data-name="Trazado 12945" d="M233.72,424.845a46.87,46.87,0,0,0,54.412-29.259,46.38,46.38,0,0,0,1.789-6,45.649,45.649,0,0,0,1.1-8.484.394.394,0,0,0,.005-.078c.031-.6.042-1.2.042-1.8a46.7,46.7,0,0,0-10.7-29.781c-.111-.209-.22-.42-.334-.626,1.028,1.033,2.016,2.108,2.945,3.234a46.709,46.709,0,0,1,10.7,29.788c0,.6-.01,1.2-.042,1.8a.384.384,0,0,1-.005.078,46.256,46.256,0,0,1-2.892,14.483A46.806,46.806,0,0,1,212.5,413.614,46.666,46.666,0,0,0,233.72,424.845Z" transform="translate(-200.062 -335.029)" fill="#d3a7af" opacity="0.5" style="mix-blend-mode: multiply;isolation: isolate"/>
      <g id="Grupo_1037" data-name="Grupo 1037" transform="translate(0 2.741)">
        <path id="Trazado_12946" data-name="Trazado 12946" d="M220.055,407.914c7.586.464,9.629-6.988,29.755-25.391,17.608-16.1,24.373-18.013,24.2-24.6-.267-10.141-16.693-20.046-31.342-20.63-20.713-.827-43.5,16.758-44.037,38.086C198.251,390.455,208.989,407.235,220.055,407.914Z" transform="translate(-198.546 -336.508)" fill="#fff" opacity="0.2" style="mix-blend-mode: screen;isolation: isolate"/>
        <path id="Trazado_12947" data-name="Trazado 12947" d="M241.423,336.417c11.826-.126,24.686,5.58,23.989,9.759-.406,2.44-16.048.966-34.967,18.7-19.517,18.3-16.693,36.648-19.517,37-3.252.406-13.962-15.488-12.2-30.088C201.2,351.341,222.706,336.617,241.423,336.417Z" transform="translate(-198.536 -336.415)" fill="#fff" opacity="0.22" style="mix-blend-mode: screen;isolation: isolate"/>
        <path id="Trazado_12948" data-name="Trazado 12948" d="M258.951,342.99c.149-1.323-9.17-5.228-19.422-4.47-14.588,1.08-29.867,11.517-34.981,26.386-4.126,12-.742,24.269.732,24.325,1.411.053-.069-11.137,6.727-22.922,8.589-14.891,24.279-20.128,26.042-20.689C249.5,341.978,258.8,344.3,258.951,342.99Z" transform="translate(-198.977 -336.634)" fill="#fff" opacity="0.37" style="mix-blend-mode: screen;isolation: isolate"/>
        <path id="Trazado_12949" data-name="Trazado 12949" d="M238.911,340.181c2.774-.329,8.267.543,6.235,1.356a80.507,80.507,0,0,0-19.247,8.674c-3.524,2.17-6.235-.406-4.608-2.168S230.913,341.13,238.911,340.181Z" transform="translate(-200.97 -336.819)" fill="#fff" style="mix-blend-mode: screen;isolation: isolate"/>
        <path id="Trazado_12950" data-name="Trazado 12950" d="M215.408,352.9c.982-.819,5,.39,4.338.949a43.708,43.708,0,0,0-12.876,16.806C203.617,377.838,205.649,361.031,215.408,352.9Z" transform="translate(-199.29 -338.186)" fill="#fff" style="mix-blend-mode: screen;isolation: isolate"/>
      </g>
    </g>
    <g id="Grupo_1381" data-name="Grupo 1381" transform="translate(1054.203 2023.338)">
      <ellipse id="Elipse_71" data-name="Elipse 71" cx="36.599" cy="36.599" rx="36.599" ry="36.599" transform="translate(0.009 0)" fill="#4da600"/>
      <g id="Grupo_1058" data-name="Grupo 1058" transform="translate(0 0.964)">
        <path id="Trazado_13004" data-name="Trazado 13004" d="M55.119,375.082c0,.8.025,1.6.078,2.386a36.43,36.43,0,0,0,3.163,12.681,36.407,36.407,0,0,0,2.843,5.146,36.839,36.839,0,0,0,8.07,8.7c.8.464,1.625.9,2.46,1.312a41.648,41.648,0,0,0,5.516,2.184,40.6,40.6,0,0,0,5.8,1.3,37.459,37.459,0,0,0,11.961-.165,31.686,31.686,0,0,0,11.341-4.491,32.182,32.182,0,0,0,14.874-25.626c.046-1.024.057-2.053,0-3.077a14.756,14.756,0,0,0-.127-1.563l-.181-1.58a26.984,26.984,0,0,0-4.911-11.632c-.157-.214-.3-.441-.469-.642l-.518-.605-1.037-1.2c-.37-.378-.757-.74-1.139-1.111a13.876,13.876,0,0,0-1.18-1.061,24.97,24.97,0,0,0-2.555-1.888c-.448-.284-.885-.588-1.346-.852l-1.411-.732-.707-.358c-.242-.107-.49-.2-.736-.3l-1.481-.584c-.493-.2-1.011-.313-1.518-.469-.515-.137-1.016-.314-1.534-.408l-1.563-.288-.785-.14-.789-.066-1.58-.123a6.55,6.55,0,0,0-.794-.017l-.79.013c-.53.016-1.053.012-1.587.053l-1.629.2a13.541,13.541,0,0,0-1.612.309,13.934,13.934,0,0,0-1.592.419l-1.559.527-1.506.674a14.094,14.094,0,0,0-1.448.774,12.893,12.893,0,0,0-1.386.876,21.5,21.5,0,0,0-4.785,4.435c-.324.436-.686.847-.979,1.308l-.876,1.378c-.28.465-.511.962-.761,1.444-.119.243-.251.481-.358.732l-.3.761-.3.761-.144.378-.116.4-.44,1.566c-.116.531-.2,1.07-.3,1.6a12.63,12.63,0,0,0-.181,1.617l-.057.81-.025.408.008.4.045,1.621a19.122,19.122,0,0,0,.539,3.32,18.033,18.033,0,0,0,13.779,13.22c.548.09,1.094.2,1.645.263l1.654.115,1.65-.053c.56-.041,1.144-.136,1.706-.214a14.92,14.92,0,0,0,6.248-2.78,14.628,14.628,0,0,0,4.29-5.232,14.314,14.314,0,0,0,1.5-6.54,12.973,12.973,0,0,0-.469-3.422,12.141,12.141,0,0,0-3.715-5.817,12.476,12.476,0,0,0-2.9-1.855,12.018,12.018,0,0,0-3.3-.942,8.412,8.412,0,0,0-.852-.078,7.36,7.36,0,0,0-.852-.021l-.852.037c-.288.029-.588.078-.879.12a9.82,9.82,0,0,0-5.969,3.537,9.462,9.462,0,0,0-2.082,6.479,8.122,8.122,0,0,0,.938,3.43,8.02,8.02,0,0,0,2.336,2.649,7.615,7.615,0,0,0,3.213,1.353,6.1,6.1,0,0,0,.867.1,5.553,5.553,0,0,0,.864,0,6.4,6.4,0,0,0,4.677-2.374,6.505,6.505,0,0,0,.9-1.518,6.793,6.793,0,0,0,.436-1.7,6.277,6.277,0,0,0,.029-.872l-.025-.436-.066-.449a5.089,5.089,0,0,0-3.385-3.87,5.027,5.027,0,0,0-1.723-.239,4.137,4.137,0,0,0-1.736.428,4.016,4.016,0,0,0-2.143,2.69,4.1,4.1,0,0,0-.1.864c0,.144.013.288.02.431a4.1,4.1,0,0,0,.078.445,3.2,3.2,0,0,0,2.394,2.377,3.169,3.169,0,0,0,.855.074,2.49,2.49,0,0,0,.869-.189,2.561,2.561,0,0,0,1.287-1.152,2.473,2.473,0,0,0,.242-1.666,2.012,2.012,0,0,0-1.012-1.341,1.868,1.868,0,0,0-1.624-.074,1.531,1.531,0,0,0-.889,1.309,1.267,1.267,0,0,0,.2.777,1.16,1.16,0,0,0,.626.481,1.06,1.06,0,0,0,.765-.029.919.919,0,0,0,.494-.551.782.782,0,0,0-.1-.7.671.671,0,0,0-.609-.258.619.619,0,0,1,.534.309.634.634,0,0,1,0,.584.689.689,0,0,1-.419.37.8.8,0,0,1-.544-.058.78.78,0,0,1-.436-.876.926.926,0,0,1,.63-.733,1.111,1.111,0,0,1,1.407.958,1.421,1.421,0,0,1-.255.909,1.3,1.3,0,0,1-.74.51,1.591,1.591,0,0,1-.9-.053,1.666,1.666,0,0,1-.749-.522,1.621,1.621,0,0,1-.341-.8,2.014,2.014,0,0,1-.013-.214l.013-.239a2.334,2.334,0,0,1,.106-.452,2.032,2.032,0,0,1,1.222-1.243,2,2,0,0,1,.864-.107,2.715,2.715,0,0,1,.892.226,2.487,2.487,0,0,1,1.242,1.234,2.611,2.611,0,0,1,.223.823l.008.209-.013.234a3.381,3.381,0,0,1-.058.464,3.166,3.166,0,0,1-2.356,2.431,2.987,2.987,0,0,1-.868.074l-.235-.008c-.078-.008-.156-.025-.235-.033a2.938,2.938,0,0,1-.456-.095,3.871,3.871,0,0,1-1.608-.848,4.064,4.064,0,0,1-1.058-1.427,4,4,0,0,1-.3-1.724,5.114,5.114,0,0,1,1.383-3.393,5,5,0,0,1,3.163-1.568c.148,0,.292-.025.444-.025l.49.017a3.066,3.066,0,0,1,.482.05,3.167,3.167,0,0,1,.477.073,6.566,6.566,0,0,1,1.789.642,6.925,6.925,0,0,1,1.518,1.119,6.638,6.638,0,0,1,1.123,1.485,6.736,6.736,0,0,1,.642,1.715,7.471,7.471,0,0,1,.127,1.876,8.112,8.112,0,0,1-1.074,3.739,8.194,8.194,0,0,1-2.6,2.826,8.49,8.49,0,0,1-3.509,1.365c-.321.017-.621.062-.954.07-.341-.008-.679-.013-1.021-.008-.337-.045-.675-.086-1.011-.119-.333-.053-.658-.144-.987-.206a10.97,10.97,0,0,1-3.628-1.694,10.788,10.788,0,0,1-4.294-6.462,11.043,11.043,0,0,1-.247-1.962L79.9,371.8l0-.263.033-.263.057-.523a6.676,6.676,0,0,1,.153-1.032c.074-.341.131-.682.214-1.024l.308-1,.074-.251.1-.238.205-.477.2-.485c.07-.156.165-.3.247-.457.173-.3.317-.621.5-.913l.584-.864c.189-.291.436-.539.645-.814a13.651,13.651,0,0,1,3.1-2.735,6.9,6.9,0,0,1,.889-.523,6.48,6.48,0,0,1,.921-.465c.317-.131.63-.271.942-.411l.983-.309a6.838,6.838,0,0,1,1-.243,7.105,7.105,0,0,1,1.012-.181l1.028-.115c.354-.016.724,0,1.086-.008l.547-.008a4.017,4.017,0,0,1,.543.016l1.082.107.543.049.535.107,1.065.209c.353.067.691.206,1.04.3.342.111.7.186,1.032.329l1,.416c.169.069.337.131.5.205l.476.259q.477.259.96.506c.312.181.6.4.912.588a16.218,16.218,0,0,1,1.736,1.3,7.455,7.455,0,0,1,.8.732l.778.753.7.83.354.412a4.832,4.832,0,0,1,.312.44,18.468,18.468,0,0,1,3.3,7.905l.123,1.078a8.527,8.527,0,0,1,.1,1.1c.046.757.037,1.514.008,2.271a23.446,23.446,0,0,1-.626,4.479,24.361,24.361,0,0,1-10.2,14.537,24.449,24.449,0,0,1-8.371,3.493,29.61,29.61,0,0,1-9.337.333,36.779,36.779,0,0,1-4.656-.913,33.6,33.6,0,0,1-4.483-1.6,32.314,32.314,0,0,1-14.245-12.48,33.484,33.484,0,0,1-2.23-4.295,33.109,33.109,0,0,1-1.563-4.6,33.6,33.6,0,0,1-.855-4.808c-.075-.823-.128-1.661-.181-2.493l-.025-1.25c-.008-.226-.017-.457-.017-.683-.016.09-.032.176-.049.268A36.574,36.574,0,0,0,55.119,375.082Z" transform="translate(-55.119 -339.446)" fill="#e2f7ad"/>
        <g id="Grupo_1056" data-name="Grupo 1056" transform="translate(9.734 3.074)">
          <path id="Trazado_13005" data-name="Trazado 13005" d="M112.637,339.4a36.625,36.625,0,1,1-43.622,57.41c12.185,6.54,34.323,11.2,48.333-8.683S121.1,349.034,112.637,339.4Z" transform="translate(-69.015 -339.402)" fill="#d6e5a8" opacity="0.5" style="mix-blend-mode: multiply;isolation: isolate"/>
          <path id="Trazado_13006" data-name="Trazado 13006" d="M84.541,405.239a36.881,36.881,0,0,0,13.471,1.675,36.36,36.36,0,0,0,14.46-3.984,36.845,36.845,0,0,0,10.71-8.337,36.607,36.607,0,0,0,5.1-40.966,36.545,36.545,0,0,0-12.108-13.621,36.613,36.613,0,1,1-37.992,62.506A36.326,36.326,0,0,0,84.541,405.239Z" transform="translate(-71.761 -339.583)" fill="#d6e5a8" style="mix-blend-mode: multiply;isolation: isolate"/>
        </g>
        <g id="Grupo_1057" data-name="Grupo 1057" transform="translate(2.879)">
          <path id="Trazado_13007" data-name="Trazado 13007" d="M74.48,385.282c5.4.331,6.853-4.972,21.173-18.067,12.529-11.457,17.342-12.817,17.22-17.5-.19-7.216-11.877-14.263-22.3-14.679-14.739-.588-30.953,11.924-31.335,27.1C58.966,372.86,66.606,384.8,74.48,385.282Z" transform="translate(-59.229 -335.014)" fill="#fff" opacity="0.2" style="mix-blend-mode: screen;isolation: isolate"/>
          <path id="Trazado_13008" data-name="Trazado 13008" d="M90.919,338.66c8.414-.09,17.565,3.971,17.07,6.944-.29,1.736-11.42.689-24.882,13.308C69.221,371.931,71.23,384.989,69.221,385.24c-2.314.289-9.934-11.02-8.679-21.408C62.3,349.28,77.6,338.8,90.919,338.66Z" transform="translate(-59.581 -336.105)" fill="#fff" opacity="0.22" style="mix-blend-mode: screen;isolation: isolate"/>
          <path id="Trazado_13009" data-name="Trazado 13009" d="M62.433,361.329A33.016,33.016,0,0,1,93.764,339.4c4.244.015,14.007,2.94,5.841,2.913-15.77-.052-29.049,9.509-35.387,22.9C62.549,368.746,61.146,365.013,62.433,361.329Z" transform="translate(-60.038 -336.328)" fill="#fff" opacity="0.25" style="mix-blend-mode: screen;isolation: isolate"/>
          <path id="Trazado_13010" data-name="Trazado 13010" d="M91.8,341.24c1.975-.234,5.883.387,4.436.965a57.331,57.331,0,0,0-13.694,6.172c-2.507,1.543-4.436-.289-3.279-1.542S86.114,341.916,91.8,341.24Z" transform="translate(-65.127 -336.863)" fill="#fff" style="mix-blend-mode: screen;isolation: isolate"/>
          <path id="Trazado_13011" data-name="Trazado 13011" d="M72.11,352.707c.7-.582,3.559.278,3.086.675a31.093,31.093,0,0,0-9.162,11.958C63.719,370.452,65.165,358.494,72.11,352.707Z" transform="translate(-60.961 -340.255)" fill="#fff" style="mix-blend-mode: screen;isolation: isolate"/>
        </g>
      </g>
    </g>
  </g>
</svg>
