<svg id="metamask" xmlns="http://www.w3.org/2000/svg" width="21.102" height="20.301" viewBox="0 0 21.102 20.301">
  <path id="Trazado_10900" data-name="Trazado 10900" d="M314.4,290.9l-1.283,4-2.518-.635Z" transform="translate(-294.371 -276.841)" fill="#e4761b"/>
  <path id="Trazado_10901" data-name="Trazado 10901" d="M310.6,294.266l2.429-3.07,1.372-.3Z" transform="translate(-294.371 -276.841)" fill="#e4761b"/>
  <path id="Trazado_10902" data-name="Trazado 10902" d="M347,213.476l1.887,3.016-1.372.3Zm0,0,1.214-.776.673,3.792Z" transform="translate(-328.857 -202.433)" fill="#f6851b"/>
  <path id="Trazado_10903" data-name="Trazado 10903" d="M317.6,155.819l3.491-1.319-.174.723Zm3.207.272-3.207-.272,3.317-.6Z" transform="translate(-301.003 -147.056)" fill="#763d16"/>
  <path id="Trazado_10904" data-name="Trazado 10904" d="M320.807,156.091l-.447,1.232-2.76-1.5Zm.7-1.285-.589.417.174-.723Zm-.7,1.285.11-.868.468.359Z" transform="translate(-301.003 -147.056)" fill="#763d16"/>
  <path id="Trazado_10905" data-name="Trazado 10905" d="M259.1,340.2l.873.257,1.835.718Z" transform="translate(-245.579 -323.75)" fill="#e2761b"/>
  <path id="Trazado_10906" data-name="Trazado 10906" d="M304.822,183.2l.447-1.232.384.272Zm0,0-3.622-1.1.862-.4Z" transform="translate(-285.466 -172.937)" fill="#763d16"/>
  <path id="Trazado_10907" data-name="Trazado 10907" d="M302.924,103.8l-.862,3.778-.862.4Z" transform="translate(-285.466 -98.815)" fill="#763d16"/>
  <path id="Trazado_10908" data-name="Trazado 10908" d="M321.091,106.259l-3.491,1.319.862-3.778Z" transform="translate(-301.003 -98.815)" fill="#763d16"/>
  <path id="Trazado_10909" data-name="Trazado 10909" d="M334,96.188l3.643-.388-1.015,2.847Z" transform="translate(-316.541 -91.203)" fill="#763d16"/>
  <path id="Trazado_10910" data-name="Trazado 10910" d="M304.822,191.1l-1.214.776L301.2,190Z" transform="translate(-285.466 -180.834)" fill="#f6851b"/>
  <path id="Trazado_10911" data-name="Trazado 10911" d="M337.485,39.7l.158,2.721L334,42.809Z" transform="translate(-316.541 -37.823)" fill="#763d16"/>
  <path id="Trazado_10912" data-name="Trazado 10912" d="M267.376,39.7l-7.281,4.884L260,41.271Z" transform="translate(-246.431 -37.823)" fill="#e2761b"/>
  <path id="Trazado_10913" data-name="Trazado 10913" d="M157,63.9l5.415.4.095,3.312Z" transform="translate(-148.846 -60.85)" fill="#f6851b"/>
  <path id="Trazado_10914" data-name="Trazado 10914" d="M263.871,107.98l-2.071-2.405,3.8-1.775Z" transform="translate(-248.137 -98.815)" fill="#763d16"/>
  <path id="Trazado_10915" data-name="Trazado 10915" d="M283.672,190l2.408,1.877-3.38.344Z" transform="translate(-267.938 -180.834)" fill="#e4761b"/>
  <path id="Trazado_10916" data-name="Trazado 10916" d="M262.9,145.027l-1.1-4.627,2.071,2.405Z" transform="translate(-248.137 -133.64)" fill="#e4761b"/>
  <path id="Trazado_10917" data-name="Trazado 10917" d="M265.6,42.809l-3.8,1.775,7.281-4.884Z" transform="translate(-248.137 -37.823)" fill="#763d16"/>
  <path id="Trazado_10918" data-name="Trazado 10918" d="M146.72,352.61l1.719,1.654L146.1,352.3Z" transform="translate(-138.519 -335.263)" fill="#c0ad9e"/>
  <path id="Trazado_10919" data-name="Trazado 10919" d="M310.6,300.07l.815-2.856,1.614-.213Z" transform="translate(-294.371 -282.645)" fill="#cd6116"/>
  <path id="Trazado_10920" data-name="Trazado 10920" d="M25.3,137.985l2.976-2.886-2.592,2.541Z" transform="translate(-24.07 -128.597)" fill="#e2761b"/>
  <path id="Trazado_10921" data-name="Trazado 10921" d="M167.5,75.2l-1.614.213,1.1-3.526Zm-4.994-7.594-2.9-.087L157,63.9Z" transform="translate(-148.846 -60.85)" fill="#f6851b"/>
  <path id="Trazado_10922" data-name="Trazado 10922" d="M325.588,228.7l-1.1,3.526L324.4,230.5Z" transform="translate(-307.446 -217.657)" fill="#e4751f"/>
  <path id="Trazado_10923" data-name="Trazado 10923" d="M282.7,229.044l3.38-.344-1.188,1.8Z" transform="translate(-267.938 -217.657)" fill="#cd6116"/>
  <path id="Trazado_10924" data-name="Trazado 10924" d="M206.7,138.6l2.9.087,1.1,4.627Z" transform="translate(-195.933 -131.927)" fill="#f6851b"/>
  <path id="Trazado_10925" data-name="Trazado 10925" d="M12.667,7.673,4.849,1l5.2,3.05ZM10.049,19.361,3.256,21.3,1.9,16.524Z" transform="translate(-1.9 -1)" fill="#e4761b"/>
  <path id="Trazado_10926" data-name="Trazado 10926" d="M44.5,182.757l2.566-1.857,2.15.461Z" transform="translate(-42.26 -172.176)" fill="#763d16"/>
  <path id="Trazado_10927" data-name="Trazado 10927" d="M95.45,95.345l-2.15-.461L94.451,90.5Z" transform="translate(-88.495 -86.16)" fill="#763d16"/>
  <path id="Trazado_10928" data-name="Trazado 10928" d="M32.6,181.22l3.191-.32-2.565,1.857Z" transform="translate(-30.986 -172.176)" fill="#763d16"/>
  <path id="Trazado_10929" data-name="Trazado 10929" d="M284.892,237.26l-1.325-.616-.867-.844Z" transform="translate(-267.938 -224.413)" fill="#cd6116"/>
  <path id="Trazado_10930" data-name="Trazado 10930" d="M28.526,165.9l-.226-1.1,3.417.781Z" transform="translate(-26.912 -156.856)" fill="#763d16"/>
  <path id="Trazado_10931" data-name="Trazado 10931" d="M294,254.587l.273-1.387,1.325.616Z" transform="translate(-278.644 -240.969)" fill="#233447"/>
  <path id="Trazado_10932" data-name="Trazado 10932" d="M295.688,267.622,294,266.671l1.6-.771Z" transform="translate(-278.644 -253.053)" fill="#f6851b"/>
  <path id="Trazado_10933" data-name="Trazado 10933" d="M26.7,94.884,23.279,94.1,23,93.177ZM27.847,90.5,26.7,94.884,23,93.177Zm0,0,4.81,2.333-3.811,2.512Z" transform="translate(-21.891 -86.16)" fill="#763d16"/>
  <path id="Trazado_10934" data-name="Trazado 10934" d="M134.2,141.112l3.811-2.512,1.7,4.787Zm5.51,2.274-5.268-.1-.242-2.173Z" transform="translate(-127.245 -131.927)" fill="#e4761b"/>
  <path id="Trazado_10935" data-name="Trazado 10935" d="M44.5,142.509l4.716-1.4.242,2.173Zm12.523.805-2.3.073-1.7-4.787Z" transform="translate(-42.26 -131.927)" fill="#f6851b"/>
  <path id="Trazado_10936" data-name="Trazado 10936" d="M283.567,236.644l-.273,1.387L282.7,235.8Z" transform="translate(-267.938 -224.413)" fill="#cd6116"/>
  <path id="Trazado_10937" data-name="Trazado 10937" d="M58,1l7.817,6.673L61.007,5.34Z" transform="translate(-55.051 -1)" fill="#763d16"/>
  <path id="Trazado_10938" data-name="Trazado 10938" d="M1.9,316.152l6.592-.252,1.556,3.089Z" transform="translate(-1.9 -300.629)" fill="#e4761b"/>
  <path id="Trazado_10939" data-name="Trazado 10939" d="M128.856,316.135l-1.556-3.089,3.238-.146Z" transform="translate(-120.707 -297.774)" fill="#cd6116"/>
  <path id="Trazado_10940" data-name="Trazado 10940" d="M17.256,222.236l1.688.951.931,2.022ZM9.1,219.976l-7.2,4.166L4.14,219.2Zm-.6,3.914-6.592.252,7.2-4.166Zm8.17-3.885.431,1.445-2.082.112Zm-1.651,1.557-.647-1.484,2.3-.073Z" transform="translate(-1.9 -208.618)" fill="#f6851b"/>
  <path id="Trazado_10941" data-name="Trazado 10941" d="M158.672,380.24l-1.772-.64,6.161.955Z" transform="translate(-148.751 -361.239)" fill="#c0ad9e"/>
  <path id="Trazado_10942" data-name="Trazado 10942" d="M26.309,189.037,25.3,187.844l.384-.344Z" transform="translate(-24.07 -178.455)" fill="#763d16"/>
  <path id="Trazado_10943" data-name="Trazado 10943" d="M163.761,379.847l-.7.708L156.9,379.6Z" transform="translate(-148.751 -361.239)" fill="#d7c1b3"/>
  <path id="Trazado_10944" data-name="Trazado 10944" d="M164.092,314.646l-7.192,1.489,1.682-3.235Z" transform="translate(-148.751 -297.774)" fill="#e4761b"/>
  <path id="Trazado_10945" data-name="Trazado 10945" d="M156.9,350.389l7.192-1.489-.331,1.736Z" transform="translate(-148.751 -332.028)" fill="#d7c1b3"/>
  <path id="Trazado_10946" data-name="Trazado 10946" d="M18.737,72.529,18.5,68.8l5.084,1.052Zm.5,2.027-.7-.655.473-.446Z" transform="translate(-17.627 -65.512)" fill="#763d16"/>
  <path id="Trazado_10947" data-name="Trazado 10947" d="M216.6,238.26l1.178-.96-.168,2.347Z" transform="translate(-205.313 -225.84)" fill="#cd6116"/>
  <path id="Trazado_10948" data-name="Trazado 10948" d="M186.891,237.3l-1.178.96-1.714.82Z" transform="translate(-174.427 -225.84)" fill="#cd6116"/>
  <path id="Trazado_10949" data-name="Trazado 10949" d="M296.618,284.773l-.321-.218L294,281.8Z" transform="translate(-278.644 -268.182)" fill="#f6851b"/>
  <path id="Trazado_10950" data-name="Trazado 10950" d="M141.176,237.082,138.8,235.2l5.268.1Z" transform="translate(-131.603 -223.842)" fill="#cd6116"/>
  <path id="Trazado_10951" data-name="Trazado 10951" d="M235.8,239.647l.168-2.347.647,1.484Z" transform="translate(-223.504 -225.84)" fill="#e4751f"/>
  <path id="Trazado_10952" data-name="Trazado 10952" d="M14.9,146.069l.426-.369.279.926Z" transform="translate(-14.217 -138.683)" fill="#763d16"/>
  <path id="Trazado_10953" data-name="Trazado 10953" d="M186.723,258.487,184,257.92l1.714-.82Z" transform="translate(-174.427 -244.68)" fill="#233447"/>
  <path id="Trazado_10954" data-name="Trazado 10954" d="M23.584,5.34,18.5,4.288,20.577,1Z" transform="translate(-17.627 -1)" fill="#763d16"/>
  <path id="Trazado_10955" data-name="Trazado 10955" d="M194.99,393.115l.289.728L190.6,392.8Z" transform="translate(-180.68 -373.799)" fill="#c0ad9e"/>
  <path id="Trazado_10956" data-name="Trazado 10956" d="M184.258,275.887,184,274l2.723.567Z" transform="translate(-174.427 -260.76)" fill="#f6851b"/>
  <path id="Trazado_10957" data-name="Trazado 10957" d="M138.8,235.2l2.376,1.882.258,1.887Z" transform="translate(-131.603 -223.842)" fill="#e4751f"/>
  <path id="Trazado_10958" data-name="Trazado 10958" d="M133.819,236.786l2.082-.112,2.46,3.54ZM127.9,235.2l2.634,3.768-3.238.145Z" transform="translate(-120.707 -223.842)" fill="#f6851b"/>
  <path id="Trazado_10959" data-name="Trazado 10959" d="M236.615,267.9l2.587,3.632-3.4-2.769Z" transform="translate(-223.504 -254.956)" fill="#e4751f"/>
  <path id="Trazado_10960" data-name="Trazado 10960" d="M235.8,285.7l3.4,2.769-.358.3Z" transform="translate(-223.504 -271.893)" fill="#f6851b"/>
  <path id="Trazado_10961" data-name="Trazado 10961" d="M194.409,271.828l-5.509-1.746,2.466-1.319Zm2.313-.5-1.956.2L192.18,267.9Z" transform="translate(-179.069 -254.956)" fill="#f6851b"/>
  <path id="Trazado_10962" data-name="Trazado 10962" d="M277.959,373.8l-.841,1.557-2.729.407Zm-3.57,1.964-.289-.727.7-.708Z" transform="translate(-259.79 -355.721)" fill="#c0ad9e"/>
  <path id="Trazado_10963" data-name="Trazado 10963" d="M280.01,374.329l.515-.189-.925,1.625Zm-.41,1.435.925-1.625,2.644-.339Z" transform="translate(-265.001 -355.721)" fill="#c0ad9e"/>
  <path id="Trazado_10964" data-name="Trazado 10964" d="M313.92,338.6l.647.364-1.966.218Z" transform="translate(-296.266 -322.228)" fill="#161616"/>
  <path id="Trazado_10965" data-name="Trazado 10965" d="M301.136,339.182l-.636-.378,1.956-.2Zm-.226.286,2.392-.267-.331,1.106Z" transform="translate(-284.802 -322.228)" fill="#161616"/>
  <path id="Trazado_10966" data-name="Trazado 10966" d="M290.56,344.3l-2.644.339.584-1.178Zm-2.644.339-.515.189.331-1.736Zm-.184-1.547.357-.3.636.378Zm2.96-.136.2.238-2.392.267Z" transform="translate(-272.391 -326.224)" fill="#161616"/>
  <path id="Trazado_10967" data-name="Trazado 10967" d="M294.467,346.6l.226-.286,1.966-.218Zm-.768-.369.768.369-.584,1.178Z" transform="translate(-278.359 -329.364)" fill="#161616"/>
  <path id="Trazado_10968" data-name="Trazado 10968" d="M294.694,348.982l-.226.286-.768-.368Z" transform="translate(-278.359 -332.028)" fill="#161616"/>
</svg>
