<svg xmlns="http://www.w3.org/2000/svg" width="268.081" height="239.584" viewBox="0 0 268.081 239.584">
  <g id="Grupo_14783" data-name="Grupo 14783" transform="translate(-8816 1748.039)">
    <g id="Grupo_14770" data-name="Grupo 14770" transform="translate(8816 -1748.039)">
      <g id="Grupo_1445" data-name="Grupo 1445" transform="translate(0 0)">
        <g id="Grupo_1390" data-name="Grupo 1390" transform="translate(117.602 85.85)">
          <path id="Trazado_13606" data-name="Trazado 13606" d="M2559.049,1910.738c13.646,3.8,4.253-27.116-10.937-34.01l3.135,21.8Z" transform="translate(-2548.112 -1876.728)" fill="#fbc100"/>
        </g>
        <g id="Grupo_1391" data-name="Grupo 1391" transform="translate(117.602 85.85)" opacity="0.3">
          <path id="Trazado_13607" data-name="Trazado 13607" d="M2559.049,1910.738c13.646,3.8,4.253-27.116-10.937-34.01l3.135,21.8Z" transform="translate(-2548.112 -1876.728)" fill="#760153"/>
        </g>
        <g id="Grupo_1392" data-name="Grupo 1392" transform="translate(2.084 1.326)">
          <path id="Trazado_13608" data-name="Trazado 13608" d="M1360.264,1089.794a8.116,8.116,0,0,1-7.487,7.722l-73,5.7a22.681,22.681,0,0,1-9.637-1.349s-.009,0-.018,0c-.257-.1-.513-.195-.765-.3l-9.522-3.936a6.659,6.659,0,0,1-4.109-6.355,602.885,602.885,0,0,0-13.471-146.417,6.657,6.657,0,0,1,2.07-6.387l8.15-7.271.009,0,.849-.761a13.948,13.948,0,0,1,8.191-3.494l1.167-.093,31.453-2.454,10.136-.792,28.862-2.251,2.463-.19a8.132,8.132,0,0,1,8.509,6.108C1356.757,976.993,1362.564,1036.6,1360.264,1089.794Z" transform="translate(-1242.103 -921.129)" fill="#955447"/>
        </g>
        <g id="Grupo_1393" data-name="Grupo 1393" transform="translate(70.712 36.328)">
          <path id="Trazado_13609" data-name="Trazado 13609" d="M2032.174,1365.195c.96,8.871,1.747,17.425,2.5,26.792l-7.421,3.511c-.24-5.546-.119-2.42-.518-7.983a592.185,592.185,0,0,0-8.743-68.111l7.606-.6.071.359,23.085-2.224.823-.067.15-.013.057.363h3.561l2.437,2.079-4.875,4.829-22.692,1.592a1.244,1.244,0,0,0-1.141,1.446q1.659,9.911,3.025,20.414l-6.245,8.359,7.235-.407c.014.1.021.195.035.292l21-1.87,3.214-.177.261-.013,2.193-.119,4.348,2.534-5.912,5.2-22.55,1.986A1.665,1.665,0,0,0,2032.174,1365.195Z" transform="translate(-2017.991 -1316.856)" fill="#b68662"/>
        </g>
        <g id="Grupo_1394" data-name="Grupo 1394" transform="translate(12.467 10.802)" opacity="0.2">
          <path id="Trazado_13610" data-name="Trazado 13610" d="M1359.491,1028.84a3.411,3.411,0,0,1,.889-.584Z" transform="translate(-1359.491 -1028.256)" fill="#fff"/>
        </g>
        <g id="Grupo_1395" data-name="Grupo 1395" transform="translate(13.356 4.477)">
          <path id="Trazado_13611" data-name="Trazado 13611" d="M1426.159,992.623l-6.369,6.607-24.828,2.087a3.581,3.581,0,0,0-3.233,4.166q1.42,8.591,2.583,17.319l-7.549,8.642a529.635,529.635,0,0,0-12.259-66.011,3.581,3.581,0,0,0-4.962-2.353l4.13-2.707c.628-.562,3.941-.854,5.219-.906l-.031-.151,23.66-1.844,1.548-.093s.009,0,.013,0,.009,0,.014,0l6.253-.385,3.949-.239,2.371,1.782-4.285,5.833-26.354,1.8a1.906,1.906,0,0,0-1.724,2.353q2.176,9.048,4.06,18.468l-7.226,7.7,9.7-.721-.221-.628,27.677-2.251.128.695h0l7.443-.739C1425.964,991.57,1426.061,992.1,1426.159,992.623Z" transform="translate(-1369.541 -956.756)" fill="#b68662"/>
        </g>
        <g id="Grupo_1396" data-name="Grupo 1396" transform="translate(69.682 38.77)" opacity="0.2">
          <path id="Trazado_13612" data-name="Trazado 13612" d="M2007.256,1345.381l-.623.65c-.1-.526-.195-1.053-.292-1.574Z" transform="translate(-2006.341 -1344.456)" fill="#fff"/>
        </g>
        <g id="Grupo_1397" data-name="Grupo 1397" transform="translate(46.335 4.583)" opacity="0.2">
          <path id="Trazado_13613" data-name="Trazado 13613" d="M1743.851,958.473h.088l-1.548.093,7.792-.61.036.132Z" transform="translate(-1742.391 -957.956)" fill="#fff"/>
        </g>
        <g id="Grupo_1398" data-name="Grupo 1398" transform="translate(30.635 76.379)">
          <path id="Trazado_13614" data-name="Trazado 13614" d="M1574.466,1781.284a587.713,587.713,0,0,1,2.609,87.589c-.114,2.414-5.776,3.98-8.01,3.056l-.194.128a594.66,594.66,0,0,0-3.98-99.171l8.518-.981c.014.106.026.216.04.323l27.3-2.433,1.517-.136h7.3c.018.154.036.309.053.468l-6.492,6.824-26.717,2.013A2.1,2.1,0,0,0,1574.466,1781.284Z" transform="translate(-1564.891 -1769.657)" fill="#b68662"/>
        </g>
        <g id="Grupo_1399" data-name="Grupo 1399" transform="translate(75.303 76.379)" opacity="0.2">
          <path id="Trazado_13615" data-name="Trazado 13615" d="M2070.391,1769.657l-.447.468c-.017-.159-.035-.314-.053-.468Z" transform="translate(-2069.891 -1769.657)" fill="#fff"/>
        </g>
        <g id="Grupo_1400" data-name="Grupo 1400" transform="translate(88.341 1.473)" opacity="0.3">
          <path id="Trazado_13616" data-name="Trazado 13616" d="M2217.579,923.25c-.1-.009-.19-.013-.288-.013l4.909-.323,1.6-.106a8.112,8.112,0,0,1,1.671.044l-7.041.491h-.005c-.093-.018-.185-.031-.278-.04C2217.959,923.276,2217.768,923.259,2217.579,923.25Z" transform="translate(-2217.291 -922.784)" fill="#760153"/>
        </g>
        <g id="Grupo_1401" data-name="Grupo 1401" transform="translate(96.522 1.541)" opacity="0.3">
          <path id="Trazado_13617" data-name="Trazado 13617" d="M2312.437,924.37l-2.646-.814A8.013,8.013,0,0,1,2312.437,924.37Z" transform="translate(-2309.791 -923.556)" fill="#760153"/>
        </g>
        <g id="Grupo_1402" data-name="Grupo 1402" transform="translate(65.228 3.447)" opacity="0.3">
          <path id="Trazado_13618" data-name="Trazado 13618" d="M2010.269,1111.8c-.177,4.091-3.4,7.4-9.234,7.78l-45.043,3.515,39.467-3.127a8.111,8.111,0,0,0,7.482-7.722,592.687,592.687,0,0,0-3.223-89.738l5.913-5.2-4.347-2.534-2.193.119-.261.014q-.04-.319-.08-.637l-23.06,1.495-.044.836-1.07.062-7.235.406,6.245-8.358.105-.141,21.932-1.672a2.016,2.016,0,0,0,1.844-2.291q-1.38-9.772-3.074-19.349l4.874-4.83-2.437-2.078h-3.561l-.057-.363-.15.014a.017.017,0,0,1,0-.014l-.818.08-23.086,2.224-.071-.358-7.606.6-.114.009.1-.115,6.28-7.439-.013-.066,21.71-1.747a1.986,1.986,0,0,0,1.781-2.384c-1.317-6.267-2.732-12.427-4.254-18.438l4.59-5.25a8.112,8.112,0,0,1,2.57,4.157C2006.762,998.995,2012.569,1058.607,2010.269,1111.8Z" transform="translate(-1955.991 -945.106)" fill="#760153"/>
        </g>
        <g id="Grupo_1403" data-name="Grupo 1403" transform="translate(70.597 38.77)" opacity="0.3">
          <path id="Trazado_13619" data-name="Trazado 13619" d="M2016.788,1344.456c0,.035.013.07.018.106l-.115.009Z" transform="translate(-2016.692 -1344.456)" fill="#760153"/>
        </g>
        <g id="Grupo_1404" data-name="Grupo 1404" transform="translate(82.804 66.91)" opacity="0.3">
          <path id="Trazado_13620" data-name="Trazado 13620" d="M2154.814,1662.606l-.1.141-.018-.132Z" transform="translate(-2154.691 -1662.606)" fill="#760153"/>
        </g>
        <g id="Grupo_1405" data-name="Grupo 1405" transform="translate(37.685 183.604)" opacity="0.3">
          <path id="Trazado_13621" data-name="Trazado 13621" d="M1644.666,2981.912c.168,0,.275,0,.328,0-.075,0-.239,0-.4.008Z" transform="translate(-1644.591 -2981.907)" fill="#760153"/>
        </g>
        <g id="Grupo_1406" data-name="Grupo 1406" transform="translate(37.273 181.432)" opacity="0.3">
          <path id="Trazado_13622" data-name="Trazado 13622" d="M1667.9,2957.356l-27.468,2.176c-.123,0-.283,0-.487,0Z" transform="translate(-1639.941 -2957.356)" fill="#760153"/>
        </g>
        <g id="Grupo_1407" data-name="Grupo 1407" transform="translate(37.685 183.604)" opacity="0.3">
          <path id="Trazado_13623" data-name="Trazado 13623" d="M1644.666,2981.912c.168,0,.275,0,.328,0-.075,0-.239,0-.4.008Z" transform="translate(-1644.591 -2981.907)" fill="#760153"/>
        </g>
        <g id="Grupo_1408" data-name="Grupo 1408" transform="translate(37.273 181.432)" opacity="0.3">
          <path id="Trazado_13624" data-name="Trazado 13624" d="M1667.9,2957.356l-27.468,2.176c-.123,0-.283,0-.487,0Z" transform="translate(-1639.941 -2957.356)" fill="#760153"/>
        </g>
        <g id="Grupo_1409" data-name="Grupo 1409" transform="translate(56.604 1.541)">
          <path id="Trazado_13625" data-name="Trazado 13625" d="M1874.448,934.3s0,.013,0,.018q2.4,9.082,4.4,18.964l.014.067-6.28,7.438c-1.876-9.862-4-19.49-6.355-28.773a8.116,8.116,0,0,0-7.735-6.125l10.074-.3.062.026,26.385-2.057.124.062-4.909.323c.1,0,.19,0,.287.013.19.009.379.026.57.053.093.009.186.022.279.04h0l7.04-.491,2.645.814a8.026,8.026,0,0,1,1.623,1.092l-4.591,5.25-22.228,1.636A1.577,1.577,0,0,0,1874.448,934.3Z" transform="translate(-1858.491 -923.556)" fill="#b68662"/>
        </g>
        <g id="Grupo_1410" data-name="Grupo 1410" transform="translate(99.167 2.355)" opacity="0.2">
          <path id="Trazado_13626" data-name="Trazado 13626" d="M2341.721,933.384l-.407.464a8.024,8.024,0,0,0-1.623-1.092Z" transform="translate(-2339.691 -932.756)" fill="#fff"/>
        </g>
        <g id="Grupo_1411" data-name="Grupo 1411" transform="translate(104.85 73.115)" opacity="0.2">
          <path id="Trazado_13627" data-name="Trazado 13627" d="M2407.417,1732.876l-3.476.189,3.2-.287.267-.022Z" transform="translate(-2403.941 -1732.756)" fill="#fff"/>
        </g>
        <g id="Grupo_1412" data-name="Grupo 1412" transform="translate(2.084 10.474)">
          <path id="Trazado_13628" data-name="Trazado 13628" d="M1274.63,1192.963a3.49,3.49,0,0,1-4.49,3.176s-.009-.005-.018-.005c-.257-.1-.513-.194-.765-.3l-9.522-3.936a6.658,6.658,0,0,1-4.109-6.355,602.885,602.885,0,0,0-13.471-146.417,6.656,6.656,0,0,1,2.07-6.386l8.15-7.271.009,0a3.581,3.581,0,0,1,5.851,1.769C1271.326,1077.853,1277.208,1138.867,1274.63,1192.963Z" transform="translate(-1242.103 -1024.553)" fill="#b68662"/>
        </g>
        <g id="Grupo_1413" data-name="Grupo 1413" transform="translate(55.83 3.87)" opacity="0.2">
          <path id="Trazado_13629" data-name="Trazado 13629" d="M1850.516,949.89l-.774.022A7.665,7.665,0,0,1,1850.516,949.89Z" transform="translate(-1849.741 -949.889)" fill="#fff"/>
        </g>
        <g id="Grupo_1414" data-name="Grupo 1414" transform="translate(15.192 115.582)">
          <path id="Trazado_13630" data-name="Trazado 13630" d="M1495.345,2267.277a8.118,8.118,0,0,1-7.488,7.723l-73,5.7a22.742,22.742,0,0,1-10.42-1.654l-9.521-3.936a6.659,6.659,0,0,1-4.109-6.355c.424-13.2.38-26.173-.053-38.848q-.186-5.406-.465-10.734a19.808,19.808,0,0,1,7.288,1.995c6.714,15.834,14.975,20.649,27.274-3.316a9.453,9.453,0,0,1,2.477-2.569c2.287-1.69,6.294-3.321,12.548-1.812,4.838,1.163,11.024,4.214,18.809,10.573,12.617,10.314,18.919,9.031,22.064,5.123a13.355,13.355,0,0,0,2.339-4.892,23.692,23.692,0,0,0,.805-5.758s4.564-5.219,11.653,7.314c.009.256.018.51.022.765q.16,5.209.221,10.381C1495.92,2247.226,1495.774,2257.363,1495.345,2267.277Z" transform="translate(-1390.291 -2212.869)" fill="#57baeb"/>
        </g>
        <g id="Grupo_1415" data-name="Grupo 1415" transform="translate(12.925 92.401)" opacity="0.55">
          <path id="Trazado_13631" data-name="Trazado 13631" d="M1366.931,1980.28c.067,1.31.133,2.624.19,3.941q-.783-17.142-2.454-33.421a23.467,23.467,0,0,0,4.551,10.162q.87,9.819,1.438,19.958A20.353,20.353,0,0,0,1366.931,1980.28Z" transform="translate(-1364.667 -1950.8)" fill="#fff"/>
        </g>
        <g id="Grupo_1416" data-name="Grupo 1416" transform="translate(15.543 129.639)" opacity="0.55">
          <path id="Trazado_13632" data-name="Trazado 13632" d="M1399.645,2420.435l-1.106-.456a6.659,6.659,0,0,1-4.109-6.355c.456-14.232.372-28.206-.164-41.824.04.99.075,1.98.11,2.977l.037,0a4.318,4.318,0,0,1,3.842,4.167c.387,12.156.408,24.587,0,37.219A6.626,6.626,0,0,0,1399.645,2420.435Z" transform="translate(-1394.267 -2371.8)" fill="#fff"/>
        </g>
        <g id="Grupo_1417" data-name="Grupo 1417" transform="translate(2.082 1.326)" opacity="0.55">
          <path id="Trazado_13633" data-name="Trazado 13633" d="M1342.435,924.022a8.2,8.2,0,0,0-3.021-.332l-2.463.19-28.862,2.251-10.136.792-31.453,2.455-1.167.093a13.945,13.945,0,0,0-8.191,3.494l-.849.761-.009,0L1248.133,941a6.655,6.655,0,0,0-2.07,6.386,592.451,592.451,0,0,1,9.778,58.93,9.763,9.763,0,0,1-3.79-2.242v.053a591.534,591.534,0,0,0-9.818-59.284,6.658,6.658,0,0,1,2.07-6.386l8.151-7.27.009,0,.849-.761a13.948,13.948,0,0,1,8.191-3.494l1.167-.093,31.453-2.454,10.137-.792,28.861-2.251,2.463-.19A8.121,8.121,0,0,1,1342.435,924.022Z" transform="translate(-1242.079 -921.123)" fill="#fff"/>
        </g>
        <g id="Grupo_1418" data-name="Grupo 1418" transform="translate(0.757 0)">
          <path id="Trazado_13634" data-name="Trazado 13634" d="M1264.36,1090.938a24.1,24.1,0,0,1-9.185-1.82l-9.521-3.938a8.014,8.014,0,0,1-4.925-7.623,602.161,602.161,0,0,0-13.443-146.089,7.986,7.986,0,0,1,2.483-7.661l9.01-8.035a15.347,15.347,0,0,1,8.97-3.825l74.08-5.78a9.432,9.432,0,0,1,9.9,7.1c12.616,49.638,18.515,109.019,16.184,162.916a9.445,9.445,0,0,1-8.705,8.986l-73,5.7Q1265.284,1090.938,1264.36,1090.938Zm58.212-182.148c-.177,0-.357.007-.537.021l-74.081,5.78a12.68,12.68,0,0,0-7.41,3.161l-9.009,8.035a5.329,5.329,0,0,0-1.658,5.112,604.837,604.837,0,0,1,13.5,146.742,5.346,5.346,0,0,0,3.287,5.086l9.521,3.939a21.406,21.406,0,0,0,9.81,1.555l73-5.7a6.788,6.788,0,0,0,6.261-6.455c2.32-53.649-3.55-112.75-16.106-162.148A6.789,6.789,0,0,0,1322.573,908.79Zm16.531,175.058h0Z" transform="translate(-1227.101 -906.136)" fill="#541c27"/>
        </g>
        <g id="Grupo_1419" data-name="Grupo 1419" transform="translate(23.625 35.004)">
          <path id="Trazado_13635" data-name="Trazado 13635" d="M1486.965,1311.264a1.327,1.327,0,0,1-.485-2.562,15.307,15.307,0,0,1,4.39-1.012l74.085-5.781a9.441,9.441,0,0,1,9.9,7.1,1.327,1.327,0,1,1-2.572.652,6.8,6.8,0,0,0-7.121-5.11l-74.081,5.78a12.7,12.7,0,0,0-3.63.836A1.326,1.326,0,0,1,1486.965,1311.264Z" transform="translate(-1485.637 -1301.88)" fill="#541c27"/>
        </g>
        <g id="Grupo_1420" data-name="Grupo 1420" transform="translate(29.313 71.764)">
          <path id="Trazado_13636" data-name="Trazado 13636" d="M1551.266,1726.709a1.327,1.327,0,0,1-.445-2.576,15.313,15.313,0,0,1,3.941-.842l74.079-5.78a9.449,9.449,0,0,1,9.9,7.1,1.327,1.327,0,0,1-2.571.656,6.8,6.8,0,0,0-7.125-5.114l-74.077,5.78a12.651,12.651,0,0,0-3.256.7A1.339,1.339,0,0,1,1551.266,1726.709Z" transform="translate(-1549.939 -1717.482)" fill="#541c27"/>
        </g>
        <g id="Grupo_1421" data-name="Grupo 1421" transform="translate(54.504 3.152)">
          <path id="Trazado_13637" data-name="Trazado 13637" d="M1860.648,1064.215a1.327,1.327,0,0,1-1.325-1.27c-.237-5.512-.559-11.109-.953-16.636-2.4-33.93-7.618-67.388-15.079-96.759a6.782,6.782,0,0,0-7.12-5.107,1.327,1.327,0,1,1-.207-2.645,9.427,9.427,0,0,1,9.9,7.1c7.5,29.521,12.739,63.14,15.153,97.224.4,5.55.719,11.172.958,16.71a1.326,1.326,0,0,1-1.269,1.382Z" transform="translate(-1834.741 -941.769)" fill="#541c27"/>
        </g>
        <g id="Grupo_1422" data-name="Grupo 1422" transform="translate(47.795 5.097)" opacity="0.3">
          <path id="Trazado_13638" data-name="Trazado 13638" d="M1758.891,963.76l.1,0s-.009,0-.013,0Z" transform="translate(-1758.891 -963.756)" fill="#760153"/>
        </g>
        <g id="Grupo_1423" data-name="Grupo 1423" transform="translate(47.897 4.716)" opacity="0.3">
          <path id="Trazado_13639" data-name="Trazado 13639" d="M1766.307,959.456l-6.253.385s-.01,0-.013,0Z" transform="translate(-1760.041 -959.456)" fill="#760153"/>
        </g>
        <g id="Grupo_1424" data-name="Grupo 1424" transform="translate(58.113 4.477)" opacity="0.3">
          <path id="Trazado_13640" data-name="Trazado 13640" d="M1877.911,958.538l-2.37-1.782A7.535,7.535,0,0,1,1877.911,958.538Z" transform="translate(-1875.541 -956.756)" fill="#760153"/>
        </g>
        <g id="Grupo_1425" data-name="Grupo 1425" transform="translate(24.952 6.26)" opacity="0.3">
          <path id="Trazado_13641" data-name="Trazado 13641" d="M1510.34,1012.34l-9.7.721,7.226-7.7,26.522-1.932a1.914,1.914,0,0,0,1.734-2.3q-1.964-9.386-4.237-18.4l4.285-5.833a14.855,14.855,0,0,1,3.516,6.952c2.127,8.049,4.011,16.593,5.683,25.558l-7.443.739c-.044-.234-.089-.464-.133-.694l-27.677,2.251Z" transform="translate(-1500.641 -976.906)" fill="#760153"/>
        </g>
        <g id="Grupo_1426" data-name="Grupo 1426" transform="translate(30.578 40.344)" opacity="0.3">
          <path id="Trazado_13642" data-name="Trazado 13642" d="M1601.673,1398.29l-.128-.969c.044.323.084.645.124.969l-26.075,1.441.234.455-3.012.35-8.518.981c-.017-.15-.036-.3-.057-.442l7.549-8.642,25.019-2.105a3.586,3.586,0,0,0,3.246-4.095q-1.261-8.77-2.786-17.373l6.369-6.607c2.083,11.4,3.834,23.457,5.329,36.035Z" transform="translate(-1564.241 -1362.255)" fill="#760153"/>
        </g>
        <g id="Grupo_1427" data-name="Grupo 1427" transform="translate(68.864 76.848)" opacity="0.3">
          <path id="Trazado_13643" data-name="Trazado 13643" d="M2007.051,1810.474l-7.213,3.833c-.239-5.545-.115-2.423-.513-7.986q-.876-12.3-2.234-24.541l6.492-6.824C2004.933,1786.407,2006.074,1798.281,2007.051,1810.474Z" transform="translate(-1997.091 -1774.956)" fill="#760153"/>
        </g>
        <g id="Grupo_1428" data-name="Grupo 1428" transform="translate(30.14 79.165)" opacity="0.3">
          <path id="Trazado_13644" data-name="Trazado 13644" d="M1559.786,1801.6l-.5.058.437-.5C1559.75,1801.3,1559.768,1801.449,1559.786,1801.6Z" transform="translate(-1559.291 -1801.156)" fill="#760153"/>
        </g>
        <g id="Grupo_1429" data-name="Grupo 1429" transform="translate(67.882 75.411)" opacity="0.3">
          <path id="Trazado_13645" data-name="Trazado 13645" d="M1986.12,1759.674h0c-.04-.323-.079-.646-.125-.968Z" transform="translate(-1985.991 -1758.706)" fill="#760153"/>
        </g>
        <g id="Grupo_1430" data-name="Grupo 1430" transform="translate(11.14 9.145)">
          <path id="Trazado_13646" data-name="Trazado 13646" d="M1364.464,1183.911a4.807,4.807,0,0,1-1.84-.365,1.327,1.327,0,1,1,1.014-2.453,2.162,2.162,0,0,0,2.987-1.894c2.607-54.672-3.318-114.935-16.253-165.338a2.194,2.194,0,0,0-1.519-1.585,2.242,2.242,0,0,0-2.163.474,1.327,1.327,0,0,1-1.766-1.98,4.907,4.907,0,0,1,8.019,2.431c13,50.649,18.951,111.2,16.334,166.123a4.814,4.814,0,0,1-4.812,4.585Z" transform="translate(-1344.479 -1009.521)" fill="#541c27"/>
        </g>
        <g id="Grupo_1431" data-name="Grupo 1431" transform="translate(1.327 92.791)">
          <path id="Trazado_13647" data-name="Trazado 13647" d="M1354.724,1992.373v.005c-.549.495-.9.747-.9.747-7.748-15.28-12.817-9.486-12.817-9.486s.084,10.207-5.992,12.887c-3.68,1.618-9.624.482-19.216-7.359-25.43-20.786-33.833-6.191-33.833-6.191-12.3,23.966-20.561,19.15-27.274,3.316-9.367-4.643-18.695,0-18.695,0l6.165-14.594-8.624-4.2c3.1-8.625,11.64-12.291,11.64-12.291s2.609,17.208,21.061,17.217,23.36-8.421,45.893-2.286c14.815,4.033,28.525.189,36.18-2.919h0a48.822,48.822,0,0,0,6.333-3.039l6.7,12.163A20.525,20.525,0,0,1,1354.724,1992.373Z" transform="translate(-1233.541 -1955.206)" fill="#fbc100"/>
        </g>
        <g id="Grupo_1432" data-name="Grupo 1432" transform="translate(1.327 92.791)" opacity="0.55">
          <path id="Trazado_13648" data-name="Trazado 13648" d="M1271.389,1997.671c-6.815,5.1-12.113-.574-16.695-11.379-9.367-4.643-18.695,0-18.695,0l6.165-14.594-8.624-4.2c3.1-8.625,11.64-12.291,11.64-12.291s.053.34.19.928a21.787,21.787,0,0,0-6.613,8.259,1.367,1.367,0,0,0,.66,1.773l5.218,2.542a2.653,2.653,0,0,1,1.282,3.418l-5.186,12.278a23.767,23.767,0,0,1,12.728-1.85,10.246,10.246,0,0,1,7.671,5.552C1264.154,1994.113,1267.5,1997.779,1271.389,1997.671Z" transform="translate(-1233.541 -1955.206)" fill="#fff"/>
        </g>
        <g id="Grupo_1433" data-name="Grupo 1433" transform="translate(57.361 113.692)" opacity="0.55">
          <path id="Trazado_13649" data-name="Trazado 13649" d="M1914.415,2210.661c-3.405,3.069-9.655,3.294-21.149-6.1-12.533-10.247-20.932-11.9-26.226-10.932,4.259-2.87,13.678-5.081,30.958,9.044C1905.464,2208.773,1910.718,2210.816,1914.415,2210.661Z" transform="translate(-1867.041 -2191.502)" fill="#fff"/>
        </g>
        <g id="Grupo_1434" data-name="Grupo 1434" transform="translate(0 91.465)">
          <path id="Trazado_13650" data-name="Trazado 13650" d="M1252.813,1987.225c-.089,0-.176,0-.264-.005-4.621-.168-8.617-4.5-12.554-13.611-8.492-3.933-16.993.166-17.08.208a1.327,1.327,0,0,1-1.811-1.705l5.676-13.436-7.494-3.65a1.327,1.327,0,0,1-.668-1.642c3.254-9.063,12-12.9,12.367-13.062a1.326,1.326,0,0,1,1.834,1.021c.1.654,2.692,16.079,19.749,16.091h.038a64.737,64.737,0,0,0,16.668-2.38c7.877-1.92,15.318-3.732,29.534.137,21.735,5.915,41.289-5.692,41.483-5.81a1.327,1.327,0,1,1,1.374,2.27c-.836.506-20.734,12.311-43.554,6.1-13.555-3.689-20.346-2.035-28.209-.119a66.978,66.978,0,0,1-17.3,2.455h-.04c-15.734-.01-20.65-11.988-21.955-16.582a21.936,21.936,0,0,0-9.057,9.675l7.517,3.663a1.326,1.326,0,0,1,.641,1.709l-4.966,11.755a23.091,23.091,0,0,1,16.861,1.135,1.327,1.327,0,0,1,.631.669c3.454,8.141,6.955,12.333,10.406,12.458,4.143.142,8.989-5.187,14.469-15.863.009-.019.02-.037.03-.056a12.53,12.53,0,0,1,8.492-5.38c7.383-1.354,16.576,2.416,27.331,11.207,7.929,6.482,14.155,8.936,18,7.1,5.04-2.41,5.04-11.5,5.04-11.587a1.329,1.329,0,0,1,.328-.884,5.052,5.052,0,0,1,4.318-1.488c3.27.409,6.6,3.689,9.9,9.757a19.084,19.084,0,0,0,5.8-14.639,1.327,1.327,0,0,1,2.652-.106,21.594,21.594,0,0,1-8.079,17.913,1.326,1.326,0,0,1-1.958-.478c-4.078-8.043-7.131-9.6-8.588-9.807a2.519,2.519,0,0,0-1.73.351c-.093,2.388-.826,10.624-6.53,13.358-4.91,2.355-11.919-.146-20.833-7.432-12.556-10.263-20.575-11.465-25.093-10.666a9.949,9.949,0,0,0-6.74,4.093C1263.488,1981.571,1258.04,1987.224,1252.813,1987.225Z" transform="translate(-1218.539 -1940.214)" fill="#541c27"/>
        </g>
        <g id="Grupo_1435" data-name="Grupo 1435" transform="translate(116.275 84.522)">
          <path id="Trazado_13651" data-name="Trazado 13651" d="M2547.487,1898.7a9.259,9.259,0,0,1-2.47-.365,1.327,1.327,0,0,1,.713-2.556c3.163.88,4.086-.548,4.5-1.7,1.151-3.165-.118-9.378-3.158-15.461-3.439-6.886-8.248-12.121-13.189-14.364a1.327,1.327,0,0,1,1.1-2.417c5.484,2.49,10.759,8.173,14.466,15.594,3.449,6.9,4.706,13.63,3.278,17.554A5.26,5.26,0,0,1,2547.487,1898.7Z" transform="translate(-2533.108 -1861.723)" fill="#541c27"/>
        </g>
        <g id="Grupo_1436" data-name="Grupo 1436" transform="translate(67.882 75.411)" opacity="0.3">
          <path id="Trazado_13652" data-name="Trazado 13652" d="M1986.12,1759.674h0c-.04-.323-.079-.646-.125-.968Z" transform="translate(-1985.991 -1758.706)" fill="#760153"/>
        </g>
        <g id="Grupo_1437" data-name="Grupo 1437" transform="translate(66.489 76.379)" opacity="0.2">
          <path id="Trazado_13653" data-name="Trazado 13653" d="M1971.757,1769.656l-1.517.137.013-.137Z" transform="translate(-1970.241 -1769.656)" fill="#fff"/>
        </g>
        <g id="Grupo_1438" data-name="Grupo 1438" transform="translate(12.052 67.052)" opacity="0.3">
          <path id="Trazado_13654" data-name="Trazado 13654" d="M1354.792,1681.431c8.833,7.919,15.656-4.612,16.9-17.225l5.075,42.957C1365.807,1706.335,1355.207,1701.338,1354.792,1681.431Z" transform="translate(-1354.792 -1664.206)" fill="#760153"/>
        </g>
        <g id="Grupo_1439" data-name="Grupo 1439" transform="translate(12.054 84.33)" opacity="0.3">
          <path id="Trazado_13655" data-name="Trazado 13655" d="M1355.688,1867.621a43.468,43.468,0,0,1-.87-8.071Q1355.275,1863.551,1355.688,1867.621Z" transform="translate(-1354.818 -1859.55)" fill="#760153"/>
        </g>
        <g id="Grupo_1440" data-name="Grupo 1440" transform="translate(101.453 101.765)" opacity="0.3">
          <path id="Trazado_13656" data-name="Trazado 13656" d="M2386.6,2084.85c.619-1.662-.9.752-.9.752-7.749-15.28-12.817-9.486-12.817-9.486s.084,10.208-5.992,12.887l-1.349-.407q2.495-5.087,2.489-13.113c0-5.241,4.813-7.833,9.563-5.622,1.592.743,3.058,2.269,5.529,2.924,8.624,2.288,1.321-11.587-2.928-13.092a48.885,48.885,0,0,0,6.333-3.038l6.7,12.162A20.529,20.529,0,0,1,2386.6,2084.85Z" transform="translate(-2365.541 -2056.656)" fill="#541c27"/>
        </g>
        <g id="Grupo_1441" data-name="Grupo 1441" transform="translate(15.192 116.178)" opacity="0.3">
          <path id="Trazado_13657" data-name="Trazado 13657" d="M1495.345,2273.42a8.118,8.118,0,0,1-7.488,7.722l-73,5.7a22.426,22.426,0,0,1-4.432-.093c-.4-.119-.619-.19-.619-.19,30.968-2.432,55.988-8.768,64.769-25.777a9.408,9.408,0,0,0-5.012-13.024,42.671,42.671,0,0,1-10.892-6.884c-25.429-20.786-33.832-6.192-33.832-6.192-12.3,23.965-20.562,19.15-27.275,3.317a19.727,19.727,0,0,0-6.811-1.949q-.186-5.408-.465-10.733a19.833,19.833,0,0,1,7.288,1.993c6.714,15.833,14.975,20.649,27.274-3.316a9.459,9.459,0,0,1,2.477-2.57,52.23,52.23,0,0,1,12.548-1.814c4.838,1.164,11.024,4.216,18.809,10.576,12.613,10.309,18.915,9.03,22.064,5.125v-.005a13.326,13.326,0,0,0,2.339-4.891h0a23.811,23.811,0,0,0,.8-5.758s4.564-5.218,11.653,7.315c.009.255.018.508.022.764.026.867.053,1.734.075,2.6q.1,3.9.146,7.78C1495.92,2253.368,1495.774,2263.5,1495.345,2273.42Z" transform="translate(-1390.291 -2219.605)" fill="#541c27"/>
        </g>
      </g>
      <g id="Grupo_1449" data-name="Grupo 1449" transform="translate(84.092 51.295)">
        <path id="Trazado_13658" data-name="Trazado 13658" d="M9.706,3.469A4.967,4.967,0,1,1,3.467.23,4.967,4.967,0,0,1,9.706,3.469Z" transform="translate(1.554 0) rotate(9)" fill="#291b22"/>
        <path id="Trazado_13659" data-name="Trazado 13659" d="M3.451,1.232A1.767,1.767,0,1,1,2.577.2,1.767,1.767,0,0,1,3.451,1.232Z" transform="translate(2.428 1.423) rotate(9)" fill="#f6f6f6"/>
      </g>
      <path id="Trazado_13660" data-name="Trazado 13660" d="M9.7,3.46A4.967,4.967,0,1,1,3.5.221,4.967,4.967,0,0,1,9.7,3.46Z" transform="translate(55.467 52.61) rotate(9)" fill="#291b22"/>
      <path id="Trazado_13661" data-name="Trazado 13661" d="M3.453,1.237A1.767,1.767,0,1,1,1.236.082,1.767,1.767,0,0,1,3.453,1.237Z" transform="translate(56.33 54.009) rotate(9)" fill="#f6f6f6"/>
      <path id="Trazado_13662" data-name="Trazado 13662" d="M9.17,1.355A3.743,3.743,0,1,1,2.032,3.61a1.04,1.04,0,1,0-1.983.628A5.823,5.823,0,1,0,11.154.727a1.04,1.04,0,0,0-1.984.628Z" transform="translate(69.693 63.976) rotate(9)" fill="#291b22"/>
    </g>
    <g id="Grupo_14769" data-name="Grupo 14769" transform="translate(8820.865 -1630.376)">
      <path id="Trazado_14939" data-name="Trazado 14939" d="M304.284,76.964a26.255,26.255,0,0,0-6.162-12.418,23.807,23.807,0,0,0-17.6-7.744c-5.917,0-11.967,2.167-17.877,6.373-.185.119-.372.246-.561.376a26.6,26.6,0,0,0-2.468-2.43c-.153-.137-.315-.267-.484-.4a22.639,22.639,0,0,0-13.908-5.044c-7.01,0-13.956,3.5-21.229,10.678-.121.118-.237.239-.338.349-.559.607-1.079,1.193-1.585,1.768a22.713,22.713,0,0,0-2.847-3.93,23.815,23.815,0,0,0-17.6-7.742c-5.919,0-11.965,2.169-17.875,6.374a26.664,26.664,0,0,0-3.417,2.683,12.742,12.742,0,0,0-3.116,1.188,9.957,9.957,0,0,0-1.318.851,19.775,19.775,0,0,0-10.523-6.686L171.612,49a14.7,14.7,0,0,0,2.108-7.056V41.6c0-3.607-1.5-7.094-4.6-10.669-.151-.174-.306-.342-.461-.5C164.326,26.094,159.7,23.9,154.9,23.9a11.937,11.937,0,0,0-9.442,4.38,9.732,9.732,0,0,0-1.138,1.741l-3.876,7.59c-3.652-4.209-10.126-8.828-20.945-8.828a41.638,41.638,0,0,0-6.421.577c-9.36,1.586-19.18,6.116-29.178,13.459A125.287,125.287,0,0,0,59.874,66.423l-.166.212a115.636,115.636,0,0,0-9.462,14.186c-5.612,10.922-8.456,21.315-8.456,30.889a36.661,36.661,0,0,0,5.352,19.525l.246.383c7.977,11.736,17.651,14.2,24.361,14.2h.438c10.162,0,22.134-5.68,36.546-17.353,3.923,3.417,8.025,5.148,12.229,5.148a12.31,12.31,0,0,0,8.764-3.586,9.731,9.731,0,0,0,1.805-2.47q2.158-4.209,4.028-7.861c.288.636.611,1.27.969,1.9a9.69,9.69,0,0,0,.584.9c4.277,5.885,9.357,8.871,15.1,8.871h.2a14.608,14.608,0,0,0,3.534-.4c3.536-.785,7.364-2.813,12.209-6.5a21.554,21.554,0,0,0,15.939,7.046h.878c5.876,0,11.953-2.227,18.521-6.771a42.108,42.108,0,0,0,6.047-5.155c5.461,9.69,12.663,11.778,17.814,11.778h.586c3.963,0,8.534-1.414,14.4-4.46a43.791,43.791,0,0,0,4.441-2.73,21.6,21.6,0,0,0,16.212,7.338h.876c5.878,0,11.953-2.227,18.519-6.77a48.862,48.862,0,0,0,7.387-6.49c.126-.126.251-.258.365-.388a64.556,64.556,0,0,0,6.948-9.15c5.331-8.949,7.922-16.929,7.922-24.4v-.78A32.606,32.606,0,0,0,304.284,76.964Z" transform="translate(-41.791 -23.895)" fill="#541c27"/>
      <g id="Grupo_14768" data-name="Grupo 14768" transform="translate(9.793 9.793)">
        <g id="Grupo_14767" data-name="Grupo 14767">
          <g id="Grupo_14766" data-name="Grupo 14766">
            <g id="Grupo_14765" data-name="Grupo 14765">
              <path id="Trazado_14940" data-name="Trazado 14940" d="M212.022,79.245a22.159,22.159,0,0,0-.49-4.442,16.547,16.547,0,0,0-3.711-7.813A14,14,0,0,0,197.327,62.3q-5.862,0-12.453,4.736a28.068,28.068,0,0,0-4.638,4.1,8.653,8.653,0,0,0-1.024-.1h-.442a2.583,2.583,0,0,0-1.218.342,32.161,32.161,0,0,0-3.956,4.834q-7.011,11.124-7.585,21.511-1.656,1.72-4.767,4.758a77.322,77.322,0,0,1-10.008,8.1,39.475,39.475,0,0,1,1.369-3.759q1.266-2.783,11.424-22.9,2.732-4.738,2.735-7.763a10.337,10.337,0,0,0-2.1-5.566q-3.368-4.444-8.247-4.444-5.179,0-14.5,6.835h-.05l16.846-32.956a6.3,6.3,0,0,0,.926-2.391V37.3q0-1.707-2.2-4.247Q153.778,29.4,150.65,29.4H150.6a2.261,2.261,0,0,0-1.857.782l-23.29,45.6c-2.742,5.388-5.132,10.083-7.192,14.134q-4.685,4.962-9.506,9.837-27.1,26.705-41.205,26.706h-.148a20.637,20.637,0,0,1-2.1-.148,10.184,10.184,0,0,1-3.517-2.585q-3.176-3.272-3.173-10.5,0-7.812,4-18.016a77.82,77.82,0,0,1,4.3-8.545,126.46,126.46,0,0,1,7.617-10.742,121.529,121.529,0,0,1,8.741-9.91q5.561-5.419,8.543-7.763a85.542,85.542,0,0,1,11.228-7.665q11.423-6.052,18.067-6.054h.974a11.374,11.374,0,0,1,3.858.682,9.542,9.542,0,0,1-1.074,2.931,33.291,33.291,0,0,1-4.934,7.275,63.033,63.033,0,0,1-5.906,6.054,117.882,117.882,0,0,1-11.374,8.787c-.815.392-1.221.83-1.221,1.319a4.206,4.206,0,0,0,.392,1.074q1.707,2.1,3.269,2.1a5.885,5.885,0,0,0,2.051-1.075q5.077-3.566,9.471-7.275a74.487,74.487,0,0,0,6.933-6.786q7.275-8.5,7.275-13.963v-.634a8.516,8.516,0,0,0-1.659-4.786q-4.738-5.956-13.965-5.958a32.051,32.051,0,0,0-4.786.442q-11.813,2-25.045,11.716A115.033,115.033,0,0,0,63.257,68.211,108.28,108.28,0,0,0,54.662,81q-7.371,14.356-7.371,26.414a26.91,26.91,0,0,0,3.9,14.4q6.738,9.911,16.262,9.911H67.9q13.867,0,37.641-21.383c1.362-1.227,2.865-2.639,4.487-4.218-.481.953-.807,1.594-.97,1.921a8.892,8.892,0,0,0-1.465,3.419q0,1.611,2.1,4.2,3.806,3.857,6.982,3.857a2.512,2.512,0,0,0,1.854-.732q14.7-28.658,15.87-31.151a82.955,82.955,0,0,1,6.933-7.079q8.2-7.273,13.717-9.277a.044.044,0,0,0,.05.05l-.244,1.074q-1.562,3.224-9.18,18.359-6.349,11.864-6.348,16.794a9.827,9.827,0,0,0,1.419,4.882q3.515,4.834,7.176,4.834h.2a5.021,5.021,0,0,0,1.319-.148q4.247-.879,13.035-8.447c1.177-1.018,2.541-2.3,4.051-3.784a17.817,17.817,0,0,0,2.635,6.324q4.4,6.2,10.644,6.2h.878q5.71,0,13.087-5.128a41.376,41.376,0,0,0,5.856-5.224,55.092,55.092,0,0,0,5.86-7.667q6.543-10.982,6.544-19.381Zm-5.714-2.3q0,6.885-5.03,16.26a43.465,43.465,0,0,1-3.365,5.174,42.04,42.04,0,0,1-5.57,6.348q-7.858,7.078-13.767,7.079a10.548,10.548,0,0,1-1.318-5.712v-.88a32.38,32.38,0,0,1,1.562-9.083q3.176,2.345,5.128,2.345h.534a2.889,2.889,0,0,0,.832-.148,1.9,1.9,0,0,0,1.221-1.953,3.737,3.737,0,0,0-.048-.682,15.083,15.083,0,0,1-.783-4.444q0-7.078,7.327-13.669,6.487-5.077,10.982-5.078a4.222,4.222,0,0,1,1.807.538q.441,0,.488,3.465Z" transform="translate(-47.291 -29.395)" fill="#fff"/>
              <path id="Trazado_14941" data-name="Trazado 14941" d="M218.366,60.869a16.531,16.531,0,0,0-3.711-7.813,14,14,0,0,0-10.495-4.686q-5.862,0-12.453,4.736a28.067,28.067,0,0,0-4.638,4.1,8.667,8.667,0,0,0-1.022-.1H185.6a2.583,2.583,0,0,0-1.218.342,32.033,32.033,0,0,0-3.955,4.834q-7,11.108-7.585,21.48c-.536.55-1.189,1.227-1.984,2.053a80.841,80.841,0,0,1-9.617,8.1q-5.908,4.1-9.618,4.444a14.324,14.324,0,0,1-.686-4.15V93.043q0-10.056,8.935-23.044a46.278,46.278,0,0,1,5.274-6.3,26.671,26.671,0,0,1,5.662-4.54,19.068,19.068,0,0,1,4.053-1.709c-.356.684-.945,1.645-1.757,2.881a78.555,78.555,0,0,1-5.956,6.835v.292a3.9,3.9,0,0,0,.83,1.661q1.757,1.709,2.689,1.709h.29l.294-.05a41.005,41.005,0,0,0,2.883-3.027q6.391-7.369,6.394-11.278,0-2.978-3.711-6.2a13.048,13.048,0,0,0-7.959-3.027q-6.4,0-14.357,7.861a61.465,61.465,0,0,0-5.222,6.348,76.615,76.615,0,0,0-5.662,9.521,40.255,40.255,0,0,0-4,16.552,20.364,20.364,0,0,0,1.756,8.445q3.907,7.374,9.618,7.373h.586q3.416,0,9.816-3.321a45.718,45.718,0,0,0,7.322-5.078,44.873,44.873,0,0,0,4.626-4.042,17.816,17.816,0,0,0,2.646,6.387q4.4,6.2,10.644,6.2h.878q5.713,0,13.087-5.128a41.377,41.377,0,0,0,5.856-5.224,54.958,54.958,0,0,0,5.86-7.667q6.544-10.982,6.543-19.381v-.782A22.157,22.157,0,0,0,218.366,60.869Zm-5.222,2.147q0,6.885-5.03,16.26a43.741,43.741,0,0,1-3.367,5.174,42.041,42.041,0,0,1-5.57,6.348q-7.858,7.078-13.767,7.079a10.548,10.548,0,0,1-1.318-5.712v-.88a32.326,32.326,0,0,1,1.563-9.083q3.173,2.345,5.126,2.345h.536a2.888,2.888,0,0,0,.83-.148,1.9,1.9,0,0,0,1.221-1.953,3.581,3.581,0,0,0-.048-.682,15.075,15.075,0,0,1-.782-4.444q0-7.078,7.325-13.669,6.487-5.077,10.982-5.078a4.215,4.215,0,0,1,1.807.538q.441,0,.49,3.465Z" transform="translate(24.774 -15.462)" fill="#fff"/>
            </g>
          </g>
        </g>
      </g>
    </g>
  </g>
</svg>
