<svg width="78" height="78" viewBox="0 0 78 78" fill="none" xmlns="http://www.w3.org/2000/svg">
<g opacity="0.7">
<path d="M8.14822 47.1563H30.2231C31.1097 47.1563 31.8632 47.9099 31.8632 48.7964C31.8632 52.6972 34.9661 55.7558 38.9113 55.7558C42.8564 55.7558 45.9593 52.6972 45.9593 48.7964C45.9593 47.9099 46.7128 47.1563 47.5994 47.1563H69.5413C70.2062 47.1563 70.7825 47.5552 71.0485 48.1315C70.6938 46.9347 70.0733 45.6935 69.9846 45.5162C69.9846 45.4719 69.9403 45.4719 69.9403 45.4719L62.8923 34.3014C62.8923 34.2571 62.8479 34.2571 62.8479 34.2128C62.715 34.0798 61.6511 32.7056 60.4099 31.9964C59.1245 31.2428 57.3514 31.1099 57.1297 31.1099H19.4516C19.1414 31.1099 17.6342 31.1542 16.4374 31.8634C15.2406 32.617 14.354 33.9025 14.2654 34.0355C14.2654 34.0355 14.221 34.0798 14.221 34.1241L8.2812 44.674C8.10389 44.9399 7.52764 45.9595 7.04004 47.5552C7.35033 47.3336 7.70495 47.1563 8.14822 47.1563Z" fill="#D6A485"/>
<path d="M71.4034 51.0569C71.4034 50.9239 71.3147 49.7714 71.0931 48.6633V48.8406C71.0931 49.7271 70.3838 50.4807 69.453 50.4807H49.0625L48.8408 51.3229C47.6883 55.8886 43.5659 59.0358 38.8672 59.0358C34.1242 59.0358 30.0018 55.8443 28.8493 51.3229L28.6277 50.4807H8.10418C7.43928 50.4807 6.90735 50.0817 6.64139 49.5498C6.55273 50.3477 6.55273 50.9683 6.55273 51.2342V63.2026C6.55273 63.4242 6.68572 65.2416 7.9712 66.4384C9.25669 67.6353 11.2957 67.7239 11.5174 67.7239H11.606H11.5617H66.0841C66.4831 67.7239 68.4778 67.6796 69.8519 66.4384C71.2261 65.1973 71.3147 63.5129 71.3147 63.0253L71.4034 51.0569ZM38.7786 26.544C37.5374 26.544 36.5179 25.5245 36.5179 24.2833V11.3398C36.5179 10.0986 37.5374 9.0791 38.7786 9.0791C40.0197 9.0791 41.0393 10.0986 41.0393 11.3398V24.3276C41.0393 25.5688 40.0197 26.544 38.7786 26.544ZM53.8941 26.4553C52.653 26.4553 51.6335 25.4358 51.6335 24.1947C51.6335 23.6627 51.8108 23.1751 52.1211 22.7762L57.263 16.4374C57.7063 15.9055 58.3269 15.5952 59.0361 15.5952C59.568 15.5952 60.0556 15.7725 60.4546 16.0828C60.9422 16.4374 61.2081 17.0137 61.2968 17.5899C61.3411 18.1662 61.1638 18.7867 60.8092 19.23L55.6672 25.5688C55.224 26.1894 54.6034 26.4997 53.8941 26.4553ZM23.929 26.3224C23.2641 26.3224 22.5992 26.0121 22.1559 25.4802L17.1026 19.097C16.349 18.1218 16.482 16.7034 17.4572 15.9055C17.8562 15.5952 18.3438 15.4179 18.8757 15.4179C19.5849 15.4179 20.2055 15.7282 20.6488 16.2601L25.7021 22.6432C26.4556 23.6184 26.3226 25.0369 25.3475 25.8348C24.9485 26.1451 24.4166 26.3224 23.929 26.3224Z" fill="#D6A485"/>
</g>
</svg>
