<svg width="20" height="20" viewBox="0 0 20 20" fill="none" xmlns="http://www.w3.org/2000/svg">
<path d="M4.28125 6.76563C4.3125 6.53125 4.375 6.3125 4.45312 6.10938C1.79687 6.5625 -0.078125 10.5 7.21875 14.8125C7.5625 15.0313 7.4375 15.0313 7.79688 14.8125C8.25 14.5469 8.67188 14.2656 9.0625 14C4.4375 10.8125 4.0625 8.14063 4.28125 6.76563Z" fill="#AC562A"/>
<path d="M17.5156 6.82836C17.3125 5.59399 16.3437 4.62524 15.0469 4.35961C13.9531 4.12524 12.4375 4.42211 11.4531 5.92211L11.2187 6.28149L11.1875 6.31274L11.1562 6.25024L10.9375 5.92211C10.1562 4.73461 9.03123 4.31274 8.04685 4.31274C7.79685 4.31274 7.56248 4.34399 7.34373 4.39086C6.34373 4.60961 5.53123 5.23461 5.12498 6.07836C4.99998 6.32836 4.92185 6.59399 4.87498 6.87524C4.7031 7.89086 4.8906 10.4534 9.5781 13.6409C10.0156 13.9377 10.4687 14.2346 10.9844 14.5315C11.0625 14.5784 11.125 14.6252 11.1719 14.6565H11.1875C11.1875 14.6565 11.2031 14.6565 11.2031 14.6409C11.25 14.6096 11.3125 14.5627 11.375 14.5159C17.4687 10.9065 17.7031 7.93774 17.5156 6.82836Z" fill="#AC562A"/>
</svg>
