<svg width="32" height="32" viewBox="0 0 32 32" fill="none" xmlns="http://www.w3.org/2000/svg">
<path d="M6.85 10.8249C6.9 10.4499 7 10.0999 7.125 9.7749C2.875 10.4999 -0.125 16.7999 11.55 23.6999C12.1 24.0499 11.9 24.0499 12.475 23.6999C13.2 23.2749 13.875 22.8249 14.5 22.3999C7.1 17.2999 6.5 13.0249 6.85 10.8249Z" fill="url(#paint0_linear)"/>
<path d="M28.025 10.9253C27.7 8.95028 26.15 7.40028 24.075 6.97528C22.325 6.60028 19.9 7.07529 18.325 9.47529L17.95 10.0503L17.9 10.1003L17.85 10.0003L17.5 9.47529C16.25 7.57529 14.45 6.90029 12.875 6.90029C12.475 6.90029 12.1 6.95029 11.75 7.02529C10.15 7.37529 8.84997 8.37529 8.19997 9.72529C7.99997 10.1253 7.87497 10.5503 7.79997 11.0003C7.52497 12.6253 7.82497 16.7253 15.325 21.8253C16.025 22.3003 16.75 22.7753 17.575 23.2503C17.7 23.3253 17.8 23.4003 17.875 23.4503H17.9C17.9 23.4503 17.925 23.4503 17.925 23.4253C18 23.3753 18.1 23.3003 18.2 23.2253C27.95 17.4503 28.325 12.7003 28.025 10.9253Z" fill="url(#paint1_linear)"/>
<defs>
<linearGradient id="paint0_linear" x1="12.6378" y1="26.2547" x2="0.792138" y2="25.7368" gradientUnits="userSpaceOnUse">
<stop stop-color="#FE9243"/>
<stop offset="1" stop-color="#F2052B"/>
</linearGradient>
<linearGradient id="paint1_linear" x1="24.6885" y1="26.1306" x2="3.11866" y2="24.6582" gradientUnits="userSpaceOnUse">
<stop stop-color="#FE9243"/>
<stop offset="1" stop-color="#F2052B"/>
</linearGradient>
</defs>
</svg>
