<svg xmlns="http://www.w3.org/2000/svg" xmlns:xlink="http://www.w3.org/1999/xlink" width="269.117" height="187.383" viewBox="0 0 269.117 187.383">
  <defs>
    <linearGradient id="linear-gradient" x1="-1.43" y1="-0.037" x2="-0.782" y2="0.441" gradientUnits="objectBoundingBox">
      <stop offset="0" stop-color="#fff"/>
      <stop offset="0.49" stop-color="#fefafc"/>
      <stop offset="1" stop-color="#ea4c95"/>
    </linearGradient>
    <linearGradient id="linear-gradient-2" x1="-1.739" y1="-0.079" x2="-1.333" y2="0.217" xlink:href="#linear-gradient"/>
    <linearGradient id="linear-gradient-3" x1="-2.112" y1="-0.191" x2="-1.671" y2="0.233" xlink:href="#linear-gradient"/>
  </defs>
  <g id="Grupo_14784" data-name="Grupo 14784" transform="translate(-8480.563 1695.838)">
    <g id="Grupo_14782" data-name="Grupo 14782" transform="translate(8480.563 -1695.838)">
      <g id="Recurso_1" data-name="Recurso 1" transform="translate(0 0)">
        <g id="Capa_2" data-name="Capa 2" transform="translate(0 0)">
          <g id="Capa_1" data-name="Capa 1">
            <path id="Trazado_13568" data-name="Trazado 13568" d="M10.632,106.2l.418.753a70.6,70.6,0,0,0,25.064,25.468A73.6,73.6,0,0,0,140.8,99.367a67.346,67.346,0,0,0,3.025-8.1,70.046,70.046,0,0,0,2.983-24.952c-.084-1.394-.223-2.872-.4-4.321h0a8.364,8.364,0,0,0,1.91-5.144,27.545,27.545,0,0,0-2.607-12.114,31.154,31.154,0,0,0-2.23-4.363l-.139-.237c-2.384-3.792-5.576-5.673-6.092-5.06h0c-.125-.251-.279-.5-.432-.753a70.074,70.074,0,0,0-5.883-8.294,71.009,71.009,0,0,0-18.3-15.71A73.616,73.616,0,0,0,7.956,43.413,70.521,70.521,0,0,0,2.115,78.444C.5,78.262-.2,80.841.01,85.274h0a39.03,39.03,0,0,0,.516,4.307,2.263,2.263,0,0,0,.1.781C1.4,94.948,4.736,105.236,10.632,106.2Z" transform="translate(0.026 0.008)" fill="#ea4c95"/>
            <path id="Trazado_13569" data-name="Trazado 13569" d="M1.611,84.5l-.125-.418L1.4,83.842h0A25.454,25.454,0,0,1,.566,79.66C-.605,72.69.008,68.2,2.141,68.508c17.55,2.7,42.739.209,69.448-7.89,29.273-8.894,53.319-22.415,65.656-35.546.6-.627,3.847,1.394,6.245,5.3a37.719,37.719,0,0,1,3.164,6.747h0c.125.362.251.725.362,1.073v.167l.293.99h0c1.394,4.921,1.519,9.883-.962,12.546-12,13.619-36.438,27.489-66.325,36.564C53.4,96.541,28.25,99.05,10.7,96.387c-4.07-.613-6.97-5.673-8.573-10.274v-.125c-.07-.181-.125-.362-.2-.558s-.084-.265-.139-.4A3.906,3.906,0,0,1,1.611,84.5Z" transform="translate(0.028 9.832)" fill="#e8318a"/>
            <path id="Trazado_13570" data-name="Trazado 13570" d="M147.524,39.919h0a37.08,37.08,0,0,0-3.164-6.747c-2.4-3.931-5.576-5.924-6.231-5.283-12.337,13.145-36.424,26.653-65.7,35.546C45.736,71.548,20.533,74.044,3,71.339.864,71,.209,75.521,1.408,82.491a25.746,25.746,0,0,0,.85,4.112h0v-.112a2.17,2.17,0,0,0-.181-.558c-.056-.181-.1-.279-.139-.418s-.112-.348-.153-.516a2.955,2.955,0,0,1-.125-.432l-.084-.237h0a25.747,25.747,0,0,1-.85-4.182C-.446,73.179.181,68.677,2.3,69c17.55,2.7,42.739.209,69.448-7.89,29.259-8.866,53.319-22.359,65.656-35.5.585-.641,3.833,1.394,6.231,5.283a36.019,36.019,0,0,1,3.164,6.761h0c.125.362.251.711.362,1.073v.167l.293.99Z" transform="translate(0.092 10.04)" fill="#ee77ab"/>
            <path id="Trazado_13571" data-name="Trazado 13571" d="M1.084,80.6,1,80.367H1c1.631,4.6,4.5,9.618,8.559,10.246,17.55,2.662,42.683.153,69.308-7.932,29.9-9.075,54.365-22.959,66.423-36.355,2.481-2.788,2.328-7.681.962-12.546h0c.125.362.251.725.362,1.073v.167l.293.99h0c1.394,4.921,1.519,9.883-.962,12.546-12,13.48-36.438,27.35-66.325,36.425C53,93.066,27.848,95.575,10.3,92.912c-4.07-.613-6.97-5.673-8.573-10.274v-.125c-.07-.181-.125-.362-.2-.558s-.084-.265-.139-.4a4.047,4.047,0,0,1-.153-.53Z" transform="translate(0.43 13.308)" fill="#dd0a80"/>
            <path id="Trazado_13572" data-name="Trazado 13572" d="M57.184,124.324c10.831-3.9,9.047-16.073,25.607-55.215,14.428-34.264,22.652-41.094,18.331-50.7C94.458,3.69,65.547-.924,44.763,7.1,15.49,18.4-5.294,57.957,7.126,89.572,16.006,111.876,41.334,130.012,57.184,124.324Z" transform="translate(1.399 1.258)" opacity="0.2" fill="url(#linear-gradient)"/>
            <path id="Trazado_13573" data-name="Trazado 13573" d="M43.71,10.348C60.075,3.03,81.487,3.588,83.1,10.181c.948,3.833-21.7,11.152-37,48.552-15.78,38.627-.474,63.844-4.182,66.074-4.266,2.551-29.009-14.3-35.6-36.787C-2.932,56.559,17.824,21.946,43.71,10.348Z" transform="translate(1.644 1.988)" opacity="0.15" fill="url(#linear-gradient-2)"/>
            <path id="Trazado_13574" data-name="Trazado 13574" d="M66.584,8.065C65.971,6.043,50.6,5.932,36.823,13.236c-19.6,10.4-34.361,34.933-32.256,59.829,1.715,20.087,14.023,36.048,16.1,35.24S13.7,92.01,15.8,70.668c2.7-27.043,21.258-44.189,23.363-46.085C52.826,12.288,67.2,10.072,66.584,8.065Z" transform="translate(1.756 2.71)" opacity="0.1" fill="url(#linear-gradient-3)"/>
            <path id="Trazado_13575" data-name="Trazado 13575" d="M31.289,14.941c3.652-2.161,11.835-4.182,9.507-1.784a120.983,120.983,0,0,0-21.37,24.353c-3.555,5.311-8.907,3.164-7.75-.4S20.764,21.158,31.289,14.941Z" transform="translate(4.573 4.755)" fill="#fff"/>
            <path id="Trazado_13576" data-name="Trazado 13576" d="M10.144,36.042c.85-1.784,7.193-2.439,6.607-1.227A70.438,70.438,0,0,0,9.279,67.253C9.21,79.757,1.613,53.87,10.144,36.042Z" transform="translate(2.438 13.472)" fill="#fff"/>
            <path id="Trazado_13577" data-name="Trazado 13577" d="M107.81,87.8C121.792,43.46,85.632,12.57,72.766,1a72.486,72.486,0,0,1,23.4,8.935,70.535,70.535,0,0,1,24.158,23.99l.446.753h0c.6-.641,3.833,1.394,6.245,5.3,3.931,6.468,6.97,17.09,2.927,21.621h0a70.438,70.438,0,0,1-5.576,37.372A73.183,73.183,0,0,1,79.387,139a74.424,74.424,0,0,1-37.637,1.812C59.272,136.466,93.829,132.131,107.81,87.8Z" transform="translate(16.484 0.393)" fill="#e2afc6" opacity="0.3"/>
            <path id="Trazado_13578" data-name="Trazado 13578" d="M51.412,102.512H51.05l1.31-.362Z" transform="translate(20.148 40.244)" fill="#cdcccc" opacity="0.54"/>
            <path id="Trazado_13579" data-name="Trazado 13579" d="M118.331,101.328a70.3,70.3,0,0,0,5.576-37.372l.07-.07c4.1-4.53,1.018-15.152-2.927-21.621-2.4-3.945-5.576-5.938-6.245-5.3h0c-.153-.251-.293-.5-.432-.753a70.563,70.563,0,0,0-24.2-23.935,72.96,72.96,0,0,0-45.29-9.9c-1.185-.112-2.37-.2-3.583-.237a73.114,73.114,0,0,1,55.048,8.183,70.535,70.535,0,0,1,24.158,23.99l.446.753h0c.6-.641,3.833,1.394,6.245,5.3,3.931,6.468,6.97,17.09,2.927,21.621h0a70.437,70.437,0,0,1-5.576,37.372A73.183,73.183,0,0,1,79.565,139.4c-1.045.335-2.1.641-3.164.92a73.072,73.072,0,0,0,41.931-38.989Z" transform="translate(16.307 -0.001)" fill="#e2afc6" opacity="0.8"/>
            <path id="Trazado_13580" data-name="Trazado 13580" d="M94.834,39.084a8.935,8.935,0,1,1-11.221-5.827A8.935,8.935,0,0,1,94.834,39.084Z" transform="translate(30.52 12.939)" fill="#6a2349"/>
            <path id="Trazado_13581" data-name="Trazado 13581" d="M84.985,36.7a3.178,3.178,0,1,1-1.572-1.862A3.178,3.178,0,0,1,84.985,36.7Z" transform="translate(31.072 13.584)" fill="#f6f6f6"/>
            <path id="Trazado_13582" data-name="Trazado 13582" d="M32.612,58.759A8.935,8.935,0,1,1,21.46,52.932,8.935,8.935,0,0,1,32.612,58.759Z" transform="translate(6.01 20.697)" fill="#6a2349"/>
            <path id="Trazado_13583" data-name="Trazado 13583" d="M22.755,56.369a3.178,3.178,0,1,1-3.987-2.077A3.178,3.178,0,0,1,22.755,56.369Z" transform="translate(6.554 21.331)" fill="#f6f6f6"/>
            <path id="Trazado_13584" data-name="Trazado 13584" d="M61.662,51.939A6.732,6.732,0,1,1,48.823,56a1.871,1.871,0,1,0-3.568,1.129A10.475,10.475,0,1,0,65.23,50.81a1.871,1.871,0,0,0-3.569,1.129Z" transform="translate(17.831 19.502)" fill="#6a2349"/>
          </g>
        </g>
      </g>
    </g>
    <g id="Grupo_14781" data-name="Grupo 14781" transform="translate(8491.217 -1643.948)">
      <g id="Grupo_14729" data-name="Grupo 14729" transform="translate(16.916 28.549)">
        <g id="Grupo_14723" data-name="Grupo 14723" transform="translate(0 21.517)">
          <path id="Trazado_14919" data-name="Trazado 14919" d="M88.8,95.26a5.662,5.662,0,0,0-2.16-.817,79.58,79.58,0,0,0-8.28.351l-1.321.116a97.471,97.471,0,0,0-21.577,4.773l-.555.236q.34-2.014,1.29-7.1,4.2-23,4.5-24.794Q63.481,54.628,62.041,49.8l-.077-.256a8.169,8.169,0,0,0-3.04-4.241,12.544,12.544,0,0,0-10.93-1.644l-.161.049q-6.2,1.852-12.866,7.6a47.951,47.951,0,0,0-5.409,5.547,40.946,40.946,0,0,0-4.635,6.5,42.955,42.955,0,0,0-2.642,5.834q-2.909,8.908-1,15.3a11.1,11.1,0,0,0,2.4,4.434q4.543,4.141,9.591,2.633l.64-.191a14.2,14.2,0,0,0,4.511-2.6,18.312,18.312,0,0,0,2.887-2.914,21.26,21.26,0,0,0,2.674-4.1q4.424-9.292,2.461-15.872a11.666,11.666,0,0,0-4.507-6.24Q38.591,57.747,36.42,58.4a3.179,3.179,0,0,0-.311.126,1.356,1.356,0,0,0-.738,1.717,3.581,3.581,0,0,0,1.02,1.435,4.4,4.4,0,0,1,1.489,2.306q1.365,4.569-1.339,11.71a29.9,29.9,0,0,1-2.794,5.322q-3.385,4.628-6.134,5.45l-.382.114a3.72,3.72,0,0,1-1.081.114c-.12-.012-.289-.39-.512-1.136l-.087-.287a15.869,15.869,0,0,1-.587-3.477,28.965,28.965,0,0,1,2.479-13.023A41.67,41.67,0,0,1,29.991,63.9q1.592-2.357,2.8-3.9a52.866,52.866,0,0,1,5.858-6.134q6.666-5.751,11.938-7.325l.512-.152a6.659,6.659,0,0,1,1.475-.3q.224-.068.8,1.638.966,3.225-.221,10.68-.526,3.252-2.572,14.338-5.036,27.427-5.687,31.065l-.929.382q-5.384,2.478-9.719,4.852a1.223,1.223,0,0,0-.876,1.27l.012.033a3.928,3.928,0,0,0,1.17,2.052q2.392,2.068,4.182,1.882l.421-.093q3.589-1.976,7.047-3.67a12.484,12.484,0,0,0,4.09,1.111,5.555,5.555,0,0,0,1.556-.152l.128-.039c.662-.195,1.03-.782,1.111-1.756l.467-2.4a98.352,98.352,0,0,1,27.95-7.2l.941-.106q3.385-.316,7.721-.358a3.723,3.723,0,0,0,.587-.14A1.1,1.1,0,0,0,91.34,98.4Q91.21,96.907,88.8,95.26Z" transform="translate(-13.419 -35.986)" fill="#db1a40"/>
          <path id="Trazado_14920" data-name="Trazado 14920" d="M41.923,124.9c-2.867,0-5.726-1.219-8.518-3.631l-.622-.608a11.2,11.2,0,0,1-2.792-5l-.106-.305-.093-.892a8.3,8.3,0,0,1,4.716-8.266c2.3-1.256,4.838-2.544,7.561-3.842q.157-.871.349-1.92a16.429,16.429,0,0,1-2.969,1.231l-.63.189c-5.752,1.717-11.582.226-16.43-4.19l-.423-.419a18.167,18.167,0,0,1-4-7.23c-1.689-5.665-1.333-12.236,1.053-19.545a47.691,47.691,0,0,1,3.089-6.9l.23-.412a47.937,47.937,0,0,1,5.411-7.549,53.741,53.741,0,0,1,6.171-6.281,42.807,42.807,0,0,1,15.376-8.943,19.775,19.775,0,0,1,17.018,2.457l.38.268A15.155,15.155,0,0,1,72.275,51c1.428,4.789,1.059,11.479-1.12,21.957-.132.839-1.378,7.711-3.692,20.413A96.756,96.756,0,0,1,79.852,91.32l1.392-.122a87.3,87.3,0,0,1,8.949-.378,11.707,11.707,0,0,1,5.482,1.67l.646.394c3.438,2.357,5.322,5.181,5.6,8.392a8.212,8.212,0,0,1-3.9,7.728l-.807.5-.91.274a9.949,9.949,0,0,1-1.94.406l-.62.033c-2.7.028-5.1.138-7.13.329l-.8.091a89.345,89.345,0,0,0-22.561,5.352,8.537,8.537,0,0,1-5.748,5.759,13.445,13.445,0,0,1-3.777.482l-.837-.057a25.345,25.345,0,0,1-2.644-.476q-2.059,1.06-4.149,2.211l-.912.5-2.211.437A10.4,10.4,0,0,1,41.923,124.9ZM56.509,56.679l-.028,0Z" transform="translate(-16.916 -39.477)" fill="#e84a94"/>
        </g>
        <g id="Grupo_14724" data-name="Grupo 14724" transform="translate(46.919 32.73)">
          <path id="Trazado_14921" data-name="Trazado 14921" d="M72.326,57.943a15.254,15.254,0,0,0-1.038-2.869,11.286,11.286,0,0,0-3.721-4.588,9.567,9.567,0,0,0-7.721-1.424q-3.89.942-7.5,5.147a19.265,19.265,0,0,0-2.42,3.467,6.046,6.046,0,0,0-.693.1l-.293.071a1.741,1.741,0,0,0-.754.423,21.973,21.973,0,0,0-1.849,3.844q-3.131,9.3-1.317,16.786a13.619,13.619,0,0,0,4,7.161q3.913,3.411,8.061,2.4l.583-.142q3.792-.919,7.86-5.507a28.457,28.457,0,0,0,3.048-4.409,38.008,38.008,0,0,0,2.654-6.029q2.576-8.344,1.225-13.919Zm-4.883,11a29.554,29.554,0,0,1-1.4,3.975,28.492,28.492,0,0,1-2.672,5.108q-4.076,5.963-8,6.913a7.179,7.179,0,0,1-1.792-3.578l-.142-.585a22.137,22.137,0,0,1-.425-6.277,6.617,6.617,0,0,0,3.779.731l.358-.087a2.1,2.1,0,0,0,.528-.232,1.3,1.3,0,0,0,.5-1.491,2.572,2.572,0,0,0-.142-.447,10.227,10.227,0,0,1-1.235-2.822q-1.137-4.7,2.662-10.253,3.491-4.413,6.474-5.137a2.923,2.923,0,0,1,1.284.067q.289-.071.882,2.221l.071.291Q69.273,61.911,67.443,68.94Z" transform="translate(-37.247 -41.672)" fill="#db1a40"/>
          <path id="Trazado_14922" data-name="Trazado 14922" d="M58.669,99.313a16.233,16.233,0,0,1-10.824-4.387,20.7,20.7,0,0,1-6.24-10.847c-1.524-6.293-1.024-13.267,1.489-20.732a29.094,29.094,0,0,1,2.481-5.22l.553-.927.8-.721A9.06,9.06,0,0,1,48.8,55.171a18.619,18.619,0,0,1,1.784-2.258c3.353-3.849,7.081-6.3,11.08-7.262A16.674,16.674,0,0,1,74.93,48.016a18.334,18.334,0,0,1,6.238,7.415,22.729,22.729,0,0,1,1.563,4.32l.134.541c1.217,5.025.778,10.812-1.345,17.684a44.264,44.264,0,0,1-3.164,7.26l-.191.343a33.289,33.289,0,0,1-4,5.657c-3.558,4.011-7.319,6.531-11.326,7.5l-.581.14A15.218,15.218,0,0,1,58.669,99.313Z" transform="translate(-40.745 -45.171)" fill="#e84a94"/>
        </g>
        <g id="Grupo_14725" data-name="Grupo 14725" transform="translate(120.397 3.114)">
          <path id="Trazado_14923" data-name="Trazado 14923" d="M84.148,49.5a6.747,6.747,0,0,0,4.42,1.4,1.677,1.677,0,0,0,1.242-.723q2.841-8.279,3.265-9.757a4.654,4.654,0,0,0,.518-1.967l-.032-.2a4.723,4.723,0,0,0-1.64-2.418q-2.986-2.386-5.261-2.048a1.732,1.732,0,0,0-1.15.644q-.157.325-3.249,9.652a5.926,5.926,0,0,0-.587,2.178l.02.132Q81.907,47.811,84.148,49.5Z" transform="translate(-74.567 -26.628)" fill="#db1a40"/>
          <path id="Trazado_14924" data-name="Trazado 14924" d="M91.547,61.551a14.421,14.421,0,0,1-7.738-2.558l-.445-.307c-3.07-2.314-4.777-4.844-5.21-7.734a10.982,10.982,0,0,1,.906-5.771c3.17-9.558,3.271-9.77,3.511-10.28l.352-.744.51-.644A8.866,8.866,0,0,1,89.1,30.255c3.54-.536,7.161.658,10.751,3.525l.431.37a11.271,11.271,0,0,1,3.808,6.573,10.392,10.392,0,0,1-.8,5.549c-.3,1-1.044,3.267-3.259,9.715l-.278.815-.467.723A8.74,8.74,0,0,1,93.1,61.437,10.528,10.528,0,0,1,91.547,61.551Z" transform="translate(-78.061 -30.131)" fill="#e84a94"/>
        </g>
        <g id="Grupo_14726" data-name="Grupo 14726" transform="translate(76.843)">
          <path id="Trazado_14925" data-name="Trazado 14925" d="M141.13,60.928a9.111,9.111,0,0,0-3.164-6.464,6.939,6.939,0,0,0-4.726-1.457l-.3.028q-3.051.292-8.552,5.472A6.774,6.774,0,0,0,122.6,56.3q-2.664-1.955-4.424-1.788l-.366.035a1.543,1.543,0,0,0-1.018.567q-.517,1.252-6.285,15.906c-.2.484-1.16,2.9-2.857,7.2-1.711,2.359-2.985,4.021-3.767,4.9a51.95,51.95,0,0,1-4.422,4.7l-.069-.024q.316-1.494.713-2.9,1.173-3.68,7.378-22.2a15.163,15.163,0,0,0,1.036-3.458,5.194,5.194,0,0,0-2.211-3.076q-2.779-1.914-4.726-1.622a1.648,1.648,0,0,0-1.207.719q-.691,1.926-6.768,20.19c-.612,1.693-1.12,3.233-1.538,4.645-.975,1.495-1.869,2.828-2.619,3.869a55.906,55.906,0,0,1-5.425,6.405l-.063.012.108-.666q.6-3.069,2.826-10.558Q88,75.367,97.08,43.813a4.7,4.7,0,0,0,.38-1.906l-.031-.163A4.893,4.893,0,0,0,95.6,39.312q-3.1-2.156-5.226-1.747l-.03.006a1.643,1.643,0,0,0-1.179.77q-.354,1.155-1.967,6.9-9.144,31.568-9.351,32.422c-.658,2.064-1.174,3.9-1.579,5.557-.959,1.449-1.839,2.749-2.57,3.763a58.852,58.852,0,0,1-5.391,6.4l-.067.012.112-.666q.561-3.063,2.826-10.56,1.072-3.772,12.547-43.7a4.839,4.839,0,0,0,.349-1.9l-.032-.165a4.971,4.971,0,0,0-1.794-2.438q-3.1-2.156-5.257-1.741l-.033.006A1.609,1.609,0,0,0,75.819,33q-.357,1.158-4.332,15.264Q62.31,79.833,62.1,80.687q-3.119,9.9-2.422,13.539a5.811,5.811,0,0,0,.608,1.75q2.251,3.574,5.456,2.957,3.769-.727,9.215-7.543c.116-.134.268-.331.4-.5.014.1.016.217.035.309a5.669,5.669,0,0,0,.608,1.75q2.245,3.574,5.49,2.952,3.763-.724,9.211-7.543c.02-.022.047-.061.069-.085,0,.039,0,.085.008.122a6.694,6.694,0,0,0,.465,1.516q2.121,3.831,5.45,3.334c1.849-.276,4.072-1.668,6.647-4.133q-3.187,8.081-7.78,19.736a7,7,0,0,0-.776,2.42l.012.1q.133,1.427,2.28,3.2a6.612,6.612,0,0,0,4.346,1.66l.033,0a1.751,1.751,0,0,0,1.187-.549q.248-.526,3.024-7.591,7.954-20.22,8.177-20.643a8.271,8.271,0,0,0,3.564,3.312,10.71,10.71,0,0,0,5.507.847l.2-.018q6.967-.668,12.4-9.694a45.762,45.762,0,0,0,4-9.02q2.073-7,1.67-11.281Zm-8.7,3.979a44.837,44.837,0,0,1-2.083,6.6,37.4,37.4,0,0,1-3.781,7.059q-4.5,6.191-8.583,6.581a9.076,9.076,0,0,1-.973-.01,9.305,9.305,0,0,0-1.9-.219l-.3.028q3.851-9.847,7.2-18.2-.009-.434,1-1.469,1.512-1.686,3.192-3.387,4.54-4.386,6.634-5.255a5.68,5.68,0,0,1,.291,1.311A25.225,25.225,0,0,1,132.433,64.907Z" transform="translate(-52.444 -25.05)" fill="#db1a40"/>
          <path id="Trazado_14926" data-name="Trazado 14926" d="M104.607,126.857a13.9,13.9,0,0,1-8.258-3.07l-.3-.232c-2.981-2.459-4.562-5.082-4.836-8.022a11.739,11.739,0,0,1,1.327-6.031l2.534-6.441a11.725,11.725,0,0,1-1.2-.571,16.8,16.8,0,0,1-7.549,3.9,11.359,11.359,0,0,1-7.815-1.2,17.188,17.188,0,0,1-7.933,4.229c-5.062.967-9.743-1.268-12.818-6.153l-.187-.309a12.888,12.888,0,0,1-1.388-3.883c-.713-3.723.083-8.93,2.577-16.879.278-1.016,1.611-5.681,9.386-32.42,3.523-12.5,4.18-14.785,4.367-15.384l.242-.786.415-.709A8.679,8.679,0,0,1,79.1,28.75c3.44-.66,7.022.309,10.71,2.877l.618.484a16.047,16.047,0,0,1,1.945,2c.047-.01.095-.02.14-.028,3.389-.652,6.963.321,10.649,2.887l.559.433a11.413,11.413,0,0,1,4.192,6.506,10.65,10.65,0,0,1-.541,5.507q-.224.78-.445,1.542a15.567,15.567,0,0,1,6.907,2.833l.364.268c.122.1.242.193.362.291l.406-.457a8.671,8.671,0,0,1,5.659-2.93l.378-.035a12.1,12.1,0,0,1,7.077,1.7,16.242,16.242,0,0,1,7.677-3.172l.323-.03a14.055,14.055,0,0,1,9.5,2.741l.408.315a16.209,16.209,0,0,1,5.716,11.271l.063.662c.364,3.806-.266,8.378-1.932,13.982a52.915,52.915,0,0,1-4.631,10.515c-4.921,8.179-10.916,12.588-17.91,13.258a18.888,18.888,0,0,1-6.584-.467c-1.17,2.957-2.759,6.992-4.925,12.492-2.861,7.285-3.058,7.7-3.217,8.036l-.441.929-.683.766a8.892,8.892,0,0,1-5.811,2.887C105.292,126.839,104.951,126.857,104.607,126.857Z" transform="translate(-55.942 -28.549)" fill="#e84a94"/>
        </g>
        <g id="Grupo_14727" data-name="Grupo 14727" transform="translate(159.7 17.977)">
          <path id="Trazado_14927" data-name="Trazado 14927" d="M124.676,71.854a37.637,37.637,0,0,0,3.962-5.265q4.41-7.535,4.369-13.269l0-.534a15.306,15.306,0,0,0-.358-3.03,11.307,11.307,0,0,0-2.572-5.316,9.568,9.568,0,0,0-7.191-3.148q-4,.032-8.481,3.3a19.222,19.222,0,0,0-3.145,2.826,6.116,6.116,0,0,0-.7-.061l-.3,0a1.775,1.775,0,0,0-.835.24,21.7,21.7,0,0,0-2.676,3.322q-5.172,8.338-5.112,16.04a13.606,13.606,0,0,0,2.258,7.886q3.03,4.215,7.3,4.18l.6,0q3.9-.03,8.91-3.568A28.2,28.2,0,0,0,124.676,71.854ZM110.332,75.2A7.183,7.183,0,0,1,109.4,71.3l0-.6a22.093,22.093,0,0,1,1.018-6.21,6.6,6.6,0,0,0,3.513,1.573l.366,0a2.052,2.052,0,0,0,.567-.1,1.3,1.3,0,0,0,.823-1.339,2.519,2.519,0,0,0-.035-.467,10.244,10.244,0,0,1-.557-3.03q-.035-4.835,4.932-9.373,4.407-3.5,7.474-3.525a2.916,2.916,0,0,1,1.237.358q.3,0,.352,2.365v.3q.038,4.7-3.351,11.129a29.789,29.789,0,0,1-2.272,3.552,28.676,28.676,0,0,1-3.767,4.361Q114.361,75.164,110.332,75.2Z" transform="translate(-94.521 -34.179)" fill="#db1a40"/>
          <path id="Trazado_14928" data-name="Trazado 14928" d="M114.625,89.636c-3.617,0-8.774-1.252-13.005-7.14a20.68,20.68,0,0,1-3.6-11.987c-.051-6.472,2.03-13.149,6.179-19.842a29.169,29.169,0,0,1,3.6-4.511l.762-.788.961-.524a9.183,9.183,0,0,1,2.1-.831,18.531,18.531,0,0,1,2.243-1.788c4.143-2.985,8.333-4.515,12.452-4.546a17.2,17.2,0,0,1,12.373,5.33,18.288,18.288,0,0,1,4.375,8.646,22.879,22.879,0,0,1,.543,4.568l0,.559c.035,5.161-1.709,10.694-5.34,16.9a44.491,44.491,0,0,1-4.745,6.352l-.258.28a33.219,33.219,0,0,1-5.182,4.594c-4.381,3.1-8.622,4.694-12.748,4.724l-.6,0Z" transform="translate(-98.022 -37.679)" fill="#e84a94"/>
        </g>
        <g id="Grupo_14728" data-name="Grupo 14728" transform="translate(171.438 21.209)">
          <path id="Trazado_14929" data-name="Trazado 14929" d="M161.641,47.042a6.924,6.924,0,0,0-4.32-2.406l-.3-.035q-3.048-.349-9.5,3.58a6.781,6.781,0,0,0-1.286-2.53q-2.206-2.466-3.96-2.668l-.364-.041a1.545,1.545,0,0,0-1.113.343q-.765,1.119-9.449,14.258-1.087,1.586-22.467,33.909a6.976,6.976,0,0,0-1.258,2.207l-.012.1q-.162,1.424,1.567,3.6a6.611,6.611,0,0,0,3.907,2.528l.033,0a1.747,1.747,0,0,0,1.276-.291q.354-.461,4.535-6.8,11.968-18.129,12.283-18.5a8.23,8.23,0,0,0,2.8,3.975,10.682,10.682,0,0,0,5.208,1.973l.2.024q6.956.792,14.146-6.907a45.877,45.877,0,0,0,5.779-8q3.485-6.415,3.974-10.688l.075-.662A9.1,9.1,0,0,0,161.641,47.042Zm-7.579,9.067a44.666,44.666,0,0,1-3.406,6.019,37.168,37.168,0,0,1-5.163,6.122q-5.686,5.124-9.761,4.657a9.437,9.437,0,0,1-.951-.209,9.271,9.271,0,0,0-1.808-.61l-.3-.033q5.8-8.834,10.824-16.313c.053-.286.482-.7,1.282-1.229q1.828-1.335,3.826-2.652,5.352-3.346,7.579-3.765a5.829,5.829,0,0,1,.016,1.345A25.352,25.352,0,0,1,154.062,56.109Z" transform="translate(-100.481 -35.821)" fill="#db1a40"/>
          <path id="Trazado_14930" data-name="Trazado 14930" d="M116.882,110.516a9.837,9.837,0,0,1-1.073-.061c-3.054-.347-5.889-1.989-8.451-4.881l-.248-.293c-2.394-3.017-3.4-5.905-3.064-8.831a11.666,11.666,0,0,1,2.556-5.643c19.066-28.831,21.911-33.1,22.38-33.787,5.763-8.721,8.935-13.506,9.449-14.256l.67-.979.953-.707a8.7,8.7,0,0,1,6.169-1.705l.36.041a12.022,12.022,0,0,1,6.581,3.129,16.3,16.3,0,0,1,8.168-1.51l.309.035a14.042,14.042,0,0,1,8.739,4.657l.333.39a16.2,16.2,0,0,1,3.251,12.218l-.071.65c-.437,3.8-2,8.148-4.791,13.283a53.311,53.311,0,0,1-6.71,9.323c-6.516,6.98-13.3,10.052-20.271,9.254a18.821,18.821,0,0,1-6.35-1.823c-1.745,2.635-4.133,6.25-7.4,11.2-4.316,6.543-4.584,6.894-4.82,7.2l-.618.8-.817.6A8.786,8.786,0,0,1,116.882,110.516Z" transform="translate(-103.983 -39.321)" fill="#e84a94"/>
        </g>
      </g>
      <g id="Grupo_14736" data-name="Grupo 14736" transform="translate(24.021 35.659)">
        <g id="Grupo_14730" data-name="Grupo 14730" transform="translate(0 21.501)">
          <path id="Trazado_14931" data-name="Trazado 14931" d="M88.8,95.26a5.662,5.662,0,0,0-2.16-.817,79.58,79.58,0,0,0-8.28.351l-1.321.116a97.471,97.471,0,0,0-21.577,4.773l-.555.236q.34-2.014,1.29-7.1,4.2-23,4.5-24.794Q63.481,54.628,62.041,49.8l-.077-.256a8.169,8.169,0,0,0-3.04-4.241,12.544,12.544,0,0,0-10.93-1.644l-.161.049q-6.2,1.852-12.866,7.6a47.951,47.951,0,0,0-5.409,5.547,40.946,40.946,0,0,0-4.635,6.5,42.955,42.955,0,0,0-2.642,5.834q-2.909,8.908-1,15.3a11.1,11.1,0,0,0,2.4,4.434q4.543,4.141,9.591,2.633l.64-.191a14.2,14.2,0,0,0,4.511-2.6,18.312,18.312,0,0,0,2.887-2.914,21.26,21.26,0,0,0,2.674-4.1q4.424-9.292,2.461-15.872a11.666,11.666,0,0,0-4.507-6.24Q38.591,57.747,36.42,58.4a3.179,3.179,0,0,0-.311.126,1.356,1.356,0,0,0-.738,1.717,3.581,3.581,0,0,0,1.02,1.435,4.4,4.4,0,0,1,1.489,2.306q1.365,4.569-1.339,11.71a29.9,29.9,0,0,1-2.794,5.322q-3.385,4.628-6.134,5.45l-.382.114a3.72,3.72,0,0,1-1.081.114c-.12-.012-.289-.39-.512-1.136l-.087-.287a15.869,15.869,0,0,1-.587-3.477,28.965,28.965,0,0,1,2.479-13.023A41.67,41.67,0,0,1,29.991,63.9q1.592-2.357,2.8-3.9a52.866,52.866,0,0,1,5.858-6.134q6.666-5.751,11.938-7.325l.512-.152a6.659,6.659,0,0,1,1.475-.3q.224-.068.8,1.638.966,3.225-.221,10.68-.526,3.252-2.572,14.338-5.036,27.427-5.687,31.065l-.929.382q-5.384,2.478-9.719,4.852a1.223,1.223,0,0,0-.876,1.27l.012.033a3.928,3.928,0,0,0,1.17,2.052q2.392,2.068,4.182,1.882l.421-.093q3.589-1.976,7.047-3.67a12.484,12.484,0,0,0,4.09,1.111,5.555,5.555,0,0,0,1.556-.152l.128-.039c.662-.195,1.03-.782,1.111-1.756l.467-2.4a98.352,98.352,0,0,1,27.95-7.2l.941-.106q3.385-.316,7.721-.358a3.723,3.723,0,0,0,.587-.14A1.1,1.1,0,0,0,91.34,98.4Q91.21,96.907,88.8,95.26Z" transform="translate(-20.524 -43.079)" fill="#fff"/>
        </g>
        <g id="Grupo_14731" data-name="Grupo 14731" transform="translate(46.922 32.731)">
          <path id="Trazado_14932" data-name="Trazado 14932" d="M72.326,57.943a15.254,15.254,0,0,0-1.038-2.869,11.286,11.286,0,0,0-3.721-4.588,9.567,9.567,0,0,0-7.721-1.424q-3.89.942-7.5,5.147a19.265,19.265,0,0,0-2.42,3.467,6.046,6.046,0,0,0-.693.1l-.293.071a1.741,1.741,0,0,0-.754.423,21.973,21.973,0,0,0-1.849,3.844q-3.131,9.3-1.317,16.786a13.619,13.619,0,0,0,4,7.161q3.913,3.411,8.061,2.4l.583-.142q3.792-.919,7.86-5.507a28.457,28.457,0,0,0,3.048-4.409,38.008,38.008,0,0,0,2.654-6.029q2.576-8.344,1.225-13.919Zm-4.883,11a29.554,29.554,0,0,1-1.4,3.975,28.492,28.492,0,0,1-2.672,5.108q-4.076,5.963-8,6.913a7.179,7.179,0,0,1-1.792-3.578l-.142-.585a22.137,22.137,0,0,1-.425-6.277,6.617,6.617,0,0,0,3.779.731l.358-.087a2.1,2.1,0,0,0,.528-.232,1.3,1.3,0,0,0,.5-1.491,2.572,2.572,0,0,0-.142-.447,10.227,10.227,0,0,1-1.235-2.822q-1.137-4.7,2.662-10.253,3.491-4.413,6.474-5.137a2.923,2.923,0,0,1,1.284.067q.289-.071.882,2.221l.071.291Q69.273,61.911,67.443,68.94Z" transform="translate(-44.354 -48.783)" fill="#fff"/>
        </g>
        <g id="Grupo_14732" data-name="Grupo 14732" transform="translate(120.393 3.122)">
          <path id="Trazado_14933" data-name="Trazado 14933" d="M84.148,49.5a6.747,6.747,0,0,0,4.42,1.4,1.677,1.677,0,0,0,1.242-.723q2.841-8.279,3.265-9.757a4.654,4.654,0,0,0,.518-1.967l-.032-.2a4.723,4.723,0,0,0-1.64-2.418q-2.986-2.386-5.261-2.048a1.732,1.732,0,0,0-1.15.644q-.157.325-3.249,9.652a5.926,5.926,0,0,0-.587,2.178l.02.132Q81.907,47.811,84.148,49.5Z" transform="translate(-81.667 -33.746)" fill="#fff"/>
        </g>
        <g id="Grupo_14733" data-name="Grupo 14733" transform="translate(76.845)">
          <path id="Trazado_14934" data-name="Trazado 14934" d="M141.13,60.928a9.111,9.111,0,0,0-3.164-6.464,6.939,6.939,0,0,0-4.726-1.457l-.3.028q-3.051.292-8.552,5.472A6.774,6.774,0,0,0,122.6,56.3q-2.664-1.955-4.424-1.788l-.366.035a1.543,1.543,0,0,0-1.018.567q-.517,1.252-6.285,15.906c-.2.484-1.16,2.9-2.857,7.2-1.711,2.359-2.985,4.021-3.767,4.9a51.95,51.95,0,0,1-4.422,4.7l-.069-.024q.316-1.494.713-2.9,1.173-3.68,7.378-22.2a15.163,15.163,0,0,0,1.036-3.458,5.194,5.194,0,0,0-2.211-3.076q-2.779-1.914-4.726-1.622a1.648,1.648,0,0,0-1.207.719q-.691,1.926-6.768,20.19c-.612,1.693-1.12,3.233-1.538,4.645-.975,1.495-1.869,2.828-2.619,3.869a55.906,55.906,0,0,1-5.425,6.405l-.063.012.108-.666q.6-3.069,2.826-10.558Q88,75.367,97.08,43.813a4.7,4.7,0,0,0,.38-1.906l-.031-.163A4.893,4.893,0,0,0,95.6,39.312q-3.1-2.156-5.226-1.747l-.03.006a1.643,1.643,0,0,0-1.179.77q-.354,1.155-1.967,6.9-9.144,31.568-9.351,32.422c-.658,2.064-1.174,3.9-1.579,5.557-.959,1.449-1.839,2.749-2.57,3.763a58.852,58.852,0,0,1-5.391,6.4l-.067.012.112-.666q.561-3.063,2.826-10.56,1.072-3.772,12.547-43.7a4.839,4.839,0,0,0,.349-1.9l-.032-.165a4.971,4.971,0,0,0-1.794-2.438q-3.1-2.156-5.257-1.741l-.033.006A1.609,1.609,0,0,0,75.819,33q-.357,1.158-4.332,15.264Q62.31,79.833,62.1,80.687q-3.119,9.9-2.422,13.539a5.811,5.811,0,0,0,.608,1.75q2.251,3.574,5.456,2.957,3.769-.727,9.215-7.543c.116-.134.268-.331.4-.5.014.1.016.217.035.309a5.669,5.669,0,0,0,.608,1.75q2.245,3.574,5.49,2.952,3.763-.724,9.211-7.543c.02-.022.047-.061.069-.085,0,.039,0,.085.008.122a6.694,6.694,0,0,0,.465,1.516q2.121,3.831,5.45,3.334c1.849-.276,4.072-1.668,6.647-4.133q-3.187,8.081-7.78,19.736a7,7,0,0,0-.776,2.42l.012.1q.133,1.427,2.28,3.2a6.612,6.612,0,0,0,4.346,1.66l.033,0a1.751,1.751,0,0,0,1.187-.549q.248-.526,3.024-7.591,7.954-20.22,8.177-20.643a8.271,8.271,0,0,0,3.564,3.312,10.71,10.71,0,0,0,5.507.847l.2-.018q6.967-.668,12.4-9.694a45.762,45.762,0,0,0,4-9.02q2.073-7,1.67-11.281Zm-8.7,3.979a44.837,44.837,0,0,1-2.083,6.6,37.4,37.4,0,0,1-3.781,7.059q-4.5,6.191-8.583,6.581a9.076,9.076,0,0,1-.973-.01,9.305,9.305,0,0,0-1.9-.219l-.3.028q3.851-9.847,7.2-18.2-.009-.434,1-1.469,1.512-1.686,3.192-3.387,4.54-4.386,6.634-5.255a5.68,5.68,0,0,1,.291,1.311A25.225,25.225,0,0,1,132.433,64.907Z" transform="translate(-59.551 -32.16)" fill="#fff"/>
        </g>
        <g id="Grupo_14734" data-name="Grupo 14734" transform="translate(159.707 17.979)">
          <path id="Trazado_14935" data-name="Trazado 14935" d="M124.676,71.854a37.637,37.637,0,0,0,3.962-5.265q4.41-7.535,4.369-13.269l0-.534a15.306,15.306,0,0,0-.358-3.03,11.307,11.307,0,0,0-2.572-5.316,9.568,9.568,0,0,0-7.191-3.148q-4,.032-8.481,3.3a19.222,19.222,0,0,0-3.145,2.826,6.116,6.116,0,0,0-.7-.061l-.3,0a1.775,1.775,0,0,0-.835.24,21.7,21.7,0,0,0-2.676,3.322q-5.172,8.338-5.112,16.04a13.606,13.606,0,0,0,2.258,7.886q3.03,4.215,7.3,4.18l.6,0q3.9-.03,8.91-3.568A28.2,28.2,0,0,0,124.676,71.854ZM110.332,75.2A7.183,7.183,0,0,1,109.4,71.3l0-.6a22.093,22.093,0,0,1,1.018-6.21,6.6,6.6,0,0,0,3.513,1.573l.366,0a2.052,2.052,0,0,0,.567-.1,1.3,1.3,0,0,0,.823-1.339,2.519,2.519,0,0,0-.035-.467,10.244,10.244,0,0,1-.557-3.03q-.035-4.835,4.932-9.373,4.407-3.5,7.474-3.525a2.916,2.916,0,0,1,1.237.358q.3,0,.352,2.365v.3q.038,4.7-3.351,11.129a29.789,29.789,0,0,1-2.272,3.552,28.676,28.676,0,0,1-3.767,4.361Q114.361,75.164,110.332,75.2Z" transform="translate(-101.634 -41.291)" fill="#fff"/>
        </g>
        <g id="Grupo_14735" data-name="Grupo 14735" transform="translate(171.449 21.21)">
          <path id="Trazado_14936" data-name="Trazado 14936" d="M161.641,47.042a6.924,6.924,0,0,0-4.32-2.406l-.3-.035q-3.048-.349-9.5,3.58a6.781,6.781,0,0,0-1.286-2.53q-2.206-2.466-3.96-2.668l-.364-.041a1.545,1.545,0,0,0-1.113.343q-.765,1.119-9.449,14.258-1.087,1.586-22.467,33.909a6.976,6.976,0,0,0-1.258,2.207l-.012.1q-.162,1.424,1.567,3.6a6.611,6.611,0,0,0,3.907,2.528l.033,0a1.747,1.747,0,0,0,1.276-.291q.354-.461,4.535-6.8,11.968-18.129,12.283-18.5a8.23,8.23,0,0,0,2.8,3.975,10.682,10.682,0,0,0,5.208,1.973l.2.024q6.956.792,14.146-6.907a45.877,45.877,0,0,0,5.779-8q3.485-6.415,3.974-10.688l.075-.662A9.1,9.1,0,0,0,161.641,47.042Zm-7.579,9.067a44.666,44.666,0,0,1-3.406,6.019,37.168,37.168,0,0,1-5.163,6.122q-5.686,5.124-9.761,4.657a9.437,9.437,0,0,1-.951-.209,9.271,9.271,0,0,0-1.808-.61l-.3-.033q5.8-8.834,10.824-16.313c.053-.286.482-.7,1.282-1.229q1.828-1.335,3.826-2.652,5.352-3.346,7.579-3.765a5.829,5.829,0,0,1,.016,1.345A25.352,25.352,0,0,1,154.062,56.109Z" transform="translate(-107.597 -42.932)" fill="#fff"/>
        </g>
      </g>
    </g>
  </g>
</svg>
