<svg id="Grupo_15310" data-name="Grupo 15310" xmlns="http://www.w3.org/2000/svg" xmlns:xlink="http://www.w3.org/1999/xlink" width="560.688" height="539.772" viewBox="0 0 560.688 539.772">
  <defs>
    <linearGradient id="linear-gradient" x1="-1.43" y1="-0.037" x2="-0.782" y2="0.441" gradientUnits="objectBoundingBox">
      <stop offset="0" stop-color="#fff"/>
      <stop offset="0.49" stop-color="#fefafc"/>
      <stop offset="1" stop-color="#ea4c95"/>
    </linearGradient>
    <linearGradient id="linear-gradient-2" x1="-1.739" y1="-0.079" x2="-1.333" y2="0.217" xlink:href="#linear-gradient"/>
    <linearGradient id="linear-gradient-3" x1="-2.112" y1="-0.191" x2="-1.671" y2="0.233" xlink:href="#linear-gradient"/>
  </defs>
  <g id="Recurso_1" data-name="Recurso 1" transform="translate(0 0)">
    <g id="Capa_2" data-name="Capa 2" transform="translate(0 0)">
      <g id="Capa_1" data-name="Capa 1">
        <path id="Trazado_13568" data-name="Trazado 13568" d="M40.258,401.324l1.581,2.845a266.86,266.86,0,0,0,94.732,96.26A278.189,278.189,0,0,0,532.252,375.507,254.554,254.554,0,0,0,543.685,344.9a264.753,264.753,0,0,0,11.275-94.31c-.316-5.269-.843-10.854-1.528-16.333h0a31.612,31.612,0,0,0,7.218-19.442,104.111,104.111,0,0,0-9.853-45.785,117.759,117.759,0,0,0-8.43-16.491l-.527-.9c-9.009-14.331-21.075-21.444-23.024-19.125h0c-.474-.948-1.054-1.9-1.633-2.845A264.852,264.852,0,0,0,494.949,98.32a268.389,268.389,0,0,0-69.178-59.379A278.241,278.241,0,0,0,30.142,164.021a266.545,266.545,0,0,0-22.076,132.4c-6.112-.685-8.746,9.062-7.956,25.817h0a147.521,147.521,0,0,0,1.949,16.28,8.552,8.552,0,0,0,.369,2.95C5.379,358.806,17.972,397.689,40.258,401.324Z" transform="translate(0.026 0.097)" fill="#ea4c95"/>
        <path id="Trazado_13569" data-name="Trazado 13569" d="M6.146,249.991l-.474-1.581-.316-.9h0a96.209,96.209,0,0,1-3.161-15.806C-2.231,205.365.087,188.4,8.148,189.559c66.333,10.221,161.539.79,262.488-29.821C381.279,126.123,472.165,75.017,518.793,25.385c2.266-2.371,14.542,5.269,23.6,20.021a142.57,142.57,0,0,1,11.96,25.5h0c.474,1.37.948,2.74,1.37,4.057V75.6l1.106,3.741h0c5.269,18.6,5.743,37.355-3.635,47.419-45.364,51.475-137.724,103.9-250.686,138.2C201.879,295.513,106.831,305,40.5,294.933,25.114,292.615,14.155,273.49,8.1,256.1v-.474c-.263-.685-.474-1.37-.738-2.107s-.316-1-.527-1.528A14.759,14.759,0,0,1,6.146,249.991Z" transform="translate(0.05 106.541)" fill="#e8318a"/>
        <path id="Trazado_13570" data-name="Trazado 13570" d="M557.194,80.037h0a140.145,140.145,0,0,0-11.96-25.5c-9.062-14.858-21.075-22.392-23.551-19.968C475.055,84.252,384.011,135.306,273.368,168.92c-100.9,30.664-196.155,40.1-262.435,29.874C2.872,197.53.4,214.6,4.927,240.944a97.31,97.31,0,0,0,3.214,15.543h0v-.421a8.2,8.2,0,0,0-.685-2.107c-.211-.685-.369-1.054-.527-1.581s-.421-1.317-.58-1.949a11.166,11.166,0,0,1-.474-1.633l-.316-.9h0a97.314,97.314,0,0,1-3.214-15.806C-2.081,205.749.29,188.731,8.3,189.943c66.333,10.221,161.539.79,262.488-29.821,110.591-33.509,201.529-84.51,248.157-134.194C521.156,23.5,533.432,31.2,542.495,45.9a136.14,136.14,0,0,1,11.96,25.553h0c.474,1.37.948,2.687,1.37,4.057v.632l1.106,3.741Z" transform="translate(0.742 108.791)" fill="#ee77ab"/>
        <path id="Trazado_13571" data-name="Trazado 13571" d="M1.316,210.756l-.316-.9H1c6.164,17.387,17.018,36.354,32.35,38.725,66.333,10.063,161.328.58,261.961-29.979,113.014-34.3,205.48-86.776,251.055-137.408,9.378-10.537,8.8-29.031,3.635-47.418h0c.474,1.37.948,2.74,1.37,4.057v.632l1.106,3.741h0c5.269,18.6,5.743,37.355-3.635,47.419C503.478,140.577,411.117,193,298.156,227.3c-100.633,30.559-195.68,40.042-262.014,29.979-15.385-2.318-26.344-21.444-32.4-38.83v-.474c-.263-.685-.474-1.37-.738-2.108s-.316-1-.527-1.528a15.3,15.3,0,0,1-.58-2Z" transform="translate(4.405 144.195)" fill="#dd0a80"/>
        <path id="Trazado_13572" data-name="Trazado 13572" d="M206.516,461.02c40.938-14.752,34.194-60.748,96.786-208.694C357.833,122.82,388.919,97,372.586,60.7,347.4,5.064,238.128-12.375,159.571,17.973c-110.643,42.677-189.2,192.2-142.256,311.7C50.877,413.97,146.61,482.516,206.516,461.02Z" transform="translate(14.908 13.637)" opacity="0.2" fill="url(#linear-gradient)"/>
        <path id="Trazado_13573" data-name="Trazado 13573" d="M153.864,25.085C215.718-2.576,296.646-.468,302.758,24.453c3.583,14.489-82.034,42.15-139.832,183.51-59.642,146-1.791,241.308-15.806,249.738C131,467.342,37.477,403.643,12.556,318.658-22.428,199.743,56.023,68.921,153.864,25.085Z" transform="translate(17.559 21.54)" opacity="0.15" fill="url(#linear-gradient-2)"/>
        <path id="Trazado_13574" data-name="Trazado 13574" d="M239.528,11.357C237.21,3.717,179.1,3.3,127.041,30.9,52.963,70.209-2.833,162.938,5.123,257.038c6.481,75.922,53,136.249,60.854,133.193S39.633,328.64,47.588,247.975c10.221-102.213,80.348-167.019,88.3-174.184C187.526,27.321,241.846,18.944,239.528,11.357Z" transform="translate(18.776 29.367)" opacity="0.1" fill="url(#linear-gradient-3)"/>
        <path id="Trazado_13575" data-name="Trazado 13575" d="M86.253,22.915c13.8-8.167,44.731-15.806,35.933-6.744a457.272,457.272,0,0,0-80.769,92.045c-13.435,20.074-33.667,11.96-29.294-1.528S46.474,46.413,86.253,22.915Z" transform="translate(49.29 51.529)" fill="#fff"/>
        <path id="Trazado_13576" data-name="Trazado 13576" d="M21.392,41.171c3.214-6.744,27.187-9.22,24.974-4.637a266.229,266.229,0,0,0-28.24,122.6C17.862,206.4-10.853,108.558,21.392,41.171Z" transform="translate(26.163 145.971)" fill="#fff"/>
        <path id="Trazado_13577" data-name="Trazado 13577" d="M291.435,329.084C344.28,161.485,207.609,44.73,158.979,1a273.973,273.973,0,0,1,88.462,33.773,266.6,266.6,0,0,1,91.307,90.675l1.686,2.845h0c2.266-2.424,14.489,5.269,23.6,20.021,14.858,24.447,26.344,64.595,11.064,81.718h0a266.229,266.229,0,0,1-21.075,141.254A276.608,276.608,0,0,1,184.005,522.6,281.3,281.3,0,0,1,41.75,529.453C107.978,513.015,238.589,496.629,291.435,329.084Z" transform="translate(178.356 4.266)" fill="#e2afc6" opacity="0.3"/>
        <path id="Trazado_13578" data-name="Trazado 13578" d="M52.42,103.52H51.05L56,102.15Z" transform="translate(218.055 436.047)" fill="#cdcccc" opacity="0.54"/>
        <path id="Trazado_13579" data-name="Trazado 13579" d="M332.45,382.981a265.7,265.7,0,0,0,21.075-141.255l.263-.263c15.49-17.123,3.846-57.271-11.064-81.718-9.062-14.91-21.075-22.445-23.6-20.021h0c-.58-.948-1.106-1.9-1.633-2.845a266.7,266.7,0,0,0-91.465-90.464A275.765,275.765,0,0,0,54.841,9.007c-4.478-.421-8.957-.738-13.541-.9A276.344,276.344,0,0,1,249.362,39.039a266.6,266.6,0,0,1,91.307,90.675l1.686,2.845h0c2.266-2.424,14.489,5.269,23.6,20.021,14.858,24.447,26.344,64.595,11.064,81.718h0a266.228,266.228,0,0,1-21.075,141.255A276.607,276.607,0,0,1,185.926,526.87c-3.951,1.265-7.956,2.424-11.96,3.477A276.187,276.187,0,0,0,332.45,382.981Z" transform="translate(176.435 -0.001)" fill="#e2afc6" opacity="0.8"/>
        <path id="Trazado_13580" data-name="Trazado 13580" d="M143.362,56.429a33.772,33.772,0,1,1-42.413-22.023A33.772,33.772,0,0,1,143.362,56.429Z" transform="translate(330.433 140.197)" fill="#6a2349"/>
        <path id="Trazado_13581" data-name="Trazado 13581" d="M102.24,42.854A12.013,12.013,0,1,1,96.3,35.817,12.013,12.013,0,0,1,102.24,42.854Z" transform="translate(336.412 147.186)" fill="#f6f6f6"/>
        <path id="Trazado_13582" data-name="Trazado 13582" d="M81.116,76.059a33.773,33.773,0,1,1-42.15-22.023A33.773,33.773,0,0,1,81.116,76.059Z" transform="translate(64.859 224.256)" fill="#6a2349"/>
        <path id="Trazado_13583" data-name="Trazado 13583" d="M40.019,62.553A12.013,12.013,0,1,1,24.95,54.7,12.013,12.013,0,0,1,40.019,62.553Z" transform="translate(70.761 231.123)" fill="#f6f6f6"/>
        <path id="Trazado_13584" data-name="Trazado 13584" d="M107.511,58.711A25.446,25.446,0,1,1,58.983,74.044,7.072,7.072,0,0,0,45.5,78.311,39.592,39.592,0,1,0,121,54.444a7.073,7.073,0,0,0-13.488,4.268Z" transform="translate(192.943 211.308)" fill="#6a2349"/>
      </g>
    </g>
  </g>
</svg>
