<svg width="28" height="28" viewBox="0 0 28 28" fill="none" xmlns="http://www.w3.org/2000/svg">
<path d="M8.89918 4.77576C11.134 4.77576 12.9435 6.56731 12.9435 8.80262V12.847H8.89918C6.66433 12.847 4.87231 11.0379 4.87231 8.80262C4.87231 6.56731 6.66387 4.77576 8.89918 4.77576Z" fill="#D19C7D"/>
<path d="M4.97865 19.0737C4.97865 16.8388 6.78816 15.0284 9.02346 15.0284H13.0503V19.0737C13.0503 21.2906 11.2408 23.1001 9.02346 23.1001C6.78816 23.1001 4.97865 21.2906 4.97865 19.0737Z" fill="#D19C7D"/>
<path d="M19.2407 4.77576C17.0058 4.77576 15.2143 6.56731 15.2143 8.80262V12.847H19.2407C21.4755 12.847 23.285 11.0379 23.285 8.80262C23.285 6.56731 21.4755 4.77576 19.2407 4.77576Z" fill="#D19C7D"/>
<path d="M23.1612 19.0737C23.1612 16.8388 21.3692 15.0284 19.1343 15.0284H15.0895V19.0737C15.0895 21.2906 16.8995 23.1001 19.1343 23.1001C21.3692 23.1001 23.1612 21.2906 23.1612 19.0737Z" fill="#D19C7D"/>
</svg>
