<svg xmlns="http://www.w3.org/2000/svg" width="479.85" height="124.55" viewBox="0 0 479.85 124.55">
  <g id="Grupo_15809" data-name="Grupo 15809" transform="translate(0)">
    <g id="Grupo_15807" data-name="Grupo 15807" transform="translate(0 0)">
      <path id="Trazado_15910" data-name="Trazado 15910" d="M493.693,717.813a18.823,18.823,0,0,0-2.825-3.234q1.2-2.366,2.568-5.028a17.269,17.269,0,0,0,2.365-8.21c0-3.887-1.466-7.589-4.479-11.318a11.856,11.856,0,0,0-.822-.919c-4.542-4.6-9.481-6.929-14.69-6.929a14.67,14.67,0,0,0-6.675,1.589,25.921,25.921,0,0,0-9.113-1.589c-7.294,0-13.936,2.687-19.876,8.022-5.461-4.544-12.46-6.155-20.194-3.555-.062-.046-.121-.094-.184-.14-.512-.384-1.04-.682-1.564-1.013a15.383,15.383,0,0,0,1.457-6.472c0-3.763-1.393-7.345-4.252-10.949q-.3-.374-.624-.725c-4.566-4.917-9.65-7.41-15.116-7.41a14.594,14.594,0,0,0-9.93,3.864,12.439,12.439,0,0,0-1.9,2.225c-.537.808-.639.96-6.322,12.192a17.978,17.978,0,0,0-2.462,7.229,13.721,13.721,0,0,0-1.7,1.572,12.308,12.308,0,0,0-1.635,2.351c-.228.423-.711,1.357-1.446,2.791-5.63-4.056-12.542-5.222-20.441-2.109-5.384-4.4-12.243-5.991-19.962-3.422l-.247-.186c-8.392-6.182-18.395-5.267-23.372,1.586-.2.278-.365.579-.543.871A24.269,24.269,0,0,0,293,682.174c.044-.546.068-1.091.068-1.637V680a19.314,19.314,0,0,0-3.546-11c-.169-.254-.353-.5-.542-.74-3.516-4.421-10.095-9.691-21.452-9.691a39.552,39.552,0,0,0-6.1.544c-8.528,1.446-17.389,5.517-26.308,12.066a110.234,110.234,0,0,0-21.254,20.93,101.457,101.457,0,0,0-8.334,12.53c-5.026,9.783-7.575,19.169-7.575,27.9a34.937,34.937,0,0,0,5.132,18.627c.1.155.194.309.3.462,7.734,11.379,17.283,13.769,24.3,13.769,10.255,0,21.757-5.635,35.958-17.667a22.135,22.135,0,0,0,14.739,5.62h.735c4.733,0,9.519-1.477,14.511-4.336,4.348,4.018,8.977,6.1,13.775,6.1a14.289,14.289,0,0,0,10.937-4.9,12.55,12.55,0,0,0,1.364-1.9q.153.163.319.327a12.522,12.522,0,0,0,1.016.911c5.083,4.075,9.858,5.969,14.671,5.7a14.074,14.074,0,0,0,5.065-1.2,14.255,14.255,0,0,0,5.475-4.21,18.137,18.137,0,0,0,10.579,3.383,19.71,19.71,0,0,0,9.219-2.455c4.745,2.837,10.694,3.388,16.978.938,7.43,4.973,16.354,4.307,21.413-1.49a12.344,12.344,0,0,0,1.688-2.493c.092-.184.189-.365.28-.547a19.86,19.86,0,0,0,7.971,5.142,18.767,18.767,0,0,0-2.593,9.531,19.407,19.407,0,0,0,4.436,12.073c4.963,6.012,11.976,9.19,20.282,9.19s16.073-3.374,22.768-10.083a38.115,38.115,0,0,0,4.909-6.38c.416-.711,1.611-2.762,7.594-14.651a111.569,111.569,0,0,0,11.077-8.179,101.432,101.432,0,0,0,8.518-7.851,14.022,14.022,0,0,0,4.759-10.423,13.868,13.868,0,0,0-1.2-5.517A12.33,12.33,0,0,0,493.693,717.813ZM237.4,721.574a96.3,96.3,0,0,1,5.684-7.986c.8-1.047,1.775-2.211,2.873-3.449.218.327.449.641.7.945a16.974,16.974,0,0,0,7.458,5.471c-.237.242-.474.481-.706.716C243.253,727.283,236.6,732,232.573,734.222a36.973,36.973,0,0,1,2.065-7.1A53.709,53.709,0,0,1,237.4,721.574Z" transform="translate(-197.959 -658.574)" fill="#0090ff"/>
      <g id="Grupo_15810" data-name="Grupo 15810" transform="translate(278.539)">
        <path id="Trazado_15911" data-name="Trazado 15911" d="M1143.672,719.087a12.308,12.308,0,0,0-1.161-1.7,20.153,20.153,0,0,0-2.452-2.547,21.7,21.7,0,0,0,1.891-8.484,20.831,20.831,0,0,0-3.859-11.754c-.121-.179-.247-.356-.378-.528-5.659-7.475-14.245-10.665-23.885-7.434-.063-.046-.121-.094-.184-.14a19.572,19.572,0,0,0-11.793-4.327,14.352,14.352,0,0,0-11.386,5.48c-.2.257-.347.549-.527.82-8.569-6.775-20.458-7.006-31.3.336a23.516,23.516,0,0,0-2.38,1.734,14.5,14.5,0,0,0-1.655.641c-.333-.411-.682-.808-1.04-1.195a24.057,24.057,0,0,0-15.684-7.612c.068-.721.123-1.443.123-2.171a19.7,19.7,0,0,0-4.707-12.549c-.16-.193-.324-.38-.493-.564a26.585,26.585,0,0,0-20.01-8.521c-5.655,0-11.89,1.611-19.261,5.028A82.206,82.206,0,0,0,986,667.8c-2.22,1.379-4.363,2.864-6.061,4.179a88.964,88.964,0,0,0-9.408,8.2c-9.659,9.952-14.351,19.28-14.351,28.524,0,6.418,2.269,12.465,6.859,18.134a13.213,13.213,0,0,0-2.273,0,14.961,14.961,0,0,0-5.388,1.548c-.29.143-.571.3-.846.464-8.9,5.357-10.23,12.709-10.23,16.613,0,4.339,1.678,10.757,9.824,16.828,4.31,3.108,9.664,4.682,15.919,4.682a64.214,64.214,0,0,0,12.866-1.531c.165-.034.329-.072.493-.113a71.237,71.237,0,0,0,13.94-4.728c5.925-2.806,10.293-6.1,13.154-9.9a21.83,21.83,0,0,0,10.489,2.66h.736c5.8,0,11.667-2.1,17.925-6.421A37.879,37.879,0,0,0,1045,742.43a22.155,22.155,0,0,0,16.4,7.35h.7a26.555,26.555,0,0,0,10.057-2.167c.034.04.057.083.091.123a12.812,12.812,0,0,0,.9.945c4.5,4.276,9.292,6.443,14.235,6.443a14.289,14.289,0,0,0,10.937-4.9,12.349,12.349,0,0,0,1.688-2.493c.092-.184.189-.365.281-.547a18.276,18.276,0,0,0,17.839,5.543c3.778-.844,7.841-3.166,13.234-7.488a84.67,84.67,0,0,0,9.239-8.474c1.872-1.935,5.011-5.171,5.011-10.6A14.294,14.294,0,0,0,1143.672,719.087Zm-152.032-7.514c.034-.051.063-.1.1-.157.116.145.237.288.354.426C991.945,711.752,991.8,711.665,991.641,711.573Z" transform="translate(-944.296 -658.574)" fill="#0090ff"/>
        <path id="Trazado_15915" data-name="Trazado 15915" d="M1035.15,709.592q6.828-7.647,6.825-12.581v-.453a7.352,7.352,0,0,0-1.891-4.687,14.243,14.243,0,0,0-10.936-4.563q-5.674,0-13.854,3.783a70.245,70.245,0,0,0-6.414,3.577,64.753,64.753,0,0,0-5.35,3.7,77.319,77.319,0,0,0-7.768,6.784q-10.854,11.184-10.854,19.9,0,8.264,9.993,16.035a131.41,131.41,0,0,0,11.26,7.113q2.757,1.767,2.757,2.344,0,1.687-2.757,3.947a35.909,35.909,0,0,1-7.028,3.782q-10.731,4.111-18.463,4.112a8.228,8.228,0,0,1-3.163-.535h-.039a6.77,6.77,0,0,1,2.38-2.426q1.277-.617,1.277-.986v-.288a2.8,2.8,0,0,0-.783-1.439,3.824,3.824,0,0,0-2.138-1.192,2.641,2.641,0,0,0-.943.288q-4.238,2.55-4.232,6,0,3.29,4.682,6.783a14.533,14.533,0,0,0,8.678,2.344,52.839,52.839,0,0,0,10.36-1.274,60.477,60.477,0,0,0,11.638-3.906q10.071-4.77,10.071-10.073v-.411q0-5.427-6.869-10.526-3-2.1-10.811-6.7a21.213,21.213,0,0,1-4.319-3.166,5.836,5.836,0,0,1-2.012-4.523q0-4.031,3.125-9.127a41.258,41.258,0,0,1,6.288-8.017,65.552,65.552,0,0,1,6.907-6.208,70.245,70.245,0,0,1,6.869-4.81q10.731-6.33,16.939-6.332a5.059,5.059,0,0,1,2.505.453,14.046,14.046,0,0,1-2.012,5.427,30.969,30.969,0,0,1-3,4.235,43.25,43.25,0,0,1-5.185,5.221,96.879,96.879,0,0,1-8.465,6.455c-.8.411-1.195.808-1.195,1.193a2.894,2.894,0,0,0,.247.822c.958,1.289,1.906,1.932,2.834,1.932a1.491,1.491,0,0,0,.372-.082q3.04-1.933,8.015-5.879A74.562,74.562,0,0,0,1035.15,709.592Z" transform="translate(-960.646 -674.925)" fill="#fff"/>
        <path id="Trazado_15916" data-name="Trazado 15916" d="M1172.605,756.583v-.617a15.193,15.193,0,0,0-.416-3.371,12.478,12.478,0,0,0-2.873-5.921,11.242,11.242,0,0,0-8.266-3.536q-4.643,0-9.824,3.577a21.377,21.377,0,0,0-3.662,3.125,6.52,6.52,0,0,0-.778-.082h-.329a2.19,2.19,0,0,0-1.03.287,27.2,27.2,0,0,0-3.081,3.618,56.047,56.047,0,0,0-4.111,7.318L1137,762.75a37.32,37.32,0,0,1-3.328,3.865,33.313,33.313,0,0,1-3.086,2.755q3.374-6.867,3.376-12.375v-.658a18.717,18.717,0,0,0-.416-3.741,13.885,13.885,0,0,0-3.125-6.578,11.775,11.775,0,0,0-8.837-3.947q-4.934,0-10.482,3.988a23.528,23.528,0,0,0-3.908,3.454,7.444,7.444,0,0,0-.861-.082h-.373a2.191,2.191,0,0,0-1.03.288,27.008,27.008,0,0,0-3.328,4.07q-6.458,10.238-6.453,19.735a16.792,16.792,0,0,0,2.708,9.744q3.7,5.22,8.968,5.221h.736q4.817,0,11.018-4.317a34.3,34.3,0,0,0,4.934-4.4q.987-1.11,1.809-2.138a27.97,27.97,0,0,0,10.98-6.332v.123a14.78,14.78,0,0,0,2.506,8.758q3.5,4.727,8.431,4.728h.7q4.476,0,10.274-3.865a32.864,32.864,0,0,0,4.648-3.988,45.8,45.8,0,0,0,4.6-5.8Q1172.6,762.913,1172.605,756.583Zm-66.813,27.176a8.863,8.863,0,0,1-1.108-4.81v-.74a26.036,26.036,0,0,1,1.152-7.031,9.768,9.768,0,0,0,2.423,3.783,15.5,15.5,0,0,0,8.305,3.577Q1110.44,783.758,1105.792,783.759Zm23.353-29.356q0,5.8-4.232,13.691a36.707,36.707,0,0,1-2.839,4.358c-.3.438-.687.946-1.151,1.521a9.489,9.489,0,0,1-1.272.082,11.424,11.424,0,0,1-4.155-.781,5.792,5.792,0,0,1-2.259-1.645,6.283,6.283,0,0,1-.866-1.727c-.111-.384-.208-.754-.285-1.11a11.311,11.311,0,0,1-.208-2.262,18.078,18.078,0,0,1,.208-2.59q1.023-4.647,5.877-9,5.471-4.278,9.254-4.276a3.572,3.572,0,0,1,1.518.452q.37,0,.411,2.919Zm32.069,15.911a35.422,35.422,0,0,1-4.155,4.564q-5.877,5.1-10.273,5.1a7.11,7.11,0,0,1-1.031-4.111v-.658a22.189,22.189,0,0,1,1.195-6.537,7.217,7.217,0,0,0,3.821,1.686h.368a2.51,2.51,0,0,0,.619-.082,1.385,1.385,0,0,0,.948-1.4,2.075,2.075,0,0,0-.043-.493,10.8,10.8,0,0,1-.576-3.207q0-5.1,5.466-9.826,4.854-3.661,8.223-3.659a3.486,3.486,0,0,1,1.359.37c.194,0,.314.822.373,2.467v.329q0,4.974-3.782,11.718A33.366,33.366,0,0,1,1161.214,770.314Z" transform="translate(-1030.137 -706.087)" fill="#fff"/>
        <path id="Trazado_15917" data-name="Trazado 15917" d="M1311.788,772.7c-.934-1.151-1.795-1.727-2.593-1.727h-.2a.582.582,0,0,0-.329.082q-2.793,2.877-4.15,4.193a68.628,68.628,0,0,1-9.089,7.483q.327-1.07.987-2.837,1.031-2.3,9.621-19.324,2.423-4.278,2.428-6.7a8.7,8.7,0,0,0-1.732-4.81,8.486,8.486,0,0,0-6.985-3.741q-4.361,0-12.131,5.756h-.082a5.435,5.435,0,0,0,.822-2.056v-.247a5.179,5.179,0,0,0-.987-2.508,11.948,11.948,0,0,0-2.259-2.344,7.65,7.65,0,0,0-4.363-1.85,1.967,1.967,0,0,0-1.644.74l-3.947,7.648L1260.559,779.2a17.053,17.053,0,0,0-1.891,4.111v.082a6.407,6.407,0,0,0,1.891,3.823q3.207,3.044,5.712,3.043a2.022,2.022,0,0,0,1.606-.658q11.551-22.532,13.2-25.861,0-.331,3.086-3.495a70.751,70.751,0,0,1,5.466-5.057,36.469,36.469,0,0,1,8.968-5.551h.077a7.7,7.7,0,0,1-.329,1.151q-.61,1.317-7.522,15.007-5.427,10.2-5.427,14.308v.247a2.9,2.9,0,0,0,.082.863h-.038a8.093,8.093,0,0,0,1.354,3.372q2.837,3.784,5.92,3.782h.039a6.814,6.814,0,0,0,1.567-.206q2.583-.577,8.552-5.345a82.363,82.363,0,0,0,7.729-7.154,7.352,7.352,0,0,0,1.519-1.809v-.164A2.107,2.107,0,0,0,1311.788,772.7Z" transform="translate(-1123.189 -706.087)" fill="#fff"/>
      </g>
    </g>
    <g id="Grupo_15808" data-name="Grupo 15808" transform="translate(12.383 12.383)">
      <path id="Trazado_15912" data-name="Trazado 15912" d="M321.87,725.832v-.658a18.683,18.683,0,0,0-.416-3.741,13.88,13.88,0,0,0-3.125-6.578,11.775,11.775,0,0,0-8.837-3.947q-4.934,0-10.482,3.988a23.52,23.52,0,0,0-3.908,3.454,7.472,7.472,0,0,0-.861-.082h-.372a2.191,2.191,0,0,0-1.03.288,27.031,27.031,0,0,0-3.328,4.07,40.96,40.96,0,0,0-5.947,14.526c-1.7,1.768-3.381,3.545-5.11,5.292q-22.818,22.488-34.7,22.49h-.121c-.416,0-1-.042-1.77-.124a8.548,8.548,0,0,1-2.96-2.179q-2.67-2.754-2.67-8.84,0-6.577,3.367-15.171a66.586,66.586,0,0,1,3.618-7.195,108.174,108.174,0,0,1,6.414-9.045,102.672,102.672,0,0,1,7.362-8.346q4.687-4.564,7.2-6.537a72.084,72.084,0,0,1,9.452-6.455q9.621-5.1,15.217-5.1h.822a9.535,9.535,0,0,1,3.246.576,7.959,7.959,0,0,1-.9,2.467,28.125,28.125,0,0,1-4.15,6.126,53.208,53.208,0,0,1-4.978,5.1,98.983,98.983,0,0,1-9.582,7.4c-.682.329-1.026.7-1.026,1.11a3.607,3.607,0,0,0,.329.9,3.854,3.854,0,0,0,2.757,1.768,4.987,4.987,0,0,0,1.722-.9q4.281-3,7.981-6.126a62.974,62.974,0,0,0,5.834-5.715q6.131-7.154,6.128-11.759v-.535a7.154,7.154,0,0,0-1.4-4.029q-3.991-5.018-11.759-5.016a27.031,27.031,0,0,0-4.029.37q-9.947,1.687-21.09,9.868a96.793,96.793,0,0,0-18.627,18.337,91.411,91.411,0,0,0-7.236,10.772q-6.211,12.088-6.206,22.243a22.638,22.638,0,0,0,3.289,12.129q5.674,8.347,13.688,8.346h.368q11.682,0,31.7-18.008c2.094-1.885,4.6-4.322,7.428-7.2a16,16,0,0,0,2.6,7.938q3.7,5.22,8.968,5.221h.735q4.817,0,11.019-4.317a34.273,34.273,0,0,0,4.934-4.4,46.686,46.686,0,0,0,4.934-6.455Q321.87,732.9,321.87,725.832Zm-11.884,15.459a35.329,35.329,0,0,1-4.687,5.345q-6.617,5.96-11.594,5.961a8.863,8.863,0,0,1-1.108-4.81v-.74a27.15,27.15,0,0,1,1.316-7.647q2.67,1.973,4.314,1.973h.455a2.517,2.517,0,0,0,.7-.123,1.6,1.6,0,0,0,1.025-1.645,2.983,2.983,0,0,0-.039-.576,12.625,12.625,0,0,1-.658-3.741q0-5.961,6.167-11.512,5.471-4.278,9.253-4.276a3.569,3.569,0,0,1,1.519.452q.37,0,.411,2.919v.37q0,5.8-4.232,13.691A36.7,36.7,0,0,1,309.985,741.291Z" transform="translate(-226.692 -687.308)" fill="#fff"/>
      <path id="Trazado_15913" data-name="Trazado 15913" d="M654.224,711.671a2.078,2.078,0,0,0,1.645-.658q4.971-9.581,5.756-11.306a5.73,5.73,0,0,0,.987-2.3v-.247a5.828,5.828,0,0,0-1.568-3.248q-3.207-3.454-6.041-3.454a2.152,2.152,0,0,0-1.523.575q-.247.37-5.713,11.183a7.213,7.213,0,0,0-1.108,2.549v.165q0,1.767,2.423,4.235Q651.963,711.669,654.224,711.671Z" transform="translate(-465.673 -689.099)" fill="#fff"/>
      <path id="Trazado_15914" data-name="Trazado 15914" d="M615.183,770.479h-.039a.809.809,0,0,0-.416.123q-2.3,2.344-3.947,3.865a66.731,66.731,0,0,1-9.331,7.359q1.03-2.18,15.58-30.671a5.817,5.817,0,0,0,.866-2.3,6.268,6.268,0,0,0-1.727-3.536q-3.207-3.247-5.881-3.248a2.1,2.1,0,0,0-1.48.535q-.53.823-3.367,6.5c-.058,0-.087-.1-.087-.288a9.177,9.177,0,0,0-3.492-4.6,12.849,12.849,0,0,0-7.362-2.138q-12,0-21.457,18.625a53.052,53.052,0,0,0-3.926,11.643c-1.2,1.225-2.226,2.26-2.894,2.911a68.638,68.638,0,0,1-9.088,7.483q.326-1.07.987-2.837,1.03-2.3,9.621-19.324,2.423-4.278,2.428-6.7a8.7,8.7,0,0,0-1.732-4.81,8.487,8.487,0,0,0-6.985-3.741q-4.361,0-12.131,5.756h-.082a5.435,5.435,0,0,0,.822-2.056v-.247a5.18,5.18,0,0,0-.986-2.508,11.963,11.963,0,0,0-2.259-2.344,7.65,7.65,0,0,0-4.363-1.85,1.968,1.968,0,0,0-1.645.74l-3.947,7.648L525.974,771.9c-2.6,2.652-4.507,4.5-5.64,5.447a64.526,64.526,0,0,1-6.25,4.934l-.082-.041q.66-1.767,1.4-3.413,2.1-4.277,13.036-25.738a18.566,18.566,0,0,0,1.886-4.029q0-1.89-2.138-4.153-3.04-2.837-5.466-2.837a2.028,2.028,0,0,0-1.606.658q-1.19,2.22-11.918,23.394c-1.132,2.092-2.046,3.953-2.845,5.693-1.407,1.46-2.775,2.866-4.023,4.092a75.616,75.616,0,0,1-8.431,6.825,19.314,19.314,0,0,1,1.151-3.124q1.03-2.344,8.387-16.9a13.234,13.234,0,0,0,2.056-6.085,8.756,8.756,0,0,0-1.683-4.6,8.492,8.492,0,0,0-7.033-3.824q-3.127,0-8.349,3.125a38.456,38.456,0,0,0-4.643,3.33,9.455,9.455,0,0,0,.2-1.357,8.426,8.426,0,0,0-1.229-3.577q-2.924-4.4-7.444-4.4-4.317,0-12.126,5.715h-.044a4.854,4.854,0,0,0,.822-2.056v-.206a5.382,5.382,0,0,0-.987-2.508,11.721,11.721,0,0,0-2.22-2.344,7.821,7.821,0,0,0-4.4-1.85,1.85,1.85,0,0,0-1.6.74q-1.067,2.014-19.159,37.538a10.764,10.764,0,0,0-1.316,2.96v.082q0,1.6,1.935,3.823,3.164,3.044,5.669,3.043a2.022,2.022,0,0,0,1.606-.658q1.067-2.057,13.239-25.943a12.446,12.446,0,0,1,2.138-2.508,76.678,76.678,0,0,1,5.712-5.468q6.254-4.934,9.665-6.044l-.247.987q-1.48,3.083-7.318,14.514-6.21,11.471-6.211,16.158a8.533,8.533,0,0,0,2.8,6.126q3.744,3,6.129,3a2.063,2.063,0,0,0,.74-.123c.793-.3,1.19-.767,1.19-1.4v-.288a5.627,5.627,0,0,0-1.228-3.043A18.225,18.225,0,0,1,471.447,781q1.066-2.753,7.812-15.87,1.233-1.357,3.371-3.454a60.822,60.822,0,0,1,6.124-5.222,31.775,31.775,0,0,1,6.868-3.947.036.036,0,0,0,.038.041l-.2.9q-1.524,3.167-6.375,12.7-5.217,9.907-5.219,13.732v.534a7.522,7.522,0,0,0,1.48,4.317q2.793,3.617,5.838,3.618h.126q3.657,0,12.006-7.236c.041-.035.1-.09.138-.126-.005.124-.056.3-.056.414a8.381,8.381,0,0,0,.286,1.932q1.893,5.058,6.046,5.057c2.681,0,6.275-1.811,10.684-5.235-.006.038-.033.108-.033.137v.082a6.407,6.407,0,0,0,1.891,3.823q3.207,3.044,5.713,3.043a2.021,2.021,0,0,0,1.606-.658q11.551-22.532,13.2-25.861,0-.331,3.086-3.495a70.681,70.681,0,0,1,5.466-5.057,36.478,36.478,0,0,1,8.968-5.551h.077a7.635,7.635,0,0,1-.329,1.151q-.609,1.317-7.522,15.007-5.427,10.2-5.427,14.308v.247a2.884,2.884,0,0,0,.082.863h-.039a8.093,8.093,0,0,0,1.355,3.372q2.836,3.784,5.92,3.782h.039a6.811,6.811,0,0,0,1.567-.206q2.583-.577,8.552-5.345a50.7,50.7,0,0,0,4.117-3.616,12,12,0,0,0,2.288,6,8.785,8.785,0,0,0,6.578,3.083,9.575,9.575,0,0,0,4.566-1.357,38.979,38.979,0,0,0,5.92-3.783l-4.522,9q-2.917,1.6-7.977,4.111-7.357,3.414-11.222,5.592-5.674,3.207-5.679,7.359v.165a6.781,6.781,0,0,0,1.606,4.194q3.867,4.687,10.729,4.687,7.567,0,13.693-6.126a26.363,26.363,0,0,0,3.289-4.194q1.56-2.674,8.837-17.186c.087-.082,1-.631,2.757-1.645a103.209,103.209,0,0,0,10.158-7.524,96.663,96.663,0,0,0,7.565-7.03q.944-.9.943-1.274v-.205a2.192,2.192,0,0,0-.208-.658C617.118,771.122,616.17,770.479,615.183,770.479ZM580.028,798.93a24.031,24.031,0,0,1-3.2,4.852,21.808,21.808,0,0,1-3.376,3.042Q569.1,809.7,565.6,809.7h-.208a2.757,2.757,0,0,1-1.6-.452q1.277-2.551,5.18-4.852,3.374-1.933,11.057-5.509Zm13.65-26.765q-2.794,2.713-5.713,5.262-6.784,5.551-9.7,6.414a6.505,6.505,0,0,1-.208-1.644,31.871,31.871,0,0,1,1.809-8.84,49.678,49.678,0,0,1,6.008-12.129,32.867,32.867,0,0,1,4.682-5.715q5.144-4.894,9.132-4.893h.242a5.707,5.707,0,0,1,1.031.082,12.191,12.191,0,0,0,2.467.534,2.337,2.337,0,0,0,.943-.164h.044Z" transform="translate(-344.819 -718.47)" fill="#fff"/>
    </g>
  </g>
</svg>
