<svg xmlns="http://www.w3.org/2000/svg" xmlns:xlink="http://www.w3.org/1999/xlink" width="482.071" height="527.504" viewBox="0 0 482.071 527.504">
  <defs>
    <linearGradient id="linear-gradient" x1="-0.22" y1="-0.069" x2="1.142" y2="1.008" gradientUnits="objectBoundingBox">
      <stop offset="0" stop-color="#600"/>
      <stop offset="1" stop-color="red"/>
    </linearGradient>
    <linearGradient id="linear-gradient-2" x1="8.412" y1="5.347" x2="-10.546" y2="-6.267" gradientUnits="objectBoundingBox">
      <stop offset="0" stop-color="#d9d9d9"/>
      <stop offset="1" stop-color="#fff"/>
    </linearGradient>
    <linearGradient id="linear-gradient-3" x1="3.161" y1="3.065" x2="-9.024" y2="-8.68" xlink:href="#linear-gradient-2"/>
    <linearGradient id="linear-gradient-4" x1="7.081" y1="6.616" x2="-8.347" y2="-7.663" xlink:href="#linear-gradient-2"/>
    <linearGradient id="linear-gradient-5" x1="14.004" y1="5.763" x2="-11.766" y2="-4.28" xlink:href="#linear-gradient-2"/>
    <linearGradient id="linear-gradient-6" x1="3.873" y1="2.486" x2="-11.728" y2="-6.7" xlink:href="#linear-gradient-2"/>
    <linearGradient id="linear-gradient-7" x1="8.082" y1="10.084" x2="-3.425" y2="-4.461" xlink:href="#linear-gradient-2"/>
    <linearGradient id="linear-gradient-8" x1="7.362" y1="10.494" x2="-5.975" y2="-8.93" xlink:href="#linear-gradient-2"/>
    <linearGradient id="linear-gradient-9" x1="14.069" y1="3.468" x2="-27.654" y2="-5.658" xlink:href="#linear-gradient-2"/>
    <linearGradient id="linear-gradient-10" x1="13.338" y1="6.245" x2="-6.025" y2="-2.42" xlink:href="#linear-gradient-2"/>
    <linearGradient id="linear-gradient-11" x1="4.544" y1="11.012" x2="-7.567" y2="-20.472" xlink:href="#linear-gradient-2"/>
    <linearGradient id="linear-gradient-12" x1="3.435" y1="5.704" x2="-7.853" y2="-14.312" xlink:href="#linear-gradient-2"/>
    <linearGradient id="linear-gradient-13" x1="7.209" y1="2.64" x2="-19.205" y2="-5.785" xlink:href="#linear-gradient-2"/>
    <linearGradient id="linear-gradient-14" x1="27.086" y1="5.746" x2="-16.684" y2="-2.891" xlink:href="#linear-gradient-2"/>
    <linearGradient id="linear-gradient-15" x1="7.388" y1="20.25" x2="-4.093" y2="-12.67" xlink:href="#linear-gradient-2"/>
    <linearGradient id="linear-gradient-16" x1="9.664" y1="7.395" x2="-3.789" y2="-2.727" xlink:href="#linear-gradient-2"/>
    <linearGradient id="linear-gradient-17" x1="-0.45" y1="-0.106" x2="0.763" y2="0.632" gradientUnits="objectBoundingBox">
      <stop offset="0" stop-color="#610000"/>
      <stop offset="1" stop-color="#be0000"/>
    </linearGradient>
    <linearGradient id="linear-gradient-18" x1="-0.35" y1="0.247" x2="0.877" y2="0.612" gradientUnits="objectBoundingBox">
      <stop offset="0" stop-color="#858585"/>
      <stop offset="1" stop-color="#d9d9d9"/>
    </linearGradient>
    <linearGradient id="linear-gradient-19" x1="0.049" y1="-0.447" x2="0.867" y2="1.279" xlink:href="#linear-gradient-18"/>
    <linearGradient id="linear-gradient-20" x1="-0.339" y1="-0.046" x2="1.178" y2="0.941" xlink:href="#linear-gradient-18"/>
    <linearGradient id="linear-gradient-21" x1="1.088" y1="1.14" x2="0.081" y2="0.044" xlink:href="#linear-gradient"/>
    <linearGradient id="linear-gradient-22" x1="1.031" y1="0.849" x2="-0.688" y2="-0.281" xlink:href="#linear-gradient-2"/>
    <linearGradient id="linear-gradient-23" x1="0.393" y1="1.311" x2="0.758" y2="-1.469" xlink:href="#linear-gradient-2"/>
    <linearGradient id="linear-gradient-24" x1="1.344" y1="0.064" x2="-0.509" y2="1.02" xlink:href="#linear-gradient-2"/>
    <linearGradient id="linear-gradient-25" x1="-0.006" y1="0.734" x2="2.082" y2="-0.232" xlink:href="#linear-gradient-2"/>
    <linearGradient id="linear-gradient-26" x1="0.548" y1="-0.154" x2="0.439" y2="1.337" xlink:href="#linear-gradient-2"/>
    <linearGradient id="linear-gradient-27" x1="0.085" y1="0.228" x2="1.276" y2="1.008" xlink:href="#linear-gradient-2"/>
    <linearGradient id="linear-gradient-28" x1="0.908" y1="0.814" x2="-0.288" y2="-0.106" xlink:href="#linear-gradient-2"/>
    <linearGradient id="linear-gradient-29" x1="1.639" y1="0.493" x2="-0.44" y2="0.506" gradientUnits="objectBoundingBox">
      <stop offset="0"/>
      <stop offset="1" stop-color="#454545"/>
    </linearGradient>
    <linearGradient id="linear-gradient-30" x1="0.948" y1="0.22" x2="-0.179" y2="0.925" xlink:href="#linear-gradient-2"/>
    <linearGradient id="linear-gradient-31" x1="0.491" y1="0.092" x2="0.509" y2="0.904" xlink:href="#linear-gradient-2"/>
    <linearGradient id="linear-gradient-32" x1="0.158" y1="0.178" x2="0.877" y2="0.854" xlink:href="#linear-gradient-2"/>
    <linearGradient id="linear-gradient-33" x1="0.872" y1="0.82" x2="-0.126" y2="-0.037" xlink:href="#linear-gradient-2"/>
    <linearGradient id="linear-gradient-34" x1="0.124" y1="0.67" x2="1.41" y2="0.088" xlink:href="#linear-gradient-2"/>
    <linearGradient id="linear-gradient-35" x1="0.423" y1="0.97" x2="0.75" y2="-1.031" xlink:href="#linear-gradient-2"/>
    <linearGradient id="linear-gradient-36" x1="0.326" y1="1.161" x2="0.514" y2="0.37" gradientUnits="objectBoundingBox">
      <stop offset="0" stop-color="#454545"/>
      <stop offset="1"/>
    </linearGradient>
    <linearGradient id="linear-gradient-37" x1="0.23" y1="0.964" x2="0.722" y2="0.118" xlink:href="#linear-gradient-18"/>
    <linearGradient id="linear-gradient-38" x1="0.128" y1="0.873" x2="1.021" y2="-0.022" xlink:href="#linear-gradient-18"/>
    <linearGradient id="linear-gradient-39" x1="0.346" y1="1.126" x2="0.761" y2="-0.566" xlink:href="#linear-gradient-18"/>
    <linearGradient id="linear-gradient-40" x1="-0.335" y1="0.142" x2="2.215" y2="1.235" xlink:href="#linear-gradient-29"/>
    <linearGradient id="linear-gradient-41" x1="1.463" y1="0.92" x2="-0.346" y2="0.131" xlink:href="#linear-gradient-2"/>
    <linearGradient id="linear-gradient-42" x1="5.971" y1="3.558" x2="-13.504" y2="-7.33" xlink:href="#linear-gradient-2"/>
    <linearGradient id="linear-gradient-43" x1="4.435" y1="2.523" x2="-21.472" y2="-10.801" xlink:href="#linear-gradient-2"/>
    <linearGradient id="linear-gradient-44" x1="6.89" y1="2.509" x2="-24.866" y2="-7.474" xlink:href="#linear-gradient-2"/>
    <linearGradient id="linear-gradient-45" x1="10.088" y1="2.135" x2="-51.59" y2="-8.376" xlink:href="#linear-gradient-2"/>
    <linearGradient id="linear-gradient-46" x1="6.42" y1="5.874" x2="-9.12" y2="-8.268" xlink:href="#linear-gradient-2"/>
    <linearGradient id="linear-gradient-47" x1="7.574" y1="12.488" x2="-7.055" y2="-12.302" xlink:href="#linear-gradient-2"/>
    <linearGradient id="linear-gradient-48" x1="9.619" y1="19.924" x2="-6.335" y2="-14.058" xlink:href="#linear-gradient-2"/>
    <linearGradient id="linear-gradient-49" x1="13.547" y1="10.722" x2="-7.177" y2="-5.514" xlink:href="#linear-gradient-2"/>
    <linearGradient id="linear-gradient-50" x1="23.969" y1="8.011" x2="-12.27" y2="-3.587" xlink:href="#linear-gradient-2"/>
    <linearGradient id="linear-gradient-51" x1="31.71" y1="6.783" x2="-18.434" y2="-3.312" xlink:href="#linear-gradient-2"/>
    <linearGradient id="linear-gradient-52" x1="3.879" y1="4.635" x2="-13.825" y2="-17.033" xlink:href="#linear-gradient-2"/>
    <linearGradient id="linear-gradient-53" x1="13.778" y1="6.21" x2="-9.999" y2="-4.015" xlink:href="#linear-gradient-2"/>
    <linearGradient id="linear-gradient-54" x1="4.477" y1="11.681" x2="-10.499" y2="-30.443" xlink:href="#linear-gradient-2"/>
    <linearGradient id="linear-gradient-55" x1="8.437" y1="6.138" x2="-8.568" y2="-5.941" xlink:href="#linear-gradient-2"/>
    <linearGradient id="linear-gradient-56" x1="5.869" y1="6.939" x2="-8.915" y2="-10.791" xlink:href="#linear-gradient-2"/>
    <linearGradient id="linear-gradient-57" x1="-0.002" y1="0.778" x2="1.183" y2="0.05" gradientUnits="objectBoundingBox">
      <stop offset="0" stop-color="#c3c3c3"/>
      <stop offset="1" stop-color="#fff"/>
    </linearGradient>
    <linearGradient id="linear-gradient-58" x1="1.026" y1="0.924" x2="-0.522" y2="-0.392" xlink:href="#linear-gradient-57"/>
    <linearGradient id="linear-gradient-59" x1="0.561" y1="1.017" x2="0.417" y2="-0.332" xlink:href="#linear-gradient-57"/>
    <linearGradient id="linear-gradient-60" x1="0.44" y1="-0.013" x2="0.638" y2="1.512" xlink:href="#linear-gradient-57"/>
    <radialGradient id="radial-gradient" cx="0.615" cy="0.382" r="0.772" gradientTransform="translate(-0.048) scale(1.095 1)" gradientUnits="objectBoundingBox">
      <stop offset="0" stop-color="#fff"/>
      <stop offset="0.191" stop-color="#fafafa"/>
      <stop offset="0.396" stop-color="#ededed"/>
      <stop offset="0.608" stop-color="#d8d8d8"/>
      <stop offset="0.823" stop-color="#bababa"/>
      <stop offset="1" stop-color="#9c9c9c"/>
    </radialGradient>
    <radialGradient id="radial-gradient-2" cx="0.539" cy="0.237" r="1.411" gradientTransform="translate(0.213) scale(0.573 1)" xlink:href="#radial-gradient"/>
    <linearGradient id="linear-gradient-61" x1="1.027" y1="6.785" x2="0.29" y2="-2.003" xlink:href="#linear-gradient-29"/>
    <linearGradient id="linear-gradient-62" x1="1.122" y1="7.917" x2="0.385" y2="-0.871" xlink:href="#linear-gradient-29"/>
    <linearGradient id="linear-gradient-63" x1="1.217" y1="9.048" x2="0.48" y2="0.261" xlink:href="#linear-gradient-29"/>
    <linearGradient id="linear-gradient-64" x1="0.944" y1="5.794" x2="0.207" y2="-2.991" xlink:href="#linear-gradient-29"/>
    <linearGradient id="linear-gradient-65" x1="1.039" y1="6.926" x2="0.302" y2="-1.86" xlink:href="#linear-gradient-29"/>
    <linearGradient id="linear-gradient-66" x1="1.134" y1="8.056" x2="0.397" y2="-0.728" xlink:href="#linear-gradient-29"/>
    <radialGradient id="radial-gradient-3" cx="1.642" cy="-0.089" r="0.828" gradientTransform="translate(-0.155) scale(1.309 1)" xlink:href="#radial-gradient"/>
    <linearGradient id="linear-gradient-67" x1="1.97" y1="-0.301" x2="6.839" y2="-2.956" xlink:href="#linear-gradient-29"/>
    <radialGradient id="radial-gradient-4" cx="0.103" cy="0.054" r="0.935" gradientTransform="translate(-0.445) scale(1.891 1)" xlink:href="#radial-gradient"/>
    <linearGradient id="linear-gradient-68" x1="2.52" y1="3.753" x2="-1.07" y2="-2.028" xlink:href="#linear-gradient-29"/>
    <linearGradient id="linear-gradient-69" x1="2.053" y1="3.002" x2="-1.535" y2="-2.778" xlink:href="#linear-gradient-29"/>
    <linearGradient id="linear-gradient-70" x1="1.588" y1="2.252" x2="-2.001" y2="-3.529" xlink:href="#linear-gradient-29"/>
    <radialGradient id="radial-gradient-5" cx="0.528" cy="0.438" r="0.912" gradientTransform="translate(0.054) scale(0.891 1)" xlink:href="#radial-gradient"/>
    <radialGradient id="radial-gradient-6" cx="0.944" cy="0.327" r="0.874" gradientTransform="translate(-0.156) scale(1.311 1)" xlink:href="#radial-gradient"/>
    <linearGradient id="linear-gradient-71" x1="-2.137" y1="2.063" x2="0.774" y2="0.338" xlink:href="#linear-gradient-29"/>
    <linearGradient id="linear-gradient-72" x1="-4.354" y1="3.377" x2="-1.443" y2="1.652" xlink:href="#linear-gradient-29"/>
    <linearGradient id="linear-gradient-73" x1="-1.478" y1="1.672" x2="1.433" y2="-0.053" xlink:href="#linear-gradient-29"/>
    <linearGradient id="linear-gradient-74" x1="-3.695" y1="2.987" x2="-0.784" y2="1.261" xlink:href="#linear-gradient-29"/>
    <radialGradient id="radial-gradient-7" cx="1.41" cy="0.498" r="0.95" gradientTransform="translate(-0.047) scale(1.094 1)" xlink:href="#radial-gradient"/>
    <linearGradient id="linear-gradient-75" x1="-2.319" y1="0.5" x2="5.775" y2="0.5" xlink:href="#linear-gradient-29"/>
    <linearGradient id="linear-gradient-76" x1="-2.741" y1="0.5" x2="5.354" y2="0.5" xlink:href="#linear-gradient-29"/>
    <linearGradient id="linear-gradient-77" x1="-3.98" y1="0.5" x2="4.114" y2="0.5" xlink:href="#linear-gradient-29"/>
    <linearGradient id="linear-gradient-78" x1="-0.659" y1="0.5" x2="7.437" y2="0.5" xlink:href="#linear-gradient-29"/>
    <linearGradient id="linear-gradient-79" x1="-1.898" y1="0.5" x2="6.196" y2="0.5" xlink:href="#linear-gradient-29"/>
    <radialGradient id="radial-gradient-8" cx="0.512" cy="2.361" r="2.255" gradientTransform="translate(0.272) scale(0.456 1)" xlink:href="#radial-gradient"/>
    <linearGradient id="linear-gradient-80" x1="0.5" y1="-0.237" x2="0.5" y2="-16.795" xlink:href="#linear-gradient-29"/>
    <linearGradient id="linear-gradient-81" x1="0.5" y1="2.11" x2="0.5" y2="-14.45" xlink:href="#linear-gradient-29"/>
    <linearGradient id="linear-gradient-82" x1="0.5" y1="4.455" x2="0.5" y2="-12.096" xlink:href="#linear-gradient-29"/>
  </defs>
  <g id="Grupo_15866" data-name="Grupo 15866" transform="translate(-485.731 210.678)">
    <g id="Grupo_15824" data-name="Grupo 15824" transform="translate(878.288 -120.64)">
      <g id="Grupo_15823" data-name="Grupo 15823">
        <path id="Trazado_15918" data-name="Trazado 15918" d="M740.752-139.679c-.06-.506-.128-1.008-.208-1.5a26.59,26.59,0,0,0-3.04-8.869q-.335-.593-.7-1.156A20.114,20.114,0,0,0,722.2-160.4c-.446-.057-.9-.1-1.358-.136a25.045,25.045,0,0,0-4.635.1,29.229,29.229,0,0,0-4.779.946c-.489.136-.976.287-1.463.449a43.556,43.556,0,0,0-18.546,12.883q-.583.67-1.148,1.361a52.716,52.716,0,0,0-6.391,9.915c-.264.534-.516,1.071-.763,1.614a47.514,47.514,0,0,0-3.506,11.2,37.711,37.711,0,0,0-.425,10.865c.057.506.125,1.008.206,1.5a26.6,26.6,0,0,0,3.04,8.869c.223.393.459.78.7,1.156a20.109,20.109,0,0,0,14.609,9.188q.67.086,1.356.134a25.173,25.173,0,0,0,4.63-.1,29.154,29.154,0,0,0,4.783-.946c.489-.138.978-.287,1.463-.449a43.574,43.574,0,0,0,18.54-12.872c.391-.449.776-.9,1.154-1.365A52.862,52.862,0,0,0,736.054-116q.4-.8.761-1.607a47.6,47.6,0,0,0,3.51-11.205A37.775,37.775,0,0,0,740.752-139.679Z" transform="translate(-660.729 177.023)" fill="url(#linear-gradient)"/>
        <g id="Grupo_15821" data-name="Grupo 15821" transform="translate(19.121 17.428)">
          <path id="Trazado_15919" data-name="Trazado 15919" d="M704.638-156.757a.839.839,0,0,0-.138,1.048,20.085,20.085,0,0,1,2.438,3.433c.215.383.423.767.619,1.167a.451.451,0,0,0,.472.249.806.806,0,0,0,.408-.185.959.959,0,0,0,.327-1.063c-.2-.417-.419-.825-.648-1.22a21.565,21.565,0,0,0-2.547-3.589.442.442,0,0,0-.4-.142.87.87,0,0,0-.532.3" transform="translate(-651.25 163.576)" fill="url(#linear-gradient-2)"/>
          <path id="Trazado_15920" data-name="Trazado 15920" d="M704.215-132.55a.893.893,0,0,0,.232-1.061.441.441,0,0,0-.44-.193.812.812,0,0,0-.466.238,42.777,42.777,0,0,1-5.478,4.53.99.99,0,0,0-.414,1.05.443.443,0,0,0,.5.31.739.739,0,0,0,.34-.134,46.455,46.455,0,0,0,5.729-4.741" transform="translate(-658.859 189.758)" fill="url(#linear-gradient-3)"/>
          <path id="Trazado_15921" data-name="Trazado 15921" d="M687.4-127.169a.723.723,0,0,0-.055-1,18.537,18.537,0,0,1-4.054-3.465.452.452,0,0,0-.4-.145.86.86,0,0,0-.527.3.836.836,0,0,0-.145,1.05,19.663,19.663,0,0,0,4.241,3.629.481.481,0,0,0,.308.062.917.917,0,0,0,.629-.436" transform="translate(-676.331 192.043)" fill="url(#linear-gradient-4)"/>
          <path id="Trazado_15922" data-name="Trazado 15922" d="M682.6-129.675a.954.954,0,0,0,.325-1.063,24.426,24.426,0,0,1-1.9-5.542.462.462,0,0,0-.521-.378.688.688,0,0,0-.272.091,1.03,1.03,0,0,0-.5,1.027,25.419,25.419,0,0,0,1.994,5.8.442.442,0,0,0,.472.251.762.762,0,0,0,.408-.187" transform="translate(-679.015 186.544)" fill="url(#linear-gradient-5)"/>
          <path id="Trazado_15923" data-name="Trazado 15923" d="M707.872-138.442c.21-.393.142-.825-.155-.955a.484.484,0,0,0-.253-.034.928.928,0,0,0-.67.512,48.791,48.791,0,0,1-4,6.205.77.77,0,0,0-.043,1.025.454.454,0,0,0,.357.1.875.875,0,0,0,.576-.361,51.09,51.09,0,0,0,4.186-6.495" transform="translate(-653.268 183.423)" fill="url(#linear-gradient-6)"/>
          <path id="Trazado_15924" data-name="Trazado 15924" d="M689.3-155.223a1,1,0,0,0-.421,1.048.45.45,0,0,0,.493.313.783.783,0,0,0,.347-.14,37.578,37.578,0,0,1,5.876-3.374,1.05,1.05,0,0,0,.585-.986.468.468,0,0,0-.527-.449.75.75,0,0,0-.211.06,39.178,39.178,0,0,0-6.142,3.529" transform="translate(-668.727 161.604)" fill="url(#linear-gradient-7)"/>
          <path id="Trazado_15925" data-name="Trazado 15925" d="M700.148-159.171c-.181.4-.068.8.247.9a18.507,18.507,0,0,1,4.9,2.156.463.463,0,0,0,.306.064.919.919,0,0,0,.631-.436c.242-.385.217-.827-.057-1a19.337,19.337,0,0,0-5.121-2.258.523.523,0,0,0-.191-.015.967.967,0,0,0-.71.591" transform="translate(-656.101 160.535)" fill="url(#linear-gradient-8)"/>
          <path id="Trazado_15926" data-name="Trazado 15926" d="M707.283-152.084a1.017,1.017,0,0,0-.5,1.02c.106.5.206,1.012.289,1.531a30.748,30.748,0,0,1,.391,4.724.476.476,0,0,0,.534.521.66.66,0,0,0,.134-.03,1.058,1.058,0,0,0,.659-.944,32.482,32.482,0,0,0-.408-4.945c-.089-.54-.189-1.076-.308-1.594a.448.448,0,0,0-.508-.378.681.681,0,0,0-.278.1" transform="translate(-648.557 169.069)" fill="url(#linear-gradient-9)"/>
          <path id="Trazado_15927" data-name="Trazado 15927" d="M680.59-141.9c-.145.417.011.787.347.831a.527.527,0,0,0,.13,0,1,1,0,0,0,.744-.663,45.2,45.2,0,0,1,2.162-5.108c.255-.525.521-1.042.8-1.556.21-.393.14-.818-.157-.948a.464.464,0,0,0-.253-.036.926.926,0,0,0-.667.508c-.291.534-.574,1.08-.844,1.624a48.723,48.723,0,0,0-2.264,5.347" transform="translate(-678.085 172.227)" fill="url(#linear-gradient-10)"/>
          <path id="Trazado_15928" data-name="Trazado 15928" d="M693.342-127.536c.106-.412-.083-.755-.438-.753-.472,0-.94-.028-1.4-.057a20.564,20.564,0,0,1-4.109-.708.456.456,0,0,0-.194-.015.968.968,0,0,0-.714.591c-.179.4-.066.8.255.893a21.515,21.515,0,0,0,4.3.738c.485.034.976.055,1.469.064l.06,0a1.021,1.021,0,0,0,.776-.748" transform="translate(-671.483 195.089)" fill="url(#linear-gradient-11)"/>
          <path id="Trazado_15929" data-name="Trazado 15929" d="M698.782-128.57a1.045,1.045,0,0,0,.585-.986.461.461,0,0,0-.523-.449.672.672,0,0,0-.208.06,32.065,32.065,0,0,1-4.568,1.679c-.485.136-.963.259-1.446.37a1.036,1.036,0,0,0-.729.889c-.032.378.2.634.525.6.023,0,.047-.006.07-.013.506-.119,1.012-.244,1.518-.389a33.444,33.444,0,0,0,4.777-1.758" transform="translate(-665.301 194.036)" fill="url(#linear-gradient-12)"/>
          <path id="Trazado_15930" data-name="Trazado 15930" d="M707.2-138.068a45.445,45.445,0,0,0,1.9-7.134l.013-.079c.068-.415-.162-.714-.521-.674a1.016,1.016,0,0,0-.782.821l-.015.076a42.393,42.393,0,0,1-1.813,6.82c-.145.41.013.789.347.831a.526.526,0,0,0,.13,0,.994.994,0,0,0,.744-.663" transform="translate(-649.493 176.078)" fill="url(#linear-gradient-13)"/>
          <path id="Trazado_15931" data-name="Trazado 15931" d="M680.051-134.577a1.062,1.062,0,0,0,.659-.946,36.38,36.38,0,0,1,.589-6.688c.072-.41-.162-.716-.514-.676a1.013,1.013,0,0,0-.785.827,38.411,38.411,0,0,0-.616,6.992.474.474,0,0,0,.534.521.633.633,0,0,0,.134-.03" transform="translate(-679.383 179.532)" fill="url(#linear-gradient-14)"/>
          <path id="Trazado_15932" data-name="Trazado 15932" d="M695.3-159.428a1.031,1.031,0,0,0-.725.889c-.036.378.2.636.521.6l.07-.013a26.847,26.847,0,0,1,3.029-.519,23.67,23.67,0,0,1,2.87-.149l.062,0a1,1,0,0,0,.77-.748c.111-.412-.085-.748-.432-.753a25.048,25.048,0,0,0-3,.157,27.609,27.609,0,0,0-3.161.54" transform="translate(-662.284 160.127)" fill="url(#linear-gradient-15)"/>
          <path id="Trazado_15933" data-name="Trazado 15933" d="M690.072-154.817a.914.914,0,0,1-.24,1.067,48.935,48.935,0,0,0-3.7,4.039c-.383.476-.763.957-1.137,1.45a.9.9,0,0,1-.582.368.453.453,0,0,1-.353-.1.781.781,0,0,1,.043-1.027c.391-.521.785-1.02,1.188-1.518a50.607,50.607,0,0,1,3.871-4.228.821.821,0,0,1,.472-.24A.451.451,0,0,1,690.072-154.817Z" transform="translate(-674.313 165.887)" fill="url(#linear-gradient-16)"/>
        </g>
        <path id="Trazado_15934" data-name="Trazado 15934" d="M730.567-162.409c.366-.011.727-.011,1.088-.009.176,0,.355,0,.529,0,.527.013,1.05.034,1.567.072.534.038,1.059.1,1.58.159.308.038.612.087.916.134s.591.091.882.145.608.128.91.193c.285.064.572.123.853.2.227.06.451.125.676.189.317.091.634.181.944.281.23.074.455.155.682.236.3.106.6.215.9.332.2.081.406.166.608.251.3.125.589.255.878.391q.306.143.606.293c.306.153.61.313.908.478.14.077.281.151.419.232.438.253.872.514,1.295.793l-8.956-5.9c-.425-.281-.859-.544-1.3-.8-.132-.077-.268-.149-.4-.223-.187-.1-.37-.21-.559-.308-.121-.064-.249-.119-.37-.181-.2-.1-.393-.191-.591-.285-.3-.138-.591-.27-.893-.4-.2-.085-.4-.168-.6-.247-.1-.04-.2-.087-.3-.128-.2-.072-.4-.136-.6-.2-.228-.081-.455-.164-.685-.238-.3-.1-.608-.185-.914-.272-.238-.068-.474-.138-.714-.2-.064-.015-.123-.036-.187-.051-.2-.051-.417-.087-.625-.134-.312-.07-.625-.142-.942-.2-.283-.053-.57-.094-.857-.14-.315-.049-.631-.1-.952-.138-.083-.011-.164-.028-.246-.036-.436-.051-.874-.091-1.318-.121q-.778-.057-1.573-.072c-.174,0-.353,0-.529,0-.353,0-.706,0-1.065.008-.066,0-.13,0-.2,0-.247.008-.5.025-.748.038-.153.011-.306.015-.461.026q-.718.051-1.448.13t-1.475.2c-.161.026-.323.055-.482.083-.332.055-.663.111-.995.174-.187.036-.372.079-.559.117-.308.064-.617.13-.925.2-.191.045-.385.094-.578.14-.168.042-.336.081-.5.125-.232.06-.463.125-.693.189-.642.183-1.284.378-1.924.593-.2.066-.4.145-.6.215-.436.153-.872.3-1.305.47-.261.1-.521.215-.782.321-.37.151-.738.3-1.105.455-.31.136-.617.285-.925.427s-.629.285-.942.438l-.066.03c-.168.083-.334.176-.5.262-.466.236-.933.472-1.395.725-.242.132-.483.272-.723.408-.4.227-.806.457-1.207.7-.259.155-.514.319-.774.478-.376.236-.755.474-1.127.719-.262.172-.521.349-.78.525-.372.253-.738.51-1.106.772-.132.1-.268.183-.4.278-.1.072-.194.153-.293.225q-.868.644-1.72,1.322c-.121.1-.244.187-.363.285-.682.551-1.352,1.12-2.015,1.7-.047.043-.093.079-.14.119-.16.142-.312.291-.47.436q-.542.488-1.076.991c-.227.217-.451.436-.676.657-.332.323-.659.646-.982.978-.1.1-.211.2-.315.31-.142.149-.281.3-.423.453-.253.266-.5.531-.75.8s-.5.555-.753.835-.485.549-.725.827c-.106.123-.217.242-.323.368q-.4.481-.806.969c-.555.682-1.1,1.382-1.631,2.09-.068.089-.14.176-.208.268-.081.108-.16.221-.238.33q-.313.424-.617.852c-.181.253-.361.506-.54.763q-.309.443-.608.9c-.117.172-.236.342-.351.514-.051.077-.1.155-.147.232-.2.3-.391.61-.585.918-.159.253-.321.5-.476.759-.189.313-.374.627-.561.944-.121.2-.246.408-.366.614l-.083.149c-.2.355-.4.714-.6,1.074-.123.225-.249.449-.37.676-.257.48-.506.967-.75,1.456-.051.1-.1.2-.153.3l-.028.055h0q-.485.982-.94,1.983c-.2.44-.389.889-.578,1.333-.1.227-.2.451-.3.678v0q-.447,1.081-.854,2.181c-.087.234-.168.474-.253.71-.177.5-.353.991-.519,1.488-.023.077-.053.149-.076.223-.051.151-.089.306-.138.457q-.313.992-.6,1.992c-.072.257-.145.514-.213.774-.213.793-.412,1.592-.591,2.4-.015.066-.034.13-.049.2l-.006.045q-.239,1.091-.436,2.19a47.591,47.591,0,0,0-.276,16.061,34.153,34.153,0,0,0,3.948,11.524,26.911,26.911,0,0,0,8.591,9.318l8.956,5.9a26.859,26.859,0,0,1-8.589-9.316h0A34.076,34.076,0,0,1,679.9-96.295a47.6,47.6,0,0,1,.274-16.063q.2-1.1.438-2.2c.013-.062.03-.121.043-.183.183-.821.387-1.637.6-2.451.068-.251.138-.5.208-.755q.284-1.011.6-2.011c.07-.221.138-.444.21-.665.168-.5.344-1.006.525-1.507.083-.232.159-.466.246-.7.272-.731.555-1.458.855-2.179.206-.5.425-.993.644-1.486.076-.174.149-.353.228-.525q.456-1,.944-1.988c.079-.162.166-.321.246-.483.223-.444.449-.886.683-1.324.119-.223.244-.444.366-.665.2-.366.4-.731.6-1.091.14-.247.287-.489.432-.731.191-.327.38-.653.578-.974.153-.253.313-.5.47-.753.193-.308.387-.614.585-.92.166-.253.336-.5.5-.753.2-.3.4-.6.606-.895.177-.253.353-.5.531-.753.208-.291.417-.58.629-.867.145-.2.291-.389.436-.583.536-.71,1.078-1.412,1.637-2.1.374-.459.757-.908,1.142-1.354.232-.27.466-.536.7-.8q.379-.427.763-.846t.748-.8q.367-.386.738-.765c.319-.325.642-.644.967-.961.234-.23.468-.459.706-.685.334-.317.674-.627,1.012-.935.225-.2.449-.41.676-.612.655-.576,1.318-1.139,1.99-1.684.134-.108.27-.213.406-.319q.829-.66,1.673-1.286c.24-.176.478-.351.719-.521.364-.261.727-.514,1.095-.765.255-.174.512-.349.772-.519.381-.251.765-.493,1.15-.733.249-.155.5-.312.751-.463.412-.247.825-.483,1.241-.716.227-.13.457-.264.687-.389.506-.276,1.016-.538,1.529-.793.14-.072.283-.149.425-.219.37-.181.742-.347,1.114-.519.255-.117.512-.242.77-.355.336-.147.676-.279,1.014-.417.293-.121.587-.249.882-.361.331-.13.667-.242,1-.361.3-.108.6-.223.906-.325q.953-.319,1.915-.589c.4-.113.8-.215,1.2-.315.191-.049.385-.1.576-.142.308-.072.619-.138.927-.2.185-.04.372-.081.557-.117.332-.064.661-.119.993-.174.161-.028.323-.057.487-.083q.737-.112,1.473-.2c.491-.055.976-.1,1.458-.13.155-.011.306-.017.459-.025C729.957-162.386,730.263-162.4,730.567-162.409Z" transform="translate(-670.388 168.325)" fill="url(#linear-gradient-17)"/>
        <path id="Trazado_15935" data-name="Trazado 15935" d="M670.649-137.22A34.153,34.153,0,0,0,674.6-125.7l8.958,5.906a34.058,34.058,0,0,1-3.948-11.524Z" transform="translate(-670.095 203.344)" fill="url(#linear-gradient-18)"/>
        <path id="Trazado_15936" data-name="Trazado 15936" d="M701.885-161.644c.185-.04.372-.081.557-.117.332-.064.661-.119.993-.174.161-.028.323-.057.487-.083q.737-.112,1.473-.2c.491-.055.976-.1,1.458-.13.155-.011.306-.017.459-.025.308-.017.614-.032.918-.04.366-.011.727-.011,1.088-.009.176,0,.355,0,.529,0,.527.013,1.05.034,1.567.072l-8.956-5.9q-.778-.057-1.573-.072c-.174,0-.353,0-.529,0-.353,0-.706,0-1.065.008-.066,0-.13,0-.2,0-.246.008-.5.025-.748.038-.153.011-.306.015-.461.026q-.718.051-1.448.13t-1.475.2c-.161.026-.323.055-.482.083-.332.055-.663.111-.995.174-.187.036-.372.079-.559.117-.308.064-.617.13-.925.2-.191.045-.385.094-.578.14-.168.042-.336.081-.5.125-.232.06-.463.125-.693.189l8.956,5.906c.4-.113.8-.215,1.2-.315.191-.049.385-.1.576-.142C701.267-161.514,701.577-161.58,701.885-161.644Z" transform="translate(-648.052 168.325)" fill="url(#linear-gradient-19)"/>
        <path id="Trazado_15937" data-name="Trazado 15937" d="M683.64-142.348c.2-.366.4-.731.6-1.091.14-.247.287-.489.432-.731.191-.327.38-.653.578-.974.153-.253.313-.5.47-.753.193-.308.387-.614.585-.921.166-.253.336-.5.5-.753.2-.3.4-.6.606-.895.176-.253.353-.5.531-.753.208-.291.417-.58.629-.867.144-.2.291-.389.436-.582.536-.71,1.078-1.412,1.637-2.1l-8.958-5.906c-.555.682-1.1,1.382-1.631,2.09-.068.089-.14.176-.208.268-.081.108-.159.221-.238.33q-.313.424-.617.852c-.181.253-.361.506-.54.763q-.309.443-.608.9c-.117.172-.236.342-.351.514-.051.077-.1.155-.147.232-.2.3-.391.61-.585.918-.159.253-.321.5-.476.759-.189.313-.374.627-.561.944-.121.2-.246.408-.366.614l-.083.149c-.2.355-.4.714-.6,1.074-.123.225-.249.449-.37.676-.257.48-.506.967-.75,1.456-.051.1-.1.2-.153.3l-.028.055,8.958,5.906c.079-.162.166-.321.247-.483.223-.444.449-.886.683-1.324C683.393-141.906,683.519-142.127,683.64-142.348Z" transform="translate(-667.012 179.197)" fill="url(#linear-gradient-20)"/>
        <path id="Trazado_15938" data-name="Trazado 15938" d="M754.614-140.315a34.117,34.117,0,0,0-3.954-11.522,26.328,26.328,0,0,0-21.652-13.631,32.657,32.657,0,0,0-6.02.132,37.937,37.937,0,0,0-6.212,1.229c-10.2,2.87-19.949,9.845-27.492,19.095a68.179,68.179,0,0,0-8.306,12.887,62.407,62.407,0,0,0-5.546,16.646,47.6,47.6,0,0,0-.274,16.063A34.058,34.058,0,0,0,679.1-87.893l8.941-6.208c-.242-.376-.478-.763-.7-1.156a26.607,26.607,0,0,1-3.04-8.869c-.081-.491-.149-.993-.206-1.5a37.714,37.714,0,0,1,.425-10.865,47.511,47.511,0,0,1,3.506-11.2c.247-.542.5-1.08.763-1.614a52.627,52.627,0,0,1,6.391-9.917q.564-.689,1.148-1.358a43.556,43.556,0,0,1,18.546-12.883c.487-.162.974-.312,1.463-.449a29.231,29.231,0,0,1,4.779-.946,25.046,25.046,0,0,1,4.635-.1c.459.032.912.079,1.358.136a20.114,20.114,0,0,1,14.607,9.194q.367.564.7,1.156a26.6,26.6,0,0,1,3.04,8.867c.081.5.149,1,.208,1.5a37.778,37.778,0,0,1-.427,10.863,47.607,47.607,0,0,1-3.51,11.205q-.367.81-.761,1.607a52.865,52.865,0,0,1-6.388,9.917c-.378.463-.763.916-1.154,1.365a43.574,43.574,0,0,1-18.54,12.872c-.485.162-.974.31-1.463.449a29.376,29.376,0,0,1-4.783.946,25.172,25.172,0,0,1-4.63.1q-.686-.048-1.356-.134A20.109,20.109,0,0,1,688.046-94.1L679.1-87.893a26.312,26.312,0,0,0,21.652,13.623,32.779,32.779,0,0,0,6.016-.13,38,38,0,0,0,6.216-1.231c10.206-2.87,19.941-9.83,27.485-19.086A67.67,67.67,0,0,0,748.78-107.6a62.4,62.4,0,0,0,5.546-16.648A47.9,47.9,0,0,0,754.614-140.315Z" transform="translate(-665.644 171.448)" fill="url(#linear-gradient-21)"/>
        <path id="Trazado_15939" data-name="Trazado 15939" d="M709.816-138.77q.4-.8.761-1.607l7.049,4.43a67.669,67.669,0,0,1-8.306,12.887l-7.047-4.428c.391-.449.776-.9,1.154-1.365A52.864,52.864,0,0,0,709.816-138.77Z" transform="translate(-634.49 199.79)" fill="url(#linear-gradient-22)"/>
        <path id="Trazado_15940" data-name="Trazado 15940" d="M694.79-126.864a29.379,29.379,0,0,0,4.783-.946c.489-.138.978-.287,1.463-.449l-1.9,10.642a38,38,0,0,1-6.216,1.231,32.777,32.777,0,0,1-6.016.13l1.9-10.642c.446.057.9.1,1.356.134A25.172,25.172,0,0,0,694.79-126.864Z" transform="translate(-651.792 213.433)" fill="url(#linear-gradient-23)"/>
        <path id="Trazado_15941" data-name="Trazado 15941" d="M709.914-142.869a26.594,26.594,0,0,0-3.04-8.867q-.335-.593-.7-1.156l8.941-6.208a34.114,34.114,0,0,1,3.954,11.522l-8.946,6.212C710.063-141.872,710-142.374,709.914-142.869Z" transform="translate(-630.099 178.71)" fill="url(#linear-gradient-24)"/>
        <path id="Trazado_15942" data-name="Trazado 15942" d="M684.011-135.863a26.606,26.606,0,0,0,3.04,8.869c.223.393.459.78.7,1.156l-8.941,6.208a34.057,34.057,0,0,1-3.948-11.524l8.941-6.208C683.862-136.856,683.93-136.354,684.011-135.863Z" transform="translate(-665.35 203.184)" fill="url(#linear-gradient-25)"/>
        <path id="Trazado_15943" data-name="Trazado 15943" d="M695.445-164.108a37.937,37.937,0,0,1,6.212-1.229,32.657,32.657,0,0,1,6.02-.132l-1.9,10.644c-.446-.057-.9-.1-1.358-.136a25.046,25.046,0,0,0-4.635.1,29.23,29.23,0,0,0-4.779.946c-.489.136-.976.287-1.463.449Z" transform="translate(-644.314 171.448)" fill="url(#linear-gradient-26)"/>
        <path id="Trazado_15944" data-name="Trazado 15944" d="M685.416-140.182c-.264.534-.517,1.071-.763,1.614L677.6-143a68.177,68.177,0,0,1,8.306-12.887l7.047,4.432q-.583.67-1.148,1.358A52.618,52.618,0,0,0,685.416-140.182Z" transform="translate(-662.267 182.324)" fill="url(#linear-gradient-27)"/>
        <path id="Trazado_15945" data-name="Trazado 15945" d="M713.9-158.769a22.556,22.556,0,0,1,4.165-.094,18.2,18.2,0,0,1,14.97,9.42,23.6,23.6,0,0,1,2.734,7.97,33.152,33.152,0,0,1-.2,11.108,43.112,43.112,0,0,1-3.837,11.512A46.766,46.766,0,0,1,726-109.942c-5.219,6.4-11.949,11.212-19,13.193a26.653,26.653,0,0,1-4.3.846,22.681,22.681,0,0,1-4.16.094,18.194,18.194,0,0,1-14.97-9.415,23.588,23.588,0,0,1-2.734-7.968,32.978,32.978,0,0,1,.191-11.108,43.068,43.068,0,0,1,3.837-11.512,47.4,47.4,0,0,1,5.742-8.912c5.219-6.4,11.956-11.218,19.009-13.2A26.171,26.171,0,0,1,713.9-158.769Z" transform="translate(-659.063 178.915)" fill="url(#linear-gradient-28)"/>
        <g id="Grupo_15822" data-name="Grupo 15822" transform="translate(8.48 5.691)" style="mix-blend-mode: overlay;isolation: isolate">
          <path id="Trazado_15946" data-name="Trazado 15946" d="M739.7-162.566s-.525-.217-1.507-.627l-.821-.342c-.306-.115-.652-.2-1.018-.319a20.784,20.784,0,0,0-2.549-.682l-1.529-.308c-.536-.1-1.112-.128-1.7-.2a31,31,0,0,0-3.852-.164c-.693-.021-1.39.094-2.117.134a17.891,17.891,0,0,0-2.224.259c-.763.138-1.554.247-2.349.4q-1.17.3-2.4.6c-.2.053-.423.1-.6.157l-.612.21c-.41.142-.827.283-1.246.427a24.293,24.293,0,0,0-2.526.938l-2.523,1.127c-.857.374-1.669.893-2.523,1.341a59.359,59.359,0,0,0-5.045,3.153c-1.59,1.265-3.314,2.43-4.856,3.88q-.593.523-1.193,1.048l-.6.529-.565.57q-1.132,1.142-2.279,2.3c-.744.791-1.437,1.639-2.164,2.462-.351.415-.735.833-1.065,1.246l-1.016,1.327-1.02,1.333c-.34.444-.634.912-.952,1.369-.612.927-1.286,1.816-1.839,2.793-.568.967-1.184,1.909-1.714,2.9l-1.562,2.97a68.776,68.776,0,0,0-4.677,12.579,55.952,55.952,0,0,0-1.677,12.851q.038,1.578.077,3.129.169,1.54.334,3.051l.079.733.145.748q.147.746.289,1.482a25.825,25.825,0,0,0,.727,2.834,22.957,22.957,0,0,0,.933,2.683c.177.434.315.88.521,1.293s.408.821.608,1.227l.6,1.2.682,1.154c.221.387.478.725.71,1.084s.478.7.74,1.033a26.684,26.684,0,0,0,6.658,6.271,26.372,26.372,0,0,0,6.429,3.006c.94.31,1.807.489,2.553.678.755.14,1.4.264,1.924.342l1.62.193-1.626-.132c-.529-.057-1.18-.155-1.945-.268-.757-.157-1.635-.31-2.589-.6a26.637,26.637,0,0,1-6.594-2.855,26.005,26.005,0,0,1-6.945-6.239c-.274-.334-.534-.682-.78-1.05s-.527-.725-.75-1.105l-.7-1.139q-.319-.612-.644-1.231t-.646-1.248c-.219-.419-.368-.874-.557-1.314a23.143,23.143,0,0,1-1.008-2.744,27.205,27.205,0,0,1-.8-2.891q-.156-.733-.315-1.477l-.157-.746-.1-.784c-.128-1.027-.266-2.066-.376-3.117q-.048-1.585-.1-3.2a56.953,56.953,0,0,1,1.635-13.114,69.623,69.623,0,0,1,4.671-12.8l1.624-3.046c.544-1,1.175-1.958,1.758-2.938.567-.986,1.265-1.9,1.9-2.844.327-.463.635-.946.978-1.39l1.029-1.327,1.025-1.322c.368-.457.738-.85,1.106-1.278.742-.833,1.452-1.688,2.211-2.489q1.174-1.167,2.33-2.321l.578-.576.612-.536c.406-.353.814-.706,1.218-1.059,1.577-1.456,3.325-2.651,4.97-3.9,1.76-1.08,3.408-2.26,5.183-3.117.88-.442,1.707-.948,2.594-1.318l2.606-1.11a24.48,24.48,0,0,1,2.557-.9l1.252-.406.617-.2c.234-.074.429-.106.644-.159l2.464-.572c.8-.142,1.592-.24,2.36-.353.393-.045.748-.125,1.154-.14l1.129-.06c.74-.021,1.465-.115,2.154-.074a30.751,30.751,0,0,1,3.878.279c.6.089,1.171.132,1.709.249l1.537.355a18.98,18.98,0,0,1,2.545.772c.364.132.708.234,1.008.361s.568.261.808.372Z" transform="translate(-674.377 165.648)" fill="#dbdbdb"/>
        </g>
      </g>
    </g>
    <g id="Grupo_15837" data-name="Grupo 15837" transform="translate(485.731 -163.275)">
      <g id="Grupo_15836" data-name="Grupo 15836">
        <path id="Trazado_15947" data-name="Trazado 15947" d="M572.774-124.323a22.858,22.858,0,0,0,6.884-7.589,21.143,21.143,0,0,0,2.581-10.334c0-.393-.008-.8-.032-1.2a30.776,30.776,0,0,0-3.616-12.606h.006l-.053-.1c-.023-.045-.042-.089-.066-.134h-.008a49.981,49.981,0,0,0-7.761-10.612H570.7A71.645,71.645,0,0,0,540.762-185.1a71.632,71.632,0,0,0-7.345-1.915,67.425,67.425,0,0,0-7.277-1.088c-1.93-.187-3.822-.272-5.661-.272-9.337,0-17.377,2.326-23.125,6.427a22.871,22.871,0,0,0-6.865,7.577h-.008a21.527,21.527,0,0,0-2.549,11.533,30.705,30.705,0,0,0,3.746,12.834h0a47.634,47.634,0,0,0,7.774,10.614h.009a71.615,71.615,0,0,0,29.936,18.212v0a71.886,71.886,0,0,0,7.336,1.909,65.605,65.605,0,0,0,7.277,1.088v.008c11.754,1.112,21.888-1.227,28.77-6.139" transform="translate(-483.286 188.38)" fill="url(#linear-gradient-29)"/>
        <path id="Trazado_15948" data-name="Trazado 15948" d="M529.572-166.946A36.766,36.766,0,0,0,523.6-175.1q-.561-.59-1.152-1.167l9.36-2a47.627,47.627,0,0,1,7.766,10.6l-9.369,2Q529.91-166.307,529.572-166.946Z" transform="translate(-444.389 199.769)" fill="url(#linear-gradient-30)"/>
        <path id="Trazado_15949" data-name="Trazado 15949" d="M505.89-188.254a66.521,66.521,0,0,1,7.287,1.093,72.6,72.6,0,0,1,7.33,1.915l.385,7.927c-.561-.2-1.125-.385-1.694-.563a55.931,55.931,0,0,0-5.642-1.473,51.942,51.942,0,0,0-5.606-.842c-.563-.053-1.12-.1-1.675-.13Z" transform="translate(-463.036 188.522)" fill="url(#linear-gradient-31)"/>
        <path id="Trazado_15950" data-name="Trazado 15950" d="M499.394-172.884q-.281.51-.523,1.044l-9.753-5.935A22.873,22.873,0,0,1,496-185.363l9.749,5.933c-.361.227-.716.463-1.059.708A17.611,17.611,0,0,0,499.394-172.884Z" transform="translate(-481.919 191.777)" fill="url(#linear-gradient-32)"/>
        <path id="Trazado_15951" data-name="Trazado 15951" d="M529.592-163.565q.281-.51.523-1.042l9.756,5.933a22.742,22.742,0,0,1-6.884,7.585l-9.745-5.927q.545-.344,1.063-.71A17.588,17.588,0,0,0,529.592-163.565Z" transform="translate(-443.499 215.145)" fill="url(#linear-gradient-33)"/>
        <path id="Trazado_15952" data-name="Trazado 15952" d="M499.677-169.994a36.96,36.96,0,0,0,5.974,8.157q.561.59,1.152,1.165l-9.36,2a47.749,47.749,0,0,1-7.766-10.6l9.367-2C499.241-170.843,499.454-170.417,499.677-169.994Z" transform="translate(-481.289 207.644)" fill="url(#linear-gradient-34)"/>
        <path id="Trazado_15953" data-name="Trazado 15953" d="M514.568-158.468a51.27,51.27,0,0,0,5.612.844q.845.08,1.673.128l.385,7.93a66.114,66.114,0,0,1-7.292-1.095,72.622,72.622,0,0,1-7.324-1.911l-.385-7.929c.559.2,1.125.385,1.694.563A55.662,55.662,0,0,0,514.568-158.468Z" transform="translate(-461.518 219.767)" fill="url(#linear-gradient-35)"/>
        <path id="Trazado_15954" data-name="Trazado 15954" d="M582.1-140.295l-4.626,10.838c-.217.393-.44.78-.687,1.165-.085.132-.17.255-.255.387-.17.247-.332.487-.51.733-.03.038-.062.085-.091.132-.055.07-.117.138-.17.208-.263.34-.534.68-.812,1-.091.108-.176.208-.27.317-.355.4-.733.8-1.12,1.173-.07.07-.147.132-.217.2-.332.317-.687.633-1.042.935-.123.1-.24.2-.355.293-.44.355-.88.7-1.352,1.033a.8.8,0,0,1-.115.085c-.363.264-.742.51-1.12.75-.117.068-.225.138-.332.208-.317.193-.627.378-.95.557-.14.085-.279.162-.419.238-.332.179-.678.355-1.018.525-.117.055-.217.117-.332.17-.449.217-.912.425-1.39.634-.094.038-.2.076-.3.123-.378.155-.765.31-1.159.457-.155.062-.308.115-.455.17-.387.138-.774.27-1.167.393-.123.038-.247.085-.378.123-.062.023-.123.038-.185.062-.147.047-.308.085-.464.123-.455.138-.912.264-1.384.387-.238.062-.493.115-.74.176-.44.1-.9.2-1.346.293-.253.047-.508.1-.763.147-.51.094-1.02.179-1.546.255-.2.023-.4.062-.6.085-.719.1-1.452.185-2.194.247-.17.017-.34.023-.51.04-.587.045-1.173.085-1.769.108-.27.015-.548.021-.818.03q-.765.022-1.552.023c-.287,0-.58,0-.874-.009-.54,0-1.088-.023-1.637-.045-.261-.008-.525-.017-.789-.032-.81-.047-1.628-.1-2.455-.179a66.178,66.178,0,0,1-7.292-1.095c-.98-.2-1.945-.425-2.91-.665-.108-.03-.208-.047-.31-.076-.085-.017-.161-.038-.247-.062-.408-.108-.827-.225-1.244-.34l-.687-.185c-.648-.187-1.29-.378-1.93-.587-.742-.232-1.484-.48-2.217-.736-.161-.053-.317-.115-.478-.176-.572-.2-1.135-.41-1.7-.625-.17-.064-.338-.14-.508-.2-.549-.217-1.1-.44-1.645-.663-.062-.023-.117-.055-.179-.079-1.444-.617-2.866-1.273-4.256-1.969-.223-.108-.446-.225-.663-.34-.549-.279-1.091-.557-1.622-.85-.255-.138-.5-.279-.757-.417-.51-.285-1.012-.572-1.514-.865-.232-.138-.472-.278-.712-.425-.572-.34-1.135-.7-1.69-1.057-.117-.07-.24-.147-.355-.225-.032-.015-.047-.03-.079-.047-.733-.478-1.452-.972-2.162-1.467-.176-.132-.355-.261-.534-.385-.525-.387-1.05-.774-1.567-1.167-.217-.162-.425-.332-.633-.5q-.788-.612-1.552-1.25c-.147-.123-.293-.24-.44-.364-.633-.548-1.261-1.1-1.871-1.66a1.113,1.113,0,0,1-.1-.085c-.293-.27-.578-.548-.865-.827-.155-.147-.308-.285-.455-.432q-.717-.7-1.39-1.414a47.672,47.672,0,0,1-7.77-10.6,30.819,30.819,0,0,1-3.737-12.836,21.841,21.841,0,0,1,1.66-9.709q1.738-4.066,3.467-8.125c.385-.9.765-1.807,1.15-2.71a21.856,21.856,0,0,0-1.66,9.709,30.715,30.715,0,0,0,3.746,12.836,47.526,47.526,0,0,0,7.762,10.6c.457.478.921.948,1.4,1.42.132.123.264.247.4.378.332.325.672.648,1.02.974.61.555,1.227,1.1,1.86,1.637.155.132.317.264.472.393.493.41.995.821,1.514,1.22.217.17.432.34.657.51.5.387,1.018.765,1.537,1.144.185.132.37.27.563.41.7.493,1.414.98,2.147,1.458.155.1.317.2.478.3.54.346,1.089.687,1.639,1.027.247.147.493.293.748.44.478.287.974.563,1.467.842.264.147.525.293.8.434.519.285,1.044.555,1.569.825.238.125.47.249.71.364.75.378,1.507.742,2.279,1.1l.038.015q3.128,1.438,6.433,2.6c.736.255,1.475.5,2.226.742.64.2,1.29.393,1.939.578.193.062.393.108.587.164.455.13.912.255,1.367.37l.478.115c.982.249,1.962.48,2.951.68a64.731,64.731,0,0,0,7.292,1.1c.833.079,1.652.138,2.464.179.255.015.508.023.757.03.563.023,1.127.047,1.675.055h.85c.534,0,1.057-.009,1.584-.023l.787-.023c.61-.032,1.214-.07,1.815-.117.155-.015.317-.021.472-.038.74-.062,1.475-.147,2.2-.238.2-.032.393-.062.587-.094.525-.076,1.05-.162,1.56-.255.255-.047.5-.094.75-.147.464-.094.91-.193,1.358-.293.247-.062.493-.115.742-.179.463-.123.927-.247,1.382-.378.217-.068.431-.123.648-.191.123-.04.247-.079.378-.123.387-.125.78-.255,1.159-.4.155-.053.3-.108.457-.162.393-.155.78-.308,1.165-.463.1-.047.2-.085.3-.123.47-.2.935-.417,1.39-.633.108-.055.217-.108.323-.164.349-.176.689-.355,1.02-.531.138-.079.278-.155.417-.232.325-.185.642-.37.95-.563.108-.07.225-.132.332-.2.425-.27.842-.548,1.244-.833.463-.332.912-.68,1.343-1.035.125-.1.24-.2.357-.3.361-.3.71-.617,1.05-.933.068-.07.138-.132.208-.2.393-.378.763-.772,1.127-1.173.094-.108.179-.208.264-.308.285-.334.555-.665.818-1.012.085-.117.176-.225.261-.34.17-.24.34-.487.5-.733.087-.132.179-.255.264-.387C581.656-139.506,581.888-139.893,582.1-140.295Z" transform="translate(-485.732 196.762)" fill="url(#linear-gradient-36)"/>
        <path id="Trazado_15955" data-name="Trazado 15955" d="M531.845-149.82c.242-.381.474-.765.691-1.161l4.622-10.836c-.215.4-.446.782-.689,1.163-.083.13-.174.255-.259.385-.164.247-.332.493-.506.733-.085.117-.174.23-.261.342q-.392.517-.816,1.008c-.087.1-.174.208-.266.31-.359.4-.731.8-1.125,1.178-.068.068-.14.132-.211.2-.338.321-.689.634-1.048.94-.117.1-.234.2-.353.293-.436.355-.882.7-1.35,1.035L525.652-143.4c.468-.332.912-.68,1.35-1.035.119-.1.234-.2.351-.3.361-.3.712-.617,1.048-.938.07-.066.145-.13.213-.2.393-.381.765-.776,1.125-1.18.091-.1.179-.206.266-.308q.424-.494.814-1.008c.055-.07.117-.136.17-.208.032-.045.06-.091.091-.134.176-.24.342-.487.508-.736C531.673-149.562,531.764-149.688,531.845-149.82Z" transform="translate(-440.786 218.288)" fill="url(#linear-gradient-37)"/>
        <path id="Trazado_15956" data-name="Trazado 15956" d="M492.125-170.331,487.5-159.5a47.661,47.661,0,0,0,7.766,10.6l4.622-10.836A47.748,47.748,0,0,1,492.125-170.331Z" transform="translate(-483.737 208.701)" fill="url(#linear-gradient-38)"/>
        <path id="Trazado_15957" data-name="Trazado 15957" d="M517.191-154.861c-.989-.2-1.973-.434-2.951-.678-.16-.04-.319-.077-.478-.119-.457-.117-.912-.242-1.367-.368-.2-.055-.391-.1-.585-.162-.653-.187-1.3-.381-1.943-.585l-4.624,10.833q.96.306,1.93.582c.23.066.459.125.689.189.414.115.829.23,1.246.336l.24.066c.1.026.206.045.31.072.965.24,1.934.466,2.91.668a66.558,66.558,0,0,0,7.292,1.095l4.622-10.836A66.1,66.1,0,0,1,517.191-154.861Z" transform="translate(-463.763 223.967)" fill="url(#linear-gradient-39)"/>
        <path id="Trazado_15958" data-name="Trazado 15958" d="M565.591-149.978a23.011,23.011,0,0,0-2.243-8.6c-.125-.266-.255-.531-.389-.8-.081-.159-.164-.321-.249-.48-.357-.68-.748-1.356-1.165-2.026-.125-.2-.253-.4-.385-.6a38.975,38.975,0,0,0-4.418-5.527q-.561-.59-1.152-1.167a55.357,55.357,0,0,0-20.206-12.3c-.561-.2-1.125-.385-1.694-.563a55.907,55.907,0,0,0-5.642-1.473,51.945,51.945,0,0,0-5.606-.842q-.845-.08-1.673-.128c-7.759-.461-14.513,1.071-19.411,4.15-.361.227-.716.463-1.059.708a17.63,17.63,0,0,0-5.3,5.838q-.281.51-.521,1.044a16.658,16.658,0,0,0-1.441,7.838,22.985,22.985,0,0,0,2.241,8.6c.2.427.41.852.634,1.276a36.96,36.96,0,0,0,5.974,8.157q.561.59,1.152,1.165a55.347,55.347,0,0,0,20.206,12.294c.559.2,1.125.385,1.694.563a55.665,55.665,0,0,0,5.636,1.471,51.27,51.27,0,0,0,5.612.844q.845.08,1.673.128c7.755.463,14.5-1.067,19.407-4.141q.545-.344,1.063-.71a17.588,17.588,0,0,0,5.287-5.84q.281-.51.523-1.042A16.669,16.669,0,0,0,565.591-149.978Z" transform="translate(-477.527 192.679)" fill="url(#linear-gradient-40)"/>
        <path id="Trazado_15959" data-name="Trazado 15959" d="M526.226-182.5a50.733,50.733,0,0,1,5.072,1.32A49.522,49.522,0,0,1,552-168.579a32.834,32.834,0,0,1,5.37,7.33,21.348,21.348,0,0,1,2.583,8.873,14.871,14.871,0,0,1-1.764,7.978,15.682,15.682,0,0,1-4.76,5.244c-4.758,3.4-11.767,5.015-19.89,4.245a46.717,46.717,0,0,1-5.043-.759,51.656,51.656,0,0,1-5.066-1.32,49.527,49.527,0,0,1-20.706-12.6,32.767,32.767,0,0,1-5.37-7.33,21.266,21.266,0,0,1-2.589-8.873,14.847,14.847,0,0,1,1.767-7.978,15.834,15.834,0,0,1,4.758-5.247c4.758-3.4,11.773-5.017,19.9-4.247A45.872,45.872,0,0,1,526.226-182.5Z" transform="translate(-475.578 193.932)" fill="url(#linear-gradient-41)"/>
        <g id="Grupo_15834" data-name="Grupo 15834" transform="translate(16.548 8.907)">
          <path id="Trazado_15960" data-name="Trazado 15960" d="M520.308-178.436a.671.671,0,0,1,.338-.087,1.318,1.318,0,0,1,.157.008l.079.015.07.015a1.322,1.322,0,0,1,.31.132,1.156,1.156,0,0,1,.145.1q1.081.9,2.09,1.833t1.937,1.911c.38.393.748.8,1.1,1.2a.717.717,0,0,1,.07.094l.028.045a.55.55,0,0,1,.066.2.384.384,0,0,1-.291.406.784.784,0,0,1-.276.034,1.023,1.023,0,0,1-.177-.021,1.26,1.26,0,0,1-.432-.181,1.065,1.065,0,0,1-.21-.179c-.13-.149-.261-.293-.393-.44q-.325-.354-.659-.706c-.3-.312-.6-.619-.908-.925q-1.387-1.368-2.949-2.657C520.078-177.909,520.036-178.266,520.308-178.436Z" transform="translate(-463.553 190.571)" fill="url(#linear-gradient-42)"/>
          <path id="Trazado_15961" data-name="Trazado 15961" d="M528.06-163.339a16.8,16.8,0,0,1-3.463,3.822.747.747,0,0,1-.612.1,1.282,1.282,0,0,1-.464-.2c-.359-.255-.449-.617-.21-.812a16.1,16.1,0,0,0,3.314-3.652.645.645,0,0,1,.691-.187,1.222,1.222,0,0,1,.317.111C528.03-163.953,528.225-163.583,528.06-163.339Z" transform="translate(-460.12 206.592)" fill="url(#linear-gradient-43)"/>
          <path id="Trazado_15962" data-name="Trazado 15962" d="M527.129-167.471a1.341,1.341,0,0,1-.134-.106l0,0a.786.786,0,0,1-.194-.291c-.221-.682-.48-1.363-.771-2.037q-.408-.957-.91-1.9c-.115-.221-.236-.444-.359-.665s-.251-.442-.381-.661a.4.4,0,0,1,.287-.642.656.656,0,0,1,.068-.011.491.491,0,0,1,.079-.006h0a.9.9,0,0,1,.151.006c.028,0,.057.008.087.015a1.154,1.154,0,0,1,.27.091.89.89,0,0,1,.1.051c.032.021.064.04.094.062a1.111,1.111,0,0,1,.108.089.891.891,0,0,1,.147.181c.113.189.223.378.332.565q.233.411.451.823c.41.776.776,1.56,1.1,2.347.24.587.459,1.178.655,1.769l.015.057c.053.289-.191.5-.581.48a1.277,1.277,0,0,1-.157-.019,1.244,1.244,0,0,1-.417-.172Z" transform="translate(-458.863 195.894)" fill="url(#linear-gradient-44)"/>
          <path id="Trazado_15963" data-name="Trazado 15963" d="M527.243-162.867c-.062.247-.376.359-.733.285a1.481,1.481,0,0,1-.159-.043c-.427-.151-.708-.5-.636-.787a15.845,15.845,0,0,0,.485-4.881l0-.057c-.015-.3.323-.485.748-.4a.969.969,0,0,1,.81.719l0,.057A16.756,16.756,0,0,1,527.243-162.867Z" transform="translate(-457.276 201.552)" fill="url(#linear-gradient-45)"/>
          <g id="Grupo_15825" data-name="Grupo 15825" transform="translate(43.912 4.354)">
            <path id="Trazado_15964" data-name="Trazado 15964" d="M514.732-181.079c-.408-.181-.648-.54-.529-.8a.613.613,0,0,1,.716-.238,1.368,1.368,0,0,1,.24.077A55.748,55.748,0,0,1,522-178.511c.378.23.521.593.321.821a.7.7,0,0,1-.659.14,1.218,1.218,0,0,1-.391-.153A53.362,53.362,0,0,0,514.732-181.079Z" transform="translate(-514.172 182.142)" fill="url(#linear-gradient-46)"/>
          </g>
          <path id="Trazado_15965" data-name="Trazado 15965" d="M515.445-181.407l-.074-.017c-1.146-.321-2.3-.6-3.474-.844q-1.808-.37-3.574-.6c-.028,0-.055-.008-.083-.015a.988.988,0,0,1-.789-.655c-.062-.319.23-.527.659-.474,1.222.159,2.472.368,3.733.627q1.837.379,3.633.88c.425.121.748.455.716.75S515.838-181.326,515.445-181.407Z" transform="translate(-477.835 184.385)" fill="url(#linear-gradient-47)"/>
          <path id="Trazado_15966" data-name="Trazado 15966" d="M501.908-182.291a1.175,1.175,0,0,1-.682-.415.411.411,0,0,1,.249-.7,36.2,36.2,0,0,1,6.616-.78,1.164,1.164,0,0,1,.24.021,1.088,1.088,0,0,1,.753.536c.153.321-.057.587-.457.6a34.688,34.688,0,0,0-6.329.744A.923.923,0,0,1,501.908-182.291Z" transform="translate(-484.967 184.19)" fill="url(#linear-gradient-48)"/>
          <g id="Grupo_15826" data-name="Grupo 15826" transform="translate(5.846 2.616)">
            <path id="Trazado_15967" data-name="Trazado 15967" d="M502.227-182.637c.3.289.287.636-.019.78a21.528,21.528,0,0,0-3.5,2.009c-.357.253-.691.514-1.027.784a.749.749,0,0,1-.617.1,1.248,1.248,0,0,1-.457-.2c-.353-.253-.451-.617-.21-.812.349-.287.7-.559,1.069-.823a22.345,22.345,0,0,1,3.659-2.1.855.855,0,0,1,.517-.036A1.224,1.224,0,0,1,502.227-182.637Z" transform="translate(-496.266 182.96)" fill="url(#linear-gradient-49)"/>
          </g>
          <g id="Grupo_15827" data-name="Grupo 15827" transform="translate(0.482 9.219)">
            <path id="Trazado_15968" data-name="Trazado 15968" d="M494.387-174.293c-.419-.147-.706-.5-.634-.787a15.546,15.546,0,0,1,1.407-3.544c.2-.347.4-.691.621-1.023a.654.654,0,0,1,.689-.185,1.23,1.23,0,0,1,.319.115c.4.2.591.57.427.814-.208.319-.4.648-.583.982a14.4,14.4,0,0,0-1.346,3.389c-.068.244-.383.357-.742.283A1.3,1.3,0,0,1,494.387-174.293Z" transform="translate(-493.743 179.853)" fill="url(#linear-gradient-50)"/>
          </g>
          <g id="Grupo_15828" data-name="Grupo 15828" transform="translate(0 18.683)">
            <path id="Trazado_15969" data-name="Trazado 15969" d="M495.066-174.663a19.885,19.885,0,0,0,.98,5.185c.1.319-.151.559-.563.54a1.03,1.03,0,0,1-.16-.021,1.044,1.044,0,0,1-.782-.6,20.672,20.672,0,0,1-1.025-5.421c-.015-.31.317-.491.748-.4S495.051-174.969,495.066-174.663Z" transform="translate(-493.516 175.402)" fill="url(#linear-gradient-51)"/>
          </g>
          <g id="Grupo_15829" data-name="Grupo 15829" transform="translate(52.747 48.892)">
            <path id="Trazado_15970" data-name="Trazado 15970" d="M524.75-161.169a1.207,1.207,0,0,1,.587.3c.3.289.293.638-.015.776a28.423,28.423,0,0,1-5.8,1.894.967.967,0,0,1-.383,0,1.16,1.16,0,0,1-.689-.419.409.409,0,0,1,.242-.7,26.7,26.7,0,0,0,5.548-1.807A.819.819,0,0,1,524.75-161.169Z" transform="translate(-518.328 161.192)" fill="url(#linear-gradient-52)"/>
          </g>
          <g id="Grupo_15830" data-name="Grupo 15830" transform="translate(3.473 29.366)">
            <path id="Trazado_15971" data-name="Trazado 15971" d="M496.628-169.874a34.014,34.014,0,0,0,3.739,5.1c.264.3.208.638-.13.746a.875.875,0,0,1-.453.013,1.172,1.172,0,0,1-.638-.359,35.345,35.345,0,0,1-3.916-5.338c-.193-.317-.03-.608.355-.657a1.009,1.009,0,0,1,.308.017A1.147,1.147,0,0,1,496.628-169.874Z" transform="translate(-495.15 170.376)" fill="url(#linear-gradient-53)"/>
          </g>
          <g id="Grupo_15831" data-name="Grupo 15831" transform="translate(39.278 51.123)">
            <path id="Trazado_15972" data-name="Trazado 15972" d="M519.741-159.744a1.081,1.081,0,0,1,.753.538c.147.317-.058.587-.464.6a44.361,44.361,0,0,1-5.4-.187c-.581-.053-1.169-.121-1.756-.2-.028,0-.055-.008-.083-.015a1,1,0,0,1-.8-.657c-.053-.317.238-.525.668-.47.561.072,1.114.134,1.675.189a43.064,43.064,0,0,0,5.162.179A1.141,1.141,0,0,1,519.741-159.744Z" transform="translate(-511.992 160.142)" fill="url(#linear-gradient-54)"/>
          </g>
          <g id="Grupo_15832" data-name="Grupo 15832" transform="translate(12.315 39.425)">
            <path id="Trazado_15973" data-name="Trazado 15973" d="M506.424-161.225c.378.23.521.6.323.821a.706.706,0,0,1-.661.14,1.244,1.244,0,0,1-.391-.155,52.036,52.036,0,0,1-6.11-4.339c-.327-.27-.372-.629-.091-.8a.786.786,0,0,1,.568-.066,1.255,1.255,0,0,1,.525.247A49.578,49.578,0,0,0,506.424-161.225Z" transform="translate(-499.309 165.645)" fill="url(#linear-gradient-55)"/>
          </g>
          <g id="Grupo_15833" data-name="Grupo 15833" transform="translate(24.973 47.122)">
            <path id="Trazado_15974" data-name="Trazado 15974" d="M513.195-159.46c.425.115.75.457.727.753-.032.279-.366.423-.759.342l-.072-.017c-.606-.172-1.212-.355-1.811-.544a55.746,55.746,0,0,1-5.446-2.034c-.417-.181-.657-.54-.54-.8a.621.621,0,0,1,.723-.238,1.442,1.442,0,0,1,.242.077,53.813,53.813,0,0,0,5.206,1.949C512.036-159.8,512.616-159.622,513.195-159.46Z" transform="translate(-505.263 162.024)" fill="url(#linear-gradient-56)"/>
          </g>
        </g>
        <g id="Grupo_15835" data-name="Grupo 15835" transform="translate(4.428 14.003)" style="mix-blend-mode: overlay;isolation: isolate">
          <path id="Trazado_15975" data-name="Trazado 15975" d="M490.59-181.793h-.008c-.223.48-.466.952-.674,1.439-.185.5-.406.978-.561,1.484s-.338,1-.449,1.518-.264,1.02-.338,1.543a14.967,14.967,0,0,0-.223,1.562,15.052,15.052,0,0,0-.113,1.573,14.483,14.483,0,0,0,0,1.577,14.385,14.385,0,0,0,.1,1.571,15.714,15.714,0,0,0,.2,1.569c.076.517.162,1.031.287,1.543s.217,1.025.368,1.528.268,1.014.446,1.509.317,1,.523,1.484.37.982.593,1.456.425.961.657,1.431l.719,1.4.208.408-.438.13h0l.23-.536.831,1.407.415.7c.142.232.27.474.423.7l.933,1.341.468.672c.159.221.3.455.474.663l1.025,1.276c.344.421.676.855,1.029,1.269l2.2,2.417-.357-.153h.208l.157.155,1.573,1.528c.529.5,1.033,1.035,1.586,1.516l1.673,1.42c.566.463,1.095.972,1.692,1.4l1.762,1.31c.6.425,1.154.9,1.781,1.28l1.841,1.2c.621.387,1.21.823,1.858,1.165l1.911,1.084c.644.347,1.258.748,1.926,1.052l1.971.965c.663.313,1.305.665,1.981.946l2.022.857c.676.281,1.344.585,2.026.846l4.141,1.465-.716.525v0l0-.731.712.208,3.559,1.04,3.61.852c.274.062.6.113.9.17l.918.166,1.839.334c1.22.164,2.443.306,3.663.461l.457.057,0,.44v.008l-.453-.5,3.716.232c.618.066,1.239.03,1.858.036l1.862-.006.929,0,.929-.072,1.854-.149a16.838,16.838,0,0,0,1.85-.2l1.835-.3a16.564,16.564,0,0,0,1.826-.351l1.8-.459a13.972,13.972,0,0,0,1.786-.519l1.752-.625.876-.313.842-.4,1.686-.789a13.629,13.629,0,0,0,1.618-.916l1.594-.967-.043.268,0,0-.111-.153.151-.115,2.037-1.56c.321-.285.623-.589.935-.88l.931-.886c.151-.151.279-.325.419-.487l.412-.491.833-.982c.247-.351.476-.714.714-1.071l.712-1.078-.663,1.108c-.225.368-.44.744-.674,1.105l-.791,1.025-.4.51c-.136.168-.259.349-.408.506l-.91.923c-.306.306-.6.625-.916.921l-2.011,1.648.043-.268,0,0,.123.162-.166.106-1.582,1.033a14.209,14.209,0,0,1-1.614.984l-1.688.855-.846.427-.882.336-1.771.67a14.436,14.436,0,0,1-1.8.565l-1.824.5a17.131,17.131,0,0,1-1.849.393l-1.862.342a17.881,17.881,0,0,1-1.875.242l-1.881.189-.942.089-.946.023-1.892.043c-.629.008-1.263.055-1.89,0l-3.778-.21-.453-.025,0-.474v-.008l.455.5c-1.25-.149-2.5-.287-3.752-.449l-1.839-.321-.92-.159c-.312-.057-.6-.1-.933-.17l-3.667-.842-3.622-1.033.716-.523v0l0,.772-.716-.249-4.211-1.46c-.7-.259-1.375-.563-2.062-.844L521-131.238c-.687-.283-1.337-.648-2.007-.969l-2-.993c-.674-.312-1.3-.725-1.947-1.082l-1.932-1.112c-.655-.351-1.252-.8-1.879-1.2l-1.862-1.227c-.631-.391-1.2-.876-1.8-1.312l-1.782-1.341c-.6-.434-1.137-.955-1.711-1.429l-1.69-1.454c-.557-.493-1.067-1.037-1.6-1.552l-1.588-1.567.359.153h-.232l-.134-.153-2.209-2.489c-.351-.429-.68-.876-1.023-1.314l-1.016-1.318c-.174-.215-.312-.457-.472-.685l-.461-.693-.923-1.386c-.153-.23-.279-.48-.419-.719l-.408-.725-.819-1.45-.232-.41.461-.128h0l-.23.538-.7-1.443c-.227-.485-.427-.982-.642-1.471s-.383-1-.576-1.5-.336-1.016-.5-1.524-.291-1.031-.425-1.548-.242-1.044-.338-1.569-.181-1.057-.242-1.592c-.081-.534-.121-1.063-.149-1.59-.045-.525-.057-1.074-.049-1.6a14.871,14.871,0,0,1,.055-1.6,14.775,14.775,0,0,1,.164-1.592,15.85,15.85,0,0,1,.276-1.575c.093-.525.253-1.035.393-1.548s.34-1.01.512-1.511.421-.978.627-1.465c.23-.478.491-.942.736-1.412h.008Z" transform="translate(-487.814 181.793)" fill="#dbdbdb"/>
        </g>
      </g>
    </g>
    <g id="Grupo_15842" data-name="Grupo 15842" transform="translate(745.34 -49.175)">
      <g id="Grupo_15841" data-name="Grupo 15841">
        <g id="Grupo_15840" data-name="Grupo 15840">
          <path id="Trazado_15976" data-name="Trazado 15976" d="M718.166,101.126c-1.173,4.288-4.9,6.137-8.338,4.165q-50.766-29.213-97.695-56.219c-3.04-1.752-4.877-6.554-4.109-10.757q6.929-37.8,14.365-78.385,7.72-42.121,16.04-87.518c.969-5.272,4.588-8.282,8.1-6.7L760.115-82.82c4.022,1.826,6.08,7.766,4.592,13.238q-12.829,47.044-24.645,90.39Q728.691,62.518,718.166,101.126Z" transform="translate(-607.85 134.708)" fill="url(#linear-gradient-57)"/>
          <path id="Trazado_15977" data-name="Trazado 15977" d="M669.884-69.755C662.648-83.711,661.7-90.2,661.7-90.2l-.011,0s-3.38,4.322-14.624,8.871c-8.833,3.574-15.8,6.458-17.5,14.611-1.456,7.049,2.628,15.5,9.16,18.969,4.607,2.44,9.394,2.666,12.324.066-1.8,4.69-4.632,11.571-8.036,12.151l11.371,6.095c-2.462-3.731-1.918-11.852-1.445-17.249,1.267,4.821,5.176,9.216,9.887,11.716,6.781,3.588,13.708.8,15.457-6.331C680.3-49.559,675.681-58.575,669.884-69.755Z" transform="translate(-583.729 184.809)"/>
          <path id="Trazado_15978" data-name="Trazado 15978" d="M631.289-116.049a16.283,16.283,0,0,1-1.707-4.245h0a7.855,7.855,0,0,1-2.908,2.06c-1.8.884-3.231,1.607-3.574,3.418a3.889,3.889,0,0,0,1.943,4.046,2.146,2.146,0,0,0,2.547-.213c-.353,1.065-.916,2.657-1.624,2.853l2.364,1.135c-.521-.787-.432-2.608-.353-3.805a3.867,3.867,0,0,0,2.054,2.415,2.1,2.1,0,0,0,3.061-1.671C633.442-111.873,632.488-113.738,631.289-116.049Z" transform="translate(-590.748 150.937)"/>
          <g id="Grupo_15838" data-name="Grupo 15838" transform="translate(34.318 13.58)">
            <path id="Trazado_15979" data-name="Trazado 15979" d="M632.167-118.762q-2.111-.982-4.218-1.964-.558.823-1.114,1.643a2.938,2.938,0,0,0-.478.967.876.876,0,0,0,.14.614,2.663,2.663,0,0,0,.965.759l-.064.342-3.406-1.594.064-.342a1.508,1.508,0,0,0,.944.049,4.256,4.256,0,0,0,1.242-1.384l5.818-8.648.283.13q.893,6.177,1.779,12.317a6.775,6.775,0,0,0,.514,2.03,2.326,2.326,0,0,0,.963.91l-.066.344-4.307-2.017.066-.342a1.435,1.435,0,0,0,.929.162.515.515,0,0,0,.327-.412,4.956,4.956,0,0,0-.072-1.441Q632.324-117.7,632.167-118.762Zm-.091-.793q-.437-2.988-.872-5.982-1.441,2.127-2.876,4.239Z" transform="translate(-623.993 128.32)"/>
          </g>
          <path id="Trazado_15980" data-name="Trazado 15980" d="M662.914-35.641a2.472,2.472,0,0,0-2.645-.153c.4-.912,1.038-2.273,1.779-2.355q-1.209-.67-2.417-1.337c.515.78.364,2.409.244,3.476a4.16,4.16,0,0,0-2.037-2.443c-1.4-.772-2.815-.281-3.172,1.095-.406,1.571.51,3.357,1.662,5.57A14.789,14.789,0,0,1,657.94-27.8l0,0a6.965,6.965,0,0,1,3.031-1.4c1.883-.525,3.4-.961,3.822-2.534A3.723,3.723,0,0,0,662.914-35.641Z" transform="translate(-555.249 241.915)"/>
          <g id="Grupo_15839" data-name="Grupo 15839" transform="translate(95.53 214.256)">
            <path id="Trazado_15981" data-name="Trazado 15981" d="M656.059-28.075l4.175,2.358q.587-.622,1.174-1.248a2.011,2.011,0,0,0,.517-.767.73.73,0,0,0-.123-.557,3.19,3.19,0,0,0-.957-.812l.077-.287q1.706.96,3.42,1.924l-.079.287a1.888,1.888,0,0,0-.963-.191,3.4,3.4,0,0,0-1.307,1.01l-6.069,6.478-.276-.157q-.73-5.4-1.46-10.829a5.8,5.8,0,0,0-.466-1.835,2.64,2.64,0,0,0-.933-.933l.075-.287q2.12,1.193,4.247,2.389l-.077.287a1.737,1.737,0,0,0-.925-.278.4.4,0,0,0-.34.308,3.849,3.849,0,0,0,.036,1.261Zm.072.7q.357,2.637.712,5.268,1.492-1.582,2.991-3.174Z" transform="translate(-652.787 33.923)"/>
          </g>
        </g>
      </g>
    </g>
    <g id="Grupo_15847" data-name="Grupo 15847" transform="translate(601.057 -210.678)">
      <g id="Grupo_15846" data-name="Grupo 15846">
        <g id="Grupo_15845" data-name="Grupo 15845">
          <path id="Trazado_15982" data-name="Trazado 15982" d="M683.855-22.209c1.033,4.943-.213,9.915-2.8,11.127L594.326,29.437c-3.187,1.486-6.8-1.745-8.055-7.239Q563.882-75.87,540.433-178.573c-1.346-5.9.41-11.293,3.9-12.037,33.831-7.143,65.339-13.8,94.752-20.009,2.815-.589,5.974,3.206,7.081,8.476Q665.4-110.3,683.855-22.209Z" transform="translate(-539.98 210.678)" fill="url(#linear-gradient-58)"/>
          <g id="Grupo_15843" data-name="Grupo 15843" transform="translate(9.273 31.551)">
            <path id="Trazado_15983" data-name="Trazado 15983" d="M550.632-186.485l-4.135.974q-.112,1.2-.223,2.4a4.527,4.527,0,0,0,.009,1.29.808.808,0,0,0,.361.51,1.7,1.7,0,0,0,1.08.077l.087.383-3.38.816-.089-.387a1.676,1.676,0,0,0,.782-.614,7.313,7.313,0,0,0,.434-2.245q.574-6.256,1.142-12.494l.276-.062q3.186,5.44,6.348,10.838a5.91,5.91,0,0,0,1.216,1.628,1.442,1.442,0,0,0,1.112.227l.087.381-4.171,1.006-.085-.383a1.35,1.35,0,0,0,.793-.485.851.851,0,0,0,.091-.633,5.479,5.479,0,0,0-.638-1.363Zm-.393-.716q-1.547-2.631-3.1-5.27-.287,3.064-.574,6.133Z" transform="translate(-544.342 195.837)"/>
          </g>
          <path id="Trazado_15984" data-name="Trazado 15984" d="M554.211-181.862a2.814,2.814,0,0,0-1.584,1.263,5.243,5.243,0,0,0,.425-3.618c-.459-2.032-2.077-3.372-3.623-2.993s-2.428,2.345-1.966,4.388a5.23,5.23,0,0,0,1.934,3.057,2.807,2.807,0,0,0-1.964-.387c-1.554.4-2.44,2.372-1.977,4.42l.006.015v.013a4.169,4.169,0,0,0,.221.7c.646,1.622,2.068,2.6,3.427,2.243,1.545-.4,2.423-2.375,1.962-4.409-.023-.106-.051-.206-.081-.306a2.317,2.317,0,0,0,.493.185c.246,1.571.82,5.621.387,6.7l2.49-.657c-.844-.738-2.066-4.622-2.517-6.137a2.339,2.339,0,0,0,.357-.412c.017.111.038.219.062.325.461,2.032,2.075,3.35,3.605,2.953,1.333-.349,2.16-1.89,2.041-3.627a4.766,4.766,0,0,0-.1-.716l0-.013,0-.015C557.343-180.919,555.74-182.247,554.211-181.862Z" transform="translate(-533.952 237.027)"/>
          <g id="Grupo_15844" data-name="Grupo 15844" transform="translate(128.345 176.248)">
            <path id="Trazado_15985" data-name="Trazado 15985" d="M604.392-121.265l3.185-1.407q.077-1.078.153-2.156a4.614,4.614,0,0,0-.017-1.146.589.589,0,0,0-.281-.408,1.137,1.137,0,0,0-.827.064l-.07-.33,2.577-1.125.07.33a1.638,1.638,0,0,0-.589.638,7.863,7.863,0,0,0-.315,2.039q-.392,5.615-.782,11.246l-.213.1-5.006-8.822a4.226,4.226,0,0,0-.971-1.307.964.964,0,0,0-.882-.064l-.07-.334q1.642-.714,3.276-1.429l.07.332a1.306,1.306,0,0,0-.617.536.894.894,0,0,0-.068.578,4.478,4.478,0,0,0,.508,1.142Zm.31.587,2.43,4.282q.2-2.768.4-5.532Z" transform="translate(-600.353 127.772)"/>
          </g>
          <path id="Trazado_15986" data-name="Trazado 15986" d="M608.817-131.375a3.816,3.816,0,0,0-.174-.6c-.506-1.375-1.607-2.109-2.655-1.673-1.2.5-1.869,2.341-1.5,4.116.019.091.043.179.066.266a1.366,1.366,0,0,0-.387-.117c-.2-1.382-.68-4.951-.346-5.952l-1.956.81c.672.587,1.658,3.954,2.022,5.264a2.6,2.6,0,0,0-.278.406c-.013-.1-.03-.191-.049-.285-.376-1.775-1.658-2.806-2.87-2.3-1.063.444-1.718,1.922-1.609,3.482a4.466,4.466,0,0,0,.087.64l0,.011,0,.015c.378,1.781,1.667,2.806,2.879,2.294A2.284,2.284,0,0,0,603.3-126.3a4.911,4.911,0,0,0-.312,3.3c.376,1.773,1.654,2.785,2.857,2.268s1.862-2.364,1.492-4.128a3.979,3.979,0,0,0-1.518-2.517,1.828,1.828,0,0,0,1.52.14c1.193-.508,1.856-2.345,1.488-4.107l-.006-.013Z" transform="translate(-473.452 295.51)"/>
          <path id="Trazado_15987" data-name="Trazado 15987" d="M598.98-150.617c-4.469,1.473-5.44,5.549-5.755,5.293s3.448-5.31,1.5-14.333c-1.718-7.917-7.7-12.97-13.431-11.261-5.808,1.745-9.12,9.745-7.341,17.845,2.017,9.139,7.5,11.333,7.326,11.786s-2.868-2.56-7.394-1.076c-5.916,1.954-9.294,10.16-7.487,18.3l.017.06.009.055a18.356,18.356,0,0,0,.848,2.755c2.5,6.339,7.921,9.794,13.036,7.938,5.767-2.107,8.982-10.2,7.251-18.14-.091-.41-.2-.806-.31-1.2a7.483,7.483,0,0,0,1.828.61c.938,6.174,3.114,22.024,1.533,26.433q4.585-1.732,9.107-3.438c-3.085-2.63-7.623-17.592-9.313-23.474a10.513,10.513,0,0,0,1.309-1.724c.064.423.134.85.227,1.271,1.726,7.9,7.64,12.634,13.161,10.629,4.777-1.745,7.694-7.978,7.232-14.681a19.143,19.143,0,0,0-.383-2.764l-.011-.053-.013-.057C610.262-147.588,604.5-152.426,598.98-150.617Z" transform="translate(-510.786 255.07)"/>
        </g>
      </g>
    </g>
    <g id="Grupo_15852" data-name="Grupo 15852" transform="translate(692.231 135.768)">
      <g id="Grupo_15851" data-name="Grupo 15851">
        <g id="Grupo_15850" data-name="Grupo 15850">
          <path id="Trazado_15988" data-name="Trazado 15988" d="M667.157,127.221c-3.773,4.539-9.02,7.12-11.7,5.765l-71.531-36.28c-2.092-1.065-.986-5.094,2.449-9Q645.662,20.238,700.584-42.256c3.057-3.478,7.464-5.887,9.868-5.391,25.2,5.2,52.294,10.8,81.517,16.835,3.023.627,2.825,4.343-.474,8.319Q731.976,49.175,667.157,127.221Z" transform="translate(-582.868 47.711)" fill="url(#linear-gradient-59)"/>
          <g id="Grupo_15848" data-name="Grupo 15848" transform="translate(113.341 7.592)">
            <path id="Trazado_15989" data-name="Trazado 15989" d="M643.783-37.969l-2.912-.665-1.69,1.235a5.778,5.778,0,0,0-.842.7.463.463,0,0,0-.138.383c.021.123.2.242.534.355l-.206.236-2.345-.548.2-.234a1.994,1.994,0,0,0,.818-.106,10.369,10.369,0,0,0,1.7-1.086q4.4-3.217,8.8-6.441l.2.043q-1.8,3.849-3.605,7.734a3.183,3.183,0,0,0-.4,1.259q.035.319.472.459l-.206.236q-1.5-.348-2.985-.7l.206-.234a1.482,1.482,0,0,0,.759-.03,1.179,1.179,0,0,0,.47-.321,4.109,4.109,0,0,0,.548-.935Zm.255-.506q.877-1.878,1.747-3.752-2.165,1.585-4.335,3.163Q642.742-38.767,644.038-38.475Z" transform="translate(-636.183 44.14)" fill="#eb0000"/>
          </g>
          <path id="Trazado_15990" data-name="Trazado 15990" d="M633.991-35.03l7.479-3.986q-.437,2.79-.876,5.61-3.773,2-7.53,4Q633.53-32.231,633.991-35.03Z" transform="translate(-526.354 57.501)" fill="#eb0000"/>
          <g id="Grupo_15849" data-name="Grupo 15849" transform="translate(76.089 157.047)">
            <path id="Trazado_15991" data-name="Trazado 15991" d="M623.709,31.218l3.234,1.524q.995-.714,1.988-1.431a5.8,5.8,0,0,0,.993-.838.686.686,0,0,0,.179-.519c-.019-.181-.217-.385-.591-.61l.245-.293q1.326.619,2.661,1.235l-.246.3a1.82,1.82,0,0,0-.944-.011,9.875,9.875,0,0,0-2,1.222l-10.355,7.475-.215-.1,4.586-10.306a4.814,4.814,0,0,0,.529-1.682.864.864,0,0,0-.489-.725l.242-.289,3.274,1.52-.244.291a1.33,1.33,0,0,0-.85-.1,1.123,1.123,0,0,0-.544.359,5.494,5.494,0,0,0-.67,1.21Q624.1,30.33,623.709,31.218Zm-.319.665q-1.106,2.5-2.221,5.019,2.545-1.83,5.091-3.663Z" transform="translate(-618.66 -26.163)" fill="#eb0000"/>
          </g>
          <path id="Trazado_15992" data-name="Trazado 15992" d="M632.935,27.941l-8.7,4.239q.616-3.8,1.227-7.57,4.308-2.108,8.631-4.228Z" transform="translate(-536.29 124.375)" fill="#eb0000"/>
          <path id="Trazado_15993" data-name="Trazado 15993" d="M626.753-1.951q17.162-8.871,34.618-17.889-1.932,13.8-3.954,28.225L621.7,26.5Q624.279,11.963,626.753-1.951Z" transform="translate(-539.152 79.091)" fill="#eb0000"/>
        </g>
      </g>
    </g>
    <g id="Grupo_15857" data-name="Grupo 15857" transform="translate(529.709 31.305)">
      <g id="Grupo_15856" data-name="Grupo 15856">
        <g id="Grupo_15855" data-name="Grupo 15855">
          <path id="Trazado_15994" data-name="Trazado 15994" d="M746.175-17.519c4.339,2.464,5.785,5.823,3.189,7.506q-40.657,26.336-86.993,56.344c-3.193,2.064-9.452,1.316-13.939-1.665Q609.889,19.039,574.5-4.487L509.139-47.946c-3.48-2.317-3.635-5.4-.385-6.9q47.554-21.894,89.8-41.346c2.715-1.246,7.687-.676,11.144,1.282l64.46,36.55Z" transform="translate(-506.418 96.85)" fill="url(#linear-gradient-60)"/>
          <path id="Trazado_15995" data-name="Trazado 15995" d="M521.276-70.3a4.914,4.914,0,0,0-4.031.251c-1.293.661-1.635,1.8-.14,2.793,1.356.895,3.576.976,6.012.993,2.483.019,3.984.125,4.583.17h0a12.308,12.308,0,0,1,.368-2.579c.321-1.35.5-2.581-.857-3.463a5.4,5.4,0,0,0-4.883-.355C521.078-71.931,520.468-70.991,521.276-70.3Z" transform="translate(-495.494 123.8)" fill="#eb0000"/>
          <g id="Grupo_15853" data-name="Grupo 15853" transform="translate(12.453 44.37)">
            <path id="Trazado_15996" data-name="Trazado 15996" d="M519.767-72.8q-1.942.922-3.895,1.843c.221.406.444.81.665,1.214a1.726,1.726,0,0,0,.493.612.994.994,0,0,0,.565.123,3.6,3.6,0,0,0,1.144-.325l.234.155-3.187,1.518-.234-.155q.539-.367.574-.555a2.08,2.08,0,0,0-.389-1.214q-1.744-3.16-3.463-6.276l.259-.121,10.572,2.985a8.01,8.01,0,0,0,1.879.364,3.124,3.124,0,0,0,1.239-.266l.234.153q-1.964.934-3.939,1.877l-.234-.153q.571-.3.638-.5a.274.274,0,0,0-.145-.332,5.043,5.043,0,0,0-1.175-.434ZM519.094-73l-5.147-1.45q.842,1.537,1.69,3.085Z" transform="translate(-512.276 75.979)" fill="#eb0000"/>
          </g>
          <path id="Trazado_15997" data-name="Trazado 15997" d="M611.834-59.48a4.248,4.248,0,0,0,3.837-.274c1.038-.689.991-1.864-.77-2.87-1.588-.9-3.744-.982-6.093-.995-2.4-.013-3.878-.117-4.469-.164h0a13.573,13.573,0,0,1,.387,2.636c.079,1.4.266,2.687,1.858,3.608a5.239,5.239,0,0,0,4.909.355C612.541-57.78,612.837-58.766,611.834-59.48Z" transform="translate(-396.171 134.08)" fill="#eb0000"/>
          <g id="Grupo_15854" data-name="Grupo 15854" transform="translate(216.702 75.405)">
            <path id="Trazado_15998" data-name="Trazado 15998" d="M615.008-55.912l3.191-2-1.08-1.284a2.856,2.856,0,0,0-.7-.644,1.126,1.126,0,0,0-.593-.125,2.529,2.529,0,0,0-1.006.347l-.281-.162,2.581-1.6.283.162c-.266.255-.389.449-.368.58a3.3,3.3,0,0,0,.806,1.276q2.829,3.345,5.7,6.737l-.213.136-11.567-3.191a8.855,8.855,0,0,0-1.985-.385,2.376,2.376,0,0,0-1.144.3l-.283-.164q1.645-1.02,3.28-2.037l.283.162c-.311.217-.464.4-.464.536a.416.416,0,0,0,.253.353,6.5,6.5,0,0,0,1.307.461Zm.738.219,5.617,1.543q-1.4-1.661-2.785-3.316Q617.164-56.583,615.746-55.693Z" transform="translate(-608.354 61.38)" fill="#eb0000"/>
          </g>
          <path id="Trazado_15999" data-name="Trazado 15999" d="M569.421-63.949c-5.319-2.572-13.257-1.669-18.4,1.188-5.655,3.131-6.686,8.584.821,13.344,6.886,4.354,17.373,4.722,28.835,4.777,11.637.055,18.742.557,21.58.763l0,0,0,0,0,0,0,0a60.622,60.622,0,0,1-.455-12.43c.342-6.356.138-12.06-6.684-16.1-7.453-4.4-16.612-4.371-22.3-1.628C567.5-71.478,565.3-67.148,569.421-63.949Z" transform="translate(-461.298 120.402)" fill="#eb0000"/>
        </g>
      </g>
    </g>
    <g id="Grupo_15861" data-name="Grupo 15861" transform="translate(787.872 -137.116)">
      <path id="Trazado_16000" data-name="Trazado 16000" d="M663.423-175.331a11.481,11.481,0,0,0-10.436,1.208l-19.065,14.377a14.535,14.535,0,0,0-5.079,9.756l-.982,27.855a9.73,9.73,0,0,0,5.357,8.548l28.148,12.428a11.476,11.476,0,0,0,10.436-1.207l19.065-14.377a14.524,14.524,0,0,0,5.077-9.756l.984-27.857a9.73,9.73,0,0,0-5.357-8.546Z" transform="translate(-627.857 176.075)" fill="url(#radial-gradient)"/>
      <path id="Trazado_16001" data-name="Trazado 16001" d="M634.18-155.251c-3.065-1.352-3.384-4.109-.71-6.127l15.5-11.688a11.476,11.476,0,0,1,10.436-1.21l24.065,10.625c3.066,1.352,3.384,4.109.708,6.129l-15.5,11.688a11.48,11.48,0,0,1-10.438,1.207Z" transform="translate(-623.581 177.264)" fill="url(#radial-gradient-2)"/>
      <g id="Grupo_15858" data-name="Grupo 15858" transform="translate(18.014 8.455)">
        <path id="Trazado_16002" data-name="Trazado 16002" d="M656.1-164.46c1.339-1.012.946-2.487-.886-3.3a6.32,6.32,0,0,0-5.744.368c-1.341,1.014-.944,2.489.887,3.3a6.312,6.312,0,0,0,5.744-.368" transform="translate(-622.433 176.407)" fill="url(#linear-gradient-61)"/>
        <path id="Trazado_16003" data-name="Trazado 16003" d="M651.764-166.375c1.342-1.012.946-2.487-.884-3.3a6.316,6.316,0,0,0-5.746.37c-1.341,1.012-.942,2.487.887,3.3a6.311,6.311,0,0,0,5.744-.368" transform="translate(-627.314 174.252)" fill="url(#linear-gradient-62)"/>
        <path id="Trazado_16004" data-name="Trazado 16004" d="M647.432-168.289c1.342-1.012.946-2.487-.886-3.3a6.3,6.3,0,0,0-5.744.368c-1.344,1.012-.948,2.487.884,3.3a6.31,6.31,0,0,0,5.746-.368" transform="translate(-632.195 172.098)" fill="url(#linear-gradient-63)"/>
        <path id="Trazado_16005" data-name="Trazado 16005" d="M652.425-161.69c1.344-1.012.948-2.487-.884-3.3a6.317,6.317,0,0,0-5.746.37c-1.342,1.012-.944,2.489.884,3.3a6.315,6.315,0,0,0,5.746-.37" transform="translate(-626.57 179.526)" fill="url(#linear-gradient-64)"/>
        <path id="Trazado_16006" data-name="Trazado 16006" d="M648.09-163.6c1.343-1.014.95-2.489-.882-3.3a6.308,6.308,0,0,0-5.748.37c-1.341,1.01-.944,2.487.886,3.3a6.318,6.318,0,0,0,5.744-.368" transform="translate(-631.45 177.371)" fill="url(#linear-gradient-65)"/>
        <path id="Trazado_16007" data-name="Trazado 16007" d="M643.757-165.516c1.342-1.012.948-2.487-.884-3.3a6.314,6.314,0,0,0-5.748.372c-1.339,1.01-.944,2.487.886,3.3a6.316,6.316,0,0,0,5.746-.368" transform="translate(-636.331 175.216)" fill="url(#linear-gradient-66)"/>
      </g>
      <path id="Trazado_16008" data-name="Trazado 16008" d="M634.156-128.038a9.734,9.734,0,0,1-5.357-8.548l.835-23.659c.119-3.348,2.723-4.981,5.787-3.629l24.307,10.734a9.73,9.73,0,0,1,5.357,8.548l-.835,23.659c-.117,3.348-2.721,4.981-5.787,3.627Z" transform="translate(-626.801 189.276)" fill="url(#radial-gradient-3)"/>
      <g id="Grupo_15859" data-name="Grupo 15859" transform="translate(16.437 44.576)">
        <path id="Trazado_16009" data-name="Trazado 16009" d="M642.994-149.363a6.231,6.231,0,0,0-3.565-5.4c-2.045-.9-3.763.053-3.837,2.137a6.239,6.239,0,0,0,3.569,5.4c2.045.9,3.761-.055,3.833-2.136" transform="translate(-635.589 155.107)" fill="url(#linear-gradient-67)"/>
      </g>
      <path id="Trazado_16010" data-name="Trazado 16010" d="M648.135-143.457a14.518,14.518,0,0,1,5.079-9.758l15.055-11.354c2.676-2.017,4.768-.929,4.649,2.419l-.806,22.84a14.529,14.529,0,0,1-5.081,9.756L651.977-118.2c-2.674,2.017-4.766.929-4.647-2.419Z" transform="translate(-605.939 187.888)" fill="url(#radial-gradient-4)"/>
      <g id="Grupo_15860" data-name="Grupo 15860" transform="translate(45.154 36.923)">
        <path id="Trazado_16011" data-name="Trazado 16011" d="M650.119-155.765c1.19-2.3,2.944-3.5,3.92-2.689s.8,3.321-.391,5.614-2.946,3.5-3.92,2.689-.8-3.323.391-5.614" transform="translate(-649.097 158.707)" fill="url(#linear-gradient-68)"/>
        <path id="Trazado_16012" data-name="Trazado 16012" d="M653.057-153.331c1.19-2.294,2.944-3.5,3.92-2.689s.8,3.321-.391,5.617-2.946,3.5-3.922,2.689-.8-3.325.393-5.617" transform="translate(-645.791 161.449)" fill="url(#linear-gradient-69)"/>
        <path id="Trazado_16013" data-name="Trazado 16013" d="M655.992-150.9c1.193-2.294,2.946-3.5,3.922-2.687s.8,3.321-.393,5.614-2.944,3.5-3.92,2.689-.8-3.325.391-5.617" transform="translate(-642.485 164.191)" fill="url(#linear-gradient-70)"/>
      </g>
    </g>
    <g id="Grupo_15865" data-name="Grupo 15865" transform="translate(603.177 208.533)">
      <path id="Trazado_16014" data-name="Trazado 16014" d="M588.926-11.47a14,14,0,0,0-8.706-1.9l-20.759,3.4a9.015,9.015,0,0,0-6.354,5.283L541.3,28.1a6.482,6.482,0,0,0,2.351,7.185L569.71,52.831a14,14,0,0,0,8.706,1.9l20.761-3.4a9.015,9.015,0,0,0,6.352-5.283l11.813-32.792a6.494,6.494,0,0,0-2.353-7.188Z" transform="translate(-540.977 13.483)" fill="url(#radial-gradient-5)"/>
      <path id="Trazado_16015" data-name="Trazado 16015" d="M558.73,27.8a6.488,6.488,0,0,1-2.351-7.185L567.119-9.2a3.563,3.563,0,0,1,5.6-1.833l23.44,15.782a6.486,6.486,0,0,1,2.351,7.185L587.77,41.751a3.563,3.563,0,0,1-5.6,1.832Z" transform="translate(-523.994 15.418)" fill="url(#radial-gradient-6)"/>
      <g id="Grupo_15862" data-name="Grupo 15862" transform="translate(37.713 9.972)">
        <path id="Trazado_16016" data-name="Trazado 16016" d="M568.089,15.355c1.824,1.229,3.954.408,4.76-1.832a5.6,5.6,0,0,0-1.839-6.278c-1.82-1.227-3.952-.4-4.758,1.835a5.6,5.6,0,0,0,1.837,6.276" transform="translate(-550.583 26.207)" fill="url(#linear-gradient-71)"/>
        <path id="Trazado_16017" data-name="Trazado 16017" d="M571.91,4.752c1.824,1.229,3.952.408,4.76-1.835a5.6,5.6,0,0,0-1.839-6.278c-1.82-1.225-3.952-.406-4.76,1.837a5.6,5.6,0,0,0,1.839,6.276" transform="translate(-546.284 14.268)" fill="url(#linear-gradient-72)"/>
        <path id="Trazado_16018" data-name="Trazado 16018" d="M560.866,10.494c1.826,1.227,3.954.406,4.76-1.835a5.6,5.6,0,0,0-1.839-6.278c-1.822-1.229-3.952-.4-4.76,1.835a5.6,5.6,0,0,0,1.839,6.278" transform="translate(-558.717 20.731)" fill="url(#linear-gradient-73)"/>
        <path id="Trazado_16019" data-name="Trazado 16019" d="M564.686-.11c1.824,1.227,3.952.406,4.76-1.835a5.6,5.6,0,0,0-1.839-6.278c-1.822-1.227-3.952-.408-4.76,1.835A5.6,5.6,0,0,0,564.686-.11" transform="translate(-554.417 8.792)" fill="url(#linear-gradient-74)"/>
      </g>
      <path id="Trazado_16020" data-name="Trazado 16020" d="M552.987-4.375a9.026,9.026,0,0,1,6.352-5.283l17.3-2.83c2.6-.423,4,1.256,3.106,3.737L569.12,20.738a9.014,9.014,0,0,1-6.354,5.283l-17.3,2.83c-2.6.427-4-1.254-3.106-3.735Z" transform="translate(-539.72 14.53)" fill="url(#radial-gradient-7)"/>
      <g id="Grupo_15863" data-name="Grupo 15863" transform="translate(7.098 5.626)">
        <path id="Trazado_16021" data-name="Trazado 16021" d="M551.251,3.129c1.62-.264,3.584-2.294,4.392-4.534s.149-3.841-1.471-3.576-3.586,2.3-4.392,4.534-.147,3.841,1.471,3.576" transform="translate(-538.553 17.397)" fill="url(#linear-gradient-75)"/>
        <path id="Trazado_16022" data-name="Trazado 16022" d="M552.549,7.909c1.62-.266,3.584-2.294,4.392-4.537S557.09-.469,555.47-.2s-3.586,2.3-4.392,4.534-.147,3.841,1.471,3.578" transform="translate(-537.09 22.775)" fill="url(#linear-gradient-76)"/>
        <path id="Trazado_16023" data-name="Trazado 16023" d="M556.37-2.7c1.618-.264,3.584-2.294,4.392-4.534s.149-3.841-1.471-3.576-3.584,2.292-4.392,4.534-.147,3.839,1.471,3.576" transform="translate(-532.79 10.837)" fill="url(#linear-gradient-77)"/>
        <path id="Trazado_16024" data-name="Trazado 16024" d="M546.131,8.956c1.622-.266,3.584-2.292,4.392-4.534s.149-3.839-1.469-3.576-3.586,2.3-4.394,4.534-.149,3.841,1.471,3.576" transform="translate(-544.316 23.958)" fill="url(#linear-gradient-78)"/>
        <path id="Trazado_16025" data-name="Trazado 16025" d="M549.952-1.647c1.62-.266,3.584-2.294,4.392-4.534s.149-3.841-1.471-3.578-3.584,2.294-4.392,4.537-.149,3.839,1.471,3.576" transform="translate(-540.016 12.018)" fill="url(#linear-gradient-79)"/>
      </g>
      <path id="Trazado_16026" data-name="Trazado 16026" d="M544.91,13.176c-2.188-1.473-1.847-3.025.753-3.452L562,7.052a14,14,0,0,1,8.705,1.9L593.059,24c2.188,1.471,1.847,3.023-.753,3.45l-16.341,2.672a14,14,0,0,1-8.706-1.9Z" transform="translate(-538.174 36.48)" fill="url(#radial-gradient-8)"/>
      <g id="Grupo_15864" data-name="Grupo 15864" transform="translate(24.013 46.214)">
        <path id="Trazado_16027" data-name="Trazado 16027" d="M559.781,18.747c-2.3-.138-4.356-.972-4.588-1.867s1.446-1.509,3.75-1.371,4.356.974,4.586,1.867-1.448,1.507-3.748,1.371" transform="translate(-549.009 -0.112)" fill="url(#linear-gradient-80)"/>
        <path id="Trazado_16028" data-name="Trazado 16028" d="M558.18,15.13c-2.3-.136-4.354-.972-4.583-1.867s1.443-1.507,3.748-1.371,4.356.974,4.588,1.869-1.452,1.507-3.752,1.369" transform="translate(-550.807 -4.184)" fill="url(#linear-gradient-81)"/>
        <path id="Trazado_16029" data-name="Trazado 16029" d="M556.882,11.515c-2.3-.138-4.356-.974-4.588-1.869s1.448-1.507,3.75-1.371,4.356.974,4.585,1.869-1.448,1.507-3.748,1.371" transform="translate(-552.273 -8.256)" fill="url(#linear-gradient-82)"/>
      </g>
    </g>
  </g>
</svg>
