<svg xmlns="http://www.w3.org/2000/svg" width="91.603" height="97.732" viewBox="0 0 91.603 97.732">
  <g id="shopping-bag" transform="translate(0)">
    <path id="Trazado_12747" data-name="Trazado 12747" d="M92,183.664a7.223,7.223,0,0,1-7.214,7.042H23.335a7.222,7.222,0,0,1-7.212-7.042,188.989,188.989,0,0,1,9.219-64.4,6.437,6.437,0,0,1,6.091-4.351h45.25a6.438,6.438,0,0,1,6.093,4.351,171.992,171.992,0,0,1,6.837,28.219A197.85,197.85,0,0,1,92,183.664Z" transform="translate(-16.055 -92.974)" fill="#db5c6e"/>
    <path id="Trazado_12748" data-name="Trazado 12748" d="M185.265,321.723a7.223,7.223,0,0,1-7.214,7.042H144.009a5.9,5.9,0,0,1-5.316-3.337,77.23,77.23,0,0,1-7.356-34.06,5.91,5.91,0,0,1,5.9-5.831h45.645A197.818,197.818,0,0,1,185.265,321.723Z" transform="translate(-109.325 -231.034)" fill="#d64553"/>
    <path id="Trazado_12749" data-name="Trazado 12749" d="M37.681,114.908c-1.993,0-3.765,1.746-4.41,4.351a255.622,255.622,0,0,0-6.673,64.4c.073,3.915,2.386,7.042,5.221,7.042H23.335a7.222,7.222,0,0,1-7.212-7.042,189,189,0,0,1,9.217-64.4,6.438,6.438,0,0,1,6.093-4.351Z" transform="translate(-16.055 -92.974)" fill="#d64553"/>
    <path id="Trazado_12750" data-name="Trazado 12750" d="M151.51,40.36a3.189,3.189,0,0,1-3.189-3.189V18.665a12.287,12.287,0,1,0-24.575,0V37.171a3.189,3.189,0,1,1-6.377,0V18.665a18.665,18.665,0,1,1,37.33,0V37.171A3.189,3.189,0,0,1,151.51,40.36Z" transform="translate(-98.03 0)" fill="#407093"/>
    <g id="Grupo_987" data-name="Grupo 987" transform="translate(19.339 0)">
      <path id="Trazado_12751" data-name="Trazado 12751" d="M237.59,64.2V45.7a12.268,12.268,0,0,0-13.915-12.176A12.3,12.3,0,0,1,234.335,45.7V64.2a3.184,3.184,0,0,0,4.816,2.739A3.184,3.184,0,0,1,237.59,64.2Z" transform="translate(-203.383 -27.033)" fill="#365e7d"/>
      <path id="Trazado_12752" data-name="Trazado 12752" d="M120.623,37.171V18.665A18.69,18.69,0,0,1,137.661.072C137.125.025,136.582,0,136.034,0a18.686,18.686,0,0,0-18.665,18.665V37.171a3.184,3.184,0,0,0,4.816,2.739A3.184,3.184,0,0,1,120.623,37.171Z" transform="translate(-117.369 0)" fill="#365e7d"/>
    </g>
    <path id="Trazado_12753" data-name="Trazado 12753" d="M169.453,325.431a77.266,77.266,0,0,1-7.356-34.06,5.909,5.909,0,0,1,5.9-5.83h51.905a5.909,5.909,0,0,1,5.9,5.83,77.27,77.27,0,0,1-7.356,34.06,5.9,5.9,0,0,1-5.316,3.337H174.769A5.9,5.9,0,0,1,169.453,325.431Z" transform="translate(-134.214 -231.037)" fill="#ffd064"/>
    <path id="Trazado_12754" data-name="Trazado 12754" d="M180.745,328.764h-5.977a5.9,5.9,0,0,1-5.316-3.337,77.292,77.292,0,0,1-7.356-34.06,5.91,5.91,0,0,1,5.9-5.831h8.086c-2.224,0-4.031,2.6-4.063,5.831a106.992,106.992,0,0,0,5.063,34.06C177.763,327.467,179.186,328.764,180.745,328.764Z" transform="translate(-134.212 -231.032)" fill="#ffc250"/>
    <path id="Trazado_12755" data-name="Trazado 12755" d="M278.794,340.046a13.083,13.083,0,0,1-13.068-13.068V320.37a2.561,2.561,0,0,1,5.122,0v6.607a7.945,7.945,0,0,0,15.891,0V320.37a2.561,2.561,0,0,1,5.122,0v6.607A13.083,13.083,0,0,1,278.794,340.046Z" transform="translate(-218.068 -257.145)" fill="#407093"/>
    <g id="Grupo_988" data-name="Grupo 988" transform="translate(47.658 60.665)">
      <path id="Trazado_12756" data-name="Trazado 12756" d="M341.66,334.924a7.955,7.955,0,0,0,7.945-7.945v-6.607a2.561,2.561,0,0,1,1.363-2.263,2.56,2.56,0,0,0-3.759,2.263v6.607a7.958,7.958,0,0,1-6.748,7.855A8,8,0,0,0,341.66,334.924Z" transform="translate(-326.196 -317.81)" fill="#365e7d"/>
      <path id="Trazado_12757" data-name="Trazado 12757" d="M268.121,326.979v-6.607a2.559,2.559,0,0,1,1.364-2.263,2.56,2.56,0,0,0-3.759,2.263v6.607a13.083,13.083,0,0,0,13.068,13.068c.4,0,.8-.021,1.2-.057A13.084,13.084,0,0,1,268.121,326.979Z" transform="translate(-265.726 -317.81)" fill="#365e7d"/>
    </g>
  </g>
</svg>
