<svg id="golosinas" xmlns="http://www.w3.org/2000/svg" width="91.64" height="254.236" viewBox="0 0 91.64 254.236">
  <path id="Trazado_11168" data-name="Trazado 11168" d="M0,0H6.32V210H0Z" transform="translate(42.66 44.24)" fill="#e1e7ec"/>
  <ellipse id="Elipse_41" data-name="Elipse 41" cx="23.987" cy="22.273" rx="23.987" ry="22.273" transform="translate(21.834 1.285)" fill="#e1e7ec"/>
  <path id="Trazado_11169" data-name="Trazado 11169" d="M12.792,15.8a13.756,13.756,0,0,0,2.279,7.9,13.759,13.759,0,0,1-7.2-3.974C2.313,14.165,5.481,10.945,0,5.408A23.609,23.609,0,0,1,15.071,0q1.152,0,2.277.109C17.309,7.9,12.792,7.938,12.792,15.8Z" transform="translate(30.749 0)" fill="#fc556a"/>
  <path id="Trazado_11170" data-name="Trazado 11170" d="M23.7,2.277a13.752,13.752,0,0,1-3.974,7.2c-5.562,5.562-8.781,2.394-14.319,7.874A23.609,23.609,0,0,1,0,2.277Q0,1.125.109,0C7.9.039,7.938,4.556,15.8,4.556A13.756,13.756,0,0,0,23.7,2.277Z" transform="translate(22.12 21.423)" fill="#ff2308"/>
  <path id="Trazado_11171" data-name="Trazado 11171" d="M17.348,18.292A23.609,23.609,0,0,1,2.277,23.7Q1.125,23.7,0,23.591C.04,15.8,4.556,15.762,4.556,7.9A13.756,13.756,0,0,0,2.277,0a13.748,13.748,0,0,1,7.2,3.976C15.036,9.535,11.868,12.755,17.348,18.292Z" transform="translate(43.543 23.7)" fill="#fc556a"/>
  <path id="Trazado_11172" data-name="Trazado 11172" d="M23.7,15.071q0,1.152-.109,2.277c-7.791-.04-7.829-4.556-15.691-4.556A13.756,13.756,0,0,0,0,15.071a13.784,13.784,0,0,1,3.976-7.2C9.535,2.313,12.754,5.481,18.292,0A23.61,23.61,0,0,1,23.7,15.071Z" transform="translate(45.82 8.629)" fill="#ff2308"/>
  <g id="Grupo_677" data-name="Grupo 677" transform="translate(22.12 0)">
    <path id="Trazado_11173" data-name="Trazado 11173" d="M.077,0C.051.026.026.051,0,.075" transform="translate(41.992 8.554)" fill="none"/>
    <path id="Trazado_11174" data-name="Trazado 11174" d="M.075.077C.051.051.026.026,0,0" transform="translate(8.554 5.331)" fill="none"/>
    <path id="Trazado_11175" data-name="Trazado 11175" d="M0,0C0,.035,0,.071,0,.109" transform="translate(21.421 47.291)" fill="none"/>
    <path id="Trazado_11176" data-name="Trazado 11176" d="M0,0C0,.038,0,.073,0,.109" transform="translate(25.977)" fill="none"/>
    <path id="Trazado_11177" data-name="Trazado 11177" d="M.109,0C.073,0,.038,0,0,0" transform="translate(0 21.421)" fill="none"/>
    <path id="Trazado_11178" data-name="Trazado 11178" d="M.109,0C.071,0,.035,0,0,0" transform="translate(47.291 25.977)" fill="none"/>
    <path id="Trazado_11179" data-name="Trazado 11179" d="M.077,0C.051.024.026.049,0,.075" transform="translate(5.331 38.771)" fill="none"/>
    <path id="Trazado_11180" data-name="Trazado 11180" d="M.075.077C.049.051.024.026,0,0" transform="translate(38.771 41.992)" fill="none"/>
  </g>
  <circle id="Elipse_42" data-name="Elipse 42" cx="5.14" cy="5.14" r="5.14" transform="translate(11.554 42.404)" fill="#58afe1"/>
  <circle id="Elipse_43" data-name="Elipse 43" cx="5.14" cy="5.14" r="5.14" transform="translate(76.66 18.418)" fill="#58afe1"/>
  <circle id="Elipse_44" data-name="Elipse 44" cx="5.14" cy="5.14" r="5.14" transform="translate(69.806 76.671)" fill="#ff2308"/>
  <circle id="Elipse_45" data-name="Elipse 45" cx="5.14" cy="5.14" r="5.14" transform="translate(4.7 4.712)" fill="#ff2308"/>
  <path id="Trazado_11181" data-name="Trazado 11181" d="M14.332,12.1l-1.118,1.116L12.1,14.332a3.158,3.158,0,0,1-4.467,0l-6.7-6.7a3.16,3.16,0,0,1,0-4.469L3.16.926a3.16,3.16,0,0,1,4.469,0l6.7,6.7A3.16,3.16,0,0,1,14.332,12.1Z" transform="translate(8.013 65.051)" fill="#58afe1"/>
  <path id="Trazado_11182" data-name="Trazado 11182" d="M10.055,3.351,5.585,5.587,3.352,10.056,0,0Z" transform="translate(21.227 78.265)" fill="#e9eef2"/>
  <path id="Trazado_11183" data-name="Trazado 11183" d="M10.055,10.057,0,6.7,4.469,4.469,6.7,0Z" transform="translate(0 57.038)" fill="#e9eef2"/>
  <rect id="Rectángulo_19749" data-name="Rectángulo 19749" width="15.8" height="9.48" rx="4.74" transform="translate(84.95 48.482) rotate(135)" fill="#ff2308"/>
  <path id="Trazado_11184" data-name="Trazado 11184" d="M0,3.352,10.055,0,6.7,10.055,4.469,5.586Z" transform="translate(60.358 56.305)" fill="#e9eef2"/>
  <path id="Trazado_11185" data-name="Trazado 11185" d="M3.352,0,0,10.055,10.055,6.7,5.586,4.469Z" transform="translate(81.585 35.078)" fill="#e9eef2"/>
</svg>
