<svg id="Grupo_15288" data-name="Grupo 15288" xmlns="http://www.w3.org/2000/svg" width="11.358" height="25.227" viewBox="0 0 11.358 25.227">
  <path id="Trazado_15547" data-name="Trazado 15547" d="M1239.8,705.453a5.576,5.576,0,0,1,.328,2.359c-.262,3.014-2.359,5.9-5.57,5.9-2.424,0-5.045-.918-5.176-3.669,0-4.259,2.621-7.011,7.011-7.011A4,4,0,0,1,1239.8,705.453Zm-2.752-16.971a3.741,3.741,0,0,1,3.342,2.359,4.973,4.973,0,0,1,.328,2.424c-.262,3.014-2.359,5.9-5.5,5.9-2.49,0-5.045-.917-5.242-3.735a13.049,13.049,0,0,1,.131-1.442C1230.887,690.186,1233.377,688.482,1237.046,688.482Z" transform="translate(-1229.38 -688.482)" fill="#723219"/>
</svg>
