<svg xmlns="http://www.w3.org/2000/svg" xmlns:xlink="http://www.w3.org/1999/xlink" width="114.496" height="110.89" viewBox="0 0 114.496 110.89">
  <defs>
    <linearGradient id="linear-gradient" x1="-1.43" y1="-0.037" x2="-0.782" y2="0.441" gradientUnits="objectBoundingBox">
      <stop offset="0" stop-color="#fff"/>
      <stop offset="0.49" stop-color="#fefafc"/>
      <stop offset="1" stop-color="#ea4c95"/>
    </linearGradient>
    <linearGradient id="linear-gradient-2" x1="-1.739" y1="-0.079" x2="-1.333" y2="0.217" xlink:href="#linear-gradient"/>
    <linearGradient id="linear-gradient-3" x1="-2.112" y1="-0.191" x2="-1.671" y2="0.233" xlink:href="#linear-gradient"/>
  </defs>
  <g id="Grupo_14634" data-name="Grupo 14634" transform="translate(-723.034 -2797.816)">
    <g id="Grupo_14777" data-name="Grupo 14777" transform="translate(382.904 2464.767)">
      <g id="Grupo_1445" data-name="Grupo 1445" transform="translate(343.711 342.312)">
        <g id="Grupo_1390" data-name="Grupo 1390" transform="translate(45.307 33.074)">
          <path id="Trazado_13606" data-name="Trazado 13606" d="M2552.325,1889.831c5.257,1.463,1.638-10.447-4.213-13.1l1.208,8.4Z" transform="translate(-2548.112 -1876.728)" fill="#fbc100"/>
        </g>
        <g id="Grupo_1391" data-name="Grupo 1391" transform="translate(45.307 33.074)" opacity="0.3">
          <path id="Trazado_13607" data-name="Trazado 13607" d="M2552.325,1889.831c5.257,1.463,1.638-10.447-4.213-13.1l1.208,8.4Z" transform="translate(-2548.112 -1876.728)" fill="#760153"/>
        </g>
        <g id="Grupo_1392" data-name="Grupo 1392" transform="translate(0.803 0.511)">
          <path id="Trazado_13608" data-name="Trazado 13608" d="M1287.625,986.109a3.126,3.126,0,0,1-2.885,2.975l-28.124,2.194a8.732,8.732,0,0,1-3.712-.52l-.007,0c-.1-.038-.2-.075-.294-.116l-3.669-1.517a2.564,2.564,0,0,1-1.583-2.448,232.29,232.29,0,0,0-5.19-56.408,2.564,2.564,0,0,1,.8-2.461l3.14-2.8,0,0,.327-.293a5.374,5.374,0,0,1,3.156-1.346l.45-.036,12.118-.946,3.9-.3,11.119-.867.949-.074a3.133,3.133,0,0,1,3.278,2.353A226.346,226.346,0,0,1,1287.625,986.109Z" transform="translate(-1242.103 -921.129)" fill="#955447"/>
        </g>
        <g id="Grupo_1393" data-name="Grupo 1393" transform="translate(27.242 13.996)">
          <path id="Trazado_13609" data-name="Trazado 13609" d="M2023.455,1335.478c.37,3.418.673,6.714.963,10.322l-2.859,1.352c-.092-2.137-.045-.932-.2-3.075a228.255,228.255,0,0,0-3.369-26.24l2.93-.232.028.138,8.894-.857.317-.025.059,0,.022.139h1.371l.939.8-1.878,1.86-8.742.614a.479.479,0,0,0-.439.556q.639,3.819,1.166,7.865l-2.406,3.22,2.788-.157c.006.038.008.075.014.113l8.091-.72,1.239-.068.1-.006.844-.046L2035,1332l-2.277,2-8.688.765A.642.642,0,0,0,2023.455,1335.478Z" transform="translate(-2017.991 -1316.856)" fill="#b68662"/>
        </g>
        <g id="Grupo_1394" data-name="Grupo 1394" transform="translate(4.803 4.161)" opacity="0.2">
          <path id="Trazado_13610" data-name="Trazado 13610" d="M1359.491,1028.481a1.3,1.3,0,0,1,.343-.225Z" transform="translate(-1359.491 -1028.256)" fill="#fff"/>
        </g>
        <g id="Grupo_1395" data-name="Grupo 1395" transform="translate(5.146 1.725)">
          <path id="Trazado_13611" data-name="Trazado 13611" d="M1391.353,970.574l-2.454,2.545-9.565.8a1.38,1.38,0,0,0-1.246,1.605q.548,3.309,1,6.672l-2.908,3.329a203.949,203.949,0,0,0-4.723-25.431,1.379,1.379,0,0,0-1.912-.906l1.591-1.043a5.9,5.9,0,0,1,2.01-.349l-.012-.058,9.116-.71.6-.036h.01l2.409-.148,1.521-.092.914.687-1.651,2.248-10.153.7a.734.734,0,0,0-.665.906q.838,3.486,1.564,7.115l-2.785,2.964,3.737-.278-.085-.241,10.662-.867.05.268h0l2.868-.284C1391.279,970.169,1391.316,970.371,1391.353,970.574Z" transform="translate(-1369.541 -956.756)" fill="#b68662"/>
        </g>
        <g id="Grupo_1396" data-name="Grupo 1396" transform="translate(26.845 14.936)" opacity="0.2">
          <path id="Trazado_13612" data-name="Trazado 13612" d="M2006.692,1344.813l-.239.25c-.038-.2-.076-.406-.112-.606Z" transform="translate(-2006.341 -1344.456)" fill="#fff"/>
        </g>
        <g id="Grupo_1397" data-name="Grupo 1397" transform="translate(17.851 1.766)" opacity="0.2">
          <path id="Trazado_13613" data-name="Trazado 13613" d="M1742.954,958.155h.034l-.6.036,3-.235.014.052Z" transform="translate(-1742.391 -957.956)" fill="#fff"/>
        </g>
        <g id="Grupo_1398" data-name="Grupo 1398" transform="translate(11.802 29.426)">
          <path id="Trazado_13614" data-name="Trazado 13614" d="M1568.58,1774.136a226.306,226.306,0,0,1,1,33.744c-.043.93-2.225,1.533-3.085,1.177l-.075.049a229.093,229.093,0,0,0-1.533-38.207l3.281-.378c.005.041.01.083.016.125l10.516-.937.584-.053h2.811c.007.06.014.12.02.18l-2.5,2.629-10.293.775A.811.811,0,0,0,1568.58,1774.136Z" transform="translate(-1564.892 -1769.656)" fill="#b68662"/>
        </g>
        <g id="Grupo_1399" data-name="Grupo 1399" transform="translate(29.011 29.426)" opacity="0.2">
          <path id="Trazado_13615" data-name="Trazado 13615" d="M2070.084,1769.656l-.173.18c-.006-.061-.013-.121-.021-.18Z" transform="translate(-2069.891 -1769.656)" fill="#fff"/>
        </g>
        <g id="Grupo_1400" data-name="Grupo 1400" transform="translate(34.034 0.567)" opacity="0.3">
          <path id="Trazado_13616" data-name="Trazado 13616" d="M2217.4,922.963c-.038,0-.073-.005-.112-.005l1.891-.124.618-.041a3.138,3.138,0,0,1,.644.017l-2.712.189h0c-.037-.008-.072-.012-.107-.016Q2217.512,922.968,2217.4,922.963Z" transform="translate(-2217.291 -922.784)" fill="#760153"/>
        </g>
        <g id="Grupo_1401" data-name="Grupo 1401" transform="translate(37.186 0.594)" opacity="0.3">
          <path id="Trazado_13617" data-name="Trazado 13617" d="M2310.81,923.87l-1.02-.313A3.086,3.086,0,0,1,2310.81,923.87Z" transform="translate(-2309.791 -923.556)" fill="#760153"/>
        </g>
        <g id="Grupo_1402" data-name="Grupo 1402" transform="translate(25.13 1.328)" opacity="0.3">
          <path id="Trazado_13618" data-name="Trazado 13618" d="M1976.9,1009.325c-.068,1.576-1.31,2.852-3.558,3l-17.353,1.354,15.2-1.2a3.125,3.125,0,0,0,2.883-2.975,228.241,228.241,0,0,0-1.242-34.572l2.278-2-1.675-.977-.844.046-.1.005c-.01-.082-.02-.164-.032-.246l-8.883.576-.017.322-.413.024-2.787.157,2.406-3.221.041-.054,8.45-.644a.776.776,0,0,0,.71-.883q-.531-3.765-1.185-7.455l1.878-1.86-.939-.8h-1.371l-.022-.139-.058,0a.01.01,0,0,1,0,0l-.316.03-8.894.857-.027-.138-2.93.232-.044,0,.038-.045,2.419-2.866-.005-.026,8.365-.673a.765.765,0,0,0,.686-.918c-.508-2.414-1.052-4.788-1.639-7.1l1.769-2.022a3.123,3.123,0,0,1,.99,1.6A226.356,226.356,0,0,1,1976.9,1009.325Z" transform="translate(-1955.991 -945.106)" fill="#760153"/>
        </g>
        <g id="Grupo_1403" data-name="Grupo 1403" transform="translate(27.198 14.936)" opacity="0.3">
          <path id="Trazado_13619" data-name="Trazado 13619" d="M2016.729,1344.456c0,.013,0,.027.007.041l-.044,0Z" transform="translate(-2016.691 -1344.456)" fill="#760153"/>
        </g>
        <g id="Grupo_1404" data-name="Grupo 1404" transform="translate(31.901 25.778)" opacity="0.3">
          <path id="Trazado_13620" data-name="Trazado 13620" d="M2154.738,1662.606l-.041.054-.006-.051Z" transform="translate(-2154.691 -1662.606)" fill="#760153"/>
        </g>
        <g id="Grupo_1405" data-name="Grupo 1405" transform="translate(14.518 70.735)" opacity="0.3">
          <path id="Trazado_13621" data-name="Trazado 13621" d="M1644.62,2981.909c.064,0,.105,0,.126,0-.029,0-.092,0-.155,0Z" transform="translate(-1644.591 -2981.906)" fill="#760153"/>
        </g>
        <g id="Grupo_1406" data-name="Grupo 1406" transform="translate(14.36 69.898)" opacity="0.3">
          <path id="Trazado_13622" data-name="Trazado 13622" d="M1650.711,2957.355l-10.583.84c-.047,0-.108,0-.187,0Z" transform="translate(-1639.941 -2957.355)" fill="#760153"/>
        </g>
        <g id="Grupo_1407" data-name="Grupo 1407" transform="translate(14.518 70.735)" opacity="0.3">
          <path id="Trazado_13623" data-name="Trazado 13623" d="M1644.62,2981.909c.064,0,.105,0,.126,0-.029,0-.092,0-.155,0Z" transform="translate(-1644.591 -2981.906)" fill="#760153"/>
        </g>
        <g id="Grupo_1408" data-name="Grupo 1408" transform="translate(14.36 69.898)" opacity="0.3">
          <path id="Trazado_13624" data-name="Trazado 13624" d="M1650.711,2957.355l-10.583.84c-.047,0-.108,0-.187,0Z" transform="translate(-1639.941 -2957.355)" fill="#760153"/>
        </g>
        <g id="Grupo_1409" data-name="Grupo 1409" transform="translate(21.807 0.594)">
          <path id="Trazado_13625" data-name="Trazado 13625" d="M1864.638,927.695s0,0,0,.006q.925,3.5,1.694,7.306l.005.026-2.42,2.866c-.723-3.8-1.541-7.509-2.448-11.085a3.128,3.128,0,0,0-2.98-2.36l3.881-.115.022.01,10.166-.792.048.024-1.891.124a1.109,1.109,0,0,1,.111.005c.073,0,.146.01.22.02a1.066,1.066,0,0,1,.106.016h0l2.711-.189,1.019.313a3.1,3.1,0,0,1,.626.42l-1.769,2.023-8.564.63A.608.608,0,0,0,1864.638,927.695Z" transform="translate(-1858.491 -923.556)" fill="#b68662"/>
        </g>
        <g id="Grupo_1410" data-name="Grupo 1410" transform="translate(38.205 0.907)" opacity="0.2">
          <path id="Trazado_13626" data-name="Trazado 13626" d="M2340.473,933l-.156.178a3.1,3.1,0,0,0-.626-.42Z" transform="translate(-2339.691 -932.756)" fill="#fff"/>
        </g>
        <g id="Grupo_1411" data-name="Grupo 1411" transform="translate(40.394 28.168)" opacity="0.2">
          <path id="Trazado_13627" data-name="Trazado 13627" d="M2405.281,1732.8l-1.34.073,1.233-.111.1-.009Z" transform="translate(-2403.94 -1732.756)" fill="#fff"/>
        </g>
        <g id="Grupo_1412" data-name="Grupo 1412" transform="translate(0.803 4.035)">
          <path id="Trazado_13628" data-name="Trazado 13628" d="M1254.635,1089.434a1.345,1.345,0,0,1-1.73,1.223l-.007,0c-.1-.038-.2-.075-.294-.116l-3.669-1.516a2.565,2.565,0,0,1-1.583-2.448,232.3,232.3,0,0,0-5.19-56.408,2.562,2.562,0,0,1,.8-2.46l3.14-2.8,0,0a1.38,1.38,0,0,1,2.254.681A226.056,226.056,0,0,1,1254.635,1089.434Z" transform="translate(-1242.103 -1024.552)" fill="#b68662"/>
        </g>
        <g id="Grupo_1413" data-name="Grupo 1413" transform="translate(21.509 1.491)" opacity="0.2">
          <path id="Trazado_13629" data-name="Trazado 13629" d="M1850.04,949.889l-.3.009C1849.842,949.889,1849.941,949.888,1850.04,949.889Z" transform="translate(-1849.741 -949.889)" fill="#fff"/>
        </g>
        <g id="Grupo_1414" data-name="Grupo 1414" transform="translate(5.853 44.529)">
          <path id="Trazado_13630" data-name="Trazado 13630" d="M1430.763,2233.829a3.127,3.127,0,0,1-2.885,2.975L1399.756,2239a8.555,8.555,0,0,1-1.707-.036,8.682,8.682,0,0,1-2.307-.6l-3.668-1.517a2.564,2.564,0,0,1-1.583-2.448c.164-5.084.147-10.084-.021-14.967q-.072-2.082-.178-4.134a7.6,7.6,0,0,1,2.808.768c2.586,6.1,5.77,7.955,10.508-1.278a3.647,3.647,0,0,1,.954-.989,5.588,5.588,0,0,1,4.834-.7,19,19,0,0,1,7.246,4.073c4.861,3.975,7.289,3.479,8.5,1.974a5.135,5.135,0,0,0,.9-1.885,9.143,9.143,0,0,0,.31-2.218s1.758-2.011,4.49,2.818c0,.1.007.2.008.295q.062,2.005.085,4C1430.985,2226.1,1430.929,2230.01,1430.763,2233.829Z" transform="translate(-1390.291 -2212.868)" fill="#57baeb"/>
        </g>
        <g id="Grupo_1415" data-name="Grupo 1415" transform="translate(4.98 35.598)" opacity="0.55">
          <path id="Trazado_13631" data-name="Trazado 13631" d="M1365.539,1962.157q.038.757.073,1.518-.3-6.6-.946-12.875a9.042,9.042,0,0,0,1.752,3.915q.335,3.782.554,7.689A7.8,7.8,0,0,0,1365.539,1962.157Z" transform="translate(-1364.667 -1950.8)" fill="#fff"/>
        </g>
        <g id="Grupo_1416" data-name="Grupo 1416" transform="translate(5.988 49.945)" opacity="0.55">
          <path id="Trazado_13632" data-name="Trazado 13632" d="M1396.339,2390.537l-.426-.174a2.568,2.568,0,0,1-1.583-2.449c.175-5.483.144-10.867-.063-16.113q.022.573.042,1.147h.015a1.664,1.664,0,0,1,1.48,1.606c.149,4.683.157,9.473,0,14.339A2.549,2.549,0,0,0,1396.339,2390.537Z" transform="translate(-1394.267 -2371.8)" fill="#fff"/>
        </g>
        <g id="Grupo_1417" data-name="Grupo 1417" transform="translate(0.802 0.511)" opacity="0.55">
          <path id="Trazado_13633" data-name="Trazado 13633" d="M1280.742,922.24a3.153,3.153,0,0,0-1.164-.128l-.949.073-11.119.867-3.906.305-12.117.946-.45.036a5.371,5.371,0,0,0-3.155,1.346l-.327.293,0,0-3.14,2.8a2.563,2.563,0,0,0-.8,2.46,228.188,228.188,0,0,1,3.767,22.7,3.759,3.759,0,0,1-1.46-.864v.021a227.935,227.935,0,0,0-3.782-22.84,2.567,2.567,0,0,1,.8-2.461l3.141-2.8h0l.327-.293a5.375,5.375,0,0,1,3.156-1.346l.449-.036,12.118-.946,3.9-.3,11.119-.867.949-.074A3.129,3.129,0,0,1,1280.742,922.24Z" transform="translate(-1242.079 -921.123)" fill="#fff"/>
        </g>
        <g id="Grupo_1418" data-name="Grupo 1418" transform="translate(0.292 0)">
          <path id="Trazado_13634" data-name="Trazado 13634" d="M1241.455,977.333a9.288,9.288,0,0,1-3.539-.7l-3.667-1.517a3.087,3.087,0,0,1-1.9-2.937,231.982,231.982,0,0,0-5.179-56.282,3.075,3.075,0,0,1,.957-2.951l3.471-3.1a5.91,5.91,0,0,1,3.456-1.474l28.54-2.227a3.634,3.634,0,0,1,3.814,2.736,226.128,226.128,0,0,1,6.235,62.765,3.639,3.639,0,0,1-3.354,3.462l-28.124,2.194C1241.929,977.323,1241.692,977.333,1241.455,977.333Zm22.427-70.174c-.068,0-.138,0-.207.008l-28.541,2.227a4.884,4.884,0,0,0-2.854,1.218l-3.471,3.1a2.053,2.053,0,0,0-.639,1.969,232.982,232.982,0,0,1,5.2,56.534,2.059,2.059,0,0,0,1.267,1.959l3.668,1.518a8.246,8.246,0,0,0,3.78.6l28.124-2.194a2.615,2.615,0,0,0,2.412-2.487,225.048,225.048,0,0,0-6.2-62.469A2.615,2.615,0,0,0,1263.882,907.159Zm6.369,67.443h0Z" transform="translate(-1227.101 -906.136)" fill="#541c27"/>
        </g>
        <g id="Grupo_1419" data-name="Grupo 1419" transform="translate(9.102 13.486)">
          <path id="Trazado_13635" data-name="Trazado 13635" d="M1486.148,1305.5a.512.512,0,0,1-.187-.988,5.888,5.888,0,0,1,1.691-.389l28.542-2.227a3.637,3.637,0,0,1,3.813,2.737.511.511,0,1,1-.991.251,2.618,2.618,0,0,0-2.743-1.969l-28.541,2.226a4.886,4.886,0,0,0-1.4.323A.522.522,0,0,1,1486.148,1305.5Z" transform="translate(-1485.637 -1301.88)" fill="#541c27"/>
        </g>
        <g id="Grupo_1420" data-name="Grupo 1420" transform="translate(11.293 27.648)">
          <path id="Trazado_13636" data-name="Trazado 13636" d="M1550.45,1721.037a.511.511,0,0,1-.172-.993,5.971,5.971,0,0,1,1.519-.325l28.54-2.226a3.639,3.639,0,0,1,3.814,2.736.511.511,0,0,1-.99.253,2.62,2.62,0,0,0-2.745-1.97l-28.538,2.227a4.876,4.876,0,0,0-1.254.269A.524.524,0,0,1,1550.45,1721.037Z" transform="translate(-1549.939 -1717.482)" fill="#541c27"/>
        </g>
        <g id="Grupo_1421" data-name="Grupo 1421" transform="translate(20.998 1.214)">
          <path id="Trazado_13637" data-name="Trazado 13637" d="M1844.722,988.942a.512.512,0,0,1-.511-.489c-.091-2.124-.215-4.28-.368-6.409a216.2,216.2,0,0,0-5.809-37.277,2.612,2.612,0,0,0-2.742-1.968.511.511,0,1,1-.08-1.019,3.632,3.632,0,0,1,3.813,2.735,217.4,217.4,0,0,1,5.838,37.456c.152,2.139.276,4.3.368,6.438a.51.51,0,0,1-.488.532Z" transform="translate(-1834.741 -941.769)" fill="#541c27"/>
        </g>
        <g id="Grupo_1422" data-name="Grupo 1422" transform="translate(18.413 1.963)" opacity="0.3">
          <path id="Trazado_13638" data-name="Trazado 13638" d="M1758.891,963.757h0Z" transform="translate(-1758.891 -963.756)" fill="#760153"/>
        </g>
        <g id="Grupo_1423" data-name="Grupo 1423" transform="translate(18.452 1.817)" opacity="0.3">
          <path id="Trazado_13639" data-name="Trazado 13639" d="M1762.455,959.456l-2.409.148-.005,0Z" transform="translate(-1760.041 -959.456)" fill="#760153"/>
        </g>
        <g id="Grupo_1424" data-name="Grupo 1424" transform="translate(22.388 1.725)" opacity="0.3">
          <path id="Trazado_13640" data-name="Trazado 13640" d="M1876.455,957.443l-.913-.687A2.9,2.9,0,0,1,1876.455,957.443Z" transform="translate(-1875.542 -956.756)" fill="#760153"/>
        </g>
        <g id="Grupo_1425" data-name="Grupo 1425" transform="translate(9.613 2.412)" opacity="0.3">
          <path id="Trazado_13641" data-name="Trazado 13641" d="M1504.377,990.557l-3.736.278,2.784-2.965,10.218-.744a.737.737,0,0,0,.667-.884q-.756-3.616-1.632-7.088l1.651-2.247a5.722,5.722,0,0,1,1.355,2.678c.818,3.1,1.545,6.393,2.189,9.846l-2.868.285c-.018-.091-.035-.179-.051-.268l-10.663.867Z" transform="translate(-1500.641 -976.906)" fill="#760153"/>
        </g>
        <g id="Grupo_1426" data-name="Grupo 1426" transform="translate(11.78 15.543)" opacity="0.3">
          <path id="Trazado_13642" data-name="Trazado 13642" d="M1578.662,1376.137l-.05-.373c.017.125.032.248.048.373l-10.046.555.09.176-1.16.135-3.282.377c-.007-.058-.014-.114-.022-.17l2.908-3.329,9.639-.811a1.382,1.382,0,0,0,1.25-1.578q-.486-3.379-1.074-6.693l2.454-2.545c.8,4.39,1.477,9.037,2.053,13.883Z" transform="translate(-1564.241 -1362.255)" fill="#760153"/>
        </g>
        <g id="Grupo_1427" data-name="Grupo 1427" transform="translate(26.53 29.606)" opacity="0.3">
          <path id="Trazado_13643" data-name="Trazado 13643" d="M2000.928,1788.639l-2.779,1.477c-.092-2.136-.044-.934-.2-3.076q-.338-4.739-.86-9.455l2.5-2.63C2000.112,1779.367,2000.552,1783.942,2000.928,1788.639Z" transform="translate(-1997.092 -1774.956)" fill="#760153"/>
        </g>
        <g id="Grupo_1428" data-name="Grupo 1428" transform="translate(11.612 30.499)" opacity="0.3">
          <path id="Trazado_13644" data-name="Trazado 13644" d="M1559.482,1801.327l-.191.022.168-.192C1559.468,1801.213,1559.475,1801.269,1559.482,1801.327Z" transform="translate(-1559.291 -1801.156)" fill="#760153"/>
        </g>
        <g id="Grupo_1429" data-name="Grupo 1429" transform="translate(26.152 29.052)" opacity="0.3">
          <path id="Trazado_13645" data-name="Trazado 13645" d="M1986.04,1759.079h0c-.015-.124-.031-.249-.048-.373Z" transform="translate(-1985.99 -1758.706)" fill="#760153"/>
        </g>
        <g id="Grupo_1430" data-name="Grupo 1430" transform="translate(4.292 3.523)">
          <path id="Trazado_13646" data-name="Trazado 13646" d="M1352.178,1076.706a1.854,1.854,0,0,1-.709-.14.511.511,0,1,1,.391-.945.833.833,0,0,0,1.15-.729,224.251,224.251,0,0,0-6.261-63.7.847.847,0,0,0-.586-.611.864.864,0,0,0-.833.183.511.511,0,1,1-.681-.763,1.89,1.89,0,0,1,3.089.937,225.32,225.32,0,0,1,6.293,64,1.856,1.856,0,0,1-1.854,1.766Z" transform="translate(-1344.479 -1009.521)" fill="#541c27"/>
        </g>
        <g id="Grupo_1431" data-name="Grupo 1431" transform="translate(0.511 35.748)">
          <path id="Trazado_13647" data-name="Trazado 13647" d="M1280.227,1969.525v0c-.212.19-.345.287-.345.287-2.986-5.886-4.938-3.653-4.938-3.653s.032,3.932-2.308,4.964c-1.418.624-3.708.186-7.4-2.835-9.8-8.007-13.034-2.385-13.034-2.385-4.739,9.232-7.922,7.377-10.508,1.277a8.739,8.739,0,0,0-7.2,0l2.376-5.622-3.323-1.619a8.957,8.957,0,0,1,4.484-4.735,7.992,7.992,0,0,0,8.114,6.633c7.109,0,9-3.245,17.68-.881a22.165,22.165,0,0,0,13.939-1.124h0a18.816,18.816,0,0,0,2.44-1.171l2.581,4.687A7.908,7.908,0,0,1,1280.227,1969.525Z" transform="translate(-1233.541 -1955.206)" fill="#fbc100"/>
        </g>
        <g id="Grupo_1432" data-name="Grupo 1432" transform="translate(0.511 35.748)" opacity="0.55">
          <path id="Trazado_13648" data-name="Trazado 13648" d="M1248.122,1971.566c-2.626,1.964-4.667-.222-6.432-4.385a8.739,8.739,0,0,0-7.2,0l2.376-5.622-3.323-1.619a8.957,8.957,0,0,1,4.484-4.735s.021.131.073.357a8.409,8.409,0,0,0-2.548,3.181.527.527,0,0,0,.254.683l2.01.98a1.021,1.021,0,0,1,.493,1.316l-2,4.73a9.157,9.157,0,0,1,4.9-.713,3.945,3.945,0,0,1,2.955,2.14C1245.334,1970.195,1246.626,1971.608,1248.122,1971.566Z" transform="translate(-1233.541 -1955.206)" fill="#fff"/>
        </g>
        <g id="Grupo_1433" data-name="Grupo 1433" transform="translate(22.099 43.801)" opacity="0.55">
          <path id="Trazado_13649" data-name="Trazado 13649" d="M1885.291,2198.883c-1.311,1.183-3.719,1.27-8.147-2.35-4.829-3.948-8.064-4.583-10.1-4.211,1.641-1.106,5.27-1.958,11.927,3.484C1881.844,2198.156,1883.868,2198.942,1885.291,2198.883Z" transform="translate(-1867.041 -2191.502)" fill="#fff"/>
        </g>
        <g id="Grupo_1434" data-name="Grupo 1434" transform="translate(0 35.238)">
          <path id="Trazado_13650" data-name="Trazado 13650" d="M1231.743,1958.324h-.1c-1.781-.064-3.32-1.733-4.836-5.244a8.34,8.34,0,0,0-6.581.081.512.512,0,0,1-.7-.657l2.187-5.177-2.887-1.407a.51.51,0,0,1-.257-.632,9.408,9.408,0,0,1,4.764-5.032.511.511,0,0,1,.707.393,7.43,7.43,0,0,0,7.608,6.2h.016a24.974,24.974,0,0,0,6.422-.917,19.377,19.377,0,0,1,11.378.053c8.373,2.278,15.907-2.193,15.982-2.239a.511.511,0,0,1,.529.874c-.322.2-7.988,4.744-16.779,2.351a18.325,18.325,0,0,0-10.868-.046,25.8,25.8,0,0,1-6.663.946h-.016a8.41,8.41,0,0,1-8.458-6.388,8.453,8.453,0,0,0-3.489,3.727l2.9,1.412a.511.511,0,0,1,.247.659l-1.913,4.529a8.889,8.889,0,0,1,6.5.438.511.511,0,0,1,.243.257c1.331,3.137,2.679,4.751,4.009,4.8,1.6.054,3.463-2,5.574-6.111l.011-.021a4.824,4.824,0,0,1,3.272-2.073c2.844-.522,6.386.931,10.529,4.318,3.055,2.5,5.454,3.442,6.936,2.733,1.941-.928,1.941-4.429,1.941-4.464a.512.512,0,0,1,.127-.34,1.948,1.948,0,0,1,1.663-.573c1.26.159,2.541,1.421,3.814,3.759a7.353,7.353,0,0,0,2.234-5.639.511.511,0,1,1,1.021-.041,8.318,8.318,0,0,1-3.112,6.9.512.512,0,0,1-.754-.185c-1.571-3.1-2.747-3.7-3.308-3.778a.97.97,0,0,0-.667.135c-.036.92-.318,4.093-2.516,5.146-1.892.907-4.592-.057-8.026-2.864-4.837-3.954-7.927-4.417-9.667-4.108a3.831,3.831,0,0,0-2.6,1.577C1235.856,1956.147,1233.757,1958.324,1231.743,1958.324Z" transform="translate(-1218.539 -1940.214)" fill="#541c27"/>
        </g>
        <g id="Grupo_1435" data-name="Grupo 1435" transform="translate(44.796 32.563)">
          <path id="Trazado_13651" data-name="Trazado 13651" d="M2538.647,1875.97a3.528,3.528,0,0,1-.951-.141.511.511,0,1,1,.273-.984c1.22.339,1.575-.21,1.736-.655.443-1.219-.044-3.612-1.216-5.957a11.711,11.711,0,0,0-5.081-5.533.511.511,0,1,1,.422-.931,12.721,12.721,0,0,1,5.573,6.007c1.329,2.66,1.813,5.251,1.263,6.763A2.026,2.026,0,0,1,2538.647,1875.97Z" transform="translate(-2533.108 -1861.723)" fill="#541c27"/>
        </g>
        <g id="Grupo_1436" data-name="Grupo 1436" transform="translate(26.152 29.052)" opacity="0.3">
          <path id="Trazado_13652" data-name="Trazado 13652" d="M1986.04,1759.079h0c-.015-.124-.031-.249-.048-.373Z" transform="translate(-1985.99 -1758.706)" fill="#760153"/>
        </g>
        <g id="Grupo_1437" data-name="Grupo 1437" transform="translate(25.615 29.426)" opacity="0.2">
          <path id="Trazado_13653" data-name="Trazado 13653" d="M1970.826,1769.656l-.585.053.006-.053Z" transform="translate(-1970.24 -1769.656)" fill="#fff"/>
        </g>
        <g id="Grupo_1438" data-name="Grupo 1438" transform="translate(4.643 25.832)" opacity="0.3">
          <path id="Trazado_13654" data-name="Trazado 13654" d="M1354.792,1670.842c3.4,3.051,6.031-1.777,6.511-6.636l1.955,16.549C1359.036,1680.437,1354.952,1678.511,1354.792,1670.842Z" transform="translate(-1354.792 -1664.206)" fill="#760153"/>
        </g>
        <g id="Grupo_1439" data-name="Grupo 1439" transform="translate(4.644 32.489)" opacity="0.3">
          <path id="Trazado_13655" data-name="Trazado 13655" d="M1355.153,1862.659a16.729,16.729,0,0,1-.336-3.109Q1354.993,1861.092,1355.153,1862.659Z" transform="translate(-1354.817 -1859.55)" fill="#760153"/>
        </g>
        <g id="Grupo_1440" data-name="Grupo 1440" transform="translate(39.086 39.206)" opacity="0.3">
          <path id="Trazado_13656" data-name="Trazado 13656" d="M2373.654,2067.518c.238-.642-.347.29-.347.29-2.985-5.887-4.938-3.655-4.938-3.655s.033,3.933-2.308,4.964l-.521-.156a11.467,11.467,0,0,0,.96-5.052c0-2.019,1.854-3.018,3.685-2.165a10.214,10.214,0,0,0,2.129,1.127c3.322.881.509-4.465-1.128-5.044a18.993,18.993,0,0,0,2.441-1.17l2.581,4.685A7.908,7.908,0,0,1,2373.654,2067.518Z" transform="translate(-2365.541 -2056.656)" fill="#541c27"/>
        </g>
        <g id="Grupo_1441" data-name="Grupo 1441" transform="translate(5.853 44.758)" opacity="0.3">
          <path id="Trazado_13657" data-name="Trazado 13657" d="M1430.763,2240.337a3.127,3.127,0,0,1-2.885,2.975l-28.123,2.2a8.7,8.7,0,0,1-1.707-.037l-.239-.073c11.931-.937,21.57-3.378,24.953-9.93a3.625,3.625,0,0,0-1.931-5.019,16.4,16.4,0,0,1-4.2-2.652c-9.8-8.007-13.034-2.385-13.034-2.385-4.738,9.233-7.921,7.377-10.507,1.279a7.585,7.585,0,0,0-2.624-.752q-.072-2.083-.178-4.135a7.649,7.649,0,0,1,2.808.768c2.586,6.1,5.77,7.955,10.508-1.278a3.657,3.657,0,0,1,.954-.99,20.127,20.127,0,0,1,4.834-.7,18.993,18.993,0,0,1,7.246,4.074c4.86,3.972,7.287,3.479,8.5,1.975h0a5.135,5.135,0,0,0,.9-1.885h0a9.2,9.2,0,0,0,.308-2.218s1.758-2.009,4.49,2.817c0,.1.007.2.008.3q.015.5.029,1,.038,1.5.056,3C1430.985,2232.612,1430.929,2236.518,1430.763,2240.337Z" transform="translate(-1390.291 -2219.605)" fill="#541c27"/>
        </g>
      </g>
      <g id="Grupo_1449" data-name="Grupo 1449" transform="translate(376.108 362.074)">
        <path id="Trazado_13658" data-name="Trazado 13658" d="M3.739,1.336A1.914,1.914,0,1,1,1.336.089,1.914,1.914,0,0,1,3.739,1.336Z" transform="translate(0.599 0) rotate(9)" fill="#291b22"/>
        <path id="Trazado_13659" data-name="Trazado 13659" d="M1.33.474a.681.681,0,1,1-.337-.4A.681.681,0,0,1,1.33.474Z" transform="translate(0.935 0.548) rotate(9)" fill="#f6f6f6"/>
      </g>
      <path id="Trazado_13660" data-name="Trazado 13660" d="M3.737,1.333A1.914,1.914,0,1,1,1.349.085,1.914,1.914,0,0,1,3.737,1.333Z" transform="translate(365.08 362.581) rotate(9)" fill="#291b22"/>
      <path id="Trazado_13661" data-name="Trazado 13661" d="M1.33.477A.681.681,0,1,1,.476.032.681.681,0,0,1,1.33.477Z" transform="translate(365.413 363.12) rotate(9)" fill="#f6f6f6"/>
      <path id="Trazado_13662" data-name="Trazado 13662" d="M3.533.522a1.442,1.442,0,1,1-2.75.869.4.4,0,1,0-.764.242A2.243,2.243,0,1,0,4.3.28a.4.4,0,1,0-.764.242Z" transform="translate(370.561 366.96) rotate(9)" fill="#291b22"/>
    </g>
    <g id="Recurso_1" data-name="Recurso 1" transform="matrix(0.616, 0.788, -0.788, 0.616, 799.619, 2797.808)">
      <g id="Capa_2" data-name="Capa 2" transform="translate(0 0)">
        <g id="Capa_1" data-name="Capa 1">
          <path id="Trazado_13568" data-name="Trazado 13568" d="M4.4,44.1l.174.312a29.309,29.309,0,0,0,10.4,10.572,30.553,30.553,0,0,0,43.457-13.72A27.955,27.955,0,0,0,59.689,37.9a29.077,29.077,0,0,0,1.238-10.358c-.035-.579-.093-1.192-.168-1.794h0a3.472,3.472,0,0,0,.793-2.135,11.434,11.434,0,0,0-1.082-5.029,12.933,12.933,0,0,0-.926-1.811l-.058-.1c-.989-1.574-2.315-2.355-2.529-2.1h0c-.052-.1-.116-.208-.179-.312a29.089,29.089,0,0,0-2.442-3.443,29.477,29.477,0,0,0-7.6-6.521A30.559,30.559,0,0,0,3.287,18.035,29.274,29.274,0,0,0,.863,32.577c-.671-.075-.961,1-.874,2.835h0A16.2,16.2,0,0,0,.2,37.2a.939.939,0,0,0,.041.324C.568,39.428,1.951,43.7,4.4,44.1Z" transform="translate(0.026 -0.01)" fill="#ea4c95"/>
          <path id="Trazado_13569" data-name="Trazado 13569" d="M.657,49.674.6,49.5.57,49.4h0a10.566,10.566,0,0,1-.347-1.736c-.486-2.893-.231-4.757.654-4.629,7.285,1.123,17.742.087,28.829-3.275,12.152-3.692,22.134-9.3,27.255-14.756.249-.26,1.6.579,2.592,2.2a15.657,15.657,0,0,1,1.314,2.8h0c.052.15.1.3.15.446v.069l.122.411h0c.579,2.043.631,4.1-.4,5.208C55.756,41.793,45.613,47.55,33.206,51.317c-11.052,3.356-21.491,4.4-28.777,3.293-1.69-.255-2.893-2.355-3.559-4.265v-.052c-.029-.075-.052-.15-.081-.231s-.035-.11-.058-.168A1.621,1.621,0,0,1,.657,49.674Z" transform="translate(0.024 -10.517)" fill="#e8318a"/>
          <path id="Trazado_13570" data-name="Trazado 13570" d="M61.322,31.478h0a15.392,15.392,0,0,0-1.314-2.8c-1-1.632-2.315-2.459-2.587-2.193C52.3,31.94,42.3,37.548,30.15,41.239c-11.081,3.368-21.543,4.4-28.823,3.281C.442,44.382.17,46.256.667,49.15a10.688,10.688,0,0,0,.353,1.707h0V50.81a.9.9,0,0,0-.075-.231C.922,50.5.9,50.463.887,50.405s-.046-.145-.064-.214a1.227,1.227,0,0,1-.052-.179l-.035-.1h0a10.688,10.688,0,0,1-.353-1.736c-.486-2.893-.226-4.762.654-4.629,7.285,1.123,17.742.087,28.829-3.275C42.012,36.593,52,30.991,57.121,25.535c.243-.266,1.591.579,2.587,2.193a14.952,14.952,0,0,1,1.314,2.806h0c.052.15.1.3.15.446v.069l.122.411Z" transform="translate(-0.045 -10.739)" fill="#ee77ab"/>
          <path id="Trazado_13571" data-name="Trazado 13571" d="M1.035,53.217,1,53.119H1c.677,1.91,1.869,3.993,3.553,4.253,7.285,1.105,17.718.064,28.771-3.293,12.412-3.767,22.568-9.53,27.573-15.091,1.03-1.157.966-3.188.4-5.208h0c.052.15.1.3.15.446v.069l.122.411h0c.579,2.043.631,4.1-.4,5.208-4.982,5.6-15.126,11.353-27.532,15.12-11.052,3.356-21.491,4.4-28.777,3.293-1.69-.255-2.893-2.355-3.559-4.265V54.01c-.029-.075-.052-.15-.081-.231s-.035-.11-.058-.168a1.68,1.68,0,0,1-.064-.22Z" transform="translate(-0.406 -14.233)" fill="#dd0a80"/>
          <path id="Trazado_13572" data-name="Trazado 13572" d="M25.761,53.477c4.5-1.62,3.755-6.672,10.63-22.921C42.38,16.333,45.795,13.5,44,9.511,41.235,3.4,29.233,1.485,20.606,4.818,8.454,9.505-.174,25.928,4.982,39.051,8.668,48.31,19.182,55.838,25.761,53.477Z" transform="translate(-1.443 -1.347)" opacity="0.2" fill="url(#linear-gradient)"/>
          <path id="Trazado_13573" data-name="Trazado 13573" d="M20.532,7.248c6.793-3.038,15.682-2.806,16.353-.069.393,1.591-9.01,4.629-15.358,20.155-6.55,16.035-.2,26.5-1.736,27.428C18.02,55.82,7.749,48.824,5.012,39.49,1.17,26.43,9.786,12.062,20.532,7.248Z" transform="translate(-1.705 -2.127)" opacity="0.15" fill="url(#linear-gradient-2)"/>
          <path id="Trazado_13574" data-name="Trazado 13574" d="M30.194,7.372c-.255-.839-6.637-.885-12.354,2.147A26.609,26.609,0,0,0,4.45,34.355c.712,8.338,5.821,14.964,6.683,14.628S8.24,42.219,9.114,33.359c1.123-11.226,8.824-18.343,9.7-19.13C24.483,9.125,30.449,8.205,30.194,7.372Z" transform="translate(-1.825 -2.899)" opacity="0.1" fill="url(#linear-gradient-3)"/>
          <path id="Trazado_13575" data-name="Trazado 13575" d="M19.723,13.263c1.516-.9,4.913-1.736,3.946-.741A50.221,50.221,0,0,0,14.8,22.631c-1.476,2.2-3.7,1.314-3.217-.168A22.5,22.5,0,0,1,19.723,13.263Z" transform="translate(-4.837 -5.087)" fill="#fff"/>
          <path id="Trazado_13576" data-name="Trazado 13576" d="M7.777,34.962c.353-.741,2.986-1.013,2.743-.509a29.239,29.239,0,0,0-3.1,13.465C7.389,53.109,4.235,42.363,7.777,34.962Z" transform="translate(-2.554 -14.409)" fill="#fff"/>
          <path id="Trazado_13577" data-name="Trazado 13577" d="M69.172,37.033C74.976,18.626,59.966,5.8,54.625,1a30.09,30.09,0,0,1,9.716,3.709,29.28,29.28,0,0,1,10.028,9.959l.185.312h0c.249-.266,1.591.579,2.592,2.2,1.632,2.685,2.893,7.094,1.215,8.975h0a29.239,29.239,0,0,1-2.315,15.514A30.379,30.379,0,0,1,57.374,58.287a30.894,30.894,0,0,1-15.624.752C49.024,57.234,63.369,55.434,69.172,37.033Z" transform="translate(-17.576 -0.422)" fill="#e2afc6" opacity="0.3"/>
          <path id="Trazado_13578" data-name="Trazado 13578" d="M51.2,102.3h-.15l.544-.15Z" transform="translate(-21.495 -43.041)" fill="#cdcccc" opacity="0.54"/>
          <path id="Trazado_13579" data-name="Trazado 13579" d="M73.277,42.063a29.182,29.182,0,0,0,2.315-15.514l.029-.029c1.7-1.881.422-6.29-1.215-8.975-1-1.638-2.315-2.465-2.592-2.2h0c-.064-.1-.122-.208-.179-.312A29.291,29.291,0,0,0,61.588,5.1,30.287,30.287,0,0,0,42.787.99C42.3.943,41.8.909,41.3.891a30.351,30.351,0,0,1,22.851,3.4,29.28,29.28,0,0,1,10.028,9.959l.185.312h0c.249-.266,1.591.579,2.592,2.2,1.632,2.685,2.893,7.094,1.215,8.975h0a29.239,29.239,0,0,1-2.315,15.514A30.379,30.379,0,0,1,57.184,57.866c-.434.139-.874.266-1.314.382A30.333,30.333,0,0,0,73.277,42.063Z" transform="translate(-17.387 -0.001)" fill="#e2afc6" opacity="0.8"/>
          <path id="Trazado_13580" data-name="Trazado 13580" d="M84.623,35.434a3.709,3.709,0,1,1-4.658-2.419A3.709,3.709,0,0,1,84.623,35.434Z" transform="translate(-32.587 -13.839)" fill="#6a2349"/>
          <path id="Trazado_13581" data-name="Trazado 13581" d="M81.354,35.4a1.319,1.319,0,1,1-.653-.773A1.319,1.319,0,0,1,81.354,35.4Z" transform="translate(-33.177 -14.529)" fill="#f6f6f6"/>
          <path id="Trazado_13582" data-name="Trazado 13582" d="M22.406,55.119A3.709,3.709,0,1,1,17.776,52.7,3.709,3.709,0,0,1,22.406,55.119Z" transform="translate(-6.373 -22.136)" fill="#6a2349"/>
          <path id="Trazado_13583" data-name="Trazado 13583" d="M19.123,55.068a1.319,1.319,0,1,1-1.655-.862A1.319,1.319,0,0,1,19.123,55.068Z" transform="translate(-6.956 -22.814)" fill="#f6f6f6"/>
          <path id="Trazado_13584" data-name="Trazado 13584" d="M52.014,50.514a2.795,2.795,0,1,1-5.33,1.684.777.777,0,0,0-1.481.469A4.348,4.348,0,0,0,53.5,50.045a.777.777,0,0,0-1.481.469Z" transform="translate(-19.016 -20.858)" fill="#6a2349"/>
        </g>
      </g>
    </g>
    <g id="Grupo_14627" data-name="Grupo 14627" transform="translate(698.177 2821.807)">
      <path id="Trazado_14833" data-name="Trazado 14833" d="M128.6,64.7a6.269,6.269,0,0,0-2-4.4l-.1-.1-.1-.1a5.369,5.369,0,0,0-3.3-1.2h-.4a6.155,6.155,0,0,0-2.7.9,4.559,4.559,0,0,0-2.2-.6h-.3a3.41,3.41,0,0,0-1.9.7,5.286,5.286,0,0,0-3-1.1h-.2a2.792,2.792,0,0,0-1.8.6,7.612,7.612,0,0,0-2.1-.3h-.4a7.577,7.577,0,0,0-4,1.5,3.846,3.846,0,0,0-1.9-.5h-.3a3.333,3.333,0,0,0-2.1.9l-.4.4-.4.3a5.546,5.546,0,0,0-3.4-1.4h-.2a3.721,3.721,0,0,0-2.5,1.2l-.1.2-.9-.6a5.537,5.537,0,0,0,.2-1.8v-.1a4.075,4.075,0,0,0-.5-1.8,14.368,14.368,0,0,0,4.8-2.6h0c.1-.1.4-.3.7-.6V55l.1.2c.9,3.2,2.9,4.1,4.1,4.3h.1a4.1,4.1,0,0,0,1.1.1c1.7,0,3.8-.7,6.6-2.3.6-.3,1.5-.9,2.9-1.8a3.423,3.423,0,0,0,1.8-2.3h0a3.345,3.345,0,0,0-.1-1.8l-.1-.3-.1-.2A6.271,6.271,0,0,0,112,49a9.464,9.464,0,0,0,1.5-3.3,7.48,7.48,0,0,0-1.1-5.5l-.1-.1h0a12.955,12.955,0,0,0,1.9-4,5.906,5.906,0,0,0-.8-4.5l-.1-.1-.1-.1a6.87,6.87,0,0,0-3.8-2.4,4.869,4.869,0,0,0-1.2-.1,8.163,8.163,0,0,0-5.3,2.4l-.1.1-.1.1a9.467,9.467,0,0,0-2.8,4.7v.2c0,.2-.1.3-.1.5a5.873,5.873,0,0,0-3.9-2.1h-.3a3.7,3.7,0,0,0-2.1.6A8.014,8.014,0,0,0,90,34.3h-.7A10.034,10.034,0,0,0,82.7,37a5.668,5.668,0,0,0-1-1.3l-.1-.1-.1-.6a6.481,6.481,0,0,0-4.2-1.8H77a3.733,3.733,0,0,0-2.3,1,7.653,7.653,0,0,0-3-.6h-.6a9.725,9.725,0,0,0-6.9,3.8,5.713,5.713,0,0,0-1.8-1.6l-.1-.1h-.1a7.091,7.091,0,0,0-3.2-.9,3.4,3.4,0,0,0-1,.1,3.839,3.839,0,0,0-2.5,1.8l-.2.3-.1.3c0,.1-.1.2-.4,1.5h0l-.1-.1-.1-.1a7.119,7.119,0,0,0-1.7-1.1h-.2a6.6,6.6,0,0,0-2.7-.6,3.4,3.4,0,0,0-1,.1,3.839,3.839,0,0,0-2.5,1.8V39l-.1.4c-1.9,7.1-2.3,8.7-2.4,9.1-.4,1.5-.7,2.7-.9,3.8a14.467,14.467,0,0,0-2.5-1h0c-.9-.2-2.5-.5-4.7-.9h0a1.884,1.884,0,0,1-.8-.2,4.207,4.207,0,0,1,.1-1.5v-.2a7.018,7.018,0,0,1,.7-2.2,2.761,2.761,0,0,0,.6.8l.3.3.3.2a4.9,4.9,0,0,0,2.5.8,3.194,3.194,0,0,0,1.4-.3l.2-.1.2-.1a2.431,2.431,0,0,0,.9-.7l.1-.1.1-.1a32.818,32.818,0,0,0,2.1-3.3,35.074,35.074,0,0,0,1.5-3.2v-.2c1.1-3.1,1.3-5.4.6-7.2l-.3-.1a5.144,5.144,0,0,0-2.6-2.8h-.2a8.525,8.525,0,0,0-3.5-.8,9.058,9.058,0,0,0-3.2.6,15.242,15.242,0,0,0-5.2,3.8h0c-.6.7-1.2,1.4-1.9,2.3a16.443,16.443,0,0,0-1.4,2.2c-.5.9-1.2,2.1-1.9,3.6h0c-1.8,4.2-2.1,7.6-1,10.3s3.6,4.7,7.4,5.8h0a11.8,11.8,0,0,0,2,.4c-.7.6-1.3,1.1-2,1.6a1.612,1.612,0,0,0-.7-.4l-.2-.1-.2-.1a5.547,5.547,0,0,0-1.7-.3,5.066,5.066,0,0,0-1.3.2l-.1.1-.1.1a4.7,4.7,0,0,0-1.2.9l-.1.1-.1.1a5.534,5.534,0,0,0-1,5.5c.7,1.7,2.2,2.8,4.5,3.4a5.537,5.537,0,0,0,1.8.2,7.843,7.843,0,0,0,3.3-.7,16.455,16.455,0,0,0,3.8-2.1h.2a19.032,19.032,0,0,0,3.8-3.3A13.853,13.853,0,0,0,46.1,60a5.421,5.421,0,0,0,2.5.6,6.151,6.151,0,0,0,1.3-.1h.2c.1,0,.3-.1.4-.1A6.363,6.363,0,0,0,53.6,58,5.209,5.209,0,0,0,57,59.3a2.769,2.769,0,0,0,.9-.1,5.881,5.881,0,0,0-1.6,4.2h0a5.813,5.813,0,0,0,1.5,3.4h0a7.915,7.915,0,0,0,5.9,2.4h.7a10.14,10.14,0,0,0,6-2.6,10.869,10.869,0,0,0-.1,1.8c.1,2.5,1.6,4.8,4.4,6.6h0c.1.1.2.1.3.2-.1,0-.1,0-.2.1l-.2-.2V75l-.2-.1A3.99,3.99,0,0,0,72,74h-.4a2.947,2.947,0,0,0-1.3.5l-.1.1H70A4.823,4.823,0,0,0,67.6,79a5.459,5.459,0,0,0,2.8,4.2,6.633,6.633,0,0,0,3.7,1h.6a32.209,32.209,0,0,0,3.5-.6h.2a25.031,25.031,0,0,0,3.8-1.5,10.933,10.933,0,0,0,3.2-2.6,6.753,6.753,0,0,0,1.4.2h.5a6.5,6.5,0,0,0,3.3-1.1,5.443,5.443,0,0,0,2.7.7h.1l.8.1.3-.2a8.812,8.812,0,0,0,4.8-2.9c.2.3.4.5.6.8l.1.1.1.1a5.3,5.3,0,0,0,3.7,1.5h.3a6.792,6.792,0,0,0,2.8-1c.1.1.2.1.3.2l-.9,2a4.934,4.934,0,0,0-.6,2.3,4.593,4.593,0,0,0,1.8,3.2l.1.1h.1a5.142,5.142,0,0,0,3.3,1.3h.2a3.591,3.591,0,0,0,2.4-1.1l.3-.3.2-.4c.1-.1.1-.3,1.2-2.8.7-1.6,1.3-2.9,1.7-3.9a7.719,7.719,0,0,0,1.5.2h.5c2.6-.2,4.9-1.7,6.8-4.6h0a15.741,15.741,0,0,0,1.8-3.7,13.063,13.063,0,0,0,.9-5.1ZM82.5,70.6c-.7-.4-1.7-.9-3-1.6h-.1c.1-.1.1-.3.2-.5l.1-.1v-.1a2.959,2.959,0,0,0,.3-.4V68l.3.3A3.582,3.582,0,0,0,83,69.8,1.374,1.374,0,0,0,82.5,70.6Z" fill="#e84a94"/>
      <g id="Grupo_14626" data-name="Grupo 14626">
        <g id="Grupo_14625" data-name="Grupo 14625">
          <g id="Grupo_14618" data-name="Grupo 14618">
            <path id="Trazado_14834" data-name="Trazado 14834" d="M110.9,33a4.307,4.307,0,0,0-2.1-1.4c-1.1-.2-2.4.3-3.8,1.6a6.857,6.857,0,0,0-2,3.2v.2a3.728,3.728,0,0,0,1.1,3.6c.6.5,1,.8,1.2.8h0c-.7.8-10.1,8.5-10.7,9a26.937,26.937,0,0,1-3.2,2.2h0c.3-.6.6-1.2,1-1.9,3.5-5.7,5.4-8.9,5.7-9.4a2.908,2.908,0,0,0,.5-1,3.01,3.01,0,0,0-.6-1.4c-.8-.9-1.5-1.4-2.1-1.4a.67.67,0,0,0-.7.4c-.6,1.1-1.1,1.7-1.2,2a3.3,3.3,0,0,0-1.1-1.7,5.351,5.351,0,0,0-2.8-1.1c-2.1-.2-4.2.9-6.2,3a32.5,32.5,0,0,0-2.5,3.4,27.107,27.107,0,0,0-1.8,4.1,14.251,14.251,0,0,1-1.1,1.2,21.023,21.023,0,0,1-3.4,3.1c0-.5,1.8-4.5,4.9-12a2.3,2.3,0,0,0,.3-.9c0-.4-.3-.8-.8-1.3a3.453,3.453,0,0,0-2.3-1.1.764.764,0,0,0-.5.2c-.1.2-.5,1.1-1.1,2.6v-.1a4.039,4.039,0,0,0-1.5-1.7,4.622,4.622,0,0,0-2.9-.6c-3,.2-5.6,2.8-7.7,7.7a21.768,21.768,0,0,0-1.2,4.3c-.5.7-.9,1.4-1.2,1.9a25.226,25.226,0,0,1-2.5,3.1h0c.1-.4.1-.9.2-1.4.3-1.1,1.2-4.9,3-11.5a1.826,1.826,0,0,0,.2-.9v-.1a2.284,2.284,0,0,0-1.3-1.3,3.155,3.155,0,0,0-2.1-.5.7.7,0,0,0-.5.4c0,.1-.4,1.6-1.1,4.2a32.936,32.936,0,0,1-1.7,3.9c-.7,1.5-1.7,3.3-2.8,5.2A16.838,16.838,0,0,1,50,55c0-.1.1-.5.2-1.3.3-1.1,1.2-4.7,2.8-10.8.2-.6.3-1,.2-1.2v-.1q0-.3-.6-.9a8.65,8.65,0,0,0-1-.7,3.1,3.1,0,0,0-1.8-.3,1,1,0,0,0-.5.4c-1.5,5.8-2.3,8.8-2.4,9.1-.9,3.1-1.2,5.1-1,6.2a2.666,2.666,0,0,0,.7,1.4,2.934,2.934,0,0,0,2.6.8.774.774,0,0,1,.3-.1c.6-.1,1.6-1.1,2.9-2.9.5-.7,1.3-1.8,2.3-3.5a11.39,11.39,0,0,0-.2,3h0a6.89,6.89,0,0,0,.3.8c.7,1.1,1.6,1.6,2.6,1.3,1.2-.3,2.6-1.5,4.3-3.7a5.547,5.547,0,0,0,.6-.8,4.208,4.208,0,0,0,1,2,3.312,3.312,0,0,0,2.6,1,4.359,4.359,0,0,0,1.7-.6,12.381,12.381,0,0,0,2.2-1.6L68.4,56c-.7.5-1.7,1.1-2.9,1.8-1.8,1-3.2,1.8-4.1,2.4a3.588,3.588,0,0,0-2,3v.1a2.83,2.83,0,0,0,.7,1.6,5.224,5.224,0,0,0,4.2,1.5,7.216,7.216,0,0,0,5.1-2.7A6.9,6.9,0,0,0,70.5,62c.3-.7,1.3-3,2.9-6.8,0,0,.4-.3,1-.7,1-.7,2.2-1.8,3.7-3.1a8.175,8.175,0,0,1,.9-.8,4.539,4.539,0,0,0,.8,2.3,3.214,3.214,0,0,0,2.3,1.3,4.958,4.958,0,0,0,2.9-.9,14.475,14.475,0,0,0,2.3-1.5h0v.1a2.769,2.769,0,0,0,.1.9c.4,1.3,1.1,1.9,2.1,2,1.2.1,2.9-.7,5.1-2.3.4-.3,10.9-8.8,12.3-10.3a2.092,2.092,0,0,1,.6.4,6.417,6.417,0,0,1-.7,1.6c-.5.7-1.5,2-3.1,4-2.1,2.5-3.3,4.4-3.6,5.5a1.7,1.7,0,0,0,0,1,2.637,2.637,0,0,0,1.8,2.2h.1c1.1.2,3-.4,5.7-1.9.5-.3,1.4-.9,2.7-1.7.3-.2.5-.3.5-.4v-.1a.367.367,0,0,0-.1-.3c-.3-.5-.5-.8-.8-.9h-.2c-.8.5-1.5,1-2.2,1.4a21.693,21.693,0,0,1-3.7,1.9c.1-.2.3-.4.5-.7.5-.6,1.5-1.9,3-3.8,1.9-2.2,2.9-3.8,3.2-5.1a4.524,4.524,0,0,0-.8-3.4,6.94,6.94,0,0,0-1.4-1.5,13.972,13.972,0,0,0,2.8-4.8A3.568,3.568,0,0,0,110.9,33ZM66.1,60.6c-.5.6-.9,1.1-1.2,1.2A6.078,6.078,0,0,1,62,63.1h-.1a1.268,1.268,0,0,1-.6-.1,5.429,5.429,0,0,1,1.8-2c.8-.6,2.2-1.3,4.1-2.4h0A6.784,6.784,0,0,1,66.1,60.6Zm6.7-15a14.359,14.359,0,0,1-3.1,4.6h0a15.373,15.373,0,0,1-3.5,2.7,1.268,1.268,0,0,1-.1-.6,9.82,9.82,0,0,1,.5-3.4,17.313,17.313,0,0,1,2-4.8,12.169,12.169,0,0,1,1.6-2.3,5.676,5.676,0,0,1,3.3-2.1H74a4.592,4.592,0,0,0,1,.1.6.6,0,0,0,.4-.1h0Zm15.7,2.8c-.7.6-1.5,1.2-2.2,1.7a13.616,13.616,0,0,1-3.9,2.2v-.6a9.229,9.229,0,0,1,.7-2.6,24.15,24.15,0,0,1,1.1-2.5A15.86,15.86,0,0,1,86,43.9c.4-.5.9-1,1.3-1.5,1.6-1.5,3.1-2.2,4.2-2.1h.1a.6.6,0,0,1,.4.1,4.177,4.177,0,0,0,.9.3h.2c-.8,1.3-1.2,2-1.2,2C90.1,45.7,88.9,47.6,88.5,48.4Zm20.4-11.9a30.955,30.955,0,0,1-1.8,2.6h0l-.8-.5c0-.1.1-.3.4-.7a10.9,10.9,0,0,1,1.1-1.3,4.107,4.107,0,0,1,1.7-1.1A8.8,8.8,0,0,0,108.9,36.5Z" fill="#fff"/>
          </g>
          <g id="Grupo_14619" data-name="Grupo 14619">
            <path id="Trazado_14835" data-name="Trazado 14835" d="M43.5,56.8c-.5-1.2-1.7-2.1-3.7-2.6-.9-.2-2.4-.5-4.5-.8a10.548,10.548,0,0,1-1.9-.5,2.19,2.19,0,0,1-1.3-1.2,6.583,6.583,0,0,1-.2-3.5,16.385,16.385,0,0,1,1-3.5q1.05-2.25,1.5-3a15.637,15.637,0,0,1,1.7-2.5c1.8-2.4,3.4-3.8,4.8-4.4a1.826,1.826,0,0,1,.9-.2,3.678,3.678,0,0,1,0,2.1c-.1.5-.2,1.1-.4,1.8a11.22,11.22,0,0,1-1,2.4c-.7,1.2-1.3,2.3-2,3.3-.2.2-.3.4-.2.6l.2.2a1.523,1.523,0,0,0,1.2.3.1.1,0,0,0,.1-.1c.5-.7,1.1-1.7,1.9-3A27.076,27.076,0,0,0,43,39.3c.8-2.3,1.1-4,.6-5.1l-.1-.2a2.353,2.353,0,0,0-1.3-1.3,5.342,5.342,0,0,0-4.3-.1,11.615,11.615,0,0,0-4.1,3.1c-.5.6-1.1,1.3-1.7,2a21.414,21.414,0,0,0-1.3,1.9,23.755,23.755,0,0,0-1.7,3.3c-1.4,3.4-1.8,6.1-1,8.1.7,1.8,2.5,3.2,5.5,4,1.2.3,2.8.6,4.7.9.8.2,1.2.3,1.2.4a2.534,2.534,0,0,1-.4,1.7,12.417,12.417,0,0,1-1.9,2.2A18.48,18.48,0,0,1,31.6,64a2.344,2.344,0,0,1-1.1.2h0a2.108,2.108,0,0,1,.5-1.1.914.914,0,0,0,.3-.5v-.1a1.082,1.082,0,0,0-.5-.4c-.4-.1-.7-.2-.9-.1-.1,0-.2.1-.3.2a2.654,2.654,0,0,0-.6,2.6,3.242,3.242,0,0,0,2.5,1.6,5.356,5.356,0,0,0,3.2-.4A29.192,29.192,0,0,0,38,64.2a29.873,29.873,0,0,0,3.4-2.8c1.8-2,2.5-3.5,2-4.7Z" fill="#fff"/>
          </g>
          <g id="Grupo_14624" data-name="Grupo 14624">
            <g id="Grupo_14623" data-name="Grupo 14623">
              <g id="Grupo_14620" data-name="Grupo 14620">
                <path id="Trazado_14836" data-name="Trazado 14836" d="M86.3,62.1a15.793,15.793,0,0,1-1.4,1.6c-.8.8-1.6,1.4-2.3,2-.2.1-.3.2-.3.4a.31.31,0,0,0,.1.2,1.458,1.458,0,0,0,.8.5h.1A22.17,22.17,0,0,0,85.5,65c.4-.4,1-1,1.7-1.8,1.2-1.5,1.8-2.7,1.7-3.7v-.1a1.936,1.936,0,0,0-.6-1.3A3.95,3.95,0,0,0,85.1,57a10.064,10.064,0,0,0-3.8,1.3,16.288,16.288,0,0,0-1.7,1.1,17.1,17.1,0,0,0-1.4,1.1c-.5.4-1.2,1.1-2.1,2-1.9,2.2-2.8,4.1-2.7,5.8.1,1.6,1.1,3,3.1,4.4q1.2.75,3.3,1.8c.5.3.8.5.8.6a1.91,1.91,0,0,1-.7,1.2,13.7,13.7,0,0,1-7,2.7,2.22,2.22,0,0,1-.9-.1h0a1.874,1.874,0,0,1,.6-.7q.3-.15.3-.3v-.1c0-.1-.1-.2-.2-.4-.4-.3-.6-.4-.7-.4a.367.367,0,0,0-.3.1,2.02,2.02,0,0,0-1.1,1.8c0,.6.5,1.2,1.4,1.8a3.889,3.889,0,0,0,2.5.5,11.753,11.753,0,0,0,2.9-.5,14.846,14.846,0,0,0,3.2-1.3q2.7-1.5,2.7-3v-.1a4.276,4.276,0,0,0-2.1-2.9A35.927,35.927,0,0,0,78,71.7a5.67,5.67,0,0,1-1.3-.8,1.425,1.425,0,0,1-.6-1.2,5.646,5.646,0,0,1,.7-2.6,12.07,12.07,0,0,1,1.6-2.4c.9-1,1.5-1.6,1.8-1.9a13.933,13.933,0,0,1,1.9-1.5,10.77,10.77,0,0,1,4.7-2.1c.3,0,.6,0,.7.1a4.662,4.662,0,0,1-.5,1.6A3.97,3.97,0,0,1,86.3,62.1Z" fill="#fff"/>
              </g>
              <g id="Grupo_14621" data-name="Grupo 14621">
                <path id="Trazado_14837" data-name="Trazado 14837" d="M102.9,64.2h0a.52.52,0,0,0-.2-.4,1,1,0,0,0-1-.5h-.1c-.1,0-.1,0-.2.1-.6,1.4-1.3,2.7-2,4.2a34.538,34.538,0,0,1-2.5,4.1,9.365,9.365,0,0,1-1.4,1.6,4.86,4.86,0,0,1-1.4,1.1v-.2a7.673,7.673,0,0,1,.6-2.3c.6-1.4,1.4-3.4,2.6-6,.2-.4.3-.6.2-.7a1.865,1.865,0,0,0-.5-1,2.06,2.06,0,0,0-1.7-.8.52.52,0,0,0-.4.2c-.6,1.4-1.1,2.5-1.4,3.2a15.777,15.777,0,0,0-.7,1.6c-1.9,3.6-3.7,5.9-5.4,6.8v-.1a8.144,8.144,0,0,1,.2-.9q.3-.9,3.6-8.1a2.707,2.707,0,0,0,.3-.8,1.865,1.865,0,0,0-.5-1,2.4,2.4,0,0,0-1.7-.8.52.52,0,0,0-.4.2c-.1.2-1.1,2.5-3,6.8a12.31,12.31,0,0,0-1.4,4.3,1.816,1.816,0,0,0,.6,1.4,2.934,2.934,0,0,0,1.7.6H87a4.653,4.653,0,0,0,2.9-1.4,7.32,7.32,0,0,0,.9-.9,1.9,1.9,0,0,0,.8,1.5,3.686,3.686,0,0,0,1.7.5h.3c1.6-.1,3.3-1.4,5-3.9a40.378,40.378,0,0,0,2.6-4.5C102,66.2,102.6,65,102.9,64.2Z" fill="#fff"/>
              </g>
              <g id="Grupo_14622" data-name="Grupo 14622">
                <path id="Trazado_14838" data-name="Trazado 14838" d="M125.6,64.9a3.5,3.5,0,0,0-1-2.3A2.66,2.66,0,0,0,123,62h-.1q-1.05,0-3,1.8a3.278,3.278,0,0,0-.6-.8,2.473,2.473,0,0,0-1.5-.7h-.1a.758.758,0,0,0-.4.2c-.1.3-.9,2.1-2.4,5.5-.1.2-.4.9-1,2.3a10.592,10.592,0,0,0-1,1.2,17.208,17.208,0,0,1-2.2,2h0a8.8,8.8,0,0,1,.5-1.5c2-4.6,3.1-7,3.2-7.4a2.707,2.707,0,0,0,.3-.8,1.865,1.865,0,0,0-.5-1,2.4,2.4,0,0,0-1.7-.8.462.462,0,0,0-.5.3c-.4.8-.6,1.4-.7,1.6a2.666,2.666,0,0,0-1-1.2,3.156,3.156,0,0,0-2.2-.5c-1.6.1-3,1-4.2,2.9a18.212,18.212,0,0,0-1.5,2.7,12,12,0,0,0-1,4.7v.3a3.373,3.373,0,0,0,.9,2.2,2.567,2.567,0,0,0,1.8.7,3.746,3.746,0,0,0,2-.9,13.087,13.087,0,0,0,1.6-1.3h0v.1c0,.2.1.4.1.6a1.854,1.854,0,0,0,1.7,1.3c.8,0,1.7-.6,2.9-1.6-.8,1.9-1.9,4.4-3.2,7.3a2.707,2.707,0,0,0-.3.8h0c0,.3.3.7.8,1.1.6.4,1.1.7,1.5.6h0a.52.52,0,0,0,.4-.2c.1-.1.4-1,1.1-2.6,2-4.6,3.1-7,3.1-7.1A2.334,2.334,0,0,0,117,75a4.058,4.058,0,0,0,1.9.4h.1c1.6-.1,3.1-1.2,4.4-3.2a12.509,12.509,0,0,0,1.5-3.1,10.706,10.706,0,0,0,.7-3.9Zm-17.4,5.9a19.2,19.2,0,0,0-1.4,1.5,11.78,11.78,0,0,1-2.6,2c0-.1-.1-.3-.1-.4a9.722,9.722,0,0,1,.8-3.9,11.3,11.3,0,0,1,1.1-2.2c.3-.4.5-.8.8-1.2,1.1-1.3,2-1.9,2.9-2h.4a2.639,2.639,0,0,0,.7.1h.2a13.69,13.69,0,0,0-.7,1.6A31.446,31.446,0,0,0,108.2,70.8Zm14.3-4.6a12.344,12.344,0,0,1-.8,2.3,9.963,9.963,0,0,1-1.4,2.4c-1.1,1.4-2.1,2.1-3.1,2.2h-.3a2.252,2.252,0,0,0-.7-.1h-.1c1-2.3,1.9-4.3,2.7-6.2,0-.1.1-.3.4-.5a6.278,6.278,0,0,1,1.2-1.1,7.028,7.028,0,0,1,2.4-1.7c0,.2.1.3.1.5C122.9,64.3,122.7,65.1,122.5,66.2Z" fill="#fff"/>
              </g>
            </g>
          </g>
        </g>
      </g>
    </g>
  </g>
</svg>
