<svg xmlns="http://www.w3.org/2000/svg" width="62.212" height="62.212" viewBox="0 0 62.212 62.212">
  <g id="Grupo_1055" data-name="Grupo 1055" transform="translate(0 0)">
    <path id="Trazado_12977" data-name="Trazado 12977" d="M339.882,364.443c0,.26,0,.521.01.778a31.111,31.111,0,0,0,61.329,6.569c.038-.153.074-.307.109-.463a30.421,30.421,0,0,0,.733-5.637.262.262,0,0,0,0-.053c.021-.4.028-.8.028-1.195a31.108,31.108,0,0,0-61.85-4.751l-.01.063c0,.007,0,.017,0,.024,0,.031-.011.066-.014.1q-.177,1.189-.261,2.4Q339.882,363.351,339.882,364.443Z" transform="translate(-339.882 -333.337)" fill="#e17906"/>
    <path id="Trazado_12978" data-name="Trazado 12978" d="M339.882,382.658c0,.26,0,.521.01.778a31.106,31.106,0,0,0,54.816,19.345c-2.013-.518-5.391-2.454-11.035-7.785-12.512-11.817-15.292-15.987-24.676-12.512-9.262,3.43-18.528-4.316-18.764-4.515l0,0-.014.125-.261,2.4Q339.882,381.566,339.882,382.658Z" transform="translate(-339.882 -351.552)" fill="#a85400"/>
    <path id="Trazado_12979" data-name="Trazado 12979" d="M340.47,359.779c4.472,3.893,12.306,6.847,18.42,1.71,8.688-7.3,14.944-3.476,28.5,7.646,6.645,5.453,11.118,4.891,14.071,2.656.038-.153.074-.307.109-.463a30.418,30.418,0,0,0,.733-5.637.262.262,0,0,0,0-.053c.021-.4.028-.8.028-1.195a31.108,31.108,0,0,0-61.85-4.751C340.48,359.72,340.474,359.751,340.47,359.779Z" transform="translate(-340.122 -333.337)" fill="#631b0d"/>
    <path id="Trazado_12980" data-name="Trazado 12980" d="M388.762,392.36c13.1-9.738,16.941-24.3,12.544-39.576a30.969,30.969,0,0,1,6.949,19.6c0,.4-.007.8-.028,1.195a.264.264,0,0,1,0,.053,30.423,30.423,0,0,1-.733,5.637c-.035.156-.07.31-.109.463a31.11,31.11,0,0,1-52.405,14.467C368.731,400.81,380.049,398.839,388.762,392.36Z" transform="translate(-346.043 -341.274)" fill="#dbdbdb" opacity="0.6" style="mix-blend-mode: multiply;isolation: isolate"/>
    <path id="Trazado_12981" data-name="Trazado 12981" d="M407.122,357.007a30.948,30.948,0,0,1,5.121,17.1c0,.4-.007.8-.028,1.195a.264.264,0,0,1,0,.053,30.421,30.421,0,0,1-.733,5.637c-.035.156-.07.31-.109.463a31.115,31.115,0,0,1-46.621,19.093C389.652,409.678,418.461,392.07,407.122,357.007Z" transform="translate(-350.031 -342.998)" fill="#dbdbdb" style="mix-blend-mode: multiply;isolation: isolate"/>
    <g id="Grupo_1045" data-name="Grupo 1045" transform="translate(4.866 18.072)">
      <path id="Trazado_12982" data-name="Trazado 12982" d="M348.1,366.305a2.433,2.433,0,1,0,2.433-2.433A2.433,2.433,0,0,0,348.1,366.305Z" transform="translate(-348.104 -363.872)" fill="#cecece" style="mix-blend-mode: multiply;isolation: isolate"/>
      <path id="Trazado_12983" data-name="Trazado 12983" d="M348.851,366.61a1.99,1.99,0,1,0,1.99-1.99A1.99,1.99,0,0,0,348.851,366.61Z" transform="translate(-348.409 -364.177)" fill="#cecece" style="mix-blend-mode: multiply;isolation: isolate"/>
    </g>
    <g id="Grupo_1046" data-name="Grupo 1046" transform="translate(15.64 8.341)">
      <path id="Trazado_12984" data-name="Trazado 12984" d="M366.308,349.863a2.433,2.433,0,1,0,2.433-2.433A2.433,2.433,0,0,0,366.308,349.863Z" transform="translate(-366.308 -347.43)" fill="#cecece" style="mix-blend-mode: multiply;isolation: isolate"/>
      <path id="Trazado_12985" data-name="Trazado 12985" d="M367.056,350.168a1.99,1.99,0,1,0,1.99-1.99A1.99,1.99,0,0,0,367.056,350.168Z" transform="translate(-366.613 -347.735)" fill="#cecece" style="mix-blend-mode: multiply;isolation: isolate"/>
    </g>
    <g id="Grupo_1047" data-name="Grupo 1047" transform="translate(16.683 18.072)">
      <path id="Trazado_12986" data-name="Trazado 12986" d="M368.069,366.305a2.433,2.433,0,1,0,2.433-2.433A2.433,2.433,0,0,0,368.069,366.305Z" transform="translate(-368.069 -363.872)" fill="#cecece" style="mix-blend-mode: multiply;isolation: isolate"/>
      <path id="Trazado_12987" data-name="Trazado 12987" d="M368.817,366.61a1.99,1.99,0,1,0,1.99-1.99A1.989,1.989,0,0,0,368.817,366.61Z" transform="translate(-368.374 -364.177)" fill="#cecece" style="mix-blend-mode: multiply;isolation: isolate"/>
    </g>
    <g id="Grupo_1048" data-name="Grupo 1048" transform="translate(32.67 2.433)">
      <path id="Trazado_12988" data-name="Trazado 12988" d="M395.081,339.881a2.433,2.433,0,1,0,2.433-2.434A2.432,2.432,0,0,0,395.081,339.881Z" transform="translate(-395.081 -337.447)" fill="#cecece" style="mix-blend-mode: multiply;isolation: isolate"/>
      <circle id="Elipse_69" data-name="Elipse 69" cx="1.991" cy="1.991" r="1.991" transform="translate(0.443 0.443)" fill="#cecece" style="mix-blend-mode: multiply;isolation: isolate"/>
    </g>
    <g id="Grupo_1049" data-name="Grupo 1049" transform="translate(25.371 11.469)">
      <path id="Trazado_12989" data-name="Trazado 12989" d="M382.749,355.148a2.433,2.433,0,1,0,2.433-2.433A2.433,2.433,0,0,0,382.749,355.148Z" transform="translate(-382.749 -352.715)" fill="#cecece" style="mix-blend-mode: multiply;isolation: isolate"/>
      <path id="Trazado_12990" data-name="Trazado 12990" d="M383.5,355.453a1.991,1.991,0,1,0,1.99-1.99A1.991,1.991,0,0,0,383.5,355.453Z" transform="translate(-383.054 -353.02)" fill="#cecece" style="mix-blend-mode: multiply;isolation: isolate"/>
    </g>
    <g id="Grupo_1050" data-name="Grupo 1050" transform="translate(39.621 10.774)">
      <path id="Trazado_12991" data-name="Trazado 12991" d="M406.825,353.974a2.433,2.433,0,1,0,2.433-2.433A2.434,2.434,0,0,0,406.825,353.974Z" transform="translate(-406.825 -351.541)" fill="#cecece" style="mix-blend-mode: multiply;isolation: isolate"/>
      <path id="Trazado_12992" data-name="Trazado 12992" d="M407.573,354.278a1.991,1.991,0,1,0,1.99-1.99A1.991,1.991,0,0,0,407.573,354.278Z" transform="translate(-407.13 -351.846)" fill="#cecece" style="mix-blend-mode: multiply;isolation: isolate"/>
    </g>
    <g id="Grupo_1051" data-name="Grupo 1051" transform="translate(41.359 24.328)">
      <path id="Trazado_12993" data-name="Trazado 12993" d="M409.763,376.875a2.433,2.433,0,1,0,2.432-2.433A2.432,2.432,0,0,0,409.763,376.875Z" transform="translate(-409.763 -374.442)" fill="#cecece" style="mix-blend-mode: multiply;isolation: isolate"/>
      <path id="Trazado_12994" data-name="Trazado 12994" d="M410.509,377.18a1.99,1.99,0,1,0,1.99-1.99A1.991,1.991,0,0,0,410.509,377.18Z" transform="translate(-410.067 -374.747)" fill="#cecece" style="mix-blend-mode: multiply;isolation: isolate"/>
    </g>
    <g id="Grupo_1052" data-name="Grupo 1052" transform="translate(54.218 26.414)">
      <path id="Trazado_12995" data-name="Trazado 12995" d="M431.489,380.4a2.433,2.433,0,1,0,2.434-2.433A2.433,2.433,0,0,0,431.489,380.4Z" transform="translate(-431.489 -377.966)" fill="#cecece" style="mix-blend-mode: multiply;isolation: isolate"/>
      <circle id="Elipse_70" data-name="Elipse 70" cx="1.991" cy="1.991" r="1.991" transform="translate(0.443 0.442)" fill="#cecece" style="mix-blend-mode: multiply;isolation: isolate"/>
    </g>
    <g id="Grupo_1053" data-name="Grupo 1053" transform="translate(47.962 15.292)">
      <path id="Trazado_12996" data-name="Trazado 12996" d="M420.919,361.608a2.433,2.433,0,1,0,2.433-2.433A2.433,2.433,0,0,0,420.919,361.608Z" transform="translate(-420.919 -359.175)" fill="#cecece" style="mix-blend-mode: multiply;isolation: isolate"/>
      <path id="Trazado_12997" data-name="Trazado 12997" d="M421.667,361.912a1.991,1.991,0,1,0,1.99-1.99A1.99,1.99,0,0,0,421.667,361.912Z" transform="translate(-421.224 -359.48)" fill="#cecece" style="mix-blend-mode: multiply;isolation: isolate"/>
    </g>
    <g id="Grupo_1054" data-name="Grupo 1054" transform="translate(0.695 0.525)">
      <path id="Trazado_12998" data-name="Trazado 12998" d="M356.376,385.332c5.391.331,2.741-8.99,17.04-22.066,12.512-11.442,21.421-8.774,21.3-13.452-.189-7.2-11.86-14.243-22.27-14.658-14.716-.587-30.908,11.907-31.29,27.062C340.884,372.927,348.514,384.85,356.376,385.332Z" transform="translate(-341.093 -334.596)" fill="#fff" opacity="0.1" style="mix-blend-mode: screen;isolation: isolate"/>
      <path id="Trazado_12999" data-name="Trazado 12999" d="M371.53,334.226c8.4-.091,17.54,3.965,17.045,6.933-.288,1.734-11.4.687-24.845,13.29-13.867,13-11.86,26.039-13.867,26.29-2.311.289-9.921-11-8.668-21.379C342.951,344.83,358.23,334.368,371.53,334.226Z" transform="translate(-341.056 -334.224)" fill="#fff" opacity="0.1" style="mix-blend-mode: screen;isolation: isolate"/>
      <path id="Trazado_13000" data-name="Trazado 13000" d="M384.433,339.93c.1-.939-6.515-3.714-13.8-3.176-10.366.768-21.221,8.183-24.856,18.748-2.931,8.523-.527,17.243.52,17.283,1,.038.266-7.6,5.1-15.974,6.1-10.581,16.819-13.852,18.073-14.249C377.6,339.973,384.327,340.859,384.433,339.93Z" transform="translate(-342.41 -335.229)" fill="#fff" opacity="0.2" style="mix-blend-mode: screen;isolation: isolate"/>
      <path id="Trazado_13001" data-name="Trazado 13001" d="M377.407,338.317c1.971-.235,5.875.385,4.43.962a57.188,57.188,0,0,0-13.675,6.164c-2.5,1.541-4.431-.289-3.275-1.541S371.725,338.99,377.407,338.317Z" transform="translate(-350.642 -335.874)" fill="#fff" opacity="0.6" style="mix-blend-mode: screen;isolation: isolate"/>
      <path id="Trazado_13002" data-name="Trazado 13002" d="M355.191,351.841c.7-.582,3.555.277,3.082.674a31.059,31.059,0,0,0-9.148,11.942C346.813,369.562,348.258,357.619,355.191,351.841Z" transform="translate(-343.933 -341.335)" fill="#fff" opacity="0.6" style="mix-blend-mode: screen;isolation: isolate"/>
    </g>
    <path id="Trazado_13003" data-name="Trazado 13003" d="M436.968,418.484s-.23.275-.571.691A1.378,1.378,0,0,0,436.968,418.484Z" transform="translate(-379.274 -368.089)" fill="#fff"/>
  </g>
</svg>
