<svg xmlns="http://www.w3.org/2000/svg" width="155.415" height="210.455" viewBox="0 0 155.415 210.455">
  <g id="Grupo_14774" data-name="Grupo 14774" transform="translate(-343.711 -342.312)">
    <g id="Grupo_1445" data-name="Grupo 1445" transform="translate(343.711 342.312)">
      <g id="Grupo_1390" data-name="Grupo 1390" transform="translate(133.925 97.766)">
        <path id="Trazado_13606" data-name="Trazado 13606" d="M2560.566,1915.459c15.541,4.324,4.844-30.88-12.453-38.73l3.568,24.823Z" transform="translate(-2548.113 -1876.729)" fill="#fbc100"/>
      </g>
      <g id="Grupo_1391" data-name="Grupo 1391" transform="translate(133.925 97.766)" opacity="0.3">
        <path id="Trazado_13607" data-name="Trazado 13607" d="M2560.566,1915.459c15.541,4.324,4.844-30.88-12.453-38.73l3.568,24.823Z" transform="translate(-2548.113 -1876.729)" fill="#760153"/>
      </g>
      <g id="Grupo_1392" data-name="Grupo 1392" transform="translate(2.374 1.51)">
        <path id="Trazado_13608" data-name="Trazado 13608" d="M1376.666,1113.207a9.242,9.242,0,0,1-8.527,8.793l-83.132,6.486a25.82,25.82,0,0,1-10.975-1.535s-.008-.005-.02-.005c-.291-.111-.583-.222-.869-.342l-10.845-4.482a7.582,7.582,0,0,1-4.679-7.237,686.608,686.608,0,0,0-15.341-166.739,7.58,7.58,0,0,1,2.357-7.274l9.281-8.28.01-.005.968-.866a15.88,15.88,0,0,1,9.327-3.979l1.33-.106,35.819-2.8,11.542-.9,32.868-2.564,2.807-.217a9.261,9.261,0,0,1,9.688,6.956C1372.673,984.747,1379.285,1052.634,1376.666,1113.207Z" transform="translate(-1242.104 -921.129)" fill="#955447"/>
      </g>
      <g id="Grupo_1393" data-name="Grupo 1393" transform="translate(80.528 41.371)">
        <path id="Trazado_13609" data-name="Trazado 13609" d="M2034.143,1371.9c1.094,10.1,1.99,19.846,2.846,30.512l-8.453,4c-.27-6.316-.133-2.754-.586-9.09a674.771,674.771,0,0,0-9.959-77.565l8.662-.685.082.408,26.289-2.534.938-.075.172-.015.064.413h4.055l2.775,2.367-5.551,5.5-25.842,1.815a1.416,1.416,0,0,0-1.3,1.645q1.89,11.29,3.445,23.249l-7.111,9.52,8.24-.465c.016.112.023.223.039.333l23.918-2.13,3.662-.2.295-.017,2.5-.135,4.953,2.888-6.73,5.917-25.682,2.261A1.9,1.9,0,0,0,2034.143,1371.9Z" transform="translate(-2017.99 -1316.855)" fill="#b68662"/>
      </g>
      <g id="Grupo_1394" data-name="Grupo 1394" transform="translate(14.198 12.301)" opacity="0.2">
        <path id="Trazado_13610" data-name="Trazado 13610" d="M1359.491,1028.92a3.845,3.845,0,0,1,1.014-.664Z" transform="translate(-1359.491 -1028.256)" fill="#fff"/>
      </g>
      <g id="Grupo_1395" data-name="Grupo 1395" transform="translate(15.21 5.099)">
        <path id="Trazado_13611" data-name="Trazado 13611" d="M1434.016,997.6l-7.252,7.524-28.273,2.377a4.079,4.079,0,0,0-3.684,4.745q1.619,9.782,2.942,19.722l-8.6,9.841a602.787,602.787,0,0,0-13.961-75.174,4.077,4.077,0,0,0-5.65-2.677l4.7-3.083c.716-.639,4.488-.971,5.943-1.032l-.036-.172,26.946-2.1,1.763-.107c.006,0,.01,0,.015,0s.01,0,.016,0l7.122-.437,4.5-.272,2.7,2.03-4.882,6.644-30.011,2.055a2.17,2.17,0,0,0-1.965,2.68q2.479,10.3,4.623,21.032l-8.23,8.763,11.044-.821-.25-.714,31.518-2.563.147.791h0l8.478-.842Q1433.85,996.7,1434.016,997.6Z" transform="translate(-1369.541 -956.756)" fill="#b68662"/>
      </g>
      <g id="Grupo_1396" data-name="Grupo 1396" transform="translate(79.354 44.151)" opacity="0.2">
        <path id="Trazado_13612" data-name="Trazado 13612" d="M2007.38,1345.509l-.707.74c-.111-.6-.223-1.2-.332-1.793Z" transform="translate(-2006.341 -1344.456)" fill="#fff"/>
      </g>
      <g id="Grupo_1397" data-name="Grupo 1397" transform="translate(52.767 5.22)" opacity="0.2">
        <path id="Trazado_13613" data-name="Trazado 13613" d="M1744.055,958.545h.1l-1.764.106,8.873-.7.042.152Z" transform="translate(-1742.391 -957.956)" fill="#fff"/>
      </g>
      <g id="Grupo_1398" data-name="Grupo 1398" transform="translate(34.887 86.981)">
        <path id="Trazado_13614" data-name="Trazado 13614" d="M1575.795,1782.9a669.285,669.285,0,0,1,2.97,99.746c-.129,2.749-6.577,4.531-9.121,3.479l-.221.146a677.235,677.235,0,0,0-4.531-112.937l9.7-1.118c.016.121.029.247.046.367l31.084-2.77,1.728-.155h8.311c.02.176.04.353.06.532l-7.393,7.771L1578,1780.253A2.4,2.4,0,0,0,1575.795,1782.9Z" transform="translate(-1564.892 -1769.656)" fill="#b68662"/>
      </g>
      <g id="Grupo_1399" data-name="Grupo 1399" transform="translate(85.755 86.981)" opacity="0.2">
        <path id="Trazado_13615" data-name="Trazado 13615" d="M2070.461,1769.656l-.51.532c-.018-.18-.037-.356-.061-.532Z" transform="translate(-2069.891 -1769.656)" fill="#fff"/>
      </g>
      <g id="Grupo_1400" data-name="Grupo 1400" transform="translate(100.603 1.677)" opacity="0.3">
        <path id="Trazado_13616" data-name="Trazado 13616" d="M2217.621,923.314c-.111-.01-.217-.016-.33-.016l5.59-.367,1.826-.121a9.246,9.246,0,0,1,1.9.051l-8.018.559h0c-.109-.022-.213-.036-.316-.047Q2217.943,923.33,2217.621,923.314Z" transform="translate(-2217.291 -922.784)" fill="#760153"/>
      </g>
      <g id="Grupo_1401" data-name="Grupo 1401" transform="translate(109.92 1.755)" opacity="0.3">
        <path id="Trazado_13617" data-name="Trazado 13617" d="M2312.8,924.482l-3.014-.926A9.116,9.116,0,0,1,2312.8,924.482Z" transform="translate(-2309.791 -923.556)" fill="#760153"/>
      </g>
      <g id="Grupo_1402" data-name="Grupo 1402" transform="translate(74.282 3.925)" opacity="0.3">
        <path id="Trazado_13618" data-name="Trazado 13618" d="M2017.8,1134.935c-.2,4.658-3.873,8.431-10.516,8.858l-51.293,4,44.941-3.561a9.236,9.236,0,0,0,8.521-8.794,674.71,674.71,0,0,0-3.672-102.193l6.734-5.918-4.949-2.887-2.5.136-.3.016c-.031-.243-.061-.484-.094-.726l-26.26,1.7-.049.952-1.221.07-8.238.464,7.111-9.52.119-.16,24.977-1.9a2.3,2.3,0,0,0,2.1-2.608q-1.57-11.128-3.5-22.036l5.553-5.5-2.775-2.367h-4.053l-.068-.411-.17.015a.024.024,0,0,1,0-.015l-.934.088-26.291,2.535-.08-.408-8.662.685-.131.01.113-.132,7.148-8.471-.014-.076,24.725-1.988a2.261,2.261,0,0,0,2.027-2.714c-1.5-7.137-3.109-14.153-4.844-21l5.229-5.978a9.227,9.227,0,0,1,2.924,4.734C2013.807,1006.475,2020.42,1074.361,2017.8,1134.935Z" transform="translate(-1955.992 -945.106)" fill="#760153"/>
      </g>
      <g id="Grupo_1403" data-name="Grupo 1403" transform="translate(80.396 44.151)" opacity="0.3">
        <path id="Trazado_13619" data-name="Trazado 13619" d="M2016.8,1344.456c0,.04.016.081.021.12l-.131.012Z" transform="translate(-2016.692 -1344.456)" fill="#760153"/>
      </g>
      <g id="Grupo_1404" data-name="Grupo 1404" transform="translate(94.297 76.198)" opacity="0.3">
        <path id="Trazado_13620" data-name="Trazado 13620" d="M2154.83,1662.606l-.119.16-.02-.151Z" transform="translate(-2154.691 -1662.606)" fill="#760153"/>
      </g>
      <g id="Grupo_1405" data-name="Grupo 1405" transform="translate(42.916 209.089)" opacity="0.3">
        <path id="Trazado_13621" data-name="Trazado 13621" d="M1644.676,2981.914c.191-.008.312-.008.373-.008-.085.008-.271.008-.458.01Z" transform="translate(-1644.591 -2981.906)" fill="#760153"/>
      </g>
      <g id="Grupo_1406" data-name="Grupo 1406" transform="translate(42.447 206.616)" opacity="0.3">
        <path id="Trazado_13622" data-name="Trazado 13622" d="M1671.776,2957.357l-31.282,2.48c-.14,0-.321,0-.553,0Z" transform="translate(-1639.941 -2957.357)" fill="#760153"/>
      </g>
      <g id="Grupo_1407" data-name="Grupo 1407" transform="translate(42.916 209.089)" opacity="0.3">
        <path id="Trazado_13623" data-name="Trazado 13623" d="M1644.676,2981.914c.191-.008.312-.008.373-.008-.085.008-.271.008-.458.01Z" transform="translate(-1644.591 -2981.906)" fill="#760153"/>
      </g>
      <g id="Grupo_1408" data-name="Grupo 1408" transform="translate(42.447 206.616)" opacity="0.3">
        <path id="Trazado_13624" data-name="Trazado 13624" d="M1671.776,2957.357l-31.282,2.48c-.14,0-.321,0-.553,0Z" transform="translate(-1639.941 -2957.357)" fill="#760153"/>
      </g>
      <g id="Grupo_1409" data-name="Grupo 1409" transform="translate(64.461 1.755)">
        <path id="Trazado_13625" data-name="Trazado 13625" d="M1876.661,935.79s.006.015.006.019q2.733,10.343,5.007,21.6l.017.076-7.153,8.472c-2.136-11.232-4.553-22.2-7.236-32.767a9.247,9.247,0,0,0-8.81-6.976l11.475-.341.066.03,30.049-2.342.142.071-5.591.366c.11,0,.219.005.327.016.217.011.434.03.652.061a3.15,3.15,0,0,1,.313.046h.009l8.016-.559,3.011.926a9.184,9.184,0,0,1,1.851,1.243l-5.228,5.979-25.314,1.863A1.8,1.8,0,0,0,1876.661,935.79Z" transform="translate(-1858.491 -923.556)" fill="#b68662"/>
      </g>
      <g id="Grupo_1410" data-name="Grupo 1410" transform="translate(112.932 2.681)" opacity="0.2">
        <path id="Trazado_13626" data-name="Trazado 13626" d="M2342,933.472l-.461.528a9.15,9.15,0,0,0-1.852-1.243Z" transform="translate(-2339.691 -932.756)" fill="#fff"/>
      </g>
      <g id="Grupo_1411" data-name="Grupo 1411" transform="translate(119.404 83.264)" opacity="0.2">
        <path id="Trazado_13627" data-name="Trazado 13627" d="M2407.9,1732.893l-3.961.216,3.645-.327.307-.025Z" transform="translate(-2403.941 -1732.756)" fill="#fff"/>
      </g>
      <g id="Grupo_1412" data-name="Grupo 1412" transform="translate(2.374 11.928)">
        <path id="Trazado_13628" data-name="Trazado 13628" d="M1279.146,1216.339a3.975,3.975,0,0,1-5.113,3.616s-.008,0-.02,0c-.291-.111-.583-.222-.869-.343l-10.845-4.481a7.583,7.583,0,0,1-4.679-7.238,686.626,686.626,0,0,0-15.341-166.74,7.576,7.576,0,0,1,2.357-7.272l9.281-8.279.01-.006a4.079,4.079,0,0,1,6.664,2.015C1275.384,1085.251,1282.082,1154.734,1279.146,1216.339Z" transform="translate(-1242.104 -1024.553)" fill="#b68662"/>
      </g>
      <g id="Grupo_1413" data-name="Grupo 1413" transform="translate(63.58 4.407)" opacity="0.2">
        <path id="Trazado_13629" data-name="Trazado 13629" d="M1850.624,949.89l-.883.026A8.64,8.64,0,0,1,1850.624,949.89Z" transform="translate(-1849.741 -949.889)" fill="#fff"/>
      </g>
      <g id="Grupo_1414" data-name="Grupo 1414" transform="translate(17.3 131.625)">
        <path id="Trazado_13630" data-name="Trazado 13630" d="M1509.927,2274.83a9.245,9.245,0,0,1-8.529,8.795l-83.129,6.484a25.319,25.319,0,0,1-5.047-.1,25.675,25.675,0,0,1-6.819-1.779l-10.844-4.482a7.579,7.579,0,0,1-4.68-7.236c.484-15.027.435-29.809-.06-44.242q-.212-6.152-.528-12.219a22.521,22.521,0,0,1,8.3,2.27c7.645,18.029,17.055,23.514,31.06-3.779a10.79,10.79,0,0,1,2.82-2.924c2.6-1.924,7.167-3.783,14.29-2.064,5.508,1.324,12.554,4.8,21.418,12.041,14.369,11.748,21.547,10.285,25.126,5.834a15.176,15.176,0,0,0,2.665-5.572,27,27,0,0,0,.917-6.557s5.2-5.943,13.271,8.33c.01.293.021.582.025.873q.183,5.927.252,11.818C1510.581,2252,1510.415,2263.539,1509.927,2274.83Z" transform="translate(-1390.291 -2212.869)" fill="#57baeb"/>
      </g>
      <g id="Grupo_1415" data-name="Grupo 1415" transform="translate(14.719 105.227)" opacity="0.55">
        <path id="Trazado_13631" data-name="Trazado 13631" d="M1367.245,1984.372q.113,2.235.217,4.486-.892-19.521-2.795-38.059a26.748,26.748,0,0,0,5.18,11.574q.992,11.18,1.639,22.729A22.884,22.884,0,0,0,1367.245,1984.372Z" transform="translate(-1364.667 -1950.8)" fill="#fff"/>
      </g>
      <g id="Grupo_1416" data-name="Grupo 1416" transform="translate(17.701 147.634)" opacity="0.55">
        <path id="Trazado_13632" data-name="Trazado 13632" d="M1400.393,2427.186l-1.26-.518a7.589,7.589,0,0,1-4.681-7.238c.519-16.207.425-32.123-.186-47.629.044,1.129.088,2.258.125,3.393l.044,0a4.919,4.919,0,0,1,4.374,4.746c.441,13.842.465,28,0,42.385A7.531,7.531,0,0,0,1400.393,2427.186Z" transform="translate(-1394.267 -2371.801)" fill="#fff"/>
      </g>
      <g id="Grupo_1417" data-name="Grupo 1417" transform="translate(2.371 1.51)" opacity="0.55">
        <path id="Trazado_13633" data-name="Trazado 13633" d="M1356.364,924.425a9.348,9.348,0,0,0-3.44-.378l-2.806.216-32.866,2.563-11.545.9-35.819,2.795-1.329.106a15.88,15.88,0,0,0-9.326,3.979l-.967.866-.011.005-9.282,8.28a7.577,7.577,0,0,0-2.356,7.272,674.341,674.341,0,0,1,11.135,67.111,11.119,11.119,0,0,1-4.316-2.555v.062a673.915,673.915,0,0,0-11.181-67.514,7.586,7.586,0,0,1,2.356-7.273l9.283-8.279.009,0,.968-.867a15.883,15.883,0,0,1,9.329-3.979l1.328-.106,35.82-2.795,11.542-.9,32.868-2.562,2.8-.218A9.252,9.252,0,0,1,1356.364,924.425Z" transform="translate(-1242.079 -921.123)" fill="#fff"/>
      </g>
      <g id="Grupo_1418" data-name="Grupo 1418" transform="translate(0.862 0)">
        <path id="Trazado_13634" data-name="Trazado 13634" d="M1269.531,1116.591a27.447,27.447,0,0,1-10.459-2.074l-10.841-4.485a9.128,9.128,0,0,1-5.611-8.681,685.658,685.658,0,0,0-15.309-166.369,9.091,9.091,0,0,1,2.828-8.723l10.261-9.151a17.465,17.465,0,0,1,10.215-4.356l84.361-6.583a10.743,10.743,0,0,1,11.275,8.088c14.366,56.529,21.086,124.152,18.431,185.53a10.756,10.756,0,0,1-9.914,10.234l-83.134,6.486C1270.934,1116.562,1270.233,1116.591,1269.531,1116.591Zm66.294-207.433c-.2,0-.407.009-.611.024l-84.364,6.582a14.433,14.433,0,0,0-8.438,3.6l-10.259,9.151a6.067,6.067,0,0,0-1.89,5.821,688.7,688.7,0,0,1,15.379,167.112,6.087,6.087,0,0,0,3.744,5.791l10.842,4.487a24.374,24.374,0,0,0,11.172,1.77l83.134-6.486a7.727,7.727,0,0,0,7.13-7.35c2.644-61.1-4.043-128.4-18.341-184.655A7.731,7.731,0,0,0,1335.825,909.158Zm18.825,199.358h0Z" transform="translate(-1227.101 -906.136)" fill="#541c27"/>
      </g>
      <g id="Grupo_1419" data-name="Grupo 1419" transform="translate(26.904 39.863)">
        <path id="Trazado_13635" data-name="Trazado 13635" d="M1487.149,1312.566a1.512,1.512,0,0,1-.552-2.919,17.392,17.392,0,0,1,5-1.151l84.368-6.583a10.751,10.751,0,0,1,11.271,8.09,1.511,1.511,0,1,1-2.929.742,7.74,7.74,0,0,0-8.108-5.818l-84.364,6.581a14.451,14.451,0,0,0-4.134.953A1.553,1.553,0,0,1,1487.149,1312.566Z" transform="translate(-1485.638 -1301.881)" fill="#541c27"/>
      </g>
      <g id="Grupo_1420" data-name="Grupo 1420" transform="translate(33.381 81.725)">
        <path id="Trazado_13636" data-name="Trazado 13636" d="M1551.45,1727.989a1.511,1.511,0,0,1-.509-2.934,17.567,17.567,0,0,1,4.488-.96l84.36-6.581a10.757,10.757,0,0,1,11.276,8.088,1.511,1.511,0,1,1-2.928.747,7.746,7.746,0,0,0-8.114-5.823l-84.357,6.581a14.424,14.424,0,0,0-3.708.8A1.554,1.554,0,0,1,1551.45,1727.989Z" transform="translate(-1549.939 -1717.482)" fill="#541c27"/>
      </g>
      <g id="Grupo_1421" data-name="Grupo 1421" transform="translate(62.069 3.589)">
        <path id="Trazado_13637" data-name="Trazado 13637" d="M1864.244,1081.211a1.512,1.512,0,0,1-1.509-1.446c-.269-6.278-.636-12.651-1.087-18.946-2.733-38.638-8.674-76.742-17.17-110.188a7.724,7.724,0,0,0-8.107-5.816,1.511,1.511,0,1,1-.235-3.013,10.738,10.738,0,0,1,11.272,8.084c8.54,33.618,14.507,71.9,17.257,110.718.45,6.322.818,12.724,1.089,19.03a1.508,1.508,0,0,1-1.442,1.574Z" transform="translate(-1834.741 -941.769)" fill="#541c27"/>
      </g>
      <g id="Grupo_1422" data-name="Grupo 1422" transform="translate(54.429 5.804)" opacity="0.3">
        <path id="Trazado_13638" data-name="Trazado 13638" d="M1758.892,963.76l.114,0s-.009,0-.015,0Z" transform="translate(-1758.892 -963.756)" fill="#760153"/>
      </g>
      <g id="Grupo_1423" data-name="Grupo 1423" transform="translate(54.545 5.371)" opacity="0.3">
        <path id="Trazado_13639" data-name="Trazado 13639" d="M1767.177,959.456l-7.121.438s-.009-.006-.015-.006Z" transform="translate(-1760.041 -959.456)" fill="#760153"/>
      </g>
      <g id="Grupo_1424" data-name="Grupo 1424" transform="translate(66.179 5.099)" opacity="0.3">
        <path id="Trazado_13640" data-name="Trazado 13640" d="M1878.242,958.786l-2.7-2.03A8.6,8.6,0,0,1,1878.242,958.786Z" transform="translate(-1875.541 -956.756)" fill="#760153"/>
      </g>
      <g id="Grupo_1425" data-name="Grupo 1425" transform="translate(28.415 7.129)" opacity="0.3">
        <path id="Trazado_13641" data-name="Trazado 13641" d="M1511.685,1017.257l-11.044.821,8.23-8.764,30.2-2.2a2.178,2.178,0,0,0,1.973-2.613q-2.235-10.69-4.824-20.953l4.88-6.642a16.923,16.923,0,0,1,4.006,7.918c2.42,9.166,4.567,18.9,6.471,29.105l-8.477.842c-.051-.268-.1-.53-.151-.792l-31.519,2.564Z" transform="translate(-1500.641 -976.906)" fill="#760153"/>
      </g>
      <g id="Grupo_1426" data-name="Grupo 1426" transform="translate(34.822 45.944)" opacity="0.3">
        <path id="Trazado_13642" data-name="Trazado 13642" d="M1606.869,1403.291l-.146-1.1c.05.369.1.734.142,1.1l-29.694,1.642.265.52-3.428.4-9.7,1.116c-.021-.171-.041-.336-.065-.5l8.6-9.842,28.492-2.4a4.087,4.087,0,0,0,3.7-4.665q-1.437-9.987-3.174-19.784l7.253-7.522c2.372,12.978,4.366,26.712,6.07,41.036Z" transform="translate(-1564.241 -1362.255)" fill="#760153"/>
      </g>
      <g id="Grupo_1427" data-name="Grupo 1427" transform="translate(78.422 87.515)" opacity="0.3">
        <path id="Trazado_13643" data-name="Trazado 13643" d="M2008.433,1815.4l-8.215,4.366c-.271-6.315-.131-2.761-.582-9.094q-1-14.008-2.545-27.947l7.395-7.773C2006.019,1788,2007.319,1801.52,2008.433,1815.4Z" transform="translate(-1997.091 -1774.956)" fill="#760153"/>
      </g>
      <g id="Grupo_1428" data-name="Grupo 1428" transform="translate(34.323 90.154)" opacity="0.3">
        <path id="Trazado_13644" data-name="Trazado 13644" d="M1559.855,1801.659l-.565.066.5-.569C1559.813,1801.323,1559.835,1801.49,1559.855,1801.659Z" transform="translate(-1559.29 -1801.156)" fill="#760153"/>
      </g>
      <g id="Grupo_1429" data-name="Grupo 1429" transform="translate(77.304 85.878)" opacity="0.3">
        <path id="Trazado_13645" data-name="Trazado 13645" d="M1986.136,1759.808h0c-.043-.367-.092-.736-.141-1.1Z" transform="translate(-1985.991 -1758.706)" fill="#760153"/>
      </g>
      <g id="Grupo_1430" data-name="Grupo 1430" transform="translate(12.686 10.414)">
        <path id="Trazado_13646" data-name="Trazado 13646" d="M1367.236,1208.117a5.483,5.483,0,0,1-2.095-.414,1.512,1.512,0,1,1,1.155-2.794,2.462,2.462,0,0,0,3.4-2.156c2.969-62.262-3.779-130.889-18.509-188.288a2.5,2.5,0,0,0-1.731-1.806,2.555,2.555,0,0,0-2.462.541,1.511,1.511,0,1,1-2.012-2.255,5.585,5.585,0,0,1,9.131,2.77c14.8,57.679,21.584,126.633,18.6,189.182a5.485,5.485,0,0,1-5.481,5.221Z" transform="translate(-1344.479 -1009.522)" fill="#541c27"/>
      </g>
      <g id="Grupo_1431" data-name="Grupo 1431" transform="translate(1.511 105.671)">
        <path id="Trazado_13647" data-name="Trazado 13647" d="M1371.543,1997.531v.008c-.626.561-1.021.848-1.021.848-8.825-17.4-14.6-10.8-14.6-10.8s.1,11.623-6.823,14.674c-4.191,1.846-10.959.551-21.883-8.379-28.961-23.67-38.528-7.051-38.528-7.051-14.007,27.291-23.416,21.807-31.062,3.775-10.667-5.289-21.288,0-21.288,0l7.022-16.617-9.821-4.785c3.525-9.824,13.256-14,13.256-14s2.97,19.6,23.983,19.609,26.6-9.592,52.263-2.605c16.872,4.594,32.483.217,41.2-3.322h0a55.731,55.731,0,0,0,7.213-3.463l7.629,13.854A23.369,23.369,0,0,1,1371.543,1997.531Z" transform="translate(-1233.541 -1955.205)" fill="#fbc100"/>
      </g>
      <g id="Grupo_1432" data-name="Grupo 1432" transform="translate(1.511 105.671)" opacity="0.55">
        <path id="Trazado_13648" data-name="Trazado 13648" d="M1276.642,2003.566c-7.762,5.807-13.794-.656-19.014-12.961-10.667-5.289-21.288,0-21.288,0l7.022-16.617-9.821-4.785c3.525-9.824,13.256-14,13.256-14s.06.389.215,1.057a24.861,24.861,0,0,0-7.53,9.4,1.557,1.557,0,0,0,.752,2.02l5.942,2.9a3.017,3.017,0,0,1,1.459,3.891l-5.9,13.982a27.064,27.064,0,0,1,14.493-2.107,11.663,11.663,0,0,1,8.736,6.326C1268.4,1999.512,1272.218,2003.689,1276.642,2003.566Z" transform="translate(-1233.541 -1955.205)" fill="#fff"/>
      </g>
      <g id="Grupo_1433" data-name="Grupo 1433" transform="translate(65.322 129.473)" opacity="0.55">
        <path id="Trazado_13649" data-name="Trazado 13649" d="M1920.988,2213.32c-3.874,3.5-10.992,3.754-24.081-6.945-14.274-11.67-23.839-13.549-29.866-12.449,4.852-3.27,15.577-5.787,35.256,10.3C1910.8,2211.172,1916.781,2213.5,1920.988,2213.32Z" transform="translate(-1867.041 -2191.502)" fill="#fff"/>
      </g>
      <g id="Grupo_1434" data-name="Grupo 1434" transform="translate(0 104.161)">
        <path id="Trazado_13650" data-name="Trazado 13650" d="M1257.57,1993.748c-.1,0-.2,0-.3,0-5.264-.191-9.812-5.123-14.295-15.5-9.672-4.477-19.352.191-19.452.238a1.512,1.512,0,0,1-2.062-1.941l6.463-15.3-8.534-4.158a1.508,1.508,0,0,1-.76-1.867c3.705-10.32,13.661-14.693,14.083-14.875a1.519,1.519,0,0,1,1.331.068,1.5,1.5,0,0,1,.758,1.094c.116.744,3.064,18.313,22.489,18.322h.046a73.767,73.767,0,0,0,18.982-2.709c8.97-2.186,17.443-4.25,33.633.156,24.751,6.736,47.02-6.482,47.241-6.615a1.51,1.51,0,1,1,1.563,2.584c-.952.576-23.611,14.021-49.6,6.947-15.437-4.2-23.172-2.318-32.125-.139a76.238,76.238,0,0,1-19.7,2.8h-.047c-17.917-.012-23.515-13.652-25-18.881-2.6,1.5-7.7,5.059-10.314,11.016l8.559,4.172a1.511,1.511,0,0,1,.731,1.947l-5.655,13.387a26.277,26.277,0,0,1,19.2,1.293,1.505,1.505,0,0,1,.719.762c3.933,9.271,7.92,14.043,11.851,14.186,4.716.16,10.235-5.906,16.477-18.064.01-.021.021-.041.033-.062a14.257,14.257,0,0,1,9.67-6.127c8.408-1.543,18.877,2.752,31.125,12.764,9.03,7.379,16.121,10.176,20.5,8.078,5.738-2.744,5.738-13.092,5.738-13.2a1.515,1.515,0,0,1,.375-1.006,5.756,5.756,0,0,1,4.917-1.693c3.725.467,7.51,4.2,11.273,11.111a21.739,21.739,0,0,0,6.6-16.672,1.511,1.511,0,1,1,3.021-.119,24.594,24.594,0,0,1-9.2,20.4,1.516,1.516,0,0,1-2.23-.545c-4.643-9.16-8.12-10.93-9.778-11.168a2.879,2.879,0,0,0-1.972.4c-.106,2.721-.94,12.1-7.437,15.213-5.592,2.682-13.573-.166-23.725-8.465-14.3-11.686-23.43-13.055-28.574-12.145a11.338,11.338,0,0,0-7.677,4.662C1269.728,1987.311,1263.523,1993.746,1257.57,1993.748Z" transform="translate(-1218.54 -1940.214)" fill="#541c27"/>
      </g>
      <g id="Grupo_1435" data-name="Grupo 1435" transform="translate(132.414 96.255)">
        <path id="Trazado_13651" data-name="Trazado 13651" d="M2549.48,1903.838a10.476,10.476,0,0,1-2.811-.416,1.51,1.51,0,0,1,.807-2.911c3.607,1,4.656-.622,5.133-1.936,1.313-3.6-.131-10.679-3.6-17.607-3.918-7.843-9.391-13.8-15.02-16.355a1.512,1.512,0,0,1,1.25-2.753c6.246,2.836,12.252,9.307,16.473,17.757,3.928,7.862,5.359,15.523,3.732,19.991A5.991,5.991,0,0,1,2549.48,1903.838Z" transform="translate(-2533.108 -1861.723)" fill="#541c27"/>
      </g>
      <g id="Grupo_1436" data-name="Grupo 1436" transform="translate(77.304 85.878)" opacity="0.3">
        <path id="Trazado_13652" data-name="Trazado 13652" d="M1986.136,1759.808h0c-.043-.367-.092-.736-.141-1.1Z" transform="translate(-1985.991 -1758.706)" fill="#760153"/>
      </g>
      <g id="Grupo_1437" data-name="Grupo 1437" transform="translate(75.718 86.981)" opacity="0.2">
        <path id="Trazado_13653" data-name="Trazado 13653" d="M1971.972,1769.656l-1.73.156.016-.156Z" transform="translate(-1970.241 -1769.656)" fill="#fff"/>
      </g>
      <g id="Grupo_1438" data-name="Grupo 1438" transform="translate(13.724 76.359)" opacity="0.3">
        <path id="Trazado_13654" data-name="Trazado 13654" d="M1354.792,1683.821c10.06,9.019,17.828-5.252,19.248-19.615l5.779,48.92C1367.336,1712.183,1355.264,1706.49,1354.792,1683.821Z" transform="translate(-1354.792 -1664.206)" fill="#760153"/>
      </g>
      <g id="Grupo_1439" data-name="Grupo 1439" transform="translate(13.727 96.036)" opacity="0.3">
        <path id="Trazado_13655" data-name="Trazado 13655" d="M1355.81,1868.742a49.518,49.518,0,0,1-.992-9.192Q1355.337,1864.11,1355.81,1868.742Z" transform="translate(-1354.817 -1859.55)" fill="#760153"/>
      </g>
      <g id="Grupo_1440" data-name="Grupo 1440" transform="translate(115.536 115.89)" opacity="0.3">
        <path id="Trazado_13656" data-name="Trazado 13656" d="M2389.523,2088.765c.7-1.9-1.025.855-1.025.855-8.822-17.4-14.6-10.8-14.6-10.8s.1,11.623-6.822,14.674l-1.539-.463q2.845-5.789,2.838-14.934c-.006-5.967,5.479-8.92,10.891-6.4,1.809.848,3.48,2.584,6.293,3.332,9.82,2.6,1.506-13.2-3.334-14.91a56.015,56.015,0,0,0,7.213-3.459l7.629,13.848A23.382,23.382,0,0,1,2389.523,2088.765Z" transform="translate(-2365.541 -2056.657)" fill="#541c27"/>
      </g>
      <g id="Grupo_1441" data-name="Grupo 1441" transform="translate(17.3 132.304)" opacity="0.3">
        <path id="Trazado_13657" data-name="Trazado 13657" d="M1509.927,2280.889a9.246,9.246,0,0,1-8.529,8.793l-83.129,6.49a25.615,25.615,0,0,1-5.047-.109c-.455-.137-.706-.215-.706-.215,35.267-2.77,63.759-9.986,73.76-29.352a10.717,10.717,0,0,0-5.709-14.836c-3.384-1.326-7.469-3.807-12.4-7.842-28.958-23.668-38.527-7.049-38.527-7.049-14.006,27.293-23.415,21.807-31.06,3.779a22.413,22.413,0,0,0-7.756-2.223q-.212-6.158-.528-12.223a22.6,22.6,0,0,1,8.3,2.271c7.645,18.027,17.055,23.514,31.06-3.779a10.779,10.779,0,0,1,2.82-2.926,59.366,59.366,0,0,1,14.29-2.064c5.508,1.324,12.554,4.8,21.418,12.045,14.365,11.74,21.54,10.283,25.126,5.836v-.006a15.153,15.153,0,0,0,2.665-5.57h.006a27.153,27.153,0,0,0,.911-6.557s5.2-5.939,13.271,8.328c.01.291.021.582.025.873.03.986.061,1.973.085,2.963q.113,4.436.167,8.857C1510.581,2258.053,1510.415,2269.6,1509.927,2280.889Z" transform="translate(-1390.291 -2219.605)" fill="#541c27"/>
      </g>
    </g>
    <g id="Grupo_1449" data-name="Grupo 1449" transform="translate(439.475 400.727)">
      <path id="Trazado_13658" data-name="Trazado 13658" d="M11.053,3.951A5.657,5.657,0,1,1,3.949.262,5.657,5.657,0,0,1,11.053,3.951Z" transform="translate(1.77 0) rotate(9)" fill="#291b22"/>
      <path id="Trazado_13659" data-name="Trazado 13659" d="M3.93,1.4a2.012,2.012,0,1,1-1-1.179A2.012,2.012,0,0,1,3.93,1.4Z" transform="translate(2.764 1.62) rotate(9)" fill="#f6f6f6"/>
    </g>
    <path id="Trazado_13660" data-name="Trazado 13660" d="M11.047,3.94A5.657,5.657,0,1,1,3.987.251,5.657,5.657,0,0,1,11.047,3.94Z" transform="translate(406.877 402.225) rotate(9)" fill="#291b22"/>
    <path id="Trazado_13661" data-name="Trazado 13661" d="M3.932,1.409A2.012,2.012,0,1,1,1.408.094,2.012,2.012,0,0,1,3.932,1.409Z" transform="translate(407.86 403.819) rotate(9)" fill="#f6f6f6"/>
    <path id="Trazado_13662" data-name="Trazado 13662" d="M10.443,1.543A4.262,4.262,0,1,1,2.314,4.111a1.185,1.185,0,1,0-2.259.715A6.632,6.632,0,1,0,12.7.828a1.185,1.185,0,0,0-2.259.715Z" transform="translate(423.077 415.169) rotate(9)" fill="#291b22"/>
  </g>
</svg>
