<svg id="poker" xmlns="http://www.w3.org/2000/svg" width="70.873" height="70.873" viewBox="0 0 70.873 70.873">
  <path id="Trazado_12856" data-name="Trazado 12856" d="M183.345,302.1l-12.282-13.427a2.076,2.076,0,0,0-3.091.029l-11.816,13.427a2.075,2.075,0,0,0,0,2.744L167.971,318.3a2.076,2.076,0,0,0,3.091.029L183.345,304.9A2.073,2.073,0,0,0,183.345,302.1Z" transform="translate(-134.094 -248.134)" fill="#ff6a4d"/>
  <path id="Trazado_12857" data-name="Trazado 12857" d="M171.763,0a7.765,7.765,0,0,0-6.228,3.127h0A7.764,7.764,0,0,0,159.305,0C154.494,0,151,4.016,151,8.9c0,6.2,5.725,10.026,13.167,16.537a2.078,2.078,0,0,0,2.735,0C174.344,18.928,180.069,15.1,180.069,8.9c0-4.888-3.5-8.9-8.305-8.9Z" transform="translate(-130.098 0)" fill="#ff6a4d"/>
  <path id="Trazado_12858" data-name="Trazado 12858" d="M257.376,25.441a2.074,2.074,0,0,1-1.366.514V3.127A7.765,7.765,0,0,1,262.238,0c4.81,0,8.305,4.016,8.305,8.9C270.543,15.1,264.818,18.928,257.376,25.441Z" transform="translate(-220.572 0)" fill="#f03800"/>
  <path id="Trazado_12859" data-name="Trazado 12859" d="M269.823,302.1a2.073,2.073,0,0,1,0,2.8l-12.282,13.427a2.065,2.065,0,0,1-1.531.676V288a2.076,2.076,0,0,1,1.531.675Z" transform="translate(-220.572 -248.134)" fill="#f03800"/>
  <path id="Trazado_12860" data-name="Trazado 12860" d="M22.836,132.567a8.305,8.305,0,1,0-16.6,0A8.3,8.3,0,1,0,12.458,147.8v5.27H10.382a2.076,2.076,0,0,0,0,4.153h8.305a2.076,2.076,0,0,0,0-4.153H16.611V147.8a8.3,8.3,0,1,0,6.225-15.232Z" transform="translate(0 -106.835)" fill="#384949"/>
  <path id="Trazado_12861" data-name="Trazado 12861" d="M119.534,140.611a8.3,8.3,0,0,1-12.458,7.188v5.27h2.076a2.076,2.076,0,0,1,0,4.153H105V124a8.315,8.315,0,0,1,8.3,8.567A8.321,8.321,0,0,1,119.534,140.611Z" transform="translate(-90.466 -106.835)" fill="#293939"/>
  <path id="Trazado_12862" data-name="Trazado 12862" d="M317.9,120.764a2.078,2.078,0,0,0-2.735,0C307.725,127.276,302,131.105,302,137.3c0,4.888,3.5,8.9,8.305,8.9a7.5,7.5,0,0,0,4.153-1.215v4.849h-2.076a2.076,2.076,0,1,0,0,4.153h8.305a2.076,2.076,0,0,0,0-4.153h-2.076v-4.849a7.5,7.5,0,0,0,4.153,1.215c4.812,0,8.305-4.016,8.305-8.9C331.069,131.1,325.344,127.275,317.9,120.764Z" transform="translate(-260.196 -103.605)" fill="#384949"/>
  <path id="Trazado_12863" data-name="Trazado 12863" d="M421.534,137.3c0,4.888-3.494,8.9-8.305,8.9a7.5,7.5,0,0,1-4.153-1.215v4.849h2.076a2.076,2.076,0,1,1,0,4.153H407V120.25a2.07,2.07,0,0,1,1.368.514C415.809,127.275,421.534,131.1,421.534,137.3Z" transform="translate(-350.662 -103.605)" fill="#293939"/>
</svg>
