<svg xmlns="http://www.w3.org/2000/svg" xmlns:xlink="http://www.w3.org/1999/xlink" width="163.694" height="157.588" viewBox="0 0 163.694 157.588">
  <defs>
    <linearGradient id="linear-gradient" x1="-1.43" y1="-0.037" x2="-0.782" y2="0.441" gradientUnits="objectBoundingBox">
      <stop offset="0" stop-color="#fff"/>
      <stop offset="0.49" stop-color="#fefafc"/>
      <stop offset="1" stop-color="#ea4c95"/>
    </linearGradient>
    <linearGradient id="linear-gradient-2" x1="-1.739" y1="-0.079" x2="-1.333" y2="0.217" xlink:href="#linear-gradient"/>
    <linearGradient id="linear-gradient-3" x1="-2.112" y1="-0.191" x2="-1.671" y2="0.233" xlink:href="#linear-gradient"/>
  </defs>
  <g id="Recurso_1" data-name="Recurso 1" transform="translate(0.026 -0.001)">
    <g id="Capa_2" data-name="Capa 2" transform="translate(-0.026 0.001)">
      <g id="Capa_1" data-name="Capa 1">
        <path id="Trazado_13568" data-name="Trazado 13568" d="M11.735,117.184l.461.831a77.911,77.911,0,0,0,27.657,28.1,81.218,81.218,0,0,0,115.52-36.471,74.308,74.308,0,0,0,3.338-8.937A77.3,77.3,0,0,0,162,73.176c-.092-1.538-.246-3.169-.446-4.768h0a9.229,9.229,0,0,0,2.107-5.676,30.4,30.4,0,0,0-2.876-13.367,34.379,34.379,0,0,0-2.461-4.815l-.154-.262c-2.63-4.184-6.153-6.261-6.722-5.584h0c-.138-.277-.308-.554-.477-.831a77.326,77.326,0,0,0-6.491-9.152,78.358,78.358,0,0,0-20.2-17.336A81.233,81.233,0,0,0,8.782,47.9,77.818,77.818,0,0,0,2.337,86.558C.552,86.358-.217,89.2.014,94.1h0a43.069,43.069,0,0,0,.569,4.753,2.5,2.5,0,0,0,.108.861C1.552,104.771,5.229,116.123,11.735,117.184Z" transform="translate(0.026 0.012)" fill="#ea4c95"/>
        <path id="Trazado_13569" data-name="Trazado 13569" d="M1.78,90.658,1.641,90.2l-.092-.261h0A28.089,28.089,0,0,1,.626,85.32C-.666,77.629.011,72.676,2.364,73.014,21.731,76,49.526,73.245,79,64.308c32.3-9.814,58.837-24.735,72.45-39.225.661-.692,4.245,1.538,6.891,5.845a41.624,41.624,0,0,1,3.492,7.445h0c.138.4.277.8.4,1.184v.185l.323,1.092h0c1.538,5.43,1.677,10.906-1.061,13.844C148.249,69.707,121.284,85.013,88.3,95.026c-29.38,8.922-57.129,11.69-76.5,8.752-4.492-.677-7.691-6.261-9.46-11.337V92.3c-.077-.2-.138-.4-.215-.615s-.092-.292-.154-.446A4.308,4.308,0,0,1,1.78,90.658Z" transform="translate(0.029 13.433)" fill="#e8318a"/>
        <path id="Trazado_13570" data-name="Trazado 13570" d="M162.775,41.413h0a40.915,40.915,0,0,0-3.492-7.445c-2.646-4.338-6.153-6.537-6.876-5.83-13.613,14.505-40.194,29.411-72.5,39.225C50.454,76.315,22.643,79.068,3.292,76.084.939,75.715.216,80.7,1.539,88.39a28.411,28.411,0,0,0,.938,4.538h0V92.8a2.394,2.394,0,0,0-.2-.615c-.062-.2-.108-.308-.154-.461s-.123-.385-.169-.569a3.261,3.261,0,0,1-.138-.477l-.092-.261h0a28.412,28.412,0,0,1-.938-4.615C-.507,78.114.185,73.146,2.523,73.5c19.366,2.984,47.162.231,76.634-8.706,32.287-9.783,58.837-24.673,72.45-39.178.646-.708,4.23,1.538,6.876,5.83a39.748,39.748,0,0,1,3.492,7.46h0c.138.4.277.784.4,1.184v.185l.323,1.092Z" transform="translate(0.116 13.716)" fill="#ee77ab"/>
        <path id="Trazado_13571" data-name="Trazado 13571" d="M1.092,85.449,1,85.187H1C2.8,90.263,5.968,95.8,10.445,96.493c19.366,2.938,47.1.169,76.48-8.752,32.995-10.014,59.991-25.334,73.3-40.117,2.738-3.076,2.569-8.476,1.061-13.844h0c.138.4.277.8.4,1.184v.185l.323,1.092h0c1.538,5.43,1.677,10.906-1.061,13.844C147.7,64.96,120.735,80.265,87.756,90.279c-29.38,8.922-57.129,11.69-76.5,8.752-4.492-.677-7.691-6.261-9.46-11.337v-.138c-.077-.2-.138-.4-.215-.615s-.092-.292-.154-.446a4.464,4.464,0,0,1-.169-.585Z" transform="translate(0.578 18.18)" fill="#dd0a80"/>
        <path id="Trazado_13572" data-name="Trazado 13572" d="M62.743,136.858C74.695,132.551,72.726,119.123,91,75.929c15.921-37.809,25-45.347,20.228-55.945C103.875,3.741,71.972-1.351,49.037,7.51c-32.3,12.46-55.237,56.114-41.532,91C17.3,123.122,45.253,143.134,62.743,136.858Z" transform="translate(1.902 1.719)" opacity="0.2" fill="url(#linear-gradient)"/>
        <path id="Trazado_13573" data-name="Trazado 13573" d="M47.811,10.9c18.059-8.076,41.686-7.46,43.47-.185,1.046,4.23-23.95,12.306-40.824,53.576-17.413,42.624-.523,70.45-4.615,72.912-4.707,2.815-32.01-15.782-39.286-40.594C-3.658,61.889,19.246,23.695,47.811,10.9Z" transform="translate(2.237 2.715)" opacity="0.15" fill="url(#linear-gradient-2)"/>
        <path id="Trazado_13574" data-name="Trazado 13574" d="M73.023,8.187c-.677-2.23-17.643-2.353-32.841,5.707C18.554,25.369,2.265,52.442,4.587,79.914,6.479,102.08,20.062,119.693,22.354,118.8s-7.691-17.982-5.368-41.532c2.984-29.841,23.458-48.762,25.781-50.853C57.84,12.848,73.7,10.4,73.023,8.187Z" transform="translate(2.39 3.702)" opacity="0.1" fill="url(#linear-gradient-3)"/>
        <path id="Trazado_13575" data-name="Trazado 13575" d="M33.335,15.238c4.03-2.384,13.059-4.615,10.491-1.969A133.5,133.5,0,0,0,20.245,40.141C16.322,46,10.415,43.633,11.692,39.7S21.721,22.1,33.335,15.238Z" transform="translate(6.237 6.497)" fill="#fff"/>
        <path id="Trazado_13576" data-name="Trazado 13576" d="M10.562,36.232c.938-1.969,7.937-2.692,7.291-1.354A77.726,77.726,0,0,0,9.609,70.673C9.532,84.471,1.149,55.906,10.562,36.232Z" transform="translate(3.321 18.404)" fill="#fff"/>
        <path id="Trazado_13577" data-name="Trazado 13577" d="M114.646,96.785C130.074,47.854,90.173,13.767,75.975,1A79.987,79.987,0,0,1,101.8,10.86a77.834,77.834,0,0,1,26.657,26.473l.492.831h0c.661-.708,4.23,1.538,6.891,5.845,4.338,7.137,7.691,18.859,3.23,23.858h0a77.726,77.726,0,0,1-6.153,41.24,80.756,80.756,0,0,1-49.638,44.178,82.125,82.125,0,0,1-41.532,2C61.085,150.484,99.218,145.7,114.646,96.785Z" transform="translate(22.511 0.537)" fill="#e2afc6" opacity="0.3"/>
        <path id="Trazado_13578" data-name="Trazado 13578" d="M51.45,102.55h-.4l1.446-.4Z" transform="translate(27.516 54.978)" fill="#cdcccc" opacity="0.54"/>
        <path id="Trazado_13579" data-name="Trazado 13579" d="M126.3,111.813a77.572,77.572,0,0,0,6.153-41.24l.077-.077c4.522-5,1.123-16.72-3.23-23.858-2.646-4.353-6.153-6.553-6.891-5.845h0c-.169-.277-.323-.554-.477-.831a77.864,77.864,0,0,0-26.7-26.411A80.51,80.51,0,0,0,45.253,2.63c-1.308-.123-2.615-.215-3.953-.261A80.68,80.68,0,0,1,102.044,11.4,77.833,77.833,0,0,1,128.7,37.871l.492.831h0c.661-.708,4.23,1.538,6.891,5.845,4.338,7.137,7.691,18.859,3.23,23.858h0a77.726,77.726,0,0,1-6.153,41.24,80.756,80.756,0,0,1-49.638,44.178c-1.154.369-2.323.708-3.492,1.015a80.634,80.634,0,0,0,46.27-43.024Z" transform="translate(22.268 -0.001)" fill="#e2afc6" opacity="0.8"/>
        <path id="Trazado_13580" data-name="Trazado 13580" d="M96.641,39.729A9.86,9.86,0,1,1,84.258,33.3,9.86,9.86,0,0,1,96.641,39.729Z" transform="translate(41.685 17.676)" fill="#6a2349"/>
        <path id="Trazado_13581" data-name="Trazado 13581" d="M85.627,36.925a3.507,3.507,0,1,1-1.735-2.054A3.507,3.507,0,0,1,85.627,36.925Z" transform="translate(42.439 18.557)" fill="#f6f6f6"/>
        <path id="Trazado_13582" data-name="Trazado 13582" d="M34.417,59.4a9.86,9.86,0,1,1-12.306-6.43A9.86,9.86,0,0,1,34.417,59.4Z" transform="translate(8.2 28.275)" fill="#6a2349"/>
        <path id="Trazado_13583" data-name="Trazado 13583" d="M23.4,56.6A3.507,3.507,0,1,1,19,54.307,3.507,3.507,0,0,1,23.4,56.6Z" transform="translate(8.945 29.14)" fill="#f6f6f6"/>
        <path id="Trazado_13584" data-name="Trazado 13584" d="M63.369,52.191A7.429,7.429,0,1,1,49.2,56.667a2.065,2.065,0,1,0-3.937,1.246,11.559,11.559,0,1,0,22.043-6.968,2.065,2.065,0,1,0-3.938,1.246Z" transform="translate(24.35 26.642)" fill="#6a2349"/>
      </g>
    </g>
  </g>
</svg>
