<svg id="Grupo_14447" data-name="Grupo 14447" xmlns="http://www.w3.org/2000/svg" width="57.858" height="35.847" viewBox="0 0 57.858 35.847">
  <g id="Grupo_14439" data-name="Grupo 14439">
    <path id="Trazado_13709" data-name="Trazado 13709" d="M372.95,758.013c-14.491-6.17-29.267-11.616-43.594-18.186a1.208,1.208,0,0,1,.916-2.235c14.669,5.777,28.838,12.657,43.331,18.829a.861.861,0,0,1-.653,1.592Z" transform="translate(-328.642 -737.497)" fill="#fff7c7"/>
  </g>
  <path id="Trazado_13710" data-name="Trazado 13710" d="M376.8,741.334a15.858,15.858,0,0,1,8.97,9.47,16.15,16.15,0,0,1-5.524,17.448,16.588,16.588,0,0,1-19.313.046c-5.488-4.137-6.718-12.622-4.061-18.656a16.074,16.074,0,0,1,14.06-9.458A14.707,14.707,0,0,1,376.8,741.334Z" transform="translate(-328.642 -737.497)" fill="#7a20a3"/>
  <g id="Grupo_14440" data-name="Grupo 14440" transform="translate(33.942 0.651)">
    <path id="Trazado_13711" data-name="Trazado 13711" d="M364.931,773.332l-.091.006a1.872,1.872,0,0,1-1.926-1.1c-.931-2.3.336-5.58.964-7.832.79-2.832,1.611-5.657,2.574-8.435.922-2.66,1.975-5.271,2.9-7.926.982-2.8,1.859-6.236,3.718-8.592,2.1-2.663,7.351-1.006,6.546,2.686-.679,3.112-2.647,5.944-4.08,8.772-1.314,2.592-2.432,5.3-3.558,7.977-1.137,2.7-2.311,5.39-3.4,8.113-.547,1.365-1.225,2.64-1.848,3.966-.392.837-.617,2.278-1.8,2.362Z" transform="translate(-362.583 -738.148)" fill="#9338be"/>
  </g>
  <g id="Grupo_14441" data-name="Grupo 14441" transform="translate(43.677 29.706)">
    <path id="Trazado_13712" data-name="Trazado 13712" d="M373.147,767.878c.012,0,.291-.076.293-.07q-.312.158-.1.037l.119-.071.515-.311a1.343,1.343,0,0,1,1.266-.167,1.256,1.256,0,0,1,.74.85,1.286,1.286,0,0,1-1.381,1.61l-.659-.048-.141-.01q-.1-.006.012,0l-.391.094a.971.971,0,0,1-1.092-.822,1,1,0,0,1,.823-1.092Z" transform="translate(-372.319 -767.203)" fill="#fff"/>
  </g>
  <g id="Grupo_14442" data-name="Grupo 14442" transform="translate(47.487 24.409)">
    <path id="Trazado_13713" data-name="Trazado 13713" d="M376.63,766.407a8.954,8.954,0,0,0,1.859-1.819c.527-.694.9-1.5,1.486-2.144a1.472,1.472,0,0,1,2.513,1.452c-.6,1.952-2.709,3.45-4.391,4.431-1.3.758-2.757-.967-1.467-1.92Z" transform="translate(-376.129 -761.906)" fill="#fff"/>
  </g>
  <g id="Grupo_14443" data-name="Grupo 14443" transform="translate(30.131 5.971)">
    <path id="Trazado_13714" data-name="Trazado 13714" d="M358.829,750.007a11.232,11.232,0,0,1,5.619-6.442c.977-.508,1.927,1.1.974,1.685a13.6,13.6,0,0,0-5.057,5.387.831.831,0,0,1-1.536-.63Z" transform="translate(-358.773 -743.467)" fill="#fff"/>
  </g>
  <g id="Grupo_14444" data-name="Grupo 14444" transform="translate(35.37 31.069)">
    <path id="Trazado_13715" data-name="Trazado 13715" d="M364.1,770.722c-.028-.332-.055-.663-.082-.995a1.026,1.026,0,1,1,2.036-.02q-.108.5-.218,1a.888.888,0,0,1-.861.764.871.871,0,0,1-.875-.747Z" transform="translate(-364.012 -768.566)" fill="#fff"/>
  </g>
  <g id="Grupo_14445" data-name="Grupo 14445" transform="translate(44.456 4.375)">
    <path id="Trazado_13716" data-name="Trazado 13716" d="M373.144,747.873l1.977-5.455c.4-1.1,2.165-.374,1.676.688l-2.424,5.271a.665.665,0,0,1-1.229-.5Z" transform="translate(-373.097 -741.872)" fill="#fff"/>
  </g>
  <g id="Grupo_14446" data-name="Grupo 14446" transform="translate(46.931 1.806)">
    <path id="Trazado_13717" data-name="Trazado 13717" d="M375.664,739.972a1.118,1.118,0,0,1,2.067.848,1.118,1.118,0,0,1-2.067-.848Z" transform="translate(-375.573 -739.303)" fill="#fff"/>
  </g>
</svg>
