<svg xmlns="http://www.w3.org/2000/svg" xmlns:xlink="http://www.w3.org/1999/xlink" width="77.888" height="84.053" viewBox="0 0 77.888 84.053">
  <defs>
    <clipPath id="clip-path">
      <circle id="Elipse_238" data-name="Elipse 238" cx="18.636" cy="18.636" r="18.636" transform="matrix(0.741, -0.672, 0.672, 0.741, 0, 25.044)" fill="none" opacity="0.62" style="mix-blend-mode: multiply;isolation: isolate"/>
    </clipPath>
  </defs>
  <g id="Grupo_14672" data-name="Grupo 14672" transform="matrix(0.588, 0.809, -0.809, 0.588, 54.489, -4.597)">
    <g id="Grupo_14671" data-name="Grupo 14671" transform="translate(0 0)">
      <g id="Grupo_14655" data-name="Grupo 14655" transform="translate(5.682 0)">
        <path id="Trazado_14877" data-name="Trazado 14877" d="M12.838,25.362c-3.875-2.319-7.8-4.77-10.629-8.331C.83,15.294-.3,13.111.072,10.921A4.89,4.89,0,0,1,3.525,7.082a4.865,4.865,0,0,1,4.9,1.6A7.689,7.689,0,0,1,14.63.057,7.744,7.744,0,0,1,22.958,6.7a7.042,7.042,0,0,1,6.658-2.306,5.88,5.88,0,0,1,4.509,5.3c.083,2.728-1.9,4.994-3.751,6.947l-3.794,4a4.493,4.493,0,0,1-1.044.9c-.756.415-6.809,6.37-6.809,6.37l-5.889-2.544" transform="translate(0 0)" fill="#e295ff"/>
        <path id="Trazado_14878" data-name="Trazado 14878" d="M13.542,13.739c2.547,2.637,4,6.165,7.286,3.489a7.921,7.921,0,0,0,1.223-6.066c1.858,3.469,5.207,4.844,8.826,4.945C32.569,14.278,34.2,12.18,34.125,9.7a5.88,5.88,0,0,0-4.509-5.3A7.042,7.042,0,0,0,22.958,6.7,7.744,7.744,0,0,0,14.63.057a7.688,7.688,0,0,0-6.2,8.621,4.865,4.865,0,0,0-4.9-1.6A4.89,4.89,0,0,0,.072,10.921c-.372,2.19.758,4.373,2.138,6.11a29.518,29.518,0,0,0,7.129,6.155C12.936,21.689,15.5,18.1,13.542,13.739Z" transform="translate(0 0)" fill="#e295ff"/>
        <path id="Trazado_14879" data-name="Trazado 14879" d="M14.3.057A7.688,7.688,0,0,0,8.1,8.678a4.865,4.865,0,0,0-4.9-1.6A4.874,4.874,0,0,0,0,10.029C3.193,7.638,7.122,11.606,10.629,12.3c.12-3.135-.392-6.291.337-8.779,1.361-2.467,4.524-2.363,6.373-1.047,1.241.669,1.826,1.944,3.067,2.613a4.567,4.567,0,0,1,1.121,3.8c5.64-4.227,9.347-1.542,11.923,2.917A5.812,5.812,0,0,0,33.8,9.7a5.88,5.88,0,0,0-4.509-5.3A7.042,7.042,0,0,0,22.628,6.7,7.744,7.744,0,0,0,14.3.057Z" transform="translate(0.33 0)" fill="#efc6ff"/>
        <path id="Trazado_14880" data-name="Trazado 14880" d="M16.2,10.373a4.493,4.493,0,0,0,1.044-.9l3.794-4c.168-.176.336-.356.5-.537C17.108,7.573,14.95,6.808,12.712,0c.554,2.446.506,5.157-.452,6.66C9.828,9.48,7.893,7.784,4.2,2.577c3.683,8.607,2.472,9.844-4.2,9.447,1.151.754,2.326,1.474,3.5,2.176l5.889,2.544S15.442,10.789,16.2,10.373Z" transform="translate(9.339 11.162)" fill="#d368ff"/>
      </g>
      <g id="Grupo_14656" data-name="Grupo 14656" transform="translate(17.445 54.414)">
        <path id="Trazado_14881" data-name="Trazado 14881" d="M21.5,2.22c3.807,2.055,7.66,4.229,10.4,7.447,1.336,1.57,2.416,3.556,2,5.578a4.922,4.922,0,0,1-8.357,2.236c.578,3.611-2.481,7.5-6.348,8.06s-7.794-2.3-8.148-5.942a7.6,7.6,0,0,1-6.671,2.259A5.253,5.253,0,0,1,0,17.071c-.026-2.508,1.99-4.635,3.874-6.469L7.73,6.847A4.7,4.7,0,0,1,8.788,6c.76-.4,6.9-6,6.9-6L21.5,2.22" transform="translate(0 0)" fill="#e295ff"/>
        <path id="Trazado_14882" data-name="Trazado 14882" d="M20.557,8.779c-2.478-2.374-3.848-5.592-7.175-3.061a7.043,7.043,0,0,0-1.341,5.607c-1.777-3.153-5.08-4.35-8.678-4.369C1.643,8.674-.023,10.638,0,12.92a5.253,5.253,0,0,0,4.376,4.788,7.6,7.6,0,0,0,6.671-2.259c.354,3.643,4.281,6.507,8.148,5.942s6.926-4.45,6.348-8.06A4.922,4.922,0,0,0,33.9,11.095c.415-2.022-.665-4.008-2-5.578A27.11,27.11,0,0,0,24.933,0C21.323,1.452,18.7,4.809,20.557,8.779Z" transform="translate(0 4.15)" fill="#e295ff"/>
        <path id="Trazado_14883" data-name="Trazado 14883" d="M19.194,11.345c3.867-.565,6.926-4.45,6.348-8.06a4.916,4.916,0,0,0,4.842,1.368,5.014,5.014,0,0,0,3.24-2.778C30.4,4.141,26.572.571,23.1,0c-.184,2.887.261,5.781-.515,8.085-1.4,2.3-4.548,2.267-6.361,1.094-1.221-.59-1.776-1.751-3-2.341a3.858,3.858,0,0,1-1.037-3.477C6.49,7.366,2.858,4.971.387.921A5.1,5.1,0,0,0,0,2.875,5.253,5.253,0,0,0,4.376,7.662,7.6,7.6,0,0,0,11.047,5.4C11.4,9.046,15.328,11.91,19.194,11.345Z" transform="translate(0 14.196)" fill="#efc6ff"/>
        <path id="Trazado_14884" data-name="Trazado 14884" d="M5.425,6a4.7,4.7,0,0,0-1.057.845L.511,10.6c-.17.166-.34.335-.511.5,4.686-2.611,6.685-.749,8.678,4.369a7.043,7.043,0,0,1,1.341-5.607c3.327-2.531,4.7.687,7.175,3.061-1.859-3.97.766-7.328,4.376-8.779-1.13-.67-2.284-1.308-3.437-1.93L12.328,0S6.185,5.6,5.425,6Z" transform="translate(3.363 0)" fill="#d368ff"/>
      </g>
      <g id="Grupo_14669" data-name="Grupo 14669" transform="translate(0 15.601)">
        <circle id="Elipse_236" data-name="Elipse 236" cx="20.359" cy="20.359" r="20.359" transform="matrix(0.885, -0.466, 0.466, 0.885, 0, 18.988)" fill="#d97bff"/>
        <circle id="Elipse_237" data-name="Elipse 237" cx="18.636" cy="18.636" r="18.636" transform="matrix(1, -0.004, 0.004, 1, 8.786, 8.951)" fill="#e7aaff"/>
        <g id="Grupo_14664" data-name="Grupo 14664" transform="translate(1.18 1.18)" opacity="0.64" style="mix-blend-mode: multiply;isolation: isolate">
          <g id="Grupo_14663" data-name="Grupo 14663" transform="translate(0 0)" clip-path="url(#clip-path)">
            <g id="Grupo_14657" data-name="Grupo 14657" transform="translate(8.31 9.949)">
              <path id="Trazado_14885" data-name="Trazado 14885" d="M1.156,26.92c7.037-.1,14.625-2.372,19.889-7.205A27.349,27.349,0,0,0,29.565,1.2c.092-1.569-2.346-1.6-2.438-.042a24.851,24.851,0,0,1-7.8,16.829c-4.773,4.382-11.761,6.405-18.131,6.5-1.568.023-1.612,2.461-.042,2.438Z" transform="translate(0 0)" fill="#c080ff"/>
            </g>
            <g id="Grupo_14658" data-name="Grupo 14658" transform="translate(4.028 5.315)">
              <path id="Trazado_14886" data-name="Trazado 14886" d="M1.156,26.92c7.037-.1,14.624-2.372,19.889-7.205A27.349,27.349,0,0,0,29.565,1.2c.092-1.57-2.346-1.6-2.438-.042a24.857,24.857,0,0,1-7.8,16.829c-4.773,4.382-11.762,6.405-18.131,6.5-1.568.024-1.612,2.461-.042,2.438Z" transform="translate(0 0)" fill="#c080ff"/>
            </g>
            <g id="Grupo_14659" data-name="Grupo 14659" transform="translate(0.092 1.832)">
              <path id="Trazado_14887" data-name="Trazado 14887" d="M1.156,26.92c7.037-.1,14.624-2.373,19.889-7.205A27.35,27.35,0,0,0,29.565,1.2c.092-1.57-2.346-1.6-2.438-.042a24.857,24.857,0,0,1-7.8,16.829c-4.774,4.382-11.762,6.4-18.132,6.5C-.37,24.5-.414,26.943,1.156,26.92Z" transform="translate(0 0)" fill="#c080ff"/>
            </g>
            <g id="Grupo_14660" data-name="Grupo 14660" transform="translate(-3.591 -2.926)">
              <path id="Trazado_14888" data-name="Trazado 14888" d="M1.156,26.92c7.037-.1,14.625-2.372,19.889-7.205A27.35,27.35,0,0,0,29.565,1.2c.092-1.57-2.346-1.6-2.438-.042a24.852,24.852,0,0,1-7.8,16.829c-4.773,4.382-11.761,6.405-18.131,6.5-1.568.024-1.612,2.461-.042,2.438Z" transform="translate(0 0)" fill="#c080ff"/>
            </g>
            <g id="Grupo_14661" data-name="Grupo 14661" transform="translate(11.539 13.463)">
              <path id="Trazado_14889" data-name="Trazado 14889" d="M1.194,27.8c7.169-.1,14.851-2.386,20.291-7.212A28.166,28.166,0,0,0,30.532,1.235c.1-1.621-2.423-1.657-2.518-.043a25.543,25.543,0,0,1-8.3,17.609C14.765,23.149,7.728,25.19,1.237,25.283c-1.619.023-1.665,2.541-.043,2.518Z" transform="translate(0 0)" fill="#c080ff"/>
            </g>
            <g id="Grupo_14662" data-name="Grupo 14662" transform="translate(15.529 17.955)">
              <path id="Trazado_14890" data-name="Trazado 14890" d="M1.194,27.8c7.169-.1,14.851-2.385,20.291-7.212A28.165,28.165,0,0,0,30.532,1.235c.1-1.621-2.423-1.657-2.518-.044a25.543,25.543,0,0,1-8.3,17.609C14.765,23.148,7.728,25.19,1.237,25.283c-1.619.023-1.665,2.541-.043,2.518Z" transform="translate(0 0)" fill="#c080ff"/>
            </g>
          </g>
        </g>
        <g id="Grupo_14668" data-name="Grupo 14668" transform="translate(10.173 12.619)">
          <g id="Grupo_14665" data-name="Grupo 14665" transform="translate(0 6.372)" opacity="0.94" style="mix-blend-mode: hard-light;isolation: isolate">
            <path id="Trazado_14891" data-name="Trazado 14891" d="M1.7,11.019A33.32,33.32,0,0,1,3.066,5.855C3.77,4.194,5.1,2.913,5.792,1.279,6.154.43,5.052-.268,4.341.1,2.594,1.006,1.573,3.257.89,5.008a10.273,10.273,0,0,0-.7,5.974.786.786,0,0,0,1.506.038Z" transform="translate(0 0)" fill="#f4d8ff"/>
          </g>
          <g id="Grupo_14666" data-name="Grupo 14666" transform="translate(6.094 2.454)" opacity="0.94" style="mix-blend-mode: hard-light;isolation: isolate">
            <path id="Trazado_14892" data-name="Trazado 14892" d="M.928,2.9a2.187,2.187,0,0,0,.927-.654,3.874,3.874,0,0,0,.669-.878A.9.9,0,0,0,1.145.236a3.823,3.823,0,0,0-.7.848A2.247,2.247,0,0,0,0,2.159.754.754,0,0,0,.928,2.9Z" transform="translate(0 0)" fill="#f4d8ff"/>
          </g>
          <g id="Grupo_14667" data-name="Grupo 14667" transform="translate(9.875 0)" opacity="0.94" style="mix-blend-mode: hard-light;isolation: isolate">
            <path id="Trazado_14893" data-name="Trazado 14893" d="M.624,1.679a1.251,1.251,0,0,1,.438-.366,2.217,2.217,0,0,1,.315-.059A1.963,1.963,0,0,0,1.748,1.1.586.586,0,0,0,2.013.371.6.6,0,0,0,1.327.008a1.281,1.281,0,0,0-.82.538,2.716,2.716,0,0,0-.457.662.381.381,0,0,0,.082.485.37.37,0,0,0,.491-.014Z" transform="translate(0)" fill="#f4d8ff"/>
          </g>
        </g>
        <path id="Trazado_14894" data-name="Trazado 14894" d="M11.839,1.288A18.639,18.639,0,0,0,.462,22.752l.042.009a4.417,4.417,0,0,0,5.063-3.017C8.04,11.737,14.865,4.809,22.907.5A18.54,18.54,0,0,0,11.839,1.288Z" transform="translate(8.864 8.865)" fill="#f4d8ff" opacity="0.91" style="mix-blend-mode: hard-light;isolation: isolate"/>
      </g>
      <g id="Grupo_14670" data-name="Grupo 14670" transform="translate(11.472 50.26)" opacity="0.91" style="mix-blend-mode: hard-light;isolation: isolate">
        <path id="Trazado_14895" data-name="Trazado 14895" d="M.216,1.6,1.344,2.977c.464.569.907,1.114,1.727,1.035A1.074,1.074,0,0,0,4.14,2.985a1.737,1.737,0,0,0-.287-1.047A3.358,3.358,0,0,0,2.927,1.2L1.392.166C.476-.454-.425.809.216,1.6Z" transform="translate(0 0)" fill="#f4d8ff"/>
      </g>
    </g>
  </g>
</svg>
