<svg xmlns="http://www.w3.org/2000/svg" xmlns:xlink="http://www.w3.org/1999/xlink" width="104.567" height="89.142" viewBox="0 0 104.567 89.142">
  <defs>
    <clipPath id="clip-path">
      <circle id="Elipse_235" data-name="Elipse 235" cx="20.914" cy="20.914" r="20.914" transform="translate(0 14.444) rotate(-20.201)" fill="none" opacity="0.62" style="mix-blend-mode: multiply;isolation: isolate"/>
    </clipPath>
    <clipPath id="clip-path-2">
      <circle id="Elipse_238" data-name="Elipse 238" cx="18.636" cy="18.636" r="18.636" transform="matrix(0.741, -0.672, 0.672, 0.741, 0, 25.044)" fill="none" opacity="0.62" style="mix-blend-mode: multiply;isolation: isolate"/>
    </clipPath>
  </defs>
  <g id="Grupo_15891" data-name="Grupo 15891" transform="translate(-15.27 -8.655)">
    <g id="Grupo_14654" data-name="Grupo 14654" transform="translate(15.27 8.655)">
      <g id="Grupo_14653" data-name="Grupo 14653" transform="translate(0 0)">
        <g id="Grupo_14637" data-name="Grupo 14637" transform="translate(47.484)">
          <path id="Trazado_14857" data-name="Trazado 14857" d="M95.875,29.633c0-5.068.092-10.26,1.888-15.038.876-2.329,2.326-4.677,4.648-5.582a5.489,5.489,0,0,1,5.688,1.11,5.46,5.46,0,0,1,1.29,5.639,8.628,8.628,0,0,1,11.878,1,8.692,8.692,0,0,1-1.591,11.849,7.9,7.9,0,0,1,6.061,5.08,6.6,6.6,0,0,1-2.5,7.4c-2.578,1.653-5.9,1.054-8.851.4l-6.035-1.348a5.032,5.032,0,0,1-1.464-.489c-.836-.488-10.06-2.879-10.06-2.879l-.948-7.136" transform="translate(-95.875 -8.655)" fill="#ff976f"/>
          <path id="Trazado_14858" data-name="Trazado 14858" d="M107.522,23.606c-1.069,3.972-3.63,7.4.845,9.025a8.886,8.886,0,0,0,6.544-2.322c-2.267,3.789-1.659,7.807.331,11.349,2.736.573,5.7.933,8.043-.571a6.6,6.6,0,0,0,2.5-7.4,7.9,7.9,0,0,0-6.061-5.08,8.692,8.692,0,0,0,1.591-11.849,8.628,8.628,0,0,0-11.878-1,5.46,5.46,0,0,0-1.29-5.639,5.489,5.489,0,0,0-5.688-1.11c-2.322.9-3.772,3.253-4.648,5.582A33.114,33.114,0,0,0,96,25.009C99.52,27.608,104.457,28.005,107.522,23.606Z" transform="translate(-95.928 -8.655)" fill="#ff976f"/>
          <path id="Trazado_14859" data-name="Trazado 14859" d="M126.53,16.768a8.628,8.628,0,0,0-11.878-1,5.461,5.461,0,0,0-1.29-5.639,5.473,5.473,0,0,0-4.68-1.377c4.143,1.695,2.59,7.766,3.94,11.546,3.088-1.692,5.831-4.006,8.646-4.74,3.16-.113,4.884,2.991,4.684,5.532.072,1.581-.818,2.879-.746,4.459a5.124,5.124,0,0,1-3.016,3.274c7.322,2.991,6.876,8.108,4.069,13.16A6.519,6.519,0,0,0,128.5,41.1a6.6,6.6,0,0,0,2.5-7.4,7.9,7.9,0,0,0-6.061-5.08A8.692,8.692,0,0,0,126.53,16.768Z" transform="translate(-101.137 -8.663)" fill="#ffbaa0"/>
          <path id="Trazado_14860" data-name="Trazado 14860" d="M106.883,50.077a5.03,5.03,0,0,0,1.464.489l6.034,1.348c.266.059.536.117.808.174-5.086-2.749-5.594-5.268-.331-11.349-2.035,1.945-4.671,3.462-6.672,3.407-4.117-.715-3.6-3.556-.717-10.111-6.161,8.511-8.05,8.058-11.518,1.4-.062,1.543-.077,3.089-.076,4.624l.948,7.136S106.047,49.589,106.883,50.077Z" transform="translate(-95.875 -19.084)" fill="#ff7542"/>
        </g>
        <g id="Grupo_14638" data-name="Grupo 14638" transform="translate(0 45.692)">
          <path id="Trazado_14861" data-name="Trazado 14861" d="M44.43,99.2c.218,4.849.348,9.814-1.169,14.308-.74,2.192-2.029,4.377-4.215,5.145a5.524,5.524,0,0,1-6.972-6.755c-3.142,2.639-8.647,1.935-11.421-1.461s-2.283-8.829,1.02-11.27a8.534,8.534,0,0,1-6.022-5.119,5.893,5.893,0,0,1,2.084-6.974c2.4-1.472,5.609-.758,8.462,0l5.838,1.546a5.228,5.228,0,0,1,1.423.53c.822.5,9.76,3.183,9.76,3.183L44.43,99.2" transform="translate(-15.269 -86.218)" fill="#ff976f"/>
          <path id="Trazado_14862" data-name="Trazado 14862" d="M33.579,104.475c.855-3.755,3.163-6.929-1.193-8.672a7.9,7.9,0,0,0-6.171,1.943c2.011-3.529,1.257-7.4-.8-10.874-2.646-.664-5.5-1.135-7.681.2A5.893,5.893,0,0,0,15.65,94.05a8.531,8.531,0,0,0,6.022,5.118c-3.3,2.442-3.795,7.874-1.02,11.271s8.28,4.1,11.421,1.461a5.524,5.524,0,0,0,6.972,6.755c2.186-.768,3.475-2.953,4.215-5.145a30.409,30.409,0,0,0,1.294-9.887C41.075,100.986,36.329,100.4,33.579,104.475Z" transform="translate(-15.269 -86.219)" fill="#ff976f"/>
          <path id="Trazado_14863" data-name="Trazado 14863" d="M20.652,110.51c2.775,3.4,8.28,4.1,11.421,1.461a5.518,5.518,0,0,0,1.476,5.45,5.628,5.628,0,0,0,4.542,1.517c-4.041-1.8-2.812-7.542-4.266-11.216-2.886,1.489-5.415,3.586-8.081,4.168-3.023-.027-4.806-3.071-4.723-5.493-.137-1.516.661-2.72.525-4.235a4.328,4.328,0,0,1,2.749-3c-7.142-3.174-6.932-8.052-4.459-12.766a5.715,5.715,0,0,0-2.1.754,5.893,5.893,0,0,0-2.084,6.974,8.533,8.533,0,0,0,6.022,5.119C18.369,101.682,17.878,107.114,20.652,110.51Z" transform="translate(-15.269 -86.29)" fill="#ffbaa0"/>
          <path id="Trazado_14864" data-name="Trazado 14864" d="M40.536,89.6a5.238,5.238,0,0,0-1.424-.53l-5.838-1.546c-.257-.068-.519-.135-.781-.2,5.217,3,4.577,6,.8,10.874a7.9,7.9,0,0,1,6.171-1.943c4.356,1.743,2.048,4.917,1.193,8.672,2.75-4.079,7.5-3.489,10.975-.851-.006-1.474-.058-2.953-.124-4.422L50.3,92.788S41.357,90.107,40.536,89.6Z" transform="translate(-22.347 -86.674)" fill="#ff7542"/>
        </g>
        <g id="Grupo_14651" data-name="Grupo 14651" transform="translate(7.105 11.379)">
          <circle id="Elipse_233" data-name="Elipse 233" cx="22.848" cy="22.848" r="22.848" transform="translate(0 13.221) rotate(-16.818)" fill="#ff8456"/>
          <circle id="Elipse_234" data-name="Elipse 234" cx="20.914" cy="20.914" r="20.914" transform="translate(7.567 7.567)" fill="#ffa684"/>
          <g id="Grupo_14646" data-name="Grupo 14646" transform="translate(1.632 1.632)" opacity="0.64" style="mix-blend-mode: multiply;isolation: isolate">
            <g id="Grupo_14645" data-name="Grupo 14645" transform="translate(0)" clip-path="url(#clip-path)">
              <g id="Grupo_14639" data-name="Grupo 14639" transform="translate(6.763 14.69)">
                <path id="Trazado_14865" data-name="Trazado 14865" d="M41.792,57.693c4.16,6.714,10.72,12.71,18.408,14.989A30.693,30.693,0,0,0,82.942,70.2c1.565-.816.191-3.184-1.366-2.371a27.893,27.893,0,0,1-20.7,2.2c-6.972-2.068-12.95-7.627-16.715-13.7-.927-1.5-3.3-.132-2.371,1.366Z" transform="translate(-41.581 -55.679)" fill="#ff615d"/>
              </g>
              <g id="Grupo_14640" data-name="Grupo 14640" transform="translate(8.753 7.895)">
                <path id="Trazado_14866" data-name="Trazado 14866" d="M45.171,46.158c4.16,6.714,10.72,12.709,18.408,14.989a30.693,30.693,0,0,0,22.742-2.481c1.564-.817.191-3.184-1.366-2.371a27.89,27.89,0,0,1-20.7,2.2c-6.972-2.067-12.95-7.627-16.715-13.7-.927-1.5-3.3-.133-2.371,1.366Z" transform="translate(-44.96 -44.144)" fill="#ff615d"/>
              </g>
              <g id="Grupo_14641" data-name="Grupo 14641" transform="translate(9.836 2.097)">
                <path id="Trazado_14867" data-name="Trazado 14867" d="M47.009,36.315c4.16,6.714,10.72,12.71,18.409,14.989A30.691,30.691,0,0,0,88.16,48.823c1.565-.816.191-3.184-1.366-2.371a27.893,27.893,0,0,1-20.7,2.2c-6.971-2.068-12.95-7.627-16.715-13.7-.927-1.5-3.3-.132-2.371,1.366Z" transform="translate(-46.798 -34.301)" fill="#ff615d"/>
              </g>
              <g id="Grupo_14642" data-name="Grupo 14642" transform="translate(12.291 -4.193)">
                <path id="Trazado_14868" data-name="Trazado 14868" d="M51.177,25.637c4.16,6.714,10.72,12.71,18.409,14.989a30.689,30.689,0,0,0,22.741-2.481c1.565-.816.191-3.184-1.366-2.37a27.893,27.893,0,0,1-20.7,2.2c-6.971-2.067-12.95-7.627-16.715-13.7-.927-1.5-3.3-.132-2.371,1.366Z" transform="translate(-50.966 -23.623)" fill="#ff615d"/>
              </g>
              <g id="Grupo_14643" data-name="Grupo 14643" transform="translate(4.41 20.303)">
                <path id="Trazado_14869" data-name="Trazado 14869" d="M37.8,67.288c4.234,6.842,10.863,12.92,18.646,15.373A31.611,31.611,0,0,0,80.3,80.205c1.616-.844.2-3.288-1.411-2.448a28.666,28.666,0,0,1-21.74,2.166c-7.04-2.255-13.064-7.851-16.9-14.046-.957-1.545-3.407-.137-2.449,1.411Z" transform="translate(-37.587 -65.208)" fill="#ff615d"/>
              </g>
              <g id="Grupo_14644" data-name="Grupo 14644" transform="translate(2.388 26.735)">
                <path id="Trazado_14870" data-name="Trazado 14870" d="M34.373,78.207c4.234,6.842,10.863,12.92,18.646,15.372a31.608,31.608,0,0,0,23.85-2.455c1.616-.843.2-3.288-1.411-2.448a28.666,28.666,0,0,1-21.74,2.166c-7.04-2.254-13.064-7.851-16.9-14.046-.956-1.546-3.406-.137-2.448,1.411Z" transform="translate(-34.155 -76.126)" fill="#ff615d"/>
              </g>
            </g>
          </g>
          <g id="Grupo_14650" data-name="Grupo 14650" transform="translate(15.971 10.31)">
            <g id="Grupo_14647" data-name="Grupo 14647" opacity="0.94" style="mix-blend-mode: hard-light;isolation: isolate">
              <path id="Trazado_14871" data-name="Trazado 14871" d="M55.522,50.042a37.358,37.358,0,0,1,5.759-1.664c2.005-.28,4,.257,5.977-.015,1.026-.141,1.062-1.6.3-2.076-1.879-1.159-4.634-.844-6.713-.491a11.529,11.529,0,0,0-6.154,2.775.883.883,0,0,0,.834,1.472Z" transform="translate(-54.441 -45.472)" fill="#ffc7b2"/>
            </g>
            <g id="Grupo_14648" data-name="Grupo 14648" transform="translate(15.495 1.225)" opacity="0.94" style="mix-blend-mode: hard-light;isolation: isolate">
              <path id="Trazado_14872" data-name="Trazado 14872" d="M80.987,49.077a2.454,2.454,0,0,0,1.164.515,4.347,4.347,0,0,0,1.231.137,1.011,1.011,0,0,0,.3-1.981,4.3,4.3,0,0,0-1.223-.189,2.518,2.518,0,0,0-1.288.2.845.845,0,0,0-.18,1.32Z" transform="translate(-80.745 -47.551)" fill="#ffc7b2"/>
            </g>
            <g id="Grupo_14649" data-name="Grupo 14649" transform="translate(20.98 3.139)" opacity="0.94" style="mix-blend-mode: hard-light;isolation: isolate">
              <path id="Trazado_14873" data-name="Trazado 14873" d="M90.356,51.639a1.4,1.4,0,0,1,.6.21,2.415,2.415,0,0,1,.239.27,2.218,2.218,0,0,0,.363.267.659.659,0,0,0,.854-.166.674.674,0,0,0-.047-.869,1.435,1.435,0,0,0-.991-.478,3.022,3.022,0,0,0-.9-.058.429.429,0,0,0-.419.358.416.416,0,0,0,.3.466Z" transform="translate(-90.056 -50.801)" fill="#ffc7b2"/>
            </g>
          </g>
          <path id="Trazado_14874" data-name="Trazado 14874" d="M78.38,45.175a20.918,20.918,0,0,0-27.224,1.43l.016.046A4.956,4.956,0,0,0,57,49.785c9.134-2.239,19.74.335,28.527,5.59A20.811,20.811,0,0,0,78.38,45.175Z" transform="translate(-37.121 -33.249)" fill="#ffc7b2" opacity="0.91" style="mix-blend-mode: hard-light;isolation: isolate"/>
        </g>
        <g id="Grupo_14652" data-name="Grupo 14652" transform="translate(17.041 28.963)" opacity="0.91" style="mix-blend-mode: hard-light;isolation: isolate">
          <path id="Trazado_14875" data-name="Trazado 14875" d="M45.2,58.541l-.68,1.882a2.209,2.209,0,0,0,0,2.26,1.2,1.2,0,0,0,1.6.437,1.947,1.947,0,0,0,.843-.881,3.778,3.778,0,0,0,.173-1.314l.114-2.077c.068-1.239-1.668-1.378-2.055-.307Z" transform="translate(-44.197 -57.82)" fill="#ffc7b2"/>
        </g>
      </g>
    </g>
    <g id="Grupo_14672" data-name="Grupo 14672" transform="matrix(0.588, 0.809, -0.809, 0.588, 96.437, 9.147)">
      <g id="Grupo_14671" data-name="Grupo 14671" transform="translate(0 0)">
        <g id="Grupo_14655" data-name="Grupo 14655" transform="translate(5.682 0)">
          <path id="Trazado_14877" data-name="Trazado 14877" d="M12.838,25.362c-3.875-2.319-7.8-4.77-10.629-8.331C.83,15.294-.3,13.111.072,10.921A4.89,4.89,0,0,1,3.525,7.082a4.865,4.865,0,0,1,4.9,1.6A7.689,7.689,0,0,1,14.63.057,7.744,7.744,0,0,1,22.958,6.7a7.042,7.042,0,0,1,6.658-2.306,5.88,5.88,0,0,1,4.509,5.3c.083,2.728-1.9,4.994-3.751,6.947l-3.794,4a4.493,4.493,0,0,1-1.044.9c-.756.415-6.809,6.37-6.809,6.37l-5.889-2.544" transform="translate(0 0)" fill="#e295ff"/>
          <path id="Trazado_14878" data-name="Trazado 14878" d="M13.542,13.739c2.547,2.637,4,6.165,7.286,3.489a7.921,7.921,0,0,0,1.223-6.066c1.858,3.469,5.207,4.844,8.826,4.945C32.569,14.278,34.2,12.18,34.125,9.7a5.88,5.88,0,0,0-4.509-5.3A7.042,7.042,0,0,0,22.958,6.7,7.744,7.744,0,0,0,14.63.057a7.688,7.688,0,0,0-6.2,8.621,4.865,4.865,0,0,0-4.9-1.6A4.89,4.89,0,0,0,.072,10.921c-.372,2.19.758,4.373,2.138,6.11a29.518,29.518,0,0,0,7.129,6.155C12.936,21.689,15.5,18.1,13.542,13.739Z" transform="translate(0 0)" fill="#e295ff"/>
          <path id="Trazado_14879" data-name="Trazado 14879" d="M14.3.057A7.688,7.688,0,0,0,8.1,8.678a4.865,4.865,0,0,0-4.9-1.6A4.874,4.874,0,0,0,0,10.029C3.193,7.638,7.122,11.606,10.629,12.3c.12-3.135-.392-6.291.337-8.779,1.361-2.467,4.524-2.363,6.373-1.047,1.241.669,1.826,1.944,3.067,2.613a4.567,4.567,0,0,1,1.121,3.8c5.64-4.227,9.347-1.542,11.923,2.917A5.812,5.812,0,0,0,33.8,9.7a5.88,5.88,0,0,0-4.509-5.3A7.042,7.042,0,0,0,22.628,6.7,7.744,7.744,0,0,0,14.3.057Z" transform="translate(0.33 0)" fill="#efc6ff"/>
          <path id="Trazado_14880" data-name="Trazado 14880" d="M16.2,10.373a4.493,4.493,0,0,0,1.044-.9l3.794-4c.168-.176.336-.356.5-.537C17.108,7.573,14.95,6.808,12.712,0c.554,2.446.506,5.157-.452,6.66C9.828,9.48,7.893,7.784,4.2,2.577c3.683,8.607,2.472,9.844-4.2,9.447,1.151.754,2.326,1.474,3.5,2.176l5.889,2.544S15.442,10.789,16.2,10.373Z" transform="translate(9.339 11.162)" fill="#d368ff"/>
        </g>
        <g id="Grupo_14656" data-name="Grupo 14656" transform="translate(17.445 54.414)">
          <path id="Trazado_14881" data-name="Trazado 14881" d="M21.5,2.22c3.807,2.055,7.66,4.229,10.4,7.447,1.336,1.57,2.416,3.556,2,5.578a4.922,4.922,0,0,1-8.357,2.236c.578,3.611-2.481,7.5-6.348,8.06s-7.794-2.3-8.148-5.942a7.6,7.6,0,0,1-6.671,2.259A5.253,5.253,0,0,1,0,17.071c-.026-2.508,1.99-4.635,3.874-6.469L7.73,6.847A4.7,4.7,0,0,1,8.788,6c.76-.4,6.9-6,6.9-6L21.5,2.22" transform="translate(0 0)" fill="#e295ff"/>
          <path id="Trazado_14882" data-name="Trazado 14882" d="M20.557,8.779c-2.478-2.374-3.848-5.592-7.175-3.061a7.043,7.043,0,0,0-1.341,5.607c-1.777-3.153-5.08-4.35-8.678-4.369C1.643,8.674-.023,10.638,0,12.92a5.253,5.253,0,0,0,4.376,4.788,7.6,7.6,0,0,0,6.671-2.259c.354,3.643,4.281,6.507,8.148,5.942s6.926-4.45,6.348-8.06A4.922,4.922,0,0,0,33.9,11.095c.415-2.022-.665-4.008-2-5.578A27.11,27.11,0,0,0,24.933,0C21.323,1.452,18.7,4.809,20.557,8.779Z" transform="translate(0 4.15)" fill="#e295ff"/>
          <path id="Trazado_14883" data-name="Trazado 14883" d="M19.194,11.345c3.867-.565,6.926-4.45,6.348-8.06a4.916,4.916,0,0,0,4.842,1.368,5.014,5.014,0,0,0,3.24-2.778C30.4,4.141,26.572.571,23.1,0c-.184,2.887.261,5.781-.515,8.085-1.4,2.3-4.548,2.267-6.361,1.094-1.221-.59-1.776-1.751-3-2.341a3.858,3.858,0,0,1-1.037-3.477C6.49,7.366,2.858,4.971.387.921A5.1,5.1,0,0,0,0,2.875,5.253,5.253,0,0,0,4.376,7.662,7.6,7.6,0,0,0,11.047,5.4C11.4,9.046,15.328,11.91,19.194,11.345Z" transform="translate(0 14.196)" fill="#efc6ff"/>
          <path id="Trazado_14884" data-name="Trazado 14884" d="M5.425,6a4.7,4.7,0,0,0-1.057.845L.511,10.6c-.17.166-.34.335-.511.5,4.686-2.611,6.685-.749,8.678,4.369a7.043,7.043,0,0,1,1.341-5.607c3.327-2.531,4.7.687,7.175,3.061-1.859-3.97.766-7.328,4.376-8.779-1.13-.67-2.284-1.308-3.437-1.93L12.328,0S6.185,5.6,5.425,6Z" transform="translate(3.363 0)" fill="#d368ff"/>
        </g>
        <g id="Grupo_14669" data-name="Grupo 14669" transform="translate(0 15.601)">
          <circle id="Elipse_236" data-name="Elipse 236" cx="20.359" cy="20.359" r="20.359" transform="matrix(0.885, -0.466, 0.466, 0.885, 0, 18.988)" fill="#d97bff"/>
          <circle id="Elipse_237" data-name="Elipse 237" cx="18.636" cy="18.636" r="18.636" transform="matrix(1, -0.004, 0.004, 1, 8.786, 8.951)" fill="#e7aaff"/>
          <g id="Grupo_14664" data-name="Grupo 14664" transform="translate(1.18 1.18)" opacity="0.64" style="mix-blend-mode: multiply;isolation: isolate">
            <g id="Grupo_14663" data-name="Grupo 14663" transform="translate(0 0)" clip-path="url(#clip-path-2)">
              <g id="Grupo_14657" data-name="Grupo 14657" transform="translate(8.31 9.949)">
                <path id="Trazado_14885" data-name="Trazado 14885" d="M1.156,26.92c7.037-.1,14.625-2.372,19.889-7.205A27.349,27.349,0,0,0,29.565,1.2c.092-1.569-2.346-1.6-2.438-.042a24.851,24.851,0,0,1-7.8,16.829c-4.773,4.382-11.761,6.405-18.131,6.5-1.568.023-1.612,2.461-.042,2.438Z" transform="translate(0 0)" fill="#c080ff"/>
              </g>
              <g id="Grupo_14658" data-name="Grupo 14658" transform="translate(4.028 5.315)">
                <path id="Trazado_14886" data-name="Trazado 14886" d="M1.156,26.92c7.037-.1,14.624-2.372,19.889-7.205A27.349,27.349,0,0,0,29.565,1.2c.092-1.57-2.346-1.6-2.438-.042a24.857,24.857,0,0,1-7.8,16.829c-4.773,4.382-11.762,6.405-18.131,6.5-1.568.024-1.612,2.461-.042,2.438Z" transform="translate(0 0)" fill="#c080ff"/>
              </g>
              <g id="Grupo_14659" data-name="Grupo 14659" transform="translate(0.092 1.832)">
                <path id="Trazado_14887" data-name="Trazado 14887" d="M1.156,26.92c7.037-.1,14.624-2.373,19.889-7.205A27.35,27.35,0,0,0,29.565,1.2c.092-1.57-2.346-1.6-2.438-.042a24.857,24.857,0,0,1-7.8,16.829c-4.774,4.382-11.762,6.4-18.132,6.5C-.37,24.5-.414,26.943,1.156,26.92Z" transform="translate(0 0)" fill="#c080ff"/>
              </g>
              <g id="Grupo_14660" data-name="Grupo 14660" transform="translate(-3.591 -2.926)">
                <path id="Trazado_14888" data-name="Trazado 14888" d="M1.156,26.92c7.037-.1,14.625-2.372,19.889-7.205A27.35,27.35,0,0,0,29.565,1.2c.092-1.57-2.346-1.6-2.438-.042a24.852,24.852,0,0,1-7.8,16.829c-4.773,4.382-11.761,6.405-18.131,6.5-1.568.024-1.612,2.461-.042,2.438Z" transform="translate(0 0)" fill="#c080ff"/>
              </g>
              <g id="Grupo_14661" data-name="Grupo 14661" transform="translate(11.539 13.463)">
                <path id="Trazado_14889" data-name="Trazado 14889" d="M1.194,27.8c7.169-.1,14.851-2.386,20.291-7.212A28.166,28.166,0,0,0,30.532,1.235c.1-1.621-2.423-1.657-2.518-.043a25.543,25.543,0,0,1-8.3,17.609C14.765,23.149,7.728,25.19,1.237,25.283c-1.619.023-1.665,2.541-.043,2.518Z" transform="translate(0 0)" fill="#c080ff"/>
              </g>
              <g id="Grupo_14662" data-name="Grupo 14662" transform="translate(15.529 17.955)">
                <path id="Trazado_14890" data-name="Trazado 14890" d="M1.194,27.8c7.169-.1,14.851-2.385,20.291-7.212A28.165,28.165,0,0,0,30.532,1.235c.1-1.621-2.423-1.657-2.518-.044a25.543,25.543,0,0,1-8.3,17.609C14.765,23.148,7.728,25.19,1.237,25.283c-1.619.023-1.665,2.541-.043,2.518Z" transform="translate(0 0)" fill="#c080ff"/>
              </g>
            </g>
          </g>
          <g id="Grupo_14668" data-name="Grupo 14668" transform="translate(10.173 12.619)">
            <g id="Grupo_14665" data-name="Grupo 14665" transform="translate(0 6.372)" opacity="0.94" style="mix-blend-mode: hard-light;isolation: isolate">
              <path id="Trazado_14891" data-name="Trazado 14891" d="M1.7,11.019A33.32,33.32,0,0,1,3.066,5.855C3.77,4.194,5.1,2.913,5.792,1.279,6.154.43,5.052-.268,4.341.1,2.594,1.006,1.573,3.257.89,5.008a10.273,10.273,0,0,0-.7,5.974.786.786,0,0,0,1.506.038Z" transform="translate(0 0)" fill="#f4d8ff"/>
            </g>
            <g id="Grupo_14666" data-name="Grupo 14666" transform="translate(6.094 2.454)" opacity="0.94" style="mix-blend-mode: hard-light;isolation: isolate">
              <path id="Trazado_14892" data-name="Trazado 14892" d="M.928,2.9a2.187,2.187,0,0,0,.927-.654,3.874,3.874,0,0,0,.669-.878A.9.9,0,0,0,1.145.236a3.823,3.823,0,0,0-.7.848A2.247,2.247,0,0,0,0,2.159.754.754,0,0,0,.928,2.9Z" transform="translate(0 0)" fill="#f4d8ff"/>
            </g>
            <g id="Grupo_14667" data-name="Grupo 14667" transform="translate(9.875 0)" opacity="0.94" style="mix-blend-mode: hard-light;isolation: isolate">
              <path id="Trazado_14893" data-name="Trazado 14893" d="M.624,1.679a1.251,1.251,0,0,1,.438-.366,2.217,2.217,0,0,1,.315-.059A1.963,1.963,0,0,0,1.748,1.1.586.586,0,0,0,2.013.371.6.6,0,0,0,1.327.008a1.281,1.281,0,0,0-.82.538,2.716,2.716,0,0,0-.457.662.381.381,0,0,0,.082.485.37.37,0,0,0,.491-.014Z" transform="translate(0)" fill="#f4d8ff"/>
            </g>
          </g>
          <path id="Trazado_14894" data-name="Trazado 14894" d="M11.839,1.288A18.639,18.639,0,0,0,.462,22.752l.042.009a4.417,4.417,0,0,0,5.063-3.017C8.04,11.737,14.865,4.809,22.907.5A18.54,18.54,0,0,0,11.839,1.288Z" transform="translate(8.864 8.865)" fill="#f4d8ff" opacity="0.91" style="mix-blend-mode: hard-light;isolation: isolate"/>
        </g>
        <g id="Grupo_14670" data-name="Grupo 14670" transform="translate(11.472 50.26)" opacity="0.91" style="mix-blend-mode: hard-light;isolation: isolate">
          <path id="Trazado_14895" data-name="Trazado 14895" d="M.216,1.6,1.344,2.977c.464.569.907,1.114,1.727,1.035A1.074,1.074,0,0,0,4.14,2.985a1.737,1.737,0,0,0-.287-1.047A3.358,3.358,0,0,0,2.927,1.2L1.392.166C.476-.454-.425.809.216,1.6Z" transform="translate(0 0)" fill="#f4d8ff"/>
        </g>
      </g>
    </g>
  </g>
</svg>
