<svg xmlns="http://www.w3.org/2000/svg" width="13.164" height="8.104" viewBox="0 0 13.164 8.104">
  <path id="Trazado_8605" data-name="Trazado 8605" d="M2.46,6.589l1.046-.948L7.618,1.919a1.369,1.369,0,0,0,.481-.9A.932.932,0,0,0,6.869.038,1.459,1.459,0,0,0,6.251.38L2.033,4.2Q1.263,4.9.492,5.6a1.476,1.476,0,0,0-.435.668A1.177,1.177,0,0,0,.45,7.54c.742.686,1.5,1.359,2.245,2.037q1.742,1.577,3.483,3.154a1.514,1.514,0,0,0,.861.427.933.933,0,0,0,1-1.269,1.719,1.719,0,0,0-.545-.749q-2.21-2-4.417-3.995Z" transform="translate(0 8.104) rotate(-90)" fill="#79858f"/>
</svg>
