<svg xmlns="http://www.w3.org/2000/svg" width="503" height="681.127" viewBox="0 0 503 681.127">
  <g id="Grupo_15311" data-name="Grupo 15311" transform="translate(0 0)">
    <g id="Grupo_1445" data-name="Grupo 1445" transform="translate(0 0)">
      <g id="Grupo_1390" data-name="Grupo 1390" transform="translate(433.446 316.417)">
        <path id="Trazado_13606" data-name="Trazado 13606" d="M2588.421,2002.079c50.3,13.995,15.671-99.943-40.309-125.351l11.55,80.338Z" transform="translate(-2548.112 -1876.728)" fill="#fbc100"/>
      </g>
      <g id="Grupo_1391" data-name="Grupo 1391" transform="translate(433.446 316.417)" opacity="0.3">
        <path id="Trazado_13607" data-name="Trazado 13607" d="M2588.421,2002.079c50.3,13.995,15.671-99.943-40.309-125.351l11.55,80.338Z" transform="translate(-2548.112 -1876.728)" fill="#760153"/>
      </g>
      <g id="Grupo_1392" data-name="Grupo 1392" transform="translate(7.682 4.888)">
        <path id="Trazado_13608" data-name="Trazado 13608" d="M1677.61,1542.782a29.91,29.91,0,0,1-27.6,28.458l-269.054,20.993a83.556,83.556,0,0,1-35.517-4.971c-.014,0-.027-.016-.064-.016-.944-.36-1.888-.717-2.813-1.108l-35.1-14.509a24.532,24.532,0,0,1-15.139-23.422c6.45-200.9-16.418-388.107-49.653-539.644a24.53,24.53,0,0,1,7.628-23.544l30.039-26.8.033-.019,3.13-2.8a51.407,51.407,0,0,1,30.188-12.877l4.3-.342,115.928-9.046,37.357-2.916,106.375-8.3,9.084-.706a29.971,29.971,0,0,1,31.357,22.513C1664.684,1127.025,1686.086,1346.738,1677.61,1542.782Z" transform="translate(-1242.103 -921.129)" fill="#955447"/>
      </g>
      <g id="Grupo_1393" data-name="Grupo 1393" transform="translate(260.625 133.896)">
        <path id="Trazado_13609" data-name="Trazado 13609" d="M2070.263,1495.013c3.542,32.7,6.441,64.228,9.212,98.747L2052.12,1606.7c-.878-20.441-.431-8.913-1.9-29.418a2183.5,2183.5,0,0,0-32.228-251.036l28.028-2.217.272,1.32,85.083-8.2,3.031-.243.562-.047.21,1.333h13.116l8.984,7.662-17.966,17.8-83.635,5.876a4.584,4.584,0,0,0-4.205,5.323q6.117,36.538,11.155,75.245L2039.6,1460.9l26.669-1.5c.057.364.076.721.131,1.079l77.408-6.893,11.853-.654.957-.053,8.077-.439,16.031,9.346-21.782,19.15-83.117,7.317A6.146,6.146,0,0,0,2070.263,1495.013Z" transform="translate(-2017.99 -1316.856)" fill="#b68662"/>
      </g>
      <g id="Grupo_1394" data-name="Grupo 1394" transform="translate(45.951 39.811)" opacity="0.2">
        <path id="Trazado_13610" data-name="Trazado 13610" d="M1359.491,1030.4a12.456,12.456,0,0,1,3.279-2.148Z" transform="translate(-1359.491 -1028.256)" fill="#fff"/>
      </g>
      <g id="Grupo_1395" data-name="Grupo 1395" transform="translate(49.227 16.502)">
        <path id="Trazado_13611" data-name="Trazado 13611" d="M1578.214,1088.953l-23.473,24.352-91.5,7.694a13.2,13.2,0,0,0-11.924,15.356q5.242,31.661,9.525,63.827l-27.825,31.851c-10.458-84.581-25.638-167.123-45.183-243.3a13.2,13.2,0,0,0-18.288-8.666l15.221-9.977c2.32-2.071,14.528-3.145,19.235-3.34l-.115-.556,87.208-6.795,5.709-.348c.016,0,.03-.012.047-.012a.341.341,0,0,0,.051.012l23.047-1.416,14.551-.881,8.744,6.569-15.8,21.5-97.131,6.652a7.019,7.019,0,0,0-6.358,8.67q8.019,33.346,14.963,68.07l-26.642,28.359,35.748-2.657-.813-2.31,102.005-8.3.479,2.56h.012l27.437-2.721C1577.5,1085.073,1577.858,1087.012,1578.214,1088.953Z" transform="translate(-1369.541 -956.756)" fill="#b68662"/>
      </g>
      <g id="Grupo_1396" data-name="Grupo 1396" transform="translate(256.826 142.894)" opacity="0.2">
        <path id="Trazado_13612" data-name="Trazado 13612" d="M2009.7,1347.864l-2.29,2.395c-.36-1.941-.724-3.884-1.074-5.8Z" transform="translate(-2006.341 -1344.456)" fill="#fff"/>
      </g>
      <g id="Grupo_1397" data-name="Grupo 1397" transform="translate(170.778 16.893)" opacity="0.2">
        <path id="Trazado_13613" data-name="Trazado 13613" d="M1747.776,959.863h.323l-5.708.344,28.719-2.251.135.493Z" transform="translate(-1742.391 -957.956)" fill="#fff"/>
      </g>
      <g id="Grupo_1398" data-name="Grupo 1398" transform="translate(112.912 281.511)">
        <path id="Trazado_13614" data-name="Trazado 13614" d="M1600.18,1812.511c11.23,108.411,14.588,218.519,9.608,322.825-.416,8.9-21.282,14.668-29.518,11.263l-.714.472c5.578-117.362.345-243.544-14.664-365.518l31.393-3.62c.051.394.093.8.148,1.192l100.6-8.964,5.591-.5h26.892c.066.569.131,1.145.192,1.724l-23.922,25.154-98.471,7.418A7.759,7.759,0,0,0,1600.18,1812.511Z" transform="translate(-1564.891 -1769.656)" fill="#b68662"/>
      </g>
      <g id="Grupo_1399" data-name="Grupo 1399" transform="translate(277.545 281.511)" opacity="0.2">
        <path id="Trazado_13615" data-name="Trazado 13615" d="M2071.742,1769.656l-1.656,1.724c-.061-.579-.121-1.155-.2-1.724Z" transform="translate(-2069.891 -1769.656)" fill="#fff"/>
      </g>
      <g id="Grupo_1400" data-name="Grupo 1400" transform="translate(325.597 5.427)" opacity="0.3">
        <path id="Trazado_13616" data-name="Trazado 13616" d="M2218.362,924.5c-.366-.035-.7-.052-1.07-.052l18.092-1.189,5.909-.392a30.081,30.081,0,0,1,6.157.166l-25.948,1.81h-.011c-.349-.072-.69-.115-1.027-.152Q2219.4,924.551,2218.362,924.5Z" transform="translate(-2217.291 -922.784)" fill="#760153"/>
      </g>
      <g id="Grupo_1401" data-name="Grupo 1401" transform="translate(355.752 5.679)" opacity="0.3">
        <path id="Trazado_13617" data-name="Trazado 13617" d="M2319.545,926.555l-9.754-3A29.514,29.514,0,0,1,2319.545,926.555Z" transform="translate(-2309.79 -923.556)" fill="#760153"/>
      </g>
      <g id="Grupo_1402" data-name="Grupo 1402" transform="translate(240.412 12.704)" opacity="0.3">
        <path id="Trazado_13618" data-name="Trazado 13618" d="M2156.037,1559.48c-.654,15.076-12.534,27.284-34.036,28.67l-166.01,12.959,145.457-11.522a29.9,29.9,0,0,0,27.581-28.462c4.62-106.474.4-219.921-11.885-330.746l21.8-19.155-16.022-9.343-8.078.441-.967.051c-.1-.785-.191-1.566-.3-2.349l-84.985,5.509-.165,3.079-3.947.229-26.662,1.5,23.015-30.812.387-.518,80.837-6.162a7.427,7.427,0,0,0,6.8-8.443q-5.081-36.015-11.334-71.316l17.971-17.8-8.983-7.662h-13.116l-.215-1.332-.556.047a.092.092,0,0,1-.01-.047l-3.023.288-85.087,8.2-.262-1.322-28.033,2.219-.424.032.364-.427,23.142-27.419-.053-.246,80.025-6.435a7.321,7.321,0,0,0,6.563-8.784c-4.858-23.1-10.065-45.8-15.681-67.959l16.92-19.348a29.889,29.889,0,0,1,9.469,15.324C2143.11,1143.726,2164.511,1363.436,2156.037,1559.48Z" transform="translate(-1955.99 -945.106)" fill="#760153"/>
      </g>
      <g id="Grupo_1403" data-name="Grupo 1403" transform="translate(260.201 142.894)" opacity="0.3">
        <path id="Trazado_13619" data-name="Trazado 13619" d="M2017.049,1344.456c.016.128.047.259.066.387l-.424.037Z" transform="translate(-2016.691 -1344.456)" fill="#760153"/>
      </g>
      <g id="Grupo_1404" data-name="Grupo 1404" transform="translate(305.19 246.611)" opacity="0.3">
        <path id="Trazado_13620" data-name="Trazado 13620" d="M2155.139,1662.606l-.387.519-.061-.487Z" transform="translate(-2154.691 -1662.606)" fill="#760153"/>
      </g>
      <g id="Grupo_1405" data-name="Grupo 1405" transform="translate(138.895 676.71)" opacity="0.3">
        <path id="Trazado_13621" data-name="Trazado 13621" d="M1644.866,2981.935c.618-.029,1.01-.029,1.21-.029-.281.029-.882.029-1.485.029Z" transform="translate(-1644.591 -2981.906)" fill="#760153"/>
      </g>
      <g id="Grupo_1406" data-name="Grupo 1406" transform="translate(137.379 668.705)" opacity="0.3">
        <path id="Trazado_13622" data-name="Trazado 13622" d="M1742.977,2957.354l-101.247,8.035c-.453,0-1.037,0-1.788.019Z" transform="translate(-1639.941 -2957.354)" fill="#760153"/>
      </g>
      <g id="Grupo_1407" data-name="Grupo 1407" transform="translate(138.895 676.71)" opacity="0.3">
        <path id="Trazado_13623" data-name="Trazado 13623" d="M1644.866,2981.935c.618-.029,1.01-.029,1.21-.029-.281.029-.882.029-1.485.029Z" transform="translate(-1644.591 -2981.906)" fill="#760153"/>
      </g>
      <g id="Grupo_1408" data-name="Grupo 1408" transform="translate(137.379 668.705)" opacity="0.3">
        <path id="Trazado_13624" data-name="Trazado 13624" d="M1742.977,2957.354l-101.247,8.035c-.453,0-1.037,0-1.788.019Z" transform="translate(-1639.941 -2957.354)" fill="#760153"/>
      </g>
      <g id="Grupo_1409" data-name="Grupo 1409" transform="translate(208.627 5.679)">
        <path id="Trazado_13625" data-name="Trazado 13625" d="M1917.293,963.15c0,.014.02.047.02.061q8.849,33.476,16.21,69.895l.051.245-23.15,27.419c-6.915-36.352-14.738-71.836-23.422-106.048a29.927,29.927,0,0,0-28.51-22.576l37.134-1.106s.074.03.213.1l97.254-7.581.456.229-18.092,1.186a10.487,10.487,0,0,1,1.061.052c.7.032,1.4.1,2.107.194a10.222,10.222,0,0,1,1.019.15h.028l25.938-1.81,9.745,3a29.581,29.581,0,0,1,5.994,4.022l-16.92,19.353-81.929,6.031A5.821,5.821,0,0,0,1917.293,963.15Z" transform="translate(-1858.491 -923.556)" fill="#b68662"/>
      </g>
      <g id="Grupo_1410" data-name="Grupo 1410" transform="translate(365.5 8.678)" opacity="0.2">
        <path id="Trazado_13626" data-name="Trazado 13626" d="M2347.173,935.071l-1.494,1.707a29.629,29.629,0,0,0-5.988-4.022Z" transform="translate(-2339.691 -932.756)" fill="#fff"/>
      </g>
      <g id="Grupo_1411" data-name="Grupo 1411" transform="translate(386.446 269.481)" opacity="0.2">
        <path id="Trazado_13627" data-name="Trazado 13627" d="M2416.763,1733.2l-12.823.7,11.8-1.061.989-.084Z" transform="translate(-2403.941 -1732.755)" fill="#fff"/>
      </g>
      <g id="Grupo_1412" data-name="Grupo 1412" transform="translate(7.682 38.604)">
        <path id="Trazado_13628" data-name="Trazado 13628" d="M1361.989,1645.263a12.864,12.864,0,0,1-16.548,11.7c-.014,0-.027-.016-.064-.016-.944-.362-1.888-.719-2.813-1.11l-35.1-14.5a24.535,24.535,0,0,1-15.139-23.424c6.45-200.9-16.418-388.109-49.653-539.649a24.518,24.518,0,0,1,7.628-23.537l30.039-26.8.033-.017a13.2,13.2,0,0,1,21.567,6.519C1349.813,1221,1371.493,1445.88,1361.989,1645.263Z" transform="translate(-1242.103 -1024.553)" fill="#b68662"/>
      </g>
      <g id="Grupo_1413" data-name="Grupo 1413" transform="translate(205.774 14.264)" opacity="0.2">
        <path id="Trazado_13629" data-name="Trazado 13629" d="M1852.6,949.893l-2.859.084C1850.709,949.893,1851.652,949.881,1852.6,949.893Z" transform="translate(-1849.741 -949.889)" fill="#fff"/>
      </g>
      <g id="Grupo_1414" data-name="Grupo 1414" transform="translate(55.991 425.999)">
        <path id="Trazado_13630" data-name="Trazado 13630" d="M1777.485,2413.4a29.909,29.909,0,0,1-27.6,28.461l-269.045,20.994a81.844,81.844,0,0,1-16.333-.341,83.056,83.056,0,0,1-22.07-5.75l-35.1-14.509a24.533,24.533,0,0,1-15.145-23.422c1.565-48.639,1.4-96.477-.2-143.184q-.687-19.915-1.708-39.548a72.673,72.673,0,0,1,26.86,7.344c24.744,58.354,55.2,76.1,100.524-12.23a34.894,34.894,0,0,1,9.128-9.465c8.425-6.226,23.2-12.244,46.25-6.68,17.826,4.283,40.627,15.533,69.318,38.969,46.5,38.025,69.734,33.289,81.321,18.881,4.258-5.25,6.93-11.793,8.623-18.032a87.461,87.461,0,0,0,2.969-21.221s16.821-19.237,42.95,26.962c.031.939.063,1.878.079,2.822q.592,19.187.816,38.253C1779.607,2339.5,1779.067,2376.858,1777.485,2413.4Z" transform="translate(-1390.291 -2212.868)" fill="#57baeb"/>
      </g>
      <g id="Grupo_1415" data-name="Grupo 1415" transform="translate(47.638 340.564)" opacity="0.55">
        <path id="Trazado_13631" data-name="Trazado 13631" d="M1373.01,2059.45q.368,7.238.7,14.525-2.891-63.185-9.046-123.175c3.373,15.967,9.222,28.179,16.766,37.456q3.21,36.185,5.3,73.563A74.615,74.615,0,0,0,1373.01,2059.45Z" transform="translate(-1364.667 -1950.8)" fill="#fff"/>
      </g>
      <g id="Grupo_1416" data-name="Grupo 1416" transform="translate(57.288 477.812)" opacity="0.55">
        <path id="Trazado_13632" data-name="Trazado 13632" d="M1414.09,2551.047l-4.076-1.667a24.572,24.572,0,0,1-15.146-23.433c1.677-52.453,1.373-103.959-.6-154.147q.215,5.479.4,10.977c.047,0,.094.006.143.006a15.919,15.919,0,0,1,14.156,15.364c1.427,44.8,1.5,90.622.015,137.178A24.376,24.376,0,0,0,1414.09,2551.047Z" transform="translate(-1394.267 -2371.8)" fill="#fff"/>
      </g>
      <g id="Grupo_1417" data-name="Grupo 1417" transform="translate(7.674 4.885)" opacity="0.55">
        <path id="Trazado_13633" data-name="Trazado 13633" d="M1611.959,931.81a30.149,30.149,0,0,0-11.135-1.224l-9.08.7-106.372,8.294-37.363,2.922-115.926,9.046-4.3.344a51.38,51.38,0,0,0-30.184,12.876l-3.13,2.8-.035.016-30.041,26.8a24.519,24.519,0,0,0-7.628,23.537,2183.315,2183.315,0,0,1,36.039,217.2c-4.455-1.256-9.13-3.926-13.972-8.265v.2a2180.586,2180.586,0,0,0-36.184-218.505,24.556,24.556,0,0,1,7.624-23.542l30.046-26.793.03-.014,3.13-2.807a51.423,51.423,0,0,1,30.2-12.877l4.3-.343,115.93-9.046,37.358-2.916,106.375-8.295,9.077-.705A29.934,29.934,0,0,1,1611.959,931.81Z" transform="translate(-1242.08 -921.123)" fill="#fff"/>
      </g>
      <g id="Grupo_1418" data-name="Grupo 1418" transform="translate(2.791 0)">
        <path id="Trazado_13634" data-name="Trazado 13634" d="M1364.424,1587.263a88.85,88.85,0,0,1-33.853-6.71l-35.084-14.513a29.537,29.537,0,0,1-18.16-28.1c7.229-225.393-22.954-417.216-49.546-538.446a29.418,29.418,0,0,1,9.153-28.229l33.206-29.618a56.54,56.54,0,0,1,33.061-14.1l273.035-21.3a34.765,34.765,0,0,1,36.49,26.177c46.5,182.954,68.244,401.815,59.651,600.462a34.812,34.812,0,0,1-32.085,33.122L1371.231,1587C1368.963,1587.17,1366.7,1587.263,1364.424,1587.263Zm214.557-671.345c-.652,0-1.317.03-1.976.079l-273.046,21.3a46.723,46.723,0,0,0-27.308,11.649l-33.2,29.618a19.643,19.643,0,0,0-6.115,18.84c26.718,121.769,57.032,314.449,49.773,540.849A19.7,19.7,0,0,0,1299.222,1557l35.09,14.521a78.893,78.893,0,0,0,36.158,5.729l269.061-20.993a25.016,25.016,0,0,0,23.077-23.791c8.552-197.734-13.087-415.563-59.361-597.63A25.018,25.018,0,0,0,1578.981,915.918Zm60.928,645.216h0Z" transform="translate(-1227.101 -906.136)" fill="#541c27"/>
      </g>
      <g id="Grupo_1419" data-name="Grupo 1419" transform="translate(87.075 129.014)">
        <path id="Trazado_13635" data-name="Trazado 13635" d="M1490.527,1336.464a4.893,4.893,0,0,1-1.785-9.447,56.3,56.3,0,0,1,16.181-3.726l273.058-21.306a34.794,34.794,0,0,1,36.474,26.183,4.889,4.889,0,1,1-9.479,2.4,25.049,25.049,0,0,0-26.239-18.833l-273.043,21.3a46.754,46.754,0,0,0-13.379,3.086A5.005,5.005,0,0,1,1490.527,1336.464Z" transform="translate(-1485.637 -1301.88)" fill="#541c27"/>
      </g>
      <g id="Grupo_1420" data-name="Grupo 1420" transform="translate(108.038 264.502)">
        <path id="Trazado_13636" data-name="Trazado 13636" d="M1554.83,1751.491a4.891,4.891,0,0,1-1.649-9.5,57.03,57.03,0,0,1,14.528-3.111l273.034-21.3a34.815,34.815,0,0,1,36.492,26.177,4.889,4.889,0,0,1-9.473,2.421,25.068,25.068,0,0,0-26.261-18.849l-273.021,21.3a46.626,46.626,0,0,0-12,2.575A5,5,0,0,1,1554.83,1751.491Z" transform="translate(-1549.939 -1717.482)" fill="#541c27"/>
      </g>
      <g id="Grupo_1421" data-name="Grupo 1421" transform="translate(200.884 11.616)">
        <path id="Trazado_13637" data-name="Trazado 13637" d="M1930.224,1393.069a4.9,4.9,0,0,1-4.886-4.68c-.869-20.318-2.054-40.945-3.518-61.316-8.847-125.051-28.07-248.373-55.57-356.622a24.99,24.99,0,0,0-26.234-18.823,4.889,4.889,0,1,1-.761-9.749,34.743,34.743,0,0,1,36.478,26.165c27.641,108.8,46.952,232.715,55.855,358.334,1.454,20.462,2.644,41.182,3.522,61.591a4.879,4.879,0,0,1-4.671,5.094C1930.365,1393.062,1930.3,1393.069,1930.224,1393.069Z" transform="translate(-1834.741 -941.769)" fill="#541c27"/>
      </g>
      <g id="Grupo_1422" data-name="Grupo 1422" transform="translate(176.158 18.784)" opacity="0.3">
        <path id="Trazado_13638" data-name="Trazado 13638" d="M1758.891,963.77l.37-.014c-.01,0-.027.014-.047.014Z" transform="translate(-1758.891 -963.756)" fill="#760153"/>
      </g>
      <g id="Grupo_1423" data-name="Grupo 1423" transform="translate(176.532 17.383)" opacity="0.3">
        <path id="Trazado_13639" data-name="Trazado 13639" d="M1783.137,959.456l-23.043,1.417c-.02,0-.033-.021-.053-.021Z" transform="translate(-1760.041 -959.456)" fill="#760153"/>
      </g>
      <g id="Grupo_1424" data-name="Grupo 1424" transform="translate(214.186 16.502)" opacity="0.3">
        <path id="Trazado_13640" data-name="Trazado 13640" d="M1884.277,963.325l-8.735-6.569S1879.531,958.335,1884.277,963.325Z" transform="translate(-1875.542 -956.756)" fill="#760153"/>
      </g>
      <g id="Grupo_1425" data-name="Grupo 1425" transform="translate(91.965 23.071)" opacity="0.3">
        <path id="Trazado_13641" data-name="Trazado 13641" d="M1536.386,1107.5l-35.745,2.658,26.636-28.364,97.756-7.122a7.047,7.047,0,0,0,6.381-8.46q-7.23-34.6-15.611-67.814l15.794-21.495c4.6,4.812,9.88,12.809,12.967,25.625,7.829,29.665,14.78,61.157,20.941,94.2l-27.435,2.724c-.168-.867-.332-1.715-.49-2.561l-102.008,8.3Z" transform="translate(-1500.641 -976.906)" fill="#760153"/>
      </g>
      <g id="Grupo_1426" data-name="Grupo 1426" transform="translate(112.7 148.696)" opacity="0.3">
        <path id="Trazado_13642" data-name="Trazado 13642" d="M1702.209,1495.068l-.477-3.571c.163,1.2.308,2.375.458,3.571l-96.108,5.312.86,1.682-11.095,1.292-31.4,3.611c-.066-.554-.131-1.089-.21-1.628l27.818-31.852,92.217-7.755a13.222,13.222,0,0,0,11.963-15.1q-4.646-32.323-10.273-64.029l23.478-24.348c7.676,42,14.132,86.453,19.644,132.813Z" transform="translate(-1564.241 -1362.255)" fill="#760153"/>
      </g>
      <g id="Grupo_1427" data-name="Grupo 1427" transform="translate(253.811 283.238)" opacity="0.3">
        <path id="Trazado_13643" data-name="Trazado 13643" d="M2033.795,1905.865,2007.208,1920c-.882-20.438-.425-8.932-1.886-29.429q-3.232-45.336-8.23-90.452l23.925-25.16C2025.983,1817.162,2030.192,1860.927,2033.795,1905.865Z" transform="translate(-1997.092 -1774.955)" fill="#760153"/>
      </g>
      <g id="Grupo_1428" data-name="Grupo 1428" transform="translate(111.086 291.78)" opacity="0.3">
        <path id="Trazado_13644" data-name="Trazado 13644" d="M1561.117,1802.786l-1.827.211,1.612-1.841C1560.982,1801.7,1561.052,1802.234,1561.117,1802.786Z" transform="translate(-1559.291 -1801.156)" fill="#760153"/>
      </g>
      <g id="Grupo_1429" data-name="Grupo 1429" transform="translate(250.192 277.941)" opacity="0.3">
        <path id="Trazado_13645" data-name="Trazado 13645" d="M1986.464,1762.271h-.015c-.139-1.182-.294-2.384-.458-3.565Z" transform="translate(-1985.99 -1758.706)" fill="#760153"/>
      </g>
      <g id="Grupo_1430" data-name="Grupo 1430" transform="translate(41.057 33.704)">
        <path id="Trazado_13646" data-name="Trazado 13646" d="M1418.134,1652.27a17.735,17.735,0,0,1-6.781-1.343,4.893,4.893,0,1,1,3.742-9.041,7.97,7.97,0,0,0,11.006-6.977c9.608-201.508-12.23-423.618-59.9-609.389a8.1,8.1,0,0,0-5.6-5.844,8.267,8.267,0,0,0-7.967,1.749,4.89,4.89,0,1,1-6.512-7.3,18.077,18.077,0,0,1,29.553,8.964c47.909,186.675,69.855,409.843,60.206,612.281a17.754,17.754,0,0,1-17.74,16.9Z" transform="translate(-1344.479 -1009.521)" fill="#541c27"/>
      </g>
      <g id="Grupo_1431" data-name="Grupo 1431" transform="translate(4.89 342.001)">
        <path id="Trazado_13647" data-name="Trazado 13647" d="M1680.183,2092.191v.023c-2.025,1.818-3.3,2.741-3.3,2.741-28.566-56.311-47.247-34.949-47.247-34.949s.311,37.612-22.083,47.488c-13.566,5.97-35.472,1.778-70.822-27.123-93.733-76.6-124.7-22.813-124.7-22.813-45.335,88.325-75.785,70.574-100.532,12.214-34.523-17.116-68.9,0-68.9,0l22.729-53.779-31.788-15.485c11.411-31.8,42.9-45.3,42.9-45.3s9.614,63.426,77.626,63.458,86.093-31.039,169.144-8.427c54.606,14.865,105.133.7,133.35-10.752h.017a180.136,180.136,0,0,0,23.345-11.206l24.69,44.834A75.657,75.657,0,0,1,1680.183,2092.191Z" transform="translate(-1233.541 -1955.206)" fill="#fbc100"/>
      </g>
      <g id="Grupo_1432" data-name="Grupo 1432" transform="translate(4.89 342.001)" opacity="0.55">
        <path id="Trazado_13648" data-name="Trazado 13648" d="M1373.036,2111.722c-25.12,18.792-44.643-2.125-61.538-41.949-34.523-17.116-68.9,0-68.9,0l22.729-53.779-31.788-15.485c11.411-31.8,42.9-45.3,42.9-45.3s.2,1.256.7,3.418c-8.506,6.657-18.293,16.64-24.373,30.434a5.039,5.039,0,0,0,2.433,6.535l19.235,9.381a9.767,9.767,0,0,1,4.719,12.593l-19.109,45.256s21.138-10.523,46.907-6.819a37.743,37.743,0,0,1,28.273,20.47C1346.365,2098.6,1358.721,2112.119,1373.036,2111.722Z" transform="translate(-1233.541 -1955.206)" fill="#fff"/>
      </g>
      <g id="Grupo_1433" data-name="Grupo 1433" transform="translate(211.414 419.034)" opacity="0.55">
        <path id="Trazado_13649" data-name="Trazado 13649" d="M2041.641,2262.116c-12.539,11.318-35.578,12.15-77.941-22.479-46.2-37.768-77.153-43.845-96.659-40.29,15.7-10.586,50.418-18.732,114.106,33.329C2008.662,2255.159,2028.024,2262.686,2041.641,2262.116Z" transform="translate(-1867.041 -2191.502)" fill="#fff"/>
      </g>
      <g id="Grupo_1434" data-name="Grupo 1434" transform="translate(0 337.113)">
        <path id="Trazado_13650" data-name="Trazado 13650" d="M1344.859,2113.473c-.33,0-.65,0-.977-.014-17.034-.616-31.758-16.583-46.265-50.169-31.3-14.485-62.63.62-62.955.775a4.9,4.9,0,0,1-6.673-6.287l20.918-49.525-27.62-13.458a4.88,4.88,0,0,1-2.458-6.045c11.988-33.4,44.212-47.554,45.576-48.143a4.892,4.892,0,0,1,6.761,3.761c.378,2.411,9.92,59.27,72.786,59.3h.149c25.436,0,43.736-4.461,61.435-8.768,29.031-7.074,56.455-13.758,108.851.508,80.106,21.8,152.178-20.984,152.9-21.418a4.887,4.887,0,0,1,5.059,8.362c-3.083,1.869-76.418,45.382-160.522,22.488-49.965-13.589-75-7.5-103.975-.444-18.255,4.448-37.137,9.048-63.743,9.048h-.152c-57.987-.041-76.1-44.181-80.919-61.109-8.422,4.866-24.908,16.378-33.382,35.65l27.7,13.505a4.893,4.893,0,0,1,2.365,6.3l-18.3,43.326c13.558-4.06,37.669-7.966,62.147,4.186a4.888,4.888,0,0,1,2.325,2.461c12.729,30.009,25.632,45.451,38.354,45.915,15.266.519,33.13-19.115,53.326-58.467l.107-.2c.376-.649,9.324-15.8,31.3-19.83,27.213-5,61.092,8.907,100.732,41.307,29.226,23.88,52.176,32.934,66.352,26.146,18.573-8.879,18.573-42.37,18.573-42.706a4.9,4.9,0,0,1,1.212-3.256,18.637,18.637,0,0,1,15.912-5.483c12.055,1.519,24.308,13.6,36.488,35.959a70.346,70.346,0,0,0,21.374-53.949,4.89,4.89,0,1,1,9.772-.392c1.714,42.882-28.485,65.1-29.775,66.019a4.9,4.9,0,0,1-7.218-1.766c-15.025-29.638-26.283-35.366-31.648-36.143a9.282,9.282,0,0,0-6.381,1.3c-.345,8.8-3.042,39.155-24.069,49.236-18.1,8.678-43.93-.542-76.782-27.4-46.274-37.823-75.832-42.255-92.481-39.3-16.971,3-24.115,13.9-24.844,15.088C1384.208,2092.64,1364.126,2113.469,1344.859,2113.473Z" transform="translate(-1218.539 -1940.214)" fill="#541c27"/>
      </g>
      <g id="Grupo_1435" data-name="Grupo 1435" transform="translate(428.554 311.524)">
        <path id="Trazado_13651" data-name="Trazado 13651" d="M2586.1,1998.027a33.759,33.759,0,0,1-9.1-1.351,4.887,4.887,0,1,1,2.615-9.417c11.668,3.242,15.066-2.014,16.611-6.27,4.242-11.664-.424-34.558-11.636-56.984-12.682-25.379-30.4-44.668-48.609-52.932a4.89,4.89,0,1,1,4.041-8.907c20.217,9.173,39.655,30.116,53.313,57.466,12.715,25.445,17.344,50.241,12.081,64.7C2602.171,1993.289,2595.316,1998.027,2586.1,1998.027Z" transform="translate(-2533.108 -1861.723)" fill="#541c27"/>
      </g>
      <g id="Grupo_1436" data-name="Grupo 1436" transform="translate(250.192 277.941)" opacity="0.3">
        <path id="Trazado_13652" data-name="Trazado 13652" d="M1986.464,1762.271h-.015c-.139-1.182-.294-2.384-.458-3.565Z" transform="translate(-1985.99 -1758.706)" fill="#760153"/>
      </g>
      <g id="Grupo_1437" data-name="Grupo 1437" transform="translate(245.058 281.51)" opacity="0.2">
        <path id="Trazado_13653" data-name="Trazado 13653" d="M1975.84,1769.656l-5.6.5.055-.5Z" transform="translate(-1970.24 -1769.656)" fill="#fff"/>
      </g>
      <g id="Grupo_1438" data-name="Grupo 1438" transform="translate(44.419 247.134)" opacity="0.3">
        <path id="Trazado_13654" data-name="Trazado 13654" d="M1354.792,1727.69c32.557,29.191,57.7-17,62.294-63.484l18.707,158.325C1395.39,1819.481,1356.319,1801.057,1354.792,1727.69Z" transform="translate(-1354.792 -1664.206)" fill="#760153"/>
      </g>
      <g id="Grupo_1439" data-name="Grupo 1439" transform="translate(44.427 310.816)" opacity="0.3">
        <path id="Trazado_13655" data-name="Trazado 13655" d="M1358.028,1889.3a160.081,160.081,0,0,1-3.211-29.747Q1356.5,1874.3,1358.028,1889.3Z" transform="translate(-1354.817 -1859.55)" fill="#760153"/>
      </g>
      <g id="Grupo_1440" data-name="Grupo 1440" transform="translate(373.927 375.074)" opacity="0.3">
        <path id="Trazado_13656" data-name="Trazado 13656" d="M2443.158,2160.569c2.275-6.138-3.316,2.771-3.316,2.771-28.555-56.323-47.24-34.965-47.24-34.965s.317,37.622-22.082,47.492l-4.98-1.493q9.207-18.744,9.183-48.335c-.018-19.311,17.738-28.868,35.25-20.712,5.854,2.742,11.268,8.361,20.368,10.782,31.784,8.428,4.872-42.716-10.8-48.255a181.8,181.8,0,0,0,23.352-11.2l24.689,44.821A75.654,75.654,0,0,1,2443.158,2160.569Z" transform="translate(-2365.541 -2056.656)" fill="#541c27"/>
      </g>
      <g id="Grupo_1441" data-name="Grupo 1441" transform="translate(55.991 428.196)" opacity="0.3">
        <path id="Trazado_13657" data-name="Trazado 13657" d="M1777.485,2417.945a29.916,29.916,0,0,1-27.6,28.457l-269.045,21.007a83.33,83.33,0,0,1-16.333-.349c-1.471-.448-2.285-.7-2.285-.7,114.139-8.966,206.354-32.318,238.721-95,9.41-18.243.617-40.491-18.478-48.016-10.952-4.293-24.171-12.319-40.146-25.375-93.72-76.6-124.693-22.82-124.693-22.82-45.331,88.335-75.781,70.58-100.522,12.234a72.538,72.538,0,0,0-25.1-7.193q-.687-19.931-1.708-39.558a73.194,73.194,0,0,1,26.86,7.348c24.744,58.35,55.2,76.106,100.524-12.228a35,35,0,0,1,9.128-9.475c14.476-3.479,28.721-6.583,46.25-6.674,17.826,4.283,40.627,15.531,69.318,38.976,46.491,38,69.713,33.285,81.321,18.89v-.014c4.258-5.25,6.93-11.794,8.623-18.03h.019a87.96,87.96,0,0,0,2.95-21.221s16.821-19.223,42.95,26.954c.031.943.063,1.883.079,2.826q.147,4.784.278,9.585.361,14.365.537,28.672C1779.607,2344.039,1779.067,2381.4,1777.485,2417.945Z" transform="translate(-1390.291 -2219.606)" fill="#541c27"/>
      </g>
    </g>
    <g id="Grupo_1449" data-name="Grupo 1449" transform="translate(309.938 189.058)">
      <path id="Trazado_13658" data-name="Trazado 13658" d="M35.772,12.786A18.308,18.308,0,1,1,12.779.847,18.308,18.308,0,0,1,35.772,12.786Z" transform="translate(5.727 0) rotate(9)" fill="#291b22"/>
      <path id="Trazado_13659" data-name="Trazado 13659" d="M12.72,4.539A6.512,6.512,0,1,1,9.5.724,6.512,6.512,0,0,1,12.72,4.539Z" transform="translate(8.947 5.245) rotate(9)" fill="#f6f6f6"/>
    </g>
    <path id="Trazado_13660" data-name="Trazado 13660" d="M35.754,12.752A18.308,18.308,0,1,1,12.9.813,18.308,18.308,0,0,1,35.754,12.752Z" transform="translate(204.435 193.906) rotate(9)" fill="#291b22"/>
    <path id="Trazado_13661" data-name="Trazado 13661" d="M12.726,4.559A6.512,6.512,0,1,1,4.557.3,6.512,6.512,0,0,1,12.726,4.559Z" transform="translate(207.617 199.063) rotate(9)" fill="#f6f6f6"/>
    <path id="Trazado_13662" data-name="Trazado 13662" d="M33.8,4.992A13.795,13.795,0,1,1,7.49,13.3,3.834,3.834,0,1,0,.18,15.618,21.463,21.463,0,1,0,41.109,2.679,3.835,3.835,0,0,0,33.8,4.992Z" transform="translate(256.866 235.798) rotate(9)" fill="#291b22"/>
  </g>
</svg>
