<svg xmlns="http://www.w3.org/2000/svg" xmlns:xlink="http://www.w3.org/1999/xlink" width="144.001" height="40.586" viewBox="0 0 144.001 40.586">
  <defs>
    <radialGradient id="radial-gradient" cx="0.083" cy="0.894" r="0.692" gradientTransform="translate(-0.449 0.208) rotate(-90) scale(1 1.028)" gradientUnits="objectBoundingBox">
      <stop offset="0" stop-color="#d95958"/>
      <stop offset="1" stop-color="#d05684"/>
    </radialGradient>
    <radialGradient id="radial-gradient-2" cx="0.613" cy="3.556" r="8.251" gradientTransform="translate(0.267 2.233) scale(0.417 0.416)" gradientUnits="objectBoundingBox">
      <stop offset="0" stop-color="#231f20"/>
      <stop offset="0.102" stop-color="#282425"/>
      <stop offset="0.237" stop-color="#393536"/>
      <stop offset="0.391" stop-color="#545152"/>
      <stop offset="0.559" stop-color="#7a7778"/>
      <stop offset="0.738" stop-color="#aaa9a9"/>
      <stop offset="0.924" stop-color="#e5e4e4"/>
      <stop offset="1" stop-color="#fff"/>
    </radialGradient>
    <linearGradient id="linear-gradient" x1="0.5" y1="2.435" x2="0.5" y2="0.1" gradientUnits="objectBoundingBox">
      <stop offset="0" stop-color="#fff"/>
      <stop offset="0.076" stop-color="#e5e4e4"/>
      <stop offset="0.262" stop-color="#aaa9a9"/>
      <stop offset="0.441" stop-color="#7a7778"/>
      <stop offset="0.609" stop-color="#545152"/>
      <stop offset="0.763" stop-color="#393536"/>
      <stop offset="0.898" stop-color="#282425"/>
      <stop offset="1" stop-color="#231f20"/>
    </linearGradient>
    <radialGradient id="radial-gradient-3" cx="3.394" cy="-0.147" r="4.502" gradientTransform="translate(0.211 -0.082) scale(1.021 0.445)" xlink:href="#linear-gradient"/>
    <radialGradient id="radial-gradient-4" cx="0.966" cy="0.57" r="0.418" gradientTransform="translate(0.274 0.046) scale(0.716 0.922)" xlink:href="#linear-gradient"/>
    <linearGradient id="linear-gradient-2" x1="-0.766" y1="0.5" x2="0.234" y2="0.5" gradientUnits="objectBoundingBox">
      <stop offset="0" stop-color="#fff"/>
      <stop offset="0.094" stop-color="#f5f5f5"/>
      <stop offset="0.252" stop-color="#dbdada"/>
      <stop offset="0.456" stop-color="#b1afb0"/>
      <stop offset="0.696" stop-color="#767474"/>
      <stop offset="0.966" stop-color="#2c292a"/>
      <stop offset="1" stop-color="#231f20"/>
    </linearGradient>
    <linearGradient id="linear-gradient-3" x1="0.633" y1="0.5" x2="2.074" y2="0.5" gradientUnits="objectBoundingBox">
      <stop offset="0" stop-color="#231f20"/>
      <stop offset="0.034" stop-color="#2c292a"/>
      <stop offset="0.304" stop-color="#767474"/>
      <stop offset="0.544" stop-color="#b1afb0"/>
      <stop offset="0.748" stop-color="#dbdada"/>
      <stop offset="0.906" stop-color="#f5f5f5"/>
      <stop offset="1" stop-color="#fff"/>
    </linearGradient>
    <linearGradient id="linear-gradient-4" x1="0.495" y1="-0.136" x2="0.521" y2="2.591" gradientUnits="objectBoundingBox">
      <stop offset="0" stop-color="#fff"/>
      <stop offset="0.088" stop-color="#e7e7e7"/>
      <stop offset="0.423" stop-color="#949292"/>
      <stop offset="0.697" stop-color="#575454"/>
      <stop offset="0.896" stop-color="#312d2e"/>
      <stop offset="1" stop-color="#231f20"/>
    </linearGradient>
  </defs>
  <g id="Grupo_1388" data-name="Grupo 1388" transform="translate(42.368 -248.447)">
    <rect id="Rect치ngulo_19926" data-name="Rect치ngulo 19926" width="144.001" height="40.497" rx="17.178" transform="translate(-42.368 248.536)" fill="#a64767"/>
    <rect id="Rect치ngulo_19927" data-name="Rect치ngulo 19927" width="38.721" height="142.225" rx="15.178" transform="translate(100.745 249.425) rotate(90)" fill="url(#radial-gradient)"/>
    <path id="Trazado_13586" data-name="Trazado 13586" d="M-28.881,281.647c1.1.051,2.192.141,3.256.235,5.06.447,9.792,1.58,14.9,2.1,18.5,1.883,33.955,1.672,49.771-5.546,9.337-4.262,17.277-10.518,24.766-16.076,4.905-3.641,10.408-7.233,17.5-8.779s16.118-.39,19.868,3.783c3.007,3.347,1.543,6.7,1.337,10.252-.246,4.238.764,8.641.933,12.894.052,1.311-1.876,3.5-2.655,4.7a7.484,7.484,0,0,1-2.97,2.773c-3.292,1.653-8.86,1.77-12.923,1.994-5.258.29-10.483.82-15.78.766-24.249-.248-48.522.373-72.783.228a87.731,87.731,0,0,1-11.612-.481,81.8,81.8,0,0,0-9.857-.468A28.164,28.164,0,0,1-33.69,288.7c-2.548-.917-4.544-2.5-4.689-4.27a1.759,1.759,0,0,1,.533-1.478C-36.331,281.5-31.338,281.533-28.881,281.647Z" transform="translate(-2.084 -2.344)" fill="url(#radial-gradient-2)" style="mix-blend-mode: color-burn;isolation: isolate"/>
    <path id="Trazado_13587" data-name="Trazado 13587" d="M22.7,301.443c-6.228.095-12.443.25-18.686.263-6.306.014-12.609-.184-18.893-.495-3.144-.155-6.279-.354-9.417-.54-2.375-.142-4.624.138-6.922-.305a19.9,19.9,0,0,1-6.792-2.256c-2.1-1.362-3.636-4.382-1.785-6.076,2.019-1.847,7.575-1.117,10.569-.706,4.016.551,8.01,1.158,12.017,1.734,3.4.488,6.654,1.475,10.072,1.7l19.168,1.252A60.942,60.942,0,0,0,24.067,296a123.606,123.606,0,0,1-16.488.5c-5.209-.061-10.3.1-15.479-.306-3.133-.245-13.664-2.859-16-.888-5.256,4.443,21.66,3.945,23.327,3.956l33.192.212c15.741.1,36.406,1.16,50.792-3.349,5.4-1.691,9.955-4.5,11.69-7.954,1.18-2.349,1.026-4.86,1.908-7.255a1.577,1.577,0,0,1,1.874-.943.865.865,0,0,1,.506.618,27.418,27.418,0,0,1,1.349,8.324,11.768,11.768,0,0,1-1.768,6.894,12.829,12.829,0,0,1-7.924,4.962,34.254,34.254,0,0,1-5.657.625C64.724,302.461,43.519,301.126,22.7,301.443Z" transform="translate(-0.91 -13.299)" fill="url(#linear-gradient)" style="mix-blend-mode: color-dodge;isolation: isolate"/>
    <path id="Trazado_13588" data-name="Trazado 13588" d="M131.8,267.533c.063-.374.12-2.386-1.984-1.9-1.058.246-.177,1.538.022,1.925a1.178,1.178,0,0,0,1.159.565C131.557,268.089,131.762,267.783,131.8,267.533Z" transform="translate(-31.832 -8.218)" fill="url(#radial-gradient-3)" style="mix-blend-mode: color-dodge;isolation: isolate"/>
    <path id="Trazado_13589" data-name="Trazado 13589" d="M-40.067,254.033c2.251-6.515,10.445-5.829,15.558-5.2,8.455,1.04,17.176.477,25.7.512A20.372,20.372,0,0,0-9.128,256.1c-5.282,6.826-3.063,15.06,1.875,21.3,4.475,5.652,11.279,8.332,17.8,10.649-4.809,1.218-9.795-.266-14.692-.95-7.145-1-14.162.546-21.315-.063a23.716,23.716,0,0,1-8.768-1.976c-5.812-2.925-6.32-9.254-6.593-15.24a87.338,87.338,0,0,1,.006-11A20.312,20.312,0,0,1-40.067,254.033Z" transform="translate(-0.722)" fill="url(#radial-gradient-4)" style="mix-blend-mode: color-dodge;isolation: isolate"/>
    <path id="Trazado_13590" data-name="Trazado 13590" d="M-33.888,252.053a7.626,7.626,0,0,0-4.746,5.364A64.492,64.492,0,0,0-40.37,268.1a27.729,27.729,0,0,0,1.391,12.076,5.2,5.2,0,0,1,1.3-2.979c2.379-2.373,10.786-.866,14.735-.82a14.865,14.865,0,0,1-4.573-1.747,2.031,2.031,0,0,1-.939-.9A1.262,1.262,0,0,1-28,272.582c2.547-2.854,9.619-3.889,14.4-5.024a263.682,263.682,0,0,1,47.111-6.987c16.652-1.007,33.412-1.352,50.02-2.61a84.826,84.826,0,0,0,10.405-1.023c2.018-.446,3.777-1.541,3.686-2.792-.459-6.273-24.757-3.8-30.332-3.831-9.531-.052-19.061.058-28.592.066-12.212.01-24.419-.238-36.629-.264-6.133-.013-12.269.028-18.4.192C-23.216,250.492-29.649,250.249-33.888,252.053Z" transform="translate(-0.975 -0.739)" fill="url(#linear-gradient-2)" style="mix-blend-mode: color-dodge;isolation: isolate"/>
    <path id="Trazado_13591" data-name="Trazado 13591" d="M-25.744,255.9c4.074-.581,8.694-.5,12.666-.948,6.074-.685,12.266-.72,18.435-.793,7.567-.091,15.08.313,22.651.387,14.451.142,29.01.112,43.425.177,6.712.03,13.194,1.383,19.858,1.85a18.273,18.273,0,0,0,5.758-.28c1.78-.467,3.187-1.6,2.781-2.713-.543-1.493-3.661-2.049-6.262-2.174-12.323-.591-25.063.467-37.412.6-12.858.141-25.713-.2-38.557-.481-15.191-.331-30.277-.3-45.456-.032a18.589,18.589,0,0,0-5.851.719c-6.167,2.271-5.5,7.116-5.847,10.759a80.7,80.7,0,0,0,.157,16.689q.457-5.078.913-10.157a17.5,17.5,0,0,1,1.729-7.217,12.414,12.414,0,0,1,7.459-5.632A24.068,24.068,0,0,1-25.744,255.9Z" transform="translate(-1.285 -1.453)" fill="url(#linear-gradient-3)" style="mix-blend-mode: color-dodge;isolation: isolate"/>
    <path id="Trazado_13592" data-name="Trazado 13592" d="M-39.606,291.818s31.344,2,67.426.353c12.6-.575,25.162-1.486,37.665-2.577,8.838-.771,23.09-.566,29.481-4.752a25.447,25.447,0,0,0,5.454-5.155,20.922,20.922,0,0,1,1.086,9.723c-.175,1.8,1.3,1.409-3.124,4.331s3.208,6.363-15.77,7.578-113.078.449-113.078.449S-39.959,301.063-39.606,291.818Z" transform="translate(-1.441 -13.093)" fill="url(#linear-gradient-4)" style="mix-blend-mode: multiply;isolation: isolate"/>
    <path id="Trazado_13593" data-name="Trazado 13593" d="M129.754,312.474a7.4,7.4,0,0,0,1.815-3.5c.137-.461.29-1.665-.574-1.563-.623.073-.156.766-.227,1.14-.325,1.711-.495,3.037-1.778,4.419A3.084,3.084,0,0,0,129.754,312.474Z" transform="matrix(0.891, 0.454, -0.454, 0.891, 119.364, -53.061)" fill="#fff" opacity="0.59"/>
    <path id="Trazado_13594" data-name="Trazado 13594" d="M-36.164,258.907a6.115,6.115,0,0,1,2.584-.831c1.845-.18,3.584.525,5.395.448s3.64-.131,5.447-.345c2.125-.252,4.176-.883,4.2-1.912.012-.549-.523-1.082-1.312-1.514-3.327-1.821-9.024-1.235-13.051-.222a13.041,13.041,0,0,0-2.878,1.083c-.547.288-1.774,1.081-1.7-.267a1.926,1.926,0,0,1,.528-1.077,8.916,8.916,0,0,1,.988-1.016c-.16.1-.319.191-.471.3a5.537,5.537,0,0,0-1.815,2.332,16.558,16.558,0,0,0-.88,2.856c-.872,3.586-.891,7.515-1.025,11.2a86.172,86.172,0,0,1,1.2-8.822A.846.846,0,0,0-38,260.9C-37.321,260.222-37.059,259.455-36.164,258.907Z" transform="translate(-1.155 -2.517)" fill="#fff" opacity="0.59"/>
    <path id="Trazado_13595" data-name="Trazado 13595" d="M10.443,255.8c-.928.461-.818,1.67,1.186,1.613a2.421,2.421,0,0,0,1.041-.218c.642-.35.369-1.072-.355-1.354A2.327,2.327,0,0,0,10.443,255.8Z" transform="translate(-9.902 -3.756)" fill="#fff" opacity="0.59"/>
  </g>
</svg>
