<svg xmlns="http://www.w3.org/2000/svg" width="18.225" height="24.679" viewBox="0 0 18.225 24.679">
  <g id="Grupo_14773" data-name="Grupo 14773" transform="translate(-343.711 -342.312)">
    <g id="Grupo_1445" data-name="Grupo 1445" transform="translate(343.711 342.312)">
      <g id="Grupo_1390" data-name="Grupo 1390" transform="translate(15.705 11.465)">
        <path id="Trazado_13606" data-name="Trazado 13606" d="M2549.572,1881.27c1.822.507.568-3.621-1.46-4.542l.418,2.911Z" transform="translate(-2548.112 -1876.728)" fill="#fbc100"/>
      </g>
      <g id="Grupo_1391" data-name="Grupo 1391" transform="translate(15.705 11.465)" opacity="0.3">
        <path id="Trazado_13607" data-name="Trazado 13607" d="M2549.572,1881.27c1.822.507.568-3.621-1.46-4.542l.418,2.911Z" transform="translate(-2548.112 -1876.728)" fill="#760153"/>
      </g>
      <g id="Grupo_1392" data-name="Grupo 1392" transform="translate(0.278 0.177)">
        <path id="Trazado_13608" data-name="Trazado 13608" d="M1257.882,943.653a1.084,1.084,0,0,1-1,1.031l-9.749.761a3.027,3.027,0,0,1-1.287-.18h0l-.1-.04-1.272-.526a.889.889,0,0,1-.549-.849,80.521,80.521,0,0,0-1.8-19.553.889.889,0,0,1,.276-.853l1.088-.971h0l.113-.1a1.862,1.862,0,0,1,1.094-.467l.156-.012,4.2-.328,1.354-.106,3.854-.3.329-.026a1.086,1.086,0,0,1,1.136.816A78.457,78.457,0,0,1,1257.882,943.653Z" transform="translate(-1242.103 -921.129)" fill="#955447"/>
      </g>
      <g id="Grupo_1393" data-name="Grupo 1393" transform="translate(9.443 4.851)">
        <path id="Trazado_13609" data-name="Trazado 13609" d="M2019.885,1323.311c.128,1.185.233,2.327.334,3.578l-.991.469c-.032-.741-.016-.323-.069-1.066a79.121,79.121,0,0,0-1.168-9.1l1.016-.08.01.048,3.083-.3.11-.009.02,0,.008.048h.475l.325.278-.651.645-3.03.213a.166.166,0,0,0-.152.193q.222,1.324.4,2.726l-.834,1.116.966-.054c0,.013,0,.026,0,.039l2.8-.25.429-.024.035,0,.293-.016.581.339-.789.694-3.011.265A.223.223,0,0,0,2019.885,1323.311Z" transform="translate(-2017.99 -1316.855)" fill="#b68662"/>
      </g>
      <g id="Grupo_1394" data-name="Grupo 1394" transform="translate(1.665 1.442)" opacity="0.2">
        <path id="Trazado_13610" data-name="Trazado 13610" d="M1359.491,1028.334a.451.451,0,0,1,.119-.078Z" transform="translate(-1359.491 -1028.256)" fill="#fff"/>
      </g>
      <g id="Grupo_1395" data-name="Grupo 1395" transform="translate(1.784 0.598)">
        <path id="Trazado_13611" data-name="Trazado 13611" d="M1377.1,961.546l-.85.882-3.315.279a.478.478,0,0,0-.432.556q.19,1.147.345,2.313l-1.008,1.154a70.69,70.69,0,0,0-1.637-8.815.478.478,0,0,0-.663-.314l.552-.362a2.045,2.045,0,0,1,.7-.121l0-.02,3.16-.246.207-.013h0l.835-.051.527-.032.317.238-.572.779-3.519.241a.254.254,0,0,0-.23.314q.291,1.208.542,2.466l-.965,1.028,1.3-.1-.029-.084,3.7-.3.017.093h0l.994-.1Z" transform="translate(-1369.541 -956.756)" fill="#b68662"/>
      </g>
      <g id="Grupo_1396" data-name="Grupo 1396" transform="translate(9.305 5.177)" opacity="0.2">
        <path id="Trazado_13612" data-name="Trazado 13612" d="M2006.463,1344.58l-.083.087-.039-.21Z" transform="translate(-2006.341 -1344.456)" fill="#fff"/>
      </g>
      <g id="Grupo_1397" data-name="Grupo 1397" transform="translate(6.188 0.612)" opacity="0.2">
        <path id="Trazado_13613" data-name="Trazado 13613" d="M1742.586,958.025h.012l-.207.012,1.041-.082,0,.018Z" transform="translate(-1742.391 -957.955)" fill="#fff"/>
      </g>
      <g id="Grupo_1398" data-name="Grupo 1398" transform="translate(4.091 10.2)">
        <path id="Trazado_13614" data-name="Trazado 13614" d="M1566.17,1771.209a78.465,78.465,0,0,1,.348,11.7c-.015.322-.771.531-1.07.408l-.026.017a79.416,79.416,0,0,0-.531-13.244l1.137-.131c0,.014,0,.029.005.043l3.645-.325.2-.018h.974c0,.021,0,.041.007.062l-.867.911-3.568.269A.281.281,0,0,0,1566.17,1771.209Z" transform="translate(-1564.891 -1769.656)" fill="#b68662"/>
      </g>
      <g id="Grupo_1399" data-name="Grupo 1399" transform="translate(10.056 10.2)" opacity="0.2">
        <path id="Trazado_13615" data-name="Trazado 13615" d="M2069.958,1769.656l-.06.062c0-.021,0-.042-.007-.062Z" transform="translate(-2069.891 -1769.656)" fill="#fff"/>
      </g>
      <g id="Grupo_1400" data-name="Grupo 1400" transform="translate(11.797 0.197)" opacity="0.3">
        <path id="Trazado_13616" data-name="Trazado 13616" d="M2217.329,922.846l-.039,0,.656-.043.214-.014a1.087,1.087,0,0,1,.223.006l-.94.066h0l-.037-.005Q2217.367,922.848,2217.329,922.846Z" transform="translate(-2217.291 -922.784)" fill="#760153"/>
      </g>
      <g id="Grupo_1401" data-name="Grupo 1401" transform="translate(12.89 0.206)" opacity="0.3">
        <path id="Trazado_13617" data-name="Trazado 13617" d="M2310.144,923.665l-.354-.109A1.069,1.069,0,0,1,2310.144,923.665Z" transform="translate(-2309.79 -923.556)" fill="#760153"/>
      </g>
      <g id="Grupo_1402" data-name="Grupo 1402" transform="translate(8.711 0.46)" opacity="0.3">
        <path id="Trazado_13618" data-name="Trazado 13618" d="M1963.239,967.366c-.024.546-.454.989-1.233,1.039l-6.015.469,5.27-.417a1.083,1.083,0,0,0,1-1.031,79.136,79.136,0,0,0-.431-11.984l.79-.694-.581-.339-.293.016-.035,0c0-.028-.007-.057-.011-.085l-3.079.2-.006.112-.143.008-.966.054.834-1.116.014-.019,2.929-.223a.269.269,0,0,0,.246-.306q-.184-1.3-.411-2.584l.651-.645-.325-.278h-.475l-.008-.048-.02,0v0l-.109.01-3.083.3-.01-.048-1.016.08h-.015l.013-.016.838-.993,0-.009,2.9-.233a.265.265,0,0,0,.238-.318c-.176-.837-.365-1.66-.568-2.462l.613-.7a1.082,1.082,0,0,1,.343.555A78.457,78.457,0,0,1,1963.239,967.366Z" transform="translate(-1955.991 -945.106)" fill="#760153"/>
      </g>
      <g id="Grupo_1403" data-name="Grupo 1403" transform="translate(9.428 5.177)" opacity="0.3">
        <path id="Trazado_13619" data-name="Trazado 13619" d="M2016.7,1344.456s0,.009,0,.014h-.015Z" transform="translate(-2016.691 -1344.456)" fill="#760153"/>
      </g>
      <g id="Grupo_1404" data-name="Grupo 1404" transform="translate(11.058 8.935)" opacity="0.3">
        <path id="Trazado_13620" data-name="Trazado 13620" d="M2154.707,1662.606l-.014.019,0-.018Z" transform="translate(-2154.691 -1662.606)" fill="#760153"/>
      </g>
      <g id="Grupo_1405" data-name="Grupo 1405" transform="translate(5.032 24.519)" opacity="0.3">
        <path id="Trazado_13621" data-name="Trazado 13621" d="M1644.6,2981.906h0Z" transform="translate(-1644.591 -2981.906)" fill="#760153"/>
      </g>
      <g id="Grupo_1406" data-name="Grupo 1406" transform="translate(4.978 24.229)" opacity="0.3">
        <path id="Trazado_13622" data-name="Trazado 13622" d="M1643.674,2957.355l-3.668.291h-.065Z" transform="translate(-1639.941 -2957.355)" fill="#760153"/>
      </g>
      <g id="Grupo_1407" data-name="Grupo 1407" transform="translate(5.032 24.519)" opacity="0.3">
        <path id="Trazado_13623" data-name="Trazado 13623" d="M1644.6,2981.906h0Z" transform="translate(-1644.591 -2981.906)" fill="#760153"/>
      </g>
      <g id="Grupo_1408" data-name="Grupo 1408" transform="translate(4.978 24.229)" opacity="0.3">
        <path id="Trazado_13624" data-name="Trazado 13624" d="M1643.674,2957.355l-3.668.291h-.065Z" transform="translate(-1639.941 -2957.355)" fill="#760153"/>
      </g>
      <g id="Grupo_1409" data-name="Grupo 1409" transform="translate(7.559 0.206)">
        <path id="Trazado_13625" data-name="Trazado 13625" d="M1860.622,924.991v0q.32,1.213.587,2.532l0,.009-.839.993c-.25-1.317-.534-2.6-.849-3.842a1.084,1.084,0,0,0-1.033-.818l1.345-.04.008,0,3.524-.275.017.008-.656.043.038,0c.025,0,.051,0,.076.007l.037.005h0l.94-.066.353.109a1.076,1.076,0,0,1,.217.146l-.613.7-2.969.219A.211.211,0,0,0,1860.622,924.991Z" transform="translate(-1858.491 -923.556)" fill="#b68662"/>
      </g>
      <g id="Grupo_1410" data-name="Grupo 1410" transform="translate(13.243 0.314)" opacity="0.2">
        <path id="Trazado_13626" data-name="Trazado 13626" d="M2339.962,932.84l-.054.062a1.07,1.07,0,0,0-.217-.146Z" transform="translate(-2339.691 -932.756)" fill="#fff"/>
      </g>
      <g id="Grupo_1411" data-name="Grupo 1411" transform="translate(14.002 9.764)" opacity="0.2">
        <path id="Trazado_13627" data-name="Trazado 13627" d="M2404.405,1732.772l-.465.025.427-.038.036,0Z" transform="translate(-2403.94 -1732.756)" fill="#fff"/>
      </g>
      <g id="Grupo_1412" data-name="Grupo 1412" transform="translate(0.278 1.399)">
        <path id="Trazado_13628" data-name="Trazado 13628" d="M1246.447,1047.042a.466.466,0,0,1-.6.424h0l-.1-.04-1.272-.526a.889.889,0,0,1-.549-.849,80.523,80.523,0,0,0-1.8-19.553.888.888,0,0,1,.276-.853l1.088-.971h0a.478.478,0,0,1,.781.236A78.356,78.356,0,0,1,1246.447,1047.042Z" transform="translate(-1242.103 -1024.552)" fill="#b68662"/>
      </g>
      <g id="Grupo_1413" data-name="Grupo 1413" transform="translate(7.456 0.517)" opacity="0.2">
        <path id="Trazado_13629" data-name="Trazado 13629" d="M1849.844,949.889l-.1,0A1.015,1.015,0,0,1,1849.844,949.889Z" transform="translate(-1849.741 -949.888)" fill="#fff"/>
      </g>
      <g id="Grupo_1414" data-name="Grupo 1414" transform="translate(2.029 15.435)">
        <path id="Trazado_13630" data-name="Trazado 13630" d="M1404.32,2220.134a1.084,1.084,0,0,1-1,1.031l-9.748.76a2.957,2.957,0,0,1-.592-.012,3.01,3.01,0,0,1-.8-.208l-1.272-.526a.889.889,0,0,1-.549-.849c.057-1.762.051-3.5-.007-5.188q-.025-.721-.062-1.433a2.636,2.636,0,0,1,.973.266c.9,2.114,2,2.757,3.642-.443a1.264,1.264,0,0,1,.331-.343,1.937,1.937,0,0,1,1.676-.242,6.587,6.587,0,0,1,2.512,1.412c1.685,1.378,2.527,1.206,2.946.684a1.779,1.779,0,0,0,.313-.653,3.168,3.168,0,0,0,.108-.769s.609-.7,1.556.977c0,.034,0,.068,0,.1q.021.7.03,1.386C1404.4,2217.456,1404.377,2218.81,1404.32,2220.134Z" transform="translate(-1390.291 -2212.868)" fill="#57baeb"/>
      </g>
      <g id="Grupo_1415" data-name="Grupo 1415" transform="translate(1.726 12.339)" opacity="0.55">
        <path id="Trazado_13631" data-name="Trazado 13631" d="M1364.969,1954.737q.013.262.026.526-.1-2.289-.328-4.463a3.135,3.135,0,0,0,.607,1.357q.116,1.311.192,2.665A2.7,2.7,0,0,0,1364.969,1954.737Z" transform="translate(-1364.667 -1950.8)" fill="#fff"/>
      </g>
      <g id="Grupo_1416" data-name="Grupo 1416" transform="translate(2.076 17.312)" opacity="0.55">
        <path id="Trazado_13632" data-name="Trazado 13632" d="M1394.985,2378.295l-.148-.061a.89.89,0,0,1-.549-.849c.061-1.9.05-3.767-.022-5.585.005.132.01.265.015.4h.005a.577.577,0,0,1,.513.557c.052,1.623.054,3.283,0,4.97A.884.884,0,0,0,1394.985,2378.295Z" transform="translate(-1394.267 -2371.8)" fill="#fff"/>
      </g>
      <g id="Grupo_1417" data-name="Grupo 1417" transform="translate(0.278 0.177)" opacity="0.55">
        <path id="Trazado_13633" data-name="Trazado 13633" d="M1255.481,921.51a1.1,1.1,0,0,0-.4-.044l-.329.025-3.854.3-1.354.106-4.2.328-.156.012a1.862,1.862,0,0,0-1.094.467l-.113.1h0l-1.089.971a.888.888,0,0,0-.276.853,79.093,79.093,0,0,1,1.306,7.87,1.3,1.3,0,0,1-.506-.3v.007a79.027,79.027,0,0,0-1.311-7.917.889.889,0,0,1,.276-.853l1.089-.971h0l.113-.1a1.862,1.862,0,0,1,1.094-.467l.156-.012,4.2-.328,1.354-.106,3.854-.3.329-.026A1.085,1.085,0,0,1,1255.481,921.51Z" transform="translate(-1242.079 -921.123)" fill="#fff"/>
      </g>
      <g id="Grupo_1418" data-name="Grupo 1418" transform="translate(0.101 0)">
        <path id="Trazado_13634" data-name="Trazado 13634" d="M1232.076,930.815a3.219,3.219,0,0,1-1.227-.243l-1.271-.526a1.07,1.07,0,0,1-.658-1.018,80.409,80.409,0,0,0-1.8-19.509,1.066,1.066,0,0,1,.332-1.023l1.2-1.073a2.049,2.049,0,0,1,1.2-.511l9.893-.772a1.26,1.26,0,0,1,1.322.948,78.379,78.379,0,0,1,2.161,21.756,1.261,1.261,0,0,1-1.162,1.2l-9.749.761C1232.241,930.812,1232.159,930.815,1232.076,930.815Zm7.774-24.325-.072,0-9.893.772a1.693,1.693,0,0,0-.99.422l-1.2,1.073a.711.711,0,0,0-.222.683,80.759,80.759,0,0,1,1.8,19.6.714.714,0,0,0,.439.679l1.271.526a2.858,2.858,0,0,0,1.31.208l9.749-.761a.906.906,0,0,0,.836-.862,78.007,78.007,0,0,0-2.151-21.654A.907.907,0,0,0,1239.85,906.49Zm2.208,23.378h0Z" transform="translate(-1227.101 -906.136)" fill="#541c27"/>
      </g>
      <g id="Grupo_1419" data-name="Grupo 1419" transform="translate(3.155 4.675)">
        <path id="Trazado_13635" data-name="Trazado 13635" d="M1485.814,1303.133a.177.177,0,0,1-.065-.342,2.043,2.043,0,0,1,.586-.135l9.893-.772a1.261,1.261,0,0,1,1.322.949.177.177,0,1,1-.343.087.908.908,0,0,0-.951-.682l-9.893.772a1.7,1.7,0,0,0-.485.112A.18.18,0,0,1,1485.814,1303.133Z" transform="translate(-1485.637 -1301.88)" fill="#541c27"/>
      </g>
      <g id="Grupo_1420" data-name="Grupo 1420" transform="translate(3.914 9.584)">
        <path id="Trazado_13636" data-name="Trazado 13636" d="M1550.116,1718.714a.177.177,0,0,1-.06-.344,2.062,2.062,0,0,1,.526-.113l9.893-.772a1.261,1.261,0,0,1,1.322.948.177.177,0,1,1-.343.088.908.908,0,0,0-.952-.683l-9.892.772a1.687,1.687,0,0,0-.435.093A.183.183,0,0,1,1550.116,1718.714Z" transform="translate(-1549.938 -1717.482)" fill="#541c27"/>
      </g>
      <g id="Grupo_1421" data-name="Grupo 1421" transform="translate(7.279 0.421)">
        <path id="Trazado_13637" data-name="Trazado 13637" d="M1838.2,958.12a.177.177,0,0,1-.177-.17c-.031-.736-.074-1.484-.127-2.222a74.945,74.945,0,0,0-2.013-12.921.906.906,0,0,0-.951-.682.177.177,0,1,1-.028-.353,1.259,1.259,0,0,1,1.322.948,75.349,75.349,0,0,1,2.024,12.983c.053.741.1,1.492.128,2.232a.177.177,0,0,1-.169.185Z" transform="translate(-1834.74 -941.769)" fill="#541c27"/>
      </g>
      <g id="Grupo_1422" data-name="Grupo 1422" transform="translate(6.383 0.681)" opacity="0.3">
        <path id="Trazado_13638" data-name="Trazado 13638" d="M1758.891,963.756h0Z" transform="translate(-1758.891 -963.756)" fill="#760153"/>
      </g>
      <g id="Grupo_1423" data-name="Grupo 1423" transform="translate(6.396 0.63)" opacity="0.3">
        <path id="Trazado_13639" data-name="Trazado 13639" d="M1760.878,959.456l-.835.051h0Z" transform="translate(-1760.041 -959.456)" fill="#760153"/>
      </g>
      <g id="Grupo_1424" data-name="Grupo 1424" transform="translate(7.76 0.598)" opacity="0.3">
        <path id="Trazado_13640" data-name="Trazado 13640" d="M1875.858,956.994l-.317-.238A1.009,1.009,0,0,1,1875.858,956.994Z" transform="translate(-1875.541 -956.756)" fill="#760153"/>
      </g>
      <g id="Grupo_1425" data-name="Grupo 1425" transform="translate(3.332 0.836)" opacity="0.3">
        <path id="Trazado_13641" data-name="Trazado 13641" d="M1501.936,981.638l-1.3.1.965-1.028,3.542-.258a.255.255,0,0,0,.231-.307q-.262-1.254-.566-2.457l.572-.779a1.984,1.984,0,0,1,.47.928c.284,1.075.536,2.216.759,3.413l-.994.1-.018-.093-3.7.3Z" transform="translate(-1500.641 -976.906)" fill="#760153"/>
      </g>
      <g id="Grupo_1426" data-name="Grupo 1426" transform="translate(4.083 5.388)" opacity="0.3">
        <path id="Trazado_13642" data-name="Trazado 13642" d="M1569.24,1367.067l-.017-.129c.006.043.011.086.017.129l-3.482.193.031.061-.4.047-1.138.131c0-.02,0-.039-.008-.059l1.008-1.154,3.341-.281a.479.479,0,0,0,.433-.547q-.168-1.171-.372-2.32l.851-.882c.278,1.522.512,3.132.712,4.812Z" transform="translate(-1564.241 -1362.255)" fill="#760153"/>
      </g>
      <g id="Grupo_1427" data-name="Grupo 1427" transform="translate(9.196 10.262)" opacity="0.3">
        <path id="Trazado_13643" data-name="Trazado 13643" d="M1998.421,1779.7l-.963.512c-.032-.741-.015-.324-.068-1.066q-.117-1.643-.3-3.277l.867-.911C1998.138,1776.485,1998.291,1778.071,1998.421,1779.7Z" transform="translate(-1997.091 -1774.956)" fill="#760153"/>
      </g>
      <g id="Grupo_1428" data-name="Grupo 1428" transform="translate(4.025 10.572)" opacity="0.3">
        <path id="Trazado_13644" data-name="Trazado 13644" d="M1559.357,1801.215l-.066.008.058-.067C1559.352,1801.175,1559.354,1801.195,1559.357,1801.215Z" transform="translate(-1559.291 -1801.156)" fill="#760153"/>
      </g>
      <g id="Grupo_1429" data-name="Grupo 1429" transform="translate(9.065 10.07)" opacity="0.3">
        <path id="Trazado_13645" data-name="Trazado 13645" d="M1986.008,1758.835h0c-.005-.043-.011-.086-.017-.129Z" transform="translate(-1985.99 -1758.706)" fill="#760153"/>
      </g>
      <g id="Grupo_1430" data-name="Grupo 1430" transform="translate(1.488 1.221)">
        <path id="Trazado_13646" data-name="Trazado 13646" d="M1347.148,1032.81a.644.644,0,0,1-.246-.049.177.177,0,1,1,.135-.328.289.289,0,0,0,.4-.253,77.734,77.734,0,0,0-2.17-22.08.294.294,0,0,0-.2-.212.3.3,0,0,0-.289.063.177.177,0,1,1-.236-.264.655.655,0,0,1,1.071.325,78.1,78.1,0,0,1,2.181,22.184.643.643,0,0,1-.643.612Z" transform="translate(-1344.479 -1009.521)" fill="#541c27"/>
      </g>
      <g id="Grupo_1431" data-name="Grupo 1431" transform="translate(0.177 12.392)">
        <path id="Trazado_13647" data-name="Trazado 13647" d="M1249.724,1960.169h0c-.073.066-.12.1-.12.1-1.035-2.04-1.712-1.266-1.712-1.266s.011,1.363-.8,1.721c-.491.216-1.285.064-2.566-.983-3.4-2.776-4.518-.827-4.518-.827-1.643,3.2-2.746,2.557-3.642.443a3.029,3.029,0,0,0-2.5,0l.823-1.949-1.152-.561a3.1,3.1,0,0,1,1.554-1.641,2.77,2.77,0,0,0,2.813,2.3c2.464,0,3.119-1.125,6.129-.305a7.683,7.683,0,0,0,4.832-.39h0a6.522,6.522,0,0,0,.846-.406l.895,1.625A2.741,2.741,0,0,1,1249.724,1960.169Z" transform="translate(-1233.541 -1955.206)" fill="#fbc100"/>
      </g>
      <g id="Grupo_1432" data-name="Grupo 1432" transform="translate(0.177 12.392)" opacity="0.55">
        <path id="Trazado_13648" data-name="Trazado 13648" d="M1238.6,1960.877c-.91.681-1.618-.077-2.23-1.52a3.029,3.029,0,0,0-2.5,0l.823-1.949-1.152-.561a3.1,3.1,0,0,1,1.554-1.641s.007.045.025.124a2.915,2.915,0,0,0-.883,1.1.183.183,0,0,0,.088.237l.7.34a.354.354,0,0,1,.171.456l-.692,1.64a3.174,3.174,0,0,1,1.7-.247,1.368,1.368,0,0,1,1.024.742C1237.629,1960.4,1238.076,1960.891,1238.6,1960.877Z" transform="translate(-1233.541 -1955.206)" fill="#fff"/>
      </g>
      <g id="Grupo_1433" data-name="Grupo 1433" transform="translate(7.66 15.183)" opacity="0.55">
        <path id="Trazado_13649" data-name="Trazado 13649" d="M1873.367,2194.06c-.454.41-1.289.44-2.824-.814-1.674-1.368-2.8-1.589-3.5-1.46.569-.384,1.827-.679,4.134,1.208A3.607,3.607,0,0,0,1873.367,2194.06Z" transform="translate(-1867.041 -2191.502)" fill="#fff"/>
      </g>
      <g id="Grupo_1434" data-name="Grupo 1434" transform="translate(0 12.214)">
        <path id="Trazado_13650" data-name="Trazado 13650" d="M1223.116,1946.491h-.035c-.617-.022-1.151-.6-1.676-1.818a2.89,2.89,0,0,0-2.281.028.177.177,0,0,1-.242-.228l.758-1.794-1-.488a.177.177,0,0,1-.089-.219,3.261,3.261,0,0,1,1.651-1.744.177.177,0,0,1,.245.136,2.575,2.575,0,0,0,2.637,2.149h.005a8.658,8.658,0,0,0,2.226-.318,6.716,6.716,0,0,1,3.944.018,7.835,7.835,0,0,0,5.54-.776.177.177,0,0,1,.183.3,8.063,8.063,0,0,1-5.816.815,6.351,6.351,0,0,0-3.767-.016,8.945,8.945,0,0,1-2.31.328h-.005a2.915,2.915,0,0,1-2.932-2.214,2.929,2.929,0,0,0-1.209,1.292l1,.489a.177.177,0,0,1,.086.228l-.663,1.57a3.082,3.082,0,0,1,2.252.152.177.177,0,0,1,.084.089c.461,1.087.929,1.647,1.39,1.664.553.019,1.2-.693,1.932-2.118l0-.007a1.672,1.672,0,0,1,1.134-.719c.986-.181,2.214.323,3.65,1.5,1.059.865,1.891,1.193,2.4.947.673-.322.673-1.535.673-1.547a.177.177,0,0,1,.044-.118.675.675,0,0,1,.577-.2c.437.055.881.493,1.322,1.3a2.549,2.549,0,0,0,.774-1.955.177.177,0,1,1,.354-.014,2.884,2.884,0,0,1-1.079,2.392.177.177,0,0,1-.261-.064c-.544-1.074-.952-1.281-1.147-1.31a.337.337,0,0,0-.231.047c-.012.319-.11,1.419-.872,1.784-.656.314-1.592-.02-2.782-.993-1.677-1.37-2.748-1.531-3.351-1.424a1.328,1.328,0,0,0-.9.547C1224.542,1945.737,1223.814,1946.491,1223.116,1946.491Z" transform="translate(-1218.539 -1940.214)" fill="#541c27"/>
      </g>
      <g id="Grupo_1435" data-name="Grupo 1435" transform="translate(15.528 11.287)">
        <path id="Trazado_13651" data-name="Trazado 13651" d="M2535.028,1866.661a1.227,1.227,0,0,1-.33-.049.177.177,0,1,1,.095-.341c.423.117.546-.073.6-.227a3.141,3.141,0,0,0-.422-2.065,4.06,4.06,0,0,0-1.761-1.918.177.177,0,0,1,.146-.323,4.411,4.411,0,0,1,1.932,2.082,3.367,3.367,0,0,1,.438,2.344A.7.7,0,0,1,2535.028,1866.661Z" transform="translate(-2533.108 -1861.723)" fill="#541c27"/>
      </g>
      <g id="Grupo_1436" data-name="Grupo 1436" transform="translate(9.065 10.07)" opacity="0.3">
        <path id="Trazado_13652" data-name="Trazado 13652" d="M1986.008,1758.835h0c-.005-.043-.011-.086-.017-.129Z" transform="translate(-1985.99 -1758.706)" fill="#760153"/>
      </g>
      <g id="Grupo_1437" data-name="Grupo 1437" transform="translate(8.879 10.2)" opacity="0.2">
        <path id="Trazado_13653" data-name="Trazado 13653" d="M1970.443,1769.656l-.2.018,0-.018Z" transform="translate(-1970.24 -1769.656)" fill="#fff"/>
      </g>
      <g id="Grupo_1438" data-name="Grupo 1438" transform="translate(1.609 8.954)" opacity="0.3">
        <path id="Trazado_13654" data-name="Trazado 13654" d="M1354.792,1666.506c1.18,1.058,2.091-.616,2.257-2.3l.678,5.737C1356.263,1669.832,1354.847,1669.164,1354.792,1666.506Z" transform="translate(-1354.792 -1664.206)" fill="#760153"/>
      </g>
      <g id="Grupo_1439" data-name="Grupo 1439" transform="translate(1.61 11.262)" opacity="0.3">
        <path id="Trazado_13655" data-name="Trazado 13655" d="M1354.934,1860.627a5.8,5.8,0,0,1-.116-1.078Q1354.878,1860.084,1354.934,1860.627Z" transform="translate(-1354.817 -1859.549)" fill="#760153"/>
      </g>
      <g id="Grupo_1440" data-name="Grupo 1440" transform="translate(13.548 13.59)" opacity="0.3">
        <path id="Trazado_13656" data-name="Trazado 13656" d="M2368.353,2060.421c.083-.222-.12.1-.12.1-1.035-2.041-1.712-1.267-1.712-1.267s.011,1.363-.8,1.721l-.18-.054a3.974,3.974,0,0,0,.333-1.751.841.841,0,0,1,1.277-.75,3.538,3.538,0,0,0,.738.391c1.152.305.177-1.548-.391-1.748a6.583,6.583,0,0,0,.846-.406l.895,1.624A2.741,2.741,0,0,1,2368.353,2060.421Z" transform="translate(-2365.541 -2056.656)" fill="#541c27"/>
      </g>
      <g id="Grupo_1441" data-name="Grupo 1441" transform="translate(2.029 15.515)" opacity="0.3">
        <path id="Trazado_13657" data-name="Trazado 13657" d="M1404.32,2226.792a1.084,1.084,0,0,1-1,1.031l-9.748.761a3.012,3.012,0,0,1-.592-.013l-.083-.025c4.135-.325,7.477-1.171,8.649-3.442a1.257,1.257,0,0,0-.669-1.74,5.681,5.681,0,0,1-1.455-.919c-3.4-2.775-4.518-.827-4.518-.827-1.642,3.2-2.746,2.557-3.642.443a2.63,2.63,0,0,0-.91-.26q-.025-.722-.062-1.433a2.651,2.651,0,0,1,.973.266c.9,2.114,2,2.757,3.642-.443a1.266,1.266,0,0,1,.331-.343,6.972,6.972,0,0,1,1.676-.242,6.583,6.583,0,0,1,2.512,1.412c1.684,1.377,2.526,1.206,2.946.684h0a1.779,1.779,0,0,0,.313-.653h0a3.184,3.184,0,0,0,.107-.769s.609-.7,1.556.977c0,.034,0,.068,0,.1,0,.116.007.231.01.347q.013.52.02,1.039C1404.4,2224.114,1404.377,2225.468,1404.32,2226.792Z" transform="translate(-1390.291 -2219.605)" fill="#541c27"/>
      </g>
    </g>
    <g id="Grupo_1449" data-name="Grupo 1449" transform="translate(354.941 349.162)">
      <path id="Trazado_13658" data-name="Trazado 13658" d="M1.3.463A.663.663,0,1,1,.463.031.663.663,0,0,1,1.3.463Z" transform="translate(0.208 0) rotate(9)" fill="#291b22"/>
      <path id="Trazado_13659" data-name="Trazado 13659" d="M.461.164A.236.236,0,1,1,.344.026.236.236,0,0,1,.461.164Z" transform="translate(0.324 0.19) rotate(9)" fill="#f6f6f6"/>
    </g>
    <path id="Trazado_13660" data-name="Trazado 13660" d="M1.3.462A.663.663,0,1,1,.468.029.663.663,0,0,1,1.3.462Z" transform="translate(351.118 349.338) rotate(9)" fill="#291b22"/>
    <path id="Trazado_13661" data-name="Trazado 13661" d="M.461.165a.236.236,0,1,1-.3-.154A.236.236,0,0,1,.461.165Z" transform="translate(351.234 349.525) rotate(9)" fill="#f6f6f6"/>
    <path id="Trazado_13662" data-name="Trazado 13662" d="M1.225.181a.5.5,0,1,1-.953.3A.139.139,0,1,0,.007.566.778.778,0,1,0,1.489.1a.139.139,0,0,0-.265.084Z" transform="translate(353.018 350.856) rotate(9)" fill="#291b22"/>
  </g>
</svg>
