<svg id="Grupo_1029" data-name="Grupo 1029" xmlns="http://www.w3.org/2000/svg" width="71.679" height="71.679" viewBox="0 0 71.679 71.679">
  <path id="Trazado_12910" data-name="Trazado 12910" d="M343.167,234.884c-.146.771-.268,1.539-.361,2.309a35.621,35.621,0,0,0,.725,12.773,35.673,35.673,0,0,0,1.792,5.468,36.086,36.086,0,0,0,7.321,11.087c.014.015.031.031.045.046a35.724,35.724,0,0,0,19,10.211,36.066,36.066,0,0,0,6.135.628,35.574,35.574,0,0,0,13.638-2.471c.261-.1.519-.209.776-.316a36.05,36.05,0,0,0,11.088-7.32,35.75,35.75,0,0,0,8.223-12.156c.3-.723.568-1.463.818-2.214a36.107,36.107,0,0,0,1.842-10.806c0-.237,0-.474,0-.712a35.142,35.142,0,0,0-.817-7.455,35.662,35.662,0,0,0-1.973-6.249,36.055,36.055,0,0,0-7.321-11.087q-.5-.52-1.028-1.019a35.591,35.591,0,0,0-11.127-7.2,36.094,36.094,0,0,0-13.02-2.661,35.446,35.446,0,0,0-13.156,2.288c-.423.157-.845.323-1.259.5a35.882,35.882,0,0,0-8.572,5.109q-1.311,1.043-2.515,2.212a34.7,34.7,0,0,0-3.99,4.59A35.239,35.239,0,0,0,345.2,228c-.039.095-.077.186-.111.283A35.823,35.823,0,0,0,343.167,234.884Z" transform="translate(-342.533 -205.731)" fill="#fcab29"/>
  <path id="Trazado_12911" data-name="Trazado 12911" d="M362.083,214.683c6.584,3.739,15.709,6.988,26.041,8.952s20.017,2.285,27.514,1.221a36.039,36.039,0,0,0-5.394-7.184c-.335-.347-.677-.686-1.028-1.019a99.919,99.919,0,0,1-17.782-1.817,97.505,97.505,0,0,1-19.521-5.76c-.423.157-.845.323-1.259.5A35.886,35.886,0,0,0,362.083,214.683Z" transform="translate(-348.678 -206.783)" fill="#ffe5bb"/>
  <path id="Trazado_12912" data-name="Trazado 12912" d="M346.261,235.022c5.913,5.771,18.276,11.258,33.134,14.08s28.372,2.25,35.988-.95a35.141,35.141,0,0,0-.817-7.455c-7.884,1.953-19.4,1.975-31.861-.392-14.039-2.667-25.854-7.718-32.1-13.13a35.24,35.24,0,0,0-4.233,7.565C346.333,234.834,346.3,234.926,346.261,235.022Z" transform="translate(-343.705 -212.471)" fill="#ffe5bb"/>
  <path id="Trazado_12913" data-name="Trazado 12913" d="M342.807,251.615a35.622,35.622,0,0,0,.725,12.773c6.484,5.047,17.726,9.667,30.934,12.175s25.365,2.334,33.249.016a35.63,35.63,0,0,0,3.832-7.014c.3-.723.568-1.463.818-2.214-7.8,2.719-20.6,3.07-34.588.414C361.147,264.608,347.636,258.1,342.807,251.615Z" transform="translate(-342.533 -220.154)" fill="#ffe5bb"/>
  <path id="Trazado_12914" data-name="Trazado 12914" d="M357.347,294.454a35.833,35.833,0,0,0,38.768,8.368,100.068,100.068,0,0,1-17.439-1.812A95.07,95.07,0,0,1,357.347,294.454Z" transform="translate(-347.19 -233.619)" fill="#ffe5bb"/>
  <g id="Grupo_1027" data-name="Grupo 1027" transform="translate(7.72 5.341)">
    <path id="Trazado_12915" data-name="Trazado 12915" d="M400.739,213.52a35.841,35.841,0,1,1-44.554,55.449c-.845-.874-1.64-1.793-2.392-2.745C381.769,287.89,429.713,257.183,400.739,213.52Z" transform="translate(-353.793 -213.52)" fill="#eab86a" opacity="0.5" style="mix-blend-mode: multiply;isolation: isolate"/>
    <path id="Trazado_12916" data-name="Trazado 12916" d="M368.318,275.461a36.093,36.093,0,0,0,13.019,2.661,35.591,35.591,0,0,0,14.415-2.787,36.076,36.076,0,0,0,11.087-7.32,35.837,35.837,0,0,0,8.1-39.59,35.825,35.825,0,0,0-10.778-14.216,35.84,35.84,0,1,1-41.839,58.106A35.553,35.553,0,0,0,368.318,275.461Z" transform="translate(-356.473 -213.737)" fill="#eab86a" opacity="0.5" style="mix-blend-mode: multiply;isolation: isolate"/>
  </g>
  <g id="Grupo_1028" data-name="Grupo 1028" transform="translate(2.229 1.247)">
    <path id="Trazado_12917" data-name="Trazado 12917" d="M362.531,260.965c5.7.189,7.143-9,21.841-23.225,12.861-12.442,16.123-9.671,17.551-15.385,1.844-7.381-12.935-14.676-23.929-14.8-15.545-.182-32.254,13.48-32.208,29.479C345.818,248.339,354.222,260.69,362.531,260.965Z" transform="translate(-345.785 -207.549)" fill="#fff" opacity="0.2" style="mix-blend-mode: screen;isolation: isolate"/>
    <path id="Trazado_12918" data-name="Trazado 12918" d="M383.909,212.077c8.226.426,16.918,4.952,16.253,7.825-.388,1.679-11.2-.024-25.119,11.484-14.362,11.872-13.2,24.752-15.174,24.874-2.28.141-9.034-11.373-7.173-21.446C355.3,220.706,370.889,211.4,383.909,212.077Z" transform="translate(-347.856 -208.962)" fill="#fff" opacity="0.3" style="mix-blend-mode: screen;isolation: isolate"/>
    <path id="Trazado_12919" data-name="Trazado 12919" d="M391.688,214.79c.161-.913-6.147-4.033-13.307-3.95-10.188.117-21.263,6.708-25.463,16.824-3.389,8.159-1.57,16.838-.547,16.941.977.1.434-7.745,5.671-15.642,6.616-9.979,17.752-12.939,19-13.252C385.163,213.677,391.529,215.693,391.688,214.79Z" transform="translate(-347.411 -208.583)" fill="#fff" opacity="0.4" style="mix-blend-mode: screen;isolation: isolate"/>
    <path id="Trazado_12920" data-name="Trazado 12920" d="M347.511,227.82a32.318,32.318,0,0,1,31.946-19.51c4.146.273,13.506,3.727,5.53,3.2-15.4-1.013-28.962,7.517-35.97,20.215C347.171,235.074,346.029,231.341,347.511,227.82Z" transform="translate(-346.114 -207.766)" fill="#fff" opacity="0.25" style="mix-blend-mode: screen;isolation: isolate"/>
    <path id="Trazado_12921" data-name="Trazado 12921" d="M378.854,210.191c1.944-.108,5.723.736,4.275,1.213a56.055,56.055,0,0,0-13.756,5.195c-2.545,1.354-4.317-.554-3.11-1.708S373.254,210.5,378.854,210.191Z" transform="translate(-352.1 -208.377)" fill="#fff" style="mix-blend-mode: screen;isolation: isolate"/>
    <path id="Trazado_12922" data-name="Trazado 12922" d="M359.505,221.5c.719-.527,3.46.488,2.974.848a30.453,30.453,0,0,0-9.681,11.124C350.225,238.321,352.368,226.726,359.505,221.5Z" transform="translate(-347.66 -211.887)" fill="#fff" style="mix-blend-mode: screen;isolation: isolate"/>
  </g>
</svg>
