<svg xmlns="http://www.w3.org/2000/svg" width="110.077" height="99.763" viewBox="0 0 110.077 99.763">
  <g id="Grupo_15891" data-name="Grupo 15891" transform="translate(-236.053 -1460.537)">
    <g id="Grupo_15336" data-name="Grupo 15336" transform="translate(306.431 1474.067) rotate(82)">
      <g id="Grupo_15319" data-name="Grupo 15319" transform="translate(0 0)">
        <g id="Grupo_15318" data-name="Grupo 15318">
          <path id="Trazado_15595" data-name="Trazado 15595" d="M718.646,196.43a35.528,35.528,0,1,1-48.409-13.456A35.529,35.529,0,0,1,718.646,196.43Z" transform="translate(-652.179 -178.372)" fill="#f978a3"/>
        </g>
      </g>
      <g id="Grupo_15332" data-name="Grupo 15332" transform="translate(0.243 0.599)">
        <g id="Grupo_15321" data-name="Grupo 15321" transform="translate(34.977 34.778)">
          <g id="Grupo_15320" data-name="Grupo 15320">
            <path id="Trazado_15596" data-name="Trazado 15596" d="M672.231,198.813c14.854,3.58,17.025,20.847,12.811,33.07a35.513,35.513,0,0,0,14.266-9.713C698.511,208.243,685.5,196.468,672.231,198.813Z" transform="translate(-672.231 -198.514)" fill="#ec115f"/>
          </g>
        </g>
        <g id="Grupo_15323" data-name="Grupo 15323" transform="translate(8.685 1.579)">
          <g id="Grupo_15322" data-name="Grupo 15322">
            <path id="Trazado_15597" data-name="Trazado 15597" d="M683.554,213.11c-13.672-4.352-16.964-21.212-12.046-33.5a35.7,35.7,0,0,0-14.246,9.943C658.43,202.944,669.267,215.172,683.554,213.11Z" transform="translate(-657.262 -179.612)" fill="#ec115f"/>
          </g>
        </g>
        <g id="Grupo_15325" data-name="Grupo 15325" transform="translate(34.977 21.027)">
          <g id="Grupo_15324" data-name="Grupo 15324">
            <path id="Trazado_15598" data-name="Trazado 15598" d="M672.231,204.735c10.639-8.594,28-5.269,35.559,5.754a35.4,35.4,0,0,0-1.224-17.027C694.267,187.4,677.627,191.3,672.231,204.735Z" transform="translate(-672.231 -190.685)" fill="#ec115f"/>
          </g>
        </g>
        <g id="Grupo_15327" data-name="Grupo 15327" transform="translate(0 29.534)">
          <g id="Grupo_15326" data-name="Grupo 15326">
            <path id="Trazado_15599" data-name="Trazado 15599" d="M687.294,201.071c-9.764,9.762-27.186,4.539-34.579-5.543a35.353,35.353,0,0,0,1.553,16.879C666.2,217.329,683,214.555,687.294,201.071Z" transform="translate(-652.317 -195.528)" fill="#ec115f"/>
          </g>
        </g>
        <g id="Grupo_15329" data-name="Grupo 15329" transform="translate(13.141 35.077)">
          <g id="Grupo_15328" data-name="Grupo 15328">
            <path id="Trazado_15600" data-name="Trazado 15600" d="M681.635,198.684C684.972,212.112,672.781,223.8,659.8,226a35.594,35.594,0,0,0,15.418,7.24C685.265,225.659,691.759,209.087,681.635,198.684Z" transform="translate(-659.799 -198.684)" fill="#ec115f"/>
          </g>
        </g>
        <g id="Grupo_15331" data-name="Grupo 15331" transform="translate(30.543)">
          <g id="Grupo_15330" data-name="Grupo 15330">
            <path id="Trazado_15601" data-name="Trazado 15601" d="M674.141,213.79c-2.724-13.99,9.8-27.451,23.1-27.725a35.58,35.58,0,0,0-15.467-7.352C670.261,186.483,665.5,203.087,674.141,213.79Z" transform="translate(-669.706 -178.713)" fill="#ec115f"/>
          </g>
        </g>
      </g>
      <g id="Grupo_15333" data-name="Grupo 15333" transform="translate(0.884 1.205)" opacity="0.2">
        <path id="Trazado_15602" data-name="Trazado 15602" d="M712.486,208.959a29.9,29.9,0,1,1-29.9-29.9A29.9,29.9,0,0,1,712.486,208.959Z" transform="translate(-652.682 -179.058)" fill="#fff"/>
      </g>
      <g id="Grupo_15335" data-name="Grupo 15335" transform="translate(5.862 4.253)" opacity="0.5">
        <g id="Grupo_15334" data-name="Grupo 15334">
          <path id="Trazado_15603" data-name="Trazado 15603" d="M670.068,239.675a9.971,9.971,0,0,1-.862-.541,22.619,22.619,0,0,1-2.28-1.779,28.418,28.418,0,0,1-3.174-3.228,30.619,30.619,0,0,1-3.429-4.839,32.953,32.953,0,0,1-2.956-6.451,16.4,16.4,0,0,1-.569-1.844c-.168-.667-.33-1.187-.508-2a33.41,33.41,0,0,1-.613-3.95,31.5,31.5,0,0,1,.322-8.733,33.594,33.594,0,0,1,2.747-8.571,33.189,33.189,0,0,1,4.957-7.54,22.336,22.336,0,0,1,3.4-3.13,28.9,28.9,0,0,1,3.708-2.261,36.375,36.375,0,0,1,14.461-3.941,31.87,31.87,0,0,1,5.923.167,29.9,29.9,0,0,1,4.438.855,25.87,25.87,0,0,1,2.744.884l.943.376-1.008-.07c-.654-.058-1.618-.093-2.828-.119s-2.673.032-4.326.165a42.367,42.367,0,0,0-5.453.864,41.255,41.255,0,0,0-6.148,1.923,40.274,40.274,0,0,0-6.318,3.184,28.7,28.7,0,0,0-2.94,2.1,17.253,17.253,0,0,0-2.441,2.536,33.293,33.293,0,0,0-3.989,6.436,33.945,33.945,0,0,0-2.44,7.191,32.4,32.4,0,0,0-.715,7.3,36.59,36.59,0,0,0,.221,3.7c.046.423.162,1.117.239,1.653.072.578.192,1.136.311,1.688a38.573,38.573,0,0,0,1.77,6.172,43.467,43.467,0,0,0,4.511,8.731A31.607,31.607,0,0,0,670.068,239.675Z" transform="translate(-655.517 -180.794)" fill="#fff"/>
        </g>
      </g>
    </g>
    <g id="Grupo_15355" data-name="Grupo 15355" transform="translate(337.731 1460.537) rotate(82)">
      <g id="Grupo_15338" data-name="Grupo 15338" transform="translate(0)">
        <g id="Grupo_15337" data-name="Grupo 15337">
          <path id="Trazado_15604" data-name="Trazado 15604" d="M618.009,152.121c9.2,9.2,9.7,24.788,3.194,36.017-5.5,7.643-13.2,12.745-22.261,14.09-16.16.819-31.771-10.762-33.486-27.17a29.707,29.707,0,0,1,7.624-23.953c10.657-10.555,29.109-12.668,40.514-3.156A29.979,29.979,0,0,1,618.009,152.121Z" transform="translate(-565.234 -141.871)" fill="#e8ec3a"/>
        </g>
      </g>
      <g id="Grupo_15351" data-name="Grupo 15351" transform="translate(0.094 0.004)">
        <g id="Grupo_15340" data-name="Grupo 15340" transform="translate(28.187 16.58)">
          <g id="Grupo_15339" data-name="Grupo 15339">
            <path id="Trazado_15605" data-name="Trazado 15605" d="M602.925,156.4c-5.128-2.39-11.182.273-13.895,4.829-1.321,3.014-.027,5.3,1.269,7.594-.723-2.612-1.2-6.124,1.668-7.742,6.624-2.987,13.546-.1,17.678,5.879,4.823,8.535,2.9,20.219-3.889,28.006a35.871,35.871,0,0,0,10.189-9.485C619.115,173.826,615,161.138,602.925,156.4Z" transform="translate(-588.477 -155.501)" fill="#97bb02"/>
          </g>
        </g>
        <g id="Grupo_15342" data-name="Grupo 15342" transform="translate(3.156 4.525)">
          <g id="Grupo_15341" data-name="Grupo 15341">
            <path id="Trazado_15606" data-name="Trazado 15606" d="M589.8,183.59c4.085-.795,6.551-4.456,7.224-8.613a5.628,5.628,0,0,0-2.264-4.01c1.516,6.7-5.357,10.583-10.735,9.088-14.206-5.294-13.873-24-5.356-34.46a30.825,30.825,0,0,0-6.166,4.7,27.8,27.8,0,0,0-3.858,5.172,27.579,27.579,0,0,0,.419,14.15C571.873,178.608,579.59,185.581,589.8,183.59Z" transform="translate(-567.905 -145.594)" fill="#97bb02"/>
          </g>
        </g>
        <g id="Grupo_15344" data-name="Grupo 15344" transform="translate(21.426 7.968)">
          <g id="Grupo_15343" data-name="Grupo 15343">
            <path id="Trazado_15607" data-name="Trazado 15607" d="M585.454,155.638a16.738,16.738,0,0,0-2.418,10.432,6.66,6.66,0,0,0,8.467,4.283c-5.629-.6-6.25-7.046-4.108-11.279,4.11-6.1,12.277-7.691,18.874-5.375a24.149,24.149,0,0,1,15.458,15.736,28.825,28.825,0,0,0-3.685-13.667C609.573,147.531,593.886,144.584,585.454,155.638Z" transform="translate(-582.92 -148.423)" fill="#97bb02"/>
          </g>
        </g>
        <g id="Grupo_15346" data-name="Grupo 15346" transform="translate(0 29.631)">
          <g id="Grupo_15345" data-name="Grupo 15345">
            <path id="Trazado_15608" data-name="Trazado 15608" d="M590.81,187.933c7.594-1.269,15.463-8.737,12.975-17.153a7.218,7.218,0,0,0-8.465-4.285c5.378,1.5,6.647,9.091,2.711,12.824-11.409,10.626-28.05,1.741-32.72-10.887.035.449.073.9.128,1.347a28.346,28.346,0,0,0,4.029,11.847C575.39,186.309,582.732,189.13,590.81,187.933Z" transform="translate(-565.311 -166.228)" fill="#97bb02"/>
          </g>
        </g>
        <g id="Grupo_15348" data-name="Grupo 15348" transform="translate(17.275 24.977)">
          <g id="Grupo_15347" data-name="Grupo 15347">
            <path id="Trazado_15609" data-name="Trazado 15609" d="M604.168,164.364c-3.409-3.363-10.432-2.419-11.925,2.959,4.755-4.953,10.854-.843,12.3,4.385,3.176,15.3-12.066,24.3-25.033,22.619a33.356,33.356,0,0,0,12.184,3.385C605,193.685,616.5,176.035,604.168,164.364Z" transform="translate(-579.509 -162.403)" fill="#97bb02"/>
          </g>
        </g>
        <g id="Grupo_15350" data-name="Grupo 15350" transform="translate(12.566)">
          <g id="Grupo_15349" data-name="Grupo 15349">
            <path id="Trazado_15610" data-name="Trazado 15610" d="M575.751,161.164c-.6,5.627,1.169,11.429,6.049,14.715,4.233,2.143,10.034.377,11.281-4.106-4.757,4.956-12.327.921-13.2-4.632-2.425-15.473,13.772-24.513,27.484-21.89a28.481,28.481,0,0,0-14.014-3.374C584.665,145.169,577.125,151.521,575.751,161.164Z" transform="translate(-575.639 -141.875)" fill="#97bb02"/>
          </g>
        </g>
      </g>
      <g id="Grupo_15352" data-name="Grupo 15352" transform="translate(0.094 2.17)" opacity="0.2">
        <path id="Trazado_15611" data-name="Trazado 15611" d="M615.755,168.877a25.222,25.222,0,1,1-25.221-25.222A25.22,25.22,0,0,1,615.755,168.877Z" transform="translate(-565.311 -143.655)" fill="#fff"/>
      </g>
      <g id="Grupo_15354" data-name="Grupo 15354" transform="translate(4.277 4.734)" opacity="0.5">
        <g id="Grupo_15353" data-name="Grupo 15353">
          <path id="Trazado_15612" data-name="Trazado 15612" d="M581.039,195.437a8.582,8.582,0,0,1-.729-.457,19.357,19.357,0,0,1-1.924-1.5,24.038,24.038,0,0,1-2.68-2.723,25.959,25.959,0,0,1-2.9-4.078,27.771,27.771,0,0,1-2.5-5.446,13.653,13.653,0,0,1-.481-1.555c-.144-.562-.28-1-.43-1.689a27.735,27.735,0,0,1-.518-3.331,26.562,26.562,0,0,1,.271-7.372,28.073,28.073,0,0,1,6.5-13.6,18.846,18.846,0,0,1,2.874-2.64,24.149,24.149,0,0,1,3.129-1.907,30.654,30.654,0,0,1,12.2-3.32,26.775,26.775,0,0,1,5,.142,25.3,25.3,0,0,1,3.745.725,22.273,22.273,0,0,1,2.315.748l.794.316-.853-.057c-.55-.049-1.364-.077-2.385-.1s-2.255.027-3.648.14a36.268,36.268,0,0,0-4.6.732,34.885,34.885,0,0,0-5.181,1.624,34.052,34.052,0,0,0-5.326,2.687,24.933,24.933,0,0,0-2.478,1.775,14.74,14.74,0,0,0-2.056,2.137,28.118,28.118,0,0,0-3.362,5.425,28.782,28.782,0,0,0-2.056,6.06,27.476,27.476,0,0,0-.6,6.155c-.044.928.118,2.072.184,3.121.04.354.14.939.2,1.392.06.487.161.956.26,1.422a32.757,32.757,0,0,0,1.49,5.2,36.6,36.6,0,0,0,3.8,7.37A26.32,26.32,0,0,0,581.039,195.437Z" transform="translate(-568.749 -145.762)" fill="#fff"/>
        </g>
      </g>
    </g>
    <g id="Grupo_15359" data-name="Grupo 15359" transform="translate(331.303 1506.572) rotate(82)">
      <path id="Trazado_15613" data-name="Trazado 15613" d="M624.905,294.974c1.143-1.851,2.271-3.824,3.558-5.728s2.571-3.88,4.03-5.711q1.065-1.406,2.131-2.81c.742-.9,1.511-1.779,2.261-2.665s1.488-1.781,2.265-2.614c.591-.606,1.168-1.2,1.744-1.8a23.71,23.71,0,0,0-11.223,3.079,24.1,24.1,0,0,0-2.936,1.959c-1.1.955-2.143,1.962-3.17,2.978a23.832,23.832,0,0,0-4.361,24.451c.088-.192.172-.381.266-.577l1.134-2.452,1.306-2.588C622.775,298.7,623.867,296.9,624.905,294.974Z" transform="translate(-617.574 -273.649)" fill="#ffc300"/>
      <path id="Trazado_15614" data-name="Trazado 15614" d="M668.078,297.585c-1.1,1.236-2.186,2.562-3.339,3.875-1.465,1.867-3.025,3.735-4.469,5.749s-2.938,4.021-4.245,6.17l-2.013,3.158c-.631,1.076-1.222,2.168-1.826,3.237-.518.948-1.053,1.868-1.544,2.8a23.824,23.824,0,0,0,17.435-24.993Z" transform="translate(-620.542 -275.797)" fill="#f90"/>
      <path id="Trazado_15615" data-name="Trazado 15615" d="M665.669,291.787c-.081.056-.159.112-.241.167l-2.918,2.028c-.972.706-1.9,1.486-2.868,2.24s-1.943,1.527-2.9,2.321l-2.8,2.491c-1.912,1.633-3.641,3.44-5.412,5.178-1.755,1.75-3.351,3.587-4.959,5.331-1.5,1.821-3.047,3.529-4.352,5.268q-1,1.294-1.949,2.511-.9,1.233-1.726,2.38a23.789,23.789,0,0,0,13.859.32c.76-1.457,1.629-2.926,2.465-4.483,1.143-1.851,2.273-3.825,3.56-5.729s2.57-3.88,4.029-5.711q1.066-1.406,2.131-2.81c.742-.9,1.511-1.779,2.262-2.665s1.488-1.781,2.265-2.614c.215-.22.422-.433.634-.654A23.634,23.634,0,0,0,665.669,291.787Z" transform="translate(-619.187 -275.277)" fill="#ffc300"/>
      <path id="Trazado_15616" data-name="Trazado 15616" d="M663.452,286.355a23.748,23.748,0,0,0-4.732-5.921l-1.342,1.35-2.166,2.326c-1.508,1.565-2.947,3.367-4.5,5.138-1.466,1.867-3.026,3.736-4.47,5.75s-2.938,4.02-4.245,6.169l-2.011,3.159c-.631,1.074-1.224,2.168-1.827,3.236s-1.211,2.118-1.752,3.19q-.777,1.626-1.535,3.206c-.491,1.057-1.018,2.064-1.445,3.1-.337.849-.662,1.672-.983,2.489a23.923,23.923,0,0,0,3.4,1.314c.388-.605.772-1.207,1.171-1.832.591-.891,1.283-1.753,1.935-2.651s1.333-1.793,2.013-2.709c.7-.9,1.476-1.761,2.217-2.653.756-.882,1.5-1.782,2.27-2.659l2.431-2.553c1.575-1.732,3.334-3.3,4.994-4.891s3.441-3,5.085-4.429c1.739-1.334,3.333-2.7,4.975-3.841q1.206-.878,2.345-1.7c.048-.032.09-.063.139-.095A23.853,23.853,0,0,0,663.452,286.355Z" transform="translate(-618.908 -274.258)" fill="#f90"/>
      <path id="Trazado_15617" data-name="Trazado 15617" d="M654.845,277.97l-.251.149c-.95.588-1.862,1.27-2.826,1.922l-2.918,2.029c-.972.7-1.9,1.486-2.868,2.24s-1.942,1.526-2.9,2.32q-1.391,1.243-2.794,2.491c-1.912,1.634-3.641,3.439-5.412,5.178s-3.351,3.588-4.959,5.332c-1.5,1.82-3.047,3.528-4.352,5.268q-1,1.292-1.95,2.51l-1.747,2.409c-.133.18-.257.357-.386.535a23.7,23.7,0,0,0,9.935,8.947c.4-.97.839-2.017,1.363-3.111l1.134-2.451,1.305-2.588c.866-1.8,1.957-3.594,2.995-5.523,1.143-1.851,2.271-3.826,3.56-5.728s2.57-3.88,4.028-5.713q1.068-1.4,2.131-2.809c.743-.9,1.511-1.779,2.263-2.664s1.487-1.781,2.264-2.615l2.351-2.42c.783-.786,1.522-1.607,2.307-2.333.321-.289.627-.562.944-.845A23.745,23.745,0,0,0,654.845,277.97Z" transform="translate(-617.925 -274.037)" fill="#ffc300"/>
      <path id="Trazado_15618" data-name="Trazado 15618" d="M654.746,277.643a23.906,23.906,0,0,0-14.061-3.979c-1.365,1.464-2.688,3.094-4.107,4.71-1.465,1.867-3.024,3.735-4.469,5.749s-2.937,4.021-4.245,6.17q-1.006,1.581-2.012,3.158c-.63,1.076-1.223,2.168-1.827,3.237s-1.212,2.117-1.751,3.19q-.78,1.625-1.535,3.205c-.473,1.018-.976,1.992-1.4,2.986a23.951,23.951,0,0,0,1.468,3.1c.219.388.45.766.686,1.136l1.381-2.158c.591-.892,1.283-1.752,1.934-2.65s1.332-1.794,2.013-2.709c.7-.9,1.476-1.762,2.217-2.654s1.5-1.782,2.268-2.66q1.215-1.271,2.433-2.552c1.574-1.733,3.333-3.3,4.993-4.892s3.442-3,5.085-4.429c1.739-1.334,3.333-2.7,4.974-3.84l2.345-1.7,2.239-1.512C653.845,278.228,654.3,277.932,654.746,277.643Z" transform="translate(-617.733 -273.649)" fill="#f90"/>
      <g id="Grupo_15356" data-name="Grupo 15356" transform="translate(0.39 2.326)" opacity="0.2">
        <path id="Trazado_15619" data-name="Trazado 15619" d="M658.086,296.246A20.042,20.042,0,1,1,638.044,276.2,20.041,20.041,0,0,1,658.086,296.246Z" transform="translate(-618.003 -276.204)" fill="#fff"/>
      </g>
      <g id="Grupo_15358" data-name="Grupo 15358" transform="translate(3.171 4.37)" opacity="0.5">
        <g id="Grupo_15357" data-name="Grupo 15357" transform="translate(0 0)">
          <path id="Trazado_15620" data-name="Trazado 15620" d="M630.811,317.915a6.729,6.729,0,0,1-.578-.365,15.257,15.257,0,0,1-1.528-1.191,19.238,19.238,0,0,1-2.127-2.164,20.684,20.684,0,0,1-2.3-3.244,22.017,22.017,0,0,1-1.982-4.325,11.187,11.187,0,0,1-.38-1.235c-.114-.447-.222-.8-.341-1.343a22.129,22.129,0,0,1-.41-2.646,21.084,21.084,0,0,1,.216-5.854,22.513,22.513,0,0,1,1.84-5.745,22.285,22.285,0,0,1,3.322-5.053,15,15,0,0,1,2.283-2.1,19.164,19.164,0,0,1,2.484-1.515A24.378,24.378,0,0,1,641,278.5a21.381,21.381,0,0,1,3.97.111,20.235,20.235,0,0,1,2.977.573,17.955,17.955,0,0,1,1.838.594l.634.252-.678-.048c-.438-.039-1.084-.061-1.9-.078s-1.79.02-2.9.108a28.676,28.676,0,0,0-3.657.581,27.508,27.508,0,0,0-4.119,1.289,26.877,26.877,0,0,0-4.235,2.134,19.434,19.434,0,0,0-1.972,1.411,11.662,11.662,0,0,0-1.635,1.7,22.224,22.224,0,0,0-2.674,4.314,22.786,22.786,0,0,0-1.635,4.819,21.828,21.828,0,0,0-.48,4.9c-.035.738.094,1.647.147,2.479.031.283.111.748.163,1.108.046.387.127.761.207,1.131A25.8,25.8,0,0,0,626.247,310a29.05,29.05,0,0,0,3.024,5.854A21.2,21.2,0,0,0,630.811,317.915Z" transform="translate(-621.058 -278.449)" fill="#fff"/>
        </g>
      </g>
    </g>
  </g>
</svg>
