<svg id="Grupo_1044" data-name="Grupo 1044" xmlns="http://www.w3.org/2000/svg" xmlns:xlink="http://www.w3.org/1999/xlink" width="58.125" height="56.438" viewBox="0 0 58.125 56.438">
  <defs>
    <clipPath id="clip-path">
      <path id="Trazado_12969" data-name="Trazado 12969" d="M191.234,216.218a11.332,11.332,0,0,0,1,4.68,11.635,11.635,0,0,0,2.509,3.557c.107.1.211.211.313.317a11.592,11.592,0,0,1,3.191,7.987,11.315,11.315,0,0,1-.162,1.916.185.185,0,0,1-.005.041,12.185,12.185,0,0,0-.175,2.043,11.305,11.305,0,0,0,.491,3.31,11.722,11.722,0,0,0,10.818,8.221h0a11.438,11.438,0,0,0,5.286-1.156c.132-.063.263-.129.395-.2a11.611,11.611,0,0,1,10.791,0q.2.1.395.2a11.452,11.452,0,0,0,5,1.159c.1,0,.19,0,.286,0h0a11.723,11.723,0,0,0,10.819-8.221,11.529,11.529,0,0,0,.315-5.352.264.264,0,0,1-.005-.041,11.312,11.312,0,0,1-.162-1.916,11.592,11.592,0,0,1,3.191-7.987c.1-.106.206-.214.313-.317a11.641,11.641,0,0,0,2.509-3.557,11.332,11.332,0,0,0,1-4.68,11.529,11.529,0,0,0-9.939-11.537,11.528,11.528,0,0,1-1.341-.277l0,0a11.519,11.519,0,0,1-6.578-4.682h0a10.919,10.919,0,0,1-.8-1.379,11.856,11.856,0,0,0-1.766-2.635h0a11.643,11.643,0,0,0-17.256,0h0a11.886,11.886,0,0,0-1.765,2.635,10.866,10.866,0,0,1-.8,1.379h0a11.542,11.542,0,0,1-6.577,4.682l0,0a11.563,11.563,0,0,1-1.34.277,11.779,11.779,0,0,0-3.469,1.058A11.655,11.655,0,0,0,191.234,216.218Z" transform="translate(-191.234 -191.88)" fill="none"/>
    </clipPath>
  </defs>
  <path id="Trazado_12963" data-name="Trazado 12963" d="M191.234,216.218a11.332,11.332,0,0,0,1,4.68,11.635,11.635,0,0,0,2.509,3.557c.107.1.211.211.313.317a11.592,11.592,0,0,1,3.191,7.987,11.315,11.315,0,0,1-.162,1.916.185.185,0,0,1-.005.041,12.185,12.185,0,0,0-.175,2.043,11.305,11.305,0,0,0,.491,3.31,11.722,11.722,0,0,0,10.818,8.221h0a11.438,11.438,0,0,0,5.286-1.156c.132-.063.263-.129.395-.2a11.611,11.611,0,0,1,10.791,0q.2.1.395.2a11.452,11.452,0,0,0,5,1.159c.1,0,.19,0,.286,0h0a11.723,11.723,0,0,0,10.819-8.221,11.529,11.529,0,0,0,.315-5.352.264.264,0,0,1-.005-.041,11.312,11.312,0,0,1-.162-1.916,11.592,11.592,0,0,1,3.191-7.987c.1-.106.206-.214.313-.317a11.641,11.641,0,0,0,2.509-3.557,11.332,11.332,0,0,0,1-4.68,11.529,11.529,0,0,0-9.939-11.537,11.528,11.528,0,0,1-1.341-.277l0,0a11.519,11.519,0,0,1-6.578-4.682h0a10.919,10.919,0,0,1-.8-1.379,11.856,11.856,0,0,0-1.766-2.635h0a11.643,11.643,0,0,0-17.256,0h0a11.886,11.886,0,0,0-1.765,2.635,10.866,10.866,0,0,1-.8,1.379h0a11.542,11.542,0,0,1-6.577,4.682l0,0a11.563,11.563,0,0,1-1.34.277,11.779,11.779,0,0,0-3.469,1.058A11.655,11.655,0,0,0,191.234,216.218Z" transform="translate(-191.234 -191.88)" fill="#4da600"/>
  <path id="Trazado_12964" data-name="Trazado 12964" d="M191.234,216.218a11.332,11.332,0,0,0,1,4.68,11.635,11.635,0,0,0,2.509,3.557c.107.1.211.211.313.317a11.592,11.592,0,0,1,3.191,7.987,11.315,11.315,0,0,1-.162,1.916.185.185,0,0,1-.005.041,12.185,12.185,0,0,0-.175,2.043,11.305,11.305,0,0,0,.491,3.31,11.722,11.722,0,0,0,10.818,8.221h0a11.438,11.438,0,0,0,5.286-1.156c.132-.063.263-.129.395-.2a11.611,11.611,0,0,1,10.791,0q.2.1.395.2a11.452,11.452,0,0,0,5,1.159c.1,0,.19,0,.286,0h0a11.723,11.723,0,0,0,10.819-8.221,11.529,11.529,0,0,0,.315-5.352.264.264,0,0,1-.005-.041,11.312,11.312,0,0,1-.162-1.916,11.592,11.592,0,0,1,3.191-7.987c.1-.106.206-.214.313-.317a11.641,11.641,0,0,0,2.509-3.557,11.332,11.332,0,0,0,1-4.68,11.529,11.529,0,0,0-9.939-11.537,11.528,11.528,0,0,1-1.341-.277l0,0a11.519,11.519,0,0,1-6.578-4.682h0a10.919,10.919,0,0,1-.8-1.379,11.856,11.856,0,0,0-1.766-2.635h0a11.643,11.643,0,0,0-17.256,0h0a11.886,11.886,0,0,0-1.765,2.635,10.866,10.866,0,0,1-.8,1.379h0a11.542,11.542,0,0,1-6.577,4.682l0,0a11.563,11.563,0,0,1-1.34.277,11.779,11.779,0,0,0-3.469,1.058A11.655,11.655,0,0,0,191.234,216.218Z" transform="translate(-191.234 -191.88)" fill="#4da600"/>
  <path id="Trazado_12965" data-name="Trazado 12965" d="M191.234,216.218a11.332,11.332,0,0,0,1,4.68,11.635,11.635,0,0,0,2.509,3.557c.107.1.211.211.313.317a11.592,11.592,0,0,1,3.191,7.987,11.315,11.315,0,0,1-.162,1.916.185.185,0,0,1-.005.041,12.185,12.185,0,0,0-.175,2.043,11.305,11.305,0,0,0,.491,3.31,11.722,11.722,0,0,0,10.818,8.221h0a11.438,11.438,0,0,0,5.286-1.156c.132-.063.263-.129.395-.2a11.611,11.611,0,0,1,10.791,0q.2.1.395.2a11.452,11.452,0,0,0,5,1.159c.1,0,.19,0,.286,0h0a11.723,11.723,0,0,0,10.819-8.221,11.529,11.529,0,0,0,.315-5.352.264.264,0,0,1-.005-.041,11.312,11.312,0,0,1-.162-1.916,11.592,11.592,0,0,1,3.191-7.987c.1-.106.206-.214.313-.317a11.641,11.641,0,0,0,2.509-3.557,11.332,11.332,0,0,0,1-4.68,11.529,11.529,0,0,0-9.939-11.537,11.528,11.528,0,0,1-1.341-.277l0,0a11.519,11.519,0,0,1-6.578-4.682h0a10.919,10.919,0,0,1-.8-1.379,11.856,11.856,0,0,0-1.766-2.635h0a11.643,11.643,0,0,0-17.256,0h0a11.886,11.886,0,0,0-1.765,2.635,10.866,10.866,0,0,1-.8,1.379h0a11.542,11.542,0,0,1-6.577,4.682l0,0a11.563,11.563,0,0,1-1.34.277,11.779,11.779,0,0,0-3.469,1.058A11.655,11.655,0,0,0,191.234,216.218Z" transform="translate(-191.234 -191.88)" fill="#4da600"/>
  <g id="Grupo_1043" data-name="Grupo 1043" transform="translate(0)">
    <g id="Grupo_1042" data-name="Grupo 1042" clip-path="url(#clip-path)">
      <path id="Trazado_12966" data-name="Trazado 12966" d="M191.234,216.218a11.332,11.332,0,0,0,1,4.68,11.635,11.635,0,0,0,2.509,3.557c.107.1.211.211.313.317a11.592,11.592,0,0,1,3.191,7.987,11.315,11.315,0,0,1-.162,1.916.185.185,0,0,1-.005.041,12.185,12.185,0,0,0-.175,2.043,11.305,11.305,0,0,0,.491,3.31,11.722,11.722,0,0,0,10.818,8.221h0a11.438,11.438,0,0,0,5.286-1.156c.132-.063.263-.129.395-.2a11.611,11.611,0,0,1,10.791,0q.2.1.395.2a11.452,11.452,0,0,0,5,1.159c.1,0,.19,0,.286,0h0a11.723,11.723,0,0,0,10.819-8.221,11.529,11.529,0,0,0,.315-5.352.264.264,0,0,1-.005-.041,11.312,11.312,0,0,1-.162-1.916,11.592,11.592,0,0,1,3.191-7.987c.1-.106.206-.214.313-.317a11.641,11.641,0,0,0,2.509-3.557,11.332,11.332,0,0,0,1-4.68,11.529,11.529,0,0,0-9.939-11.537,11.528,11.528,0,0,1-1.341-.277l0,0a11.519,11.519,0,0,1-6.578-4.682h0a10.919,10.919,0,0,1-.8-1.379,11.856,11.856,0,0,0-1.766-2.635h0a11.643,11.643,0,0,0-17.256,0h0a11.886,11.886,0,0,0-1.765,2.635,10.866,10.866,0,0,1-.8,1.379h0a11.542,11.542,0,0,1-6.577,4.682l0,0a11.563,11.563,0,0,1-1.34.277,11.779,11.779,0,0,0-3.469,1.058A11.655,11.655,0,0,0,191.234,216.218Z" transform="translate(-191.234 -191.88)" fill="#e17906"/>
      <path id="Trazado_12967" data-name="Trazado 12967" d="M195.373,216.82c.326-7.006,8.433-7.436,14.606-11.79,4-2.824,5.115-8.041,8.006-9.614,7.348-4,13.384.64,12.186,8.074-1.32,8.183-15.309,30.223-23.8,27.448C203.546,230.017,195,224.753,195.373,216.82Z" transform="translate(-193.357 -192.943)" fill="#fff" opacity="0.2" style="mix-blend-mode: screen;isolation: isolate"/>
      <path id="Trazado_12968" data-name="Trazado 12968" d="M197.041,216.961c.306-5.4,9.73-7.446,13.912-10.872,2.713-2.224,6.393-8.237,8.346-9.484,4.962-3.169,9.675-1.617,10.538,4.124.8,5.308-10.332,4.745-16.021,9.126-7.382,5.685-5.83,10.64-9.461,12.277C201.137,223.581,196.7,223.069,197.041,216.961Z" transform="translate(-194.212 -193.479)" fill="#fff" opacity="0.22" style="mix-blend-mode: screen;isolation: isolate"/>
    </g>
  </g>
  <path id="Trazado_12970" data-name="Trazado 12970" d="M214.67,236.117a17.684,17.684,0,1,0,17.684-17.685A17.684,17.684,0,0,0,214.67,236.117Zm1.735,0a15.948,15.948,0,1,1,15.949,15.948A15.949,15.949,0,0,1,216.405,236.117Z" transform="translate(-203.291 -205.54)" fill="#f9bf6b"/>
  <path id="Trazado_12971" data-name="Trazado 12971" d="M244,257.505c14.517-1.446,10.8-11.393,13.04-16.388,2.645-5.89,8.806-9.024,4.907-20.692a11.655,11.655,0,0,1,6.471,10.479,11.332,11.332,0,0,1-1,4.68,11.641,11.641,0,0,1-2.509,3.557c-.107.1-.211.211-.313.317a11.592,11.592,0,0,0-3.191,7.987,11.311,11.311,0,0,0,.162,1.916.268.268,0,0,0,.005.041,11.529,11.529,0,0,1-.315,5.352,11.723,11.723,0,0,1-10.819,8.221h0c-.1,0-.189,0-.285,0a11.452,11.452,0,0,1-5-1.159q-.2-.095-.395-.2a11.611,11.611,0,0,0-10.791,0c-.132.068-.263.134-.395.2a10.768,10.768,0,0,1-5.286,1.156C232.838,259.437,236.327,258.269,244,257.505Z" transform="translate(-210.292 -206.566)" fill="#d1ad8f" opacity="0.5" style="mix-blend-mode: multiply;isolation: isolate"/>
  <path id="Trazado_12972" data-name="Trazado 12972" d="M231.61,244.833a9.459,9.459,0,1,0,9.459-9.459A9.459,9.459,0,0,0,231.61,244.833Zm.928,0a8.53,8.53,0,1,1,8.531,8.531A8.532,8.532,0,0,1,232.538,244.833Z" transform="translate(-212.006 -214.257)" fill="#f9bf6b"/>
  <path id="Trazado_12973" data-name="Trazado 12973" d="M242.9,250.643a3.975,3.975,0,1,0,3.976-3.975A3.976,3.976,0,0,0,242.9,250.643Zm.39,0a3.585,3.585,0,1,1,3.586,3.585A3.586,3.586,0,0,1,243.294,250.643Z" transform="translate(-217.817 -220.067)" fill="#f9bf6b"/>
  <path id="Trazado_12974" data-name="Trazado 12974" d="M254.368,263.8c8.691,2.073,11.725-5.285,11.361-11.02-.264-4.157,0-5.908.92-7.959,2.645-5.89,4.742-5.182,5.974-9.049s.562-5.693-1.108-9.77a11.829,11.829,0,0,1,2.921,7.772,11.331,11.331,0,0,1-1,4.68,11.641,11.641,0,0,1-2.509,3.557c-.107.1-.211.211-.313.317a11.591,11.591,0,0,0-3.191,7.987,11.312,11.312,0,0,0,.162,1.916.268.268,0,0,0,.005.041,11.529,11.529,0,0,1-.315,5.352,11.723,11.723,0,0,1-10.819,8.221h0c-.1,0-.189,0-.285,0a11.452,11.452,0,0,1-5-1.159q-.2-.095-.395-.2a11.611,11.611,0,0,0-10.791,0C242.589,263.007,243.033,261.093,254.368,263.8Z" transform="translate(-216.312 -209.434)" fill="#d1ad8f" opacity="0.5" style="mix-blend-mode: multiply;isolation: isolate"/>
  <path id="Trazado_12975" data-name="Trazado 12975" d="M207.484,225.606s-9.243,2.281-7.1,11.37A15.69,15.69,0,0,1,207.484,225.606Z" transform="translate(-195.776 -209.231)" fill="#fff"/>
  <path id="Trazado_12976" data-name="Trazado 12976" d="M250.723,198.689s-6.047-4.725-11.051,1.293A13.339,13.339,0,0,1,250.723,198.689Z" transform="translate(-216.154 -194.476)" fill="#fff"/>
</svg>
