<svg id="Grupo_14447" data-name="Grupo 14447" xmlns="http://www.w3.org/2000/svg" width="172.037" height="106.59" viewBox="0 0 172.037 106.59">
  <g id="Grupo_14439" data-name="Grupo 14439" transform="translate(0)">
    <path id="Trazado_13709" data-name="Trazado 13709" d="M460.39,798.5c-43.088-18.346-87.024-34.54-129.624-54.076-4.189-1.921-1.6-8.347,2.724-6.646,43.617,17.178,85.748,37.636,128.842,55.988,3.027,1.287,1.094,6.027-1.942,4.734Z" transform="translate(-328.642 -737.497)" fill="#fff7c7"/>
  </g>
  <path id="Trazado_13710" data-name="Trazado 13710" d="M418.79,743.607c12.3,5.1,22.506,15.462,26.672,28.159,6.036,18.4-.957,40.237-16.425,51.881-16.289,12.263-41.078,12.459-57.426.137-16.318-12.3-19.976-37.531-12.075-55.473,7.151-16.236,24.07-27.838,41.806-28.123A43.729,43.729,0,0,1,418.79,743.607Z" transform="translate(-275.583 -732.197)" fill="#7a20a3"/>
  <g id="Grupo_14440" data-name="Grupo 14440" transform="translate(100.924 1.937)">
    <path id="Trazado_13711" data-name="Trazado 13711" d="M369.564,842.767l-.271.018a5.566,5.566,0,0,1-5.727-3.262c-2.768-6.845,1-16.592,2.866-23.288,2.349-8.421,4.79-16.821,7.654-25.082,2.741-7.909,5.872-15.673,8.635-23.568,2.92-8.341,5.528-18.542,11.055-25.548,6.244-7.918,21.858-2.991,19.464,7.987-2.019,9.253-7.871,17.674-12.132,26.083-3.907,7.707-7.231,15.757-10.579,23.719-3.381,8.04-6.872,16.027-10.116,24.124-1.626,4.059-3.642,7.85-5.495,11.793-1.166,2.489-1.835,6.774-5.355,7.023Z" transform="translate(-362.584 -738.148)" fill="#9338be"/>
  </g>
  <g id="Grupo_14441" data-name="Grupo 14441" transform="translate(129.87 88.331)">
    <path id="Trazado_13712" data-name="Trazado 13712" d="M374.782,769.21c.036-.009.865-.226.871-.208q-.928.468-.309.11l.354-.211,1.531-.925a4,4,0,0,1,3.764-.5,3.735,3.735,0,0,1,2.2,2.527,3.825,3.825,0,0,1-4.106,4.787l-1.96-.143-.419-.03q-.3-.018.036,0l-1.163.28a2.886,2.886,0,0,1-3.247-2.444,2.959,2.959,0,0,1,2.447-3.247Z" transform="translate(-372.319 -767.203)" fill="#fff"/>
  </g>
  <g id="Grupo_14442" data-name="Grupo 14442" transform="translate(141.2 72.579)">
    <path id="Trazado_13713" data-name="Trazado 13713" d="M377.619,775.291a26.628,26.628,0,0,0,5.528-5.409c1.567-2.064,2.676-4.451,4.419-6.375a4.376,4.376,0,0,1,7.472,4.318c-1.772,5.8-8.055,10.258-13.056,13.175-3.862,2.254-8.2-2.876-4.362-5.709Z" transform="translate(-376.129 -761.906)" fill="#fff"/>
  </g>
  <g id="Grupo_14443" data-name="Grupo 14443" transform="translate(89.592 17.753)">
    <path id="Trazado_13714" data-name="Trazado 13714" d="M358.94,762.913a33.4,33.4,0,0,1,16.708-19.155c2.905-1.51,5.73,3.268,2.9,5.01a40.449,40.449,0,0,0-15.037,16.018,2.47,2.47,0,0,1-4.567-1.874Z" transform="translate(-358.773 -743.467)" fill="#fff"/>
  </g>
  <g id="Grupo_14444" data-name="Grupo 14444" transform="translate(105.171 92.384)">
    <path id="Trazado_13715" data-name="Trazado 13715" d="M364.268,774.977c-.083-.987-.163-1.971-.244-2.959a3.065,3.065,0,0,1,2.994-3.452c1.671-.018,3.455,1.576,3.06,3.393q-.321,1.485-.648,2.968a2.642,2.642,0,0,1-2.56,2.272,2.59,2.59,0,0,1-2.6-2.221Z" transform="translate(-364.012 -768.566)" fill="#fff"/>
  </g>
  <g id="Grupo_14445" data-name="Grupo 14445" transform="translate(132.186 13.009)">
    <path id="Trazado_13716" data-name="Trazado 13716" d="M373.236,759.717q2.939-8.109,5.879-16.22c1.183-3.262,6.437-1.112,4.983,2.046l-7.208,15.673a1.976,1.976,0,0,1-3.654-1.5Z" transform="translate(-373.098 -741.871)" fill="#fff"/>
  </g>
  <g id="Grupo_14446" data-name="Grupo 14446" transform="translate(139.547 5.37)">
    <path id="Trazado_13717" data-name="Trazado 13717" d="M375.843,741.293c1.623-3.955,7.773-1.439,6.146,2.522s-7.77,1.439-6.146-2.522Z" transform="translate(-375.573 -739.302)" fill="#fff"/>
  </g>
</svg>
