<svg xmlns="http://www.w3.org/2000/svg" xmlns:xlink="http://www.w3.org/1999/xlink" width="355.611" height="229.092" viewBox="0 0 355.611 229.092">
  <defs>
    <linearGradient id="linear-gradient" x1="-1.43" y1="-0.037" x2="-0.782" y2="0.441" gradientUnits="objectBoundingBox">
      <stop offset="0" stop-color="#fff"/>
      <stop offset="0.49" stop-color="#fefafc"/>
      <stop offset="1" stop-color="#ea4c95"/>
    </linearGradient>
    <linearGradient id="linear-gradient-2" x1="-1.739" y1="-0.079" x2="-1.333" y2="0.217" xlink:href="#linear-gradient"/>
    <linearGradient id="linear-gradient-3" x1="-2.112" y1="-0.191" x2="-1.671" y2="0.233" xlink:href="#linear-gradient"/>
  </defs>
  <g id="Grupo_15379" data-name="Grupo 15379" transform="translate(-593.417 -159.49)">
    <g id="Grupo_1446" data-name="Grupo 1446" transform="translate(593.417 159.49)">
      <g id="Recurso_1" data-name="Recurso 1" transform="translate(0 0)">
        <g id="Capa_2" data-name="Capa 2" transform="translate(0 0)">
          <g id="Capa_1" data-name="Capa 1">
            <path id="Trazado_13568" data-name="Trazado 13568" d="M13.665,136.405l.537.967A90.692,90.692,0,0,0,46.4,170.086a94.542,94.542,0,0,0,134.472-42.455,86.512,86.512,0,0,0,3.885-10.4,89.976,89.976,0,0,0,3.832-32.051c-.107-1.791-.286-3.689-.519-5.551h0a10.743,10.743,0,0,0,2.453-6.607,35.382,35.382,0,0,0-3.348-15.56,40.018,40.018,0,0,0-2.865-5.6l-.179-.3c-3.062-4.87-7.162-7.288-7.825-6.5h0c-.161-.322-.358-.645-.555-.967a90.013,90.013,0,0,0-7.556-10.654,91.212,91.212,0,0,0-23.51-20.18A94.56,94.56,0,0,0,10.227,55.758a90.585,90.585,0,0,0-7.5,45c-2.077-.233-2.972,3.08-2.7,8.774h0a50.135,50.135,0,0,0,.663,5.533,2.906,2.906,0,0,0,.125,1C1.811,121.955,6.091,135.17,13.665,136.405Z" transform="translate(0.026 0.018)" fill="#ea4c95"/>
            <path id="Trazado_13569" data-name="Trazado 13569" d="M2.075,101.436l-.161-.537-.107-.3h0A32.7,32.7,0,0,1,.732,95.223C-.772,86.27.016,80.5,2.756,80.9c22.543,3.474,54.9.269,89.206-10.135,37.6-11.424,68.489-28.792,84.336-45.66.77-.806,4.942,1.791,8.022,6.8a48.45,48.45,0,0,1,4.065,8.666h0c.161.466.322.931.466,1.379v.215l.376,1.271h0c1.791,6.321,1.952,12.7-1.236,16.115-15.417,17.494-46.805,35.31-85.2,46.967-34.2,10.385-66.5,13.608-89.045,10.188-5.228-.788-8.953-7.288-11.012-13.2v-.161c-.09-.233-.161-.466-.251-.716s-.107-.34-.179-.519A5.016,5.016,0,0,1,2.075,101.436Z" transform="translate(0.03 19.731)" fill="#e8318a"/>
            <path id="Trazado_13570" data-name="Trazado 13570" d="M189.456,44.025h0a47.631,47.631,0,0,0-4.065-8.666c-3.08-5.049-7.162-7.61-8-6.786C161.54,45.458,130.6,62.809,93,74.232,58.708,84.653,26.335,87.859,3.809,84.385,1.07,83.955.228,89.757,1.768,98.71a33.071,33.071,0,0,0,1.092,5.282h0v-.143a2.788,2.788,0,0,0-.233-.716c-.072-.233-.125-.358-.179-.537s-.143-.448-.2-.663a3.8,3.8,0,0,1-.161-.555l-.107-.3h0A33.073,33.073,0,0,1,.891,95.7c-1.5-8.953-.7-14.736,2.023-14.325,22.543,3.474,54.9.269,89.206-10.135,37.584-11.388,68.489-28.721,84.336-45.606.752-.824,4.924,1.791,8,6.786a46.267,46.267,0,0,1,4.065,8.684h0c.161.466.322.913.466,1.379V42.7l.376,1.271Z" transform="translate(0.159 20.148)" fill="#ee77ab"/>
            <path id="Trazado_13571" data-name="Trazado 13571" d="M1.107,93.925,1,93.621H1c2.095,5.909,5.784,12.355,10.994,13.161,22.543,3.42,54.827.2,89.027-10.188,38.408-11.657,69.832-29.491,85.321-46.7,3.187-3.581,2.99-9.866,1.235-16.115h0c.161.466.322.931.466,1.379v.215l.376,1.271h0c1.791,6.321,1.952,12.7-1.235,16.115-15.417,17.315-46.805,35.131-85.2,46.788-34.2,10.385-66.5,13.608-89.045,10.188-5.228-.788-8.953-7.288-11.012-13.2v-.161c-.09-.233-.161-.466-.251-.716s-.107-.34-.179-.519a5.2,5.2,0,0,1-.2-.68Z" transform="translate(0.837 26.705)" fill="#dd0a80"/>
            <path id="Trazado_13572" data-name="Trazado 13572" d="M72.468,158.787c13.913-5.014,11.621-20.645,32.893-70.925,18.532-44.012,29.1-52.786,23.546-65.123C120.348,3.83,83.212-2.1,56.514,8.217c-37.6,14.5-64.3,65.32-48.345,105.93C19.575,142.8,52.11,166.092,72.468,158.787Z" transform="translate(2.782 2.525)" opacity="0.2" fill="url(#linear-gradient)"/>
            <path id="Trazado_13573" data-name="Trazado 13573" d="M54.985,11.857c21.021-9.4,48.524-8.684,50.6-.215,1.218,4.924-27.879,14.325-47.522,62.366-20.269,49.617-.609,82.008-5.372,84.873-5.479,3.277-37.262-18.371-45.731-47.253C-4.928,71.214,21.734,26.754,54.985,11.857Z" transform="translate(3.273 3.989)" opacity="0.15" fill="url(#linear-gradient-2)"/>
            <path id="Trazado_13574" data-name="Trazado 13574" d="M84.286,8.4c-.788-2.6-20.538-2.74-38.229,6.643C20.882,28.4,1.92,59.917,4.623,91.9c2.2,25.8,18.013,46.3,20.681,45.266s-8.953-20.932-6.249-48.346c3.474-34.737,27.306-56.761,30.01-59.2C66.613,13.827,85.074,10.98,84.286,8.4Z" transform="translate(3.498 5.438)" opacity="0.1" fill="url(#linear-gradient-3)"/>
            <path id="Trazado_13575" data-name="Trazado 13575" d="M36.914,15.757c4.691-2.775,15.2-5.372,12.212-2.292A155.4,155.4,0,0,0,21.677,44.746c-4.566,6.822-11.442,4.065-9.956-.519S23.4,23.743,36.914,15.757Z" transform="translate(9.15 9.543)" fill="#fff"/>
            <path id="Trazado_13576" data-name="Trazado 13576" d="M11.295,36.567c1.092-2.292,9.239-3.133,8.487-1.576a90.478,90.478,0,0,0-9.6,41.667C10.1,92.719.337,59.468,11.295,36.567Z" transform="translate(4.867 27.034)" fill="#fff"/>
            <path id="Trazado_13577" data-name="Trazado 13577" d="M126.605,112.5C144.564,55.541,98.117,15.862,81.59,1a93.109,93.109,0,0,1,30.064,11.478,90.6,90.6,0,0,1,31.031,30.816l.573.967h0c.77-.824,4.924,1.791,8.022,6.8,5.049,8.308,8.953,21.952,3.76,27.772h0a90.478,90.478,0,0,1-7.162,48.005A94.005,94.005,0,0,1,90.1,178.267a95.6,95.6,0,0,1-48.345,2.328C64.257,175.008,108.646,169.439,126.605,112.5Z" transform="translate(33.053 0.79)" fill="#e2afc6" opacity="0.3"/>
            <path id="Trazado_13578" data-name="Trazado 13578" d="M51.516,102.616H51.05l1.683-.466Z" transform="translate(40.405 80.756)" fill="#cdcccc" opacity="0.54"/>
            <path id="Trazado_13579" data-name="Trazado 13579" d="M140.247,130.156a90.3,90.3,0,0,0,7.162-48.005l.09-.09c5.264-5.819,1.307-19.464-3.76-27.772-3.08-5.067-7.162-7.628-8.022-6.8h0c-.2-.322-.376-.645-.555-.967a90.639,90.639,0,0,0-31.084-30.744A93.718,93.718,0,0,0,45.9,3.061c-1.522-.143-3.044-.251-4.6-.3a93.915,93.915,0,0,1,70.71,10.511A90.6,90.6,0,0,1,143.04,44.084l.573.967h0c.77-.824,4.924,1.791,8.022,6.8,5.049,8.308,8.953,21.952,3.76,27.772h0a90.478,90.478,0,0,1-7.162,48.005,94,94,0,0,1-57.782,51.425c-1.343.43-2.7.824-4.065,1.182A93.862,93.862,0,0,0,140.247,130.156Z" transform="translate(32.697 -0.001)" fill="#e2afc6" opacity="0.8"/>
            <path id="Trazado_13580" data-name="Trazado 13580" d="M99.8,40.859a11.478,11.478,0,1,1-14.414-7.485A11.478,11.478,0,0,1,99.8,40.859Z" transform="translate(61.217 25.964)" fill="#6a2349"/>
            <path id="Trazado_13581" data-name="Trazado 13581" d="M86.751,37.326a4.082,4.082,0,1,1-2.019-2.392A4.082,4.082,0,0,1,86.751,37.326Z" transform="translate(62.325 27.259)" fill="#f6f6f6"/>
            <path id="Trazado_13582" data-name="Trazado 13582" d="M37.576,60.53a11.478,11.478,0,1,1-14.325-7.485A11.478,11.478,0,0,1,37.576,60.53Z" transform="translate(12.033 41.532)" fill="#6a2349"/>
            <path id="Trazado_13583" data-name="Trazado 13583" d="M24.522,57A4.082,4.082,0,1,1,19.4,54.334,4.083,4.083,0,0,1,24.522,57Z" transform="translate(13.126 42.804)" fill="#f6f6f6"/>
            <path id="Trazado_13584" data-name="Trazado 13584" d="M66.355,52.632a8.648,8.648,0,1,1-16.492,5.211,2.4,2.4,0,1,0-4.583,1.45,13.455,13.455,0,1,0,25.659-8.111,2.4,2.4,0,1,0-4.584,1.45Z" transform="translate(35.754 39.134)" fill="#6a2349"/>
          </g>
        </g>
      </g>
    </g>
    <g id="Grupo_14737" data-name="Grupo 14737" transform="translate(638.759 251.21)">
      <g id="Grupo_14729" data-name="Grupo 14729" transform="translate(0 0)">
        <g id="Grupo_14723" data-name="Grupo 14723" transform="translate(0 27.639)">
          <path id="Trazado_14919" data-name="Trazado 14919" d="M108.23,110.106a7.273,7.273,0,0,0-2.775-1.05,102.224,102.224,0,0,0-10.635.45l-1.7.149a125.2,125.2,0,0,0-27.715,6.131l-.713.3q.436-2.587,1.657-9.123,5.391-29.543,5.774-31.848,3.578-17.205,1.727-23.4l-.1-.329a10.493,10.493,0,0,0-3.905-5.448,16.113,16.113,0,0,0-14.04-2.112l-.207.063q-7.963,2.379-16.526,9.763a61.592,61.592,0,0,0-6.948,7.125,52.6,52.6,0,0,0-5.954,8.349,55.177,55.177,0,0,0-3.394,7.494q-3.737,11.442-1.285,19.647a14.254,14.254,0,0,0,3.088,5.7q5.835,5.319,12.32,3.382l.822-.245a18.234,18.234,0,0,0,5.794-3.341,23.523,23.523,0,0,0,3.708-3.743,27.308,27.308,0,0,0,3.435-5.271q5.683-11.936,3.162-20.388a14.985,14.985,0,0,0-5.789-8.015q-4.3-2.424-7.092-1.591a4.086,4.086,0,0,0-.4.162,1.742,1.742,0,0,0-.948,2.206,4.6,4.6,0,0,0,1.31,1.844,5.646,5.646,0,0,1,1.912,2.962Q44.569,75.8,41.1,84.968A38.4,38.4,0,0,1,37.507,91.8q-4.348,5.945-7.879,7l-.491.147a4.779,4.779,0,0,1-1.389.147c-.154-.015-.372-.5-.658-1.459l-.111-.369a20.385,20.385,0,0,1-.754-4.467q-.543-7.66,3.184-16.728a53.526,53.526,0,0,1,3.273-6.252q2.045-3.028,3.6-5.008a67.908,67.908,0,0,1,7.525-7.879q8.563-7.387,15.335-9.409l.658-.195a8.553,8.553,0,0,1,1.894-.387q.288-.087,1.032,2.1,1.241,4.143-.283,13.719-.675,4.177-3.3,18.418-6.469,35.23-7.3,39.9l-1.194.491q-6.916,3.183-12.484,6.232a1.57,1.57,0,0,0-1.126,1.631l.015.043a5.046,5.046,0,0,0,1.5,2.635q3.073,2.656,5.372,2.418l.541-.119q4.61-2.538,9.052-4.715a16.034,16.034,0,0,0,5.253,1.426,7.135,7.135,0,0,0,2-.195l.164-.051c.85-.25,1.323-1,1.426-2.256l.6-3.086a126.334,126.334,0,0,1,35.9-9.247l1.209-.137q4.348-.406,9.917-.46a4.782,4.782,0,0,0,.754-.18,1.406,1.406,0,0,0,.746-1.386Q111.321,112.222,108.23,110.106Z" transform="translate(-11.398 -33.967)" fill="#db1a40"/>
          <path id="Trazado_14920" data-name="Trazado 14920" d="M49.037,149.209c-3.683,0-7.355-1.566-10.941-4.664l-.8-.782a14.388,14.388,0,0,1-3.586-6.422l-.137-.392-.119-1.146a10.659,10.659,0,0,1,6.058-10.618c2.959-1.614,6.214-3.268,9.712-4.935q.2-1.119.448-2.466a21.1,21.1,0,0,1-3.814,1.581l-.809.243c-7.388,2.206-14.877.291-21.1-5.382l-.544-.539a23.335,23.335,0,0,1-5.139-9.287c-2.17-7.277-1.712-15.717,1.353-25.105a61.26,61.26,0,0,1,3.968-8.865l.3-.529a61.575,61.575,0,0,1,6.95-9.7,69.032,69.032,0,0,1,7.927-8.068c6.538-5.64,13.225-9.543,19.751-11.488a25.4,25.4,0,0,1,21.86,3.157l.488.344a19.467,19.467,0,0,1,7.17,10.135c1.834,6.151,1.361,14.746-1.439,28.2-.169,1.077-1.77,9.9-4.742,26.221a124.284,124.284,0,0,1,15.914-2.638l1.788-.157a112.133,112.133,0,0,1,11.5-.486,15.038,15.038,0,0,1,7.041,2.145l.83.506c4.416,3.028,6.837,6.654,7.193,10.78a10.549,10.549,0,0,1-5.013,9.927l-1.037.647-1.169.352a12.778,12.778,0,0,1-2.491.521l-.8.043c-3.465.035-6.548.177-9.158.422l-1.032.116a114.765,114.765,0,0,0-28.98,6.874,10.966,10.966,0,0,1-7.383,7.4,17.27,17.27,0,0,1-4.851.62l-1.075-.073a32.557,32.557,0,0,1-3.4-.612q-2.644,1.362-5.329,2.84l-1.171.642-2.84.561A13.357,13.357,0,0,1,49.037,149.209ZM67.774,61.573l-.035,0Z" transform="translate(-16.916 -39.477)" fill="#e84a94"/>
        </g>
        <g id="Grupo_14724" data-name="Grupo 14724" transform="translate(60.268 42.042)">
          <path id="Trazado_14921" data-name="Trazado 14921" d="M80.284,60.55a19.592,19.592,0,0,0-1.333-3.685,14.5,14.5,0,0,0-4.78-5.893,12.288,12.288,0,0,0-9.917-1.829q-5,1.21-9.634,6.611a24.747,24.747,0,0,0-3.108,4.454,7.765,7.765,0,0,0-.89.129l-.377.091a2.236,2.236,0,0,0-.969.544A28.225,28.225,0,0,0,46.9,65.909Q42.879,77.86,45.209,87.471a17.494,17.494,0,0,0,5.139,9.2q5.027,4.382,10.355,3.088l.749-.182q4.871-1.18,10.1-7.074a36.554,36.554,0,0,0,3.915-5.663,48.822,48.822,0,0,0,3.409-7.745q3.308-10.718,1.573-17.879ZM74.012,74.676a37.965,37.965,0,0,1-1.8,5.107,36.6,36.6,0,0,1-3.432,6.561Q63.541,94,58.5,95.223a9.221,9.221,0,0,1-2.3-4.6l-.182-.751a28.436,28.436,0,0,1-.546-8.063q3.191,1.339,4.854.938l.46-.111a2.7,2.7,0,0,0,.678-.3,1.665,1.665,0,0,0,.637-1.915,3.3,3.3,0,0,0-.182-.574,13.136,13.136,0,0,1-1.586-3.624q-1.461-6.036,3.42-13.17,4.484-5.668,8.316-6.6a3.755,3.755,0,0,1,1.649.086q.372-.091,1.133,2.853l.091.374Q76.363,65.646,74.012,74.676Z" transform="translate(-35.225 -39.649)" fill="#db1a40"/>
          <path id="Trazado_14922" data-name="Trazado 14922" d="M63.769,114.717c-4.029,0-8.911-1.29-13.9-5.635a26.584,26.584,0,0,1-8.015-13.934c-1.958-8.083-1.315-17.042,1.912-26.63a37.372,37.372,0,0,1,3.187-6.705l.711-1.191,1.032-.926A11.637,11.637,0,0,1,51.1,58.016a23.917,23.917,0,0,1,2.291-2.9c4.307-4.945,9.1-8.086,14.232-9.328a21.418,21.418,0,0,1,17.034,3.038,23.55,23.55,0,0,1,8.013,9.525A29.2,29.2,0,0,1,94.677,63.9l.172.7c1.563,6.455,1,13.888-1.727,22.715a56.86,56.86,0,0,1-4.064,9.325l-.245.44a42.761,42.761,0,0,1-5.139,7.267c-4.57,5.152-9.4,8.39-14.548,9.636l-.746.18A19.547,19.547,0,0,1,63.769,114.717Z" transform="translate(-40.745 -45.171)" fill="#e84a94"/>
        </g>
        <g id="Grupo_14725" data-name="Grupo 14725" transform="translate(154.652 4)">
          <path id="Trazado_14923" data-name="Trazado 14923" d="M84.853,53.983q3.346,2.14,5.678,1.793a2.154,2.154,0,0,0,1.6-.928q3.65-10.634,4.193-12.532a5.978,5.978,0,0,0,.665-2.527l-.04-.253a6.067,6.067,0,0,0-2.107-3.106Q91,33.365,88.08,33.8a2.225,2.225,0,0,0-1.477.827q-.2.417-4.173,12.4a7.611,7.611,0,0,0-.754,2.8l.025.169Q81.975,51.813,84.853,53.983Z" transform="translate(-72.547 -24.603)" fill="#db1a40"/>
          <path id="Trazado_14924" data-name="Trazado 14924" d="M95.383,70.491a18.524,18.524,0,0,1-9.94-3.285l-.572-.395c-3.943-2.972-6.136-6.222-6.692-9.935a14.107,14.107,0,0,1,1.163-7.413c4.072-12.277,4.2-12.55,4.51-13.205l.453-.956.655-.827a11.389,11.389,0,0,1,7.284-4.183c4.548-.688,9.2.845,13.81,4.527l.554.475c2.85,2.678,4.449,5.438,4.892,8.443a13.349,13.349,0,0,1-1.032,7.127c-.387,1.28-1.34,4.2-4.186,12.479l-.357,1.047-.6.928a11.226,11.226,0,0,1-7.942,5.026A13.523,13.523,0,0,1,95.383,70.491Z" transform="translate(-78.061 -30.131)" fill="#e84a94"/>
        </g>
        <g id="Grupo_14726" data-name="Grupo 14726" transform="translate(98.706)">
          <path id="Trazado_14925" data-name="Trazado 14925" d="M164.34,69.113a11.7,11.7,0,0,0-4.065-8.3,8.913,8.913,0,0,0-6.07-1.872l-.387.035Q149.9,59.348,142.833,66a8.7,8.7,0,0,0-2.294-2.835q-3.422-2.512-5.683-2.3l-.47.046a1.982,1.982,0,0,0-1.308.728q-.664,1.609-8.073,20.431c-.255.622-1.49,3.731-3.67,9.244-2.2,3.03-3.834,5.165-4.838,6.288a66.728,66.728,0,0,1-5.681,6.042l-.089-.03q.406-1.92.916-3.728,1.506-4.727,9.477-28.52a19.478,19.478,0,0,0,1.33-4.441q-.288-1.946-2.84-3.951-3.57-2.458-6.07-2.084a2.117,2.117,0,0,0-1.55.923q-.888,2.474-8.693,25.935c-.787,2.175-1.439,4.153-1.975,5.966-1.252,1.92-2.4,3.632-3.364,4.97a71.813,71.813,0,0,1-6.968,8.228l-.081.015.139-.855q.77-3.942,3.629-13.562Q96.1,87.66,107.758,47.128a6.036,6.036,0,0,0,.488-2.448l-.04-.21a6.285,6.285,0,0,0-2.345-3.124q-3.976-2.77-6.713-2.243l-.038.008A2.111,2.111,0,0,0,97.6,40.1q-.455,1.483-2.527,8.86Q83.323,89.509,83.057,90.606c-.845,2.651-1.507,5.01-2.028,7.138-1.232,1.862-2.362,3.531-3.3,4.833A75.6,75.6,0,0,1,70.8,110.8l-.086.015.144-.855q.721-3.934,3.629-13.564,1.377-4.845,16.116-56.132a6.216,6.216,0,0,0,.448-2.438l-.04-.212a6.385,6.385,0,0,0-2.3-3.131q-3.98-2.77-6.753-2.236l-.043.008a2.067,2.067,0,0,0-1.467.979q-.459,1.487-5.564,19.607Q63.1,93.4,62.826,94.494q-4.006,12.721-3.111,17.391a7.465,7.465,0,0,0,.782,2.248q2.891,4.591,7.009,3.8,4.841-.933,11.837-9.69c.149-.172.344-.425.518-.637.018.126.02.278.046.4a7.282,7.282,0,0,0,.782,2.249q2.883,4.591,7.052,3.791,4.833-.929,11.832-9.69c.025-.028.061-.078.089-.109.005.051,0,.109.01.157a8.6,8.6,0,0,0,.6,1.948q2.724,4.921,7,4.282c2.375-.354,5.23-2.142,8.539-5.309q-4.094,10.38-9.993,25.351a9,9,0,0,0-1,3.108l.015.126q.171,1.832,2.929,4.11,3.191,2.36,5.582,2.132l.043,0a2.249,2.249,0,0,0,1.525-.706q.319-.675,3.885-9.75,10.217-25.973,10.5-26.517a10.624,10.624,0,0,0,4.578,4.254,13.758,13.758,0,0,0,7.074,1.088l.258-.023q8.95-.857,15.934-12.451a58.779,58.779,0,0,0,5.134-11.586q2.663-8.992,2.145-14.49Zm-11.172,5.112a57.593,57.593,0,0,1-2.676,8.473,48.036,48.036,0,0,1-4.856,9.067q-5.782,7.952-11.025,8.453a11.656,11.656,0,0,1-1.249-.013,11.952,11.952,0,0,0-2.436-.281l-.384.035q4.947-12.649,9.255-23.383-.011-.558,1.285-1.887,1.942-2.166,4.1-4.35,5.831-5.634,8.521-6.751a7.3,7.3,0,0,1,.374,1.684A32.4,32.4,0,0,1,153.168,74.224Z" transform="translate(-50.422 -23.027)" fill="#db1a40"/>
          <path id="Trazado_14926" data-name="Trazado 14926" d="M118.452,154.827a17.856,17.856,0,0,1-10.608-3.943l-.379-.3c-3.829-3.159-5.86-6.528-6.212-10.3-.25-2.651.468-4.912,1.7-7.747l3.255-8.273a15.063,15.063,0,0,1-1.535-.733,21.578,21.578,0,0,1-9.7,5.008,14.591,14.591,0,0,1-10.039-1.543c-3.488,3.02-6.824,4.785-10.19,5.433-6.5,1.242-12.515-1.629-16.465-7.9l-.24-.4a16.554,16.554,0,0,1-1.783-4.988c-.916-4.783.106-11.47,3.311-21.681.357-1.305,2.069-7.3,12.057-41.644,4.525-16.058,5.37-18.992,5.61-19.761l.311-1.009.534-.911a11.148,11.148,0,0,1,7.605-5.324c4.419-.847,9.019.4,13.757,3.7l.794.622a20.611,20.611,0,0,1,2.5,2.57c.061-.013.121-.025.18-.035,4.353-.837,8.943.412,13.678,3.708l.718.556c3.048,2.6,4.808,5.337,5.385,8.357a13.68,13.68,0,0,1-.7,7.074q-.288,1-.572,1.98a20,20,0,0,1,8.873,3.64l.468.344c.157.124.311.248.465.374l.521-.587a11.138,11.138,0,0,1,7.269-3.764l.486-.046a15.542,15.542,0,0,1,9.09,2.178c3.576-2.479,6.756-3.776,9.862-4.075l.415-.038a18.054,18.054,0,0,1,12.206,3.521l.524.4a20.82,20.82,0,0,1,7.342,14.477l.081.85c.468,4.889-.341,10.762-2.481,17.96a67.97,67.97,0,0,1-5.949,13.506c-6.321,10.507-14.022,16.169-23.006,17.029a24.262,24.262,0,0,1-8.458-.6c-1.5,3.8-3.543,8.981-6.326,16.046-3.675,9.358-3.928,9.892-4.133,10.322l-.567,1.194-.878.984a11.422,11.422,0,0,1-7.464,3.708C119.333,154.8,118.895,154.827,118.452,154.827Z" transform="translate(-55.942 -28.549)" fill="#e84a94"/>
        </g>
        <g id="Grupo_14727" data-name="Grupo 14727" transform="translate(205.136 23.092)">
          <path id="Trazado_14927" data-name="Trazado 14927" d="M131.232,80.55a48.345,48.345,0,0,0,5.089-6.763q5.664-9.678,5.612-17.045l-.005-.685a19.664,19.664,0,0,0-.46-3.893,14.525,14.525,0,0,0-3.3-6.829,12.291,12.291,0,0,0-9.237-4.044q-5.141.042-10.893,4.236a24.691,24.691,0,0,0-4.039,3.629,7.858,7.858,0,0,0-.9-.078l-.384,0a2.28,2.28,0,0,0-1.072.309,27.875,27.875,0,0,0-3.437,4.267q-6.643,10.71-6.566,20.6a17.478,17.478,0,0,0,2.9,10.13q3.893,5.414,9.376,5.37l.771-.005q5.012-.038,11.445-4.583A36.226,36.226,0,0,0,131.232,80.55Zm-18.426,4.292a9.227,9.227,0,0,1-1.2-5l0-.771a28.38,28.38,0,0,1,1.308-7.977q2.8,2.034,4.512,2.021l.47,0a2.634,2.634,0,0,0,.728-.134,1.664,1.664,0,0,0,1.057-1.72,3.236,3.236,0,0,0-.046-.6,13.159,13.159,0,0,1-.716-3.893q-.046-6.211,6.336-12.039,5.66-4.5,9.6-4.527a3.745,3.745,0,0,1,1.588.46q.383,0,.453,3.038v.384q.049,6.04-4.3,14.3a38.267,38.267,0,0,1-2.919,4.563,36.836,36.836,0,0,1-4.838,5.6Q117.982,84.8,112.806,84.842Z" transform="translate(-92.498 -32.156)" fill="#db1a40"/>
          <path id="Trazado_14928" data-name="Trazado 14928" d="M119.349,104.418c-4.646,0-11.27-1.609-16.706-9.171a26.563,26.563,0,0,1-4.621-15.4c-.066-8.314,2.608-16.89,7.937-25.487a37.467,37.467,0,0,1,4.628-5.795l.979-1.012,1.234-.673a11.8,11.8,0,0,1,2.7-1.067,23.8,23.8,0,0,1,2.881-2.3c5.322-3.834,10.7-5.8,15.995-5.84a22.1,22.1,0,0,1,15.894,6.847,23.491,23.491,0,0,1,5.62,11.106,29.385,29.385,0,0,1,.7,5.868l0,.718c.046,6.629-2.2,13.736-6.859,21.709a57.149,57.149,0,0,1-6.1,8.159l-.331.359a42.671,42.671,0,0,1-6.657,5.9c-5.628,3.984-11.076,6.03-16.374,6.068l-.774.005Z" transform="translate(-98.022 -37.679)" fill="#e84a94"/>
        </g>
        <g id="Grupo_14728" data-name="Grupo 14728" transform="translate(220.214 27.244)">
          <path id="Trazado_14929" data-name="Trazado 14929" d="M177.017,48.211a8.893,8.893,0,0,0-5.549-3.091l-.384-.046q-3.915-.448-12.206,4.6a8.71,8.71,0,0,0-1.652-3.25Q154.392,43.255,152.14,43l-.468-.053a1.985,1.985,0,0,0-1.429.44Q149.26,44.821,138.1,61.7q-1.4,2.037-28.859,43.556a8.961,8.961,0,0,0-1.616,2.835l-.015.126q-.209,1.829,2.013,4.626,2.633,2.974,5.018,3.248l.043.005a2.245,2.245,0,0,0,1.639-.374q.455-.592,5.825-8.731Q137.526,83.7,137.93,83.231a10.572,10.572,0,0,0,3.6,5.107,13.722,13.722,0,0,0,6.69,2.534l.258.03q8.935,1.017,18.17-8.873a58.93,58.93,0,0,0,7.423-10.274q4.477-8.24,5.1-13.729l.1-.85A11.69,11.69,0,0,0,177.017,48.211Zm-9.735,11.647a57.373,57.373,0,0,1-4.376,7.732,47.742,47.742,0,0,1-6.632,7.863q-7.3,6.582-12.537,5.982a12.121,12.121,0,0,1-1.222-.268,11.909,11.909,0,0,0-2.322-.784l-.382-.043q7.455-11.347,13.9-20.955c.068-.367.62-.893,1.647-1.578q2.348-1.715,4.914-3.407,6.874-4.3,9.735-4.836a7.486,7.486,0,0,1,.02,1.727A32.565,32.565,0,0,1,167.282,59.858Z" transform="translate(-98.457 -33.798)" fill="#db1a40"/>
          <path id="Trazado_14930" data-name="Trazado 14930" d="M120.552,130.772a12.635,12.635,0,0,1-1.378-.078c-3.923-.445-7.565-2.555-10.855-6.27l-.319-.377c-3.076-3.875-4.365-7.585-3.936-11.344.291-2.638,1.47-4.717,3.283-7.249,24.491-37.033,28.145-42.519,28.747-43.4,7.4-11.2,11.478-17.348,12.138-18.312l.86-1.257,1.224-.908a11.179,11.179,0,0,1,7.924-2.19l.463.053a15.442,15.442,0,0,1,8.453,4.019,20.937,20.937,0,0,1,10.491-1.94l.4.046a18.037,18.037,0,0,1,11.225,5.982l.427.5a20.81,20.81,0,0,1,4.176,15.694l-.091.835c-.561,4.887-2.57,10.466-6.154,17.062a68.477,68.477,0,0,1-8.62,11.976c-8.369,8.966-17.085,12.912-26.039,11.887a24.176,24.176,0,0,1-8.157-2.342c-2.241,3.384-5.309,8.028-9.51,14.384-5.544,8.4-5.888,8.855-6.192,9.255l-.794,1.032-1.05.771A11.285,11.285,0,0,1,120.552,130.772Z" transform="translate(-103.983 -39.321)" fill="#e84a94"/>
        </g>
      </g>
      <g id="Grupo_14736" data-name="Grupo 14736" transform="translate(9.127 9.132)">
        <g id="Grupo_14730" data-name="Grupo 14730" transform="translate(0 27.618)">
          <path id="Trazado_14931" data-name="Trazado 14931" d="M108.23,110.106a7.273,7.273,0,0,0-2.775-1.05,102.224,102.224,0,0,0-10.635.45l-1.7.149a125.2,125.2,0,0,0-27.715,6.131l-.713.3q.436-2.587,1.657-9.123,5.391-29.543,5.774-31.848,3.578-17.205,1.727-23.4l-.1-.329a10.493,10.493,0,0,0-3.905-5.448,16.113,16.113,0,0,0-14.04-2.112l-.207.063q-7.963,2.379-16.526,9.763a61.592,61.592,0,0,0-6.948,7.125,52.6,52.6,0,0,0-5.954,8.349,55.177,55.177,0,0,0-3.394,7.494q-3.737,11.442-1.285,19.647a14.254,14.254,0,0,0,3.088,5.7q5.835,5.319,12.32,3.382l.822-.245a18.234,18.234,0,0,0,5.794-3.341,23.523,23.523,0,0,0,3.708-3.743,27.308,27.308,0,0,0,3.435-5.271q5.683-11.936,3.162-20.388a14.985,14.985,0,0,0-5.789-8.015q-4.3-2.424-7.092-1.591a4.086,4.086,0,0,0-.4.162,1.742,1.742,0,0,0-.948,2.206,4.6,4.6,0,0,0,1.31,1.844,5.646,5.646,0,0,1,1.912,2.962Q44.569,75.8,41.1,84.968A38.4,38.4,0,0,1,37.507,91.8q-4.348,5.945-7.879,7l-.491.147a4.779,4.779,0,0,1-1.389.147c-.154-.015-.372-.5-.658-1.459l-.111-.369a20.385,20.385,0,0,1-.754-4.467q-.543-7.66,3.184-16.728a53.526,53.526,0,0,1,3.273-6.252q2.045-3.028,3.6-5.008a67.908,67.908,0,0,1,7.525-7.879q8.563-7.387,15.335-9.409l.658-.195a8.553,8.553,0,0,1,1.894-.387q.288-.087,1.032,2.1,1.241,4.143-.283,13.719-.675,4.177-3.3,18.418-6.469,35.23-7.3,39.9l-1.194.491q-6.916,3.183-12.484,6.232a1.57,1.57,0,0,0-1.126,1.631l.015.043a5.046,5.046,0,0,0,1.5,2.635q3.073,2.656,5.372,2.418l.541-.119q4.61-2.538,9.052-4.715a16.034,16.034,0,0,0,5.253,1.426,7.135,7.135,0,0,0,2-.195l.164-.051c.85-.25,1.323-1,1.426-2.256l.6-3.086a126.334,126.334,0,0,1,35.9-9.247l1.209-.137q4.348-.406,9.917-.46a4.782,4.782,0,0,0,.754-.18,1.406,1.406,0,0,0,.746-1.386Q111.321,112.222,108.23,110.106Z" transform="translate(-20.524 -43.079)" fill="#fff"/>
        </g>
        <g id="Grupo_14731" data-name="Grupo 14731" transform="translate(60.271 42.043)">
          <path id="Trazado_14932" data-name="Trazado 14932" d="M80.284,60.55a19.592,19.592,0,0,0-1.333-3.685,14.5,14.5,0,0,0-4.78-5.893,12.288,12.288,0,0,0-9.917-1.829q-5,1.21-9.634,6.611a24.747,24.747,0,0,0-3.108,4.454,7.765,7.765,0,0,0-.89.129l-.377.091a2.236,2.236,0,0,0-.969.544A28.225,28.225,0,0,0,46.9,65.909Q42.879,77.86,45.209,87.471a17.494,17.494,0,0,0,5.139,9.2q5.027,4.382,10.355,3.088l.749-.182q4.871-1.18,10.1-7.074a36.554,36.554,0,0,0,3.915-5.663,48.822,48.822,0,0,0,3.409-7.745q3.308-10.718,1.573-17.879ZM74.012,74.676a37.965,37.965,0,0,1-1.8,5.107,36.6,36.6,0,0,1-3.432,6.561Q63.541,94,58.5,95.223a9.221,9.221,0,0,1-2.3-4.6l-.182-.751a28.436,28.436,0,0,1-.546-8.063q3.191,1.339,4.854.938l.46-.111a2.7,2.7,0,0,0,.678-.3,1.665,1.665,0,0,0,.637-1.915,3.3,3.3,0,0,0-.182-.574,13.136,13.136,0,0,1-1.586-3.624q-1.461-6.036,3.42-13.17,4.484-5.668,8.316-6.6a3.755,3.755,0,0,1,1.649.086q.372-.091,1.133,2.853l.091.374Q76.363,65.646,74.012,74.676Z" transform="translate(-44.354 -48.783)" fill="#fff"/>
        </g>
        <g id="Grupo_14732" data-name="Grupo 14732" transform="translate(154.646 4.011)">
          <path id="Trazado_14933" data-name="Trazado 14933" d="M84.853,53.983q3.346,2.14,5.678,1.793a2.154,2.154,0,0,0,1.6-.928q3.65-10.634,4.193-12.532a5.978,5.978,0,0,0,.665-2.527l-.04-.253a6.067,6.067,0,0,0-2.107-3.106Q91,33.365,88.08,33.8a2.225,2.225,0,0,0-1.477.827q-.2.417-4.173,12.4a7.611,7.611,0,0,0-.754,2.8l.025.169Q81.975,51.813,84.853,53.983Z" transform="translate(-81.667 -33.746)" fill="#fff"/>
        </g>
        <g id="Grupo_14733" data-name="Grupo 14733" transform="translate(98.708)">
          <path id="Trazado_14934" data-name="Trazado 14934" d="M164.34,69.113a11.7,11.7,0,0,0-4.065-8.3,8.913,8.913,0,0,0-6.07-1.872l-.387.035Q149.9,59.348,142.833,66a8.7,8.7,0,0,0-2.294-2.835q-3.422-2.512-5.683-2.3l-.47.046a1.982,1.982,0,0,0-1.308.728q-.664,1.609-8.073,20.431c-.255.622-1.49,3.731-3.67,9.244-2.2,3.03-3.834,5.165-4.838,6.288a66.728,66.728,0,0,1-5.681,6.042l-.089-.03q.406-1.92.916-3.728,1.506-4.727,9.477-28.52a19.478,19.478,0,0,0,1.33-4.441q-.288-1.946-2.84-3.951-3.57-2.458-6.07-2.084a2.117,2.117,0,0,0-1.55.923q-.888,2.474-8.693,25.935c-.787,2.175-1.439,4.153-1.975,5.966-1.252,1.92-2.4,3.632-3.364,4.97a71.813,71.813,0,0,1-6.968,8.228l-.081.015.139-.855q.77-3.942,3.629-13.562Q96.1,87.66,107.758,47.128a6.036,6.036,0,0,0,.488-2.448l-.04-.21a6.285,6.285,0,0,0-2.345-3.124q-3.976-2.77-6.713-2.243l-.038.008A2.111,2.111,0,0,0,97.6,40.1q-.455,1.483-2.527,8.86Q83.323,89.509,83.057,90.606c-.845,2.651-1.507,5.01-2.028,7.138-1.232,1.862-2.362,3.531-3.3,4.833A75.6,75.6,0,0,1,70.8,110.8l-.086.015.144-.855q.721-3.934,3.629-13.564,1.377-4.845,16.116-56.132a6.216,6.216,0,0,0,.448-2.438l-.04-.212a6.385,6.385,0,0,0-2.3-3.131q-3.98-2.77-6.753-2.236l-.043.008a2.067,2.067,0,0,0-1.467.979q-.459,1.487-5.564,19.607Q63.1,93.4,62.826,94.494q-4.006,12.721-3.111,17.391a7.465,7.465,0,0,0,.782,2.248q2.891,4.591,7.009,3.8,4.841-.933,11.837-9.69c.149-.172.344-.425.518-.637.018.126.02.278.046.4a7.282,7.282,0,0,0,.782,2.249q2.883,4.591,7.052,3.791,4.833-.929,11.832-9.69c.025-.028.061-.078.089-.109.005.051,0,.109.01.157a8.6,8.6,0,0,0,.6,1.948q2.724,4.921,7,4.282c2.375-.354,5.23-2.142,8.539-5.309q-4.094,10.38-9.993,25.351a9,9,0,0,0-1,3.108l.015.126q.171,1.832,2.929,4.11,3.191,2.36,5.582,2.132l.043,0a2.249,2.249,0,0,0,1.525-.706q.319-.675,3.885-9.75,10.217-25.973,10.5-26.517a10.624,10.624,0,0,0,4.578,4.254,13.758,13.758,0,0,0,7.074,1.088l.258-.023q8.95-.857,15.934-12.451a58.779,58.779,0,0,0,5.134-11.586q2.663-8.992,2.145-14.49Zm-11.172,5.112a57.593,57.593,0,0,1-2.676,8.473,48.036,48.036,0,0,1-4.856,9.067q-5.782,7.952-11.025,8.453a11.656,11.656,0,0,1-1.249-.013,11.952,11.952,0,0,0-2.436-.281l-.384.035q4.947-12.649,9.255-23.383-.011-.558,1.285-1.887,1.942-2.166,4.1-4.35,5.831-5.634,8.521-6.751a7.3,7.3,0,0,1,.374,1.684A32.4,32.4,0,0,1,153.168,74.224Z" transform="translate(-59.551 -32.16)" fill="#fff"/>
        </g>
        <g id="Grupo_14734" data-name="Grupo 14734" transform="translate(205.145 23.095)">
          <path id="Trazado_14935" data-name="Trazado 14935" d="M131.232,80.55a48.345,48.345,0,0,0,5.089-6.763q5.664-9.678,5.612-17.045l-.005-.685a19.664,19.664,0,0,0-.46-3.893,14.525,14.525,0,0,0-3.3-6.829,12.291,12.291,0,0,0-9.237-4.044q-5.141.042-10.893,4.236a24.691,24.691,0,0,0-4.039,3.629,7.858,7.858,0,0,0-.9-.078l-.384,0a2.28,2.28,0,0,0-1.072.309,27.875,27.875,0,0,0-3.437,4.267q-6.643,10.71-6.566,20.6a17.478,17.478,0,0,0,2.9,10.13q3.893,5.414,9.376,5.37l.771-.005q5.012-.038,11.445-4.583A36.226,36.226,0,0,0,131.232,80.55Zm-18.426,4.292a9.227,9.227,0,0,1-1.2-5l0-.771a28.38,28.38,0,0,1,1.308-7.977q2.8,2.034,4.512,2.021l.47,0a2.634,2.634,0,0,0,.728-.134,1.664,1.664,0,0,0,1.057-1.72,3.236,3.236,0,0,0-.046-.6,13.159,13.159,0,0,1-.716-3.893q-.046-6.211,6.336-12.039,5.66-4.5,9.6-4.527a3.745,3.745,0,0,1,1.588.46q.383,0,.453,3.038v.384q.049,6.04-4.3,14.3a38.267,38.267,0,0,1-2.919,4.563,36.836,36.836,0,0,1-4.838,5.6Q117.982,84.8,112.806,84.842Z" transform="translate(-101.634 -41.291)" fill="#fff"/>
        </g>
        <g id="Grupo_14735" data-name="Grupo 14735" transform="translate(220.228 27.244)">
          <path id="Trazado_14936" data-name="Trazado 14936" d="M177.017,48.211a8.893,8.893,0,0,0-5.549-3.091l-.384-.046q-3.915-.448-12.206,4.6a8.71,8.71,0,0,0-1.652-3.25Q154.392,43.255,152.14,43l-.468-.053a1.985,1.985,0,0,0-1.429.44Q149.26,44.821,138.1,61.7q-1.4,2.037-28.859,43.556a8.961,8.961,0,0,0-1.616,2.835l-.015.126q-.209,1.829,2.013,4.626,2.633,2.974,5.018,3.248l.043.005a2.245,2.245,0,0,0,1.639-.374q.455-.592,5.825-8.731Q137.526,83.7,137.93,83.231a10.572,10.572,0,0,0,3.6,5.107,13.722,13.722,0,0,0,6.69,2.534l.258.03q8.935,1.017,18.17-8.873a58.93,58.93,0,0,0,7.423-10.274q4.477-8.24,5.1-13.729l.1-.85A11.69,11.69,0,0,0,177.017,48.211Zm-9.735,11.647a57.373,57.373,0,0,1-4.376,7.732,47.742,47.742,0,0,1-6.632,7.863q-7.3,6.582-12.537,5.982a12.121,12.121,0,0,1-1.222-.268,11.909,11.909,0,0,0-2.322-.784l-.382-.043q7.455-11.347,13.9-20.955c.068-.367.62-.893,1.647-1.578q2.348-1.715,4.914-3.407,6.874-4.3,9.735-4.836a7.486,7.486,0,0,1,.02,1.727A32.565,32.565,0,0,1,167.282,59.858Z" transform="translate(-107.597 -42.932)" fill="#fff"/>
        </g>
      </g>
    </g>
  </g>
</svg>
