<svg id="Grupo_1055" data-name="Grupo 1055" xmlns="http://www.w3.org/2000/svg" width="31.566" height="31.566" viewBox="0 0 31.566 31.566">
  <path id="Trazado_12977" data-name="Trazado 12977" d="M339.882,349.12c0,.132,0,.264.005.395A15.785,15.785,0,0,0,371,352.848c.02-.078.038-.156.055-.235a15.434,15.434,0,0,0,.372-2.86.133.133,0,0,0,0-.027c.011-.2.014-.4.014-.606a15.784,15.784,0,0,0-31.382-2.411l-.005.032s0,.009,0,.012-.005.033-.007.049q-.09.6-.132,1.218Q339.882,348.566,339.882,349.12Z" transform="translate(-339.882 -333.337)" fill="#e17906"/>
  <path id="Trazado_12978" data-name="Trazado 12978" d="M339.882,380.347c0,.132,0,.264.005.395a15.783,15.783,0,0,0,27.813,9.815c-1.021-.263-2.735-1.245-5.6-3.95-6.349-6-7.759-8.112-12.52-6.348-4.7,1.741-9.4-2.19-9.52-2.291l0,0-.007.063-.132,1.218Q339.882,379.793,339.882,380.347Z" transform="translate(-339.882 -364.564)" fill="#a85400"/>
  <path id="Trazado_12979" data-name="Trazado 12979" d="M340.47,346.753c2.269,1.975,6.244,3.474,9.346.868,4.408-3.7,7.583-1.764,14.46,3.879,3.371,2.767,5.641,2.481,7.14,1.348.02-.078.038-.156.055-.235a15.431,15.431,0,0,0,.372-2.86.133.133,0,0,0,0-.027c.011-.2.014-.4.014-.606a15.784,15.784,0,0,0-31.382-2.411C340.475,346.723,340.472,346.739,340.47,346.753Z" transform="translate(-340.293 -333.337)" fill="#631b0d"/>
  <path id="Trazado_12980" data-name="Trazado 12980" d="M372.118,372.865c6.645-4.941,8.6-12.331,6.365-20.081a15.713,15.713,0,0,1,3.526,9.943c0,.2,0,.405-.014.606a.133.133,0,0,1,0,.027,15.435,15.435,0,0,1-.372,2.86c-.018.079-.036.157-.055.235a15.785,15.785,0,0,1-26.59,7.34C361.955,377.152,367.7,376.152,372.118,372.865Z" transform="translate(-350.443 -346.944)" fill="#dbdbdb" opacity="0.6" style="mix-blend-mode: multiply;isolation: isolate"/>
  <path id="Trazado_12981" data-name="Trazado 12981" d="M386.249,357.007a15.7,15.7,0,0,1,2.6,8.675c0,.2,0,.405-.014.606a.133.133,0,0,1,0,.027,15.43,15.43,0,0,1-.372,2.86c-.018.079-.036.157-.055.235a15.787,15.787,0,0,1-23.655,9.687C377.384,383.732,392,374.8,386.249,357.007Z" transform="translate(-357.281 -349.899)" fill="#dbdbdb" style="mix-blend-mode: multiply;isolation: isolate"/>
  <g id="Grupo_1045" data-name="Grupo 1045" transform="translate(2.469 9.17)">
    <path id="Trazado_12982" data-name="Trazado 12982" d="M348.1,365.107a1.234,1.234,0,1,0,1.234-1.235A1.234,1.234,0,0,0,348.1,365.107Z" transform="translate(-348.104 -363.872)" fill="#cecece" style="mix-blend-mode: multiply;isolation: isolate"/>
    <path id="Trazado_12983" data-name="Trazado 12983" d="M348.851,365.63a1.01,1.01,0,1,0,1.01-1.01A1.01,1.01,0,0,0,348.851,365.63Z" transform="translate(-348.627 -364.395)" fill="#cecece" style="mix-blend-mode: multiply;isolation: isolate"/>
  </g>
  <g id="Grupo_1046" data-name="Grupo 1046" transform="translate(7.936 4.232)">
    <path id="Trazado_12984" data-name="Trazado 12984" d="M366.308,348.665a1.234,1.234,0,1,0,1.235-1.235A1.234,1.234,0,0,0,366.308,348.665Z" transform="translate(-366.308 -347.43)" fill="#cecece" style="mix-blend-mode: multiply;isolation: isolate"/>
    <path id="Trazado_12985" data-name="Trazado 12985" d="M367.056,349.188a1.01,1.01,0,1,0,1.01-1.01A1.01,1.01,0,0,0,367.056,349.188Z" transform="translate(-366.831 -347.953)" fill="#cecece" style="mix-blend-mode: multiply;isolation: isolate"/>
  </g>
  <g id="Grupo_1047" data-name="Grupo 1047" transform="translate(8.465 9.17)">
    <path id="Trazado_12986" data-name="Trazado 12986" d="M368.069,365.107a1.234,1.234,0,1,0,1.234-1.235A1.234,1.234,0,0,0,368.069,365.107Z" transform="translate(-368.069 -363.872)" fill="#cecece" style="mix-blend-mode: multiply;isolation: isolate"/>
    <path id="Trazado_12987" data-name="Trazado 12987" d="M368.817,365.63a1.01,1.01,0,1,0,1.01-1.01A1.009,1.009,0,0,0,368.817,365.63Z" transform="translate(-368.592 -364.395)" fill="#cecece" style="mix-blend-mode: multiply;isolation: isolate"/>
  </g>
  <g id="Grupo_1048" data-name="Grupo 1048" transform="translate(16.576 1.234)">
    <path id="Trazado_12988" data-name="Trazado 12988" d="M395.081,338.682a1.234,1.234,0,1,0,1.235-1.235A1.234,1.234,0,0,0,395.081,338.682Z" transform="translate(-395.081 -337.447)" fill="#cecece" style="mix-blend-mode: multiply;isolation: isolate"/>
    <circle id="Elipse_69" data-name="Elipse 69" cx="1.01" cy="1.01" r="1.01" transform="translate(0.225 0.225)" fill="#cecece" style="mix-blend-mode: multiply;isolation: isolate"/>
  </g>
  <g id="Grupo_1049" data-name="Grupo 1049" transform="translate(12.873 5.819)">
    <path id="Trazado_12989" data-name="Trazado 12989" d="M382.749,353.949a1.235,1.235,0,1,0,1.234-1.234A1.235,1.235,0,0,0,382.749,353.949Z" transform="translate(-382.749 -352.715)" fill="#cecece" style="mix-blend-mode: multiply;isolation: isolate"/>
    <path id="Trazado_12990" data-name="Trazado 12990" d="M383.5,354.473a1.01,1.01,0,1,0,1.01-1.01A1.01,1.01,0,0,0,383.5,354.473Z" transform="translate(-383.272 -353.238)" fill="#cecece" style="mix-blend-mode: multiply;isolation: isolate"/>
  </g>
  <g id="Grupo_1050" data-name="Grupo 1050" transform="translate(20.103 5.467)">
    <path id="Trazado_12991" data-name="Trazado 12991" d="M406.825,352.775a1.235,1.235,0,1,0,1.235-1.234A1.235,1.235,0,0,0,406.825,352.775Z" transform="translate(-406.825 -351.541)" fill="#cecece" style="mix-blend-mode: multiply;isolation: isolate"/>
    <path id="Trazado_12992" data-name="Trazado 12992" d="M407.573,353.3a1.01,1.01,0,1,0,1.01-1.01A1.01,1.01,0,0,0,407.573,353.3Z" transform="translate(-407.348 -352.064)" fill="#cecece" style="mix-blend-mode: multiply;isolation: isolate"/>
  </g>
  <g id="Grupo_1051" data-name="Grupo 1051" transform="translate(20.985 12.344)">
    <path id="Trazado_12993" data-name="Trazado 12993" d="M409.763,375.677A1.234,1.234,0,1,0,411,374.442,1.234,1.234,0,0,0,409.763,375.677Z" transform="translate(-409.763 -374.442)" fill="#cecece" style="mix-blend-mode: multiply;isolation: isolate"/>
    <path id="Trazado_12994" data-name="Trazado 12994" d="M410.509,376.2a1.01,1.01,0,1,0,1.01-1.01A1.01,1.01,0,0,0,410.509,376.2Z" transform="translate(-410.285 -374.965)" fill="#cecece" style="mix-blend-mode: multiply;isolation: isolate"/>
  </g>
  <g id="Grupo_1052" data-name="Grupo 1052" transform="translate(27.51 13.402)">
    <path id="Trazado_12995" data-name="Trazado 12995" d="M431.489,379.2a1.234,1.234,0,1,0,1.235-1.234A1.235,1.235,0,0,0,431.489,379.2Z" transform="translate(-431.489 -377.966)" fill="#cecece" style="mix-blend-mode: multiply;isolation: isolate"/>
    <circle id="Elipse_70" data-name="Elipse 70" cx="1.01" cy="1.01" r="1.01" transform="translate(0.225 0.224)" fill="#cecece" style="mix-blend-mode: multiply;isolation: isolate"/>
  </g>
  <g id="Grupo_1053" data-name="Grupo 1053" transform="translate(24.336 7.759)">
    <path id="Trazado_12996" data-name="Trazado 12996" d="M420.919,360.409a1.234,1.234,0,1,0,1.235-1.234A1.234,1.234,0,0,0,420.919,360.409Z" transform="translate(-420.919 -359.175)" fill="#cecece" style="mix-blend-mode: multiply;isolation: isolate"/>
    <path id="Trazado_12997" data-name="Trazado 12997" d="M421.667,360.932a1.01,1.01,0,1,0,1.01-1.01A1.01,1.01,0,0,0,421.667,360.932Z" transform="translate(-421.442 -359.698)" fill="#cecece" style="mix-blend-mode: multiply;isolation: isolate"/>
  </g>
  <g id="Grupo_1054" data-name="Grupo 1054" transform="translate(0.353 0.267)">
    <path id="Trazado_12998" data-name="Trazado 12998" d="M348.874,360.6c2.735.168,1.391-4.562,8.646-11.2,6.349-5.805,10.869-4.452,10.806-6.826-.1-3.656-6.018-7.227-11.3-7.437-7.467-.3-15.682,6.041-15.876,13.731C341.013,354.31,344.885,360.36,348.874,360.6Z" transform="translate(-341.12 -334.862)" fill="#fff" opacity="0.1" style="mix-blend-mode: screen;isolation: isolate"/>
    <path id="Trazado_12999" data-name="Trazado 12999" d="M356.518,334.225c4.263-.046,8.9,2.012,8.648,3.518-.146.88-5.786.349-12.606,6.743-7.036,6.6-6.018,13.212-7.036,13.339-1.173.147-5.034-5.584-4.4-10.848C342.017,339.606,349.77,334.3,356.518,334.225Z" transform="translate(-341.056 -334.224)" fill="#fff" opacity="0.1" style="mix-blend-mode: screen;isolation: isolate"/>
    <path id="Trazado_13000" data-name="Trazado 13000" d="M364.7,338.331c.053-.477-3.306-1.885-7-1.611a14.933,14.933,0,0,0-12.612,9.513c-1.487,4.324-.268,8.749.264,8.769.509.019.135-3.857,2.585-8.105a16.575,16.575,0,0,1,9.17-7.23C361.233,338.353,364.645,338.8,364.7,338.331Z" transform="translate(-343.377 -335.946)" fill="#fff" opacity="0.2" style="mix-blend-mode: screen;isolation: isolate"/>
    <path id="Trazado_13001" data-name="Trazado 13001" d="M371.07,338.292c1-.119,2.981.2,2.248.488a29.017,29.017,0,0,0-6.939,3.128c-1.27.782-2.248-.147-1.662-.782A13.038,13.038,0,0,1,371.07,338.292Z" transform="translate(-357.49 -337.052)" fill="#fff" opacity="0.6" style="mix-blend-mode: screen;isolation: isolate"/>
    <path id="Trazado_13002" data-name="Trazado 13002" d="M351.7,351.745c.354-.3,1.8.141,1.564.342a15.759,15.759,0,0,0-4.642,6.059C347.449,360.736,348.182,354.676,351.7,351.745Z" transform="translate(-345.987 -346.414)" fill="#fff" opacity="0.6" style="mix-blend-mode: screen;isolation: isolate"/>
  </g>
  <path id="Trazado_13003" data-name="Trazado 13003" d="M436.687,418.484s-.116.139-.29.351A.7.7,0,0,0,436.687,418.484Z" transform="translate(-407.413 -392.914)" fill="#fff"/>
</svg>
