<svg xmlns="http://www.w3.org/2000/svg" xmlns:xlink="http://www.w3.org/1999/xlink" width="273.166" height="219.702" viewBox="0 0 273.166 219.702">
  <defs>
    <linearGradient id="linear-gradient" x1="-1.43" y1="-0.037" x2="-0.782" y2="0.441" gradientUnits="objectBoundingBox">
      <stop offset="0" stop-color="#fff"/>
      <stop offset="0.49" stop-color="#fefafc"/>
      <stop offset="1" stop-color="#ea4c95"/>
    </linearGradient>
    <linearGradient id="linear-gradient-2" x1="-1.739" y1="-0.079" x2="-1.333" y2="0.217" xlink:href="#linear-gradient"/>
    <linearGradient id="linear-gradient-3" x1="-2.112" y1="-0.191" x2="-1.671" y2="0.233" xlink:href="#linear-gradient"/>
  </defs>
  <g id="Grupo_15376" data-name="Grupo 15376" transform="translate(-601.435 -701.499)">
    <g id="Grupo_15281" data-name="Grupo 15281" transform="translate(4.018 588.499)">
      <g id="Grupo_15277" data-name="Grupo 15277" transform="translate(354.344 -229.313)">
        <g id="Grupo_1445" data-name="Grupo 1445" transform="translate(343.711 342.312)">
          <g id="Grupo_1390" data-name="Grupo 1390" transform="translate(108.161 78.958)">
            <path id="Trazado_13606" data-name="Trazado 13606" d="M2558.171,1908.008c12.551,3.492,3.911-24.939-10.059-31.28l2.882,20.047Z" transform="translate(-2548.112 -1876.728)" fill="#fbc100"/>
          </g>
          <g id="Grupo_1391" data-name="Grupo 1391" transform="translate(108.161 78.958)" opacity="0.3">
            <path id="Trazado_13607" data-name="Trazado 13607" d="M2558.171,1908.008c12.551,3.492,3.911-24.939-10.059-31.28l2.882,20.047Z" transform="translate(-2548.112 -1876.728)" fill="#760153"/>
          </g>
          <g id="Grupo_1392" data-name="Grupo 1392" transform="translate(1.917 1.22)">
            <path id="Trazado_13608" data-name="Trazado 13608" d="M1350.778,1076.255a7.463,7.463,0,0,1-6.887,7.1l-67.139,5.239a20.848,20.848,0,0,1-8.863-1.24s-.007,0-.016,0c-.236-.09-.471-.179-.7-.276l-8.759-3.621a6.122,6.122,0,0,1-3.778-5.845,554.549,554.549,0,0,0-12.39-134.662,6.121,6.121,0,0,1,1.9-5.875l7.5-6.687.008,0,.781-.7a12.829,12.829,0,0,1,7.533-3.213l1.074-.085,28.928-2.257,9.322-.728,26.544-2.07,2.267-.176a7.479,7.479,0,0,1,7.825,5.618C1347.553,972.508,1352.893,1027.335,1350.778,1076.255Z" transform="translate(-1242.103 -921.13)" fill="#955447"/>
          </g>
          <g id="Grupo_1393" data-name="Grupo 1393" transform="translate(65.036 33.412)">
            <path id="Trazado_13609" data-name="Trazado 13609" d="M2031.035,1361.313c.884,8.16,1.607,16.027,2.3,24.641l-6.826,3.228c-.219-5.1-.107-2.224-.475-7.341a544.856,544.856,0,0,0-8.042-62.643l6.994-.553.068.329,21.231-2.046.756-.061.14-.012.052.333h3.273l2.242,1.912-4.483,4.441-20.87,1.466a1.144,1.144,0,0,0-1.049,1.328q1.526,9.118,2.784,18.777l-5.745,7.688,6.655-.375c.014.091.019.18.033.269l19.316-1.72,2.958-.163.239-.013,2.016-.109,4,2.332-5.436,4.779-20.741,1.826A1.533,1.533,0,0,0,2031.035,1361.313Z" transform="translate(-2017.991 -1316.856)" fill="#b68662"/>
          </g>
          <g id="Grupo_1394" data-name="Grupo 1394" transform="translate(11.467 9.934)" opacity="0.2">
            <path id="Trazado_13610" data-name="Trazado 13610" d="M1359.491,1028.792a3.111,3.111,0,0,1,.818-.536Z" transform="translate(-1359.491 -1028.256)" fill="#fff"/>
          </g>
          <g id="Grupo_1395" data-name="Grupo 1395" transform="translate(12.284 4.118)">
            <path id="Trazado_13611" data-name="Trazado 13611" d="M1421.613,989.744l-5.857,6.077-22.834,1.92a3.294,3.294,0,0,0-2.976,3.832q1.308,7.9,2.377,15.927l-6.943,7.948a486.865,486.865,0,0,0-11.275-60.712,3.293,3.293,0,0,0-4.564-2.162l3.8-2.49c.579-.517,3.625-.785,4.8-.833l-.029-.139,21.762-1.7,1.425-.087s.008,0,.012,0a.084.084,0,0,0,.013,0l5.751-.353,3.631-.22,2.182,1.639-3.942,5.365-24.238,1.66a1.752,1.752,0,0,0-1.586,2.164q2,8.321,3.734,16.986l-6.648,7.077,8.92-.663-.2-.576,25.454-2.071.12.639h0l6.846-.679C1421.435,988.776,1421.524,989.26,1421.613,989.744Z" transform="translate(-1369.541 -956.756)" fill="#b68662"/>
          </g>
          <g id="Grupo_1396" data-name="Grupo 1396" transform="translate(64.088 35.657)" opacity="0.2">
            <path id="Trazado_13612" data-name="Trazado 13612" d="M2007.18,1345.307l-.571.6c-.09-.484-.181-.969-.268-1.448Z" transform="translate(-2006.341 -1344.456)" fill="#fff"/>
          </g>
          <g id="Grupo_1397" data-name="Grupo 1397" transform="translate(42.615 4.216)" opacity="0.2">
            <path id="Trazado_13613" data-name="Trazado 13613" d="M1743.735,958.432h.081l-1.424.086,7.167-.562.034.123Z" transform="translate(-1742.391 -957.956)" fill="#fff"/>
          </g>
          <g id="Grupo_1398" data-name="Grupo 1398" transform="translate(28.176 70.248)">
            <path id="Trazado_13614" data-name="Trazado 13614" d="M1573.7,1780.35a540.251,540.251,0,0,1,2.4,80.557c-.1,2.221-5.311,3.66-7.366,2.811l-.178.118a546.907,546.907,0,0,0-3.659-91.21l7.833-.9c.013.1.023.2.037.3l25.1-2.237,1.4-.126h6.711c.016.142.033.286.048.43l-5.969,6.277-24.572,1.851A1.936,1.936,0,0,0,1573.7,1780.35Z" transform="translate(-1564.892 -1769.656)" fill="#b68662"/>
          </g>
          <g id="Grupo_1399" data-name="Grupo 1399" transform="translate(69.258 70.248)" opacity="0.2">
            <path id="Trazado_13615" data-name="Trazado 13615" d="M2070.353,1769.656l-.413.43c-.015-.145-.03-.288-.049-.43Z" transform="translate(-2069.891 -1769.656)" fill="#fff"/>
          </g>
          <g id="Grupo_1400" data-name="Grupo 1400" transform="translate(81.249 1.354)" opacity="0.3">
            <path id="Trazado_13616" data-name="Trazado 13616" d="M2217.558,923.213c-.091-.009-.175-.013-.267-.013l4.515-.3,1.475-.1a7.5,7.5,0,0,1,1.536.042l-6.475.452h0c-.087-.018-.172-.029-.256-.038Q2217.818,923.225,2217.558,923.213Z" transform="translate(-2217.291 -922.784)" fill="#760153"/>
          </g>
          <g id="Grupo_1401" data-name="Grupo 1401" transform="translate(88.774 1.417)" opacity="0.3">
            <path id="Trazado_13617" data-name="Trazado 13617" d="M2312.224,924.3l-2.434-.748A7.364,7.364,0,0,1,2312.224,924.3Z" transform="translate(-2309.79 -923.556)" fill="#760153"/>
          </g>
          <g id="Grupo_1402" data-name="Grupo 1402" transform="translate(59.992 3.17)" opacity="0.3">
            <path id="Trazado_13618" data-name="Trazado 13618" d="M2005.91,1098.416c-.163,3.762-3.127,6.809-8.493,7.154l-41.426,3.234,36.3-2.875a7.461,7.461,0,0,0,6.882-7.1,544.881,544.881,0,0,0-2.966-82.534l5.439-4.78-4-2.331-2.016.11-.241.013c-.024-.2-.048-.391-.076-.586l-21.207,1.375-.041.768-.985.057-6.653.375,5.743-7.689.1-.129,20.172-1.538a1.853,1.853,0,0,0,1.7-2.107q-1.268-8.987-2.828-17.8l4.484-4.441-2.242-1.912h-3.273l-.054-.332-.139.012a.023.023,0,0,1,0-.012l-.754.072-21.232,2.047-.065-.33-7,.554-.106.008.091-.106,5.775-6.842-.013-.061,19.969-1.606a1.827,1.827,0,0,0,1.638-2.192c-1.212-5.764-2.512-11.43-3.913-16.958l4.222-4.828a7.458,7.458,0,0,1,2.363,3.824C2002.684,994.669,2008.024,1049.5,2005.91,1098.416Z" transform="translate(-1955.991 -945.106)" fill="#760153"/>
          </g>
          <g id="Grupo_1403" data-name="Grupo 1403" transform="translate(64.93 35.657)" opacity="0.3">
            <path id="Trazado_13619" data-name="Trazado 13619" d="M2016.781,1344.456c0,.032.012.065.017.1l-.106.009Z" transform="translate(-2016.691 -1344.456)" fill="#760153"/>
          </g>
          <g id="Grupo_1404" data-name="Grupo 1404" transform="translate(76.156 61.539)" opacity="0.3">
            <path id="Trazado_13620" data-name="Trazado 13620" d="M2154.8,1662.606l-.1.129-.015-.121Z" transform="translate(-2154.691 -1662.606)" fill="#760153"/>
          </g>
          <g id="Grupo_1405" data-name="Grupo 1405" transform="translate(34.659 168.865)" opacity="0.3">
            <path id="Trazado_13621" data-name="Trazado 13621" d="M1644.66,2981.913c.154-.007.252-.007.3-.007-.07.007-.22.007-.371.007Z" transform="translate(-1644.591 -2981.906)" fill="#760153"/>
          </g>
          <g id="Grupo_1406" data-name="Grupo 1406" transform="translate(34.281 166.867)" opacity="0.3">
            <path id="Trazado_13622" data-name="Trazado 13622" d="M1665.653,2957.355l-25.265,2c-.113,0-.259,0-.446,0Z" transform="translate(-1639.941 -2957.355)" fill="#760153"/>
          </g>
          <g id="Grupo_1407" data-name="Grupo 1407" transform="translate(34.659 168.865)" opacity="0.3">
            <path id="Trazado_13623" data-name="Trazado 13623" d="M1644.66,2981.913c.154-.007.252-.007.3-.007-.07.007-.22.007-.371.007Z" transform="translate(-1644.591 -2981.906)" fill="#760153"/>
          </g>
          <g id="Grupo_1408" data-name="Grupo 1408" transform="translate(34.281 166.867)" opacity="0.3">
            <path id="Trazado_13624" data-name="Trazado 13624" d="M1665.653,2957.355l-25.265,2c-.113,0-.259,0-.446,0Z" transform="translate(-1639.941 -2957.355)" fill="#760153"/>
          </g>
          <g id="Grupo_1409" data-name="Grupo 1409" transform="translate(52.06 1.417)">
            <path id="Trazado_13625" data-name="Trazado 13625" d="M1873.165,933.437s0,.012,0,.015q2.208,8.354,4.045,17.441l.013.061-5.777,6.842c-1.726-9.071-3.678-17.926-5.845-26.463a7.468,7.468,0,0,0-7.114-5.634l9.266-.276s.019.008.053.025l24.269-1.892.114.057-4.515.3a2.632,2.632,0,0,1,.265.013c.175.008.35.024.526.048a2.536,2.536,0,0,1,.254.037h.007l6.473-.452,2.432.748a7.384,7.384,0,0,1,1.5,1l-4.222,4.829-20.444,1.5A1.452,1.452,0,0,0,1873.165,933.437Z" transform="translate(-1858.491 -923.556)" fill="#b68662"/>
          </g>
          <g id="Grupo_1410" data-name="Grupo 1410" transform="translate(91.206 2.166)" opacity="0.2">
            <path id="Trazado_13626" data-name="Trazado 13626" d="M2341.558,933.334l-.373.426a7.394,7.394,0,0,0-1.494-1Z" transform="translate(-2339.691 -932.756)" fill="#fff"/>
          </g>
          <g id="Grupo_1411" data-name="Grupo 1411" transform="translate(96.433 67.246)" opacity="0.2">
            <path id="Trazado_13627" data-name="Trazado 13627" d="M2407.14,1732.867l-3.2.175,2.944-.265.247-.021Z" transform="translate(-2403.94 -1732.756)" fill="#fff"/>
          </g>
          <g id="Grupo_1412" data-name="Grupo 1412" transform="translate(1.917 9.633)">
            <path id="Trazado_13628" data-name="Trazado 13628" d="M1272.019,1179.443a3.21,3.21,0,0,1-4.129,2.921s-.007,0-.016,0c-.236-.09-.471-.179-.7-.277l-8.759-3.619a6.122,6.122,0,0,1-3.778-5.845,554.565,554.565,0,0,0-12.39-134.663,6.118,6.118,0,0,1,1.9-5.873l7.5-6.687.008,0a3.294,3.294,0,0,1,5.382,1.627C1268.981,1073.574,1274.391,1129.69,1272.019,1179.443Z" transform="translate(-1242.103 -1024.552)" fill="#b68662"/>
          </g>
          <g id="Grupo_1413" data-name="Grupo 1413" transform="translate(51.348 3.559)" opacity="0.2">
            <path id="Trazado_13629" data-name="Trazado 13629" d="M1850.454,949.89l-.713.021C1849.983,949.89,1850.218,949.887,1850.454,949.89Z" transform="translate(-1849.741 -949.889)" fill="#fff"/>
          </g>
          <g id="Grupo_1414" data-name="Grupo 1414" transform="translate(13.972 106.303)">
            <path id="Trazado_13630" data-name="Trazado 13630" d="M1486.911,2262.908a7.464,7.464,0,0,1-6.888,7.1l-67.137,5.239a20.432,20.432,0,0,1-4.076-.085,20.733,20.733,0,0,1-5.507-1.435l-8.758-3.621a6.122,6.122,0,0,1-3.779-5.845c.391-12.137.35-24.075-.049-35.73q-.171-4.969-.426-9.869a18.136,18.136,0,0,1,6.7,1.833c6.175,14.562,13.773,18.99,25.084-3.052a8.707,8.707,0,0,1,2.278-2.362c2.1-1.554,5.788-3.055,11.541-1.667,4.448,1.069,10.138,3.876,17.3,9.724,11.6,9.489,17.4,8.307,20.293,4.711a12.256,12.256,0,0,0,2.152-4.5,21.822,21.822,0,0,0,.741-5.3s4.2-4.8,10.718,6.728c.008.234.016.469.02.7q.148,4.788.2,9.546C1487.44,2244.469,1487.305,2253.79,1486.911,2262.908Z" transform="translate(-1390.291 -2212.868)" fill="#57baeb"/>
          </g>
          <g id="Grupo_1415" data-name="Grupo 1415" transform="translate(11.888 84.984)" opacity="0.55">
            <path id="Trazado_13631" data-name="Trazado 13631" d="M1366.749,1977.913q.092,1.806.176,3.625-.721-15.767-2.257-30.737a21.587,21.587,0,0,0,4.184,9.347q.8,9.029,1.323,18.357A18.614,18.614,0,0,0,1366.749,1977.913Z" transform="translate(-1364.667 -1950.8)" fill="#fff"/>
          </g>
          <g id="Grupo_1416" data-name="Grupo 1416" transform="translate(14.296 119.232)" opacity="0.55">
            <path id="Trazado_13632" data-name="Trazado 13632" d="M1399.214,2416.529l-1.017-.416a6.131,6.131,0,0,1-3.78-5.847c.418-13.089.343-25.942-.15-38.466q.053,1.367.1,2.739h.036a3.973,3.973,0,0,1,3.532,3.834c.356,11.179.375,22.614,0,34.231A6.083,6.083,0,0,0,1399.214,2416.529Z" transform="translate(-1394.267 -2371.8)" fill="#fff"/>
          </g>
          <g id="Grupo_1417" data-name="Grupo 1417" transform="translate(1.915 1.219)" opacity="0.55">
            <path id="Trazado_13633" data-name="Trazado 13633" d="M1334.378,923.79a7.524,7.524,0,0,0-2.779-.305l-2.266.175-26.544,2.07-9.323.729-28.928,2.257-1.073.086a12.821,12.821,0,0,0-7.532,3.213l-.781.7-.009,0-7.5,6.688a6.119,6.119,0,0,0-1.9,5.873,544.785,544.785,0,0,1,8.993,54.2,8.973,8.973,0,0,1-3.487-2.062v.05a544.114,544.114,0,0,0-9.029-54.525,6.127,6.127,0,0,1,1.9-5.875l7.5-6.686.008,0,.781-.7a12.831,12.831,0,0,1,7.535-3.213l1.073-.086,28.929-2.257,9.322-.728,26.545-2.07,2.265-.176A7.47,7.47,0,0,1,1334.378,923.79Z" transform="translate(-1242.079 -921.123)" fill="#fff"/>
          </g>
          <g id="Grupo_1418" data-name="Grupo 1418" transform="translate(0.696 0)">
            <path id="Trazado_13634" data-name="Trazado 13634" d="M1261.368,1076.1a22.172,22.172,0,0,1-8.448-1.675l-8.755-3.622a7.37,7.37,0,0,1-4.531-7.011,553.8,553.8,0,0,0-12.364-134.363,7.341,7.341,0,0,1,2.284-7.044l8.286-7.391a14.108,14.108,0,0,1,8.25-3.519l68.132-5.316a8.675,8.675,0,0,1,9.106,6.532c11.6,45.654,17.029,100.268,14.885,149.838a8.687,8.687,0,0,1-8.006,8.265l-67.141,5.239C1262.5,1076.08,1261.935,1076.1,1261.368,1076.1Zm53.54-167.526c-.163,0-.329.008-.493.02l-68.135,5.315a11.66,11.66,0,0,0-6.814,2.907l-8.286,7.391a4.9,4.9,0,0,0-1.526,4.7,556.194,556.194,0,0,1,12.42,134.962,4.915,4.915,0,0,0,3.024,4.677l8.756,3.624a19.686,19.686,0,0,0,9.023,1.43l67.141-5.239a6.242,6.242,0,0,0,5.759-5.937c2.134-49.342-3.266-103.7-14.813-149.131A6.243,6.243,0,0,0,1314.908,908.577Zm15.2,161.006h0Z" transform="translate(-1227.101 -906.136)" fill="#541c27"/>
          </g>
          <g id="Grupo_1419" data-name="Grupo 1419" transform="translate(21.728 32.194)">
            <path id="Trazado_13635" data-name="Trazado 13635" d="M1486.858,1310.51a1.221,1.221,0,0,1-.445-2.357,14.051,14.051,0,0,1,4.038-.93l68.138-5.317a8.682,8.682,0,0,1,9.1,6.534,1.22,1.22,0,1,1-2.365.6,6.251,6.251,0,0,0-6.548-4.7l-68.135,5.315a11.665,11.665,0,0,0-3.339.77A1.247,1.247,0,0,1,1486.858,1310.51Z" transform="translate(-1485.638 -1301.88)" fill="#541c27"/>
          </g>
          <g id="Grupo_1420" data-name="Grupo 1420" transform="translate(26.959 66.003)">
            <path id="Trazado_13636" data-name="Trazado 13636" d="M1551.159,1725.969a1.221,1.221,0,0,1-.412-2.37,14.232,14.232,0,0,1,3.625-.776l68.132-5.314a8.688,8.688,0,0,1,9.106,6.532,1.22,1.22,0,0,1-2.364.6,6.255,6.255,0,0,0-6.553-4.7l-68.129,5.315a11.632,11.632,0,0,0-2.995.643A1.248,1.248,0,0,1,1551.159,1725.969Z" transform="translate(-1549.939 -1717.482)" fill="#541c27"/>
          </g>
          <g id="Grupo_1421" data-name="Grupo 1421" transform="translate(50.128 2.899)">
            <path id="Trazado_13637" data-name="Trazado 13637" d="M1858.568,1054.385a1.222,1.222,0,0,1-1.219-1.168c-.217-5.07-.513-10.217-.878-15.3-2.208-31.2-7-61.979-13.867-88.991a6.236,6.236,0,0,0-6.546-4.7,1.22,1.22,0,1,1-.19-2.433,8.67,8.67,0,0,1,9.1,6.529c6.9,27.151,11.716,58.071,13.938,89.418.363,5.106.66,10.277.879,15.369a1.217,1.217,0,0,1-1.166,1.271Z" transform="translate(-1834.741 -941.769)" fill="#541c27"/>
          </g>
          <g id="Grupo_1422" data-name="Grupo 1422" transform="translate(43.958 4.687)" opacity="0.3">
            <path id="Trazado_13638" data-name="Trazado 13638" d="M1758.891,963.76l.092,0s-.007,0-.012,0Z" transform="translate(-1758.891 -963.756)" fill="#760153"/>
          </g>
          <g id="Grupo_1423" data-name="Grupo 1423" transform="translate(44.051 4.338)" opacity="0.3">
            <path id="Trazado_13639" data-name="Trazado 13639" d="M1765.8,959.456l-5.75.354s-.008-.005-.013-.005Z" transform="translate(-1760.041 -959.456)" fill="#760153"/>
          </g>
          <g id="Grupo_1424" data-name="Grupo 1424" transform="translate(53.447 4.118)" opacity="0.3">
            <path id="Trazado_13640" data-name="Trazado 13640" d="M1877.721,958.4l-2.18-1.639A6.929,6.929,0,0,1,1877.721,958.4Z" transform="translate(-1875.542 -956.756)" fill="#760153"/>
          </g>
          <g id="Grupo_1425" data-name="Grupo 1425" transform="translate(22.949 5.757)" opacity="0.3">
            <path id="Trazado_13641" data-name="Trazado 13641" d="M1509.561,1009.495l-8.92.663,6.647-7.078,24.394-1.777a1.758,1.758,0,0,0,1.592-2.111q-1.8-8.633-3.9-16.922l3.941-5.364a13.662,13.662,0,0,1,3.236,6.394c1.954,7.4,3.688,15.261,5.226,23.506l-6.846.68c-.042-.216-.083-.428-.122-.639l-25.455,2.07Z" transform="translate(-1500.641 -976.906)" fill="#760153"/>
          </g>
          <g id="Grupo_1426" data-name="Grupo 1426" transform="translate(28.123 37.105)" opacity="0.3">
            <path id="Trazado_13642" data-name="Trazado 13642" d="M1598.669,1395.4l-.119-.891c.041.3.077.593.114.891l-23.983,1.325.215.42-2.769.322-7.834.9c-.016-.138-.033-.272-.052-.406l6.942-7.948,23.011-1.935a3.3,3.3,0,0,0,2.985-3.767q-1.159-8.066-2.563-15.978l5.859-6.076c1.915,10.481,3.526,21.573,4.9,33.142Z" transform="translate(-1564.241 -1362.255)" fill="#760153"/>
          </g>
          <g id="Grupo_1427" data-name="Grupo 1427" transform="translate(63.335 70.679)" opacity="0.3">
            <path id="Trazado_13643" data-name="Trazado 13643" d="M2006.25,1807.623l-6.634,3.526c-.22-5.1-.106-2.229-.471-7.344q-.806-11.313-2.054-22.571l5.97-6.278C2004.3,1785.488,2005.352,1796.409,2006.25,1807.623Z" transform="translate(-1997.092 -1774.956)" fill="#760153"/>
          </g>
          <g id="Grupo_1428" data-name="Grupo 1428" transform="translate(27.72 72.81)" opacity="0.3">
            <path id="Trazado_13644" data-name="Trazado 13644" d="M1559.747,1801.563l-.456.053.4-.459C1559.713,1801.292,1559.73,1801.425,1559.747,1801.563Z" transform="translate(-1559.291 -1801.156)" fill="#760153"/>
          </g>
          <g id="Grupo_1429" data-name="Grupo 1429" transform="translate(62.432 69.357)" opacity="0.3">
            <path id="Trazado_13645" data-name="Trazado 13645" d="M1986.108,1759.6h0c-.035-.295-.073-.595-.114-.89Z" transform="translate(-1985.99 -1758.706)" fill="#760153"/>
          </g>
          <g id="Grupo_1430" data-name="Grupo 1430" transform="translate(10.245 8.41)">
            <path id="Trazado_13646" data-name="Trazado 13646" d="M1362.859,1169.912a4.424,4.424,0,0,1-1.692-.335,1.221,1.221,0,1,1,.934-2.256,1.989,1.989,0,0,0,2.746-1.741c2.4-50.284-3.052-105.709-14.948-152.066a2.022,2.022,0,0,0-1.4-1.458,2.063,2.063,0,0,0-1.988.437,1.22,1.22,0,1,1-1.625-1.821,4.511,4.511,0,0,1,7.375,2.237c11.955,46.583,17.431,102.271,15.024,152.787a4.43,4.43,0,0,1-4.427,4.216Z" transform="translate(-1344.479 -1009.522)" fill="#541c27"/>
          </g>
          <g id="Grupo_1431" data-name="Grupo 1431" transform="translate(1.22 85.342)">
            <path id="Trazado_13647" data-name="Trazado 13647" d="M1344.995,1989.389v.006c-.505.454-.825.684-.825.684-7.128-14.052-11.79-8.721-11.79-8.721s.078,9.386-5.51,11.85c-3.385,1.49-8.852.444-17.673-6.768-23.39-19.116-31.116-5.693-31.116-5.693-11.313,22.041-18.911,17.611-25.086,3.048-8.615-4.271-17.192,0-17.192,0l5.672-13.42-7.932-3.864c2.848-7.935,10.705-11.3,10.705-11.3s2.4,15.827,19.371,15.835,21.483-7.746,42.208-2.1c13.626,3.709,26.235.175,33.276-2.683h0a44.935,44.935,0,0,0,5.825-2.8l6.161,11.188A18.88,18.88,0,0,1,1344.995,1989.389Z" transform="translate(-1233.541 -1955.206)" fill="#fbc100"/>
          </g>
          <g id="Grupo_1432" data-name="Grupo 1432" transform="translate(1.22 85.342)" opacity="0.55">
            <path id="Trazado_13648" data-name="Trazado 13648" d="M1268.35,1994.263c-6.268,4.689-11.14-.53-15.356-10.468-8.615-4.271-17.192,0-17.192,0l5.672-13.42-7.932-3.864c2.848-7.935,10.705-11.3,10.705-11.3s.049.313.174.853a20.078,20.078,0,0,0-6.082,7.594,1.257,1.257,0,0,0,.607,1.631l4.8,2.341a2.437,2.437,0,0,1,1.178,3.143l-4.769,11.293a21.862,21.862,0,0,1,11.705-1.7,9.418,9.418,0,0,1,7.055,5.108C1261.695,1990.988,1264.778,1994.362,1268.35,1994.263Z" transform="translate(-1233.541 -1955.206)" fill="#fff"/>
          </g>
          <g id="Grupo_1433" data-name="Grupo 1433" transform="translate(52.756 104.565)" opacity="0.55">
            <path id="Trazado_13649" data-name="Trazado 13649" d="M1910.61,2209.123c-3.129,2.824-8.878,3.032-19.449-5.609-11.527-9.424-19.252-10.941-24.12-10.054,3.918-2.642,12.581-4.674,28.474,8.317C1902.38,2207.387,1907.212,2209.265,1910.61,2209.123Z" transform="translate(-1867.041 -2191.502)" fill="#fff"/>
          </g>
          <g id="Grupo_1434" data-name="Grupo 1434" transform="translate(0 84.123)">
            <path id="Trazado_13650" data-name="Trazado 13650" d="M1250.061,1983.449c-.082,0-.162,0-.244,0-4.251-.154-7.925-4.138-11.545-12.519-7.811-3.615-15.629.155-15.71.193a1.222,1.222,0,0,1-1.665-1.569l5.22-12.358-6.892-3.358a1.218,1.218,0,0,1-.614-1.508c2.991-8.335,11.032-11.867,11.373-12.014a1.221,1.221,0,0,1,1.687.938c.094.6,2.475,14.79,18.163,14.8h.037a59.622,59.622,0,0,0,15.33-2.188c7.244-1.765,14.088-3.433,27.162.127,19.99,5.439,37.974-5.236,38.154-5.345a1.219,1.219,0,0,1,1.262,2.086c-.769.466-19.069,11.325-40.056,5.612-12.468-3.391-18.714-1.871-25.946-.111a61.6,61.6,0,0,1-15.906,2.258h-.038c-14.47-.01-18.991-11.025-20.192-15.249a20.18,20.18,0,0,0-8.33,8.9l6.913,3.37a1.221,1.221,0,0,1,.59,1.573l-4.567,10.812a21.217,21.217,0,0,1,15.508,1.044,1.22,1.22,0,0,1,.58.614c3.176,7.488,6.4,11.342,9.571,11.458,3.81.129,8.267-4.77,13.307-14.59l.027-.05a11.515,11.515,0,0,1,7.811-4.948c6.791-1.247,15.245,2.223,25.136,10.308,7.293,5.959,13.02,8.218,16.557,6.524,4.635-2.216,4.635-10.573,4.635-10.657a1.222,1.222,0,0,1,.3-.812,4.651,4.651,0,0,1,3.971-1.368c3.008.379,6.066,3.393,9.105,8.973a17.554,17.554,0,0,0,5.333-13.462,1.22,1.22,0,1,1,2.438-.1,19.857,19.857,0,0,1-7.43,16.474,1.221,1.221,0,0,1-1.8-.44c-3.749-7.4-6.559-8.825-7.9-9.019a2.316,2.316,0,0,0-1.592.323c-.086,2.2-.759,9.771-6.006,12.286-4.516,2.166-10.962-.135-19.16-6.837-11.547-9.438-18.923-10.544-23.077-9.808a9.143,9.143,0,0,0-6.2,3.765C1259.88,1978.25,1254.869,1983.448,1250.061,1983.449Z" transform="translate(-1218.539 -1940.214)" fill="#541c27"/>
          </g>
          <g id="Grupo_1435" data-name="Grupo 1435" transform="translate(106.94 77.737)">
            <path id="Trazado_13651" data-name="Trazado 13651" d="M2546.331,1895.736a8.424,8.424,0,0,1-2.271-.337,1.22,1.22,0,1,1,.653-2.35c2.912.809,3.759-.5,4.145-1.564,1.059-2.911-.106-8.624-2.9-14.22-3.165-6.333-7.585-11.146-12.13-13.208a1.22,1.22,0,1,1,1.008-2.223c5.045,2.289,9.9,7.515,13.3,14.34,3.173,6.35,4.328,12.537,3.015,16.146A4.838,4.838,0,0,1,2546.331,1895.736Z" transform="translate(-2533.108 -1861.723)" fill="#541c27"/>
          </g>
          <g id="Grupo_1436" data-name="Grupo 1436" transform="translate(62.432 69.357)" opacity="0.3">
            <path id="Trazado_13652" data-name="Trazado 13652" d="M1986.108,1759.6h0c-.035-.295-.073-.595-.114-.89Z" transform="translate(-1985.99 -1758.706)" fill="#760153"/>
          </g>
          <g id="Grupo_1437" data-name="Grupo 1437" transform="translate(61.151 70.248)" opacity="0.2">
            <path id="Trazado_13653" data-name="Trazado 13653" d="M1971.638,1769.656l-1.4.125.014-.125Z" transform="translate(-1970.24 -1769.656)" fill="#fff"/>
          </g>
          <g id="Grupo_1438" data-name="Grupo 1438" transform="translate(11.084 61.669)" opacity="0.3">
            <path id="Trazado_13654" data-name="Trazado 13654" d="M1354.792,1680.048c8.124,7.284,14.4-4.242,15.545-15.842l4.668,39.508C1364.923,1702.953,1355.173,1698.356,1354.792,1680.048Z" transform="translate(-1354.792 -1664.206)" fill="#760153"/>
          </g>
          <g id="Grupo_1439" data-name="Grupo 1439" transform="translate(11.086 77.56)" opacity="0.3">
            <path id="Trazado_13655" data-name="Trazado 13655" d="M1355.619,1866.973a39.95,39.95,0,0,1-.8-7.423Q1355.237,1863.232,1355.619,1866.973Z" transform="translate(-1354.817 -1859.55)" fill="#760153"/>
          </g>
          <g id="Grupo_1440" data-name="Grupo 1440" transform="translate(93.309 93.595)" opacity="0.3">
            <path id="Trazado_13656" data-name="Trazado 13656" d="M2384.909,2082.586c.568-1.532-.828.691-.828.691-7.125-14.055-11.788-8.725-11.788-8.725s.079,9.388-5.51,11.851l-1.243-.373q2.3-4.677,2.292-12.062c0-4.819,4.426-7.2,8.8-5.168,1.46.684,2.812,2.086,5.083,2.69,7.931,2.1,1.216-10.659-2.694-12.042a45.352,45.352,0,0,0,5.827-2.794l6.161,11.185A18.878,18.878,0,0,1,2384.909,2082.586Z" transform="translate(-2365.541 -2056.656)" fill="#541c27"/>
          </g>
          <g id="Grupo_1441" data-name="Grupo 1441" transform="translate(13.972 106.851)" opacity="0.3">
            <path id="Trazado_13657" data-name="Trazado 13657" d="M1486.911,2269.1a7.465,7.465,0,0,1-6.888,7.1l-67.137,5.242a20.8,20.8,0,0,1-4.076-.087l-.57-.175c28.482-2.237,51.493-8.064,59.57-23.705a8.655,8.655,0,0,0-4.611-11.982,39.16,39.16,0,0,1-10.018-6.332c-23.387-19.115-31.116-5.694-31.116-5.694-11.312,22.043-18.91,17.612-25.084,3.053a18.109,18.109,0,0,0-6.264-1.795q-.171-4.973-.426-9.871a18.271,18.271,0,0,1,6.7,1.833c6.175,14.561,13.773,18.991,25.084-3.051a8.733,8.733,0,0,1,2.278-2.364,48.042,48.042,0,0,1,11.541-1.666c4.448,1.069,10.138,3.875,17.3,9.726,11.6,9.481,17.4,8.306,20.293,4.714v0a12.26,12.26,0,0,0,2.152-4.5h0a21.946,21.946,0,0,0,.736-5.3s4.2-4.8,10.718,6.726c.008.235.016.47.02.705q.037,1.194.069,2.392.09,3.584.134,7.155C1487.44,2250.656,1487.305,2259.98,1486.911,2269.1Z" transform="translate(-1390.291 -2219.606)" fill="#541c27"/>
          </g>
        </g>
        <g id="Grupo_1449" data-name="Grupo 1449" transform="translate(421.052 389.489)">
          <path id="Trazado_13658" data-name="Trazado 13658" d="M8.926,3.191A4.569,4.569,0,1,1,3.189.211,4.569,4.569,0,0,1,8.926,3.191Z" transform="translate(1.429 0) rotate(9)" fill="#291b22"/>
          <path id="Trazado_13659" data-name="Trazado 13659" d="M3.174,1.133a1.625,1.625,0,1,1-.8-.952A1.625,1.625,0,0,1,3.174,1.133Z" transform="translate(2.233 1.309) rotate(9)" fill="#f6f6f6"/>
        </g>
        <path id="Trazado_13660" data-name="Trazado 13660" d="M8.922,3.182A4.569,4.569,0,1,1,3.22.2,4.569,4.569,0,0,1,8.922,3.182Z" transform="translate(394.725 390.699) rotate(9)" fill="#291b22"/>
        <path id="Trazado_13661" data-name="Trazado 13661" d="M3.176,1.138A1.625,1.625,0,1,1,1.137.076,1.625,1.625,0,0,1,3.176,1.138Z" transform="translate(395.519 391.986) rotate(9)" fill="#f6f6f6"/>
        <path id="Trazado_13662" data-name="Trazado 13662" d="M8.434,1.246A3.442,3.442,0,1,1,1.869,3.32.957.957,0,1,0,.045,3.9,5.356,5.356,0,1,0,10.258.668a.957.957,0,0,0-1.825.577Z" transform="translate(407.809 401.153) rotate(9)" fill="#291b22"/>
      </g>
      <g id="Grupo_14769" data-name="Grupo 14769" transform="translate(718.916 197.653)">
        <path id="Trazado_14939" data-name="Trazado 14939" d="M193.041,54.474a15.128,15.128,0,0,0-3.551-7.155,13.718,13.718,0,0,0-10.143-4.462,17.83,17.83,0,0,0-10.3,3.672c-.107.069-.214.142-.323.216a15.33,15.33,0,0,0-1.422-1.4c-.088-.079-.182-.154-.279-.229a13.045,13.045,0,0,0-8.014-2.907c-4.039,0-8.042,2.014-12.233,6.153-.07.068-.136.137-.195.2-.322.35-.622.687-.913,1.019a13.087,13.087,0,0,0-1.641-2.264,13.722,13.722,0,0,0-10.144-4.461,17.826,17.826,0,0,0-10.3,3.673,15.363,15.363,0,0,0-1.969,1.546,7.342,7.342,0,0,0-1.8.684,5.737,5.737,0,0,0-.759.49A11.394,11.394,0,0,0,113,45.4l3.6-7.039a8.472,8.472,0,0,0,1.215-4.066v-.2a9.327,9.327,0,0,0-2.651-6.148c-.087-.1-.176-.2-.266-.286-2.5-2.5-5.164-3.766-7.93-3.766a6.878,6.878,0,0,0-5.441,2.524,5.608,5.608,0,0,0-.656,1L98.633,31.8c-2.1-2.425-5.835-5.087-12.068-5.087a23.992,23.992,0,0,0-3.7.332c-5.393.914-11.052,3.524-16.812,7.755A72.191,72.191,0,0,0,52.211,48.4l-.1.122A66.629,66.629,0,0,0,46.663,56.7c-3.234,6.293-4.872,12.282-4.872,17.8a21.125,21.125,0,0,0,3.084,11.251l.142.221c4.6,6.762,10.17,8.181,14.037,8.181h.252c5.855,0,12.754-3.273,21.058-10a10.694,10.694,0,0,0,7.046,2.966,7.093,7.093,0,0,0,5.05-2.066,5.607,5.607,0,0,0,1.04-1.423q1.243-2.425,2.321-4.53c.166.366.352.732.558,1.093a5.582,5.582,0,0,0,.337.521c2.464,3.391,5.391,5.111,8.7,5.111h.115a8.418,8.418,0,0,0,2.037-.231,18.763,18.763,0,0,0,7.035-3.744,12.42,12.42,0,0,0,9.184,4.06h.506c3.386,0,6.887-1.283,10.672-3.9a24.263,24.263,0,0,0,3.484-2.97c3.147,5.583,7.3,6.787,10.265,6.787h.338c2.284,0,4.917-.815,8.3-2.57a25.231,25.231,0,0,0,2.559-1.573,12.444,12.444,0,0,0,9.341,4.228h.5c3.387,0,6.887-1.283,10.671-3.9a28.153,28.153,0,0,0,4.257-3.74c.073-.073.145-.149.21-.224a37.2,37.2,0,0,0,4-5.272c3.072-5.156,4.564-9.755,4.564-14.058v-.449A18.788,18.788,0,0,0,193.041,54.474Z" transform="translate(-41.791 -23.895)" fill="#541c27"/>
        <g id="Grupo_14768" data-name="Grupo 14768" transform="translate(5.643 5.643)">
          <g id="Grupo_14767" data-name="Grupo 14767">
            <g id="Grupo_14766" data-name="Grupo 14766">
              <g id="Grupo_14765" data-name="Grupo 14765">
                <path id="Trazado_14940" data-name="Trazado 14940" d="M142.21,58.119a12.768,12.768,0,0,0-.282-2.56,9.535,9.535,0,0,0-2.138-4.5,8.066,8.066,0,0,0-6.047-2.7,12.482,12.482,0,0,0-7.176,2.729,16.173,16.173,0,0,0-2.673,2.364,4.986,4.986,0,0,0-.59-.057h-.254a1.488,1.488,0,0,0-.7.2,18.531,18.531,0,0,0-2.28,2.785A26.149,26.149,0,0,0,115.7,68.769q-.954.991-2.746,2.741a44.554,44.554,0,0,1-5.767,4.669,22.75,22.75,0,0,1,.789-2.166q.729-1.6,6.583-13.194a9.643,9.643,0,0,0,1.576-4.473,5.956,5.956,0,0,0-1.212-3.207,5.786,5.786,0,0,0-4.752-2.561q-2.984,0-8.355,3.939h-.029l9.707-18.99a3.633,3.633,0,0,0,.534-1.378v-.2a4.177,4.177,0,0,0-1.266-2.447q-2.108-2.11-3.911-2.11h-.027a1.3,1.3,0,0,0-1.07.45L92.331,56.122c-1.58,3.1-2.957,5.81-4.144,8.144q-2.7,2.859-5.478,5.668Q67.1,85.323,58.966,85.323h-.085a11.893,11.893,0,0,1-1.209-.085,5.868,5.868,0,0,1-2.026-1.49q-1.83-1.885-1.828-6.049a28.976,28.976,0,0,1,2.306-10.381A44.839,44.839,0,0,1,58.6,62.4a72.866,72.866,0,0,1,4.389-6.19,70.026,70.026,0,0,1,5.036-5.71q3.2-3.123,4.923-4.473a49.288,49.288,0,0,1,6.47-4.417Q86,38.118,89.828,38.117h.561a6.554,6.554,0,0,1,2.223.393,5.5,5.5,0,0,1-.619,1.689,19.182,19.182,0,0,1-2.843,4.192,36.321,36.321,0,0,1-3.4,3.488,67.926,67.926,0,0,1-6.554,5.063c-.47.226-.7.478-.7.76a2.425,2.425,0,0,0,.226.619A2.638,2.638,0,0,0,80.6,55.531a3.391,3.391,0,0,0,1.182-.62q2.926-2.055,5.457-4.192a42.92,42.92,0,0,0,4-3.91q4.192-4.9,4.192-8.046V38.4a4.907,4.907,0,0,0-.956-2.758q-2.73-3.432-8.047-3.433a18.468,18.468,0,0,0-2.758.254q-6.807,1.153-14.431,6.751A66.283,66.283,0,0,0,56.491,51.761a62.393,62.393,0,0,0-4.952,7.371q-4.247,8.272-4.247,15.22a15.506,15.506,0,0,0,2.25,8.3q3.883,5.711,9.37,5.711h.252q7.99,0,21.689-12.321c.785-.707,1.651-1.52,2.585-2.43-.277.549-.465.918-.559,1.107a5.124,5.124,0,0,0-.844,1.97,4.357,4.357,0,0,0,1.211,2.419q2.193,2.222,4.023,2.222a1.447,1.447,0,0,0,1.068-.422Q96.8,64.394,97.48,62.957a47.8,47.8,0,0,1,4-4.079q4.726-4.191,7.9-5.345a.026.026,0,0,0,.029.029l-.141.619q-.9,1.858-5.29,10.579-3.658,6.836-3.658,9.677a5.662,5.662,0,0,0,.818,2.813q2.025,2.785,4.135,2.785h.113a2.893,2.893,0,0,0,.76-.085q2.447-.506,7.511-4.867c.678-.587,1.464-1.325,2.334-2.18a10.266,10.266,0,0,0,1.518,3.644q2.533,3.572,6.133,3.573h.506q3.29,0,7.541-2.955a23.841,23.841,0,0,0,3.374-3.01,31.744,31.744,0,0,0,3.376-4.418q3.77-6.328,3.77-11.168ZM138.918,56.8q0,3.967-2.9,9.369a25.046,25.046,0,0,1-1.939,2.981,24.224,24.224,0,0,1-3.209,3.658q-4.528,4.078-7.933,4.079a6.078,6.078,0,0,1-.759-3.291v-.507a18.658,18.658,0,0,1,.9-5.233,5.573,5.573,0,0,0,2.955,1.351h.308a1.665,1.665,0,0,0,.479-.085,1.092,1.092,0,0,0,.7-1.125,2.155,2.155,0,0,0-.028-.393,8.691,8.691,0,0,1-.451-2.561q0-4.078,4.222-7.876,3.738-2.926,6.328-2.926a2.432,2.432,0,0,1,1.041.31q.254,0,.281,2Z" transform="translate(-47.291 -29.395)" fill="#fff"/>
                <path id="Trazado_14941" data-name="Trazado 14941" d="M184.993,55.1a9.525,9.525,0,0,0-2.138-4.5,8.066,8.066,0,0,0-6.047-2.7,12.482,12.482,0,0,0-7.176,2.729,16.173,16.173,0,0,0-2.673,2.364,4.994,4.994,0,0,0-.589-.057h-.255a1.488,1.488,0,0,0-.7.2,18.456,18.456,0,0,0-2.279,2.785,26.156,26.156,0,0,0-4.371,12.377c-.309.317-.685.707-1.143,1.183a46.582,46.582,0,0,1-5.541,4.669q-3.4,2.364-5.542,2.561a8.253,8.253,0,0,1-.4-2.392v-.675q0-5.794,5.148-13.278a26.666,26.666,0,0,1,3.039-3.63,15.368,15.368,0,0,1,3.263-2.616,10.988,10.988,0,0,1,2.335-.985c-.205.394-.545.948-1.013,1.66a45.263,45.263,0,0,1-3.432,3.939v.168a2.249,2.249,0,0,0,.478.957q1.013.985,1.549.985h.167l.169-.029a23.628,23.628,0,0,0,1.661-1.744q3.683-4.246,3.684-6.5,0-1.716-2.138-3.573a7.519,7.519,0,0,0-4.586-1.744q-3.686,0-8.272,4.53a35.412,35.412,0,0,0-3.009,3.658,44.151,44.151,0,0,0-3.263,5.486,23.2,23.2,0,0,0-2.306,9.537,11.734,11.734,0,0,0,1.012,4.866q2.251,4.249,5.542,4.248h.338q1.968,0,5.656-1.913a26.344,26.344,0,0,0,4.219-2.926A25.862,25.862,0,0,0,159.05,72.4a10.266,10.266,0,0,0,1.525,3.68q2.533,3.572,6.133,3.573h.506q3.292,0,7.541-2.955a23.843,23.843,0,0,0,3.374-3.01,31.669,31.669,0,0,0,3.376-4.418q3.77-6.328,3.77-11.168v-.45A12.767,12.767,0,0,0,184.993,55.1Zm-3.009,1.237q0,3.967-2.9,9.369a25.2,25.2,0,0,1-1.94,2.981,24.221,24.221,0,0,1-3.209,3.658Q169.409,76.419,166,76.42a6.078,6.078,0,0,1-.759-3.291v-.507a18.627,18.627,0,0,1,.9-5.233A5.567,5.567,0,0,0,169.1,68.74h.309a1.664,1.664,0,0,0,.478-.085,1.092,1.092,0,0,0,.7-1.125,2.063,2.063,0,0,0-.028-.393,8.686,8.686,0,0,1-.45-2.561q0-4.078,4.221-7.876,3.738-2.926,6.328-2.926a2.429,2.429,0,0,1,1.041.31q.254,0,.282,2Z" transform="translate(-44.894 -28.932)" fill="#fff"/>
              </g>
            </g>
          </g>
        </g>
      </g>
    </g>
    <g id="Grupo_15282" data-name="Grupo 15282" transform="translate(8.018 593.499)">
      <g id="Grupo_1446" data-name="Grupo 1446" transform="translate(593.417 159.49)">
        <g id="Recurso_1" data-name="Recurso 1" transform="translate(0 0)">
          <g id="Capa_2" data-name="Capa 2" transform="translate(0 0)">
            <g id="Capa_1" data-name="Capa 1">
              <path id="Trazado_13568" data-name="Trazado 13568" d="M10.027,100.163l.394.71a66.592,66.592,0,0,0,23.639,24.02A69.418,69.418,0,0,0,132.8,93.721a63.521,63.521,0,0,0,2.853-7.639,66.066,66.066,0,0,0,2.814-23.534c-.079-1.315-.21-2.708-.381-4.076h0a7.888,7.888,0,0,0,1.8-4.851A25.98,25.98,0,0,0,137.425,42.2a29.385,29.385,0,0,0-2.1-4.115l-.131-.224c-2.248-3.576-5.259-5.351-5.745-4.773h0c-.118-.237-.263-.473-.408-.71a66.091,66.091,0,0,0-5.548-7.823A66.973,66.973,0,0,0,106.226,9.735,69.432,69.432,0,0,0,7.5,40.947a66.513,66.513,0,0,0-5.509,33.04C.468,73.816-.189,76.248.008,80.429h0a36.812,36.812,0,0,0,.486,4.063,2.134,2.134,0,0,0,.092.736C1.323,89.553,4.465,99.256,10.027,100.163Z" transform="translate(0.026 0.007)" fill="#ea4c95"/>
              <path id="Trazado_13569" data-name="Trazado 13569" d="M1.518,81.113,1.4,80.719,1.321,80.5h0a24.008,24.008,0,0,1-.789-3.944c-1.1-6.574-.526-10.807,1.486-10.518,16.553,2.551,40.31.2,65.5-7.441,27.61-8.388,50.289-21.141,61.924-33.526.565-.592,3.629,1.315,5.89,5a35.576,35.576,0,0,1,2.984,6.363h0c.118.342.237.684.342,1.012v.158l.276.933h0c1.315,4.641,1.433,9.322-.907,11.833-11.32,12.845-34.367,25.927-62.555,34.486-25.112,7.626-48.83,9.992-65.382,7.481C6.251,91.749,3.517,86.977,2,82.638V82.52c-.066-.171-.118-.342-.184-.526s-.079-.25-.131-.381A3.683,3.683,0,0,1,1.518,81.113Z" transform="translate(0.028 7.855)" fill="#e8318a"/>
              <path id="Trazado_13570" data-name="Trazado 13570" d="M139.147,39.1h0a34.974,34.974,0,0,0-2.984-6.363c-2.261-3.708-5.259-5.588-5.877-4.983C118.65,40.151,95.932,52.89,68.322,61.279,43.145,68.93,19.374,71.284,2.835,68.733c-2.012-.316-2.629,3.944-1.5,10.518a24.283,24.283,0,0,0,.8,3.878h0v-.105a2.047,2.047,0,0,0-.171-.526c-.053-.171-.092-.263-.131-.394s-.105-.329-.145-.486a2.786,2.786,0,0,1-.118-.408l-.079-.224h0a24.284,24.284,0,0,1-.8-3.944c-1.1-6.574-.513-10.82,1.486-10.518,16.553,2.551,40.31.2,65.5-7.441,27.6-8.362,50.289-21.089,61.924-33.487.552-.6,3.616,1.315,5.877,4.983a33.972,33.972,0,0,1,2.984,6.377h0c.118.342.237.671.342,1.012v.158l.276.933Z" transform="translate(0.079 8.021)" fill="#ee77ab"/>
              <path id="Trazado_13571" data-name="Trazado 13571" d="M1.079,77.942,1,77.719H1c1.538,4.339,4.247,9.072,8.073,9.663,16.553,2.511,40.257.145,65.369-7.481,28.2-8.559,51.275-21.654,62.648-34.289,2.34-2.629,2.2-7.244.907-11.833h0c.118.342.237.684.342,1.012v.158l.276.933h0c1.315,4.641,1.433,9.322-.907,11.833-11.32,12.714-34.367,25.8-62.555,34.354C50.04,89.7,26.322,92.063,9.769,89.552,5.93,88.973,3.2,84.2,1.684,79.862v-.118c-.066-.171-.118-.342-.184-.526s-.079-.25-.131-.381a3.817,3.817,0,0,1-.145-.5Z" transform="translate(0.349 10.631)" fill="#dd0a80"/>
              <path id="Trazado_13572" data-name="Trazado 13572" d="M54.13,117.44c10.216-3.681,8.533-15.159,24.152-52.077C91.89,33.046,99.647,26.6,95.571,17.545,89.286,3.662,62.019-.69,42.416,6.883,14.806,17.532-4.8,54.845,6.918,84.663,15.293,105.7,39.181,122.8,54.13,117.44Z" transform="translate(1.123 1.005)" opacity="0.2" fill="url(#linear-gradient)"/>
              <path id="Trazado_13573" data-name="Trazado 13573" d="M41.458,10.047c15.435-6.9,35.63-6.377,37.155-.158.894,3.616-20.471,10.518-34.893,45.793C28.836,92.114,43.272,115.9,39.775,118c-4.023,2.406-27.36-13.489-33.579-34.7C-2.534,53.631,17.043,20.986,41.458,10.047Z" transform="translate(1.319 1.588)" opacity="0.15" fill="url(#linear-gradient-2)"/>
              <path id="Trazado_13574" data-name="Trazado 13574" d="M63.048,8c-.578-1.906-15.08-2.012-28.07,4.878C16.493,22.683,2.57,45.823,4.555,69.3c1.617,18.945,13.226,34,15.185,33.237s-6.574-15.369-4.588-35.5C17.7,41.537,35.2,25.365,37.187,23.577,50.072,11.981,63.627,9.891,63.048,8Z" transform="translate(1.408 2.165)" opacity="0.1" fill="url(#linear-gradient-3)"/>
              <path id="Trazado_13575" data-name="Trazado 13575" d="M30.165,14.778c3.445-2.038,11.162-3.944,8.967-1.683A114.107,114.107,0,0,0,18.976,36.063c-3.353,5.009-8.4,2.984-7.31-.381S20.238,20.642,30.165,14.778Z" transform="translate(3.658 3.799)" fill="#fff"/>
              <path id="Trazado_13576" data-name="Trazado 13576" d="M9.914,35.937c.8-1.683,6.784-2.3,6.232-1.157A66.434,66.434,0,0,0,9.1,65.374C9.033,77.167,1.867,52.752,9.914,35.937Z" transform="translate(1.953 10.762)" fill="#fff"/>
              <path id="Trazado_13577" data-name="Trazado 13577" d="M104.056,82.869C117.243,41.047,83.138,11.912,71,1A68.366,68.366,0,0,1,93.078,9.428a66.526,66.526,0,0,1,22.784,22.627l.421.71h0c.565-.6,3.616,1.315,5.89,5,3.708,6.1,6.574,16.119,2.761,20.392h0A66.434,66.434,0,0,1,119.675,93.4a69.024,69.024,0,0,1-42.427,37.76,70.194,70.194,0,0,1-35.5,1.709C58.276,128.767,90.869,124.678,104.056,82.869Z" transform="translate(13.175 0.314)" fill="#e2afc6" opacity="0.3"/>
              <path id="Trazado_13578" data-name="Trazado 13578" d="M51.392,102.492H51.05l1.236-.342Z" transform="translate(16.102 32.151)" fill="#cdcccc" opacity="0.54"/>
              <path id="Trazado_13579" data-name="Trazado 13579" d="M113.953,95.569a66.3,66.3,0,0,0,5.259-35.248l.066-.066c3.865-4.273.96-14.291-2.761-20.392-2.261-3.721-5.259-5.6-5.89-5h0c-.145-.237-.276-.473-.408-.71A66.552,66.552,0,0,0,87.395,11.583,68.814,68.814,0,0,0,44.679,2.248c-1.118-.105-2.235-.184-3.379-.224A68.958,68.958,0,0,1,93.219,9.742,66.526,66.526,0,0,1,116,32.369l.421.71h0c.565-.6,3.616,1.315,5.89,5,3.708,6.1,6.574,16.119,2.761,20.392h0a66.434,66.434,0,0,1-5.259,35.248,69.024,69.024,0,0,1-42.427,37.76c-.986.316-1.985.6-2.984.868a68.919,68.919,0,0,0,39.547-36.773Z" transform="translate(13.033 -0.001)" fill="#e2afc6" opacity="0.8"/>
              <path id="Trazado_13580" data-name="Trazado 13580" d="M93.842,38.729a8.427,8.427,0,1,1-10.584-5.5A8.427,8.427,0,0,1,93.842,38.729Z" transform="translate(24.388 10.337)" fill="#6a2349"/>
              <path id="Trazado_13581" data-name="Trazado 13581" d="M84.632,36.57a3,3,0,1,1-1.483-1.756A3,3,0,0,1,84.632,36.57Z" transform="translate(24.829 10.852)" fill="#f6f6f6"/>
              <path id="Trazado_13582" data-name="Trazado 13582" d="M31.62,58.405A8.427,8.427,0,1,1,21.1,52.91,8.428,8.428,0,0,1,31.62,58.405Z" transform="translate(4.806 16.535)" fill="#6a2349"/>
              <path id="Trazado_13583" data-name="Trazado 13583" d="M22.4,56.242a3,3,0,1,1-3.76-1.959A3,3,0,0,1,22.4,56.242Z" transform="translate(5.241 17.041)" fill="#f6f6f6"/>
              <path id="Trazado_13584" data-name="Trazado 13584" d="M60.724,51.8a6.35,6.35,0,1,1-12.11,3.826,1.765,1.765,0,1,0-3.365,1.065,9.88,9.88,0,1,0,18.84-5.956A1.765,1.765,0,1,0,60.724,51.8Z" transform="translate(14.25 15.58)" fill="#6a2349"/>
            </g>
          </g>
        </g>
      </g>
      <g id="Grupo_14737" data-name="Grupo 14737" transform="translate(626.71 226.836)">
        <g id="Grupo_14729" data-name="Grupo 14729" transform="translate(0 0)">
          <g id="Grupo_14723" data-name="Grupo 14723" transform="translate(0 20.294)">
            <path id="Trazado_14919" data-name="Trazado 14919" d="M84.923,92.294a5.34,5.34,0,0,0-2.037-.771,75.058,75.058,0,0,0-7.809.331l-1.246.11a91.93,91.93,0,0,0-20.35,4.5l-.524.223q.32-1.9,1.216-6.7Q58.131,68.3,58.413,66.6q2.627-12.633,1.268-17.182l-.072-.241a7.7,7.7,0,0,0-2.867-4A11.831,11.831,0,0,0,46.432,43.63l-.152.046a33.958,33.958,0,0,0-12.134,7.169,45.225,45.225,0,0,0-5.1,5.232,38.619,38.619,0,0,0-4.372,6.13,40.514,40.514,0,0,0-2.492,5.5q-2.744,8.4-.943,14.426A10.466,10.466,0,0,0,23.5,86.318q4.284,3.906,9.046,2.483l.6-.18a13.389,13.389,0,0,0,4.255-2.453,17.272,17.272,0,0,0,2.723-2.749,20.051,20.051,0,0,0,2.522-3.87q4.173-8.764,2.321-14.97a11,11,0,0,0-4.251-5.885q-3.159-1.78-5.207-1.168a3,3,0,0,0-.293.119,1.279,1.279,0,0,0-.7,1.619,3.378,3.378,0,0,0,.962,1.354,4.146,4.146,0,0,1,1.4,2.175q1.287,4.309-1.263,11.044a28.2,28.2,0,0,1-2.635,5.02Q29.8,83.221,27.209,84l-.36.108a3.509,3.509,0,0,1-1.02.108c-.113-.011-.273-.368-.483-1.072l-.082-.271a14.967,14.967,0,0,1-.553-3.28A27.319,27.319,0,0,1,27.05,67.307a39.3,39.3,0,0,1,2.4-4.591q1.5-2.223,2.645-3.677a49.862,49.862,0,0,1,5.525-5.785q6.287-5.424,11.26-6.909l.483-.143a6.28,6.28,0,0,1,1.391-.284q.212-.064.758,1.545.911,3.042-.208,10.073Q50.81,60.6,48.88,71.06q-4.75,25.868-5.363,29.3l-.877.36q-5.078,2.337-9.167,4.576a1.153,1.153,0,0,0-.826,1.2l.011.032a3.7,3.7,0,0,0,1.1,1.935q2.256,1.95,3.945,1.775l.4-.087q3.385-1.864,6.647-3.462a11.774,11.774,0,0,0,3.857,1.047,5.239,5.239,0,0,0,1.467-.143l.121-.037c.624-.184.971-.737,1.047-1.657l.44-2.266a92.762,92.762,0,0,1,26.362-6.79l.888-.1q3.192-.3,7.282-.338a3.51,3.51,0,0,0,.553-.132,1.033,1.033,0,0,0,.548-1.018Q87.192,93.848,84.923,92.294Z" transform="translate(-13.823 -36.389)" fill="#db1a40"/>
            <path id="Trazado_14920" data-name="Trazado 14920" d="M40.5,120.049a12.331,12.331,0,0,1-8.034-3.425l-.587-.574a10.565,10.565,0,0,1-2.633-4.715l-.1-.288-.087-.841a7.826,7.826,0,0,1,4.448-7.8c2.173-1.185,4.563-2.4,7.131-3.623q.148-.822.329-1.811a15.5,15.5,0,0,1-2.8,1.161l-.594.178c-5.425,1.619-10.924.214-15.5-3.952l-.4-.4A17.134,17.134,0,0,1,17.9,87.148c-1.593-5.343-1.257-11.54.994-18.434A44.98,44.98,0,0,1,21.811,62.2l.217-.388a45.212,45.212,0,0,1,5.1-7.12,50.688,50.688,0,0,1,5.82-5.924,40.374,40.374,0,0,1,14.5-8.435,18.651,18.651,0,0,1,16.051,2.318l.358.253a14.294,14.294,0,0,1,5.265,7.441c1.346,4.517,1,10.827-1.057,20.709-.124.791-1.3,7.272-3.482,19.253a91.257,91.257,0,0,1,11.685-1.937l1.313-.115a82.336,82.336,0,0,1,8.441-.357,11.042,11.042,0,0,1,5.17,1.575l.609.371c3.243,2.223,5.02,4.886,5.282,7.915a7.746,7.746,0,0,1-3.681,7.289l-.761.475-.858.258a9.382,9.382,0,0,1-1.829.383l-.585.032c-2.544.026-4.808.13-6.725.31l-.758.085a84.267,84.267,0,0,0-21.279,5.048,8.052,8.052,0,0,1-5.421,5.432,12.681,12.681,0,0,1-3.562.455l-.789-.054a23.906,23.906,0,0,1-2.494-.449q-1.942,1-3.913,2.086l-.86.472L41.489,120A9.806,9.806,0,0,1,40.5,120.049ZM54.259,55.7l-.026,0Z" transform="translate(-16.916 -39.477)" fill="#e84a94"/>
          </g>
          <g id="Grupo_14724" data-name="Grupo 14724" transform="translate(44.253 30.87)">
            <path id="Trazado_14921" data-name="Trazado 14921" d="M70.736,57.423a14.386,14.386,0,0,0-.979-2.706,10.645,10.645,0,0,0-3.51-4.327,9.023,9.023,0,0,0-7.282-1.343q-3.669.889-7.074,4.855a18.171,18.171,0,0,0-2.282,3.27,5.7,5.7,0,0,0-.654.095l-.277.067a1.642,1.642,0,0,0-.711.4,20.725,20.725,0,0,0-1.744,3.625q-2.953,8.775-1.242,15.832a12.845,12.845,0,0,0,3.774,6.754q3.691,3.217,7.6,2.268l.55-.134q3.577-.866,7.414-5.194A26.841,26.841,0,0,0,67.2,76.726a35.849,35.849,0,0,0,2.5-5.687q2.429-7.87,1.155-13.128ZM66.13,67.795a27.876,27.876,0,0,1-1.324,3.75,26.873,26.873,0,0,1-2.52,4.817q-3.844,5.624-7.545,6.52a6.771,6.771,0,0,1-1.69-3.374l-.134-.552a20.879,20.879,0,0,1-.4-5.921,6.241,6.241,0,0,0,3.564.689l.338-.082a1.979,1.979,0,0,0,.5-.219,1.222,1.222,0,0,0,.468-1.406,2.425,2.425,0,0,0-.134-.422,9.646,9.646,0,0,1-1.164-2.661Q55.013,64.5,58.6,59.265,61.889,55.1,64.7,54.42a2.757,2.757,0,0,1,1.211.063q.273-.067.832,2.095l.067.275Q67.857,61.165,66.13,67.795Z" transform="translate(-37.651 -42.076)" fill="#db1a40"/>
            <path id="Trazado_14922" data-name="Trazado 14922" d="M57.651,96.236A15.31,15.31,0,0,1,47.442,92.1a19.519,19.519,0,0,1-5.885-10.231c-1.437-5.935-.966-12.513,1.4-19.554a27.441,27.441,0,0,1,2.34-4.923l.522-.875.758-.68A8.545,8.545,0,0,1,48.347,54.6a17.561,17.561,0,0,1,1.683-2.13,20.377,20.377,0,0,1,10.45-6.849,15.726,15.726,0,0,1,12.508,2.23,17.292,17.292,0,0,1,5.883,6.994,21.438,21.438,0,0,1,1.475,4.075l.126.511c1.148,4.739.734,10.2-1.268,16.679a41.749,41.749,0,0,1-2.984,6.847l-.18.323a31.4,31.4,0,0,1-3.774,5.336c-3.356,3.783-6.9,6.16-10.682,7.076l-.548.132A14.353,14.353,0,0,1,57.651,96.236Z" transform="translate(-40.745 -45.171)" fill="#e84a94"/>
          </g>
          <g id="Grupo_14725" data-name="Grupo 14725" transform="translate(113.554 2.937)">
            <path id="Trazado_14923" data-name="Trazado 14923" d="M84.007,48.605a6.364,6.364,0,0,0,4.169,1.317,1.581,1.581,0,0,0,1.172-.682q2.68-7.808,3.079-9.2a4.39,4.39,0,0,0,.488-1.855L92.885,38a4.454,4.454,0,0,0-1.547-2.281q-2.816-2.251-4.962-1.931a1.633,1.633,0,0,0-1.085.607q-.148.306-3.064,9.1a5.589,5.589,0,0,0-.553,2.054l.019.124Q81.893,47.012,84.007,48.605Z" transform="translate(-74.971 -27.032)" fill="#db1a40"/>
            <path id="Trazado_14924" data-name="Trazado 14924" d="M90.78,59.765a13.6,13.6,0,0,1-7.3-2.412l-.42-.29c-2.9-2.182-4.505-4.569-4.914-7.295A10.358,10.358,0,0,1,79,44.325c2.99-9.014,3.085-9.215,3.311-9.7l.332-.7.481-.607a8.362,8.362,0,0,1,5.349-3.072c3.339-.505,6.754.62,10.14,3.324l.407.349a10.63,10.63,0,0,1,3.592,6.2,9.8,9.8,0,0,1-.758,5.233c-.284.94-.984,3.081-3.074,9.163l-.262.769-.44.682a8.243,8.243,0,0,1-5.831,3.69A9.93,9.93,0,0,1,90.78,59.765Z" transform="translate(-78.061 -30.131)" fill="#e84a94"/>
          </g>
          <g id="Grupo_14726" data-name="Grupo 14726" transform="translate(72.476)">
            <path id="Trazado_14925" data-name="Trazado 14925" d="M136.493,59.293a8.593,8.593,0,0,0-2.984-6.1,6.544,6.544,0,0,0-4.457-1.374l-.284.026q-2.878.276-8.065,5.161a6.389,6.389,0,0,0-1.684-2.082q-2.513-1.844-4.173-1.686l-.345.033a1.455,1.455,0,0,0-.96.535q-.488,1.181-5.928,15c-.188.457-1.094,2.739-2.695,6.788-1.614,2.225-2.815,3.792-3.553,4.617a49,49,0,0,1-4.171,4.437l-.065-.022q.3-1.41.672-2.737,1.106-3.471,6.959-20.941a14.3,14.3,0,0,0,.977-3.261,4.9,4.9,0,0,0-2.086-2.9q-2.621-1.805-4.457-1.53a1.555,1.555,0,0,0-1.138.678Q97.4,55.753,91.671,72.98c-.578,1.6-1.057,3.049-1.45,4.381-.919,1.41-1.762,2.667-2.47,3.649a52.728,52.728,0,0,1-5.116,6.041l-.059.011.1-.628q.565-2.894,2.665-9.958,1.045-3.566,9.605-33.326a4.432,4.432,0,0,0,.358-1.8l-.03-.154a4.615,4.615,0,0,0-1.722-2.294q-2.919-2.034-4.929-1.647l-.028.006a1.55,1.55,0,0,0-1.112.726q-.334,1.089-1.855,6.506-8.624,29.773-8.819,30.579c-.62,1.946-1.107,3.679-1.489,5.241-.9,1.367-1.735,2.593-2.424,3.549A55.507,55.507,0,0,1,67.813,89.9l-.063.011.106-.628q.529-2.889,2.665-9.96,1.011-3.557,11.834-41.215a4.564,4.564,0,0,0,.329-1.79l-.03-.156a4.688,4.688,0,0,0-1.692-2.3Q78.039,31.831,76,32.223l-.032.006a1.517,1.517,0,0,0-1.077.719q-.337,1.092-4.086,14.4-8.655,29.779-8.853,30.585-2.942,9.34-2.284,12.77a5.481,5.481,0,0,0,.574,1.651q2.123,3.371,5.146,2.789,3.555-.685,8.691-7.115c.11-.126.253-.312.381-.468.013.093.015.2.033.292a5.347,5.347,0,0,0,.574,1.651q2.117,3.371,5.178,2.784,3.549-.682,8.688-7.115c.019-.02.045-.058.065-.08,0,.037,0,.08.007.115a6.312,6.312,0,0,0,.438,1.43q2,3.613,5.141,3.144c1.744-.26,3.841-1.573,6.27-3.9q-3.006,7.622-7.337,18.614a6.606,6.606,0,0,0-.732,2.282l.011.093q.125,1.346,2.151,3.018a6.236,6.236,0,0,0,4.1,1.566l.032,0a1.651,1.651,0,0,0,1.12-.518q.234-.5,2.853-7.159,7.5-19.071,7.713-19.47a7.8,7.8,0,0,0,3.361,3.124,10.1,10.1,0,0,0,5.194.8l.189-.017q6.571-.63,11.7-9.143a43.16,43.16,0,0,0,3.77-8.507q1.956-6.6,1.575-10.639Zm-8.2,3.753a42.289,42.289,0,0,1-1.965,6.221,35.271,35.271,0,0,1-3.566,6.658q-4.245,5.839-8.1,6.207a8.559,8.559,0,0,1-.917-.009,8.777,8.777,0,0,0-1.788-.206l-.282.026q3.633-9.287,6.8-17.169-.008-.409.943-1.385,1.426-1.591,3.01-3.194,4.282-4.137,6.257-4.957a5.357,5.357,0,0,1,.275,1.237A23.792,23.792,0,0,1,128.29,63.046Z" transform="translate(-52.848 -25.454)" fill="#db1a40"/>
            <path id="Trazado_14926" data-name="Trazado 14926" d="M101.841,121.27a13.111,13.111,0,0,1-7.789-2.9l-.279-.219c-2.812-2.32-4.3-4.793-4.561-7.566a11.072,11.072,0,0,1,1.252-5.688l2.39-6.075a11.059,11.059,0,0,1-1.127-.539,15.844,15.844,0,0,1-7.12,3.677,10.713,10.713,0,0,1-7.371-1.133,16.211,16.211,0,0,1-7.482,3.989c-4.775.912-9.189-1.2-12.09-5.8l-.176-.292a12.155,12.155,0,0,1-1.309-3.662c-.672-3.512.078-8.422,2.431-15.919.262-.958,1.519-5.358,8.853-30.578,3.322-11.791,3.943-13.945,4.119-14.51l.228-.741.392-.669a8.185,8.185,0,0,1,5.584-3.909c3.244-.622,6.623.292,10.1,2.713l.583.457A15.134,15.134,0,0,1,90.3,33.8l.132-.026c3.2-.615,6.567.3,10.043,2.723l.527.409a10.764,10.764,0,0,1,3.954,6.136,10.045,10.045,0,0,1-.511,5.194q-.212.735-.42,1.454a14.682,14.682,0,0,1,6.515,2.672l.344.253c.115.091.228.182.342.275l.383-.431a8.178,8.178,0,0,1,5.337-2.763l.357-.033a11.412,11.412,0,0,1,6.674,1.6,15.319,15.319,0,0,1,7.241-2.992l.3-.028a13.256,13.256,0,0,1,8.962,2.585l.384.3a15.287,15.287,0,0,1,5.391,10.63l.059.624c.344,3.59-.251,7.9-1.822,13.187a49.907,49.907,0,0,1-4.368,9.917c-4.641,7.715-10.3,11.873-16.892,12.5a17.815,17.815,0,0,1-6.21-.44c-1.1,2.789-2.6,6.595-4.645,11.782-2.7,6.871-2.884,7.263-3.035,7.579l-.416.877-.644.722a8.387,8.387,0,0,1-5.48,2.723C102.487,121.253,102.166,121.27,101.841,121.27Z" transform="translate(-55.942 -28.549)" fill="#e84a94"/>
          </g>
          <g id="Grupo_14727" data-name="Grupo 14727" transform="translate(150.623 16.955)">
            <path id="Trazado_14927" data-name="Trazado 14927" d="M123.366,70.117a35.5,35.5,0,0,0,3.737-4.966q4.159-7.106,4.121-12.515l0-.5a14.438,14.438,0,0,0-.338-2.858,10.665,10.665,0,0,0-2.425-5.014,9.024,9.024,0,0,0-6.782-2.97,13.972,13.972,0,0,0-8,3.111,18.13,18.13,0,0,0-2.966,2.665,5.77,5.77,0,0,0-.661-.058l-.282,0a1.674,1.674,0,0,0-.787.227,20.467,20.467,0,0,0-2.524,3.133q-4.878,7.864-4.821,15.128a12.833,12.833,0,0,0,2.13,7.438q2.858,3.975,6.884,3.943l.566,0q3.68-.028,8.4-3.365A26.6,26.6,0,0,0,123.366,70.117Zm-13.529,3.152a6.775,6.775,0,0,1-.878-3.672l0-.566a20.838,20.838,0,0,1,.96-5.857,6.223,6.223,0,0,0,3.313,1.484l.345,0a1.935,1.935,0,0,0,.535-.1,1.222,1.222,0,0,0,.776-1.263,2.375,2.375,0,0,0-.033-.44A9.662,9.662,0,0,1,114.328,60q-.033-4.56,4.652-8.84,4.156-3.3,7.05-3.324a2.75,2.75,0,0,1,1.166.338q.281,0,.332,2.23v.282q.036,4.435-3.161,10.5a28.1,28.1,0,0,1-2.143,3.35,27.047,27.047,0,0,1-3.553,4.114Q113.638,73.239,109.837,73.269Z" transform="translate(-94.925 -34.583)" fill="#db1a40"/>
            <path id="Trazado_14928" data-name="Trazado 14928" d="M113.682,86.683c-3.412,0-8.275-1.181-12.266-6.734a19.5,19.5,0,0,1-3.393-11.306c-.048-6.1,1.915-12.4,5.828-18.714a27.511,27.511,0,0,1,3.4-4.255l.719-.743.906-.494a8.661,8.661,0,0,1,1.983-.784,17.479,17.479,0,0,1,2.115-1.686,20.4,20.4,0,0,1,11.744-4.288,16.226,16.226,0,0,1,11.67,5.027,17.248,17.248,0,0,1,4.127,8.155,21.577,21.577,0,0,1,.513,4.309l0,.527c.033,4.868-1.612,10.086-5.036,15.94a41.962,41.962,0,0,1-4.476,5.991l-.243.264a31.332,31.332,0,0,1-4.888,4.333c-4.132,2.925-8.132,4.427-12.023,4.455l-.568,0Z" transform="translate(-98.022 -37.679)" fill="#e84a94"/>
          </g>
          <g id="Grupo_14728" data-name="Grupo 14728" transform="translate(161.694 20.004)">
            <path id="Trazado_14929" data-name="Trazado 14929" d="M158.57,46.808a6.53,6.53,0,0,0-4.075-2.269l-.282-.033q-2.875-.329-8.962,3.376a6.4,6.4,0,0,0-1.213-2.386q-2.081-2.326-3.735-2.516l-.344-.039a1.457,1.457,0,0,0-1.049.323Q138.188,44.319,130,56.71q-1.025,1.5-21.19,31.982a6.58,6.58,0,0,0-1.187,2.082l-.011.093q-.153,1.343,1.478,3.4a6.235,6.235,0,0,0,3.685,2.385l.032,0a1.648,1.648,0,0,0,1.2-.275q.334-.435,4.277-6.411,11.288-17.1,11.585-17.444a7.763,7.763,0,0,0,2.643,3.75,10.075,10.075,0,0,0,4.912,1.861l.189.022q6.56.747,13.342-6.515a43.27,43.27,0,0,0,5.451-7.544q3.287-6.051,3.748-10.08l.071-.624A8.584,8.584,0,0,0,158.57,46.808Zm-7.148,8.552a42.126,42.126,0,0,1-3.213,5.677,35.054,35.054,0,0,1-4.869,5.774q-5.362,4.833-9.206,4.392a8.9,8.9,0,0,1-.9-.2,8.745,8.745,0,0,0-1.7-.576l-.28-.032q5.474-8.332,10.209-15.386c.05-.269.455-.656,1.209-1.159q1.724-1.259,3.608-2.5,5.048-3.156,7.148-3.551a5.5,5.5,0,0,1,.015,1.268A23.911,23.911,0,0,1,151.421,55.36Z" transform="translate(-100.886 -36.226)" fill="#db1a40"/>
            <path id="Trazado_14930" data-name="Trazado 14930" d="M116.149,106.469a9.28,9.28,0,0,1-1.012-.058,12.6,12.6,0,0,1-7.971-4.6l-.234-.277c-2.258-2.845-3.205-5.57-2.89-8.329a11,11,0,0,1,2.411-5.323c17.983-27.192,20.666-31.22,21.108-31.866,5.436-8.225,8.428-12.738,8.912-13.446l.631-.923.9-.667a8.208,8.208,0,0,1,5.818-1.608l.34.039a11.338,11.338,0,0,1,6.207,2.951,15.373,15.373,0,0,1,7.7-1.424l.292.033a13.244,13.244,0,0,1,8.242,4.392l.314.368a15.28,15.28,0,0,1,3.066,11.523l-.067.613c-.412,3.588-1.887,7.685-4.518,12.528a50.28,50.28,0,0,1-6.329,8.793c-6.145,6.584-12.545,9.481-19.119,8.728a17.751,17.751,0,0,1-5.989-1.72c-1.645,2.485-3.9,5.895-6.983,10.561-4.071,6.171-4.323,6.5-4.546,6.8l-.583.758-.771.566A8.286,8.286,0,0,1,116.149,106.469Z" transform="translate(-103.983 -39.321)" fill="#e84a94"/>
          </g>
        </g>
        <g id="Grupo_14736" data-name="Grupo 14736" transform="translate(6.701 6.706)">
          <g id="Grupo_14730" data-name="Grupo 14730" transform="translate(0 20.279)">
            <path id="Trazado_14931" data-name="Trazado 14931" d="M84.923,92.294a5.34,5.34,0,0,0-2.037-.771,75.058,75.058,0,0,0-7.809.331l-1.246.11a91.93,91.93,0,0,0-20.35,4.5l-.524.223q.32-1.9,1.216-6.7Q58.131,68.3,58.413,66.6q2.627-12.633,1.268-17.182l-.072-.241a7.7,7.7,0,0,0-2.867-4A11.831,11.831,0,0,0,46.432,43.63l-.152.046a33.958,33.958,0,0,0-12.134,7.169,45.225,45.225,0,0,0-5.1,5.232,38.619,38.619,0,0,0-4.372,6.13,40.514,40.514,0,0,0-2.492,5.5q-2.744,8.4-.943,14.426A10.466,10.466,0,0,0,23.5,86.318q4.284,3.906,9.046,2.483l.6-.18a13.389,13.389,0,0,0,4.255-2.453,17.272,17.272,0,0,0,2.723-2.749,20.051,20.051,0,0,0,2.522-3.87q4.173-8.764,2.321-14.97a11,11,0,0,0-4.251-5.885q-3.159-1.78-5.207-1.168a3,3,0,0,0-.293.119,1.279,1.279,0,0,0-.7,1.619,3.378,3.378,0,0,0,.962,1.354,4.146,4.146,0,0,1,1.4,2.175q1.287,4.309-1.263,11.044a28.2,28.2,0,0,1-2.635,5.02Q29.8,83.221,27.209,84l-.36.108a3.509,3.509,0,0,1-1.02.108c-.113-.011-.273-.368-.483-1.072l-.082-.271a14.967,14.967,0,0,1-.553-3.28A27.319,27.319,0,0,1,27.05,67.307a39.3,39.3,0,0,1,2.4-4.591q1.5-2.223,2.645-3.677a49.862,49.862,0,0,1,5.525-5.785q6.287-5.424,11.26-6.909l.483-.143a6.28,6.28,0,0,1,1.391-.284q.212-.064.758,1.545.911,3.042-.208,10.073Q50.81,60.6,48.88,71.06q-4.75,25.868-5.363,29.3l-.877.36q-5.078,2.337-9.167,4.576a1.153,1.153,0,0,0-.826,1.2l.011.032a3.7,3.7,0,0,0,1.1,1.935q2.256,1.95,3.945,1.775l.4-.087q3.385-1.864,6.647-3.462a11.774,11.774,0,0,0,3.857,1.047,5.239,5.239,0,0,0,1.467-.143l.121-.037c.624-.184.971-.737,1.047-1.657l.44-2.266a92.762,92.762,0,0,1,26.362-6.79l.888-.1q3.192-.3,7.282-.338a3.51,3.51,0,0,0,.553-.132,1.033,1.033,0,0,0,.548-1.018Q87.192,93.848,84.923,92.294Z" transform="translate(-20.524 -43.079)" fill="#fff"/>
          </g>
          <g id="Grupo_14731" data-name="Grupo 14731" transform="translate(44.255 30.871)">
            <path id="Trazado_14932" data-name="Trazado 14932" d="M70.736,57.423a14.386,14.386,0,0,0-.979-2.706,10.645,10.645,0,0,0-3.51-4.327,9.023,9.023,0,0,0-7.282-1.343q-3.669.889-7.074,4.855a18.171,18.171,0,0,0-2.282,3.27,5.7,5.7,0,0,0-.654.095l-.277.067a1.642,1.642,0,0,0-.711.4,20.725,20.725,0,0,0-1.744,3.625q-2.953,8.775-1.242,15.832a12.845,12.845,0,0,0,3.774,6.754q3.691,3.217,7.6,2.268l.55-.134q3.577-.866,7.414-5.194A26.841,26.841,0,0,0,67.2,76.726a35.849,35.849,0,0,0,2.5-5.687q2.429-7.87,1.155-13.128ZM66.13,67.795a27.876,27.876,0,0,1-1.324,3.75,26.873,26.873,0,0,1-2.52,4.817q-3.844,5.624-7.545,6.52a6.771,6.771,0,0,1-1.69-3.374l-.134-.552a20.879,20.879,0,0,1-.4-5.921,6.241,6.241,0,0,0,3.564.689l.338-.082a1.979,1.979,0,0,0,.5-.219,1.222,1.222,0,0,0,.468-1.406,2.425,2.425,0,0,0-.134-.422,9.646,9.646,0,0,1-1.164-2.661Q55.013,64.5,58.6,59.265,61.889,55.1,64.7,54.42a2.757,2.757,0,0,1,1.211.063q.273-.067.832,2.095l.067.275Q67.857,61.165,66.13,67.795Z" transform="translate(-44.354 -48.783)" fill="#fff"/>
          </g>
          <g id="Grupo_14732" data-name="Grupo 14732" transform="translate(113.55 2.945)">
            <path id="Trazado_14933" data-name="Trazado 14933" d="M84.007,48.605a6.364,6.364,0,0,0,4.169,1.317,1.581,1.581,0,0,0,1.172-.682q2.68-7.808,3.079-9.2a4.39,4.39,0,0,0,.488-1.855L92.885,38a4.454,4.454,0,0,0-1.547-2.281q-2.816-2.251-4.962-1.931a1.633,1.633,0,0,0-1.085.607q-.148.306-3.064,9.1a5.589,5.589,0,0,0-.553,2.054l.019.124Q81.893,47.012,84.007,48.605Z" transform="translate(-81.667 -33.746)" fill="#fff"/>
          </g>
          <g id="Grupo_14733" data-name="Grupo 14733" transform="translate(72.478)">
            <path id="Trazado_14934" data-name="Trazado 14934" d="M136.493,59.293a8.593,8.593,0,0,0-2.984-6.1,6.544,6.544,0,0,0-4.457-1.374l-.284.026q-2.878.276-8.065,5.161a6.389,6.389,0,0,0-1.684-2.082q-2.513-1.844-4.173-1.686l-.345.033a1.455,1.455,0,0,0-.96.535q-.488,1.181-5.928,15c-.188.457-1.094,2.739-2.695,6.788-1.614,2.225-2.815,3.792-3.553,4.617a49,49,0,0,1-4.171,4.437l-.065-.022q.3-1.41.672-2.737,1.106-3.471,6.959-20.941a14.3,14.3,0,0,0,.977-3.261,4.9,4.9,0,0,0-2.086-2.9q-2.621-1.805-4.457-1.53a1.555,1.555,0,0,0-1.138.678Q97.4,55.753,91.671,72.98c-.578,1.6-1.057,3.049-1.45,4.381-.919,1.41-1.762,2.667-2.47,3.649a52.728,52.728,0,0,1-5.116,6.041l-.059.011.1-.628q.565-2.894,2.665-9.958,1.045-3.566,9.605-33.326a4.432,4.432,0,0,0,.358-1.8l-.03-.154a4.615,4.615,0,0,0-1.722-2.294q-2.919-2.034-4.929-1.647l-.028.006a1.55,1.55,0,0,0-1.112.726q-.334,1.089-1.855,6.506-8.624,29.773-8.819,30.579c-.62,1.946-1.107,3.679-1.489,5.241-.9,1.367-1.735,2.593-2.424,3.549A55.507,55.507,0,0,1,67.813,89.9l-.063.011.106-.628q.529-2.889,2.665-9.96,1.011-3.557,11.834-41.215a4.564,4.564,0,0,0,.329-1.79l-.03-.156a4.688,4.688,0,0,0-1.692-2.3Q78.039,31.831,76,32.223l-.032.006a1.517,1.517,0,0,0-1.077.719q-.337,1.092-4.086,14.4-8.655,29.779-8.853,30.585-2.942,9.34-2.284,12.77a5.481,5.481,0,0,0,.574,1.651q2.123,3.371,5.146,2.789,3.555-.685,8.691-7.115c.11-.126.253-.312.381-.468.013.093.015.2.033.292a5.347,5.347,0,0,0,.574,1.651q2.117,3.371,5.178,2.784,3.549-.682,8.688-7.115c.019-.02.045-.058.065-.08,0,.037,0,.08.007.115a6.312,6.312,0,0,0,.438,1.43q2,3.613,5.141,3.144c1.744-.26,3.841-1.573,6.27-3.9q-3.006,7.622-7.337,18.614a6.606,6.606,0,0,0-.732,2.282l.011.093q.125,1.346,2.151,3.018a6.236,6.236,0,0,0,4.1,1.566l.032,0a1.651,1.651,0,0,0,1.12-.518q.234-.5,2.853-7.159,7.5-19.071,7.713-19.47a7.8,7.8,0,0,0,3.361,3.124,10.1,10.1,0,0,0,5.194.8l.189-.017q6.571-.63,11.7-9.143a43.16,43.16,0,0,0,3.77-8.507q1.956-6.6,1.575-10.639Zm-8.2,3.753a42.289,42.289,0,0,1-1.965,6.221,35.271,35.271,0,0,1-3.566,6.658q-4.245,5.839-8.1,6.207a8.559,8.559,0,0,1-.917-.009,8.777,8.777,0,0,0-1.788-.206l-.282.026q3.633-9.287,6.8-17.169-.008-.409.943-1.385,1.426-1.591,3.01-3.194,4.282-4.137,6.257-4.957a5.357,5.357,0,0,1,.275,1.237A23.792,23.792,0,0,1,128.29,63.046Z" transform="translate(-59.551 -32.16)" fill="#fff"/>
          </g>
          <g id="Grupo_14734" data-name="Grupo 14734" transform="translate(150.63 16.958)">
            <path id="Trazado_14935" data-name="Trazado 14935" d="M123.366,70.117a35.5,35.5,0,0,0,3.737-4.966q4.159-7.106,4.121-12.515l0-.5a14.438,14.438,0,0,0-.338-2.858,10.665,10.665,0,0,0-2.425-5.014,9.024,9.024,0,0,0-6.782-2.97,13.972,13.972,0,0,0-8,3.111,18.13,18.13,0,0,0-2.966,2.665,5.77,5.77,0,0,0-.661-.058l-.282,0a1.674,1.674,0,0,0-.787.227,20.467,20.467,0,0,0-2.524,3.133q-4.878,7.864-4.821,15.128a12.833,12.833,0,0,0,2.13,7.438q2.858,3.975,6.884,3.943l.566,0q3.68-.028,8.4-3.365A26.6,26.6,0,0,0,123.366,70.117Zm-13.529,3.152a6.775,6.775,0,0,1-.878-3.672l0-.566a20.838,20.838,0,0,1,.96-5.857,6.223,6.223,0,0,0,3.313,1.484l.345,0a1.935,1.935,0,0,0,.535-.1,1.222,1.222,0,0,0,.776-1.263,2.375,2.375,0,0,0-.033-.44A9.662,9.662,0,0,1,114.328,60q-.033-4.56,4.652-8.84,4.156-3.3,7.05-3.324a2.75,2.75,0,0,1,1.166.338q.281,0,.332,2.23v.282q.036,4.435-3.161,10.5a28.1,28.1,0,0,1-2.143,3.35,27.047,27.047,0,0,1-3.553,4.114Q113.638,73.239,109.837,73.269Z" transform="translate(-101.634 -41.291)" fill="#fff"/>
          </g>
          <g id="Grupo_14735" data-name="Grupo 14735" transform="translate(161.704 20.004)">
            <path id="Trazado_14936" data-name="Trazado 14936" d="M158.57,46.808a6.53,6.53,0,0,0-4.075-2.269l-.282-.033q-2.875-.329-8.962,3.376a6.4,6.4,0,0,0-1.213-2.386q-2.081-2.326-3.735-2.516l-.344-.039a1.457,1.457,0,0,0-1.049.323Q138.188,44.319,130,56.71q-1.025,1.5-21.19,31.982a6.58,6.58,0,0,0-1.187,2.082l-.011.093q-.153,1.343,1.478,3.4a6.235,6.235,0,0,0,3.685,2.385l.032,0a1.648,1.648,0,0,0,1.2-.275q.334-.435,4.277-6.411,11.288-17.1,11.585-17.444a7.763,7.763,0,0,0,2.643,3.75,10.075,10.075,0,0,0,4.912,1.861l.189.022q6.56.747,13.342-6.515a43.27,43.27,0,0,0,5.451-7.544q3.287-6.051,3.748-10.08l.071-.624A8.584,8.584,0,0,0,158.57,46.808Zm-7.148,8.552a42.126,42.126,0,0,1-3.213,5.677,35.054,35.054,0,0,1-4.869,5.774q-5.362,4.833-9.206,4.392a8.9,8.9,0,0,1-.9-.2,8.745,8.745,0,0,0-1.7-.576l-.28-.032q5.474-8.332,10.209-15.386c.05-.269.455-.656,1.209-1.159q1.724-1.259,3.608-2.5,5.048-3.156,7.148-3.551a5.5,5.5,0,0,1,.015,1.268A23.911,23.911,0,0,1,151.421,55.36Z" transform="translate(-107.597 -42.932)" fill="#fff"/>
          </g>
        </g>
      </g>
    </g>
  </g>
</svg>
