<svg xmlns="http://www.w3.org/2000/svg" xmlns:xlink="http://www.w3.org/1999/xlink" width="39.365" height="37.896" viewBox="0 0 39.365 37.896">
  <defs>
    <linearGradient id="linear-gradient" x1="-1.43" y1="-0.037" x2="-0.782" y2="0.441" gradientUnits="objectBoundingBox">
      <stop offset="0" stop-color="#fff"/>
      <stop offset="0.49" stop-color="#fefafc"/>
      <stop offset="1" stop-color="#ea4c95"/>
    </linearGradient>
    <linearGradient id="linear-gradient-2" x1="-1.739" y1="-0.079" x2="-1.333" y2="0.217" xlink:href="#linear-gradient"/>
    <linearGradient id="linear-gradient-3" x1="-2.112" y1="-0.191" x2="-1.671" y2="0.233" xlink:href="#linear-gradient"/>
  </defs>
  <g id="Grupo_15315" data-name="Grupo 15315" transform="translate(0)">
    <g id="Recurso_1" data-name="Recurso 1" transform="translate(0 0)">
      <g id="Capa_2" data-name="Capa 2" transform="translate(0 0)">
        <g id="Capa_1" data-name="Capa 1">
          <path id="Trazado_13568" data-name="Trazado 13568" d="M2.8,28.2l.111.2a18.736,18.736,0,0,0,6.651,6.758,19.531,19.531,0,0,0,27.78-8.771,17.871,17.871,0,0,0,.8-2.149,18.588,18.588,0,0,0,.792-6.621c-.022-.37-.059-.762-.107-1.147h0a2.219,2.219,0,0,0,.507-1.365,7.309,7.309,0,0,0-.692-3.214,8.268,8.268,0,0,0-.592-1.158l-.037-.063c-.633-1.006-1.48-1.506-1.616-1.343h0c-.033-.067-.074-.133-.115-.2a18.6,18.6,0,0,0-1.561-2.2,18.843,18.843,0,0,0-4.857-4.169A19.535,19.535,0,0,0,2.092,11.537a18.714,18.714,0,0,0-1.55,9.3c-.429-.048-.614.636-.559,1.813h0a10.357,10.357,0,0,0,.137,1.143A.6.6,0,0,0,.146,24C.354,25.213,1.238,27.943,2.8,28.2Z" transform="translate(0.026 -0.015)" fill="#ea4c95"/>
          <path id="Trazado_13569" data-name="Trazado 13569" d="M.413,40.758l-.033-.111-.022-.063h0a6.755,6.755,0,0,1-.222-1.11c-.311-1.85-.148-3.041.418-2.959,4.657.718,11.341.055,18.429-2.094,7.768-2.36,14.149-5.948,17.423-9.433.159-.166,1.021.37,1.657,1.406a10.009,10.009,0,0,1,.84,1.79h0c.033.1.067.192.1.285v.044l.078.263h0c.37,1.306.4,2.623-.255,3.329-3.185,3.614-9.669,7.295-17.6,9.7-7.065,2.145-13.738,2.811-18.4,2.1-1.08-.163-1.85-1.506-2.275-2.726v-.033c-.018-.048-.033-.1-.052-.148s-.022-.07-.037-.107A1.036,1.036,0,0,1,.413,40.758Z" transform="translate(0.022 -15.727)" fill="#e8318a"/>
          <path id="Trazado_13570" data-name="Trazado 13570" d="M39.251,29.316h0a9.84,9.84,0,0,0-.84-1.79c-.636-1.043-1.48-1.572-1.653-1.4-3.274,3.488-9.666,7.073-17.434,9.433C12.241,37.709,5.553,38.372.9,37.654c-.566-.089-.74,1.11-.422,2.959A6.832,6.832,0,0,0,.7,41.7h0v-.03a.576.576,0,0,0-.048-.148c-.015-.048-.026-.074-.037-.111s-.03-.092-.041-.137a.784.784,0,0,1-.033-.115L.522,41.1h0A6.832,6.832,0,0,1,.3,39.992c-.311-1.85-.144-3.044.418-2.959,4.657.718,11.341.055,18.429-2.094,7.764-2.353,14.149-5.933,17.423-9.422.155-.17,1.017.37,1.653,1.4a9.558,9.558,0,0,1,.84,1.794h0c.033.1.067.189.1.285v.044l.078.263Z" transform="translate(-0.08 -16.059)" fill="#ee77ab"/>
          <path id="Trazado_13571" data-name="Trazado 13571" d="M1.022,46.205,1,46.142H1c.433,1.221,1.195,2.552,2.271,2.719,4.657.707,11.327.041,18.392-2.1,7.934-2.408,14.426-6.092,17.626-9.647.658-.74.618-2.038.255-3.329h0c.033.1.067.192.1.285v.044l.078.263h0c.37,1.306.4,2.623-.255,3.329-3.185,3.577-9.669,7.258-17.6,9.666-7.065,2.145-13.738,2.811-18.4,2.1-1.08-.163-1.85-1.506-2.275-2.726v-.033c-.018-.048-.033-.1-.052-.148s-.022-.07-.037-.107a1.074,1.074,0,0,1-.041-.141Z" transform="translate(-0.62 -21.285)" fill="#dd0a80"/>
          <path id="Trazado_13572" data-name="Trazado 13572" d="M17.716,35.338c2.874-1.036,2.4-4.265,6.8-14.652,3.829-9.092,6.011-10.9,4.864-13.454-1.768-3.906-9.44-5.131-14.955-3-7.768,3-13.283,13.494-9.987,21.884C6.789,32.035,13.511,36.848,17.716,35.338Z" transform="translate(-2.171 -2.014)" opacity="0.2" fill="url(#linear-gradient)"/>
          <path id="Trazado_13573" data-name="Trazado 13573" d="M14.6,6.454C18.94,4.512,24.622,4.66,25.051,6.409c.252,1.017-5.759,2.959-9.817,12.884-4.187,10.25-.126,16.942-1.11,17.534-1.132.677-7.7-3.8-9.447-9.762C2.22,18.716,7.728,9.531,14.6,6.454Z" transform="translate(-2.562 -3.18)" opacity="0.15" fill="url(#linear-gradient-2)"/>
          <path id="Trazado_13574" data-name="Trazado 13574" d="M20.877,7.195c-.163-.536-4.243-.566-7.9,1.372A17.01,17.01,0,0,0,4.42,24.443c.455,5.33,3.721,9.566,4.272,9.351S6.842,29.47,7.4,23.807a20.092,20.092,0,0,1,6.2-12.229C17.226,8.315,21.039,7.727,20.877,7.195Z" transform="translate(-2.742 -4.335)" opacity="0.1" fill="url(#linear-gradient-3)"/>
          <path id="Trazado_13575" data-name="Trazado 13575" d="M16.762,12.833c.969-.573,3.141-1.11,2.523-.473a32.1,32.1,0,0,0-5.671,6.462c-.943,1.409-2.364.84-2.057-.107A14.38,14.38,0,0,1,16.762,12.833Z" transform="translate(-7.246 -7.607)" fill="#fff"/>
          <path id="Trazado_13576" data-name="Trazado 13576" d="M7.171,34.686c.226-.473,1.909-.647,1.753-.326a18.691,18.691,0,0,0-1.983,8.608C6.923,46.286,4.907,39.417,7.171,34.686Z" transform="translate(-3.832 -21.547)" fill="#fff"/>
          <path id="Trazado_13577" data-name="Trazado 13577" d="M59.28,24.034C62.99,12.267,53.395,4.07,49.98,1a19.235,19.235,0,0,1,6.211,2.371A18.717,18.717,0,0,1,62.6,9.737l.118.2h0c.159-.17,1.017.37,1.657,1.406,1.043,1.716,1.85,4.535.777,5.737h0A18.691,18.691,0,0,1,63.674,27,19.42,19.42,0,0,1,51.737,37.621a19.749,19.749,0,0,1-9.987.481C46.4,36.948,55.57,35.8,59.28,24.034Z" transform="translate(-26.297 -0.63)" fill="#e2afc6" opacity="0.3"/>
          <path id="Trazado_13578" data-name="Trazado 13578" d="M51.146,102.246h-.1l.348-.1Z" transform="translate(-32.157 -64.364)" fill="#cdcccc" opacity="0.54"/>
          <path id="Trazado_13579" data-name="Trazado 13579" d="M61.741,26.889a18.654,18.654,0,0,0,1.48-9.917l.018-.018c1.088-1.2.27-4.021-.777-5.737-.636-1.047-1.48-1.576-1.657-1.406h0c-.041-.067-.078-.133-.115-.2a18.725,18.725,0,0,0-6.422-6.351A19.361,19.361,0,0,0,42.251.633C41.936.6,41.622.581,41.3.57A19.4,19.4,0,0,1,55.908,2.741a18.717,18.717,0,0,1,6.41,6.366l.118.2h0c.159-.17,1.017.37,1.657,1.406,1.043,1.716,1.85,4.535.777,5.737h0a18.691,18.691,0,0,1-1.48,9.917A19.42,19.42,0,0,1,51.454,36.991c-.277.089-.559.17-.84.244A19.391,19.391,0,0,0,61.741,26.889Z" transform="translate(-26.013 -0.001)" fill="#e2afc6" opacity="0.8"/>
          <path id="Trazado_13580" data-name="Trazado 13580" d="M82.009,34.5a2.371,2.371,0,1,1-2.978-1.546A2.371,2.371,0,0,1,82.009,34.5Z" transform="translate(-48.744 -20.695)" fill="#6a2349"/>
          <path id="Trazado_13581" data-name="Trazado 13581" d="M80.424,35.069a.843.843,0,1,1-.417-.494A.843.843,0,0,1,80.424,35.069Z" transform="translate(-49.627 -21.726)" fill="#f6f6f6"/>
          <path id="Trazado_13582" data-name="Trazado 13582" d="M19.792,54.187a2.371,2.371,0,1,1-2.959-1.546A2.371,2.371,0,0,1,19.792,54.187Z" transform="translate(-9.544 -33.102)" fill="#6a2349"/>
          <path id="Trazado_13583" data-name="Trazado 13583" d="M18.193,54.734a.843.843,0,1,1-1.058-.551A.843.843,0,0,1,18.193,54.734Z" transform="translate(-10.415 -34.116)" fill="#f6f6f6"/>
          <path id="Trazado_13584" data-name="Trazado 13584" d="M49.544,50.149a1.787,1.787,0,1,1-3.407,1.076.5.5,0,0,0-.947.3,2.78,2.78,0,1,0,5.3-1.676.5.5,0,0,0-.947.3Z" transform="translate(-28.45 -31.191)" fill="#6a2349"/>
        </g>
      </g>
    </g>
  </g>
</svg>
