<svg xmlns="http://www.w3.org/2000/svg" width="101.413" height="161.006" viewBox="0 0 101.413 161.006">
  <g id="Grupo_14491" data-name="Grupo 14491" transform="translate(-0.001)">
    <g id="Grupo_14484" data-name="Grupo 14484" transform="translate(0.001 62.531)">
      <path id="Trazado_13756" data-name="Trazado 13756" d="M83.408,460.22C65.252,491.5,48.666,523.645,29.645,554.444c-1.87,3.027-6.55.431-4.835-2.721,17.311-31.8,36.993-62.152,55.154-93.442,1.276-2.2,4.725-.265,3.443,1.939Z" transform="translate(-24.439 -457.313)" fill="#fff7c7"/>
    </g>
    <path id="Trazado_13757" data-name="Trazado 13757" d="M81.3,439.769c1.588-1.727,3.512-3.565,5.861-3.482,5.337,1.418,14.278,5.81,15.489,11.2.636,2.843-.4,5.772-1.5,8.463-3.7,8.962-8.456,17.437-13.208,25.887-6.494,11.555-13.012,23.146-20.894,33.8-3.387,4.579-7.2,9.123-12.375,11.507s-12.025,2-15.747-2.307c-2.37-2.748-3.1-6.619-2.724-10.229a35.953,35.953,0,0,1,3.2-10.357A231.238,231.238,0,0,1,81.3,439.769Z" transform="translate(-1.428 -436.284)" fill="#ff893d"/>
    <g id="Grupo_14485" data-name="Grupo 14485" transform="translate(34.712 12.793)">
      <path id="Trazado_13758" data-name="Trazado 13758" d="M65.787,451.15a58.546,58.546,0,0,0-20.258,1.169q4.326-5.986,9.024-11.683a57.345,57.345,0,0,1,15.813,1.683,26.679,26.679,0,0,1,11.763,6.087q-1.592,3.76-3.4,7.422C75.29,452.868,70.125,451.747,65.787,451.15Z" transform="translate(-17.531 -440.587)" fill="#ffec69"/>
      <path id="Trazado_13759" data-name="Trazado 13759" d="M48.206,447.248c11.466-1.425,24.022-.3,33.442,5.411q-1.668,3.064-3.378,6.108c-11.278-4.077-24.787-3.087-36.552-1.252Q44.822,452.3,48.206,447.248Z" transform="translate(-25.052 -428.543)" fill="#ffec69"/>
      <path id="Trazado_13760" data-name="Trazado 13760" d="M36.113,472.051c.015-.271.027-.541.054-.812a35.95,35.95,0,0,1,3.2-10.357c.137-.315.279-.628.419-.943a62.711,62.711,0,0,1,7.422-1.356,50.8,50.8,0,0,1,26.336,4.2q-2.337,3.6-4.823,7.1a45.331,45.331,0,0,0-20.169-1.63A43.214,43.214,0,0,0,36.113,472.051Z" transform="translate(-36.113 -405.708)" fill="#ffec69"/>
      <path id="Trazado_13761" data-name="Trazado 13761" d="M38.653,464.185l-.1.021q2.788-5.767,5.905-11.365a76.785,76.785,0,0,1,13.187-.639c7.211.265,15.114,1.374,22.113,4.219q-1.958,3.461-3.961,6.9a73.352,73.352,0,0,0-18.533-1.359A127.591,127.591,0,0,0,38.653,464.185Z" transform="translate(-31.294 -417.768)" fill="#ffec69"/>
    </g>
    <g id="Grupo_14490" data-name="Grupo 14490" transform="translate(59.111 6.134)">
      <g id="Grupo_14486" data-name="Grupo 14486" transform="translate(7.426 40.326)">
        <path id="Trazado_13762" data-name="Trazado 13762" d="M62.6,453.756c-3.113,7-6.649,14.237-12.007,19.812-1.65,1.719-4.826-.526-3.425-2.59,4.258-6.283,9.262-11.959,13.256-18.447a1.25,1.25,0,0,1,2.177,1.225Z" transform="translate(-46.816 -451.909)" fill="#fff"/>
      </g>
      <g id="Grupo_14487" data-name="Grupo 14487" transform="translate(0 63.272)">
        <path id="Trazado_13763" data-name="Trazado 13763" d="M50.614,462.1a22.153,22.153,0,0,1-1.65,1.888c-.238.259-.464.529-.726.767a2.964,2.964,0,0,1-1.918.74c-1.623.193-2.736-2.3-1.424-3.339a3.689,3.689,0,0,1,1.231-.8,7.624,7.624,0,0,0,.824-.19,2.8,2.8,0,0,0,.761-.7,1.715,1.715,0,0,1,2.266-.634,1.672,1.672,0,0,1,.636,2.266Z" transform="translate(-44.319 -459.626)" fill="#fff"/>
      </g>
      <g id="Grupo_14488" data-name="Grupo 14488" transform="translate(11.469 4.793)">
        <path id="Trazado_13764" data-name="Trazado 13764" d="M54.254,440.515c.285.74-.324,1.585-.648,2.239a14.413,14.413,0,0,0-1.282,2.5A2.11,2.11,0,1,1,49.2,442.92c.7-.485,4.288-4.383,5.052-2.406Z" transform="translate(-48.176 -439.959)" fill="#fff"/>
      </g>
      <g id="Grupo_14489" data-name="Grupo 14489" transform="translate(17.821)">
        <path id="Trazado_13765" data-name="Trazado 13765" d="M51.344,442.254c-2.334-1.311-.3-4.939,2.04-3.625s.3,4.942-2.04,3.625Z" transform="translate(-50.312 -438.347)" fill="#fff"/>
      </g>
    </g>
  </g>
</svg>
