<svg id="Grupo_15287" data-name="Grupo 15287" xmlns="http://www.w3.org/2000/svg" width="86.46" height="83.435" viewBox="0 0 86.46 83.435">
  <g id="Grupo_15283" data-name="Grupo 15283">
    <path id="Trazado_15534" data-name="Trazado 15534" d="M435.107,571.753c4.621-3.565,66.479,9.476,69.738,15.762s-11.628,64.765-17.874,66.65c-9.36,2.824-65.323-11.368-67.767-17.357S427.365,577.725,435.107,571.753Z" transform="translate(-418.846 -571.147)" fill="#de923e"/>
    <path id="Trazado_15535" data-name="Trazado 15535" d="M537.422,680.193l-9.3-1.433-61.613,34.8-3.84,9.88c17.266,6.368,50.262,13.755,57.255,11.645C524.694,733.646,534.506,699.191,537.422,680.193Z" transform="translate(-451.798 -652.067)" fill="#d16514" opacity="0.2" style="mix-blend-mode: multiply;isolation: isolate"/>
    <path id="Trazado_15536" data-name="Trazado 15536" d="M444.431,581.113c4.226-3.261,63.132,9.292,66.114,15.042s-12.164,59.793-17.878,61.517c-8.56,2.583-60.795-10.054-63.029-15.531S437.351,586.574,444.431,581.113Z" transform="translate(-426.72 -578.241)" fill="#f5ad4f"/>
    <path id="Trazado_15537" data-name="Trazado 15537" d="M510.545,596.156c-2.982-5.75-61.888-18.3-66.114-15.042-7.079,5.461-17.027,55.552-14.793,61.028s54.47,18.114,63.029,15.531C498.381,655.949,513.527,601.9,510.545,596.156Zm-71.976,36.663c-5.286-3.08.877-41.446,11.233-45.95,9.905-4.309,46.533,5.69,47.944,11.317,1.54,6.143-4.53,34.287-14.232,39.4C468.8,645.346,444.635,636.352,438.569,632.819Z" transform="translate(-426.72 -578.241)" fill="#f5ad4f" opacity="0.2" style="mix-blend-mode: multiply;isolation: isolate"/>
    <path id="Trazado_15538" data-name="Trazado 15538" d="M506.206,640.063l-3.1,1.764c-.649,9.617-14.182,44.537-21.319,50.178-4.8,3.8-25.334,4.139-55.982-5.28l-5.388,2.112c3.332,6.076,58.4,20,67.682,17.2C494.162,704.206,508.376,649,506.206,640.063Z" transform="translate(-420.024 -622.969)" fill="#d16514" opacity="0.2" style="mix-blend-mode: multiply;isolation: isolate"/>
    <path id="Trazado_15539" data-name="Trazado 15539" d="M469.328,615.449c-3.061-1.079,4.006-20.147,6.586-19.89S472.786,616.669,469.328,615.449Z" transform="translate(-456.239 -589.502)" fill="#ffd49a"/>
    <path id="Trazado_15540" data-name="Trazado 15540" d="M449.321,688.019c-1.982-.306-8.4,27.851-4.654,28.481S451.98,688.428,449.321,688.019Z" transform="translate(-437.396 -659.028)" fill="#ffd49a"/>
  </g>
  <g id="Grupo_15286" data-name="Grupo 15286" transform="translate(23.959 22.089)">
    <g id="Grupo_15284" data-name="Grupo 15284" transform="translate(5.682 32.994)">
      <path id="Trazado_15541" data-name="Trazado 15541" d="M540.964,802.37a7.054,7.054,0,0,1-1.183-.105.873.873,0,0,1-.668-.4c-.6-.914-.75-3.914-.762-4.969a7.845,7.845,0,0,1,.2-2.5,2.477,2.477,0,0,1,2.4-1.183,4.533,4.533,0,0,1,4.781,4.054,4.862,4.862,0,0,1-.223,1.875A4.663,4.663,0,0,1,540.964,802.37Zm1.055-5.4a1.118,1.118,0,0,0-1.008,1.043c.012.3.4.387.645.387.41,0,.691-.515.727-.879a.665.665,0,0,0-.023-.3A.417.417,0,0,0,542.019,796.968Zm.153-3.281c-.281,0-.7.105-.762.422a.744.744,0,0,0,.293.609,2.966,2.966,0,0,0,1.992.727c.6,0,.972-.223.516-.715A3.2,3.2,0,0,0,542.171,793.687Z" transform="translate(-538.346 -793.218)" fill="#723219"/>
      <path id="Trazado_15542" data-name="Trazado 15542" d="M570.157,802.015a13.814,13.814,0,0,1,.164-3.117,1.134,1.134,0,0,1,2.18.024,10.633,10.633,0,0,1,.164,2.121,10.381,10.381,0,0,1-.152,2.074c-.117.551-.457,1.207-1.1,1.207a1.014,1.014,0,0,1-.188-.024C570.192,804.1,570.2,802.835,570.157,802.015Zm.949-4.054a.859.859,0,0,1-.938-.692,1.363,1.363,0,0,1,1.36-1.453.757.757,0,0,1,.234.024.724.724,0,0,1,.515.867A1.292,1.292,0,0,1,571.106,797.961Zm.914,1.945c.211,0,.375-.141.4-.492a1.04,1.04,0,0,0-.656-1.055.6.6,0,0,0-.234-.047c-.281,0-.492.211-.387.727C571.223,799.414,571.6,799.906,572.02,799.906Z" transform="translate(-562.253 -795.172)" fill="#723219"/>
      <path id="Trazado_15543" data-name="Trazado 15543" d="M585.882,810.2a2.937,2.937,0,0,1-2.1.914,1.925,1.925,0,0,1-1.863-1.207,3.2,3.2,0,0,1-.129-1.934,3.981,3.981,0,0,1,3.586-3.129,2.327,2.327,0,0,1,1.078.258,2.84,2.84,0,0,1,1.207,3.105,3.251,3.251,0,0,1,.832,1.57.507.507,0,0,1,0,.188,1.487,1.487,0,0,1-1.371,1.031A1.363,1.363,0,0,1,585.882,810.2Zm-1.383-1.641h.059c.551-.035.984-1.266.234-1.359a.7.7,0,0,0-.258.035,1.052,1.052,0,0,0-.609.656C583.738,808.4,584.16,808.555,584.5,808.555Zm2.367-1.664a.8.8,0,0,0,.258.047c.633,0,.07-1.219-.668-1.652a1.264,1.264,0,0,0-.574-.176c-.34,0-.422.3-.352.563A1.987,1.987,0,0,0,586.867,806.891Z" transform="translate(-570.947 -801.957)" fill="#723219"/>
      <path id="Trazado_15544" data-name="Trazado 15544" d="M614.65,807.932a2.023,2.023,0,0,1-1.019,2.894,4.789,4.789,0,0,1-1.3.176c-.9,0-1.781-.27-1.828-1.336a1.394,1.394,0,0,1,.07-.551.781.781,0,0,1,.75-.527,1.321,1.321,0,0,1,.293.035h.012a3.281,3.281,0,0,1,.445.2,3.086,3.086,0,0,0,.668.258h.024c.07,0,.117-.024.117-.105.024-.188-.281-.3-.68-.457-.785-.281-1.5-.574-1.629-1.523a2.034,2.034,0,0,1,.059-.832A2.412,2.412,0,0,1,613.2,804.7c.832,0,1.676.234,1.816,1.184a1.3,1.3,0,0,1-.035.562.741.741,0,0,1-.738.574.4.4,0,0,1-.117-.012,5.03,5.03,0,0,1-.586-.141,4.309,4.309,0,0,0-.914-.246h-.047c-.152.023-.188.2-.059.258C612.893,807.065,614.123,807.229,614.65,807.932Zm-3.633-1.512a1.627,1.627,0,0,0,.609-.2,1.83,1.83,0,0,0,.715-.621c.141-.2.176-.574-.2-.574a1.016,1.016,0,0,0-.516.152C611.053,805.53,610.514,806.421,611.018,806.421Z" transform="translate(-592.602 -801.85)" fill="#723219"/>
    </g>
    <g id="Grupo_15285" data-name="Grupo 15285">
      <path id="Trazado_15545" data-name="Trazado 15545" d="M524.111,685.668c-1.43,0-4.291-.8-4.85-2.3-.488-1.361,1.675-5.792,2.408-7.187-1.779-.663-7.606-3.349-5.931-9.874,1.116-4.222,6.14-6.106,10.153-6.106a12.516,12.516,0,0,1,4.466.767c3.21,1.221,5.338,3.908,4.152,7.92a60.88,60.88,0,0,1-6.35,14.479A4.529,4.529,0,0,1,524.111,685.668Zm-.314-15.6a2.776,2.776,0,0,0,2.407-1.919.976.976,0,0,0-.419-.907,2.427,2.427,0,0,0-1.081-.279,3.2,3.2,0,0,0-2.407,1.326.836.836,0,0,0-.07.488A1.936,1.936,0,0,0,523.8,670.073Zm3.489-5.512a6.449,6.449,0,0,0,5.129,3.245c1.151,0,1.884-.628,1.43-2.093-.628-1.989-3-4.152-5.2-4.152a2.8,2.8,0,0,0-1.5.349C526.274,662.536,526.937,663.862,527.286,664.56Z" transform="translate(-515.438 -660.199)" fill="#723219"/>
      <path id="Trazado_15546" data-name="Trazado 15546" d="M606.676,685.668c-1.43,0-4.291-.8-4.85-2.3-.488-1.361,1.675-5.792,2.407-7.187-1.779-.663-7.606-3.349-5.931-9.874,1.116-4.222,6.141-6.106,10.153-6.106a12.514,12.514,0,0,1,4.466.767c3.21,1.221,5.338,3.908,4.152,7.92a60.881,60.881,0,0,1-6.35,14.479A4.529,4.529,0,0,1,606.676,685.668Zm-.314-15.6a2.776,2.776,0,0,0,2.408-1.919.977.977,0,0,0-.419-.907,2.428,2.428,0,0,0-1.082-.279,3.2,3.2,0,0,0-2.407,1.326.836.836,0,0,0-.07.488A1.937,1.937,0,0,0,606.362,670.073Zm3.489-5.512a6.449,6.449,0,0,0,5.129,3.245c1.151,0,1.884-.628,1.43-2.093-.628-1.989-3-4.152-5.2-4.152a2.8,2.8,0,0,0-1.5.349C608.839,662.536,609.5,663.862,609.851,664.56Z" transform="translate(-577.524 -660.199)" fill="#723219"/>
    </g>
  </g>
</svg>
