<svg xmlns="http://www.w3.org/2000/svg" width="18.9" height="15.36" viewBox="0 0 18.9 15.36">
  <g id="gorjeo_1_" data-name="gorjeo (1)" transform="translate(0)">
    <g id="Grupo_1" data-name="Grupo 1" transform="translate(0 0)">
      <path id="Trazado_1" data-name="Trazado 1" d="M44,35.846a7.736,7.736,0,0,1-2.227.61,3.888,3.888,0,0,0,1.705-2.145,7.762,7.762,0,0,1-2.462.941,3.881,3.881,0,0,0-6.608,3.537,11.007,11.007,0,0,1-7.993-4.052,3.882,3.882,0,0,0,1.2,5.177,3.85,3.85,0,0,1-1.756-.486c0,.016,0,.033,0,.049a3.88,3.88,0,0,0,3.111,3.8,3.893,3.893,0,0,1-1.751.067,3.882,3.882,0,0,0,3.622,2.693A7.827,7.827,0,0,1,25.1,47.645a11.027,11.027,0,0,0,16.976-9.291c0-.168,0-.335-.011-.5A7.863,7.863,0,0,0,44,35.846Z" transform="translate(-25.103 -34.028)" fill="#e84a94"/>
    </g>
  </g>
</svg>
